<?xml version="1.0" encoding="UTF-8"?>
<svg width="1147px" height="1130px" viewBox="0 0 1147 1130" version="1.1" xmlns="http://www.w3.org/2000/svg" xmlns:xlink="http://www.w3.org/1999/xlink">
    <!-- Generator: Sketch 61.2 (89653) - https://sketch.com -->
    <title>404</title>
    <desc>Created with Sketch.</desc>
    <defs>
        <linearGradient x1="11.2428451%" y1="31.4560412%" x2="88.9691817%" y2="68.3521016%" id="linearGradient-1">
            <stop stop-color="#F4DBA9" offset="0%"></stop>
            <stop stop-color="#F0E2E2" offset="99.8%"></stop>
        </linearGradient>
        <linearGradient x1="10.6905371%" y1="67.0301164%" x2="88.6826178%" y2="33.0218441%" id="linearGradient-2">
            <stop stop-color="#F4DBA9" offset="0%"></stop>
            <stop stop-color="#F0E2E2" offset="99.8%"></stop>
        </linearGradient>
        <linearGradient x1="14.8750484%" y1="41.8169127%" x2="85.3387797%" y2="58.2099442%" id="linearGradient-3">
            <stop stop-color="#F0E2E2" offset="0.2043269%"></stop>
            <stop stop-color="#F4DBA9" offset="100%"></stop>
        </linearGradient>
        <linearGradient x1="22.628853%" y1="32.1721676%" x2="77.2277574%" y2="67.7351039%" id="linearGradient-4">
            <stop stop-color="#F0E2E2" offset="0.2043269%"></stop>
            <stop stop-color="#F4DBA9" offset="100%"></stop>
        </linearGradient>
        <linearGradient x1="53.0685148%" y1="65.2979384%" x2="46.9291773%" y2="34.3681992%" id="linearGradient-5">
            <stop stop-color="#D3E0DF" offset="42.84%"></stop>
            <stop stop-color="#D5E1DF" offset="68.8%"></stop>
            <stop stop-color="#F1F0E2" offset="93.83%"></stop>
        </linearGradient>
        <linearGradient x1="36.4734262%" y1="51.4416062%" x2="64.4489614%" y2="49.6753237%" id="linearGradient-6">
            <stop stop-color="#BDD3DE" offset="34.81%"></stop>
            <stop stop-color="#1C4461" offset="59.15%"></stop>
            <stop stop-color="#153E5C" offset="77.29%"></stop>
        </linearGradient>
        <linearGradient x1="26.8950517%" y1="51.4904109%" x2="72.0298705%" y2="49.2908532%" id="linearGradient-7">
            <stop stop-color="#153E5C" offset="22.71%"></stop>
            <stop stop-color="#1C4461" offset="40.85%"></stop>
            <stop stop-color="#BDD3DE" offset="65.19%"></stop>
        </linearGradient>
        <linearGradient x1="37.356026%" y1="51.0825651%" x2="63.4427562%" y2="49.3300626%" id="linearGradient-8">
            <stop stop-color="#19233D" offset="24.31%"></stop>
            <stop stop-color="#5A142A" stop-opacity="0.6" offset="100%"></stop>
        </linearGradient>
        <linearGradient x1="-1.59808142%" y1="51.573112%" x2="100.715956%" y2="48.0601457%" id="linearGradient-9">
            <stop stop-color="#BDD3DE" offset="34.81%"></stop>
            <stop stop-color="#1C4461" offset="59.15%"></stop>
            <stop stop-color="#153E5C" offset="77.29%"></stop>
        </linearGradient>
        <linearGradient x1="44.089352%" y1="50.5983872%" x2="55.7905131%" y2="49.369812%" id="linearGradient-10">
            <stop stop-color="#19233D" offset="0.5829327%"></stop>
            <stop stop-color="#DF7D56" stop-opacity="0.6" offset="100%"></stop>
        </linearGradient>
        <linearGradient x1="0.613955646%" y1="51.7281977%" x2="98.2979088%" y2="49.0870468%" id="linearGradient-11">
            <stop stop-color="#19233D" offset="0.5829327%"></stop>
            <stop stop-color="#DF7D56" stop-opacity="0.6" offset="100%"></stop>
        </linearGradient>
        <linearGradient x1="0.476013418%" y1="50.7467971%" x2="99.2585504%" y2="49.4447162%" id="linearGradient-12">
            <stop stop-color="#19233D" offset="0.5829327%"></stop>
            <stop stop-color="#DF7D56" stop-opacity="0.6" offset="100%"></stop>
        </linearGradient>
        <linearGradient x1="1.17258571%" y1="52.1622081%" x2="99.1561993%" y2="48.9511924%" id="linearGradient-13">
            <stop stop-color="#19233D" offset="0.5829327%"></stop>
            <stop stop-color="#DF7D56" stop-opacity="0.6" offset="100%"></stop>
        </linearGradient>
        <linearGradient x1="-0.0284672925%" y1="51.2603353%" x2="100.997673%" y2="49.2659397%" id="linearGradient-14">
            <stop stop-color="#19233D" offset="24.31%"></stop>
            <stop stop-color="#5A142A" stop-opacity="0.6" offset="100%"></stop>
        </linearGradient>
        <linearGradient x1="0.270155039%" y1="49.9018797%" x2="157.674031%" y2="49.9018797%" id="linearGradient-15">
            <stop stop-color="#19233D" offset="0.5829327%"></stop>
            <stop stop-color="#DF7D56" stop-opacity="0.6" offset="100%"></stop>
        </linearGradient>
        <linearGradient x1="3.46971839%" y1="33.4088462%" x2="96.6857291%" y2="69.726938%" id="linearGradient-16">
            <stop stop-color="#000000" offset="0.05557009%"></stop>
            <stop stop-color="#000000" offset="81.06%"></stop>
        </linearGradient>
        <linearGradient x1="99.6614012%" y1="56.2010432%" x2="0.679912526%" y2="45.0124206%" id="linearGradient-17">
            <stop stop-color="#000000" offset="0.05557009%"></stop>
            <stop stop-color="#000000" offset="81.06%"></stop>
        </linearGradient>
        <linearGradient x1="97.1242665%" y1="37.5720969%" x2="2.82363463%" y2="62.4264156%" id="linearGradient-18">
            <stop stop-color="#000000" offset="0.05557009%"></stop>
            <stop stop-color="#000000" offset="81.06%"></stop>
        </linearGradient>
        <linearGradient x1="97.658968%" y1="64.8541197%" x2="2.9599453%" y2="35.2385246%" id="linearGradient-19">
            <stop stop-color="#000000" offset="0.05557009%"></stop>
            <stop stop-color="#000000" offset="81.06%"></stop>
        </linearGradient>
        <linearGradient x1="30.9155233%" y1="42.1433251%" x2="70.2803175%" y2="57.2993941%" id="linearGradient-20">
            <stop stop-color="#002544" offset="0%"></stop>
            <stop stop-color="#271C41" offset="91.74%"></stop>
        </linearGradient>
        <linearGradient x1="1.36444523%" y1="51.5845406%" x2="98.390977%" y2="48.582822%" id="linearGradient-21">
            <stop stop-color="#19233D" offset="0.5829327%"></stop>
            <stop stop-color="#DF7D56" stop-opacity="0.6" offset="100%"></stop>
        </linearGradient>
        <linearGradient x1="0.482279733%" y1="50.3202244%" x2="100.331378%" y2="48.9391843%" id="linearGradient-22">
            <stop stop-color="#DF7D56" stop-opacity="0.6" offset="0%"></stop>
            <stop stop-color="#19233D" offset="72.41%"></stop>
        </linearGradient>
        <linearGradient x1="115.097397%" y1="69.9993671%" x2="22.1331683%" y2="36.7346159%" id="linearGradient-23">
            <stop stop-color="#19233D" offset="0.5829327%"></stop>
            <stop stop-color="#DF7D56" stop-opacity="0.6" offset="100%"></stop>
        </linearGradient>
        <linearGradient x1="-0.893827903%" y1="18.1583489%" x2="104.020322%" y2="66.902648%" id="linearGradient-24">
            <stop stop-color="#19233D" stop-opacity="0.7" offset="10.88%"></stop>
            <stop stop-color="#5A142A" stop-opacity="0.6" offset="70.73%"></stop>
        </linearGradient>
        <linearGradient x1="-0.360465686%" y1="50.5192083%" x2="99.6553118%" y2="50.5192083%" id="linearGradient-25">
            <stop stop-color="#19233D" stop-opacity="0.7" offset="10.88%"></stop>
            <stop stop-color="#5A142A" stop-opacity="0.6" offset="70.73%"></stop>
        </linearGradient>
        <linearGradient x1="27.0845294%" y1="51.1509613%" x2="72.8278368%" y2="48.7668278%" id="linearGradient-26">
            <stop stop-color="#BDD3DE" offset="60.11%"></stop>
            <stop stop-color="#153E5C" offset="98.04%"></stop>
        </linearGradient>
        <linearGradient x1="50.2573265%" y1="15.9555394%" x2="49.9843527%" y2="98.1399417%" id="linearGradient-27">
            <stop stop-color="#19233D" offset="24.31%"></stop>
            <stop stop-color="#5A142A" stop-opacity="0.6" offset="100%"></stop>
        </linearGradient>
    </defs>
    <g id="Page-1" stroke="none" stroke-width="1" fill="none" fill-rule="evenodd">
        <g id="404">
            <g id="background">
                <g id="general">
                    <g id="figure1" transform="translate(0.000000, 70.000000)">
                        <path d="M582.7,160.5 C579.8,171.1 574.1,178 564.5,185.5 C558.5,190.2 551,195.1 541.7,201.2 C539.6,202.6 537.3,204.1 535,205.7 C530.1,209 524.7,212.6 518.9,216.8 C514.1,220.2 509,223.9 503.6,228 C503.6,228 481.7,244.5 444.2,280.6 C440.7,284 437,287.6 433.2,291.3 C429,295.5 424.6,299.9 420,304.5 C419.4,305.1 418.8,305.7 418.2,306.3 C414,310.6 409.6,315.1 405.1,319.8 C356.6,370.2 337,421.8 323.8,465.9 C322,471.9 320.3,477.7 318.7,483.4 C307.9,521.2 299.9,552.1 278,569.7 C274.4,572.6 270.5,575.1 266.1,577.2 C262.2,579.1 258.1,580.6 253.8,581.8 C223.6,590.2 184,581.6 145.1,561 C139,557.8 132.9,554.3 126.9,550.5 C116.3,543.9 105.9,536.4 95.9,528.2 C90.9,524.1 85.9,519.7 81.1,515.2 C66,501.2 52.2,485.5 40.4,468.5 C34.7,460.4 29.5,452 24.9,443.3 C21.5,436.9 18.4,430.4 15.6,423.8 C11.5,414 8.1,403.9 5.6,393.7 C3.6,385.7 2.2,377.7 1.3,369.5 C1.2,368.7 1.1,368 1.1,367.2 C0.7,363.1 0.5,359.1 0.4,354.9 C-1.4,275.3 53.5,217.2 114,161.7 C119.9,156.2 125.9,150.8 132,145.4 C133.1,144.4 134.2,143.4 135.3,142.4 C140.5,137.7 151.6,127.7 167.1,115 C171,111.9 175.1,108.5 179.5,105.1 C210.4,80.9 253.8,50.5 301.8,28.7 C308.1,25.8 314.5,23.1 320.9,20.6 C343.7,11.6 367.2,4.9 390.7,1.9 C395.7,1.2 400.8,0.8 405.8,0.5 C421.2,-0.4 436.5,0.5 451.5,3.5 C456.3,4.5 461.1,5.7 465.8,7.1 C474.4,9.7 482.8,13.1 491.1,17.4 C492.4,18.1 493.7,18.7 495,19.5 C498.4,21.4 501.8,23.4 505.1,25.6 C526.3,39.4 545.7,58.7 560,79.5 C563.4,84.4 566.5,89.4 569.3,94.5 C571.6,98.7 573.7,102.9 575.6,107.1 C579.4,115.7 582.1,124.3 583.5,132.6 C583.8,134.4 584.1,136.3 584.3,138.1 C584.3,138.6 584.4,139 584.4,139.5 C585,146.8 584.5,153.9 582.7,160.5 L582.7,160.5 Z" id="Shape" fill="#EEEDEE"></path>
                        <path d="M575.5,107 C575.5,107.1 575.4,107.2 575.4,107.4 C574.5,110.5 573.5,113.6 572.6,116.7 C565.2,140.9 556.7,164.7 547.3,188 C545.5,192.4 543.7,196.8 541.8,201.2 C541.6,201.6 541.5,202 541.3,202.4 C550.5,196.3 558.1,191.4 564.1,186.7 L564.1,186.7 C564.3,186.3 564.4,185.9 564.6,185.5 C571.4,168.1 577.7,150.5 583.5,132.7 L583.5,132.6 C582,124.3 579.3,115.7 575.5,107 L575.5,107 Z M560,79.5 C559.9,79.6 559.9,79.7 559.8,79.9 C545.5,105.9 534.5,134 527.4,163.5 C523.2,180.9 520.4,198.8 519,216.8 C519,217.1 518.9,217.4 518.9,217.7 C524.7,213.6 530.1,209.9 535,206.7 L535,206.7 C535,206.4 535.1,206.1 535.1,205.8 C539,172.2 548.3,139.3 562.1,109 C564.3,104.2 566.6,99.5 569,94.8 C569,94.7 569.1,94.6 569.2,94.5 C566.5,89.4 563.4,84.4 560,79.5 L560,79.5 Z M494.9,19.4 C493.6,18.7 492.3,18 491,17.3 C491,17.5 490.9,17.8 490.9,18 L490.7,19.7 C487,50.7 481.9,81.5 475.7,111.9 C464.8,165.5 450.2,218.2 431.9,269.4 C431.7,260.9 431.8,252.4 431.9,244.3 C432.9,190.6 439.5,136.6 448.9,84 C453.3,59.1 458,32.8 465.4,7.7 C465.5,7.5 465.5,7.2 465.6,7 C460.9,5.6 456.1,4.3 451.3,3.4 L451.1,4.1 C445.2,24.4 440.9,45.4 437,66 C426,123.7 418.3,183.2 417,242.2 C416.7,256.9 416.9,271.6 418.1,286.2 C418.5,291.4 419,296.8 419.6,302.2 C419.1,303.5 418.6,304.9 418,306.2 C417.8,306.7 417.6,307.2 417.4,307.6 C426.8,298.1 435.5,289.4 443.6,281.7 C443.8,281.3 443.9,280.8 444.1,280.4 C452.3,257.4 459.9,234.2 466.7,210.8 C484.3,150.6 497,88.8 504.8,26.1 C504.8,25.9 504.9,25.6 504.9,25.4 C501.7,23.4 498.3,21.3 494.9,19.4 L494.9,19.4 Z M188,132.5 C186,123.6 183.4,114.3 179.7,105.7 C179.6,105.5 179.5,105.3 179.4,105.1 C175,108.5 170.9,111.9 167,115 C167.1,115.2 167.2,115.4 167.3,115.6 C177.1,139.5 178.2,167.3 178.9,192.9 C179.7,222.3 179.2,251.7 176.9,281 C172.5,338 160.9,395.3 137.8,446.9 C134.6,454 131.3,461 127.7,467.8 C126.3,455.6 125.1,443.4 123.9,431.4 C117.7,366.6 115.7,301.1 120.5,236.1 C122.7,206 126.3,176 131.7,146.3 C131.8,146 131.8,145.6 131.9,145.3 C125.9,150.7 119.9,156.2 113.9,161.6 C113.8,161.9 113.8,162.3 113.7,162.6 C113.2,165.5 112.8,168.5 112.4,171.4 C107.3,206.7 104.4,242.3 103.3,277.9 C101.2,348.4 106,419.1 115.5,488.8 C109.9,497.3 103.4,505.4 95.1,510.6 C90.2,513.7 85.4,515 80.9,515 L80.1,515 C85,519.6 90,524 95.1,528.2 C95.3,528.1 95.5,528 95.7,528 C104.2,524.2 111.9,517.8 118.6,510.1 C120.8,523.6 123.4,537 126.6,550.3 C126.7,550.6 126.7,550.9 126.8,551.2 C132.8,555 138.9,558.5 145,561.7 C144.9,561.4 144.8,561.1 144.8,560.8 C138.4,538.9 134.1,516.1 130.8,493.2 C145.5,469.8 156.6,443.1 165.6,416.5 C185.7,356.8 193.2,292.6 194,229.2 C194.6,197.4 194.8,163.9 188,132.5 L188,132.5 Z M80.8,265 C80,252.4 77.5,233.4 61.9,235.1 C55,235.9 49.7,241.8 45.4,247.3 C40.8,253.2 36.8,259.6 33.4,266.5 C19.6,294.7 14.6,328.4 12.9,360 C11.9,378.3 12.4,396.8 14.3,415.1 C11,409.1 8,401.4 5.4,393.9 C5.3,393.5 5.2,393.2 5,392.8 C11.5,420.2 24.1,446.3 40.6,470 C40.5,469.6 40.3,469.2 40.2,468.8 C38.4,463 36.9,457 35.5,451 C34.8,448 34.2,445.1 33.6,442.1 C45.1,437.4 51,422.6 55.8,411.2 C62.2,396 67.5,380.3 71.5,364.2 C79.6,332 82.8,298.2 80.8,265 L80.8,265 Z M66,299.2 C65.3,314.8 63.4,330.2 60.3,345.4 C57.4,360.1 53.4,374.5 48.4,388.4 C46,395 43.4,401.5 40.6,407.9 C38.1,413.6 35.5,420.3 31,424.5 C30.9,424.6 30.8,424.7 30.7,424.7 C29.6,417.3 28.8,409.9 28.3,402.5 C26.1,371.6 28,340.3 34.6,310.2 C37.6,296.5 41.7,282.9 48.3,270.7 C51.2,265.2 54.6,260.1 58.6,255.5 C59.2,254.8 62.1,251 63.1,251.2 C63.6,251.3 64.5,254.8 64.8,256.1 C67.5,269.9 66.7,285.3 66,299.2 L66,299.2 Z M405.8,1.2 L405.8,0.4 C400.8,0.7 395.7,1.2 390.7,1.8 L390.7,2.6 C391,8.6 391,14.7 391.1,20.7 C391.2,54.4 387.8,88 384,121.3 C380.3,153.4 375.6,185.4 370,217.2 C358.8,281.2 343.9,344.4 325.5,406.4 C319.7,425.7 313.6,445 306.8,464 C300.6,460.2 295.8,453.3 292.2,446.6 C279.3,422.3 273.8,391.8 271.2,364.1 C268.3,333.2 269.2,302.1 271.4,271.2 C273.6,240.4 276.8,209.7 281.3,179.3 C289.2,125.5 301.2,71.8 320.5,21.5 C320.6,21.2 320.7,20.9 320.9,20.5 C314.5,23 308.1,25.8 301.8,28.6 C301.7,28.9 301.6,29.2 301.4,29.6 C297.9,39.4 294.7,49.4 291.7,59.4 C272.5,123.7 263,191.1 257.4,258.4 C254.6,291.9 253.1,325.7 255.8,359.2 C258.4,390.9 264.1,424.6 278.2,452.8 C283.6,463.6 291.1,473.7 301.2,479.2 C289.4,510.8 275.9,541.6 259.8,570.9 C257.8,574.5 255.8,578.1 253.8,581.6 C253.6,581.9 253.5,582.2 253.3,582.5 C257.8,581.3 262.2,579.7 266.2,577.7 C270.2,575.7 273.9,573.4 277.3,570.8 L277.3,570.8 C277.5,570.3 277.8,569.9 278.1,569.4 C283.9,558.3 289.4,547 294.5,535.6 C302.2,518.4 309.4,500.9 316,483.2 L318.8,483.2 L319.1,483.2 C320.7,477.5 322.4,471.6 324.2,465.6 C324.1,465.6 324,465.7 323.9,465.7 C323.3,465.9 322.8,466.1 322.2,466.2 C335.9,427.2 347.4,387.1 357.6,347 C375.1,278.2 388.4,208 397.1,137.2 C401.6,101.1 405.6,64.7 406.1,28.3 C406.1,20 406.3,10.7 405.8,1.2 L405.8,1.2 Z" id="Shape" fill="#BDD3DE" opacity="0.42"></path>
                        <path d="M582.8,161.3 C579.8,172.1 574,179.1 564.1,186.7 L564.1,186.7 C558.1,191.4 550.5,196.3 541.3,202.4 C539.3,203.7 537.2,205.1 535,206.6 L535,206.6 C530.1,209.9 524.7,213.5 518.9,217.6 C514.2,221 509.1,224.6 503.7,228.7 C503.7,228.7 481.6,245.4 443.7,281.8 C435.7,289.5 426.9,298.1 417.5,307.7 C413.5,311.8 409.3,316.1 405,320.5 C356.8,370.6 337.2,421.8 323.9,465.7 C322.1,471.7 320.4,477.6 318.8,483.3 C307.8,522 299.7,553.4 277,571 L277,571 C273.6,573.6 270,575.9 265.9,577.9 C261.8,579.9 257.5,581.5 253,582.7 L253,582.7 C222.9,590.8 183.7,582.2 145.1,561.8 C139,558.6 132.9,555.1 126.9,551.3 C116.1,544.5 105.4,536.8 95.1,528.4 C90,524.2 84.9,519.8 80.1,515.2 L80.1,515.2 C65.5,501.5 52.1,486.2 40.5,469.8 L40.5,469.8 C24,446.2 11.4,420.1 4.9,392.6 L4.9,392.6 C3.1,385 1.8,377.3 1,369.6 C0.9,368.8 0.8,368.1 0.8,367.3 C0.5,363.5 0.3,359.7 0.2,355.8 C-1.5,276.3 53.3,218.2 113.7,162.8 C119.6,157.3 125.6,151.9 131.6,146.5 C132.8,145.4 134,144.4 135.2,143.3 C140.4,138.6 151.6,128.5 167.2,115.8 C171.1,112.7 175.2,109.3 179.6,105.9 C210.4,81.7 253.6,51.6 301.2,29.9 C307.5,27 313.9,24.3 320.3,21.8 C343.2,12.7 366.9,5.9 390.5,2.9 C395.5,2.3 400.6,1.8 405.6,1.5 C420.9,0.6 436.1,1.5 451,4.5 C455.8,5.5 460.6,6.7 465.3,8.1 C473.9,10.7 482.4,14.1 490.7,18.4 C492,19.1 493.4,19.8 494.7,20.5 C498.1,22.4 501.4,24.4 504.7,26.5 C525.8,40.2 545.2,59.4 559.5,80.1 C562.9,85 566,90 568.8,95 C571.1,99.2 573.3,103.4 575.1,107.6 C578.9,116.1 581.6,124.7 583.1,132.9 C583.4,134.7 583.7,136.5 583.9,138.3 C583.9,138.8 584,139.2 584,139.7 C585.1,147.1 584.7,154.5 582.8,161.3 L582.8,161.3 Z" id="Shape"></path>
                    </g>
                    <path d="M813.6,285.8 C908.1,380 889.5,560.2 855.5,663.8 C818.3,777.3 748.2,842.7 726.4,861.9 C580.2,990 340.4,1016.8 274.3,914.4 C239.6,860.6 243.1,758.7 284.3,718.3 C305.2,697.9 320.9,707.7 344.6,682.4 C370.7,654.6 363.1,630.6 389.8,552.6 C405.9,505.5 414,481.9 432.5,464.2 C465.1,433 488.8,449.5 517.9,420 C547,390.5 532.9,364.4 559.2,316.7 C561.3,312.9 599.1,247.4 664.9,232.6 C741.2,215.5 805.4,277.6 813.6,285.8 L813.6,285.8 Z" id="figure2" fill="#EEEDEE"></path>
                    <g id="circle" transform="translate(413.000000, 332.000000)">
                        <ellipse id="Oval" fill="url(#linearGradient-1)" cx="30.5" cy="33.5" rx="30.5" ry="33.5"></ellipse>
                        <ellipse id="Oval" fill="url(#linearGradient-2)" cx="576" cy="510.5" rx="65" ry="71.5"></ellipse>
                    </g>
                    <g id="squares" transform="translate(114.000000, 46.000000)">
                        <polygon id="Shape" fill="url(#linearGradient-3)" points="34.8 795.6 0.1 787.5 7.5 749.3 42.2 757.4"></polygon>
                        <polygon id="Shape" fill="url(#linearGradient-4)" points="998.8 48.5 970.7 30.7 986.9 -0.2 1015 17.6"></polygon>
                    </g>
                    <g id="lines" transform="translate(47.000000, 10.000000)" fill="#EBDEDE">
                        <path d="M1026.1,1112.1 C840.1,1014.3 703.6,1015.8 612.8,1035.9 C486.8,1063.8 433.4,1122.3 322.1,1119.8 C182.8,1116.6 71.7,1016 0.4,933 C6.6,918.4 12.8,903.9 19,889.3 C81.2,970.6 180.4,1072 310.3,1082.2 C422,1091 480.3,1029.4 606.9,998.2 C701.9,974.8 841.9,972.1 1033.2,1070.3 C1030.8,1084.3 1028.5,1098.2 1026.1,1112.1 L1026.1,1112.1 Z" id="Shape"></path>
                        <path d="M672.2,91.3 C561.1,59.7 486.7,76.6 439,98.2 C366.2,131.3 343.1,165.6 288.3,178.2 C229.9,191.6 139.4,173.7 3.6,21.6 C9.4,14.5 15.3,7.5 21.1,0.4 C139.7,139 223.6,159.1 279.8,149.2 C342.3,138.2 366.8,90.7 449.8,63.1 C535.4,34.6 616,49.7 672.1,67.7 C672.1,75.6 672.2,83.4 672.2,91.3 L672.2,91.3 Z" id="Shape"></path>
                    </g>
                    <g id="figure3" transform="translate(757.000000, 0.000000)">
                        <path d="M158.9,0.6 C323.5,17.4 456.4,505.3 353.4,623.4 C316.1,666.2 240,669.4 199,631.3 C127.9,565.1 205.7,414.3 127.2,282.3 C74.4,193.5 0.9,197.2 0.1,139.8 C-0.9,76.7 86.2,-6.9 158.9,0.6 L158.9,0.6 Z" id="Shape" fill="#EEEDEE"></path>
                        <path d="M259.6,69.7 L250.9,87.7 C247.8,94.1 240.5,96.6 234.7,93.2 L234,92.8 C228.2,89.4 225.9,81.4 229,75 L241.7,48.6 C247.8,55.1 253.7,62.1 259.6,69.7 L259.6,69.7 Z" id="Shape" fill="#FFFFFF" opacity="0.5"></path>
                        <path d="M284.3,265.8 L283.6,265.4 C277.8,262 275.5,254 278.6,247.6 L295.6,212.1 C298.7,205.7 306,203.2 311.8,206.6 L312.5,207 C318.3,210.4 320.6,218.4 317.5,224.8 L300.5,260.3 C297.5,266.7 290.2,269.2 284.3,265.8 L284.3,265.8 Z" id="Shape" fill="#FFFFFF" opacity="0.5"></path>
                        <path d="M213.1,231.6 L212.4,232.1 C207.1,236.4 199.5,235.2 195.6,229.3 L174,197 C170.1,191.2 171.2,182.9 176.5,178.6 L177.2,178.1 C182.5,173.8 190.1,175 194,180.9 L215.7,213.2 C219.6,219 218.4,227.3 213.1,231.6 L213.1,231.6 Z" id="Shape" fill="#FFFFFF" opacity="0.5"></path>
                        <path d="M239.2,535.3 L238.5,535.8 C233.2,540.1 225.6,538.9 221.7,533 L200,500.7 C196.1,494.9 197.2,486.6 202.5,482.3 L203.2,481.8 C208.5,477.5 216.1,478.7 220,484.6 L241.7,516.9 C245.6,522.7 244.5,531 239.2,535.3 L239.2,535.3 Z" id="Shape" fill="#FFFFFF" opacity="0.5"></path>
                        <path d="M310.1,632.7 L309.3,632.5 C302.9,630.6 299.1,623.4 300.8,616.4 L310.1,577.6 C311.8,570.6 318.4,566.4 324.8,568.2 L325.6,568.4 C332,570.3 335.8,577.5 334.1,584.5 L324.8,623.3 C323,630.3 316.4,634.5 310.1,632.7 L310.1,632.7 Z" id="Shape" fill="#FFFFFF" opacity="0.5"></path>
                        <path d="M225.4,641.7 L223.9,647.7 C215.9,644 208.4,639.3 201.7,633.6 C203.8,627.2 210,623.5 216.1,625.3 L216.9,625.5 C223.3,627.4 227.1,634.7 225.4,641.7 L225.4,641.7 Z" id="Shape" fill="#FFFFFF" opacity="0.5"></path>
                        <path d="M312.6,355 L313.1,355.7 C317,361.5 315.9,369.8 310.6,374.1 L281.2,397.9 C275.9,402.2 268.3,401 264.4,395.1 L263.9,394.4 C260,388.6 261.1,380.3 266.4,376 L295.8,352.2 C301.1,347.9 308.7,349.1 312.6,355 L312.6,355 Z" id="Shape" fill="#FFFFFF" opacity="0.5"></path>
                        <path d="M389.6,478 L367.4,496 C362.1,500.3 354.5,499.1 350.6,493.2 L350.1,492.5 C346.2,486.7 347.3,478.4 352.6,474.1 L382,450.3 C383.9,448.7 386.2,447.9 388.4,447.8 C389.1,458 389.5,468.1 389.6,478 L389.6,478 Z" id="Shape" fill="#FFFFFF" opacity="0.5"></path>
                        <path d="M194.7,332.7 L194.6,333.6 C193.8,340.8 187.7,345.9 181.2,345 L152.6,340.9 C149.9,331.7 146.7,322.5 142.9,313.3 C144.6,312.7 146.4,312.5 148.2,312.7 L184.4,317.8 C190.9,318.9 195.6,325.6 194.7,332.7 L194.7,332.7 Z" id="Shape" fill="#FFFFFF" opacity="0.5"></path>
                        <path d="M95,154 L94.9,154.9 C94.1,162.1 88,167.2 81.5,166.3 L45.3,161.2 C38.8,160.3 34.1,153.6 34.9,146.4 L35,145.5 C35.8,138.3 41.9,133.2 48.4,134.1 L84.6,139.2 C91.2,140.2 95.9,146.8 95,154 L95,154 Z" id="Shape" fill="#FFFFFF" opacity="0.5"></path>
                        <path d="M159.1,79 L158.3,79.3 C152,81.4 145.3,77.4 143.4,70.5 L132.9,32 C131,25.1 134.6,17.7 140.9,15.6 L141.7,15.3 C148,13.2 154.7,17.2 156.6,24.1 L167.1,62.5 C169,69.5 165.4,76.9 159.1,79 L159.1,79 Z" id="Shape" fill="#FFFFFF" opacity="0.5"></path>
                        <path d="M353.4,623.3 C322.8,658.4 266,666.9 224,647.7 C216,644 208.5,639.3 201.8,633.6 C200.9,632.8 200,632 199,631.2 C138.2,574.7 186.1,456.5 152.6,341 C149.9,331.8 146.7,322.6 142.9,313.4 C138.5,302.9 133.4,292.5 127.2,282.2 C74.4,193.4 0.9,197.1 0.1,139.7 C-0.9,76.8 86.2,-6.8 158.9,0.6 C187.8,3.6 215.8,21.1 241.7,48.6 C247.8,55.1 253.8,62.1 259.6,69.7 C329.1,159.3 380.2,318.8 388.4,447.7 C389.1,458 389.4,468.1 389.5,478 C390.2,540.9 379.2,593.7 353.4,623.3 L353.4,623.3 Z" id="Shape"></path>
                    </g>
                </g>
            </g>
            <g id="main" transform="translate(268.000000, 114.000000)">
                <g id="general_1_">
                    <g id="search_bar" transform="translate(0.000000, 636.000000)">
                        <path d="M582.8,221.6 C582,222.1 581.1,222.7 580.3,223.3 C560.2,239.2 539.6,247.5 519.1,248.1 C505.5,248.5 494.1,245.3 483.5,239.5 C468.5,231.3 455.1,217.9 439,201.8 C414.4,177.2 386.5,149.3 344.1,131.1 C289.1,107.4 247.4,117.2 213.9,125 C181.4,132.6 157.9,138.1 126.5,118.4 C93.7,97.9 66.8,58.2 46.3,0.3 C33.1,9.8 14.4,22.7 -0.1,32.7 C25.8,103 60.9,152.4 104.5,179.7 C152.1,209.5 189.4,200.8 225.5,192.4 C257.2,185 287.2,178 328.8,195.9 C362.2,210.3 385,233.1 407.1,255.2 C425.6,273.7 444.5,292.6 467.9,304.4 C483.6,312.4 501.3,317.2 522.2,316.6 C524.3,316.5 526.5,316.4 528.6,316.3 C555.9,314.2 582.6,303 608.2,283.1 C600.1,263.2 589.1,236.9 582.8,221.6 L582.8,221.6 Z" id="Shape" fill="url(#linearGradient-5)"></path>
                        <path d="M557.2,285.4 L544.3,278.5 C544.4,278.3 544.4,278.1 544.5,277.9 C545.4,274.9 545,271.7 543.5,269 C542,266.3 539.5,264.3 536.4,263.4 C533.4,262.5 530.2,262.9 527.5,264.4 C524.8,265.9 522.8,268.4 521.9,271.5 C521,274.6 521.4,277.7 522.9,280.4 C524.4,283.1 526.9,285.1 530,286 C531.2,286.3 532.4,286.5 533.6,286.4 C535.4,286.3 537.3,285.8 538.9,284.9 C540.2,284.2 541.4,283.2 542.3,282.1 L555.2,289 C555.5,289.2 555.9,289.3 556.3,289.2 C557,289.2 557.7,288.8 558.1,288.1 C558.6,287.2 558.3,285.9 557.2,285.4 L557.2,285.4 Z M535.9,279.5 C534.6,280.2 533.1,280.4 531.7,280 C530.3,279.6 529.1,278.7 528.4,277.4 C527.7,276.1 527.5,274.6 527.9,273.2 C528.3,271.8 529.2,270.6 530.5,269.9 C531.3,269.5 532.1,269.2 533,269.2 C533.6,269.2 534.1,269.3 534.7,269.4 C536.1,269.8 537.3,270.7 538,272 C539.5,274.7 538.6,278 535.9,279.5 L535.9,279.5 Z" id="Shape" fill="#FFFFFF"></path>
                    </g>
                    <g id="shoes" transform="translate(131.000000, 696.000000)">
                        <path d="M276.7,112.1 C276.6,112.2 276.6,112.3 276.5,112.4 C276.1,113 275.6,113.4 275,113.8 C268.3,118 259.5,101.7 231.9,90.1 C230.5,89.5 229.1,88.9 227.6,88.4 C220.6,85.6 213.7,82.6 213.1,77.5 C213.1,77.2 212.9,76.9 212.9,76.4 L212.9,75.6 C213.1,74.6 213.7,73.1 215.6,70.5 C216.5,69.2 217.5,67.8 218.5,66.1 C220.4,62.9 222.5,58.9 224.6,53.9 C225.1,52.7 226.4,52.8 227.6,52.2 C229.4,51.4 236,48.5 244.1,50.3 C245.7,50.7 248.2,51.4 250.9,52.9 C249.4,55.3 246.3,60.9 246.6,67.9 C246.6,68.3 246.6,68.7 246.7,69.1 C246.7,69.4 246.8,69.8 246.8,70.1 C247,71.6 247.4,73.1 247.8,74.4 C248.1,75.2 248.4,75.9 248.7,76.6 C251.3,82.5 255.7,86.3 257.3,87.6 C266.6,95.8 274.6,93.7 277.5,100.5 C279,104 278.8,109.1 276.7,112.1 L276.7,112.1 Z" id="Shape" fill="#000000"></path>
                        <path d="M276.5,112.4 C276.1,113 275.6,113.4 275,113.8 C268.3,118 259.5,101.7 231.9,90.1 C230.5,89.5 229.1,88.9 227.6,88.4 C220.6,85.6 213.7,82.6 213.1,77.5 C213.1,77.2 212.9,76.9 212.9,76.4 L212.9,75.6 C217,77.8 221,80.1 225.1,82.4 C230.5,85.5 236,88.6 241.6,91.8 C253.6,98.5 265.2,105.5 276.5,112.4 L276.5,112.4 Z" id="Shape" fill="#791D2C"></path>
                        <path d="M246.9,69.9 L241,68.4 C240.4,68.3 240.1,67.7 240.2,67.1 C240.3,66.6 240.9,66.2 241.5,66.4 L246.7,67.7 C246.7,68.1 246.7,68.5 246.8,68.9 C246.8,69.3 246.9,69.6 246.9,69.9 L246.9,69.9 Z" id="Shape" fill="#791D2C"></path>
                        <path d="M248.8,76.5 L241.8,75.6 C241.2,75.5 240.8,75 240.9,74.4 C241,73.8 241.5,73.4 242.1,73.5 L248,74.2 C248.2,75 248.5,75.8 248.8,76.5 L248.8,76.5 Z" id="Shape" fill="#791D2C"></path>
                        <path d="M59.2,66.8 C58.7,71.1 46.8,75.6 37.1,72.8 C32.1,71.3 29.2,68.3 25.8,65 C23.9,63.1 22.6,61.4 21.5,59.8 C16.8,52.7 14.6,47.9 12,43 C10.9,40.8 9.7,38.9 8.7,37.3 C2.9,28.4 -1.4,26.4 -0.2,22.3 C0.2,21.1 0.8,20.4 2.4,19.3 C4,18.2 6.7,16.7 11.2,13.9 C11.3,13.9 11.3,13.8 11.3,13.8 C13.8,12.2 17.1,10.3 23.3,5.8 C26.9,3.2 29.7,0.9 31.5,-0.5 C36.4,5.3 41.2,11 46.1,16.8 C44.2,18.4 41.4,21.3 39.2,25.5 C38.8,26.2 38.3,27.3 37.7,28.6 C37.4,29.2 37.2,29.9 37,30.6 C36.6,31.9 36.2,33.4 36,35 C35.9,35.7 35.8,36.4 35.8,37.1 C35.7,38.6 35.8,40.1 36,41.7 C37.3,49.8 43.6,59.5 51,60.7 C52.6,61 56.4,61.2 58.3,63.8 C58.4,63.9 58.6,64.2 58.8,64.5 C59,65.1 59.3,65.9 59.2,66.8 L59.2,66.8 Z" id="Shape" fill="#000000"></path>
                        <path d="M59.2,66.8 C58.7,71.1 46.8,75.6 37.1,72.8 C32.1,71.3 29.2,68.3 25.8,65 C23.9,63.1 22.6,61.4 21.5,59.8 C16.8,52.7 14.6,47.9 12,43 C10.9,40.8 9.7,38.9 8.7,37.3 C2.9,28.4 -1.4,26.4 -0.2,22.3 C0.2,21.1 0.8,20.4 2.4,19.3 C2.4,19.3 5.4,24.7 9.3,31.8 C15.8,43.5 25.1,59.5 28,62.2 C32.4,66.3 42.6,76.4 58.7,64.5 C59,65.1 59.3,65.9 59.2,66.8 L59.2,66.8 Z" id="Shape" fill="#791D2C"></path>
                        <path d="M37.6,28.6 C37.3,29.2 37.1,29.9 36.9,30.6 L31.2,27.6 C30.7,27.3 30.5,26.7 30.8,26.2 C31.1,25.7 31.7,25.5 32.2,25.8 L37.6,28.6 L37.6,28.6 Z" id="Shape" fill="#791D2C"></path>
                        <path d="M35.9,35 C35.8,35.7 35.7,36.4 35.7,37.1 L30.2,35.8 C29.6,35.7 29.3,35.1 29.4,34.5 C29.5,33.9 30.1,33.6 30.7,33.7 L35.9,35 L35.9,35 Z" id="Shape" fill="#791D2C"></path>
                        <path d="M11.3,13.9 L9.3,31.9 L8.7,37.3 C2.9,28.4 -1.4,26.4 -0.2,22.3 C0.2,21.1 0.8,20.4 2.4,19.3 C4,18.2 6.7,16.7 11.2,13.9 C11.2,13.9 11.2,13.9 11.3,13.9 L11.3,13.9 Z" id="Shape" fill="url(#linearGradient-6)" opacity="0.09"></path>
                        <path d="M227.6,88.3 C220.6,85.5 213.7,82.5 213.1,77.4 C213.1,77.1 212.9,76.8 212.9,76.3 L212.9,75.5 C213.1,74.5 213.7,73 215.6,70.4 C216.5,69.1 217.5,67.7 218.5,66 L225.1,82.3 L227.6,88.3 L227.6,88.3 Z" id="Shape" fill="url(#linearGradient-7)" opacity="0.09"></path>
                    </g>
                    <g id="leg_back" transform="translate(317.000000, 364.000000)">
                        <path d="M146.9,209 C146.5,210.3 146.8,209.2 138.7,226.8 L138.7,226.8 C121.5,264.3 109.1,293.6 104.6,304.4 C94.9,327.5 83,357 70.1,392 C62.5,391.7 54.8,391.4 47.2,391.1 C41.8,390.9 36.4,390.7 31,390.5 C52.1,298 60.7,262.3 63.4,252.5 C63.5,252 64,250.3 64.7,247.9 L64.7,247.9 C65,246.7 65.4,245.3 65.8,243.7 C67.5,237.2 69.7,228.3 71.8,217.5 C74.5,203.7 76.1,192.3 76.4,189.5 C76.7,186.6 76.7,183.7 76.3,180.8 C72.1,148.2 26.6,116.9 0.6,71.1 C-3.7,63.5 7.4,46.1 22,29.1 C28.2,21.9 35.1,14.7 41.6,8.4 L77.4,-0.2 C80.3,6.1 83,12.2 85.6,18.1 C89.7,27.4 93.5,36.2 96.9,44.3 C97.7,46.1 98.4,47.9 99.1,49.6 C99.7,51 100.3,52.5 100.9,53.9 C103.6,60.4 106.1,66.5 108.5,72.4 C111.9,80.6 115,88.3 117.9,95.5 C147.4,168.7 153.1,188 146.9,209 L146.9,209 Z" id="Shape" fill="#19233D"></path>
                        <path d="M76.4,189.4 C80.3,153.5 28.9,120.9 0.6,71 C-3.7,63.4 7.4,46 22,29 L85.6,18 C90.6,29.4 95.1,39.9 99.1,49.5 C99.7,50.9 100.3,52.4 100.9,53.8 C103.6,60.3 106.1,66.4 108.5,72.3 C111.9,80.5 115,88.2 117.9,95.4 C115.1,136 104.4,206.4 64.7,247.8 C65,246.6 65.4,245.2 65.8,243.6 C67.5,237.1 69.7,228.2 71.8,217.4 C74.5,203.6 76.1,192.2 76.4,189.4 L76.4,189.4 Z" id="Shape" fill="url(#linearGradient-8)" opacity="0.2"></path>
                        <path d="M138.7,226.8 C121.5,264.3 109.1,293.6 104.6,304.4 C94.9,327.5 83,357 70.1,392 C62.5,391.7 54.8,391.4 47.2,391.1 C51.9,381.2 60.2,362.2 74.5,326.4 C95.8,273.4 121.6,242.8 138.7,226.8 L138.7,226.8 Z" id="Shape" fill="#0B1D36" opacity="0.61"></path>
                    </g>
                    <g id="leg_front" transform="translate(147.000000, 364.000000)">
                        <path d="M206,64.6 C174.9,123.7 198.1,192.5 167.3,231.2 C166.6,232.1 165.5,233.4 165.4,233.6 C160.6,239.3 151.7,248.2 120.4,275.2 C81.2,309 48.3,335.6 25.8,353.2 C20.9,348.3 15.7,342.6 10.5,335.9 C6.6,331 3.3,326.2 0.4,321.7 C27.6,284.3 45.4,266.4 56.9,257 C59.6,254.8 68.6,246.5 81,235.4 C88.6,228.6 94.8,222.4 99.9,214.5 C99.9,214.5 103.3,209.2 106,203.2 C107.6,199.6 109,195.7 110.2,191.4 C120.7,154.6 116.3,97.6 116.3,97.6 C115,80.8 113.9,67.4 113.1,56.7 C110.7,24.7 110.5,16.6 112.6,11.6 C113.2,10.2 113.6,9.6 114.2,8.7 C116.7,4.9 120.4,1.8 125,-0.5 C156.5,3.2 188,6.9 219.5,10.6 C224.4,14.4 227.9,18.7 229.2,23.4 C232.4,35.2 219.4,39.2 206,64.6 L206,64.6 Z" id="Shape" fill="#153E5C"></path>
                        <path d="M206,64.6 C174.9,123.7 198.1,192.5 167.3,231.2 C166.6,232.1 165.5,233.4 165.4,233.6 C160.6,239.3 151.7,248.2 120.4,275.2 C81.2,309 48.3,335.6 25.8,353.2 C20.9,348.3 15.7,342.6 10.5,335.9 C6.6,331 3.3,326.2 0.4,321.7 C69.6,298.9 161.6,256.4 164.9,190.2 C166.2,164.2 161.7,157.9 169.7,120 C175.2,93.8 182.8,80.4 175.5,71.4 C168.6,63 157.8,69.4 132.6,62.8 C127.1,61.4 120,59.5 113.2,56.8 C110.8,24.8 110.6,16.7 112.7,11.7 C113.3,10.3 113.7,9.7 114.3,8.8 C116.8,5 120.5,1.9 125.1,-0.4 C156.6,3.3 188.1,7 219.6,10.7 C224.5,14.5 228,18.8 229.3,23.5 C232.4,35.2 219.4,39.2 206,64.6 L206,64.6 Z" id="Shape" fill="#0B1D36" opacity="0.37"></path>
                        <path d="M122.3,209.5 C123.7,217.7 86.3,240.4 56.8,257 C65.1,249.5 73.1,242.3 80.9,235.4 C88.5,228.6 94.7,222.4 99.8,214.5 C99.8,214.5 103.2,209.2 105.9,203.2 C107.5,199.6 108.9,195.7 110.1,191.4 C115.7,196.5 121.2,203 122.3,209.5 L122.3,209.5 Z" id="Shape" fill="url(#linearGradient-9)" opacity="0.09"></path>
                    </g>
                    <g id="tshirt" transform="translate(239.000000, 119.000000)">
                        <path d="M193.3,44.1 C192.3,40.6 190.4,33.9 185.4,27.2 C184.2,25.5 182.7,23.8 181,22.2 C177.8,19.1 174,16.4 170.1,14.1 C162.9,9.8 155.2,6.9 149.7,4.8 C148.5,4.3 147.5,4 146.8,3.7 C144.4,3.1 141.6,2.6 138.6,2.1 C137.9,2 137.2,1.9 136.5,1.8 C136.5,1.8 136.5,1.8 136.4,1.8 C134.6,1.5 132.6,1.3 130.6,1.1 C123.5,0.3 115.4,1.01141318e-13 106.6,0.6 C105.6,0.7 104.7,0.8 103.7,0.8 C100.1,1.6 96.6,2.6 93.4,3.9 C89.4,5.5 85.8,7.6 82.4,10.3 C80.3,12 78.3,13.8 76.4,15.9 C75.8,16.5 75.3,17.1 74.7,17.8 C67.1,26.8 60.7,39.6 54.2,57 C53.9,57.7 53.7,58.4 53.4,59.1 L53.4,59.1 C49.4,69.9 45.4,82.3 40.9,96.7 C40.7,97.2 40.6,97.7 40.4,98.3 C40.4,98.4 40.3,98.5 40.3,98.6 C36.5,110.7 32.5,124.1 28.2,138.6 C28,139.2 27.9,139.8 27.7,140.3 C24.8,150.1 21.9,160.4 18.9,171.2 C20.7,171.9 22.6,172.5 24.7,173 C24.7,173.1 24.6,173.2 24.6,173.3 C24.6,173.4 24.6,173.4 24.5,173.5 L24.5,173.5 C24.2,174.4 23.6,175.9 22.9,177.8 C22.7,178.4 22.4,179 22.2,179.7 C20.6,184 18.4,189.8 16.1,196.1 C16.1,196.1 16.1,196.2 16,196.3 C9.7,213.3 2.2,233.7 1.6,235.9 C1.4,236.8 1.2,237.6 0.9,238.5 C0.7,239.2 0.5,240 0.4,240.7 C0.7,241 1.2,241.5 1.7,242.1 C7.8,248.4 28.2,267.8 58,279.2 L58.1,279.2 C58.6,279.4 59.1,279.6 59.6,279.7 C59.9,279.8 60.3,279.9 60.6,280.1 C61.5,280.4 62.3,280.7 63.1,281 C64.4,281.4 65.7,281.8 67,282.2 C67.9,282.5 68.8,282.7 69.6,283 C71.8,283.6 74,284.2 76.3,284.7 C76.8,284.8 77.3,284.9 77.8,285 C79.2,285.3 80.5,285.5 81.9,285.8 L82.2,285.8 C84.9,286.3 87.7,286.7 90.6,287 L90.7,287 C92.6,287.2 94.6,287.3 96.5,287.5 C98.5,287.6 100.6,287.7 102.7,287.7 L105.3,287.7 L106.3,287.7 L107.5,287.7 L108.3,287.7 C108.8,287.7 109.3,287.7 109.8,287.6 C135.7,286 155,276.4 166,269.6 C165.9,268.7 165.8,267.8 165.6,266.9 C165.4,265 165.1,263.2 164.9,261.4 C164.8,260.8 164.8,260.1 164.7,259.5 C163.1,245.7 162.2,233.4 161.9,222.3 L161.9,220.4 C161.5,204.7 162.3,191.5 163.9,180.3 C163.9,180.3 163.9,180.3 163.9,180.2 C164,179.6 164.1,179 164.1,178.4 C164.2,177.6 164.3,176.7 164.5,175.9 C164.6,175.1 164.8,174.2 164.9,173.4 C165.2,171.6 165.5,169.8 165.9,168.1 C166.3,166.2 166.7,164.3 167.2,162.6 C167.7,160.6 168.2,158.7 168.8,156.9 C169.4,154.7 170.1,152.7 170.8,150.7 C172.2,146.7 173.5,143 174.6,139.6 C174.8,139 175,138.4 175.2,137.7 C175.8,135.9 176.3,134.1 176.9,132.3 C180.3,120.7 182.1,112.4 184.1,103.3 C184.3,102.2 184.6,101.1 184.8,100 C184.9,99.4 185.1,98.7 185.2,98.1 C189.8,77.4 192.4,66.1 193.5,58.9 C193.6,58.2 193.7,57.6 193.8,57 C194.8,51 194.4,48 193.3,44.1 L193.3,44.1 Z" id="Shape" fill="#791D2C"></path>
                        <g id="Group" transform="translate(8.000000, 16.000000)" fill="#E4C9C2" opacity="0.35">
                            <path d="M186,40.7 C185.9,41.3 185.8,41.9 185.7,42.6 C181.7,41.8 177.9,40.6 174.1,39.1 C167.4,36.5 164,34.1 160.7,31.8 C158.5,30.2 156.4,28.8 153.4,27.2 C144.5,22.8 138,23.6 131.2,24.4 C124.4,25.2 117.3,26.1 108,21.4 C102.8,18.7 99.7,16 96.8,13.3 C93.5,10.3 90.3,7.4 84,5 C78.7,2.9 72.9,1.9 66.8,1.8 C67.4,1.1 67.9,0.5 68.5,-0.1 C74.3,0.1 79.7,1.3 84.8,3.2 C91.5,5.8 94.7,8.7 98.2,11.9 C101,14.4 103.9,17.1 109,19.7 C117.7,24.2 124.2,23.4 131,22.5 C137.9,21.6 145,20.8 154.4,25.5 C157.5,27.1 159.8,28.7 162,30.2 C165.2,32.5 168.5,34.8 175,37.3 C178.5,38.8 182.2,39.9 186,40.7 L186,40.7 Z" id="Shape"></path>
                            <path d="M177.5,81.9 C177.4,82.5 177.2,83.1 177.1,83.8 C171.7,83 166.5,81.5 161.5,79.5 C155,76.9 151.7,74.5 148.5,72.2 C146.3,70.6 144.3,69.2 141.4,67.7 C132.8,63.3 126.5,64.1 119.8,64.9 C113.2,65.8 106.3,66.6 97.3,61.9 C92.2,59.2 89.3,56.5 86.4,53.8 C83.2,50.8 80.1,47.9 74,45.5 C65.9,42.3 56.7,41.4 46.7,43.1 L46.7,43.1 C46.4,43.1 46.1,43.2 45.8,43.2 L45.6,43.2 C45.8,42.5 46.1,41.8 46.4,41.1 C46.8,41 47.1,41 47.5,40.9 C57.4,39.4 66.5,40.3 74.7,43.6 C81.2,46.2 84.3,49.1 87.7,52.3 C90.4,54.9 93.3,57.5 98.1,60.1 C106.6,64.6 112.8,63.8 119.5,62.9 C126.2,62 133.1,61.2 142.2,65.9 C145.3,67.5 147.5,69.1 149.6,70.6 C152.7,72.9 155.9,75.2 162.2,77.7 C167.1,79.6 172.2,81 177.5,81.9 L177.5,81.9 Z" id="Shape"></path>
                            <path d="M167.5,121.5 C167.3,122.1 167.1,122.7 166.9,123.4 C161.1,122.6 155.5,121.1 150.1,119 C143.5,116.4 140.2,114 136.9,111.7 C134.7,110.1 132.7,108.7 129.7,107.2 C121,102.8 114.6,103.6 107.8,104.4 C101.1,105.3 94.2,106.1 85.1,101.4 C79.9,98.7 77,96 74.1,93.3 C70.8,90.3 67.7,87.4 61.5,85 C53.1,81.7 43.7,80.9 33.4,82.7 C33.2,82.7 33.1,82.7 32.9,82.8 C32.7,82.8 32.5,82.8 32.3,82.7 C32.3,82.6 32.4,82.5 32.4,82.4 C32.6,81.9 32.7,81.4 32.9,80.8 C33.3,80.7 33.6,80.7 34,80.6 C44.2,79 53.7,79.8 62.1,83.2 C68.6,85.8 71.9,88.7 75.3,91.9 C78.1,94.4 80.9,97.1 85.9,99.7 C94.5,104.2 100.8,103.4 107.5,102.5 C114.2,101.6 121.2,100.7 130.5,105.5 C133.6,107.1 135.8,108.7 138,110.2 C141.2,112.5 144.4,114.8 150.7,117.3 C156.1,119.2 161.7,120.7 167.5,121.5 L167.5,121.5 Z" id="Shape"></path>
                            <path d="M156.5,162.2 C156.4,162.8 156.3,163.4 156.3,164 C156.3,164 156.3,164 156.3,164.1 C152.1,163.3 147.9,162.1 143.9,160.6 C137,158 133.5,155.6 130.1,153.3 C127.8,151.7 125.6,150.3 122.5,148.8 C113.3,144.4 106.6,145.2 99.4,146.1 C92.3,147 85.1,147.9 75.5,143.1 C70.1,140.4 67,137.7 64,135.1 C60.6,132.1 57.3,129.2 50.8,126.8 C41.9,123.5 31.9,122.7 21,124.6 L20.7,124.6 C20.4,124.6 20.2,124.6 20,124.4 C20.2,123.8 20.3,123.2 20.5,122.7 C20.9,122.6 21.2,122.6 21.6,122.5 C32.5,120.8 42.6,121.6 51.5,125 C58.4,127.6 61.7,130.5 65.3,133.6 C68.2,136.1 71.2,138.8 76.4,141.4 C85.4,145.9 92.1,145.1 99.2,144.2 C106.3,143.3 113.6,142.4 123.3,147.1 C126.6,148.7 128.9,150.2 131.2,151.8 C134.5,154.1 138,156.4 144.6,158.9 C148.3,160.2 152.4,161.3 156.5,162.2 L156.5,162.2 Z" id="Shape"></path>
                            <path d="M154.3,206.1 C147,205.6 137.8,204.2 129.2,200.9 C125.4,199.4 121.2,197.4 121.2,197.4 C118.8,196.1 116.9,194.9 115.1,193.6 C112.8,192 110.5,190.6 107.3,189.1 C97.9,184.7 91,185.5 83.8,186.4 C76.6,187.3 69.2,188.2 59.4,183.4 C53.9,180.7 50.7,178 47.6,175.4 C44.1,172.4 40.8,169.5 34.1,167.1 C28,164.9 21.3,163.8 14.2,163.9 C14.4,163.2 14.7,162.6 14.9,162 C22,162 28.6,163.1 34.8,165.3 C41.8,167.9 45.3,170.8 48.9,173.9 C51.9,176.4 54.9,179.1 60.2,181.7 C69.4,186.2 76.2,185.4 83.5,184.5 C90.7,183.6 98.2,182.7 108.1,187.4 C111.4,189 113.8,190.5 116.1,192.1 C117.9,193.3 119.7,194.5 122,195.7 C122,195.7 126,197.7 129.8,199.2 C136.7,201.9 145,203.6 154.1,204.2 C154.3,204.8 154.3,205.4 154.3,206.1 L154.3,206.1 Z" id="Shape"></path>
                            <path d="M157.4,245.2 L153.9,245.2 C138.8,245.2 125.6,243.4 117.6,240.3 C113.7,238.8 109.7,236.8 109.6,236.7 C107.2,235.4 105.4,234.2 103.6,233 C101.3,231.4 99.1,230 95.9,228.5 C86.6,224.1 79.8,224.9 72.6,225.8 C65.5,226.7 58.1,227.6 48.4,222.8 C42.9,220.1 39.8,217.4 36.7,214.8 C33.2,211.8 29.9,209 23.3,206.5 C16.1,203.8 8.1,202.8 -0.4,203.5 C-0.1,202.8 0.1,202.2 0.4,201.5 C8.9,201 16.8,202 24,204.7 C31,207.3 34.4,210.2 38,213.3 C40.9,215.8 44,218.5 49.2,221.1 C58.3,225.6 65.1,224.8 72.3,223.9 C79.5,223 86.9,222.1 96.7,226.8 C100,228.4 102.4,229.9 104.6,231.5 C106.4,232.7 108.2,233.9 110.4,235.1 C110.4,235.1 114.3,237.1 118.2,238.6 C126.6,241.9 140.9,243.6 157,243.4 C157.2,244 157.3,244.6 157.4,245.2 L157.4,245.2 Z" id="Shape"></path>
                        </g>
                        <path d="M184.4,103.1 C182.4,112.2 180.5,120.6 177.1,132.1 C175.5,137.6 173.6,143.4 171.1,150.4 C170.4,152.3 169.7,154.4 169.1,156.6 C168.6,158.4 168,160.3 167.5,162.3 C167.1,164.1 166.6,165.9 166.2,167.9 C165.8,169.6 165.5,171.4 165.2,173.2 C165.1,174 164.9,174.9 164.8,175.7 C164.6,177.1 164.4,178.5 164.2,180 C161.4,200.7 161,228.6 166.1,266.7 C166.2,267.6 166.3,268.5 166.5,269.4 C155.6,276.2 136.3,285.9 110.3,287.4 L109.5,287.4 L185.5,27.2 C190.5,33.9 192.4,40.5 193.4,44.1 C195.9,53.2 194.4,57.4 184.4,103.1 L184.4,103.1 Z" id="Shape" fill="url(#linearGradient-10)" opacity="0.22"></path>
                        <path d="M170.2,14.2 C170.3,18.3 169.9,24.7 167,31.8 C166.7,32.4 166.3,33.4 165.7,34.7 C162.9,40.6 156.1,52 144.5,53.8 C133.7,55.4 124.8,47.7 121.7,45 C107.9,33.3 106.2,13.9 106.8,0.6 C119.1,-0.2 130.1,0.8 138.7,2.2 C139.4,2.3 140,2.4 140.6,2.5 C142.9,2.9 145,3.3 146.9,3.8 C147.6,4 148.6,4.4 149.8,4.8 C155.2,7 162.9,9.9 170.2,14.2 L170.2,14.2 Z" id="Shape" fill="#E4C9C2"></path>
                        <path d="M166.4,269.4 C155.5,276.2 136.2,285.9 110.2,287.4 C109.4,287.4 108.6,287.5 107.8,287.5 C89.3,288.3 72.6,284.7 58.1,279.2 C25.5,266.8 4.2,244.7 0.5,240.7 C0.9,239.1 1.3,237.5 1.7,235.9 C10.1,241.9 22,249.6 36.8,257.2 C41.1,259.4 60.6,269.4 77.8,274.3 C82.9,275.8 91,277.7 101.8,278.5 C117.8,279.8 139.7,278.5 166.4,269.4 L166.4,269.4 Z" id="Shape" fill="#E4C9C2"></path>
                    </g>
                    <g id="hand_right" transform="translate(521.000000, 230.000000)">
                        <g id="Group">
                            <path d="M68.4,24.1 C68.7,24.3 68.9,24.5 68.9,24.7 C69,26.4 60.6,30.1 50.3,31.2 L50,31.2 C43.6,31.9 40.3,32.3 36.3,30.9 C30,28.8 24.4,23.5 20.1,20.2 L20,20.2 C19.3,20.7 18.7,21.1 18,21.6 C16.6,22.6 15.3,23.5 13.9,24.5 C13.6,24.2 13.3,23.9 13,23.6 C8.5,19.5 4,15.3 -0.4,11.2 C0.1,10.8 0.7,10.5 1.2,10.2 C1.5,10 2,9.8 2.6,9.5 C6.3,7.8 9.5,6.3 12.4,5 C20,1.6 25.1,5.68434189e-14 30.4,5.68434189e-14 C38,0.1 46.2,3.6 46.3,6.4 C46.3,7.2 45.7,7.8 45.6,7.8 C43.7,9.5 39.8,6 33.1,5.7 C32.2,5.7 27.8,5.5 27.1,6.8 L27.1,6.9 C26.8,8.1 29.5,9.4 33.6,13.3 C35.7,15.2 37.2,17 38.1,18.1 C38.3,18 38.4,17.9 38.7,17.8 C43.2,15.6 61.8,6.7 62.9,8.7 C63.8,10.2 53.8,16.2 46.3,19.7 C53.9,18.4 66.5,14.5 69.7,16.6 C70.7,17.2 70.8,17.9 70.5,18.5 L70.5,18.5 C70.2,19 69.3,19.5 68.4,20 C69.2,20.1 69.8,20.3 70.3,20.5 C72.5,21.9 70.6,23.2 68.4,24.1 L68.4,24.1 Z" id="Shape" fill="#DF7D56"></path>
                            <path d="M39,18.7 C39,18.7 25.2,15.5 24.4,9.8 C24.1,7.3 25.5,6.7 27.1,6.8 L27.1,6.9 C26.8,8.1 29.5,9.4 33.6,13.3 C35.7,15.2 37.2,17 38.1,18.1 C38.3,18 38.4,17.9 38.7,17.8 L39,18.7 L39,18.7 Z" id="Shape" fill="url(#linearGradient-11)" opacity="0.09"></path>
                            <path d="M50.3,31.2 L50,31.2 C43.6,31.9 40.3,32.3 36.3,30.9 C30,28.8 24.4,23.5 20.1,20.2 L20,20.2 C19.3,20.7 18.7,21.1 18,21.6 C16.6,22.6 15.3,23.5 13.9,24.5 C13.6,24.2 13.3,23.9 13,23.6 L12.3,21.1 C13.2,20.3 20.9,16.4 20.9,16.4 L50.3,31.2 L50.3,31.2 Z" id="Shape" fill="url(#linearGradient-12)" opacity="0.22"></path>
                        </g>
                        <path d="M20,20.3 C19.3,20.8 18.7,21.2 18,21.7 C16.6,22.7 15.3,23.6 13.9,24.6 C9.1,20.2 4.3,15.7 -0.5,11.3 C0,10.9 0.6,10.6 1.1,10.3 C1.4,10.1 1.9,9.9 2.5,9.6 C6.2,7.9 9.4,6.4 12.3,5.1 L20,20.3 L20,20.3 Z" id="Shape" fill="url(#linearGradient-13)" opacity="0.22"></path>
                    </g>
                    <g id="hoody_right_part" transform="translate(341.000000, 116.000000)">
                        <path d="M112.2,24.3 C106.3,30.1 100.3,35.9 94.4,41.7 C93.8,42.3 92.8,42.4 92.1,41.8 C89.3,39.6 86.6,37.5 83.8,35.3 C81.8,33.7 79.8,32.2 77.8,30.6 C74.1,22.6 68.3,14.5 68.2,14.1 C68.3,13.8 68.3,13.6 68.4,13.3 C71.2,11.2 67.4,4 71.1,0.9 C72.6,-0.3 74.5,-0.3 75.7,-0.2 C76.1,-0.2 76.4,-0.2 76.8,-0.1 C82.6,0.7 84.3,6.2 91.2,11 C91.6,11.2 91.9,11.5 92.3,11.7 C94,12.7 95.5,13.7 96.9,14.5 C97.1,14.6 97.4,14.8 97.6,14.9 C102.8,17.9 106.2,19.4 110.5,21.1 C110.9,21.3 111.3,21.4 111.6,21.6 C112.8,21.9 113.1,23.4 112.2,24.3 L112.2,24.3 Z" id="Shape" fill="#5A142A"></path>
                        <g id="Group" transform="translate(67.000000, 36.000000)">
                            <path d="M131.1,99.7 C126.7,106.1 120.2,115.3 112,126 C110.2,128.3 108.6,130.5 107.1,132.4 C101.5,139.7 97.7,144.6 93.6,148.9 C84.7,158.6 58.4,187.3 39.4,180.4 C31.9,177.7 26.3,169.4 22.3,161.1 C18.1,152.3 15.7,143.4 15,140.7 C13.8,135.7 13.1,130.6 10.1,122.3 C6.8,113 2.8,105.8 -0.1,101.1 C1.7,95.4 3.4,89.8 5,84.3 C5.8,81.7 6.5,79.1 7.2,76.5 C10,66.3 12.1,56.3 13.3,46.6 C14.6,36.1 14.6,25.8 13,15.4 C14.7,6.7 15.9,0.8 16,0.4 C19.6,2.1 25,5.2 30.4,10.3 C30.6,10.5 30.8,10.7 31,10.9 C51.8,29.7 58,98.4 58,98.6 C58.6,102.9 59,106.6 59.2,109.7 C59.4,112.9 59.6,115.5 59.6,117.7 C59.8,125.1 58.9,128 60.5,129 C64,131.2 73.4,120.7 86.4,109.3 C96.3,100.7 105.3,94.1 112.4,89.3 C112.9,88.9 113.5,88.6 114,88.3 C114.4,88 114.8,87.8 115.2,87.5 C115.3,87.5 115.3,87.6 115.4,87.6 C117.9,89.2 120.5,91.1 123.2,93.2 C126.2,95.4 128.8,97.6 131.1,99.7 L131.1,99.7 L131.1,99.7 Z" id="Shape" fill="#5A142A"></path>
                            <path d="M131.1,99.7 C126.7,106.1 120.2,115.3 112,126 C110.2,128.3 108.6,130.5 107.1,132.4 C101.5,139.7 97.7,144.6 93.6,148.9 C84.7,158.6 58.4,187.3 39.4,180.4 C31.9,177.7 26.3,169.4 22.3,161.1 C18.1,152.3 15.7,143.4 15,140.7 C13.8,135.7 13.1,130.6 10.1,122.3 C6.8,113 2.8,105.8 -0.1,101.1 C1.7,95.4 3.4,89.8 5,84.3 C5.8,81.7 6.5,79.1 7.2,76.5 C10,66.3 12.1,56.3 13.3,46.6 C14.6,36.1 14.6,25.8 13,15.4 C14.7,6.7 15.9,0.8 16,0.4 C19.6,2.1 25,5.2 30.4,10.3 C30.6,10.5 30.8,10.7 31,10.9 C51.8,29.7 58,98.4 58,98.6 C58.6,102.9 59,106.6 59.2,109.7 C59.4,112.9 59.6,115.5 59.6,117.7 C59.8,125.1 58.9,128 60.5,129 C64,131.2 73.4,120.7 86.4,109.3 C96.3,100.7 105.3,94.1 112.4,89.3 C112.9,88.9 113.5,88.6 114,88.3 C114.4,88 114.8,87.8 115.2,87.5 C115.3,87.5 115.3,87.6 115.4,87.6 C117.8,89.2 121.4,91.8 123.2,93.2 C125.2,94.6 127.8,96.7 131.1,99.7 L131.1,99.7 L131.1,99.7 Z" id="Shape" fill="#19233D" opacity="0.2"></path>
                        </g>
                        <path d="M95.5,123.7 C88.6,174.7 82.5,187 78.4,222 C74.8,253.1 75.5,279 76.7,296.1 C77.2,296.4 77.6,296.9 77.7,297.6 L77.8,298.7 C77.9,299.7 77.1,300.6 76.1,300.7 L45.8,303.1 L40.3,303.5 C39.3,303.6 38.4,302.8 38.3,301.8 L38.2,300.7 C38.1,299.7 38.9,298.8 39.9,298.7 L40.9,298.6 C42.4,286.6 43.9,274.6 45.4,262.5 C47.6,245.7 49.8,229.1 52.1,212.6 C52.1,212.6 59.1,161.7 67.1,137.1 C67.4,136.2 69.5,129.6 72.2,120.3 C73,117.7 73.7,115.1 74.4,112.5 C77.2,102.3 79.3,92.3 80.5,82.6 C81.8,72.1 81.8,61.8 80.2,51.4 C80.2,51.1 80.1,50.8 80.1,50.5 C80.1,50.5 78.9,43.3 76.9,37.1 C74.3,29.1 68.7,20.1 66.4,16.7 C65.9,15.9 65.5,15.4 65.4,15.3 C65.6,14.4 66,13.2 66.9,12.8 C71.8,10.5 86.6,32 89.9,37.2 C101.1,54.9 101.9,76 95.5,123.7 L95.5,123.7 Z" id="Shape" fill="#5A142A"></path>
                        <path d="M78.8,111.2 C75.9,124.7 73.3,134.5 73.1,135 C68.2,153.3 60.7,192.7 49.1,276.9 C48.9,278.2 48.7,279.4 48.6,280.7 C47.6,287.8 46.6,295.3 45.6,303.1 L40.1,303.5 C39.1,303.6 38.2,302.8 38.1,301.8 L38,300.7 C37.9,299.7 38.7,298.8 39.7,298.7 L40.7,298.6 C41.3,293.4 42,288.2 42.6,283.1 C33,286.7 21.4,289.6 8.1,290.5 C7.3,290.5 6.5,290.6 5.7,290.6 L-0.4,281.6 C11.1,282.5 25.8,282 43.1,278.3 C43.8,273.1 44.4,267.8 45.1,262.6 C47.3,245.8 49.5,229.2 51.8,212.7 C51.8,212.7 58.8,161.8 66.8,137.2 C67.1,136.3 69.2,129.7 71.9,120.4 C72.7,117.8 73.4,115.2 74.1,112.6 C76.9,102.4 79,92.4 80.2,82.7 C81.5,72.2 81.5,61.9 79.9,51.5 C79.9,51.2 79.8,50.9 79.8,50.6 C79,44.3 77.3,39.3 76.6,37.2 C76.1,35.7 75.4,34.1 74.7,32.5 C71,24.5 65.2,16.4 65.1,16 C65.2,15.7 65.2,15.5 65.3,15.2 C65.7,15.2 66.1,15.1 66.5,15 C67,14.9 67.5,14.8 68,14.7 C74,22.8 78,30.5 80.7,37.3 C84.3,46.5 85.5,54.1 86,59.4 C87.2,72.4 84.4,85.3 78.8,111.2 L78.8,111.2 Z" id="Shape" fill="#E4C9C2"></path>
                        <path d="M197.2,140.5 L179,125.4 C177.9,124.5 177.8,122.9 178.7,121.8 L178.8,121.6 C179.7,120.5 181.3,120.4 182.4,121.3 L200.6,136.4 C201.7,137.3 201.8,138.9 200.9,140 L200.8,140.2 C199.9,141.2 198.2,141.4 197.2,140.5 L197.2,140.5 Z" id="Shape" fill="#E4C9C2"></path>
                        <path d="M174.1,168.5 C168.5,175.8 164.7,180.7 160.6,185 C151.7,194.7 125.4,223.4 106.4,216.5 C98.9,213.8 93.3,205.5 89.3,197.2 C100.8,201.9 109.9,201.8 115.5,201.2 C127.1,199.9 136.7,193.7 155.5,181.5 C163.4,176.3 169.8,171.7 174.1,168.5 L174.1,168.5 Z" id="Shape" fill="url(#linearGradient-14)" opacity="0.2"></path>
                    </g>
                    <g id="neck" transform="translate(357.000000, 91.000000)">
                        <path d="M49.5,39.8 C49.4,40.1 49.4,40.3 49.3,40.6 C49,42 48.6,43.4 48.1,44.8 C46.3,50.8 44.9,55.6 43.6,59.3 C43.3,60 43.1,60.7 42.8,61.4 C41.2,65.6 39.6,68.2 37.6,69.8 C30.9,74.8 20.3,76 12.1,71.3 C4,66.7 1.7,58.2 1.1,56.1 C-0.7,49.5 0.9,45.3 3.9,32.4 C9.6,7.6 7.7,5 11.7,2.3 C21.9,-4.7 45.1,5.1 49.4,18.4 C49.5,18.7 49.5,18.9 49.6,19.2 C51.8,26.2 51.2,32.7 49.5,39.8 L49.5,39.8 Z" id="Shape" fill="#DF7D56"></path>
                        <path d="M49.3,40.6 C49,42 48.6,43.4 48.1,44.8 C46.3,50.8 44.9,55.6 43.6,59.3 C38.9,56.3 31.3,50.4 26.4,40.4 C25.1,37.7 24.2,35.1 23.5,32.7 C26.8,34.1 30.3,35.5 34.2,36.7 C39.7,38.4 44.7,39.7 49.3,40.6 L49.3,40.6 Z" id="Shape" fill="url(#linearGradient-15)" opacity="0.16"></path>
                    </g>
                    <g id="head_general" transform="translate(351.000000, 0.000000)">
                        <path d="M72.7,99.5 C72.2,102.6 71.7,104.3 71,107.8 C68.6,119.3 66.9,125.3 64.1,127.6 C62.4,128.9 60.5,129.9 58.2,130.5 C57.7,130.6 57.3,130.7 56.7,130.8 C55.9,131 55.2,131.1 54.6,131.1 C52.9,131.3 51.1,131.3 49.3,131.2 C46.4,131 43.4,130.5 40.4,129.7 C33.9,128 27.3,124.8 21.6,120.5 C17.6,117.5 14.2,114 11.5,110 C11.5,110 9.9,107.7 8.7,105 C4.8,96.7 -0.6,55.3 25.9,34.8 C34.1,28.5 50.3,20.4 62,26.8 C65.4,28.6 67.2,31.1 69,33.3 C81.1,49.7 77.1,73.6 72.7,99.5 L72.7,99.5 Z" id="head" fill="#DF7D56"></path>
                        <path d="M54.2,115.6 L54,115.6 C52.3,115 50.5,114.4 48.8,113.8 C46.1,112.9 43.5,112 40.8,111.1 C40.5,111 40.3,110.7 40.4,110.4 C40.5,110.1 40.8,109.9 41.1,110 C43.8,110.9 46.4,111.8 49.1,112.7 C50.9,113.3 52.6,113.9 54.4,114.5 C54.7,114.6 54.9,114.9 54.8,115.2 C54.6,115.5 54.4,115.6 54.2,115.6 L54.2,115.6 Z" id="mouth" fill="#000000"></path>
                        <g id="eyes" transform="translate(40.000000, 73.000000)">
                            <path d="M-0.1,1.5 C-0.6,2.9 -4.94604357e-14,4.4 1.3,4.9 C2.6,5.4 4.1,4.7 4.7,3.4 C5.2,2 4.6,0.5 3.3,1.16573418e-14 C2,-0.5 0.5,0.2 -0.1,1.5 L-0.1,1.5 Z" id="Shape" fill="url(#linearGradient-16)"></path>
                            <path d="M28.6,5.7 C28.8,4.3 27.8,3.1 26.5,3 C25.2,2.9 24,3.8 23.8,5.2 C23.6,6.6 24.6,7.8 25.9,7.9 C27.2,8.1 28.4,7.1 28.6,5.7 L28.6,5.7 Z" id="Shape" fill="url(#linearGradient-17)"></path>
                        </g>
                        <g id="brows" transform="translate(35.000000, 60.000000)">
                            <polygon id="Shape" fill="url(#linearGradient-18)" points="-0.1 6.7 15.4 0.3 16.3 2.8 0.8 9.2"></polygon>
                            <polygon id="Shape" fill="url(#linearGradient-19)" points="31.9 2.3 43.9 8.5 42.7 10.9 30.7 4.7"></polygon>
                        </g>
                        <path d="M57.6,76.9 C58.1,84.1 59.5,89.3 60.8,92.9 C61.6,95 62.6,97.4 61.5,99.1 C60,101.4 55.4,100.6 54.7,100.4 C51,99.8 48.7,97.5 47.9,96.6 C51.2,90 54.4,83.5 57.6,76.9 L57.6,76.9 Z" id="nose" fill="#9B524E"></path>
                        <path d="M10.9,112.9 C18.2,93.3 13.7,76.7 18.7,74.7 C21.4,73.6 23.5,78.2 26.7,77.2 C32.4,75.4 27.7,59.9 36.3,49.8 C41.8,43.3 51.4,40.5 58.7,41 C67,41.5 69.6,46 75.1,44 C82.4,41.3 84.7,31 85,29.6 C86.9,21.3 83.8,14.6 82.8,12.6 C80.3,14.2 76.3,16.5 71.2,18.7 C66.3,20.8 60.6,23.3 59.2,21.5 C58.2,20.2 60.1,17.9 60.8,14.1 C61.9,8.5 59.7,3.4 57.7,-1.42108547e-14 C35.3,16.5 29.8,19.6 29.4,19.1 C29,18.5 34.9,14.4 34.6,8.6 C34.4,5.4 32.9,3.1 32.2,2.2 C9.2,28.1 3.4,52.6 1.5,64.7 C-2.3,90.1 2.5,119.7 6.9,119.9 C8.2,119.8 9.4,117 10.9,112.9 L10.9,112.9 Z" id="hair" fill="#000000"></path>
                        <g id="ear" transform="translate(2.000000, 68.000000)">
                            <path d="M20.1,16.4 C19.4,17.7 18.5,18.9 17.3,19.9 C12.7,23.7 6,23 2.3,18.3 C-1.3,13.6 -0.5,6.7 4.2,2.9 C4.3,2.8 4.3,2.8 4.4,2.7 C9,-0.9 15.6,-0.1 19.1,4.5 C21.8,7.9 22.1,12.6 20.1,16.4 L20.1,16.4 Z" id="Shape" fill="#DF7D56"></path>
                            <path d="M20.1,16.4 L4.4,2.7 C9,-0.9 15.6,-0.1 19.1,4.5 C21.8,7.9 22.1,12.6 20.1,16.4 L20.1,16.4 Z" id="Shape" fill="#9B524E" opacity="0.17"></path>
                        </g>
                    </g>
                    <g id="smartphone" transform="translate(373.000000, 255.000000)">
                        <g id="Group">
                            <path d="M13.9,25.2 C15.1,24.8 16.3,24.4 17.5,24.1 C12.1,32.8 6.7,41.5 1.4,50.1 C1.1,50.5 1,51 1,51.5 L0.4,48.2 C0.3,47.6 0.4,47 0.7,46.5 C5.1,39.4 9.5,32.3 13.9,25.2 L13.9,25.2 Z" id="Shape" fill="#E6E3F4"></path>
                            <path d="M36.2,1.7 C36.1,1.6 36.1,1.5 36,1.4 C35.7,1.1 34.5,-0.1 32.7,-0.2 C30.8,-0.3 29,0.7 27.9,2.5 C24.9,7.4 21.8,12.3 18.8,17.2 C17.1,19.9 15.5,22.5 13.9,25.2 C15.1,24.8 16.3,24.4 17.5,24.1 C19,21.7 20.5,19.3 21.9,16.9 C25,11.9 28.1,6.8 31.2,1.8 C32.3,0.2 34.8,0.2 36.2,1.7 C36.3,1.8 36.3,1.8 36.2,1.7 L36.2,1.7 Z" id="Shape" fill="#E6E3F4"></path>
                            <path d="M46.7,15 C46.4,14.7 46.2,14.4 46,14 C45.8,13.7 45.5,13.4 45.2,13.1 C45.1,13 45,12.9 44.9,12.7 C42.9,10.1 39.6,5.9 37,2.7 C36.8,2.5 36.6,2.2 36.4,2 C36.3,1.9 36.3,1.8 36.2,1.8 L36.2,1.8 C34.8,0.2 32.2,0.2 31.2,1.8 C28.1,6.8 25,11.9 21.9,16.9 C20.4,19.3 18.9,21.7 17.5,24.1 C12.1,32.8 6.7,41.5 1.4,50.1 C1.1,50.5 1,51 1,51.5 L1,51.7 L1,52 C1,52.1 1,52.2 1.1,52.3 C1.1,52.5 1.2,52.6 1.3,52.8 C1.4,53 1.5,53.1 1.6,53.2 C1.7,53.3 1.8,53.5 1.9,53.6 C2,53.7 2.2,53.9 2.3,54 C6.5,57.1 10.7,60.2 14.9,63.2 C16.4,64.3 18.4,64.1 19.3,62.7 C28.5,47.9 37.7,33 46.9,18.2 C47.6,17.2 47.5,16 46.7,15 L46.7,15 Z" id="Shape" fill="#302C34"></path>
                        </g>
                        <path d="M47,18.2 C37.8,33 28.6,47.9 19.4,62.7 C18.5,64.1 16.5,64.3 15,63.2 C10.8,60.1 6.6,57.1 2.4,54 C2.2,53.9 2.1,53.8 2,53.6 C1.9,53.5 1.7,53.3 1.7,53.2 C1.6,53.1 1.5,52.9 1.4,52.8 C1.3,52.7 1.3,52.5 1.2,52.3 C1.1,52.2 1.1,52.1 1.1,52 L1.1,51.7 L1.1,51.5 C1.1,51 1.2,50.5 1.5,50.1 C11.5,34 21.4,17.9 31.4,1.8 C32.4,0.2 34.9,0.2 36.4,1.8 C36.5,1.9 36.5,1.9 36.5,2 C36.7,2.2 36.9,2.5 37.1,2.7 C39.7,6.1 42.4,9.4 45,12.7 C45.1,12.8 45.2,13 45.3,13.1 C45.5,13.4 45.8,13.7 46,14.1 C46.2,14.4 46.5,14.7 46.7,15.1 C47.5,16 47.6,17.2 47,18.2 L47,18.2 Z" id="Shape" fill="url(#linearGradient-20)" opacity="0.45"></path>
                    </g>
                    <g id="hand_left" transform="translate(361.000000, 272.000000)">
                        <path d="M60,4.1 C59.3,2.3 53.9,2.9 51.9,3.1 C50.4,3.3 48.8,3.4 47.1,3.6 C46.5,3.7 45.9,3.7 45.3,3.8 C43.2,4.1 41.1,4.3 38.8,4.6 C37.8,4.7 36.8,4.9 35.7,5 C32.9,5.4 30,5.8 27.1,6.1 C28.3,4.1 29.5,2.1 30.8,0.2 C29.5,0.3 28.1,0.4 26.6,0.4 C20.8,0.5 18.3,-0.1 13.4,0.2 C10.1,0.4 5.5,1.1 0.1,3.2 L0.1,3.3 C0.2,4.8 0.4,7.1 0.7,9.8 L0.7,10.3 C0.9,12.2 1,14.2 1.2,16.1 L1.2,16.3 C1.5,20.2 1.8,23.5 1.8,24 C9.9,26.2 15.5,28.1 19.4,29.7 C21.2,30.4 22.6,31 23.7,31.6 L23.7,31.6 C25.2,32.4 26.2,33 26.9,33.6 L26.9,33.6 C27.3,33.9 29.2,35.5 32,36.1 C32.9,36.3 36.3,37 38.3,35 C39.4,33.9 40,32.1 39.7,32 C39.6,31.9 39.4,32.3 39,32.5 C38.3,32.9 37.3,33 35.1,32.2 C33.8,31.7 32,30.9 29.8,29.2 C29.8,29 29.9,28.7 30,28.4 C30.8,27.1 33.1,27.4 37.4,27.3 L38.7,27.3 C39,27.3 39.3,27.3 39.6,27.2 C40.1,27.2 40.6,27.1 41,27.1 C41.3,27.1 41.6,27 41.8,27 C41.9,27 42.1,26.9 42.2,26.9 C42.5,26.8 42.7,26.8 43,26.7 C43.3,26.6 43.5,26.5 43.7,26.4 C43.9,26.3 44.2,26.2 44.4,26.1 C45,25.8 45.8,25.1 46.4,24.1 C47.3,22.7 47.5,20.9 47.3,20.3 C47.8,20.2 48.4,20 49,19.8 C49.5,19.6 49.9,19.3 50.3,19 C53.5,16.7 54.1,10 53.4,9.7 C53.1,9.6 52.8,11.1 50.9,13 C49.9,14 48.8,14.7 48,15.2 L47.7,15.2 L47.6,15.2 C47.3,15.2 46.7,15.1 46.1,15.1 L45.6,15.1 C45.3,15.1 45.1,15.1 44.8,15 C44.5,15 44.3,15 44,14.9 C43.5,14.9 43.1,14.8 42.6,14.8 L42.3,14.8 C41.7,14.7 41.1,14.7 40.5,14.6 C39.9,14.5 39.3,14.5 38.7,14.4 C35.7,14.1 33.2,13.7 33.1,13.5 L33.1,13.4 C33.1,13.4 33.1,13.3 33.2,13.2 C34.1,11.7 37.7,10.6 41.4,9.9 C42.8,9.6 44.1,9.4 45.3,9.3 C47.1,9 48.6,8.9 49.3,8.8 C49.4,8.8 51.3,8.4 54.7,7.8 C56.9,7.4 58.4,7.2 59.3,5.9 C59.6,5.9 60.3,4.9 60,4.1 L60,4.1 Z M35.6,19.7 C38.1,19.7 41.1,20 43.2,20.2 C44,20.3 44.6,20.4 45.1,20.4 C45.4,20.4 46.1,20.5 47,20.4 C46.7,20.8 46.2,21.5 45.5,22 C44.8,22.5 44.3,22.6 42.9,22.6 C41.7,22.6 39.9,22.5 36.9,22.3 C36,22.3 35.1,22.2 34.2,22 C33.1,21.8 32.1,21.4 31.4,20.6 C31.2,20.3 31.1,20.2 31.1,20.1 C31.2,19.8 33.1,19.7 35.6,19.7 L35.6,19.7 Z" id="Shape" fill="#DF7D56"></path>
                        <path d="M23.8,31.6 L23.8,31.6 C22.7,31 21.2,30.4 19.5,29.7 C15.6,28.1 10,26.3 1.9,24 C1.9,23.5 1.6,20.2 1.3,16.3 L1.3,16.1 C1.1,14.2 1,12.2 0.8,10.3 C1,10.4 9.4,18 13,21.5 C16.6,25 20.2,28.4 23.8,31.6 L23.8,31.6 Z" id="Shape" fill="url(#linearGradient-21)" opacity="0.22"></path>
                        <path d="M38.8,4.6 C26.3,8.5 13.7,12.4 1.2,16.3 L1.2,16.1 C1,14.1 0.8,11.8 0.7,9.8 C0.5,7.2 0.3,4.8 0.1,3.3 L0.1,3.2 C5.6,1.1 10.1,0.4 13.4,0.2 C18.3,-0.1 20.8,0.5 26.6,0.4 C28.1,0.4 29.5,0.3 30.8,0.2 C29.6,2.2 28.3,4.2 27.1,6.1 C30,5.7 32.9,5.3 35.7,5 C36.8,4.9 37.8,4.8 38.8,4.6 L38.8,4.6 Z" id="Shape" fill="url(#linearGradient-22)" opacity="0.09"></path>
                        <path d="M50.6,19 C50.2,19.3 49.8,19.6 49.3,19.8 C48.7,20.1 48.2,20.2 47.6,20.3 C47.8,20.9 47.6,22.7 46.7,24.1 C46.1,25.1 45.3,25.8 44.7,26.1 C44.5,26.2 44.2,26.3 44,26.4 C43.8,26.5 43.5,26.6 43.3,26.7 C43.1,26.8 42.8,26.9 42.5,26.9 C42.1,27 41.7,27.1 41.2,27.1 C40.7,27.2 40.3,27.2 39.8,27.2 C39.5,27.2 39.2,27.2 38.9,27.3 L37.6,27.3 C33.2,27.4 30.9,27.1 30.2,28.4 C30,28.7 30,29 30,29.2 C32.1,30.8 34,31.7 35.3,32.2 C37.5,33 38.5,33 39.2,32.5 C39.6,32.3 39.8,32 39.9,32 C40.1,32.1 39.6,33.9 38.5,35 C36.5,37 33.1,36.2 32.2,36.1 C29.3,35.5 27.4,33.9 27.1,33.6 C28.8,30.9 31.4,26.6 34.2,22.1 C35.1,22.3 36,22.3 36.9,22.4 C39.9,22.6 41.7,22.7 42.9,22.7 C44.3,22.7 44.9,22.6 45.5,22.1 C46.3,21.5 46.7,20.8 47,20.5 C46.2,20.6 45.5,20.5 45.1,20.5 C44.6,20.5 44,20.4 43.2,20.3 C41.1,20.1 38,19.9 35.6,19.8 C36.7,18 37.8,16.2 38.9,14.5 C39.5,14.6 40.1,14.6 40.7,14.7 C41.3,14.8 41.9,14.8 42.5,14.9 L42.8,14.9 C43.6,15 44.3,15 45,15.1 C45.3,15.1 45.5,15.1 45.8,15.2 L46.3,15.2 C47,15.3 47.5,15.3 47.8,15.3 L47.9,15.3 L48.2,15.3 C49,14.9 50,14.2 51.1,13.1 C53,11.2 53.3,9.7 53.6,9.8 C54.4,10 53.8,16.8 50.6,19 L50.6,19 Z" id="Shape" fill="url(#linearGradient-23)" opacity="0.17"></path>
                    </g>
                    <g id="hoody_left_part" transform="translate(219.000000, 108.000000)">
                        <path d="M163.1,0.1 C162.8,1.1 162.4,2 162.1,3 C162.1,3 160.1,6.2 156.5,12.9 C156.1,13.6 155.7,14.4 155.3,15.2 C155.1,15.6 154.9,16 154.7,16.4 C154.5,16.8 154.3,17.2 154.1,17.7 C153.9,18.1 153.7,18.5 153.7,18.5 C153.2,19.5 152.8,20.4 152.4,21.2 C152.4,21.2 152.4,21.2 152.4,21.3 C152.3,21.5 152.2,21.6 152.2,21.8 L152.2,21.8 C151.5,23.2 150.9,24.6 150.3,26 C150.2,26.1 150.2,26.3 150.1,26.4 C150,26.7 149.8,27.1 149.7,27.4 C149.4,28 149.2,28.6 148.9,29.3 C148,31.5 147.3,33.6 146.6,35.7 C146.4,36.4 146.1,37.1 145.9,37.7 C145.8,38 145.7,38.2 145.7,38.5 C145.6,39 145.4,39.4 145.3,39.9 C145.2,40.2 145.1,40.5 145,40.8 C144.3,43.1 143.8,45.3 143.2,47.6 C142.6,50.2 142.1,52.8 141.6,55.4 C141.5,56.1 141.3,56.9 141.2,57.6 C140.8,60.2 140.4,62.8 140.1,65.3 C139.8,67.5 139.5,69.8 139.3,72 C138.7,77.3 138.1,82.7 137.3,88.4 C137.1,89.8 136.9,91.2 136.7,92.7 C136.5,93.7 136.4,94.8 136.2,95.9 L136.2,96.1 L136.2,96.2 C135.9,98.3 135.5,100.4 135.1,102.6 C135.1,102.8 135,103 135,103.3 C135,103.5 134.9,103.8 134.9,104 C134.8,104.4 134.8,104.7 134.7,104.9 C132.1,118 127.3,137.1 116.9,159.9 L116.9,159.9 C116.9,160 116.8,160.1 116.7,160.3 L116.7,160.3 C116.6,160.4 116.7,160.6 116.7,160.7 C116.7,160.7 116.7,160.7 116.8,160.8 C116.8,160.8 116.9,160.8 116.9,160.9 C117.7,161.2 118.5,161.4 119.3,161.6 C119.4,161.6 119.6,161.7 119.7,161.7 L119.7,161.7 C122,162.6 125.3,163.6 129.5,164.3 C136.5,165.5 140.5,164.7 142.1,167.3 C142.6,168 142.3,168.1 142.7,173.9 C142.8,174.7 142.9,176.5 143.2,180.2 C143.9,187.9 143.9,187.8 143.8,188.1 C143.1,190 140.4,193 119,194.5 C115.3,194.8 112.8,194.8 111.1,194.9 L111.1,194.9 L108.8,194.9 C107.4,194.9 106.9,194.8 106.4,194.9 C106.2,194.9 106,195 105.7,195.1 C102.5,204 100.1,211.3 98.7,215.9 C92.1,237.3 89.9,250.2 81.4,279.8 C81,281.2 80.6,282.7 80.1,284.2 C80,284.7 79.9,285 79.8,285.2 L78.3,290.4 L78.2,290.8 L73.8,305.6 L73.8,305.7 C73.8,305.8 73.8,305.9 73.9,306 L74,306.1 C74.5,306.3 74.8,306.7 75.1,307.1 C75.1,307.1 75.1,307.2 75.2,307.2 C75.5,307.8 75.5,308.5 75.2,309.1 L75.1,309.4 C74.6,310.5 73.2,311.1 72.1,310.6 L65.8,307.8 L6,280.8 L5.7,280.6 C4.9,280.3 4.5,279.6 4.4,278.8 L4.4,278.3 C4.4,278.1 4.5,277.8 4.6,277.6 L4.9,277 C5.3,276.2 6.1,275.8 7,275.9 C7.2,275.9 7.4,275.9 7.4,275.7 C10.8,268.2 14.1,260.7 17.4,253 C17.9,251.8 18.5,250.5 19,249.3 C19,249.2 19.1,249.1 19.1,249 C19.9,247.1 22.1,241.9 24.6,235.7 C28.7,225.7 33.8,213.1 36.1,207.2 C36.1,207.2 36.1,207.1 36.2,207.1 C39.1,199.6 42,192.2 44.7,184.8 L44.7,184.7 L44.7,184.7 C44.7,184.6 44.7,184.6 44.6,184.5 L44.6,184.5 C44.6,184.5 44.6,184.4 44.5,184.4 C44.5,184.4 44.4,184.3 44.3,184.3 C43.7,184.1 43.1,184 42.6,183.8 C41.3,183.4 40.1,183 39,182.6 C38.8,182.5 38.6,182.4 38.4,182.4 C38.4,182.4 38.4,182.4 38.3,182.4 C10.4,172.4 3.9,157.2 2.2,152.7 C-1.2,143.3 -0.1,133.3 4,123 C10.1,107.4 22.8,90.8 36.7,73.5 C38.1,71.7 39.6,69.9 41,68.1 C58.5,46.4 75.8,30.7 88.5,20.4 C88.6,20.3 88.7,20.1 88.6,20 L88.6,19.9 L86.9,11.5 L86.9,11.4 L86.9,11.3 C86.9,11.3 86.9,11.2 87,11.2 L87.1,11.1 C87.1,11.1 87.2,11.1 87.2,11 L87.3,11 C100.4,7.9 114.9,5.1 130.7,3.1 C137.4,2.2 150,1.3 156.7,0.8 C159,0.6 160.6,0.5 161,0.4 C162,0.3 162.7,0.1 163.1,0.1 L163.1,0.1 L163.1,0.1 Z" id="Shape" fill="#5A142A"></path>
                        <path d="M69.4,133.1 C69.4,133.1 48.8,128.5 50.9,119.9 C53,111.3 89.6,90 89.6,90 L69.4,133.1 L69.4,133.1 Z" id="Shape" fill="url(#linearGradient-24)" opacity="0.2"></path>
                        <path d="M162.1,3 C162.1,3 160.1,6.2 156.5,12.9 C156.1,13.6 155.7,14.4 155.3,15.2 C155.1,15.6 154.9,16 154.7,16.4 C154.5,16.8 154.3,17.2 154.1,17.7 C153.9,18.1 153.7,18.5 153.7,18.5 C153.2,19.5 152.8,20.4 152.4,21.2 C152.4,21.2 152.4,21.2 152.4,21.3 C152.3,21.5 152.2,21.6 152.2,21.8 L152.2,21.8 C151.5,23.2 150.9,24.6 150.3,26 C150.2,26.1 150.2,26.3 150.1,26.4 L150.1,26.4 C150,26.7 149.8,27.1 149.7,27.4 C149.4,28 149.2,28.6 148.9,29.3 C148,31.5 147.3,33.6 146.6,35.7 C146.4,36.4 146.1,37.1 145.9,37.7 C145.8,38 145.7,38.2 145.7,38.5 C145.6,39 145.4,39.4 145.3,39.9 C145.2,40.2 145.1,40.5 145,40.8 C144.3,43.1 143.8,45.3 143.2,47.6 C142.6,50.2 142.1,52.8 141.6,55.4 C141.5,56.1 141.3,56.9 141.2,57.6 C140.8,60.2 140.4,62.8 140.1,65.3 C139.8,67.5 139.5,69.8 139.3,72 C138.7,77.3 138.1,82.7 137.3,88.4 C137.1,89.8 136.9,91.2 136.7,92.7 C136.5,93.7 136.4,94.8 136.2,95.9 L136.2,96.1 L136.2,96.2 C135.7,98.8 135.4,101 135.1,102.6 C135.1,102.8 135,103 135,103.3 C135,103.5 134.9,103.8 134.9,104 C134.8,104.4 134.8,104.7 134.7,104.9 C132.1,118 127.3,137.1 116.9,159.9 L116.9,159.9 C116.8,160 116.8,160.1 116.7,160.3 C116.7,160.4 116.6,160.5 116.6,160.6 C115.9,160.4 115.3,160.2 114.6,160 C113.5,159.7 112.3,159.4 111.2,159 C122,136.1 127,116.9 129.7,103.8 C135.4,75.3 133.4,57.3 144.1,28.1 C144.4,27.3 144.7,26.6 144.9,25.9 C146.9,20.8 148.9,16.1 150.8,12.1 C153,7.5 155.1,3.7 156.8,0.8 C158.6,0.6 160.1,0.3 161.1,0.1 C162.2,-0.1 162.9,-0.3 163.2,0.1 L163.2,0.1 C163.6,0.7 162.6,2.2 162.1,3 L162.1,3 Z" id="Shape" fill="#E4C9C2"></path>
                        <path d="M106.8,194.7 C97.9,224.5 89.1,254.4 80.2,284.2 C80.2,284.2 79.9,285.2 79.9,285.3 L78.3,290.9 L73.9,305.7 L73.9,305.8 L73.9,305.9 C73.9,306 74,306.1 74.1,306.2 C74.5,306.4 74.9,306.7 75.1,307 C75.1,307 75.1,307.1 75.2,307.1 C75.5,307.7 75.6,308.4 75.3,309.1 L75.2,309.4 C74.7,310.5 73.3,311.1 72.2,310.5 L65.8,307.6 L65.8,307.5 C75.3,272.7 82.2,253.7 93.5,216.8 C95.1,211.6 97.5,203.7 100.4,194 C101.2,194.1 102.1,194.2 103,194.3 C104.2,194.6 105.5,194.7 106.8,194.7 L106.8,194.7 Z" id="Shape" fill="#E4C9C2"></path>
                        <path d="M140.4,190 L139.6,166.4 C139.6,165 140.7,163.8 142,163.8 L142.2,163.8 C143.6,163.8 144.8,164.9 144.8,166.2 L145.6,189.8 C145.6,191.2 144.5,192.4 143.2,192.4 L143,192.4 C141.6,192.5 140.4,191.4 140.4,190 L140.4,190 Z" id="Shape" fill="#E4C9C2"></path>
                        <path d="M162.1,3 C162.1,3 160.1,6.2 156.5,12.9 C156.1,13.6 155.7,14.4 155.3,15.2 C155.1,15.6 154.9,16 154.7,16.4 C154.5,16.8 154.3,17.2 154.1,17.7 C153.9,18.1 153.7,18.5 153.7,18.5 C153.2,19.5 152.8,20.4 152.4,21.2 C152.4,21.2 152.4,21.2 152.4,21.3 C152.3,21.5 152.2,21.6 152.2,21.8 L152.2,21.8 C151.5,23.2 150.9,24.6 150.3,26 C150.2,26.1 150.2,26.3 150.1,26.4 L150.1,26.4 L145,25.9 L102.8,21.3 L89,19.8 L87.3,11.4 L87.3,11.3 L87.3,11.2 C87.3,11.2 87.3,11.1 87.4,11.1 L87.5,11 C87.5,11 87.6,11 87.6,10.9 L87.7,10.9 C100.8,7.8 115.3,5 131.1,3 C137.8,2.1 150.4,1.2 157.1,0.7 C158.9,0.5 160.4,0.2 161.4,2.22044605e-16 C162.5,-0.2 163.2,-0.4 163.5,2.22044605e-16 L163.5,2.22044605e-16 C163.6,0.7 162.6,2.2 162.1,3 L162.1,3 Z" id="Shape" fill="url(#linearGradient-25)" opacity="0.2"></path>
                        <path d="M36.8,73.5 C36.1,81.9 34.6,91.7 31.7,102.1 C27,119 15.2,123 4.1,123 C10.2,107.4 22.9,90.7 36.8,73.5 L36.8,73.5 Z" id="Shape" fill="url(#linearGradient-26)" opacity="0.05"></path>
                        <path d="M80.6,192.6 C80.6,194.3 79.2,228.4 49.8,245.2 C41.1,250.2 31.5,252.8 21.7,253.1 L17.2,253.1 C17.7,251.9 18.3,250.6 18.8,249.4 C18.8,249.3 18.9,249.2 18.9,249.1 C19.7,247.2 21.9,242 24.4,235.8 C28.5,225.8 33.6,213.2 35.9,207.3 C35.9,207.3 35.9,207.2 36,207.2 C39.9,196.6 43.4,187.3 44.4,184.5 C47.9,185.6 51.6,186.6 55.4,187.6 C64.6,189.9 73,191.5 80.6,192.6 L80.6,192.6 Z" id="Shape" fill="url(#linearGradient-27)" opacity="0.09"></path>
                    </g>
                </g>
            </g>
        </g>
    </g>
</svg>