<?xml version="1.0" encoding="UTF-8"?>
<svg width="1021px" height="1013px" viewBox="0 0 1021 1013" version="1.1" xmlns="http://www.w3.org/2000/svg" xmlns:xlink="http://www.w3.org/1999/xlink">
    <!-- Generator: Sketch 61.2 (89653) - https://sketch.com -->
    <title>dancing</title>
    <desc>Created with Sketch.</desc>
    <defs>
        <linearGradient x1="-0.0131088394%" y1="49.9747711%" x2="99.9604931%" y2="49.9747711%" id="linearGradient-1">
            <stop stop-color="#19233D" offset="0%"></stop>
            <stop stop-color="#FC860A" offset="99.94%"></stop>
        </linearGradient>
        <linearGradient x1="0.0310468576%" y1="50.0447808%" x2="100.090854%" y2="50.0447808%" id="linearGradient-2">
            <stop stop-color="#271C41" offset="0%"></stop>
            <stop stop-color="#19233D" offset="100%"></stop>
        </linearGradient>
        <linearGradient x1="0.0740436918%" y1="50.0190544%" x2="100.118171%" y2="50.0190544%" id="linearGradient-3">
            <stop stop-color="#271C41" offset="0%"></stop>
            <stop stop-color="#19233D" offset="100%"></stop>
        </linearGradient>
        <linearGradient x1="0.127231353%" y1="49.9931124%" x2="100.059815%" y2="49.9931124%" id="linearGradient-4">
            <stop stop-color="#FFFFFF" offset="0%"></stop>
            <stop stop-color="#87AEB4" stop-opacity="0.4" offset="98.01%"></stop>
        </linearGradient>
        <linearGradient x1="0.0196916512%" y1="50.0107739%" x2="99.9762011%" y2="50.0107739%" id="linearGradient-5">
            <stop stop-color="#FFFFFF" offset="0%"></stop>
            <stop stop-color="#87AEB4" stop-opacity="0.4" offset="98.01%"></stop>
        </linearGradient>
        <linearGradient x1="-0.0738839895%" y1="50.0014169%" x2="99.9996236%" y2="50.0014169%" id="linearGradient-6">
            <stop stop-color="#271C41" offset="0%"></stop>
            <stop stop-color="#19233D" offset="100%"></stop>
        </linearGradient>
        <linearGradient x1="0.0458201893%" y1="50.0180303%" x2="100.001656%" y2="50.0180303%" id="linearGradient-7">
            <stop stop-color="#19233D" offset="47.13%"></stop>
            <stop stop-color="#271C41" offset="100%"></stop>
        </linearGradient>
        <linearGradient x1="0.0240993184%" y1="50.018601%" x2="100.017868%" y2="50.018601%" id="linearGradient-8">
            <stop stop-color="#19233D" offset="47.13%"></stop>
            <stop stop-color="#271C41" offset="100%"></stop>
        </linearGradient>
        <linearGradient x1="0.0196018377%" y1="50.0185956%" x2="100.060337%" y2="50.0185956%" id="linearGradient-9">
            <stop stop-color="#FFFFFF" offset="0%"></stop>
            <stop stop-color="#87AEB4" stop-opacity="0.4" offset="98.01%"></stop>
        </linearGradient>
        <linearGradient x1="0.132341992%" y1="49.9803962%" x2="100.040392%" y2="49.9803962%" id="linearGradient-10">
            <stop stop-color="#FFFFFF" stop-opacity="0.1" offset="0%"></stop>
            <stop stop-color="#F07125" offset="83.62%"></stop>
        </linearGradient>
        <linearGradient x1="0.0296551724%" y1="50.428%" x2="99.6993103%" y2="50.428%" id="linearGradient-11">
            <stop stop-color="#FFFFFF" stop-opacity="0.5" offset="0%"></stop>
            <stop stop-color="#F07125" offset="83.62%"></stop>
        </linearGradient>
        <linearGradient x1="81.1169194%" y1="42.6303186%" x2="18.5456631%" y2="54.7940536%" id="linearGradient-12">
            <stop stop-color="#FFFFFF" stop-opacity="0.5" offset="0%"></stop>
            <stop stop-color="#F07125" offset="83.62%"></stop>
        </linearGradient>
        <linearGradient x1="-0.0979266348%" y1="49.8499091%" x2="99.9519936%" y2="49.8499091%" id="linearGradient-13">
            <stop stop-color="#19233D" offset="47.13%"></stop>
            <stop stop-color="#271C41" offset="100%"></stop>
        </linearGradient>
        <linearGradient x1="-0.362359551%" y1="50.1300392%" x2="99.8741573%" y2="50.1300392%" id="linearGradient-14">
            <stop stop-color="#19233D" offset="47.13%"></stop>
            <stop stop-color="#271C41" offset="100%"></stop>
        </linearGradient>
        <linearGradient x1="0.0574700936%" y1="49.9929742%" x2="100.013013%" y2="49.9929742%" id="linearGradient-15">
            <stop stop-color="#365588" stop-opacity="0.7" offset="0%"></stop>
            <stop stop-color="#002544" stop-opacity="0" offset="100%"></stop>
        </linearGradient>
        <linearGradient x1="0.0372179211%" y1="50.0331415%" x2="99.9988783%" y2="50.0331415%" id="linearGradient-16">
            <stop stop-color="#FFFFFF" offset="0%"></stop>
            <stop stop-color="#87AEB4" stop-opacity="0.4" offset="98.01%"></stop>
        </linearGradient>
        <linearGradient x1="-0.0506195787%" y1="50.0921389%" x2="99.9734201%" y2="50.0921389%" id="linearGradient-17">
            <stop stop-color="#19233D" offset="47.13%"></stop>
            <stop stop-color="#271C41" offset="100%"></stop>
        </linearGradient>
        <linearGradient x1="-0.135%" y1="49.9851569%" x2="99.9875%" y2="49.9851569%" id="linearGradient-18">
            <stop stop-color="#365588" stop-opacity="0.7" offset="0%"></stop>
            <stop stop-color="#002544" stop-opacity="0" offset="100%"></stop>
        </linearGradient>
        <linearGradient x1="-6.68992983%" y1="9.62431402%" x2="101.277057%" y2="88.9334342%" id="linearGradient-19">
            <stop stop-color="#F2A095" offset="0%"></stop>
            <stop stop-color="#F2A89C" offset="16.62%"></stop>
            <stop stop-color="#F1BDAF" offset="42.18%"></stop>
            <stop stop-color="#EFDDCB" offset="70.68%"></stop>
        </linearGradient>
        <linearGradient x1="90.9984944%" y1="108.56907%" x2="9.69628525%" y2="-3.44342553%" id="linearGradient-20">
            <stop stop-color="#EFDDCB" offset="29.32%"></stop>
            <stop stop-color="#F1BDAF" offset="57.82%"></stop>
            <stop stop-color="#F2A89C" offset="83.38%"></stop>
            <stop stop-color="#F2A095" offset="100%"></stop>
        </linearGradient>
        <linearGradient x1="0.00692015209%" y1="49.9932722%" x2="99.9918631%" y2="49.9932722%" id="linearGradient-21">
            <stop stop-color="#19233D" offset="47.13%"></stop>
            <stop stop-color="#271C41" offset="100%"></stop>
        </linearGradient>
        <linearGradient x1="-0.0572202594%" y1="49.9638565%" x2="100.028936%" y2="49.9638565%" id="linearGradient-22">
            <stop stop-color="#19233D" offset="47.13%"></stop>
            <stop stop-color="#271C41" offset="100%"></stop>
        </linearGradient>
        <linearGradient x1="0.0205370029%" y1="50.0400299%" x2="99.9929576%" y2="50.0400299%" id="linearGradient-23">
            <stop stop-color="#19233D" offset="47.13%"></stop>
            <stop stop-color="#271C41" offset="100%"></stop>
        </linearGradient>
        <linearGradient x1="-0.000710138702%" y1="49.9599517%" x2="100.029263%" y2="49.9599517%" id="linearGradient-24">
            <stop stop-color="#EFDDCB" offset="0%"></stop>
            <stop stop-color="#F1BDAF" offset="33.1%"></stop>
            <stop stop-color="#F2A89C" offset="62.78%"></stop>
            <stop stop-color="#F2A095" offset="82.09%"></stop>
        </linearGradient>
        <linearGradient x1="0.148004634%" y1="50.1587083%" x2="100.12958%" y2="50.1587083%" id="linearGradient-25">
            <stop stop-color="#EFDDCB" offset="0%"></stop>
            <stop stop-color="#F1BDAF" offset="33.1%"></stop>
            <stop stop-color="#F2A89C" offset="62.78%"></stop>
            <stop stop-color="#F2A095" offset="82.09%"></stop>
        </linearGradient>
        <linearGradient x1="2.73733333%" y1="49.014%" x2="100.058%" y2="49.014%" id="linearGradient-26">
            <stop stop-color="#F2A095" offset="17.91%"></stop>
            <stop stop-color="#F2A89C" offset="37.22%"></stop>
            <stop stop-color="#F1BDAF" offset="66.9%"></stop>
            <stop stop-color="#EFDDCB" offset="100%"></stop>
        </linearGradient>
    </defs>
    <g id="Page-1" stroke="none" stroke-width="1" fill="none" fill-rule="evenodd">
        <g id="dancing" transform="translate(1.000000, 0.000000)">
            <g id="background">
                <g id="general">
                    <path d="M1009.7,862.4 C1002.1,886.7 990,911.6 973.3,933.4 L973.3,933.4 C969.9,937.8 966.4,942 962.6,946.1 C905.6,1008.3 813.9,1023.7 740.6,1004.1 C738,1003.4 726.6,1000.2 711,994.1 C691.6,986.4 665.7,974.1 642.4,956.1 C625.9,943.4 610.7,927.8 600,909.1 C591.4,894.1 585.7,876.9 584.6,857.6 C580.4,785.6 641.4,714.1 694.4,706.7 C697.5,706.3 700.6,706 703.6,706.1 C734.4,706.3 740.3,730.4 787.6,749.2 C792.8,751.2 798.4,753.2 804.6,755.1 C854.6,770.3 901.2,766.6 915.6,765.1 C938.4,762.7 954.4,758.3 966.4,754.4 C984.4,748.5 993.4,744 1002.6,750.1 C1022.3,763 1025.6,811.6 1009.7,862.4 L1009.7,862.4 Z" id="figure3" fill="#EEEDEE"></path>
                    <path d="M1019.2,181.1 L1019.2,184.1 L1019.2,187.1 L1019.2,193.3 L1019.2,196.6 C1019.1,209.9 1018.9,224.5 1018.6,240.5 C1018.6,241.7 1018.6,242.8 1018.5,244 C1018.2,261.3 1017.9,280.2 1017.6,301 C1017.6,302.1 1017.6,303.2 1017.5,304.4 C1017.4,312.7 1017.2,321.3 1017.1,330.3 C1016.8,350.6 1016.5,372.4 1016.2,396.1 C1016,412 1015.8,428.8 1015.6,446.3 C1015.3,477.1 1015.4,504.2 1015.5,528.2 L1015.5,528.2 C1016.2,648.6 1018.8,689.7 984.6,715.2 C978.6,719.7 972.1,723.3 965.3,726.1 C920.3,744.5 857.2,730 801,706.3 C768.7,692.7 738.7,676.2 715.7,661.2 C713.6,659.8 711.6,658.5 709.6,657.2 C663.8,626.3 630.4,590.2 608.8,563.9 C601.1,554.6 595,546.4 590.3,540.2 C580.1,526.6 571.1,513.8 562.9,501.4 C562.6,501 562.3,500.5 562,500.1 C530.4,452.2 510.4,412.1 473.7,369.9 C473.2,369.4 472.8,368.8 472.3,368.3 C461.5,356 449.3,343.6 435,330.7 C425.4,322.1 408.1,310.2 384.2,297.2 C260.8,229.9 164.7,272.1 97.6,245.9 C87.2,241.9 77.5,236.2 68.6,228.2 C67.1,226.9 65.6,225.5 64.2,224.1 C62.9,222.8 61.6,221.4 60.4,220 C43.8,201.6 32,176.3 26.4,149.7 C19,115.1 21.9,78.3 37.7,51.2 C38,50.7 38.3,50.2 38.6,49.6 C39.4,48.3 40.3,47 41.1,45.7 C41.5,45.1 41.9,44.6 42.3,44 C42.6,43.5 43,43.1 43.3,42.7 C43.6,42.3 44,41.8 44.3,41.4 C44.6,41 45,40.5 45.3,40.1 C45.6,39.7 45.9,39.4 46.2,39 L46.5,38.6 C46.8,38.3 47.1,38 47.4,37.6 C47.4,37.5 47.5,37.5 47.5,37.4 C47.8,37 48.2,36.6 48.5,36.3 C48.8,35.9 49.2,35.6 49.5,35.2 L49.8,34.9 C50.1,34.6 50.4,34.3 50.7,34 C51.9,32.8 53.1,31.7 54.3,30.6 C54.7,30.3 55.1,29.9 55.5,29.6 C86.3,4.1 139.2,0.2 228.8,1.8 C229.8,1.8 230.8,1.8 231.8,1.9 C236.7,2 241.8,2.1 246.9,2.2 C250.3,2.3 253.7,2.4 257.2,2.5 C259.8,2.6 262.4,2.6 265.1,2.7 C266.4,2.7 267.7,2.8 269.1,2.8 C280,3.1 291.3,3.5 303.1,3.8 C305.2,3.9 307.4,3.9 309.6,4 C311.6,4.1 313.6,4.1 315.7,4.2 C317.2,4.2 318.7,4.3 320.2,4.3 L320.2,4.3 C321.2,4.3 322.3,4.4 323.4,4.4 L323.4,4.4 C331.5,4.6 339.9,4.9 348.4,5.2 C363.2,5.6 378.6,6.1 394.6,6.4 C439.2,7.5 489.1,8.2 544.6,8.1 C555.9,8.1 567,8 577.7,7.9 C581.5,7.9 585.2,7.8 588.9,7.8 C624,7.4 655.8,6.6 684.7,5.7 C690.8,5.5 696.7,5.3 702.5,5.1 L703.7,5.1 C753.3,3.4 793.7,1.5 827.2,0.6 L828.8,0.6 C872.1,-0.6 903.7,-0.1 928.6,4.8 C929.6,5 930.6,5.2 931.6,5.4 C957.9,11 976.5,21.8 993.6,41.2 C1010.3,60.1 1016.8,77.3 1018.7,126.7 C1018.7,127.7 1018.8,128.7 1018.8,129.8 C1019.2,144 1019.4,160.9 1019.2,181.1 L1019.2,181.1 Z" id="Shape" fill="#EEEDEE"></path>
                    <path d="M669.6,666.1 C667.4,690.7 632.5,688.6 597.6,728.1 C561.2,769.2 546,830.4 555.6,880.1 C557.9,891.9 561.4,902.2 565.6,911.3 C571.2,923.4 578,933.3 584.8,941.7 C602.1,963.2 619,975.1 613.6,989.1 C608.6,1002.2 588.9,1005.4 555.7,1004 C515.2,1002.2 454.8,993.5 376.7,986.9 C340.9,983.9 301.5,981.3 258.5,980.1 C237.4,979.5 218.4,979.3 201.2,979.3 C93.5,979.5 56.5,987.7 24.5,955.1 C17.5,948 12.4,940.5 8.6,932.3 C-12,887.7 9.7,823.3 16.5,692.1 L16.5,691.7 C20.5,617.1 18,551.4 14,495 C4.3,359.4 -14.3,278.5 25.6,260.1 C54.1,247 72.6,284.2 163.6,290.1 C171.1,290.6 177.9,290.8 184.1,290.7 C229.7,290.5 240.5,278.5 282.7,289.1 C335.3,302.3 374.7,335.4 397.7,354.1 C402.5,358 411.9,366 426.5,380.9 C432.8,387.3 440,395.1 448.2,404.3 C499.5,462.2 511.6,492.6 531.7,523.8 C540.5,537.6 550.9,551.5 566.8,568.1 C573.5,575 580,581.2 586.3,586.9 C635,630.6 672,639.2 669.6,666.1 L669.6,666.1 Z" id="figure1" fill="#EEEDEE"></path>
                    <g id="disco_ball" transform="translate(776.000000, 5.000000)">
                        <path d="M243.2,188.2 L243.2,191.5 C243.1,204.8 242.9,219.4 242.6,235.4 C242.6,236.6 242.6,237.7 242.5,238.9 C242.2,256.2 241.9,275.1 241.6,295.9 C241.6,297 241.6,298.1 241.5,299.3 C241.4,307.6 241.2,316.2 241.1,325.2 C233.9,332.1 226,338.3 217.5,343.7 C216.5,344.3 215.5,344.9 214.5,345.5 C203,352.3 190.4,357.5 177.1,360.9 C176.1,361.1 175,361.4 174,361.7 C163.8,364 153.1,365.3 142.2,365.3 C139.9,365.3 137.6,365.3 135.3,365.1 C134.2,365 133,365 131.9,364.9 C117.6,363.9 103.9,360.7 91.1,355.8 L91.1,355.8 C89.7,355.3 88.3,354.7 86.9,354.1 C81.1,351.7 75.6,348.9 70.2,345.7 C68.9,344.9 67.7,344.2 66.4,343.4 C54.7,336 44.1,327 35,316.6 C34.2,315.7 33.5,314.9 32.8,314 C17.1,295.2 6.2,272.4 1.9,247.3 C1.7,246.3 1.5,245.2 1.4,244.1 C0.3,237.1 -0.2,230 -0.2,222.8 C-0.2,212.6 0.9,202.7 2.9,193.1 C3.2,191.9 3.4,190.7 3.7,189.5 C5.1,183.5 6.9,177.7 9.1,172.1 C9.6,170.7 10.2,169.3 10.8,167.9 C15.5,156.7 21.5,146.2 28.8,136.7 C30,135.1 31.2,133.6 32.5,132.1 L32.5,132.1 C39.6,123.5 47.7,115.7 56.6,109 C57.5,108.3 58.4,107.6 59.4,107 C77.3,94.1 98.4,85.3 121.2,81.9 C122.2,81.7 123.3,81.6 124.4,81.5 C130.3,80.8 136.3,80.4 142.4,80.4 C153.7,80.4 164.8,81.7 175.4,84.2 L175.4,84.2 C177.3,84.7 179.2,85.2 181.1,85.7 L181.1,85.7 C182.6,86.1 184.1,86.6 185.6,87.1 C186.7,87.4 187.9,87.8 189,88.2 C209.5,95.3 227.8,106.9 242.8,121.8 C242.9,121.9 242.9,121.9 243,122 C243,123 243.1,124 243.1,125.1 C243.3,141.8 243.4,162.5 243.2,188.2 L243.2,188.2 Z" id="Shape" fill="#BDD3DE" opacity="0.42"></path>
                        <path d="M242.8,124.8 L194.4,138.5 L191.3,139.4 L138,154.5 L134.9,155.4 L78.2,171.5 L75.1,172.4 L19.3,188.2 L16.2,189.1 L2.7,192.9 C3,191.7 3.2,190.5 3.5,189.3 L14.9,186.1 L18,185.2 L74.1,169.3 L77.2,168.4 L134.2,152.2 L137.3,151.3 L190.8,136.1 L193.9,135.2 L242.4,121.4 C242.5,121.5 242.5,121.5 242.6,121.6 C242.7,122.7 242.7,123.7 242.8,124.8 L242.8,124.8 Z" id="Shape" fill="#FFFFFF"></path>
                        <path d="M180.8,85.4 L128.3,103 L125.2,104 L64.4,124.4 L61.3,125.4 L28.5,136.4 C29.7,134.8 30.9,133.3 32.2,131.8 L32.2,131.8 L60.4,122.4 L63.5,121.4 L124.6,100.9 L127.7,99.9 L175,84 C177,84.4 178.9,84.9 180.8,85.4 L180.8,85.4 Z" id="Shape" fill="#FFFFFF"></path>
                        <path d="M90.9,355.7 C89.5,355.2 88.1,354.6 86.7,354 L81.8,342.5 L80.5,339.5 L65.8,305 L64.5,302 L37.5,238.9 L36.2,235.9 L16.2,189.1 L14.9,186.1 L8.8,171.9 C9.3,170.5 9.9,169.1 10.5,167.7 L18,185.2 L19.3,188.2 L39.4,235.1 L40.7,238.1 L67.5,300.8 L68.8,303.8 L83.7,338.6 L85,341.6 L90.9,355.7 L90.9,355.7 Z" id="Shape" fill="#FFFFFF"></path>
                        <path d="M135.1,365 C134,364.9 132.8,364.9 131.7,364.8 L121.9,331.6 L121,328.5 L109.3,288.7 L108.4,285.6 L91,226.6 L90.1,223.5 L75.1,172.4 L74.2,169.3 L61.3,125.5 L60.4,122.4 L56.4,108.8 C57.3,108.1 58.2,107.4 59.2,106.8 L63.5,121.4 L64.4,124.5 L77.3,168.4 L78.2,171.5 L93.3,222.7 L94.2,225.8 L111.4,284.4 L112.3,287.5 L124.1,327.6 L125,330.7 L135.1,365 L135.1,365 Z" id="Shape" fill="#FFFFFF"></path>
                        <path d="M177.1,360.8 C176.1,361.1 175,361.3 174,361.6 L166.1,319.7 L165.5,316.5 L156.9,270.9 L156.3,267.7 L146,213.9 L145.4,210.7 L134.9,155.4 L134.3,152.2 L125.2,104.1 L124.6,100.9 L121,81.7 C122.1,81.5 123.1,81.4 124.2,81.3 L127.7,99.9 L128.3,103.1 L137.4,151.4 L138,154.6 L148.5,210.1 L149.1,213.3 L159.2,266.7 L159.8,269.9 L168.5,315.7 L169.1,318.9 L177.1,360.8 L177.1,360.8 Z" id="Shape" fill="#FFFFFF"></path>
                        <path d="M217.5,343.6 L214.5,345.4 L210.3,307.7 L209.9,304.5 L204.1,253.3 L203.7,250 L198.3,201.9 L197.9,198.7 L191.2,139.5 L190.8,136.3 L185.2,86.9 C186.3,87.3 187.5,87.6 188.6,88 L193.9,135.3 L194.3,138.5 L201,197.9 L201.4,201.1 L206.8,248.7 L207.2,252 L213,303.5 L213.4,306.7 L217.5,343.6 L217.5,343.6 Z" id="Shape" fill="#FFFFFF"></path>
                        <path d="M243.2,188.2 L243.2,191.5 L201.5,201.1 L198.3,201.8 L149.1,213.1 L146,213.8 L94.2,225.7 L91,226.4 L40.6,238 L37.4,238.7 L1.6,246.9 C1.4,245.9 1.2,244.8 1.1,243.7 L36.1,235.6 L39.3,234.9 L90.1,223.2 L93.3,222.5 L145.4,210.5 L148.5,209.8 L197.9,198.4 L201.1,197.7 L243.2,188.2 L243.2,188.2 Z" id="Shape" fill="#FFFFFF"></path>
                        <path d="M242.5,235.4 C242.5,236.6 242.5,237.7 242.4,238.9 L207.1,252.1 L204,253.3 L159.8,269.8 L156.7,270.9 L112.3,287.5 L109.3,288.6 L68.7,303.8 L65.7,304.9 L34.8,316.4 C34,315.5 33.3,314.7 32.6,313.8 L64.4,301.9 L67.4,300.8 L108.4,285.5 L111.4,284.4 L156.1,267.7 L159.2,266.6 L203.7,250 L206.8,248.8 L242.5,235.4 L242.5,235.4 Z" id="Shape" fill="#FFFFFF"></path>
                        <path d="M241.5,295.9 C241.5,297 241.5,298.1 241.4,299.3 L213.3,306.9 L210.1,307.7 L169,318.8 L165.9,319.6 L125,330.6 L121.9,331.4 L84.8,341.4 L81.6,342.2 L69.9,345.4 C68.6,344.6 67.4,343.9 66.1,343.1 L80.3,339.3 L83.4,338.5 L120.8,328.4 L123.9,327.6 L165.1,316.5 L168.2,315.7 L209.5,304.5 L212.7,303.7 L241.5,295.9 L241.5,295.9 Z" id="Shape" fill="#FFFFFF"></path>
                        <path d="M155.5,0.3 L155.3,81.1 L152.3,81.1 L152.5,-0.3 C153.5,-0.1 154.5,0.1 155.5,0.3 L155.5,0.3 Z" id="Shape" fill="#BDD3DE" opacity="0.42"></path>
                    </g>
                    <g id="lines" transform="translate(0.000000, 1.000000)" fill="#BDD3DE" opacity="0.42">
                        <path d="M448,403.3 C499.3,461.2 511.4,491.6 531.5,522.8 C357.2,659 182.9,795.2 8.7,931.3 C-11.9,886.7 9.8,822.3 16.6,691.1 C20.5,616.4 18,550.5 14,494 C151.5,456 288.9,417.9 426.4,379.9 C432.6,386.4 439.8,394.1 448,403.3 L448,403.3 Z" id="Shape"></path>
                        <path d="M669.6,665.1 C667.4,689.7 632.5,687.6 597.6,727.1 C561.2,768.2 546,829.4 555.6,879.1 C560.9,906.7 572.9,926 584.8,940.7 C575.1,961.5 565.4,982.2 555.8,1002.9 C496.8,1000.3 395.2,982.8 258.7,979 C237.6,978.4 218.6,978.2 201.4,978.2 C329.7,847.4 457.9,716.6 586.2,585.7 C635,629.6 672,638.2 669.6,665.1 L669.6,665.1 Z" id="Shape"></path>
                        <path d="M694.4,705.8 C662.9,773.2 631.4,840.7 600,908.2 C591.4,893.2 585.7,876 584.6,856.7 C580.4,784.6 641.4,713.1 694.4,705.8 L694.4,705.8 Z" id="Shape"></path>
                        <path d="M973.3,932.4 L973.3,932.4 C969.9,936.8 966.4,941 962.6,945.1 C905.6,1007.3 813.9,1022.7 740.6,1003.1 C738,1002.4 726.6,999.2 711,993.1 C736.5,911.5 762,829.8 787.5,748.2 C792.7,750.2 798.3,752.2 804.5,754.1 C854.5,769.3 901.1,765.6 915.5,764.1 C938.3,761.7 954.3,757.3 966.3,753.4 C968.6,813.1 971,872.7 973.3,932.4 L973.3,932.4 Z" id="Shape"></path>
                        <path d="M1015.6,445.1 C1015.3,475.9 1015.4,503 1015.5,527 L1006.6,399.1 L1016.2,394.9 C1015.9,410.8 1015.8,427.5 1015.6,445.1 L1015.6,445.1 Z" id="Shape"></path>
                        <path d="M847.8,41.3 C827.1,46.6 807.7,55.1 790.2,66.3 C761,45.6 731.7,24.8 702.5,4.1 L703.7,4.1 C753.3,2.4 793.7,0.5 827.2,-0.4 L828.8,-0.4 C831.3,6.8 834.3,14.4 838,22.3 C841.1,29.2 844.4,35.5 847.8,41.3 L847.8,41.3 Z" id="Shape"></path>
                        <path d="M756,98.3 C741.8,113.8 730,131.5 721.2,150.9 C597.6,105.4 474,59.9 350.3,14.5 C340.3,10.8 330.2,7.1 320.2,3.4 C321.2,3.4 322.3,3.5 323.4,3.5 L323.4,3.5 C331.5,3.7 339.9,4 348.4,4.3 C363.2,4.7 378.6,5.2 394.6,5.5 C439.2,6.6 489.1,7.3 544.6,7.2 C555.9,7.2 567,7.1 577.7,7 C581.5,7 585.2,6.9 588.9,6.9 C644.6,37.3 700.3,67.8 756,98.3 L756,98.3 Z" id="Shape"></path>
                        <path d="M703.6,232.6 C703.6,240.5 704.1,248.3 705,256 C545.9,247.8 386.9,239.6 227.8,231.4 L227.8,231.4 C206.4,230.3 185,229.2 163.6,228.1 L163.6,228.1 C158.2,227.8 152.9,227.6 147.5,227.3 C119.7,225.9 91.9,224.4 64.2,223 C62.9,221.7 61.6,220.3 60.4,218.9 C43.8,200.5 32,175.2 26.4,148.6 C19,114 21.9,77.2 37.7,50.1 C38,49.6 38.3,49.1 38.6,48.5 C39.4,47.2 40.3,45.9 41.1,44.6 C41.5,44 41.9,43.5 42.3,42.9 C42.6,42.4 43,42 43.3,41.6 C43.6,41.2 44,40.7 44.3,40.3 C44.6,39.9 45,39.4 45.3,39 C45.6,38.6 45.9,38.3 46.2,37.9 L46.5,37.5 C46.8,37.2 47.1,36.9 47.4,36.5 C47.4,36.4 47.5,36.4 47.5,36.3 C47.8,35.9 48.2,35.5 48.5,35.2 C48.8,34.8 49.2,34.5 49.5,34.1 C49.6,34 49.7,33.9 49.8,33.8 C50.1,33.5 50.4,33.2 50.7,32.9 C51.9,31.7 53.1,30.6 54.3,29.5 C125.6,47.7 196.7,65.9 267.8,84 C414.2,121.3 560.6,158.6 707,195.9 C704.8,207.7 703.6,220 703.6,232.6 L703.6,232.6 Z" id="Shape"></path>
                        <path d="M745.1,357.9 C684.3,405.4 623.6,452.9 562.8,500.4 C562.5,500 562.2,499.5 561.9,499.1 C530.3,451.2 510.3,411.1 473.6,368.9 C553.5,346.8 633.3,324.7 713.2,302.6 C720.9,322.8 731.7,341.4 745.1,357.9 L745.1,357.9 Z" id="Shape"></path>
                        <path d="M778.1,390 C721.6,447.6 665.2,505.2 608.7,562.8 C630.3,589.1 663.8,625.2 709.5,656.1 C711.5,657.4 713.5,658.8 715.6,660.1 C753.2,579.4 790.9,498.8 828.5,418.2 C810.3,411.3 793.3,401.7 778.1,390 L778.1,390 Z" id="Shape"></path>
                        <path d="M899.1,431.1 C894.9,431.1 890.8,431 886.7,430.7 C858.1,522.2 829.5,613.7 800.9,705.2 C857.1,728.8 920.1,743.4 965.2,725 C961.3,624.5 957.4,524 953.5,423.6 C936.2,428.5 918,431.1 899.1,431.1 L899.1,431.1 Z" id="Shape"></path>
                    </g>
                    <g id="smoke" fill="#BDD3DE" opacity="0.42">
                        <path d="M1009.7,862.4 C1002.1,886.7 990,911.6 973.3,933.4 L973.3,933.4 C969.9,937.8 966.4,942 962.6,946.1 C905.6,1008.3 813.9,1023.7 740.6,1004.1 C738,1003.4 726.6,1000.2 711,994.1 C691.6,986.4 665.7,974.1 642.4,956.1 C642.9,955 643.5,954 644.2,952.9 C658.8,928.4 688.4,918.7 712.4,929.9 C712.5,929.7 712.6,929.5 712.7,929.3 C716.8,922.5 722,916.8 727.9,912.4 C716.4,892.5 716.1,866.4 729.2,844.3 C748.1,812.5 787.7,801.1 817.7,818.9 C833.4,828.2 843.4,843.8 846.6,861 C859.8,852.8 875.4,849.5 890.4,851.8 C891.1,850.4 891.9,849 892.7,847.6 C911.6,815.8 951.2,804.4 981.2,822.2 C996.3,831.3 1006.1,846 1009.7,862.4 L1009.7,862.4 Z" id="Shape"></path>
                        <path d="M324,72.4 C306.5,84.5 284.8,86.3 266.4,79 C266.4,79 266.4,79.1 266.3,79.1 C266.9,81 267.4,83 267.8,84.9 C272.1,105.9 265.2,128.1 248.7,142.9 C248.8,143 248.9,143.2 249,143.3 C268.3,171.2 261.3,209.5 233.4,228.9 C231.6,230.2 229.7,231.3 227.8,232.3 L227.8,232.3 C207.2,243.6 182.3,241.8 163.6,229 L163.6,229 C160.1,226.6 156.9,223.9 153.9,220.7 C152,223.3 149.9,225.8 147.5,228.1 C145,230.6 142.1,233 139.1,235.1 C126.5,243.8 111.8,247.2 97.6,245.7 C87.2,241.7 77.5,236 68.6,228 C67.1,226.7 65.6,225.3 64.2,223.9 C62.9,222.6 61.6,221.2 60.4,219.8 C43.8,201.4 32,176.1 26.4,149.5 C19,114.9 21.9,78.1 37.7,51 C38,50.5 38.3,50 38.6,49.4 C39.4,48.1 40.3,46.8 41.1,45.5 C41.5,44.9 41.9,44.4 42.3,43.8 C42.6,43.3 43,42.9 43.3,42.5 C43.6,42.1 44,41.6 44.3,41.2 C44.6,40.8 45,40.3 45.3,39.9 C45.6,39.5 45.9,39.2 46.2,38.8 L46.5,38.4 C46.8,38.1 47.1,37.8 47.4,37.4 C47.4,37.3 47.5,37.3 47.5,37.2 C47.8,36.8 48.2,36.4 48.5,36.1 C48.8,35.7 49.2,35.4 49.5,35 C49.6,34.9 49.7,34.8 49.8,34.7 C50.1,34.4 50.4,34.1 50.7,33.8 C51.9,32.6 53.1,31.5 54.3,30.4 C54.7,30.1 55.1,29.7 55.5,29.4 C86.3,4.1 139.2,0.2 228.8,1.8 C229.8,1.8 230.8,1.8 231.8,1.9 C236.7,2 241.8,2.1 246.9,2.2 C250.3,2.3 253.7,2.4 257.2,2.5 C259.8,2.6 262.4,2.6 265.1,2.7 C266.4,2.7 267.7,2.8 269.1,2.8 C280,3.1 291.3,3.5 303.1,3.8 C305.2,3.9 307.4,3.9 309.6,4 C311.6,4.1 313.6,4.1 315.7,4.2 C317.2,4.2 318.7,4.3 320.2,4.3 L320.2,4.3 C321.2,4.3 322.3,4.4 323.4,4.4 L323.4,4.4 C331.5,4.6 339.9,4.9 348.4,5.2 C349.3,8.6 350,12 350.3,15.4 C352.5,37.1 343.2,59.2 324,72.4 L324,72.4 Z" id="Shape"></path>
                        <path d="M1019.2,181.1 C1005,186 989,185.6 974.3,179.1 C973.1,178.6 972,178 970.9,177.4 C959.1,171.2 950.1,161.8 944.5,150.8 C944,149.8 943.5,148.9 943.1,147.9 C940.5,142.1 938.9,135.9 938.2,129.6 L938.1,129.6 C930.6,137.1 921.3,142.5 911.3,145.3 C910.3,145.6 909.2,145.9 908.2,146.1 C896.9,148.6 884.9,148 873.4,143.8 C873.3,143.9 873.3,144.1 873.2,144.3 C868,154.3 860.5,162.2 851.6,167.8 C850.7,168.4 849.7,169 848.7,169.5 C831.2,179.3 809.3,180.4 790.2,170.4 C789.5,170 788.8,169.6 788.1,169.2 C762.4,154.5 751.1,123.7 760.3,96.3 C757.5,99.7 748.6,109.4 734.6,111.2 C715.4,113.7 695.9,100.3 689.6,81.2 C683.4,62.6 690.8,41.5 707.8,30 C697.7,24 689.8,15.6 684.7,5.8 C690.8,5.6 696.7,5.4 702.5,5.2 L703.7,5.2 C753.3,3.5 793.7,1.6 827.2,0.7 L828.8,0.7 C872.1,-0.5 903.7,-1.31283873e-14 928.6,4.9 C929.6,5.1 930.6,5.3 931.6,5.5 C957.9,11.1 976.5,21.9 993.6,41.3 C1010.3,60.2 1016.8,77.4 1018.7,126.8 C1018.7,127.8 1018.8,128.8 1018.8,129.9 C1019.2,144 1019.4,160.9 1019.2,181.1 L1019.2,181.1 Z" id="Shape"></path>
                        <path d="M613.6,989.1 C608.6,1002.2 588.9,1005.4 555.7,1004 C515.2,1002.2 454.8,993.5 376.7,986.9 C340.9,983.9 301.5,981.3 258.5,980.1 C237.4,979.5 218.4,979.3 201.2,979.3 C93.5,979.5 56.5,987.7 24.5,955.1 C17.5,948 12.4,940.5 8.6,932.3 C-12,887.7 9.7,823.3 16.5,692.1 L16.5,691.7 C20.5,617.1 18,551.4 14,495 C4.3,359.4 -14.3,278.5 25.6,260.1 C54.1,247 72.6,284.2 163.6,290.1 C171.1,290.6 177.9,290.8 184.1,290.7 C188,297.6 190.1,305.3 190.1,313.4 C190.1,342.6 162.1,366.3 127.6,366.3 C118.4,366.3 109.7,364.6 101.9,361.6 C113.7,371.6 121.1,385.8 121.1,401.5 C121.1,411.9 117.9,421.6 112.3,429.9 C144.9,433.2 170.1,456.4 170.1,484.5 C170.1,506.5 154.6,525.4 132.3,534.2 C133.6,538.1 134.5,542.3 134.9,546.6 C136.7,566.9 127.2,585.7 111.6,596.6 C112.8,596.5 113.9,596.5 115.1,596.5 C140.8,596.5 162.3,614.1 168.4,637.8 C179.1,628.3 193.2,622.5 208.6,622.5 C242,622.5 269.1,649.6 269.1,683 C269.1,697.2 264.2,710.2 256,720.6 C262.1,717.4 268.9,715.1 276.3,714 C298,710.7 318.2,718.4 329.3,732.2 C336.3,729.8 343.8,728.5 351.6,728.5 C389.4,728.5 420.1,759.2 420.1,797 C420.1,797.9 420.1,798.9 420,799.8 C444.6,805.3 463.1,827.2 463.1,853.5 C463.1,863.8 460.3,873.4 455.4,881.6 C458,883.9 460.5,886.2 463,888.5 L463.1,888.5 C488.7,888.5 510.2,906 516.3,929.6 C527.5,918.1 543.2,911 560.6,911 C562.3,911 563.9,911.1 565.6,911.2 C571.2,923.3 578,933.2 584.8,941.6 C602,963.3 618.9,975.1 613.6,989.1 L613.6,989.1 Z" id="Shape"></path>
                    </g>
                </g>
            </g>
            <g id="main" transform="translate(194.000000, 134.000000)">
                <g id="general_1_">
                    <path d="M618.7,559.3 L178.4,559.3 C177.6,559.3 176.9,558.6 176.9,557.8 C176.9,557 177.6,556.3 178.4,556.3 L618.8,556.3 C619.6,556.3 620.3,557 620.3,557.8 C620.3,558.6 619.6,559.3 618.7,559.3 L618.7,559.3 Z" id="Shape" fill="#153E5C"></path>
                    <g id="notes_and_music_center" transform="translate(216.000000, 295.000000)">
                        <g id="music_center" transform="translate(0.000000, 202.000000)">
                            <path d="M154.3,97.8 L12.1,97.8 C5.5,97.8 0.1,92.4 0.1,85.8 L0.1,11.5 C0.1,4.9 5.5,-0.5 12.1,-0.5 L154.4,-0.5 C161,-0.5 166.4,4.9 166.4,11.5 L166.4,85.8 C166.3,92.4 160.9,97.8 154.3,97.8 L154.3,97.8 Z" id="Shape" fill="url(#linearGradient-1)"></path>
                            <path d="M160.7,14.9 L160.7,82.5 C160.7,83 160.7,83.5 160.6,84 L160.6,84.4 C160.6,84.5 160.6,84.6 160.5,84.8 C160.1,87.1 159,89.2 157.4,90.8 C157.2,91 157,91.2 156.9,91.4 L156.7,91.6 C156.5,91.8 156.2,92 156,92.2 C154.1,93.6 151.8,94.5 149.4,94.7 L148.8,94.7 L17.8,94.7 C15.1,94.7 12.6,93.8 10.6,92.3 L10.6,92.3 L10.5,92.2 C10.3,92 10.1,91.8 9.8,91.7 C9.7,91.6 9.6,91.6 9.6,91.5 C7.8,89.8 6.4,87.5 6,84.9 C6,84.7 5.9,84.4 5.9,84.1 C5.8,83.6 5.8,83.1 5.8,82.6 L5.8,15 C5.8,13.5 6.1,12.2 6.5,10.9 C6.6,10.6 6.7,10.4 6.8,10.1 C7.4,8.7 8.3,7.5 9.4,6.4 C9.6,6.2 9.9,6 10.1,5.8 C12.1,4.1 14.6,3.1 17.4,3 L17.8,3 L148.7,3 C151.5,3 154.1,4 156.2,5.6 C156.4,5.8 156.7,6 156.9,6.2 C158.1,7.3 159,8.6 159.6,10.1 C159.7,10.3 159.8,10.6 159.9,10.9 C160.4,12.1 160.7,13.5 160.7,14.9 L160.7,14.9 Z" id="Shape" fill="#302C34"></path>
                            <path d="M10.6,91.3 L10.6,92.1 L10.6,92.1 L10.5,92 C10.3,91.8 10.1,91.6 9.8,91.5 L9.8,88.5 L9.8,84.7 L9.8,80.7 L9.8,77.4 L9.8,76.6 L9.8,73.7 L9.8,72.9 L9.8,65.1 L9.8,64.3 L9.8,57.4 L9.8,56.6 L9.8,49.7 L9.8,49 L9.8,42.1 L9.8,41.3 L9.8,34.3 L9.8,33.5 L9.8,26.6 L9.8,25.8 C9.8,23.4 9.8,21.1 9.7,18.9 L9.7,18.1 C9.7,15.6 9.7,13.3 9.6,11.2 L9.6,10.4 C9.6,9 9.6,7.7 9.5,6.5 C9.7,6.3 10,6 10.2,5.8 C10.2,7.2 10.3,8.7 10.3,10.4 L10.3,11.2 C10.3,13.3 10.4,15.6 10.4,18.1 L10.4,18.9 C10.4,21.1 10.4,23.4 10.5,25.8 L10.5,26.6 C10.5,28.8 10.5,31.2 10.6,33.5 L10.6,34.3 L10.6,41.3 L10.6,42.1 L10.6,49 L10.6,49.8 L10.6,56.7 L10.6,57.5 L10.6,64.4 L10.6,65.2 L10.6,73 L10.6,73.8 L10.6,76.7 L10.6,77.5 L10.6,80.8 L10.6,81.6 L10.6,84 L10.6,84.8 L10.6,88.6 L10.6,89.4 L10.6,91.3 L10.6,91.3 Z" id="Shape" fill="#BDD3DE"></path>
                            <path d="M18.7,91.3 L18.7,92.1 L18.7,93.9 L18.7,94.6 L17.9,94.6 L17.9,93.9 L17.9,84 L17.9,79.5 L17.9,77.4 L17.9,76.6 L17.9,71.9 L17.9,71.1 L17.9,63.5 L17.9,62.7 L17.9,55.9 L17.9,55.1 L17.9,48.3 L17.9,47.5 L17.9,40.7 L17.9,39.9 L17.9,33.1 L17.9,32.3 L17.9,25.5 L17.9,24.7 C17.9,22.3 17.9,20.1 17.8,17.9 L17.8,17.1 C17.8,14.7 17.7,12.4 17.7,10.3 L17.7,9.5 C17.7,6.5 17.6,4 17.6,2.2 L18,2.2 L18.3,2.2 C18.4,4.1 18.4,6.6 18.5,9.5 L18.5,10.3 C18.5,12.4 18.6,14.6 18.6,17.1 L18.6,17.9 C18.6,20 18.6,22.3 18.7,24.7 L18.7,25.5 C18.7,27.7 18.7,29.9 18.8,32.3 L18.8,33.1 L18.8,39.9 L18.8,40.7 L18.8,47.5 L18.8,48.3 L18.8,55.1 L18.8,55.9 L18.8,62.7 L18.8,63.5 L18.8,71.1 L18.8,71.9 L18.8,76.6 L18.8,78.7 L18.8,79.5 L18.8,84 L18.8,87.1 C18.7,88.5 18.7,89.9 18.7,91.3 L18.7,91.3 Z" id="Shape" fill="#BDD3DE"></path>
                            <path d="M26.8,91.3 L26.8,94.5 L26,94.5 L26,93.8 L26,92 L26,91.2 L26,87 L26,84 L26,79.5 L26,76.6 L26,71.9 L26,71.1 L26,63.5 L26,62.7 L26,55.9 L26,55.1 L26,48.3 L26,47.5 L26,40.7 L26,39.9 L26,33.1 L26,32.3 L26,25.5 L26,24.7 C26,22.3 26,20.1 25.9,17.9 L25.9,17.1 C25.9,14.7 25.9,12.4 25.8,10.3 L25.8,9.5 C25.8,6.6 25.7,4.2 25.7,2.2 L26.4,2.2 C26.5,4.2 26.5,6.7 26.6,9.5 L26.6,10.3 C26.6,12.4 26.7,14.6 26.7,17.1 L26.7,17.9 C26.7,20 26.7,22.3 26.8,24.7 L26.8,25.5 L26.8,32.3 L26.8,33.1 L26.8,39.9 L26.8,40.7 L26.8,47.5 L26.8,48.3 L26.8,55.1 L26.8,55.9 L26.8,62.7 L26.8,63.5 L26.8,71.1 L26.8,71.9 L26.8,76.6 L26.8,78.7 L26.8,79.5 L26.8,84 L26.8,86.3 L26.8,87.1 C26.8,88.5 26.8,89.9 26.8,91.3 L26.8,91.3 Z" id="Shape" fill="#BDD3DE"></path>
                            <path d="M34.9,91.3 L34.9,94.5 L34.1,94.5 L34.1,93.8 L34.1,92 L34.1,91.2 L34.1,87 L34.1,84 L34.1,79.5 L34.1,76.6 L34.1,71.9 L34.1,71.1 L34.1,63.5 L34.1,62.7 L34.1,55.9 L34.1,55.1 L34.1,48.3 L34.1,47.5 L34.1,40.7 L34.1,39.9 L34.1,33.1 L34.1,32.3 L34.1,25.5 L34.1,24.7 C34.1,22.3 34.1,20.1 34,17.9 L34,17.1 C34,14.7 34,12.4 33.9,10.3 L33.9,9.5 C33.9,6.6 33.8,4.2 33.8,2.2 L34.5,2.2 C34.6,4.2 34.6,6.7 34.7,9.5 L34.7,10.3 C34.7,12.4 34.8,14.6 34.8,17.1 L34.8,17.9 C34.8,20 34.8,22.3 34.9,24.7 L34.9,25.5 L34.9,32.3 L34.9,33.1 L34.9,39.9 L34.9,40.7 L34.9,47.5 L34.9,48.3 L34.9,55.1 L34.9,55.9 L34.9,62.7 L34.9,63.5 L34.9,71.1 L34.9,71.9 L34.9,76.6 L34.9,78.7 L34.9,79.5 L34.9,84 L34.9,86.3 L34.9,87.1 C34.9,88.5 34.9,89.9 34.9,91.3 L34.9,91.3 Z" id="Shape" fill="#BDD3DE"></path>
                            <path d="M43,91.3 L43,94.5 L42.2,94.5 L42.2,93.8 L42.2,92 L42.2,91.2 L42.2,87 L42.2,84 L42.2,79.5 L42.2,76.6 L42.2,71.9 L42.2,71.1 L42.2,63.5 L42.2,62.7 L42.2,55.9 L42.2,55.1 L42.2,48.3 L42.2,47.5 L42.2,40.7 L42.2,39.9 L42.2,33.1 L42.2,32.3 C42.2,30 42.2,27.7 42.1,25.5 L42.1,24.7 C42.1,22.3 42.1,20.1 42,17.9 L42,17.1 C42,14.7 42,12.4 41.9,10.3 L41.9,9.5 C41.9,6.6 41.8,4.2 41.8,2.2 L42.5,2.2 C42.5,4.2 42.6,6.7 42.6,9.5 L42.6,10.3 C42.6,12.4 42.7,14.6 42.7,17.1 L42.7,17.9 C42.7,20 42.7,22.3 42.8,24.7 L42.8,25.5 C42.8,27.7 42.8,29.9 42.9,32.3 L42.9,33.1 L42.9,39.9 L42.9,40.7 L42.9,47.5 L42.9,48.3 L42.9,55.1 L42.9,55.9 L42.9,62.7 L42.9,63.5 L42.9,71.1 L42.9,71.9 L42.9,76.6 L42.9,78.7 L42.9,79.5 L42.9,84 L42.9,86.3 L42.9,87.1 C43,88.5 43,89.9 43,91.3 L43,91.3 Z" id="Shape" fill="#BDD3DE"></path>
                            <path d="M51.1,92.1 L51.1,94.6 L50.3,94.6 L50.3,92.1 L50.3,91.3 L50.3,88 L50.3,84 L50.3,80.4 L50.3,76.7 L50.3,72.8 L50.3,72 L50.3,64.3 L50.3,63.5 L50.3,56.7 L50.3,55.9 L50.3,49.1 L50.3,48.3 L50.3,41.5 L50.3,40.7 L50.3,33.9 L50.3,33.1 L50.3,26.3 L50.3,25.5 C50.3,23.1 50.3,20.9 50.2,18.7 L50.2,17.9 C50.2,15.5 50.2,13.2 50.1,11.1 L50.1,10.3 C50.1,7.4 50,4.9 50,2.9 L50.7,2.9 C50.7,4.9 50.8,7.4 50.8,10.3 L50.8,11.1 C50.8,13.2 50.9,15.5 50.9,17.9 L50.9,18.7 C50.9,20.9 50.9,23.1 51,25.5 L51,26.3 L51,33.1 L51,33.9 L51,40.7 L51,41.5 L51,48.3 L51,49.1 L51,55.9 L51,56.7 L51,63.5 L51,64.3 L51,72 L51,72.8 L51,76.7 L51,79.6 L51,80.4 L51,84 L51,87.2 L51,88 L51,91.3 C51.1,91.6 51.1,91.8 51.1,92.1 L51.1,92.1 Z" id="Shape" fill="#BDD3DE"></path>
                            <path d="M59.2,91.3 L59.2,92.1 L59.2,93.9 L59.2,94.6 L58.4,94.6 L58.4,93.9 L58.4,84 L58.4,79.5 L58.4,77.4 L58.4,76.6 L58.4,71.9 L58.4,71.1 L58.4,63.5 L58.4,62.7 L58.4,55.9 L58.4,55.1 L58.4,48.3 L58.4,47.5 L58.4,40.7 L58.4,39.9 L58.4,33.1 L58.4,32.3 L58.4,25.5 L58.4,24.7 C58.4,22.3 58.4,20.1 58.3,17.9 L58.3,17.1 C58.3,14.7 58.3,12.4 58.2,10.3 L58.2,9.5 C58.1,6.5 58.1,4 58,2.2 L58.7,2.2 C58.8,4.1 58.8,6.6 58.9,9.5 L58.9,10.3 C58.9,12.4 59,14.6 59,17.1 L59,17.9 C59,20 59,22.3 59.1,24.7 L59.1,25.5 C59.1,27.7 59.1,29.9 59.2,32.3 L59.2,33.1 L59.2,39.9 L59.2,40.7 L59.2,47.5 L59.2,48.3 L59.2,55.1 L59.2,55.9 L59.2,62.7 L59.2,63.5 L59.2,71.1 L59.2,71.9 L59.2,76.6 L59.2,78.7 L59.2,79.5 L59.2,84 L59.2,87.1 L59.2,91.3 L59.2,91.3 Z" id="Shape" fill="#BDD3DE"></path>
                            <path d="M67.4,94.5 L66.6,94.5 L66.6,92 L66.6,91.2 L66.6,84.6 L66.6,84 L66.6,77.4 L66.6,76.6 L66.6,70 L66.6,69.2 L66.6,61.8 L66.6,61 L66.6,54.4 L66.6,53.6 L66.6,47 L66.6,46.2 L66.6,39.6 L66.6,38.8 L66.6,32.2 L66.6,31.5 L66.6,24.9 L66.6,24.1 C66.6,21.8 66.6,19.6 66.5,17.5 L66.5,16.7 C66.5,14.3 66.5,12.1 66.4,10.1 L66.4,9.3 C66.4,6.4 66.3,4 66.2,2.2 L66.9,2.2 C67,4 67,6.5 67.1,9.3 L67.1,10.1 C67.1,12.1 67.2,14.3 67.2,16.7 L67.2,17.5 C67.2,19.6 67.3,21.8 67.3,24.1 L67.3,24.9 C67.3,27 67.3,29.2 67.4,31.5 L67.4,32.2 L67.4,38.8 L67.4,39.6 L67.4,46.2 L67.4,47 L67.4,53.6 L67.4,54.4 L67.4,61 L67.4,61.8 L67.4,69.2 L67.4,70 L67.4,76.6 L67.4,77.4 L67.4,84 L67.4,84.8 L67.4,91.4 L67.4,92.2 L67.4,94.5 L67.4,94.5 Z" id="Shape" fill="#BDD3DE"></path>
                            <path d="M75.5,91.3 L75.5,94.5 L74.7,94.5 L74.7,92 L74.7,91.2 L74.7,84.6 L74.7,84 L74.7,77.4 L74.7,76.6 L74.7,70 L74.7,69.2 L74.7,61.8 L74.7,61 L74.7,54.4 L74.7,53.6 L74.7,47 L74.7,46.2 L74.7,39.6 L74.7,38.8 L74.7,32.2 L74.7,32 L74.7,25.4 L74.7,24.6 L74.7,18 L74.7,17.2 C74.7,14.8 74.7,12.7 74.6,10.6 L74.6,9.8 C74.6,7 74.5,4.6 74.5,2.7 L75.2,2.7 C75.3,4.7 75.3,7.1 75.4,9.8 L75.4,10.6 C75.4,12.6 75.5,14.8 75.5,17.2 L75.5,18 C75.5,20.1 75.6,22.3 75.6,24.6 L75.6,25.4 L75.6,32 L75.6,32.7 L75.6,39.3 L75.6,40.1 L75.6,46.7 L75.6,47.5 L75.6,54.1 L75.6,54.9 L75.6,61.5 L75.6,62.3 L75.6,69.7 L75.6,70.5 L75.6,77.1 L75.6,77.9 L75.6,84.5 L75.6,85.3 C75.5,87 75.5,89.2 75.5,91.3 L75.5,91.3 Z" id="Shape" fill="#BDD3DE"></path>
                            <path d="M83.6,91.3 L83.6,94.5 L82.8,94.5 L82.8,92 L82.8,91.2 L82.8,84.6 L82.8,84 L82.8,77.4 L82.8,76.6 L82.8,70 L82.8,69.2 L82.8,61.8 L82.8,61 L82.8,54.4 L82.8,53.6 L82.8,47 L82.8,46.2 L82.8,39.6 L82.8,38.8 L82.8,32.2 L82.8,32 L82.8,25.4 L82.8,24.6 C82.8,22.3 82.8,20.1 82.7,18 L82.7,17.2 C82.7,14.8 82.7,12.7 82.6,10.6 L82.6,9.8 C82.6,7 82.5,4.6 82.5,2.7 L83.2,2.7 C83.2,4.7 83.3,7.1 83.3,9.8 L83.3,10.6 C83.3,12.6 83.4,14.8 83.4,17.2 L83.4,18 C83.4,20.1 83.4,22.3 83.5,24.6 L83.5,25.4 L83.5,32 L83.5,32.7 L83.5,39.3 L83.5,40.1 L83.5,46.7 L83.5,47.5 L83.5,54.1 L83.5,54.9 L83.5,61.5 L83.5,62.3 L83.5,69.7 L83.5,70.5 L83.5,77.1 L83.5,77.9 L83.5,84.5 L83.5,85.3 C83.6,87 83.6,89.2 83.6,91.3 L83.6,91.3 Z" id="Shape" fill="#BDD3DE"></path>
                            <path d="M91.7,92.1 L91.7,91.3 L91.7,84.7 L91.7,83.9 L91.7,77.3 L91.7,76.5 L91.7,69.9 L91.7,69.1 L91.7,61.7 L91.7,60.9 L91.7,54.3 L91.7,53.5 L91.7,46.9 L91.7,46.1 L91.7,39.5 L91.7,38.7 L91.7,32.1 L91.7,31.4 L91.7,24.8 L91.7,24 C91.7,21.7 91.7,19.5 91.6,17.4 L91.6,16.6 C91.6,14.2 91.5,12 91.5,10 L91.5,9.2 C91.4,6.1 91.4,3.7 91.3,2.1 L92,2.1 C92.1,3.8 92.2,6.2 92.2,9.2 L92.2,10 C92.2,12 92.3,14.2 92.3,16.6 L92.3,17.4 C92.3,19.5 92.4,21.6 92.4,24 L92.4,24.8 L92.4,31.4 L92.4,32.1 L92.4,38.7 L92.4,39.5 L92.4,46.1 L92.4,46.9 L92.4,53.5 L92.4,54.3 L92.4,60.9 L92.4,61.7 L92.4,69.1 L92.4,69.9 L92.4,76.5 L92.4,77.3 L92.4,83.9 L92.4,84.7 L92.4,91.3 L92.4,92.1 L92.4,94.6 L91.6,94.6 C91.8,93.7 91.8,92.9 91.7,92.1 L91.7,92.1 Z" id="Shape" fill="#BDD3DE"></path>
                            <path d="M99.9,92.1 L99.9,91.3 L99.9,84.7 L99.9,83.9 L99.9,77.3 L99.9,76.5 L99.9,69.9 L99.9,69.1 L99.9,61.7 L99.9,60.9 L99.9,54.3 L99.9,53.5 L99.9,46.9 L99.9,46.1 L99.9,39.5 L99.9,38.7 L99.9,32.1 L99.9,31.4 L99.9,24.8 L99.9,24 C99.9,21.7 99.9,19.5 99.8,17.4 L99.8,16.6 C99.8,14.2 99.8,12 99.7,10 L99.7,9.2 C99.7,6.1 99.6,3.7 99.5,2.1 L100.2,2.1 C100.3,3.8 100.4,6.2 100.4,9.2 L100.4,10 C100.4,12 100.5,14.2 100.5,16.6 L100.5,17.4 C100.5,19.5 100.5,21.6 100.6,24 L100.6,24.8 C100.6,26.9 100.6,29.1 100.7,31.4 L100.7,32.1 L100.7,38.7 L100.7,39.5 L100.7,46.1 L100.7,46.9 L100.7,53.5 L100.7,54.3 L100.7,60.9 L100.7,61.7 L100.7,69.1 L100.7,69.9 L100.7,76.5 L100.7,77.3 L100.7,83.9 L100.7,84.7 L100.7,91.3 L100.7,92.1 L100.7,94.6 L99.9,94.6 L99.9,92.1 L99.9,92.1 Z" id="Shape" fill="#BDD3DE"></path>
                            <path d="M108.7,94.5 L108,94.5 L108,92 L108,91.2 L108,84.6 L108,84 L108,77.4 L108,76.6 L108,70 L108,69.2 L108,61.8 L108,61 L108,54.4 L108,53.6 L108,47 L108,46.2 L108,39.6 L108,38.8 L108,32.2 L108,31.5 L108,24.9 L108,24.1 C108,21.8 108,19.6 107.9,17.5 L107.9,16.7 C107.9,14.3 107.9,12.1 107.8,10.1 L107.8,9.3 C107.8,6.4 107.7,4 107.7,2.2 L108.4,2.2 C108.5,4 108.5,6.5 108.6,9.3 L108.6,10.1 C108.6,12.1 108.7,14.3 108.7,16.7 L108.7,17.5 C108.7,19.6 108.7,21.8 108.8,24.1 L108.8,24.9 C108.8,27 108.8,29.2 108.9,31.5 L108.9,32.2 L108.9,38.8 L108.9,39.6 L108.9,46.2 L108.9,47 L108.9,53.6 L108.9,54.4 L108.9,61 L108.9,61.8 L108.9,69.2 L108.9,70 L108.9,76.6 L108.9,77.4 L108.9,84 L108.9,84.8 L108.9,91.4 L108.9,92.2 C108.7,92.9 108.7,93.7 108.7,94.5 L108.7,94.5 Z" id="Shape" fill="#BDD3DE"></path>
                            <path d="M116.8,94.5 L116,94.5 L116,92 L116,91.2 L116,84.6 L116,84 L116,77.4 L116,76.6 L116,70 L116,69.2 L116,61.8 L116,61 L116,54.4 L116,53.6 L116,47 L116,46.2 L116,39.6 L116,38.8 L116,32.2 L116,31.5 L116,24.9 L116,24.1 C116,21.8 116,19.6 115.9,17.5 L115.9,16.7 C115.9,14.3 115.9,12.1 115.8,10.1 L115.8,9.3 C115.8,6.4 115.7,4 115.7,2.2 L116.4,2.2 C116.5,4 116.5,6.5 116.6,9.3 L116.6,10.1 C116.6,12.1 116.7,14.3 116.7,16.7 L116.7,17.5 C116.7,19.6 116.7,21.8 116.8,24.1 L116.8,24.9 C116.8,27 116.8,29.2 116.9,31.5 L116.9,32.2 L116.9,38.8 L116.9,39.6 L116.9,46.2 L116.9,47 L116.9,53.6 L116.9,54.4 L116.9,61 L116.9,61.8 L116.9,69.2 L116.9,70 L116.9,76.6 L116.9,77.4 L116.9,84 L116.9,84.8 L116.9,91.4 L116.9,92.2 C116.8,92.9 116.8,93.7 116.8,94.5 L116.8,94.5 Z" id="Shape" fill="#BDD3DE"></path>
                            <path d="M124.9,94.5 L124.1,94.5 L124.1,92 L124.1,91.2 L124.1,84.6 L124.1,84 L124.1,77.4 L124.1,76.6 L124.1,70 L124.1,69.2 L124.1,61.8 L124.1,61 L124.1,54.4 L124.1,53.6 L124.1,47 L124.1,46.2 L124.1,39.6 L124.1,38.8 L124.1,32.2 L124.1,31.5 L124.1,24.9 L124.1,24.1 C124.1,21.8 124.1,19.6 124,17.5 L124,16.7 C124,14.3 124,12.1 123.9,10.1 L123.9,9.3 C123.8,6.4 123.8,4 123.7,2.2 L124.4,2.2 C124.5,4 124.5,6.5 124.6,9.3 L124.6,10.1 C124.6,12.1 124.7,14.3 124.7,16.7 L124.7,17.5 C124.7,19.6 124.7,21.8 124.8,24.1 L124.8,24.9 C124.8,27 124.8,29.2 124.9,31.5 L124.9,32.2 L124.9,38.8 L124.9,39.6 L124.9,46.2 L124.9,47 L124.9,53.6 L124.9,54.4 L124.9,61 L124.9,61.8 L124.9,69.2 L124.9,70 L124.9,76.6 L124.9,77.4 L124.9,84 L124.9,84.8 L124.9,91.4 L124.9,92.2 C124.9,92.9 124.9,93.7 124.9,94.5 L124.9,94.5 Z" id="Shape" fill="#BDD3DE"></path>
                            <path d="M133.1,94.5 L132.3,94.5 L132.3,92 L132.3,91.2 L132.3,84.6 L132.3,84 L132.3,77.4 L132.3,76.6 L132.3,70 L132.3,69.2 L132.3,61.8 L132.3,61 L132.3,54.4 L132.3,53.6 L132.3,47 L132.3,46.2 L132.3,39.6 L132.3,38.8 L132.3,32.2 L132.3,32 L132.3,25.4 L132.3,24.6 C132.3,22.3 132.3,20.1 132.2,18 L132.2,17.2 C132.2,14.8 132.1,12.6 132.1,10.6 L132.1,9.8 C132.1,6.9 132,4.5 131.9,2.7 L132.6,2.7 C132.7,4.5 132.7,7 132.8,9.8 L132.8,10.6 C132.8,12.6 132.9,14.8 132.9,17.2 L132.9,18 C132.9,20.1 132.9,22.3 133,24.6 L133,25.4 C133,27.5 133,29.7 133.1,32 L133.1,32.7 L133.1,39.3 L133.1,40.1 L133.1,46.7 L133.1,47.5 L133.1,54.1 L133.1,54.9 L133.1,61.5 L133.1,62.3 L133.1,69.7 L133.1,70.5 L133.1,77.1 L133.1,77.9 L133.1,84.5 L133.1,85.3 L133.1,91.9 L133.1,92.7 C133.1,92.9 133.1,93.7 133.1,94.5 L133.1,94.5 Z" id="Shape" fill="#BDD3DE"></path>
                            <path d="M140.4,92.1 L140.4,91.3 L140.4,84.7 L140.4,83.9 L140.4,77.3 L140.4,76.5 L140.4,69.9 L140.4,69.1 L140.4,61.7 L140.4,60.9 L140.4,54.3 L140.4,53.5 L140.4,46.9 L140.4,46.1 L140.4,39.5 L140.4,38.7 L140.4,32.1 L140.4,31.4 L140.4,24.8 L140.4,24 C140.4,21.7 140.4,19.5 140.3,17.4 L140.3,16.6 C140.3,14.2 140.3,12 140.2,10 L140.2,9.2 C140.1,6.1 140.1,3.7 140,2.1 L140.7,2.1 C140.8,3.8 140.9,6.2 140.9,9.2 L140.9,10 C140.9,12 141,14.2 141,16.6 L141,17.4 C141,19.5 141,21.6 141.1,24 L141.1,24.8 L141.1,31.4 L141.1,32.1 L141.1,38.7 L141.1,39.5 L141.1,46.1 L141.1,46.9 L141.1,53.5 L141.1,54.3 L141.1,60.9 L141.1,61.7 L141.1,69.1 L141.1,69.9 L141.1,76.5 L141.1,77.3 L141.1,83.9 L141.1,84.7 L141.1,91.3 L141.1,92.1 L141.1,94.6 L140.3,94.6 C140.4,93.7 140.4,92.9 140.4,92.1 L140.4,92.1 Z" id="Shape" fill="#BDD3DE"></path>
                            <path d="M149.3,94.5 L148.7,94.5 L148.6,94.5 L148.6,92 L148.6,91.2 L148.6,84.6 L148.6,83.8 L148.6,77.2 L148.6,76.4 L148.6,69.8 L148.6,69 L148.6,61.6 L148.6,60.8 L148.6,54.2 L148.6,53.4 L148.6,46.8 L148.6,46 L148.6,39.4 L148.6,38.6 L148.6,32 L148.6,32 L148.6,25.4 L148.6,24.6 C148.6,22.3 148.6,20.1 148.5,18 L148.5,17.2 C148.5,14.8 148.4,12.6 148.4,10.6 L148.4,9.8 C148.3,6.7 148.3,4.3 148.2,2.7 L148.9,2.7 C149,4.4 149.1,6.8 149.1,9.8 L149.1,10.6 C149.1,12.6 149.2,14.8 149.2,17.2 L149.2,18 C149.2,20.1 149.2,22.2 149.3,24.6 L149.3,25.4 L149.3,32 L149.3,32.7 L149.3,39.3 L149.3,40.1 L149.3,46.7 L149.3,47.5 L149.3,54.1 L149.3,54.9 L149.3,61.5 L149.3,62.3 L149.3,69.7 L149.3,70.5 L149.3,77.1 L149.3,77.9 L149.3,84.5 L149.3,85.3 L149.3,91.9 L149.3,92.7 L149.3,94.5 L149.3,94.5 Z" id="Shape" fill="#BDD3DE"></path>
                            <path d="M157.4,90.7 C157.2,90.9 157,91.1 156.9,91.3 L156.7,91.5 L156.7,91.3 L156.7,84.7 L156.7,84 L156.7,77.4 L156.7,76.6 L156.7,70 L156.7,69.2 L156.7,61.8 L156.7,61 L156.7,54.4 L156.7,53.6 L156.7,47 L156.7,46.2 L156.7,39.6 L156.7,38.8 L156.7,32.2 L156.7,31.5 L156.7,24.9 L156.7,24.1 C156.7,21.8 156.7,19.6 156.6,17.5 L156.6,16.7 C156.6,14.3 156.6,12.1 156.5,10.1 L156.5,9.3 C156.5,7.6 156.4,6.1 156.4,4.8 C156.6,5 156.9,5.2 157.1,5.4 C157.1,6.6 157.1,7.9 157.2,9.3 L157.2,10.1 C157.2,12.1 157.3,14.3 157.3,16.7 L157.3,17.5 C157.3,19.6 157.3,21.8 157.4,24.1 L157.4,24.9 C157.4,27 157.4,29.2 157.5,31.5 L157.5,32.2 L157.5,38.8 L157.5,39.6 L157.5,46.2 L157.5,47 L157.5,53.6 L157.5,54.4 L157.5,61 L157.5,61.8 L157.5,69.2 L157.5,70 L157.5,76.6 L157.5,77.4 L157.5,84 L157.5,84.8 C157.4,86.8 157.4,88.8 157.4,90.7 L157.4,90.7 Z" id="Shape" fill="#BDD3DE"></path>
                            <path d="M159.9,10.8 L6.5,10.8 C6.6,10.5 6.7,10.3 6.8,10 L159.6,10 C159.7,10.3 159.8,10.6 159.9,10.8 L159.9,10.8 Z" id="Shape" fill="#BDD3DE"></path>
                            <polygon id="Rectangle-path" fill="#BDD3DE" points="6 17 6 17.8 160.9 17.8 160.9 17"></polygon>
                            <polygon id="Rectangle-path" fill="#BDD3DE" points="6 25 6 25.8 160.9 25.8 160.9 25"></polygon>
                            <polygon id="Rectangle-path" fill="#BDD3DE" points="6 32 6 32.7 160.9 32.7 160.9 32"></polygon>
                            <polygon id="Rectangle-path" fill="#BDD3DE" points="6 39 6 39.8 160.9 39.8 160.9 39"></polygon>
                            <polygon id="Rectangle-path" fill="#BDD3DE" points="6 47 6 47.8 160.9 47.8 160.9 47"></polygon>
                            <polygon id="Rectangle-path" fill="#BDD3DE" points="6 54 6 54.8 160.9 54.8 160.9 54"></polygon>
                            <polygon id="Rectangle-path" fill="#BDD3DE" points="6 61 6 61.8 160.9 61.8 160.9 61"></polygon>
                            <polygon id="Rectangle-path" fill="#BDD3DE" points="6 69 6 69.8 160.9 69.8 160.9 69"></polygon>
                            <polygon id="Rectangle-path" fill="#BDD3DE" points="6 77 6 77.8 160.9 77.8 160.9 77"></polygon>
                            <path d="M160.6,84 L160.6,84.4 C160.6,84.5 160.6,84.6 160.5,84.8 L6,84.8 C6,84.6 5.9,84.3 5.9,84 L160.6,84 L160.6,84 Z" id="Shape" fill="#BDD3DE"></path>
                            <path d="M156.8,91.3 C156.7,91.4 156.7,91.4 156.6,91.5 C156.4,91.7 156.1,91.9 155.9,92.1 L10.5,92.1 C10.3,91.9 10.1,91.7 9.8,91.6 C9.7,91.5 9.6,91.5 9.6,91.4 L156.8,91.4 L156.8,91.3 Z" id="Shape" fill="#BDD3DE"></path>
                            <path d="M160.7,14.9 L160.7,82.5 C160.7,83 160.7,83.5 160.6,84 C160.6,84.3 160.5,84.5 160.5,84.8 C160.1,87.1 159,89.2 157.4,90.8 C157.2,91 157,91.2 156.9,91.4 C156.8,91.5 156.8,91.5 156.7,91.6 C156.5,91.8 156.2,92 156,92.2 C154.1,93.6 151.8,94.5 149.4,94.7 L148.8,94.7 L17.8,94.7 C15.1,94.7 12.6,93.8 10.6,92.3 L10.5,92.2 C10.3,92 10.1,91.8 9.8,91.7 C9.7,91.6 9.6,91.6 9.6,91.5 C7.2,89.3 5.8,86.2 5.8,82.7 L5.8,15.1 C5.8,13.6 6.1,12.3 6.5,11 C6.6,10.7 6.7,10.5 6.8,10.2 C7.4,8.8 8.3,7.6 9.4,6.5 C9.6,6.3 9.9,6.1 10.1,5.9 C12.1,4.2 14.6,3.2 17.4,3.1 L17.8,3.1 L148.7,3.1 C151.5,3.1 154.1,4.1 156.2,5.7 C156.4,5.9 156.7,6.1 156.9,6.3 C158.1,7.4 159,8.7 159.6,10.2 C159.7,10.4 159.8,10.7 159.9,11 C160.4,12.1 160.7,13.5 160.7,14.9 L160.7,14.9 Z" id="Shape"></path>
                        </g>
                        <path d="M113.9,24 C113.1,23.3 112.2,22.9 111.4,23 L117.1,12 C117.2,11.8 117.1,11.6 117,11.5 L104.1,-0.2 C104,-0.3 103.9,-0.3 103.8,-0.3 C103.7,-0.3 103.6,-0.2 103.5,-0.1 L97.3,11.9 L97.3,11.9 C96.6,12.8 96.9,14.3 98.2,15.4 C99.5,16.5 101.1,16.7 101.9,15.8 C102.7,14.9 102.4,13.3 101.1,12.2 C100.3,11.5 99.4,11.1 98.6,11.2 L104,0.7 L116.3,11.8 L110.3,23.5 L110.3,23.5 C109.6,24.4 109.9,25.9 111.2,27 C112.5,28.1 114.1,28.3 114.9,27.4 C115.5,26.7 115.1,25.1 113.9,24 L113.9,24 Z M100.4,12.8 C101.3,13.6 101.6,14.7 101.1,15.3 C100.6,15.8 99.5,15.6 98.6,14.8 C97.7,14 97.4,12.9 97.9,12.3 C98.4,11.8 99.5,12 100.4,12.8 L100.4,12.8 Z M111.5,26.5 C110.6,25.7 110.3,24.6 110.8,24 C111.3,23.5 112.4,23.7 113.3,24.5 C114.2,25.3 114.5,26.4 114,27 C113.6,27.6 112.4,27.3 111.5,26.5 L111.5,26.5 Z" id="Shape" fill="#FC860A"></path>
                        <path d="M108.5,129.2 C109.2,130.7 111.3,131.2 113.4,130.3 C115.5,129.4 116.6,127.6 116,126.1 L116,126.1 L113.3,108.3 L134,99.3 L136.4,115.3 C135.4,114.9 134.1,114.9 132.8,115.5 C130.7,116.4 129.5,118.3 130.2,119.8 C130.9,121.3 133,121.8 135.1,120.9 C137.2,120 138.3,118.2 137.7,116.7 L137.7,116.7 L135,98.5 C135,98.3 134.9,98.2 134.7,98.1 C134.5,98 134.4,98 134.2,98.1 L112.5,107.5 C112.3,107.6 112.1,107.8 112.2,108.1 L114.7,124.8 C113.7,124.4 112.4,124.4 111.1,125 C109,125.8 107.8,127.7 108.5,129.2 L108.5,129.2 Z M136.7,116.9 C137.1,117.8 136.2,119.1 134.7,119.8 C133.2,120.4 131.6,120.2 131.2,119.3 C130.8,118.4 131.7,117.1 133.2,116.4 C134.7,115.8 136.3,116 136.7,116.9 L136.7,116.9 Z M109.5,128.7 C109.1,127.8 110,126.5 111.5,125.8 C113,125.2 114.6,125.4 115,126.3 C115.4,127.2 114.5,128.5 113,129.2 C111.5,129.9 109.9,129.6 109.5,128.7 L109.5,128.7 Z" id="Shape" fill="#FC860A"></path>
                        <path d="M58.9,86.7 C57.6,86.1 56.2,86.1 55.3,86.5 L57.8,69.8 C57.8,69.5 57.7,69.3 57.5,69.2 L35.8,59.8 C35.6,59.7 35.5,59.7 35.3,59.8 C35.1,59.9 35,60 35,60.2 L32.3,78.4 L32.3,78.4 C31.8,79.9 32.9,81.7 34.9,82.6 C37,83.5 39.2,83.1 39.8,81.5 C40.5,80 39.3,78.1 37.2,77.2 C35.9,76.6 34.5,76.6 33.6,77 L36,61 L56.7,70 L54,87.8 L54,87.8 C53.5,89.3 54.6,91.1 56.6,92 C58.7,92.9 60.9,92.5 61.5,90.9 C62.2,89.5 61,87.6 58.9,86.7 L58.9,86.7 Z M36.7,78.3 C38.2,78.9 39.1,80.3 38.7,81.2 C38.3,82.1 36.7,82.3 35.2,81.7 C33.7,81.1 32.8,79.7 33.2,78.8 C33.6,77.8 35.2,77.6 36.7,78.3 L36.7,78.3 Z M57,91 C55.5,90.4 54.6,89 55,88.1 C55.4,87.2 57,87 58.5,87.6 C60,88.2 60.9,89.6 60.5,90.5 C60.1,91.5 58.5,91.7 57,91 L57,91 Z" id="Shape" fill="#FC860A"></path>
                        <path d="M200.2,93.3 C199.4,92.5 198.3,92.1 197.5,92.2 L203.7,80.2 C203.8,80 203.8,79.8 203.6,79.7 L189.6,66.9 C189.5,66.8 189.4,66.8 189.2,66.8 C189.1,66.8 188.9,66.9 188.9,67 L182.1,80.1 L182.1,80.1 C181.3,81.1 181.7,82.8 183,84 C184.4,85.2 186.1,85.5 187,84.5 C187.9,83.5 187.5,81.8 186.2,80.5 C185.4,79.7 184.3,79.3 183.5,79.4 L189.5,68 L202.8,80.2 L196.2,93 L196.2,93 C195.4,94 195.8,95.7 197.1,96.9 C198.5,98.1 200.2,98.4 201.1,97.4 C201.9,96.3 201.6,94.6 200.2,93.3 L200.2,93.3 Z M185.6,81.2 C186.6,82.1 186.9,83.3 186.4,83.9 C185.9,84.5 184.6,84.2 183.7,83.3 C182.7,82.4 182.4,81.2 182.9,80.6 C183.4,80 184.6,80.3 185.6,81.2 L185.6,81.2 Z M197.6,96.1 C196.6,95.2 196.3,94 196.8,93.4 C197.3,92.8 198.6,93.1 199.5,94 C200.4,94.9 200.8,96.1 200.3,96.7 C199.9,97.3 198.6,97 197.6,96.1 L197.6,96.1 Z" id="Shape" fill="#FC860A"></path>
                        <path d="M118.9,164.5 C118.7,164.4 118.5,164.3 118.4,164.4 L103.6,168.7 C103.3,168.8 103.1,169 103.1,169.3 L103.4,179.8 L103.3,179.8 C102.7,179.6 102,179.6 101.2,179.8 C99.6,180.3 98.7,181.5 99,182.7 C99.2,183.3 99.7,183.8 100.4,184 C101,184.2 101.7,184.2 102.5,184 C103,183.9 103.4,183.6 103.8,183.4 C104,183.3 104.1,183.1 104.3,182.9 C104.7,182.4 104.9,181.8 104.8,181.2 L104.8,181.2 L104.6,172 L118.1,168 L118.3,175.5 L118.2,175.5 C117.6,175.3 116.9,175.3 116.1,175.5 C115.4,175.7 114.8,176.1 114.4,176.6 C113.9,177.2 113.8,177.8 113.9,178.4 C114.1,179 114.6,179.5 115.3,179.7 C115.9,179.9 116.6,179.9 117.4,179.7 C117.9,179.6 118.3,179.3 118.7,179.1 C119.4,178.5 119.8,177.8 119.7,177 L119.7,177 L119.4,165 C119.2,164.8 119.1,164.6 118.9,164.5 L118.9,164.5 Z M103.3,182.1 C103,182.4 102.6,182.7 102.2,182.8 C101.7,182.9 101.2,182.9 100.9,182.8 C100.8,182.8 100.4,182.6 100.4,182.4 L100.4,182.4 C100.3,182.1 100.5,181.8 100.9,181.5 C101.1,181.3 101.4,181.2 101.7,181.1 C102.2,181 102.7,181 103,181.1 C103.1,181.1 103.5,181.3 103.5,181.5 C103.6,181.7 103.4,182 103.3,182.1 L103.3,182.1 Z M104.5,170.7 L104.5,169.8 L118,165.8 L118,166.7 L104.5,170.7 L104.5,170.7 Z M116.9,178.5 C116.4,178.6 115.9,178.6 115.6,178.5 C115.5,178.5 115.1,178.3 115.1,178.1 L115.1,178.1 C115,177.8 115.2,177.6 115.3,177.4 C115.4,177.3 115.5,177.2 115.6,177.1 C115.8,176.9 116.1,176.8 116.4,176.7 C116.9,176.6 117.4,176.6 117.7,176.7 C117.8,176.7 118.2,176.9 118.2,177.1 C118.4,177.5 117.8,178.2 116.9,178.5 L116.9,178.5 Z" id="Shape" fill="#FC860A"></path>
                        <path d="M184.2,9.7 C184.1,9.5 184,9.4 183.8,9.3 L169.4,3.8 C169.1,3.7 168.8,3.8 168.7,4 L162.5,12.5 C162.5,12.5 162.5,12.4 162.4,12.4 C162,11.9 161.4,11.4 160.8,11.2 C159.3,10.6 157.7,11 157.3,12.2 C157.1,12.8 157.2,13.5 157.6,14.1 C158,14.6 158.6,15.1 159.2,15.3 C159.7,15.5 160.1,15.6 160.6,15.6 C160.8,15.6 161.1,15.6 161.3,15.5 C161.9,15.4 162.4,15 162.7,14.5 L162.7,14.5 L168.1,7 L181.2,12.1 L176.8,18.2 C176.8,18.2 176.8,18.1 176.7,18.1 C176.3,17.6 175.7,17.1 175.1,16.9 C174.4,16.6 173.7,16.6 173.1,16.7 C172.4,16.9 171.9,17.3 171.6,17.9 C171.4,18.5 171.5,19.2 171.9,19.8 C172.3,20.3 172.9,20.8 173.5,21 C174,21.2 174.4,21.3 174.9,21.3 C175.8,21.3 176.6,20.9 176.9,20.2 L176.9,20.2 L183.9,10.5 C184.2,10.1 184.2,9.9 184.2,9.7 L184.2,9.7 Z M161,14.1 C160.6,14.2 160.1,14.1 159.7,14 C159.2,13.8 158.9,13.5 158.6,13.2 C158.5,13.1 158.3,12.8 158.4,12.5 L158.4,12.5 C158.5,12.2 158.9,12.1 159.4,12.1 C159.7,12.1 160,12.2 160.3,12.3 C160.8,12.5 161.1,12.8 161.4,13.1 C161.5,13.2 161.7,13.5 161.6,13.8 C161.5,14 161.1,14.1 161,14.1 L161,14.1 Z M168.9,5.8 L169.4,5 L182.5,10.1 L182,10.9 L168.9,5.8 L168.9,5.8 Z M174,19.5 C173.5,19.3 173.2,19 172.9,18.7 C172.8,18.6 172.6,18.3 172.7,18 L172.7,18 C172.8,17.7 173.1,17.6 173.3,17.6 L173.7,17.6 C174,17.6 174.3,17.7 174.6,17.8 C175.1,18 175.4,18.3 175.7,18.6 C175.8,18.7 176,19 175.9,19.3 C175.8,19.7 174.9,19.9 174,19.5 L174,19.5 Z" id="Shape" fill="#FC860A"></path>
                        <path d="M69.9,130.3 C68.8,131.2 68.1,132.3 68,133.4 L54.6,122.7 C54.4,122.5 54.1,122.6 53.9,122.8 C53.7,123 53.8,123.3 54,123.5 L68.6,135.2 L68.6,135.2 C69.6,136.4 71.7,136.3 73.4,135 C75.2,133.7 75.8,131.6 74.9,130.3 C73.8,128.9 71.6,129 69.9,130.3 L69.9,130.3 Z M72.7,134.1 C71.4,135.1 69.8,135.2 69.2,134.4 C68.6,133.6 69.2,132.1 70.5,131.1 C71.8,130.1 73.4,130 74,130.8 C74.5,131.6 73.9,133.1 72.7,134.1 L72.7,134.1 Z" id="Shape" fill="#FC860A"></path>
                        <path d="M183.8,144.5 C182.7,143.6 181.4,143.3 180.3,143.5 L186.9,127.6 C187,127.3 186.9,127 186.6,126.9 C186.3,126.8 186,126.9 185.9,127.2 L178.7,144.4 L178.7,144.4 C177.9,145.7 178.5,147.6 180.2,149 C182,150.3 184.1,150.4 185.1,149.1 C186.3,147.9 185.6,145.9 183.8,144.5 L183.8,144.5 Z M181,148.2 C179.7,147.2 179.1,145.7 179.7,144.9 C180.3,144.1 181.9,144.3 183.2,145.2 C184.5,146.1 185.1,147.7 184.5,148.5 C183.9,149.4 182.3,149.2 181,148.2 L181,148.2 Z" id="Shape" fill="#FC860A"></path>
                        <path d="M154.9,61.1 C153.4,61.2 152.2,61.7 151.5,62.6 L146.4,45.5 C146.3,45.2 146,45.1 145.8,45.2 C145.5,45.3 145.4,45.6 145.5,45.9 L151.1,64.4 L151.1,64.4 C151.3,66 153.1,67.1 155.3,67 C157.6,66.9 159.4,65.5 159.3,63.9 C159.1,62.3 157.2,61.1 154.9,61.1 L154.9,61.1 Z M155.1,66 C153.4,66.1 152,65.3 151.9,64.2 C151.9,63.2 153.2,62.3 154.9,62.2 C156.6,62.1 158,62.9 158.1,64 C158.1,65 156.8,65.9 155.1,66 L155.1,66 Z" id="Shape" fill="#FC860A"></path>
                        <path d="M165.2,178 L165.2,178 L152.9,168.3 L158.7,164.2 C159,164 159.1,163.5 158.9,163.2 C158.7,162.9 158.2,162.8 157.9,163 L151.7,167.4 L151,166.8 L156.3,163.1 C156.6,162.9 156.7,162.4 156.5,162.1 C156.3,161.8 155.8,161.7 155.5,161.9 L149.4,166.1 C149.2,166.2 149.1,166.4 149.1,166.7 C149.1,166.9 149.2,167.1 149.4,167.3 L162.9,178 C161.9,178.4 161.1,179.3 160.5,180.6 C160.1,181.6 159.9,182.7 160.1,183.6 C160.3,184.6 160.8,185.4 161.6,185.8 C162,186 162.4,186 162.9,186 C163.4,185.9 163.8,185.8 164.3,185.5 C165.1,185 165.8,184.2 166.2,183.2 C167,181 166.6,178.8 165.2,178 L165.2,178 Z M164.8,182.5 C164.5,183.2 164,183.9 163.4,184.2 C163.1,184.4 162.6,184.6 162.1,184.4 C161.6,184.2 161.5,183.6 161.4,183.3 C161.3,182.7 161.4,181.9 161.7,181.1 C162.2,180 163.1,179.2 163.8,179.1 C164,179.1 164.2,179.1 164.3,179.2 C165.2,179.6 165.4,181.1 164.8,182.5 L164.8,182.5 Z" id="Shape" fill="#FC860A"></path>
                        <path d="M243.1,122.3 C244.2,122.2 245.2,121.9 245.9,121.3 C246.3,121 246.6,120.6 246.8,120.2 C247,119.8 247.1,119.4 247.1,118.9 C247,118 246.5,117.2 245.6,116.7 C244.8,116.2 243.7,116 242.6,116.1 C241.2,116.2 240.1,116.7 239.4,117.5 L234,101.1 C233.9,100.9 233.8,100.7 233.5,100.6 C233.3,100.5 233,100.6 232.9,100.7 L226.8,105 C226.5,105.2 226.4,105.7 226.6,106 C226.8,106.3 227.3,106.4 227.6,106.2 L232.9,102.4 L233.2,103.3 L227,107.6 C226.7,107.8 226.6,108.3 226.8,108.6 C227,108.9 227.5,109 227.8,108.8 L233.7,104.7 L238.6,119.6 L238.6,119.6 C238.9,121.3 240.8,122.4 243.1,122.3 L243.1,122.3 Z M240.1,119.4 C240.1,119.2 240.1,119 240.2,118.9 C240.5,118.2 241.6,117.7 242.8,117.6 C243.6,117.5 244.4,117.7 245,118 C245.3,118.2 245.8,118.5 245.8,119 C245.8,119.5 245.4,119.9 245.1,120.1 C244.6,120.5 243.8,120.8 243,120.8 C241.5,120.9 240.1,120.3 240.1,119.4 L240.1,119.4 Z" id="Shape" fill="#FC860A"></path>
                        <path d="M97.4,79.5 L97.4,79.5 L91.4,65 L98.5,64.2 C98.9,64.2 99.2,63.8 99.1,63.4 C99.1,63 98.7,62.7 98.3,62.8 L90.8,63.6 L90.4,62.8 L96.9,62.2 C97.3,62.2 97.6,61.8 97.5,61.4 C97.5,61 97.1,60.7 96.7,60.8 L89.3,61.5 C89.1,61.5 88.9,61.6 88.8,61.8 C88.7,62 88.7,62.2 88.8,62.4 L95.4,78.3 C94.4,78.2 93.1,78.6 92.1,79.4 C91.2,80.1 90.6,80.9 90.3,81.8 C90,82.8 90.1,83.7 90.6,84.4 C90.9,84.7 91.2,85 91.6,85.2 C92,85.4 92.5,85.4 93,85.4 C93.9,85.3 94.9,84.9 95.8,84.3 C97.7,83 98.3,80.9 97.4,79.5 L97.4,79.5 Z M95,83.3 C94.4,83.8 93.6,84.1 93,84.1 C92.7,84.1 92.1,84.1 91.8,83.7 C91.5,83.3 91.6,82.7 91.7,82.4 C91.9,81.8 92.4,81.1 93,80.7 C94,80 95.1,79.7 95.8,80 C96,80.1 96.1,80.2 96.2,80.3 C96.8,80.9 96.2,82.4 95,83.3 L95,83.3 Z" id="Shape" fill="#FC860A"></path>
                        <path d="M46.4,177 L46.4,177 L40.4,162.5 L47.5,161.7 C47.9,161.7 48.2,161.3 48.1,160.9 C48.1,160.5 47.7,160.2 47.3,160.3 L39.8,161.1 L39.4,160.3 L45.9,159.7 C46.3,159.7 46.6,159.3 46.5,158.9 C46.5,158.5 46.1,158.2 45.7,158.3 L38.3,159 C38.1,159 37.9,159.1 37.8,159.3 C37.7,159.5 37.7,159.7 37.8,159.9 L44.4,175.8 C43.4,175.7 42.1,176.1 41.1,176.9 C40.2,177.6 39.6,178.4 39.3,179.3 C39,180.3 39.1,181.2 39.6,181.9 C39.9,182.2 40.2,182.5 40.6,182.7 C41,182.9 41.5,182.9 42,182.9 C42.9,182.8 43.9,182.4 44.8,181.8 C46.6,180.5 47.2,178.4 46.4,177 L46.4,177 Z M43.9,180.8 C43.3,181.3 42.5,181.6 41.9,181.6 C41.6,181.6 41,181.6 40.7,181.2 C40.4,180.8 40.5,180.2 40.6,179.9 C40.8,179.3 41.3,178.6 41.9,178.2 C42.9,177.5 44,177.2 44.7,177.5 C44.9,177.6 45,177.7 45.1,177.8 C45.7,178.4 45.1,179.8 43.9,180.8 L43.9,180.8 Z" id="Shape" fill="#FC860A"></path>
                        <path d="M223.2,30 L223.2,30 L217.2,15.5 L224.3,14.7 C224.7,14.7 225,14.3 224.9,13.9 C224.9,13.5 224.5,13.2 224.1,13.3 L216.6,14.1 L216.2,13.3 L222.7,12.7 C223.1,12.7 223.4,12.3 223.3,11.9 C223.3,11.5 222.9,11.2 222.5,11.3 L215.1,12 C214.9,12 214.7,12.1 214.6,12.3 C214.5,12.5 214.5,12.7 214.6,12.9 L221.2,28.8 C220.2,28.7 218.9,29.1 217.9,29.9 C217,30.6 216.4,31.4 216.1,32.3 C215.8,33.3 215.9,34.2 216.4,34.9 C216.7,35.2 217,35.5 217.4,35.7 C217.8,35.9 218.3,35.9 218.8,35.9 C219.7,35.8 220.7,35.4 221.6,34.8 C223.4,33.5 224,31.4 223.2,30 L223.2,30 Z M220.7,33.7 C220.1,34.2 219.3,34.5 218.7,34.5 C218.4,34.5 217.8,34.5 217.5,34.1 C217.2,33.7 217.3,33.1 217.4,32.8 C217.6,32.2 218.1,31.5 218.7,31.1 C219.7,30.4 220.8,30.1 221.5,30.4 C221.7,30.5 221.8,30.6 221.9,30.7 C222.5,31.4 221.9,32.8 220.7,33.7 L220.7,33.7 Z" id="Shape" fill="#FC860A"></path>
                    </g>
                    <g id="women" transform="translate(410.000000, 165.000000)">
                        <g id="legs_1_" transform="translate(0.000000, 435.000000)">
                            <path d="M54.4,53.7 C54.3,53.8 54.2,53.9 54.2,54 C55,60.2 55.1,157 72.1,245.8 C68.2,246.4 64.3,247.1 60.4,247.7 L59.9,244.2 L56.3,248.4 C42.4,250.7 28.5,253.1 14.5,255.5 C9.9,256.3 5.3,257.1 0.7,257.9 C0.4,256.8 0.2,255 0.7,253 C2.3,247 9.5,244.5 23.4,239.2 C27.5,237.6 34.8,234.9 44.5,231.1 C44.1,229.4 43.8,227.7 43.4,226 C22.3,125.4 2.6,44.4 3.9,38 L3.9,38 L3.9,37.8 C4,37.5 4.1,37.2 4.2,36.8 C4.6,35.3 5.1,33.9 5.6,32.5 C8,29.2 10.5,25.9 12.9,22.4 C18,15.3 23.2,7.9 28.5,0.2 C32.2,0.4 36,0.6 39.8,0.8 C56.6,1.7 73.3,2.7 90.1,3.6 C87.3,7.6 84.4,11.5 81.6,15.5 C76.6,22.5 71.6,29.4 66.6,36.4 C62.6,42.3 58.5,48 54.4,53.7 L54.4,53.7 Z" id="Shape" fill="url(#linearGradient-2)"></path>
                            <path d="M81.7,15.7 C76.7,22.7 71.7,29.6 66.7,36.6 C62.6,42.3 58.5,48 54.4,53.7 L4,38.1 L4,37.9 C4.1,37.6 4.2,37.3 4.3,36.9 C4.7,35.4 5.2,34 5.7,32.6 C13.2,22.4 20.9,11.7 28.6,0.4 C32.4,0.6 36.1,0.8 39.9,1 L81.7,15.7 L81.7,15.7 Z" id="Shape" fill="#C5856E"></path>
                            <path d="M263.5,166.5 L259.5,165.3 L262.2,171.9 C258.3,188.1 254.4,204.3 250.5,220.6 C249.2,220.5 247.4,220.2 245.6,219 C240.8,215.8 240.4,208.6 240.7,191.4 C240.8,184.8 241.1,176.9 241.5,167.8 L241.5,167.8 C228.1,160.1 214.6,152.4 201,144.7 C194.5,141 188,137.3 181.5,133.7 C181.5,133.7 154.3,118.5 116.6,93.1 C104.5,84.9 92.1,76.2 89.8,62.4 C88.6,54.9 90.4,46.3 90.7,45.2 C91.5,42 92.6,38.9 93.8,36 C95.5,32.1 97.5,28.6 99.6,25.4 C104,18.7 108.7,13.7 111.1,11.2 C112,11.2 112.9,11.3 113.8,11.3 C130.1,12 146.4,12.8 162.7,13.5 L162.1,14.8 C162.1,14.8 162.1,14.9 162,14.9 C161.6,16 161.1,17.1 160.6,18.1 C159.8,20 158.9,22 158.1,24 C152.7,36.3 141.3,59.5 141.3,59.5 C182.5,92.8 223.7,126.1 264.9,159.5 C264.6,162 264,164.2 263.5,166.5 L263.5,166.5 Z" id="Shape" fill="url(#linearGradient-3)"></path>
                            <path d="M160.9,18.3 C160.1,20.2 159.2,22.2 158.4,24.2 C153.7,35 148.8,45.3 143.7,55.2 C126.1,51.9 108.4,48.6 90.8,45.3 C92.6,37.8 96.1,31.1 99.7,25.5 C104.1,18.8 108.8,13.8 111.2,11.4 C112.1,11.4 113,11.5 113.9,11.5 L160.9,18.3 L160.9,18.3 Z" id="Shape" fill="#C5856E"></path>
                            <path d="M45.3,231.2 L43.4,226.1 C22.3,125.5 2.6,44.5 3.9,38.1 C6.1,38.9 8.3,40.3 9.6,41.1 C23.6,49.9 24.1,69.3 28.3,106.9 C29.9,121.8 32.3,136.7 34,151.6 C36.2,170.7 39.7,197.9 45.3,231.2 L45.3,231.2 Z" id="Shape" fill="url(#linearGradient-4)" opacity="0.43"></path>
                            <path d="M241.6,167.8 C228.2,160.1 214.7,152.4 201.1,144.7 C194.6,141 188.1,137.3 181.6,133.7 C181.6,133.7 154.4,118.5 116.7,93.1 C104.6,84.9 92.2,76.2 89.9,62.4 C88.7,54.9 90.5,46.3 90.8,45.2 C91.6,42 92.7,38.9 93.9,36 L99.6,37 C99.6,37 91.5,64.6 122.3,84.9 C152.9,105.1 240,166.7 241.6,167.8 L241.6,167.8 Z" id="Shape" fill="url(#linearGradient-5)" opacity="0.25"></path>
                        </g>
                        <path d="M101.2,154.6 C101.2,154.6 91,127.3 84.2,124.6 C77.4,121.9 54.2,112.3 54.2,115.1 C54.2,117.9 82.1,129.4 82.8,130.8 C83.5,132.2 85.5,141 81.4,141 C77.3,141 66.4,136.2 65.7,138.3 C65,140.4 93.6,160.1 93.6,160.1 L101.2,154.6 L101.2,154.6 Z" id="Shape" fill="#C5856E"></path>
                        <g id="neck_1_" transform="translate(186.000000, 69.000000)">
                            <path d="M31.6,57 C25.1,65.7 9.8,68.7 3.5,62.8 C0.3,59.8 0.2,55.1 0.2,50.1 L0.2,48.8 C0.2,43.7 0.3,38.1 0.4,32 C0.6,24.4 0.8,16.1 1.3,7 C12.4,4.7 23.4,2.3 34.5,0 C34.7,10 34.9,23.1 34.9,38.7 C34.9,47.9 34.9,52.6 31.6,57 L31.6,57 Z" id="Shape" fill="#C5856E"></path>
                            <path d="M22.3,26.1 C22.3,26.1 10.6,47.9 0.2,48.8 C0.2,43.7 0.3,38.1 0.4,32 C5.1,31.5 13.2,30.4 22.3,26.1 L22.3,26.1 Z" id="Shape" fill="#153E5C" opacity="0.25"></path>
                        </g>
                        <g id="dress" transform="translate(2.000000, 112.000000)">
                            <path d="M223.4,13.9 C237.7,25.9 259.2,46.4 277.7,77.3 C291.8,100.9 302.8,119.4 297.1,133.9 C288.3,156 242.6,163.6 185.3,153.7 C183.5,144.7 181.6,135.6 179.8,126.6 C201.4,123.8 219.1,120.2 232.4,117.2 C243.5,114.7 246.5,113.6 247.8,110.7 C252.1,101.4 232.4,87.2 206.6,50.2 C202.4,44.2 199.2,39.1 197.2,36.1 L223.4,13.9 L223.4,13.9 Z" id="Shape" fill="url(#linearGradient-6)"></path>
                            <path d="M249.9,50.1 L249.9,51.3 C249.9,51.8 249.9,52.3 249.8,52.8 C249.8,53.4 249.7,53.9 249.7,54.5 L249.7,55 C249.7,55.4 249.7,55.9 249.6,56.3 C249.5,58 249.4,59.7 249.2,61.5 L249.2,62 L249.2,62.1 C249.2,62.3 249.2,62.6 249.1,62.9 C248.8,65.9 248.4,69 248,72.2 C247.9,72.8 247.8,73.4 247.8,74 C247.4,76.7 247,79.4 246.5,82.2 C246.3,83.2 246.1,84.3 246,85.3 C246,85.5 245.9,85.7 245.9,85.9 C245.8,86.5 245.7,87.2 245.5,87.9 C244.6,92.5 243.7,97.4 242.5,102.5 C242.4,103.1 242.2,103.7 242.1,104.3 C241.9,105.2 241.7,106.1 241.5,106.9 C241.3,107.9 241,108.9 240.8,109.9 C240.7,110.5 240.5,111.2 240.3,111.8 C240,113.1 239.7,114.4 239.4,115.7 C239.3,116.3 239.1,116.9 239,117.5 C238,121.5 236.9,125.6 235.8,129.9 C235.6,130.6 235.4,131.3 235.2,132 C234.9,133.3 234.5,134.6 234.1,136 C233.4,138.5 232.7,141 232,143.5 C231.7,144.6 231.4,145.6 231.1,146.7 C228.6,155.2 225.9,164.2 222.8,173.7 L222.8,173.7 C222.1,175.7 221.5,177.8 220.8,179.8 C219.4,184 218,188.2 216.5,192.6 C216.1,193.6 215.8,194.7 215.4,195.8 C215.2,196.5 214.9,197.1 214.7,197.8 C214,199.9 213.2,202 212.5,204.2 C210.1,211 207.6,218 205,225.2 C204.3,227.2 203.6,229.1 202.8,231.1 C198.7,242.3 194.3,254 189.5,266.2 L189.5,266.2 C188.8,267.9 188.2,269.6 187.5,271.3 L187.5,271.3 C185.2,277.3 182.7,283.4 180.2,289.6 C179.7,290.9 179.2,292.2 178.6,293.5 C174.9,302.7 171.1,312.1 167,321.8 C166.4,323.2 165.8,324.6 165.3,326 C162.6,332.4 159.9,339 157,345.7 C156.8,346.3 156.5,346.9 156.2,347.5 L155.6,348.8 L155.6,348.9 C155.4,349.4 155.2,349.9 155,350.4 L155,350.4 C153.9,352.9 152.8,355.5 151.7,358 C149.6,362.1 147.6,366.3 145.5,370.4 C137.8,370.9 129.7,371.3 121.3,371.4 L119.3,371.4 L113.3,371.4 C110.9,371.4 108.4,371.4 105.9,371.3 L105.8,371.3 C103.9,371.3 102,371.2 100.2,371.2 C99.6,371.2 98.9,371.2 98.2,371.1 C96.5,371.1 94.7,371 93,370.9 C92.2,370.9 91.3,370.8 90.5,370.8 C89.7,370.8 88.8,370.7 88,370.7 C87.3,370.7 86.7,370.6 86,370.6 C85.6,370.6 85.2,370.6 84.8,370.5 C81.9,370.3 79,370.1 76.2,369.9 C72,369.6 67.8,369.2 63.7,368.7 C61,368.4 58.3,368 55.6,367.7 C54.9,367.6 54.3,367.5 53.6,367.5 C42.9,366.2 32.2,364.8 21.5,363.5 C20.8,363.4 20.2,363.3 19.5,363.3 C13.6,362.6 7.8,361.8 1.9,361.1 L-0.4,361.1 C-0.2,360.8 0.1,360.5 0.3,360.2 C0.8,359.5 1.4,358.7 1.9,358 C2.5,357.3 3,356.5 3.6,355.8 C8.3,349.4 13.1,342.8 17.8,336 C18.4,335.2 18.9,334.4 19.5,333.6 L19.5,333.6 C20.2,332.7 20.8,331.7 21.5,330.7 L21.5,330.7 C23.2,328.3 24.8,325.9 26.5,323.5 C28.5,320.5 30.6,317.5 32.6,314.5 C34.2,312 35.9,309.5 37.5,307 C38.4,305.6 39.3,304.2 40.3,302.8 C42.1,300 44,297.1 45.8,294.2 C48.4,290.2 50.9,286.1 53.5,281.9 C54.2,280.8 54.8,279.7 55.5,278.7 C59.5,272.3 63.4,265.7 67.3,258.9 C68,257.7 68.7,256.6 69.3,255.4 C72.1,250.6 74.9,245.7 77.6,240.7 C78.2,239.6 78.8,238.5 79.4,237.4 C80.8,235 82.1,232.5 83.4,230 C84.1,228.8 84.8,227.5 85.4,226.3 C85.5,226.1 85.6,225.8 85.8,225.6 L85.8,225.6 C86.5,224.4 87.1,223.1 87.8,221.8 C89,219.5 90.2,217.2 91.4,214.9 C92.1,213.6 92.8,212.2 93.5,210.8 C94.6,208.6 95.7,206.5 96.9,204.3 C99,200.2 101.1,196 103.2,191.7 C104.9,188.3 106.6,184.8 108.2,181.3 C108.9,179.8 109.6,178.4 110.3,176.9 C111.4,174.5 112.5,172.1 113.7,169.7 C115.3,166.3 117.1,162.7 119.1,158.8 L119.1,158.8 C119.7,157.6 120.4,156.3 121.1,155 L121.1,155 C121.4,154.4 121.8,153.8 122.1,153.1 C122.4,152.5 122.8,151.9 123.1,151.3 C131.7,135.5 142.8,117 154.8,98.5 C155.5,97.5 156.1,96.4 156.8,95.4 C166.8,80 177.3,64.7 187.2,51 C187.9,50.1 188.5,49.2 189.2,48.2 C196.5,38.2 203.4,29.2 209.6,21.7 C210.3,20.9 211,20 211.6,19.2 C211.9,18.9 212.2,18.5 212.5,18.2 C215.3,14.9 218,11.9 220.4,9.4 L220.4,9.4 C220.6,9.2 220.7,9 220.9,8.9 C221.2,8.6 221.4,8.4 221.7,8.1 C221.9,7.9 222.2,7.6 222.4,7.4 C224,5.8 225.5,4.4 226.9,3.3 C227.1,3.1 227.3,3 227.5,2.8 C228,2.4 228.5,2 228.9,1.7 C229.2,1.5 229.6,1.2 229.9,1 C230.1,0.9 230.3,0.8 230.4,0.7 C230.6,0.6 230.7,0.5 230.9,0.4 C231.1,0.3 231.2,0.3 231.4,0.2 C231.6,0.1 231.9,-4.54775106e-13 232.1,-4.54775106e-13 C232.2,-4.54775106e-13 232.3,-4.54775106e-13 232.4,-0.1 L232.7,-0.1 L232.7,-0.1 L232.9,-0.1 L233.4,-0.1 C233.5,-0.1 233.6,-0.1 233.7,-4.54775106e-13 C233.8,-4.54775106e-13 233.9,0.1 234,0.1 C234.1,0.1 234.2,0.2 234.2,0.2 C234.8,0.6 235.3,1 235.9,1.5 C236.5,2 237,2.5 237.5,3 C243,8.3 247,16.8 248.7,29.4 C249.9,35.2 250.2,42.1 249.9,50.1 L249.9,50.1 Z" id="Shape" fill="#8677A7"></path>
                            <path d="M136.3,153.6 C131.6,153.5 127.3,152.5 123.4,151 C119.1,149.3 115,147.1 110.9,144.7 C75.8,124.9 63.5,89.3 59.9,76.9 L68.2,65.9 L94.4,31.1 C107.9,57.1 121.3,83 134.8,109 C140.6,90 146.2,73.3 150.9,59.8 C156.9,43 161.7,31.3 164.6,26.4 C168,20.7 172.7,17.3 172.7,17.3 C177.9,13.6 183.3,12.5 186.2,12.3 C198.1,11.2 209,20.1 212.7,24.6 C214.2,26.5 215.4,28.8 216.2,31.3 C227.5,65.3 182.8,154.5 136.3,153.6 L136.3,153.6 Z" id="Shape" fill="#8677A7"></path>
                            <path d="M88.1,39.3 L88.1,126.8 C87.4,126.1 86.8,125.4 86.1,124.6 L86.1,42 L88.1,39.3 L88.1,39.3 Z" id="Shape" fill="#0D2A28"></path>
                            <path d="M88.1,221.6 L88.1,370.6 C87.4,370.6 86.8,370.5 86.1,370.5 L86.1,225.3 C86.8,224.1 87.4,222.8 88.1,221.6 L88.1,221.6 Z" id="Shape" fill="#0D2A28"></path>
                            <path d="M55.7,278.4 L55.7,367.6 C55,367.5 54.4,367.4 53.7,367.4 L53.7,281.7 C54.3,280.6 55,279.5 55.7,278.4 L55.7,278.4 Z" id="Shape" fill="#0D2A28"></path>
                            <path d="M21.6,330.6 L21.6,363.4 C20.9,363.3 20.3,363.2 19.6,363.2 L19.6,333.6 L19.6,333.6 C20.3,332.5 20.9,331.6 21.6,330.6 L21.6,330.6 Z" id="Shape" fill="#0D2A28"></path>
                            <path d="M121.4,83 L121.4,150.1 C120.7,149.8 120.1,149.5 119.4,149.2 L119.4,79.2 C120,80.5 120.7,81.8 121.4,83 L121.4,83 Z" id="Shape" fill="#0D2A28"></path>
                            <path d="M121.4,154.7 L121.4,371.2 L119.4,371.2 L119.4,158.6 L119.4,158.6 C120,157.3 120.7,156 121.4,154.7 L121.4,154.7 Z" id="Shape" fill="#0D2A28"></path>
                            <path d="M189.5,12.1 L189.5,266 C188.8,267.7 188.2,269.4 187.5,271.1 L187.5,12.1 L189.5,12.1 L189.5,12.1 Z" id="Shape" fill="#0D2A28"></path>
                            <path d="M157.1,43.2 L157.1,345.4 C156.9,346 156.6,346.6 156.3,347.2 L155.7,348.5 L155.7,348.6 C155.5,349.1 155.3,349.6 155.1,350.1 L155.1,48.4 C155.7,46.6 156.4,44.9 157.1,43.2 L157.1,43.2 Z" id="Shape" fill="#0D2A28"></path>
                            <path d="M222.7,7.2 L222.7,173.5 C222,175.5 221.4,177.6 220.7,179.6 L220.7,9.3 C220.9,9.1 221,8.9 221.2,8.8 C221.5,8.5 221.7,8.3 222,8 C222.3,7.7 222.5,7.5 222.7,7.2 L222.7,7.2 Z" id="Shape" fill="#0D2A28"></path>
                            <path d="M249.9,50.1 L249.9,51.3 C249.9,51.8 249.9,52.3 249.8,52.8 C249.8,53.4 249.7,53.9 249.7,54.5 L249.7,55 C249.7,55.4 249.7,55.9 249.6,56.3 C249.5,58 249.4,59.7 249.2,61.5 L249.2,62.1 L249.2,29.2 C249.9,35.2 250.2,42.1 249.9,50.1 L249.9,50.1 Z" id="Shape" fill="#0D2A28"></path>
                            <path d="M249.9,50.1 L249.9,51.3 C249.9,51.8 249.9,52.3 249.8,52.8 C249.8,53.4 249.7,53.9 249.7,54.5 L249.7,55 C249.7,55.4 249.7,55.9 249.6,56.3 C249.5,58 249.4,59.7 249.2,61.5 L249.2,62 C249.2,62.3 249.2,62.5 249.1,62.8 C248.8,65.8 248.4,68.9 248,72.1 C247.9,72.7 247.8,73.3 247.8,73.9 C247.4,76.6 247,79.3 246.5,82.1 C246.3,83.1 246.1,84.2 246,85.2 C246,85.4 245.9,85.6 245.9,85.8 C245.8,86.4 245.7,87.1 245.5,87.8 C244.6,92.4 243.7,97.3 242.5,102.4 C242.4,103 242.2,103.6 242.1,104.2 C241.9,105.1 241.7,106 241.5,106.8 C241.3,107.8 241,108.8 240.8,109.8 C240.7,110.4 240.5,111.1 240.3,111.7 C240,113 239.7,114.3 239.4,115.6 C239.3,116.2 239.1,116.8 239,117.4 C238,121.4 236.9,125.5 235.8,129.8 C235.6,130.5 235.4,131.2 235.2,131.9 C234.9,133.2 234.5,134.5 234.1,135.9 C233.4,138.4 232.7,140.9 232,143.4 C231.7,144.5 231.4,145.5 231.1,146.6 C228.6,155.1 225.9,164.1 222.8,173.6 L222.8,173.6 C222.1,175.6 221.5,177.7 220.8,179.7 C219.4,183.9 218,188.1 216.5,192.5 C216.1,193.5 215.8,194.6 215.4,195.7 C215.2,196.4 214.9,197 214.7,197.7 C214,199.8 213.2,201.9 212.5,204.1 C210.1,210.9 207.6,217.9 205,225.1 C204.3,227.1 203.6,229 202.8,231 C198.7,242.2 194.3,253.9 189.5,266.1 L189.5,266.1 C188.8,267.8 188.2,269.5 187.5,271.2 L187.5,271.2 C185.2,277.2 182.7,283.3 180.2,289.5 C179.7,290.8 179.2,292.1 178.6,293.4 C174.9,302.6 171.1,312 167,321.7 C166.4,323.1 165.8,324.5 165.3,325.9 C162.6,332.3 159.9,338.9 157,345.6 C156.8,346.2 156.5,346.8 156.2,347.4 L155.6,348.7 L155.6,348.8 C155.4,349.3 155.2,349.8 155,350.3 L155,350.3 C153.9,352.8 152.8,355.4 151.7,357.9 C149.6,362 147.6,366.2 145.5,370.3 C137.8,370.8 129.7,371.2 121.3,371.3 L119.3,371.3 L119.3,371.3 L113.3,371.3 C110.9,371.3 108.4,371.3 105.9,371.2 L105.8,371.2 C103.9,371.2 102,371.1 100.2,371.1 L98.2,371.1 C96.5,371 94.7,371 93,370.9 C92.2,370.9 91.3,370.8 90.5,370.8 C89.7,370.8 88.8,370.7 88,370.7 C87.3,370.7 86.7,370.6 86,370.6 C85.6,370.6 85.2,370.6 84.8,370.5 C81.9,370.3 79,370.1 76.2,369.9 C72,369.6 67.8,369.2 63.7,368.7 C61,368.4 58.3,368 55.6,367.7 C54.9,367.6 54.3,367.5 53.6,367.5 C42.9,366.2 32.2,364.8 21.5,363.5 C20.8,363.4 20.2,363.3 19.5,363.3 C13.6,362.6 7.8,361.8 1.9,361.1 L-0.4,361.1 C-0.2,360.8 0.1,360.5 0.3,360.2 C0.8,359.5 1.4,358.7 1.9,358 C2.5,357.3 3,356.5 3.6,355.8 C8.3,349.4 13.1,342.8 17.8,336 C18.4,335.2 18.9,334.4 19.5,333.6 L19.5,333.6 C20.2,332.7 20.8,331.7 21.5,330.7 L21.5,330.7 C23.2,328.3 24.8,325.9 26.5,323.5 C28.5,320.5 30.6,317.5 32.6,314.5 C34.2,312 35.9,309.5 37.5,307 C38.4,305.6 39.3,304.2 40.3,302.8 C42.1,300 44,297.1 45.8,294.2 C48.4,290.2 50.9,286.1 53.5,281.9 C54.2,280.8 54.8,279.7 55.5,278.7 C59.5,272.3 63.4,265.7 67.3,258.9 C68,257.7 68.7,256.6 69.3,255.4 C72.1,250.6 74.9,245.7 77.6,240.7 C78.2,239.6 78.8,238.5 79.4,237.4 C80.8,235 82.1,232.5 83.4,230 C84.1,228.8 84.8,227.5 85.4,226.3 C85.5,226.1 85.6,225.8 85.8,225.6 L85.8,225.6 C86.5,224.4 87.1,223.1 87.8,221.9 C89,219.6 90.2,217.3 91.4,215 C92.1,213.7 92.8,212.3 93.5,210.9 C94.6,208.7 95.7,206.6 96.9,204.4 C99,200.3 101.1,196.1 103.2,191.8 C104.9,188.4 106.6,184.9 108.2,181.4 C108.9,179.9 109.6,178.5 110.3,177 C111.4,174.6 112.5,172.2 113.7,169.8 C115.3,166.4 117.1,162.8 119.1,158.9 L119.1,158.9 C119.7,157.7 120.4,156.4 121.1,155.1 L121.1,155.1 C121.4,154.5 121.8,153.9 122.1,153.2 C122.4,152.6 122.8,151.9 123.1,151.3 C122.4,151 121.7,150.8 121.1,150.5 C120.4,150.2 119.8,149.9 119.1,149.6 C116.3,148.2 113.5,146.7 110.7,145.1 C101.7,140 94.1,133.8 87.9,127.3 C87.2,126.6 86.6,125.9 85.9,125.1 C69.3,106.8 62.3,86.1 59.7,77.2 L85.9,42.4 L87.9,39.7 L94.2,31.4 C102.5,47.5 110.8,63.5 119.2,79.6 C119.9,80.9 120.5,82.2 121.2,83.5 C125.7,92.1 130.1,100.7 134.6,109.4 C142.2,84.6 149.3,63.8 154.9,48.9 C155.6,47.1 156.3,45.4 156.9,43.7 C160.1,35.6 162.7,29.9 164.5,26.8 C167.9,21.1 172.6,17.8 172.6,17.8 C177.8,14.1 183.2,13 186.1,12.8 C186.5,12.8 186.9,12.7 187.3,12.7 L189.3,12.7 C197.7,13.1 205.3,18 209.7,22.1 C210.4,21.3 211.1,20.4 211.7,19.6 C212,19.3 212.3,18.9 212.6,18.6 C215.4,15.3 218.1,12.3 220.5,9.8 L220.5,9.8 C220.7,9.6 220.8,9.4 221,9.3 C221.3,9 221.5,8.8 221.8,8.5 C222,8.3 222.3,8 222.5,7.8 C224.1,6.2 225.6,4.8 227,3.7 C227.2,3.5 227.4,3.4 227.6,3.2 C228.1,2.8 228.6,2.4 229,2.1 C229.3,1.9 229.7,1.6 230,1.4 C230.2,1.3 230.4,1.2 230.5,1.1 C230.7,1 230.8,0.9 231,0.8 C231.2,0.7 231.3,0.7 231.5,0.6 C231.7,0.5 232,0.4 232.2,0.4 C232.3,0.4 232.4,0.4 232.5,0.3 L232.8,0.3 L232.8,0.3 L233,0.3 L233.5,0.3 C233.6,0.3 233.7,0.3 233.8,0.4 C233.9,0.4 234,0.5 234.1,0.5 C234.2,0.5 234.3,0.6 234.3,0.6 C234.9,1 235.4,1.4 236,1.9 C236.6,2.4 237.1,2.9 237.6,3.4 C243.1,8.7 247.1,17.2 248.8,29.8 C249.9,35.2 250.2,42.1 249.9,50.1 L249.9,50.1 Z" id="Shape"></path>
                            <path d="M218.5,103.3 C218.5,103.3 195,227.6 109.8,217 C103.3,216.2 97.3,215.4 91.7,214.6 C99.3,200.1 106.7,185.1 113.9,169.4 C116.5,163.9 119.6,157.7 123.3,151 C148.6,160.5 184.3,158.5 218.5,103.3 L218.5,103.3 Z" id="Shape" fill="url(#linearGradient-7)" opacity="0.31"></path>
                            <path d="M205.1,224.6 C192.2,260 176.1,300.6 156.3,347.2 L155.7,348.5 C155.7,348.5 155.7,348.6 155.6,348.6 C154.3,351.6 153,354.7 151.7,357.7 C149.6,361.8 147.6,366 145.5,370.1 C131.1,371.1 115.2,371.5 98.3,371 C86.1,370.6 74.6,369.7 63.8,368.6 C43.2,366 22.6,363.4 2,360.9 L-0.3,360.9 C-0.1,360.6 0.1,360.3 0.4,360 C40.8,333.2 143.5,265.2 205.1,224.6 L205.1,224.6 Z" id="Shape" fill="url(#linearGradient-8)" opacity="0.07"></path>
                            <path d="M216.2,31.2 C206.8,52.6 170.1,58.2 150.9,59.7 C156.9,42.9 161.7,31.2 164.6,26.3 C168,20.6 172.7,17.2 172.7,17.2 C177.9,13.5 183.3,12.4 186.2,12.2 C198.1,11.1 209,20 212.7,24.5 C214.2,26.4 215.4,28.7 216.2,31.2 L216.2,31.2 Z" id="Shape" fill="url(#linearGradient-9)" opacity="0.15"></path>
                            <path d="M123.4,151 C119.1,149.3 115,147.1 110.9,144.7 C75.8,124.9 63.5,89.3 59.9,76.9 L68.2,65.9 C86.6,94.2 105,122.6 123.4,151 L123.4,151 Z" id="Shape" fill="#153E5C" opacity="0.08"></path>
                        </g>
                        <g id="head_1_" transform="translate(167.000000, 0.000000)">
                            <path d="M63.3,59.9 C61.7,65.7 58.3,75.6 50,84.7 C47.5,87.4 31.3,105.6 19.4,100.8 C14.3,98.7 10.9,92.8 8.7,87.2 C8.5,86.6 8.3,86 8.1,85.4 C6.8,81.5 6,78 5.6,76.4 C5.2,74.4 4.9,72.7 4.8,71.5 C2.8,70 1.5,68.6 0.8,67.4 C0.3,66.6 -0.1,65.5 9.65373614e-15,64.2 C0.2,62.1 1.8,61.1 3.2,59.3 C4.6,57.6 5.2,55.7 6.4,52 C7.5,48.7 7.7,45.5 7.6,42.8 C7.6,42.2 7.6,41.6 7.5,41.1 C7.4,39.7 7.3,38.4 7.2,37.4 C6.8,32.2 7.8,24.6 13.7,14.7 C30.3,29.7 46.8,44.8 63.3,59.9 L63.3,59.9 Z" id="face_1_" fill="#C5856E"></path>
                            <path d="M14.2,85.8 C13.7,85.8 13.2,85.8 12.9,85.7 C12.6,85.7 12.3,85.3 12.4,85 C12.4,84.7 12.8,84.4 13.1,84.5 C14.1,84.6 16,84.7 18,83.7 C20.6,82.4 21.6,80.1 22,79.2 C22.1,78.9 22.5,78.7 22.8,78.9 C23.1,79 23.3,79.4 23.1,79.7 C22.7,80.7 21.5,83.3 18.5,84.8 C16.9,85.6 15.4,85.8 14.2,85.8 L14.2,85.8 Z" id="Shape" fill="#000000"></path>
                            <path d="M16.9,46.8 C15.8,45.9 14.2,44.9 12.2,44 C10.6,43.3 9.1,43 7.7,42.8 C7.7,42.2 7.7,41.6 7.6,41.1 C9.2,40.8 10.8,40.9 12.4,41.6 C15.7,43 16.7,46.3 16.9,46.8 L16.9,46.8 Z" id="brow" fill="#000000"></path>
                            <circle id="eye" fill="#000000" cx="11" cy="52" r="2"></circle>
                            <g id="hair_1_" transform="translate(12.000000, 0.000000)">
                                <path d="M122.5,148.9 C115.4,170.4 90.9,198.5 69,195 C44,191 34.3,149.5 30.3,132.5 C23.8,105.2 29.9,95.1 22.8,67.4 C17.1,45.1 7.2,28.3 0,17.8 C1.9,10.9 5.6,7.2 7.4,5.6 C18.9,-4.3 36.2,1.7 36.9,2 C37.4,2.2 37.7,2.3 37.9,2.4 C65.1,13.3 75.5,54.3 77.1,61 C77.8,63.9 78.3,66.7 78.8,69.4 L78.8,69.5 C80.6,79.6 81.8,88.4 88.6,97.9 C88.7,98 88.8,98.2 88.9,98.3 C88.9,98.4 89,98.4 89.1,98.5 C89.2,98.6 89.2,98.7 89.3,98.8 C89.4,98.9 89.5,99 89.5,99.1 C94.4,105.6 102.4,113.1 104.1,114.7 C116.8,126.6 120.8,126.6 123,130.9 C125.4,135.2 124.9,141.6 122.5,148.9 L122.5,148.9 Z" id="Shape" fill="#F2BE54"></path>
                                <path d="M122.5,148.9 C76.8,121.6 64.5,97.4 62.3,79.6 C61.7,74.8 62,71.3 60.9,63.4 C57.5,36.6 46.8,16 37.9,2.5 C65.1,13.4 75.5,54.4 77.1,61.1 C77.7,64.1 78.3,66.9 78.8,69.5 L78.8,69.6 C82.8,88.1 86.3,94.7 88.6,98 C88.7,98.1 88.8,98.3 88.9,98.4 C88.9,98.5 89,98.5 89.1,98.6 C89.2,98.7 89.2,98.8 89.3,98.9 C89.4,99 89.5,99.1 89.5,99.2 C94.4,105.7 102.4,113.2 104.1,114.8 C116.8,126.7 120.8,126.7 123,131 C125.4,135.2 124.9,141.6 122.5,148.9 L122.5,148.9 Z" id="Shape" fill="url(#linearGradient-10)" opacity="0.28"></path>
                            </g>
                        </g>
                    </g>
                    <g id="man">
                        <g id="legs_and_shoes" transform="translate(34.000000, 299.000000)">
                            <g id="shoes" transform="translate(30.000000, 386.000000)">
                                <path d="M37.6,21 C40.1,27.2 42.5,33.5 45,39.7 C50.7,36.5 56.4,33.2 62,30 C60.7,24.6 59.5,19.1 58.2,13.7 C51.4,16.1 44.5,18.6 37.6,21 L37.6,21 Z" id="Shape" fill="#FC860A"></path>
                                <path d="M71,56.8 C65.1,58.6 59.1,60.5 53.2,62.3 C35.5,67.8 17.9,73.2 0.2,78.7 C0.2,77.1 0.3,75.3 0.6,73.3 C0.9,71.5 1.3,69.7 1.9,67.8 C2.7,65.6 3.8,63.3 5.4,61.1 C6.6,59.5 8.4,57.4 16.4,52.7 C17.1,52.3 17.8,51.9 18.5,51.4 C19.4,50.9 20.3,50.4 21.2,49.9 C21.5,49.7 21.7,49.6 22,49.5 C22.9,49 23.7,48.6 24.5,48.2 L25.2,47.8 C26.7,47 28.1,46.3 29.5,45.6 C29.8,45.5 30,45.3 30.3,45.2 C31.3,44.7 32.2,44.3 33,43.9 C33.3,43.8 33.5,43.7 33.7,43.6 C41.4,40 45.3,38.3 47.4,33.9 C47.7,33.2 49.3,29.7 52.6,26.9 C52.8,26.8 52.9,26.6 53.1,26.5 C54.9,25.1 56.4,24.5 57.8,24.3 C59.1,24.1 60.2,24.2 61,24.3 L66.9,43.5 L71,56.8 L71,56.8 Z" id="Shape" fill="#0D2A28"></path>
                                <path d="M71,56.8 C47.4,64.1 23.8,71.4 0.2,78.7 C0.2,77.1 0.3,75.3 0.6,73.3 C32.9,65.1 44.6,58.8 48.3,54.2 C48.8,53.6 50.7,51.1 54,48.7 C58.6,45.4 63.5,44.2 67,43.7 C68.3,48.1 69.6,52.5 71,56.8 L71,56.8 Z" id="Shape" fill="#FFFFFF"></path>
                                <path d="M24.5,48.3 L27.1,53.1 L22,49.7 C21.7,49.8 21.5,50 21.2,50.1 L28,54.7 C28,54.7 28.1,54.7 28.2,54.8 C28.3,54.8 28.4,54.8 28.5,54.7 C28.6,54.6 28.7,54.4 28.6,54.2 L25.3,48 L24.5,48.3 L24.5,48.3 Z" id="Shape" fill="#FFFFFF"></path>
                                <path d="M36.1,51.7 C35.9,51.8 35.7,51.8 35.6,51.7 L29.5,45.8 C29.8,45.7 30,45.5 30.3,45.4 L35,49.9 C34.4,48.1 33.7,46 33,44 C33.3,43.9 33.5,43.8 33.7,43.7 C34.6,46.3 35.5,49.1 36.3,51.2 C36.3,51.4 36.3,51.6 36.1,51.7 L36.1,51.7 Z" id="Shape" fill="#FFFFFF"></path>
                                <path d="M16.4,52.8 C15.6,58.3 12.5,66.6 1.9,67.8 C2.7,65.6 3.8,63.3 5.4,61.1 C6.6,59.6 8.4,57.6 16.4,52.8 L16.4,52.8 Z" id="Shape" fill="url(#linearGradient-11)" opacity="0.14"></path>
                                <path d="M197.2,0.2 C198.2,6.8 199.1,13.5 200.1,20.1 C193.3,19.6 186.5,19.1 179.6,18.6 C178.2,13.2 176.9,7.8 175.5,2.4 C182.8,1.7 190,1 197.2,0.2 L197.2,0.2 Z" id="Shape" fill="#FC860A"></path>
                                <path d="M258.4,31.5 C252.7,32.8 247,34.1 241.3,35.4 C222.9,39.6 204.5,43.8 186.1,48 L183.1,34.6 L178.6,15 C179.2,14.5 180.1,13.9 181.3,13.4 C182.8,12.8 184.6,12.6 187.1,13.1 C191.4,13.9 194.5,16.1 195.1,16.5 C199,19.2 203.3,18.7 211.7,18 C212,18 212.2,18 212.5,17.9 C213.5,17.8 214.5,17.7 215.5,17.7 L216.4,17.7 L217,17.7 C218.3,17.6 219.7,17.5 221.2,17.5 L222,17.5 C222.9,17.5 223.9,17.4 224.8,17.4 L225.7,17.4 L228.7,17.4 L231.2,17.4 C240.4,17.5 243,18.4 244.9,19.2 C247.3,20.3 249.4,21.7 251.2,23.2 C252.7,24.5 254,25.9 255.1,27.3 C256.7,28.6 257.7,30.1 258.4,31.5 L258.4,31.5 Z" id="Shape" fill="#0D2A28"></path>
                                <path d="M186.2,48 C210.3,42.5 234.4,37 258.5,31.5 C257.7,30.1 256.7,28.6 255.5,27 C223.4,36.1 210.1,36.5 204.6,34.3 C203.9,34 201,32.8 196.9,32.4 C191.3,31.9 186.5,33.2 183.2,34.6 C184.1,39 185.2,43.5 186.2,48 L186.2,48 Z" id="Shape" fill="#FFFFFF"></path>
                                <path d="M221.4,17.3 L221.6,24.4 C221.6,24.6 221.7,24.8 221.9,24.8 C222,24.8 222.2,24.8 222.2,24.7 L222.3,24.6 L225.9,17.2 L225,17.2 L222.3,22.7 L222.1,17.3 L221.4,17.3 L221.4,17.3 Z" id="Shape" fill="#FFFFFF"></path>
                                <path d="M213.8,26.1 C214,26.1 214.2,26 214.2,25.8 L216.6,17.6 C216.3,17.6 216,17.6 215.7,17.7 L213.9,24 C213.5,22.1 213.1,19.9 212.7,17.9 C212.4,17.9 212.2,17.9 211.9,18 C212.4,20.7 213,23.6 213.4,25.8 C213.5,25.9 213.6,26.1 213.8,26.1 L213.8,26.1 Z" id="Shape" fill="#FFFFFF"></path>
                                <path d="M231.5,17.2 C235,21.5 241.7,27.2 251.5,23 C249.7,21.5 247.6,20.1 245.2,19 C243.3,18.1 240.7,17.3 231.5,17.2 L231.5,17.2 Z" id="Shape" fill="url(#linearGradient-12)" opacity="0.09"></path>
                                <path d="M241.4,35.4 C223,39.6 204.6,43.8 186.2,48 L183.2,34.6 L178.7,15 C179.3,14.5 180.2,13.9 181.4,13.4 C182.9,12.8 184.7,12.6 187.2,13.1 C191.5,13.9 194.6,16.1 195.2,16.5 C199.1,19.2 203.4,18.7 211.8,18 C212.1,18 212.3,18 212.6,17.9 C213.6,17.8 214.6,17.7 215.6,17.7 L216.5,17.7 L217.1,17.7 L241.4,35.4 L241.4,35.4 Z" id="Shape" fill="url(#linearGradient-13)" opacity="0.12"></path>
                                <path d="M71,56.8 C65.1,58.6 59.1,60.5 53.2,62.3 L53.2,26.6 C55,25.2 56.5,24.6 57.9,24.4 C59.2,24.2 60.3,24.3 61.1,24.4 L67,43.6 L71,56.8 L71,56.8 Z" id="Shape" fill="url(#linearGradient-14)" opacity="0.12"></path>
                            </g>
                            <g id="legs">
                                <path d="M227.5,388.4 C225.4,389.9 222.4,391.8 218.6,393.3 C218,393.5 217.5,393.7 216.9,393.9 C213.1,395.2 209.7,395.6 207.2,395.7 C174.4,308.3 162.7,263.8 159.4,239.7 C159,236.7 157.9,228.7 155.3,217.8 C149.9,195.3 143,182 130.2,153.6 C125.5,143.3 118.7,127.9 110.7,108.9 C100.1,124.1 89,141.4 78.3,160.9 C67.2,181 58.1,200.2 50.7,217.8 C52.7,222.4 55.7,229.4 58.8,238.1 C71.8,274.9 72.6,300.8 78.3,341.3 C80.3,355.9 83.6,376.6 88.9,401.7 C89.2,402.9 89.4,404.2 89.7,405.5 C89.6,405.6 89.5,405.7 89.4,405.8 C89.2,406 89,406.1 88.8,406.4 C87,408 83.1,410.9 77.5,411.2 C73.4,411.5 70.2,410.3 68.6,409.6 C59.1,384.1 44.4,344.7 26.4,295.9 C2.2,230.3 -1,221 -0.4,203.3 C0.9,165.8 18.1,128.5 34.1,93.7 C41.5,77.6 51.6,56.6 51.6,56.6 C54.5,50.4 57.4,44.6 60.1,39 L183.3,53.1 L194.4,54.4 C194.7,61 195,67.4 195.4,73.6 C195.4,73.6 196.2,85.8 197.3,98.2 C198.9,114.1 210.8,229.8 227.5,388.4 L227.5,388.4 Z" id="Shape" fill="#BDD3DE"></path>
                                <path d="M89.3,405.7 C89.4,406.4 89.5,407.1 89.6,407.9 L89.3,407.9 C89.1,407.4 88.9,406.8 88.7,406.3 C78.3,375.2 66.5,338.9 53.9,298.2 C37.9,246.5 33.4,229.4 37.7,205.6 C44.2,169 66.3,144.1 71.8,138.2 C86,122.9 100.8,114 110.7,109 C100.1,124.2 89,141.5 78.3,161 C67.2,181.1 58.1,200.3 50.7,217.9 C52.7,222.5 55.7,229.5 58.8,238.2 C71.8,275 72.6,300.9 78.3,341.4 C80.3,356 83.6,376.7 88.9,401.8 C89,403 89.2,404.3 89.3,405.7 L89.3,405.7 Z" id="Shape" fill="url(#linearGradient-15)" opacity="0.53"></path>
                                <path d="M105,56.1 C87.4,117.2 26.9,158.2 0.6,173.6 C9.7,144.7 26.9,108.3 51.6,56.4 C62.9,32.7 73.2,13.3 80.7,-0.2 C100.4,7.2 114.6,23.1 105,56.1 L105,56.1 Z" id="Shape" fill="url(#linearGradient-16)" opacity="0.43"></path>
                                <path d="M195.6,73.4 L34.2,93.5 C39.5,82.1 45.4,69.7 51.7,56.4 C54.6,50.2 57.5,44.4 60.2,38.8 L194.5,54.2 C194.8,60.8 195.2,67.2 195.6,73.4 L195.6,73.4 Z" id="Shape" fill="url(#linearGradient-17)" opacity="0.14"></path>
                                <path d="M227.5,388.4 C225.4,389.9 222.4,391.8 218.6,393.3 C218,393.5 217.5,393.7 216.9,393.9 L183.5,53 L194.6,54.3 C194.9,60.9 195.2,67.3 195.6,73.5 C195.6,73.5 196.4,85.7 197.5,98.1 C198.9,114.1 210.8,229.8 227.5,388.4 L227.5,388.4 Z" id="Shape" fill="url(#linearGradient-18)" opacity="0.53"></path>
                            </g>
                        </g>
                        <g id="hands" transform="translate(37.000000, 0.000000)">
                            <path d="M39.6,32.9 C39.3,31.9 35.1,31.2 31.8,32.7 C29.8,33.6 28.9,34.9 26.5,35.4 C25,35.7 23.7,35.5 22.8,35.3 C23.2,34.6 38.8,17.5 41.6,14.7 C41.6,14.7 44.9,11.4 44.2,10 C43.9,9.5 43.5,9.3 43.5,9.3 C42.9,9 42.1,9.4 41.3,10 C40.2,10.8 34.2,17.1 26.3,24.6 C26.2,24.5 26.1,24.4 26,24.2 C39.9,8.1 41.2,4.6 40.7,3.8 C40.4,3.3 39.9,3.1 39.9,3.1 C38.5,2.7 36.6,4.9 35.7,6 C30.8,11.7 25.8,17.7 22.9,21.1 C22.8,21 22.7,20.9 22.6,20.8 C28.1,12.5 32,6.6 33.4,4.5 C33.8,3.8 35.1,2 34.4,1 C34.2,0.6 33.8,0.5 33.6,0.4 C32.2,1.12410081e-14 30.4,2.4 29.5,3.5 C25.4,8.8 21.3,14.2 18.5,17.8 C18.5,17.8 18.4,17.8 18.4,17.7 C23.2,9.9 26.4,4.5 27.3,3.2 C27.6,2.8 28.4,1.5 28,0.7 C27.8,0.4 27.5,0.2 27.3,0.1 C26.1,-0.2 24.3,2.1 23.5,3.3 C20.2,7.6 16.9,12.1 14.3,15.6 C14.3,15.6 14.3,15.6 14.2,15.6 C9,21.4 5.4,26.5 3,30.2 C1.2,33.1 -0.3,35.5 0.2,38.5 C0.8,42 3.5,44.2 4.1,44.6 C4.7,45.1 6.8,46.5 10.5,46.7 C15.5,47 18.2,44.8 28,39.6 C36.6,35.1 39.8,33.9 39.6,32.9 L39.6,32.9 Z" id="Shape" fill="url(#linearGradient-19)"></path>
                            <path d="M353.6,165.9 C354.6,166.2 355.3,170.4 353.8,173.7 C352.9,175.7 351.6,176.6 351.1,179.1 C350.8,180.6 351,181.9 351.2,182.8 C351.9,182.4 368.9,166.7 371.7,163.9 C371.7,163.9 374.9,160.6 376.3,161.3 C376.8,161.6 377,162 377,162 C377.3,162.6 376.9,163.4 376.4,164.2 C375.6,165.3 369.3,171.3 361.8,179.3 C361.9,179.4 362,179.5 362.2,179.6 C378.2,165.6 381.7,164.3 382.6,164.8 C383.1,165.1 383.3,165.6 383.3,165.6 C383.7,167 381.5,168.9 380.4,169.8 C374.7,174.7 368.7,179.8 365.4,182.6 C365.5,182.7 365.6,182.8 365.7,182.9 C373.9,177.4 379.8,173.4 381.9,172 C382.6,171.5 384.3,170.3 385.4,171 C385.8,171.2 385.9,171.6 386,171.8 C386.4,173.2 384,175 382.9,175.9 C377.7,180 372.2,184.2 368.6,187 L368.7,187.1 C376.5,182.3 381.8,179 383.1,178.1 C383.5,177.8 384.8,177 385.6,177.4 C385.9,177.6 386.1,177.9 386.2,178.1 C386.5,179.3 384.2,181.1 383.1,182 C378.8,185.3 374.3,188.7 370.8,191.3 C370.8,191.3 370.8,191.3 370.8,191.4 C365,196.6 360,200.2 356.3,202.7 C353.5,204.6 351,206 348,205.5 C344.2,204.9 342,201.9 341.9,201.6 C340.8,200 340.3,198.1 340.4,195.2 C340.5,190 342.3,186.5 346.8,177.6 C351.8,167.8 352.8,165.7 353.6,165.9 L353.6,165.9 Z" id="Shape" fill="url(#linearGradient-20)"></path>
                        </g>
                        <g id="body" transform="translate(0.000000, 28.000000)">
                            <path d="M393.7,174.4 C390.7,178.2 387.4,182 383.9,186 C383.7,186.2 383.6,186.4 383.4,186.6 C380.3,190.1 377,193.6 373.5,197.2 C368.3,202.5 363.1,207.4 358.1,211.8 C352.4,217.7 328.9,240.5 300.5,236.2 C291.4,234.8 284.9,231.1 277,226.4 C272.3,223.7 266.5,219.9 260.2,214.9 C259.5,214.4 258.9,213.8 258.2,213.3 C249.1,205.8 239,195.6 229.2,181.8 L229.1,181.7 C228.4,199.1 228.1,212 228,216.8 C227.9,221.7 227.8,227 227.8,227 L227.8,230.7 L227.8,242.7 C227.8,249.4 227.9,255 228.1,268.3 L228.1,271.4 C228.1,273.2 228.1,275.1 228.2,277.1 L228.2,277.1 L228.2,280 C228.2,281.4 228.2,282.9 228.3,284.5 C228.5,302.2 228.8,319.8 229.1,337.5 C204.2,340.2 173.7,341.3 139.3,337.5 C124.3,335.8 110.4,333.5 97.6,330.7 C93.5,329.8 89.6,328.9 85.7,328 C90.3,296.1 93.6,261 94.7,223.1 C94.8,218.7 94.9,214.4 95,210.2 C95,207.6 95.1,205.1 95.1,202.6 L95.1,202.6 C95.2,190.1 95,177.8 94.7,166 C94.6,166 94.4,165.9 94.3,165.9 C82.3,163.4 64,158.4 44.5,147.6 C25,136.8 10.9,129.1 3.9,113 C-3.7,95.6 1.4,79 9.1,54.4 C9.2,54 9.3,53.7 9.4,53.6 C12,45.5 15.8,36.7 21.1,27.6 C22.4,25.4 23.8,23.1 25.3,20.9 C29.8,14.1 35.3,7.1 41.8,-8.52651283e-14 C47.5,5.1 53.1,10.3 58.8,15.4 C33.5,49.1 26,82.8 37.7,95 C46.5,104.2 70.3,105.8 83.8,106.2 C91,106.4 97.7,106.2 97.7,106.2 C98.4,106.2 99.2,106.1 99.8,106.1 C103.1,105.9 106.1,105.6 109.3,105.3 C111.5,105.1 113.8,104.9 116.4,104.8 C117.9,104.7 119.4,104.6 120.9,104.6 C120.9,104.6 126.6,104.4 132.4,104.4 C151.5,104.5 167.2,104.6 180.9,105.9 C183.9,106.2 186.8,106.5 189.6,106.9 C202.1,108.7 212.9,112 223.4,117.8 C230.4,121.7 234.8,125.5 243.7,133.2 C282.9,167.2 284.3,192.7 302.9,199.8 C308.1,201.8 314.9,202.4 323.6,199.9 C325.8,199.3 328.2,198.4 330.7,197.3 C342.9,192 358.4,181.2 378.4,161.6 C382.8,165.3 387.3,169.1 391.7,172.8 C392.3,173.2 393,173.8 393.7,174.4 L393.7,174.4 Z" id="Shape" fill="#0D2A28"></path>
                            <g id="Group" opacity="0.48" transform="translate(21.000000, 19.000000)" fill="#FC860A">
                                <path d="M92.1,282.9 L97.7,277.3 L90.6,279.3 L89.2,271.3 L86.5,278.9 L80.2,274.2 L83.8,282.3 C82.5,284.7 81.1,287.2 79.8,289.6 L87.6,284.8 L94.8,291.3 C94,288.5 93.1,285.7 92.1,282.9 L92.1,282.9 Z" id="Shape"></path>
                                <path d="M130.2,223.6 L135.8,218 L128.7,220 L127.3,212 L124.6,219.6 L118.3,214.9 L121.9,223 C120.6,225.4 119.2,227.9 117.9,230.3 L125.7,225.5 L132.9,232 C132.1,229.2 131.2,226.4 130.2,223.6 L130.2,223.6 Z" id="Shape"></path>
                                <path d="M79.1,188.6 C80,191.4 81,194.2 81.9,197 L74.7,190.5 L74,191 C74,188.4 74.1,185.9 74.1,183.4 L74.1,183.4 L76.3,177.1 L77.7,185.1 L84.8,183.1 L79.1,188.6 L79.1,188.6 Z" id="Shape"></path>
                                <path d="M134.3,144.8 L139.9,139.2 L132.8,141.2 L131.4,133.2 L128.7,140.8 L122.4,136.1 L126,144.2 C124.7,146.6 123.3,149.1 122,151.5 L129.8,146.7 L137,153.2 C136.2,150.4 135.2,147.6 134.3,144.8 L134.3,144.8 Z" id="Shape"></path>
                                <path d="M186.2,182.1 L191.8,176.5 L184.7,178.5 L183.3,170.5 L180.6,178.1 L174.3,173.4 L177.9,181.5 C176.6,183.9 175.2,186.4 173.9,188.8 L181.7,184 L188.9,190.5 C188.1,187.7 187.1,184.9 186.2,182.1 L186.2,182.1 Z" id="Shape"></path>
                                <path d="M207.2,260.8 L201.3,255.5 L193.5,260.3 C194.8,257.9 196.2,255.4 197.5,253 L193.9,244.9 L200.2,249.6 L202.9,242 L204.3,250 L207.1,249.2 L207.1,252.3 L205.7,253.7 C206.2,255.1 206.7,256.6 207.1,258 L207.1,258 C207.1,258.9 207.1,259.8 207.2,260.8 L207.2,260.8 Z" id="Shape"></path>
                                <path d="M165.9,295.9 L171.5,290.3 L164.4,292.3 L163,284.3 L160.3,291.9 L154,287.2 L157.6,295.3 C156.3,297.7 154.9,300.2 153.6,302.6 L161.4,297.8 L168.6,304.3 C167.8,301.5 166.9,298.7 165.9,295.9 L165.9,295.9 Z" id="Shape"></path>
                                <path d="M223.5,135 L229.1,129.4 L222,131.4 L220.6,123.4 L218,131 L211.7,126.3 L215.3,134.4 C214,136.8 212.6,139.3 211.3,141.7 L219.1,136.9 L226.3,143.4 C225.4,140.6 224.4,137.8 223.5,135 L223.5,135 Z" id="Shape"></path>
                                <path d="M171.2,96.3 L164,89.8 L156.2,94.6 C157.5,92.2 158.9,89.7 160.2,87.3 L159.9,86.6 C162.9,86.9 165.8,87.2 168.6,87.6 L168.4,87.8 C169.3,90.7 170.2,93.5 171.2,96.3 L171.2,96.3 Z" id="Shape"></path>
                                <path d="M90.9,93.8 L83.7,87.3 L75.9,92.1 C76.9,90.3 77.8,88.6 78.8,86.8 C82.1,86.6 85.1,86.3 88.3,86 C89.1,88.7 90,91.3 90.9,93.8 L90.9,93.8 Z" id="Shape"></path>
                                <path d="M25.6,108.2 L31.2,102.6 L24.1,104.6 L22.7,96.6 L20,104.2 L13.7,99.5 L17.3,107.6 C16,110 14.6,112.5 13.3,114.9 L21.1,110.1 L28.3,116.6 C27.5,113.8 26.6,111 25.6,108.2 L25.6,108.2 Z" id="Shape"></path>
                                <path d="M3.7,5.8 C4.6,8.6 5.6,11.4 6.5,14.2 L0,8.3 C1.3,6.1 2.7,3.8 4.2,1.6 L9.4,0.2 L3.7,5.8 L3.7,5.8 Z" id="Shape"></path>
                                <path d="M247,191.9 L249.8,200.3 L242.6,193.8 L239.1,195.9 C238.4,195.4 237.8,194.8 237.1,194.3 C237.7,193.3 238.2,192.3 238.8,191.3 L235.2,183.2 L241.5,187.9 L244.2,180.3 L245.6,188.3 L252.6,186.3 L247,191.9 L247,191.9 Z" id="Shape"></path>
                                <path d="M311.1,182.1 C312,184.9 313,187.7 313.9,190.5 L306.7,184 L298.9,188.8 C300.2,186.4 301.6,183.9 302.9,181.5 L302.5,180.6 C304.7,180 307.1,179.1 309.6,178 L309.7,178.4 L316.8,176.4 L311.1,182.1 L311.1,182.1 Z" id="Shape"></path>
                                <path d="M362.9,167 C362.7,167.2 362.6,167.4 362.4,167.6 L361.8,166.2 L362.9,167 L362.9,167 Z" id="Shape"></path>
                            </g>
                            <path d="M229,337.3 C204.1,340 173.6,341.1 139.2,337.3 C124.2,335.7 110.3,333.3 97.5,330.5 C100.2,306.4 112.9,235.6 167.4,219.9 C198.3,211 216.1,212.8 228,216.8 C227.8,226.9 227.8,235.6 227.8,242.6 C227.8,251.5 227.9,258.5 228.3,284.3 C228.4,302 228.7,319.6 229,337.3 L229,337.3 Z" id="Shape" fill="url(#linearGradient-21)" opacity="0.4"></path>
                            <path d="M94.4,165.5 C94.4,165.5 94.3,165.6 94.2,165.7 C82.2,163.2 63.9,158.2 44.4,147.4 C24.9,136.7 10.8,128.9 3.8,112.8 C-3.8,95.4 1.3,78.8 9,54.2 C10.2,81.1 22.3,129.3 94.4,165.5 L94.4,165.5 Z" id="Shape" fill="url(#linearGradient-22)" opacity="0.4"></path>
                            <path d="M393.7,174.4 C387.8,181.7 381.1,189.4 373.4,197.1 C368.2,202.4 363,207.3 358,211.7 C352.3,217.6 328.8,240.4 300.4,236.1 C291.3,234.7 284.8,231 276.9,226.4 C265.1,219.5 246.5,206.3 229.1,181.8 C228.8,177.6 229,174.4 230.6,173.6 C237.5,170.2 255.4,218.7 294.7,226.4 C301.3,227.7 306.4,227.4 310.1,227.2 C347.7,225.1 377.6,191.3 391.5,172.6 C392.3,173.2 393,173.8 393.7,174.4 L393.7,174.4 Z" id="Shape" fill="url(#linearGradient-23)" opacity="0.4"></path>
                        </g>
                        <g id="head" transform="translate(133.000000, 12.000000)">
                            <path d="M56.9,74.1 C56.8,90.9 56.6,99.4 51.6,102.7 C48.6,104.7 45.4,104.7 39.2,104.7 C38.6,104.7 27.9,104.5 18,98.3 C16.4,97.3 15.7,96.7 15.2,96.2 C10.8,91.9 10.7,85.5 10.6,82.8 C9.9,57.8 4.7,55.7 9.1,45.6 C13.3,35.8 23.8,22.2 36.9,23 C45.2,23.5 50.9,29.4 51.9,30.5 C55.7,34.6 56.6,42.7 56.8,57 L56.8,60.2 C56.9,64.2 56.9,68.9 56.9,74.1 L56.9,74.1 Z" id="face" fill="url(#linearGradient-24)"></path>
                            <g id="neck" transform="translate(10.000000, 88.000000)">
                                <path d="M34.1,46.3 C33.8,46.8 30.3,52.7 23.6,54.4 C16.6,56.1 9.2,52.6 4.9,47.9 C-0.6,41.8 -0.4,32.6 4.96547248e-14,14.6 C0.2,8.3 0.6,3.2 1,-0.3 L34.9,9.7 L34.9,13.8 L34.9,16.6 C35,19.8 35.1,22.7 35.2,25.2 C35.9,37.3 36.9,41.5 34.1,46.3 L34.1,46.3 Z" id="Shape" fill="url(#linearGradient-25)"></path>
                                <path d="M35.3,25.2 C24.4,23.9 15.1,14 14.8,13.6 C20.2,16.7 29.4,16.8 35,16.6 C35.1,19.9 35.2,22.7 35.3,25.2 L35.3,25.2 Z" id="Shape" fill="#153E5C" opacity="0.17"></path>
                            </g>
                            <path d="M41.2,90.6 C39.9,90.6 38.3,90.4 36.6,89.6 C33.1,88 31.5,85 30.9,83.8 C30.8,83.5 30.9,83.1 31.2,83 C31.5,82.9 31.9,83 32,83.3 C32.5,84.4 33.9,87.1 37.1,88.5 C39.3,89.5 41.4,89.5 42.7,89.2 C43,89.1 43.3,89.4 43.4,89.7 C43.5,90 43.2,90.3 42.9,90.4 C42.5,90.6 41.9,90.6 41.2,90.6 L41.2,90.6 Z" id="Shape" fill="#302C34"></path>
                            <g id="eyes" transform="translate(33.000000, 62.000000)" fill="#302C34">
                                <circle id="Oval" cx="2" cy="2" r="2"></circle>
                                <circle id="Oval" cx="18" cy="2" r="2"></circle>
                            </g>
                            <path d="M44.1,62 C44.6,64.1 45.5,67.3 47.3,70.9 C49.7,75.6 52.1,77.8 51.4,79 C50.9,79.9 48.9,80.4 41.7,78.2 C42.5,72.9 43.3,67.5 44.1,62 L44.1,62 Z" id="nose" fill="#B47365"></path>
                            <g id="brows" transform="translate(25.000000, 55.000000)" fill="#302C34">
                                <polygon id="Rectangle-path" transform="translate(7.036101, 2.508353) rotate(-3.190007) translate(-7.036101, -2.508353) " points="0.0357543092 1.00827894 0.0357543092 4.20843764 14.4364684 4.20843764 14.4364684 1.00827894"></polygon>
                                <path d="M31.9,5.1 L21.5,3.5 L22,0.4 L31.9,2 L31.9,5.1 L31.9,5.1 Z" id="Shape"></path>
                            </g>
                            <path d="M54.1,41 C55.8,39.8 61.1,36 64,29 C66.5,22.7 67.3,13.3 63.3,10.6 C63,10.4 61.7,9.5 60.5,9.9 C58.2,10.6 58.8,14.6 55.6,18.4 C54.1,20.2 51.9,21.7 51.4,21.2 C50.2,20.3 58.4,11.8 55.6,5.6 C54.8,3.7 52.8,1.8 51.4,2.1 C49.9,2.4 49.5,4.8 48.6,7.1 C47.5,9.8 45.3,13.4 40.1,17 C40.6,16.2 45.7,8.1 42.2,2.1 C41.6,1.1 41,0.1 40.1,2.31013125e-14 C36.7,-0.4 36.2,11.7 28.1,19.8 C20,27.9 12.9,24.4 6.2,31.8 C4.5,33.7 0.8,38.6 0.5,55.2 C0.2,78.1 6.7,101.5 10.2,101.1 C12.4,100.8 13.3,87.1 15.1,59.7 C15.6,52.7 15.9,46.8 16,42.5 C18.4,43.4 38.9,51.5 54.1,41 L54.1,41 Z" id="hair" fill="#302C34"></path>
                            <circle id="ear" fill="url(#linearGradient-26)" cx="11.5" cy="69.5" r="7.5"></circle>
                        </g>
                    </g>
                </g>
            </g>
        </g>
    </g>
</svg>