<?xml version="1.0" encoding="UTF-8"?>
<svg width="1219px" height="1003px" viewBox="0 0 1219 1003" version="1.1" xmlns="http://www.w3.org/2000/svg" xmlns:xlink="http://www.w3.org/1999/xlink">
    <!-- Generator: Sketch 61.2 (89653) - https://sketch.com -->
    <title>girl photos</title>
    <desc>Created with Sketch.</desc>
    <defs>
        <linearGradient x1="0.00771408171%" y1="49.9928128%" x2="100.009834%" y2="49.9928128%" id="linearGradient-1">
            <stop stop-color="#19233D" offset="47.13%"></stop>
            <stop stop-color="#271C41" offset="100%"></stop>
        </linearGradient>
        <linearGradient x1="0.0242937853%" y1="50.0537016%" x2="100.011473%" y2="50.0537016%" id="linearGradient-2">
            <stop stop-color="#153E5C" offset="22.71%"></stop>
            <stop stop-color="#1C4461" offset="40.85%"></stop>
            <stop stop-color="#BDD3DE" offset="100%"></stop>
        </linearGradient>
        <linearGradient x1="-0.00312216606%" y1="49.9849435%" x2="100.019784%" y2="49.9849435%" id="linearGradient-3">
            <stop stop-color="#153E5C" offset="22.71%"></stop>
            <stop stop-color="#1C4461" offset="40.85%"></stop>
            <stop stop-color="#BDD3DE" offset="100%"></stop>
        </linearGradient>
        <linearGradient x1="-0.0365740741%" y1="50.0739943%" x2="99.7706019%" y2="50.0739943%" id="linearGradient-4">
            <stop stop-color="#5A142A" offset="16.21%"></stop>
            <stop stop-color="#9F6C00" offset="87.67%"></stop>
        </linearGradient>
        <linearGradient x1="51.4237688%" y1="94.6462991%" x2="48.5378392%" y2="10.4403664%" id="linearGradient-5">
            <stop stop-color="#F1F0E2" offset="0%"></stop>
            <stop stop-color="#F0F0E2" offset="43.05%"></stop>
            <stop stop-color="#D3E0DF" offset="100%"></stop>
        </linearGradient>
        <linearGradient x1="51.6110714%" y1="100.884092%" x2="48.536131%" y2="4.72821181%" id="linearGradient-6">
            <stop stop-color="#D3E0DF" offset="0%"></stop>
            <stop stop-color="#D4E1DF" offset="2.997516%"></stop>
            <stop stop-color="#F1F0E2" offset="66.44%"></stop>
        </linearGradient>
        <linearGradient x1="0.0190387959%" y1="50.1401767%" x2="100.023265%" y2="50.1401767%" id="linearGradient-7">
            <stop stop-color="#640042" stop-opacity="0.2" offset="0.478766%"></stop>
            <stop stop-color="#002544" offset="93.88%"></stop>
        </linearGradient>
        <linearGradient x1="0.00841865757%" y1="50.0532584%" x2="100.042093%" y2="50.0532584%" id="linearGradient-8">
            <stop stop-color="#640042" stop-opacity="0.2" offset="0.478766%"></stop>
            <stop stop-color="#002544" offset="93.88%"></stop>
        </linearGradient>
        <linearGradient x1="0.109137079%" y1="50.0821364%" x2="100.009008%" y2="50.0821364%" id="linearGradient-9">
            <stop stop-color="#640042" stop-opacity="0.2" offset="0.478766%"></stop>
            <stop stop-color="#002544" offset="93.88%"></stop>
        </linearGradient>
        <linearGradient x1="0.0305873279%" y1="49.9845368%" x2="99.9640523%" y2="49.9845368%" id="linearGradient-10">
            <stop stop-color="#FFFFFF" offset="0.1159261%"></stop>
            <stop stop-color="#002544" offset="100%"></stop>
        </linearGradient>
        <linearGradient x1="0.0190831159%" y1="49.9685286%" x2="99.9499068%" y2="49.9685286%" id="linearGradient-11">
            <stop stop-color="#FFFFFF" offset="0%"></stop>
            <stop stop-color="#87AEB4" offset="77.81%"></stop>
        </linearGradient>
        <linearGradient x1="0.120076713%" y1="50.1511155%" x2="100.050319%" y2="50.1511155%" id="linearGradient-12">
            <stop stop-color="#640042" stop-opacity="0.2" offset="0.478766%"></stop>
            <stop stop-color="#002544" offset="93.88%"></stop>
        </linearGradient>
        <linearGradient x1="1.8159727%" y1="58.0323694%" x2="95.4678504%" y2="32.8008428%" id="linearGradient-13">
            <stop stop-color="#640042" stop-opacity="0.2" offset="0.478766%"></stop>
            <stop stop-color="#002544" offset="93.88%"></stop>
        </linearGradient>
        <linearGradient x1="-7.84415542%" y1="72.3069015%" x2="108.156476%" y2="34.5794493%" id="linearGradient-14">
            <stop stop-color="#FFFFFF" offset="0%"></stop>
            <stop stop-color="#87AEB4" offset="77.81%"></stop>
        </linearGradient>
        <linearGradient x1="-0.0252446184%" y1="50.0764843%" x2="100.133855%" y2="50.0764843%" id="linearGradient-15">
            <stop stop-color="#002544" offset="0%"></stop>
            <stop stop-color="#00172A" offset="19.24%"></stop>
            <stop stop-color="#000A13" offset="41.74%"></stop>
            <stop stop-color="#000305" offset="62.87%"></stop>
            <stop stop-color="#000000" offset="81.06%"></stop>
        </linearGradient>
        <linearGradient x1="-0.0248999199%" y1="49.981155%" x2="99.9611689%" y2="49.981155%" id="linearGradient-16">
            <stop stop-color="#002544" offset="0%"></stop>
            <stop stop-color="#00172A" offset="19.24%"></stop>
            <stop stop-color="#000A13" offset="41.74%"></stop>
            <stop stop-color="#000305" offset="62.87%"></stop>
            <stop stop-color="#000000" offset="81.06%"></stop>
        </linearGradient>
        <linearGradient x1="-1.17987774%" y1="51.7687608%" x2="100.655289%" y2="48.5605864%" id="linearGradient-17">
            <stop stop-color="#153E5C" offset="0%"></stop>
            <stop stop-color="#AAC0DC" offset="99.56%"></stop>
        </linearGradient>
        <linearGradient x1="0.137869422%" y1="50.5228498%" x2="99.5308869%" y2="49.3628616%" id="linearGradient-18">
            <stop stop-color="#153E5C" offset="0%"></stop>
            <stop stop-color="#AAC0DC" offset="99.56%"></stop>
        </linearGradient>
        <linearGradient x1="0.042116621%" y1="50.0116803%" x2="100.014477%" y2="50.0116803%" id="linearGradient-19">
            <stop stop-color="#153E5C" offset="0%"></stop>
            <stop stop-color="#271C41" offset="100%"></stop>
        </linearGradient>
        <linearGradient x1="0.00390311761%" y1="49.9741304%" x2="100.001172%" y2="49.9741304%" id="linearGradient-20">
            <stop stop-color="#153E5C" offset="0%"></stop>
            <stop stop-color="#271C41" offset="100%"></stop>
        </linearGradient>
        <linearGradient x1="0.000294912914%" y1="50.1527304%" x2="99.9965642%" y2="50.1527304%" id="linearGradient-21">
            <stop stop-color="#FFFFFF" offset="0%"></stop>
            <stop stop-color="#87AEB4" offset="77.81%"></stop>
        </linearGradient>
        <linearGradient x1="-0.0717342342%" y1="49.9869672%" x2="99.9510135%" y2="49.9869672%" id="linearGradient-22">
            <stop stop-color="#FFFFFF" offset="0%"></stop>
            <stop stop-color="#87AEB4" offset="77.81%"></stop>
        </linearGradient>
        <linearGradient x1="-6.90026776%" y1="25.0799522%" x2="109.264282%" y2="71.1561763%" id="linearGradient-23">
            <stop stop-color="#19233D" offset="47.13%"></stop>
            <stop stop-color="#271C41" offset="100%"></stop>
        </linearGradient>
        <linearGradient x1="-0.0717961264%" y1="49.9134053%" x2="100.12998%" y2="49.9134053%" id="linearGradient-24">
            <stop stop-color="#691B26" offset="15.45%"></stop>
            <stop stop-color="#CD907F" offset="87.31%"></stop>
        </linearGradient>
        <linearGradient x1="0.420779221%" y1="49.936106%" x2="100.094184%" y2="49.936106%" id="linearGradient-25">
            <stop stop-color="#691B26" offset="15.45%"></stop>
            <stop stop-color="#CD907F" offset="87.31%"></stop>
        </linearGradient>
    </defs>
    <g id="Page-1" stroke="none" stroke-width="1" fill="none" fill-rule="evenodd">
        <g id="girl-photos">
            <g id="background">
                <g id="general_1_">
                    <path d="M1216.3,884.3 L10.9,884.3 C9.9,884.3 9.1,883.5 9.1,882.5 C9.1,881.5 9.9,880.7 10.9,880.7 L1216.4,880.7 C1217.4,880.7 1218.2,881.5 1218.2,882.5 C1218.1,883.5 1217.3,884.3 1216.3,884.3 L1216.3,884.3 Z" id="floor_line" fill="#EEEDEE"></path>
                    <g id="frame_1_" transform="translate(302.000000, 0.000000)">
                        <path d="M438.9,120 L438.9,884.5 L0.3,884.5 L0.3,120 C1.7,117.8 11.8,102.8 30.2,84.1 C31.5,82.8 32.8,81.4 34.2,80.1 C62.3,52.4 107.4,18.5 168.2,5.4 C169.5,5.1 170.9,4.8 172.2,4.6 C187.2,1.6 203.1,-7.99360578e-15 219.9,-7.99360578e-15 L219.9,-7.99360578e-15 C222.4,-7.99360578e-15 225,-7.99360578e-15 227.6,0.1 C254.7,0.9 279.3,5.9 301.2,13.5 C302.5,14 303.9,14.4 305.2,14.9 C306.4,15.3 307.7,15.8 308.9,16.3 C379.4,43.4 426.1,102.4 432.5,110.7 C432.7,111 433,111.4 433.2,111.7 C435.7,115.1 437.6,117.9 438.6,119.4 C438.7,119.7 438.8,119.9 438.9,120 L438.9,120 Z" id="sky" fill="#EEEDEE"></path>
                        <path d="M438.9,120 L438.9,884.5 L0.3,884.5 L0.3,120 C1.7,117.8 11.8,102.8 30.2,84.1 C31.5,82.8 32.8,81.4 34.2,80.1 C62.3,52.4 107.4,18.5 168.2,5.4 C169.5,5.1 170.9,4.8 172.2,4.6 C187.2,1.6 203.1,-7.99360578e-15 219.9,-7.99360578e-15 L219.9,-7.99360578e-15 C222.4,-7.99360578e-15 225,-7.99360578e-15 227.6,0.1 C254.7,0.9 279.3,5.9 301.2,13.5 C302.5,14 303.9,14.4 305.2,14.9 C306.4,15.3 307.7,15.8 308.9,16.3 C379.4,43.4 426.1,102.4 432.5,110.7 C432.7,111 433,111.4 433.2,111.7 C435.7,115.1 437.6,117.9 438.6,119.4 C438.7,119.7 438.8,119.9 438.9,120 L438.9,120 Z" id="sky_1_" fill="#BDD3DE" opacity="0.42"></path>
                        <g id="clouds" transform="translate(0.000000, 131.000000)" fill="#FFFFFF">
                            <path d="M277.1,185 L21.1,185 C21.1,185 11.3,184.6 0.3,184.3 L0.3,76.5 C13.8,72.5 26.6,74 38.2,78.2 C67.4,88.6 88.1,116.1 88.1,116.1 C129.1,87.1 172.1,142.1 172.1,142.1 C180.8,135.6 190.6,133.9 200.7,135.3 C213.5,137 226.8,143.7 238.6,151.6 C260.3,166.2 277.1,185 277.1,185 L277.1,185 Z" id="Shape"></path>
                            <path d="M438.9,2.8 L438.9,63 L320.1,63 C320.1,63 352.1,23 374.1,31 C374.1,31 381.7,12.8 401,4.5 C410.6,0.4 423.1,-1.3 438.9,2.8 L438.9,2.8 Z" id="Shape"></path>
                            <path d="M148.1,438 L365.1,438 C364.1,434.7 358.2,415.4 338.1,405 C316.6,393.9 296.1,401.8 293.1,403 C290.3,399.2 282.1,389.2 267.9,385.2 C242.8,378.3 222.5,396.7 221.1,398 C205,388.8 185.3,389.2 170.1,399 C149.7,412.2 148.2,435.7 148.1,438 L148.1,438 Z" id="Shape"></path>
                        </g>
                        <g id="frame_2_" fill="#EBDEDE">
                            <path d="M438.6,119.5 C438.2,119 437.8,118.3 437.2,117.4 C436.9,117 436.6,116.5 436.2,116 C435.4,114.8 434.4,113.4 433.2,111.8 C433,111.5 432.7,111.1 432.5,110.8 C417.2,90.4 377.1,43.7 313,18 C311.6,17.4 310.2,16.9 308.9,16.4 C307.7,15.9 306.5,15.5 305.2,15 C303.9,14.5 302.5,14 301.2,13.6 C279.2,6 254.7,1 227.6,0.2 C224.9,0 222.4,0 219.8,0 L219.8,0 C203,0 187.1,1.7 172.1,4.6 C170.8,4.9 169.4,5.1 168.1,5.4 C107.3,18.4 62.2,52.4 34.1,80.1 C32.7,81.4 31.4,82.8 30.1,84.1 C11.8,102.8 1.7,117.8 0.2,120 L0.2,884.5 L438.9,884.5 L438.9,120 C438.8,119.9 438.7,119.7 438.6,119.5 L438.6,119.5 Z M200.7,846.6 L38.2,846.6 L38.2,132.3 C46,122.3 61.2,104.6 83.2,87.3 C101.7,72.7 121.4,61.2 141.8,53 C150.4,49.5 159.2,46.6 168.1,44.4 C169.4,44.1 170.8,43.7 172.1,43.4 C181.5,41.2 191,39.6 200.6,38.8 L200.6,846.6 L200.7,846.6 Z M401,846.6 L238.6,846.6 L238.6,38.7 C260.2,40.6 281.2,45.7 301.2,54 C301.3,54 301.4,54.1 301.5,54.1 C302.7,54.6 304,55.1 305.2,55.7 C323.4,63.7 341,74.4 357.4,87.5 C375.6,102.1 388.9,116.8 397.2,127.1 C398.6,128.9 399.9,130.5 401,132 L401,846.6 L401,846.6 Z" id="Shape"></path>
                        </g>
                    </g>
                    <g id="pot_and_plant" transform="translate(0.000000, 242.000000)">
                        <path d="M272.2,45 C236.3,66.7 242.1,84.2 245.1,89.5 C241,102.3 236.9,115.1 232.6,127.8 C224.8,114.8 208.4,116.1 198.6,118.3 C200.7,111.4 202.8,104.6 205,97.8 C226,78.4 200.1,46.5 200.1,46.5 C181,85.1 196.7,96.3 201.7,98.8 C199.5,105.6 197.4,112.3 195.4,119.1 C192.7,119.9 191,120.5 191,120.5 C192.1,121.5 193.1,122.4 194.1,123.3 C190.5,135.3 186.9,147.4 183.5,159.5 C173.9,145.1 150.1,154.3 150.1,154.3 C166.6,169.7 176.5,168.9 181.5,166.4 C171.9,200.8 163.2,235.4 155.5,270.2 C151.1,262.5 139.6,263.4 136,263.9 C136.8,252 137.5,240.1 138.3,228.1 C153.8,235.9 167.5,214.9 167.5,214.9 C149.5,212.5 142,216.8 138.8,220.9 C140,203.4 141.2,185.9 142.4,168.4 C142.5,168.2 142.6,168.1 142.6,168.1 L142.5,168.1 C143.9,149.3 145.2,130.4 146.7,111.6 C166.1,119.1 177.8,92 177.8,92 C157.2,92.8 149.8,99.2 147.3,104.4 C148.7,86.8 150.1,69.1 151.5,51.6 C176.1,35.6 154.5,-0.3 154.5,-0.3 C130.4,35 143.9,48.3 148.6,51.6 C146.3,79.7 144.1,107.8 142,136.1 C130.9,116.3 100,128.2 100,128.2 C124.3,151 137.1,144.9 141.6,141.2 C140.9,150.1 140.3,159.1 139.6,168 C114.4,168.2 106.3,176.6 103.7,182.8 C100.8,152.7 97.5,122.7 93.8,92.9 C116.5,69.1 83.6,36 83.6,36 C66.7,80.7 85.1,91.4 91,93.5 C94.1,118.3 96.9,143.2 99.4,168.2 C92.4,156.6 72.7,160.4 72.7,160.4 C86.9,179.5 96.6,176.5 100,174.5 C102,195.2 103.8,215.8 105.4,236.5 C89.4,243 84,250.5 82.5,256.2 C77,221.8 70,187.5 61.6,153.6 C86.8,152.3 86.5,116.6 86.5,116.6 C66.5,126.4 60.3,136 58.9,142.9 C51.8,115.3 43.6,88 34.5,61 C57.3,46 37.2,12.6 37.2,12.6 C15,45.2 27,57.8 31.6,61.1 C36.7,76.1 41.4,91.2 45.9,106.3 C31.7,89 0,99.8 0,99.8 C28.3,129.7 44.1,121.2 49,117 C56.9,144.8 63.8,172.9 69.7,201.1 C64.7,196.7 52.7,191.9 27.6,208.4 C27.6,208.4 56.6,225.8 71,207.4 C78.2,243 83.8,278.9 87.7,314.9 C84.1,309.4 75.1,303.1 52.5,303.8 C52.5,303.8 67.5,332.9 88.6,323.7 C88.9,326.7 89.2,329.8 89.5,332.8 C90.1,339.2 90.7,345.6 91.1,352 C92.6,371.9 93.7,391.9 94.2,411.9 L94.2,413.4 C94.7,432.8 94.7,452.2 94.3,471.6 L94.3,473.1 C93.9,488.4 93.3,503.7 92.3,518.9 C92.3,519.7 92.8,520.4 93.6,520.4 L93.7,520.4 C94.5,520.4 95.1,519.8 95.1,519 C96.1,503.7 96.7,488.4 97.1,473 L97.1,471.5 C97.6,452.1 97.5,432.7 97,413.3 L97,411.8 C96.5,391.8 95.4,371.8 93.9,351.9 C93.4,345.4 92.9,338.9 92.2,332.4 C90.1,309.9 87.3,287.5 84,265.2 C95.6,266.2 102.5,258.7 106.5,250.8 C107.3,261.4 108,271.9 108.6,282.5 C103.1,273.9 88.3,276.8 88.3,276.8 C98.8,290.9 106.1,289.3 108.9,287.8 C109.9,304.7 110.8,321.5 111.5,338.3 C111.7,342.8 111.9,347.3 112,351.8 C112.8,371.7 113.3,391.7 113.7,411.7 L113.7,413.2 C114,432.6 114.2,452 114.1,471.4 L114.1,472.9 C114.1,489.7 113.9,506.4 113.6,523.1 C113.6,523.9 114.2,524.6 115,524.6 L115,524.6 C115.4,524.6 115.8,524.4 116.1,524.1 C116.3,524.4 116.7,524.6 117,524.6 L117.1,524.6 C117.8,524.6 118.4,524.1 118.5,523.3 C119.1,517 119.7,510.7 120.3,504.4 C120.2,507.5 120,510.7 119.9,513.8 C119.9,514.6 120.5,515.3 121.3,515.3 L121.4,515.3 C122.2,515.3 122.8,514.7 122.8,513.9 C123,508.6 123.2,503.3 123.5,498 C123.7,497.8 123.9,497.5 123.9,497.2 C124.9,489.1 126,481 127.3,472.9 C127.4,472.4 127.4,471.9 127.5,471.4 C129.5,458.6 131.8,445.9 134.3,433.2 C134.8,430.9 135.2,428.6 135.7,426.3 C136.6,422 137.6,417.6 138.5,413.3 C138.6,412.8 138.7,412.3 138.8,411.8 C142.9,394 147.5,376.3 152.8,358.7 C153.5,356.4 154.2,354.1 154.9,351.8 C162.2,328.1 169.1,309.7 177.8,287 C195.6,297.5 211.6,272.9 211.6,272.9 C194.4,270.6 185.7,273.8 181.3,277.7 C184.1,270.4 187.1,262.5 190.4,253.8 C192.7,252.8 194.2,252 194.2,252 C193.3,251.4 192.5,250.9 191.7,250.4 C193,247 194.3,243.5 195.7,239.9 C200.3,227.7 204.8,215.4 209.2,203 C215.7,201.1 220.4,198.6 220.4,198.6 C217.6,196.6 215.1,194.9 212.6,193.4 C214.4,188.5 216.1,183.5 217.8,178.6 C220.9,181.5 229.7,185.8 247.4,171.4 C247.4,171.4 229.9,163.1 220.2,171.8 C224.9,158.4 229.4,145 233.9,131.5 C233.9,131.4 234,131.4 234,131.4 L234,131.4 C238.5,118 242.9,104.5 247.2,91 C277,86.9 272.2,45 272.2,45 L272.2,45 Z M154.5,275.6 C151.9,287.2 149.5,298.7 147.2,310.3 C141.8,309.8 137.2,309.8 133.4,310.2 C134.3,295.3 135.2,280.4 136.1,265.4 C144.7,276.5 151.1,276.7 154.5,275.6 L154.5,275.6 Z M129.1,413.4 C128.3,418.5 127.6,423.5 126.9,428.6 C127.1,423.5 127.4,418.5 127.7,413.4 C127.7,412.9 127.7,412.4 127.8,411.9 C128.8,391.9 129.8,371.9 130.9,352 C131.2,347 131.5,342 131.7,337 C131.9,333.8 132.1,330.7 132.2,327.5 C137.6,325.1 142.3,321 145.6,317.4 C143.3,328.9 141.2,340.4 139.1,351.9 C138,357.9 137,363.8 136,369.8 C135.5,372.6 135,375.4 134.6,378.2 L134.6,378.3 C132.8,389.4 131,400.6 129.3,411.8 C129.3,412.4 129.2,412.9 129.1,413.4 L129.1,413.4 Z M109.1,245.2 C111.2,239.3 111.9,234.4 111.9,234.4 C110.7,234.8 109.5,235.2 108.4,235.6 C107.2,220.5 105.9,205.3 104.5,190.2 C120.8,196.9 133.5,182.4 139.3,173.9 C136.1,219.5 133.1,265.2 130.4,310.6 C120.4,312.2 115.8,316.5 113.7,320.2 C112.5,295.2 110.9,270.2 109.1,245.2 L109.1,245.2 Z M121.2,473 C119.6,486.6 118.1,500.2 116.8,513.8 C117,500.2 117.1,486.6 117.2,473 L117.2,471.5 C117.2,452.1 117.1,432.7 116.7,413.3 L116.7,411.8 C116.4,391.8 115.8,371.8 115,351.9 C114.8,347.3 114.6,342.8 114.5,338.2 C114.3,334.5 114.2,330.9 114,327.2 C119.4,330 124.6,330 129.3,328.5 C129.1,331.3 129,334 128.8,336.7 C128.5,341.7 128.2,346.8 128,351.8 C126.9,371.7 125.9,391.7 124.9,411.7 C124.9,412.2 124.9,412.7 124.8,413.2 C124,429.6 123.2,446 122.5,462.4 C122.1,465.4 121.8,468.4 121.4,471.4 C121.4,472 121.3,472.5 121.2,473 L121.2,473 Z M178.6,278 C176.1,284.6 173.7,290.7 171.4,296.6 C167.6,290.7 157.3,292.7 157.3,292.7 C162.9,300.2 167.2,301.3 169.8,300.9 C163.5,317.7 158,333.1 152.2,352 C151.6,354 151,356 150.4,358 C145.1,375.8 140.4,393.8 136.3,411.9 C136.2,412.3 136.1,412.6 136.1,413 C136.1,413.1 136,413.2 136,413.4 C135.5,415.4 135.1,417.4 134.7,419.5 C130.9,436.6 127.7,453.8 125.1,471 C125.2,468.3 125.3,465.6 125.5,462.8 C127.5,446.3 129.7,429.8 132.2,413.4 C132.3,412.9 132.3,412.4 132.4,411.9 C133.2,406.7 133.9,401.5 134.8,396.4 C135.3,393.4 135.7,390.4 136.2,387.4 C136.7,384.5 137.1,381.6 137.6,378.7 C139.1,369.8 140.6,360.9 142.2,352 C144.5,339 147,326 149.6,313 C150.6,311.6 151.2,310.8 151.2,310.8 C150.8,310.8 150.4,310.7 150.1,310.7 C154.1,290.7 158.5,270.7 163.1,250.7 C169.4,259.3 180.2,257.8 187.3,255.4 C184.2,263.6 181.3,271.1 178.6,278 L178.6,278 Z M198.2,226.4 C193.2,216.6 177.3,219.7 177.3,219.7 C186.2,231.7 192.8,232.3 196.3,231.3 C195.3,233.9 194.4,236.5 193.4,239.1 C192.1,242.6 190.9,245.9 189.6,249.1 C174.9,240.4 167.4,243.4 164,246.2 C168.1,229 172.3,211.9 176.9,194.8 C184.1,206 196.5,206.2 206.3,204 C203.6,211.5 200.9,219 198.2,226.4 L198.2,226.4 Z M210.6,192.1 C191.4,181.5 181.9,186.8 178.1,190.5 C180.5,181.5 183,172.4 185.5,163.4 C185.6,163.3 185.6,163.2 185.6,163.2 L185.6,163.1 C189.2,150.4 192.8,137.8 196.6,125.2 C214.2,139.6 224.9,137.9 230.3,135 C223.8,154.3 217.3,173.3 210.6,192.1 L210.6,192.1 Z" id="plant" fill="#EEEDEE"></path>
                        <path d="M272.2,45 C236.3,66.7 242.1,84.2 245.1,89.5 C241,102.3 236.9,115.1 232.6,127.8 C224.8,114.8 208.4,116.1 198.6,118.3 C200.7,111.4 202.8,104.6 205,97.8 C226,78.4 200.1,46.5 200.1,46.5 C181,85.1 196.7,96.3 201.7,98.8 C199.5,105.6 197.4,112.3 195.4,119.1 C192.7,119.9 191,120.5 191,120.5 C192.1,121.5 193.1,122.4 194.1,123.3 C190.5,135.3 186.9,147.4 183.5,159.5 C173.9,145.1 150.1,154.3 150.1,154.3 C166.6,169.7 176.5,168.9 181.5,166.4 C171.9,200.8 163.2,235.4 155.5,270.2 C151.1,262.5 139.6,263.4 136,263.9 C136.8,252 137.5,240.1 138.3,228.1 C153.8,235.9 167.5,214.9 167.5,214.9 C149.5,212.5 142,216.8 138.8,220.9 C140,203.4 141.2,185.9 142.4,168.4 C142.5,168.2 142.6,168.1 142.6,168.1 L142.5,168.1 C143.9,149.3 145.2,130.4 146.7,111.6 C166.1,119.1 177.8,92 177.8,92 C157.2,92.8 149.8,99.2 147.3,104.4 C148.7,86.8 150.1,69.1 151.5,51.6 C176.1,35.6 154.5,-0.3 154.5,-0.3 C130.4,35 143.9,48.3 148.6,51.6 C146.3,79.7 144.1,107.8 142,136.1 C130.9,116.3 100,128.2 100,128.2 C124.3,151 137.1,144.9 141.6,141.2 C140.9,150.1 140.3,159.1 139.6,168 C114.4,168.2 106.3,176.6 103.7,182.8 C100.8,152.7 97.5,122.7 93.8,92.9 C116.5,69.1 83.6,36 83.6,36 C66.7,80.7 85.1,91.4 91,93.5 C94.1,118.3 96.9,143.2 99.4,168.2 C92.4,156.6 72.7,160.4 72.7,160.4 C86.9,179.5 96.6,176.5 100,174.5 C102,195.2 103.8,215.8 105.4,236.5 C89.4,243 84,250.5 82.5,256.2 C77,221.8 70,187.5 61.6,153.6 C86.8,152.3 86.5,116.6 86.5,116.6 C66.5,126.4 60.3,136 58.9,142.9 C51.8,115.3 43.6,88 34.5,61 C57.3,46 37.2,12.6 37.2,12.6 C15,45.2 27,57.8 31.6,61.1 C36.7,76.1 41.4,91.2 45.9,106.3 C31.7,89 0,99.8 0,99.8 C28.3,129.7 44.1,121.2 49,117 C56.9,144.8 63.8,172.9 69.7,201.1 C64.7,196.7 52.7,191.9 27.6,208.4 C27.6,208.4 56.6,225.8 71,207.4 C78.2,243 83.8,278.9 87.7,314.9 C84.1,309.4 75.1,303.1 52.5,303.8 C52.5,303.8 67.5,332.9 88.6,323.7 C88.9,326.7 89.2,329.8 89.5,332.8 C90.1,339.2 90.7,345.6 91.1,352 C92.6,371.9 93.7,391.9 94.2,411.9 L94.2,413.4 C94.7,432.8 94.7,452.2 94.3,471.6 L94.3,473.1 C93.9,488.4 93.3,503.7 92.3,518.9 C92.3,519.7 92.8,520.4 93.6,520.4 L93.7,520.4 C94.5,520.4 95.1,519.8 95.1,519 C96.1,503.7 96.7,488.4 97.1,473 L97.1,471.5 C97.6,452.1 97.5,432.7 97,413.3 L97,411.8 C96.5,391.8 95.4,371.8 93.9,351.9 C93.4,345.4 92.9,338.9 92.2,332.4 C90.1,309.9 87.3,287.5 84,265.2 C95.6,266.2 102.5,258.7 106.5,250.8 C107.3,261.4 108,271.9 108.6,282.5 C103.1,273.9 88.3,276.8 88.3,276.8 C98.8,290.9 106.1,289.3 108.9,287.8 C109.9,304.7 110.8,321.5 111.5,338.3 C111.7,342.8 111.9,347.3 112,351.8 C112.8,371.7 113.3,391.7 113.7,411.7 L113.7,413.2 C114,432.6 114.2,452 114.1,471.4 L114.1,472.9 C114.1,489.7 113.9,506.4 113.6,523.1 C113.6,523.9 114.2,524.6 115,524.6 L115,524.6 C115.4,524.6 115.8,524.4 116.1,524.1 C116.3,524.4 116.7,524.6 117,524.6 L117.1,524.6 C117.8,524.6 118.4,524.1 118.5,523.3 C119.1,517 119.7,510.7 120.3,504.4 C120.2,507.5 120,510.7 119.9,513.8 C119.9,514.6 120.5,515.3 121.3,515.3 L121.4,515.3 C122.2,515.3 122.8,514.7 122.8,513.9 C123,508.6 123.2,503.3 123.5,498 C123.7,497.8 123.9,497.5 123.9,497.2 C124.9,489.1 126,481 127.3,472.9 C127.4,472.4 127.4,471.9 127.5,471.4 C129.5,458.6 131.8,445.9 134.3,433.2 C134.8,430.9 135.2,428.6 135.7,426.3 C136.6,422 137.6,417.6 138.5,413.3 C138.6,412.8 138.7,412.3 138.8,411.8 C142.9,394 147.5,376.3 152.8,358.7 C153.5,356.4 154.2,354.1 154.9,351.8 C162.2,328.1 169.1,309.7 177.8,287 C195.6,297.5 211.6,272.9 211.6,272.9 C194.4,270.6 185.7,273.8 181.3,277.7 C184.1,270.4 187.1,262.5 190.4,253.8 C192.7,252.8 194.2,252 194.2,252 C193.3,251.4 192.5,250.9 191.7,250.4 C193,247 194.3,243.5 195.7,239.9 C200.3,227.7 204.8,215.4 209.2,203 C215.7,201.1 220.4,198.6 220.4,198.6 C217.6,196.6 215.1,194.9 212.6,193.4 C214.4,188.5 216.1,183.5 217.8,178.6 C220.9,181.5 229.7,185.8 247.4,171.4 C247.4,171.4 229.9,163.1 220.2,171.8 C224.9,158.4 229.4,145 233.9,131.5 C233.9,131.4 234,131.4 234,131.4 L234,131.4 C238.5,118 242.9,104.5 247.2,91 C277,86.9 272.2,45 272.2,45 L272.2,45 Z M154.5,275.6 C151.9,287.2 149.5,298.7 147.2,310.3 C141.8,309.8 137.2,309.8 133.4,310.2 C134.3,295.3 135.2,280.4 136.1,265.4 C144.7,276.5 151.1,276.7 154.5,275.6 L154.5,275.6 Z M129.1,413.4 C128.3,418.5 127.6,423.5 126.9,428.6 C127.1,423.5 127.4,418.5 127.7,413.4 C127.7,412.9 127.7,412.4 127.8,411.9 C128.8,391.9 129.8,371.9 130.9,352 C131.2,347 131.5,342 131.7,337 C131.9,333.8 132.1,330.7 132.2,327.5 C137.6,325.1 142.3,321 145.6,317.4 C143.3,328.9 141.2,340.4 139.1,351.9 C138,357.9 137,363.8 136,369.8 C135.5,372.6 135,375.4 134.6,378.2 L134.6,378.3 C132.8,389.4 131,400.6 129.3,411.8 C129.3,412.4 129.2,412.9 129.1,413.4 L129.1,413.4 Z M109.1,245.2 C111.2,239.3 111.9,234.4 111.9,234.4 C110.7,234.8 109.5,235.2 108.4,235.6 C107.2,220.5 105.9,205.3 104.5,190.2 C120.8,196.9 133.5,182.4 139.3,173.9 C136.1,219.5 133.1,265.2 130.4,310.6 C120.4,312.2 115.8,316.5 113.7,320.2 C112.5,295.2 110.9,270.2 109.1,245.2 L109.1,245.2 Z M121.2,473 C119.6,486.6 118.1,500.2 116.8,513.8 C117,500.2 117.1,486.6 117.2,473 L117.2,471.5 C117.2,452.1 117.1,432.7 116.7,413.3 L116.7,411.8 C116.4,391.8 115.8,371.8 115,351.9 C114.8,347.3 114.6,342.8 114.5,338.2 C114.3,334.5 114.2,330.9 114,327.2 C119.4,330 124.6,330 129.3,328.5 C129.1,331.3 129,334 128.8,336.7 C128.5,341.7 128.2,346.8 128,351.8 C126.9,371.7 125.9,391.7 124.9,411.7 C124.9,412.2 124.9,412.7 124.8,413.2 C124,429.6 123.2,446 122.5,462.4 C122.1,465.4 121.8,468.4 121.4,471.4 C121.4,472 121.3,472.5 121.2,473 L121.2,473 Z M178.6,278 C176.1,284.6 173.7,290.7 171.4,296.6 C167.6,290.7 157.3,292.7 157.3,292.7 C162.9,300.2 167.2,301.3 169.8,300.9 C163.5,317.7 158,333.1 152.2,352 C151.6,354 151,356 150.4,358 C145.1,375.8 140.4,393.8 136.3,411.9 C136.2,412.3 136.1,412.6 136.1,413 C136.1,413.1 136,413.2 136,413.4 C135.5,415.4 135.1,417.4 134.7,419.5 C130.9,436.6 127.7,453.8 125.1,471 C125.2,468.3 125.3,465.6 125.5,462.8 C127.5,446.3 129.7,429.8 132.2,413.4 C132.3,412.9 132.3,412.4 132.4,411.9 C133.2,406.7 133.9,401.5 134.8,396.4 C135.3,393.4 135.7,390.4 136.2,387.4 C136.7,384.5 137.1,381.6 137.6,378.7 C139.1,369.8 140.6,360.9 142.2,352 C144.5,339 147,326 149.6,313 C150.6,311.6 151.2,310.8 151.2,310.8 C150.8,310.8 150.4,310.7 150.1,310.7 C154.1,290.7 158.5,270.7 163.1,250.7 C169.4,259.3 180.2,257.8 187.3,255.4 C184.2,263.6 181.3,271.1 178.6,278 L178.6,278 Z M198.2,226.4 C193.2,216.6 177.3,219.7 177.3,219.7 C186.2,231.7 192.8,232.3 196.3,231.3 C195.3,233.9 194.4,236.5 193.4,239.1 C192.1,242.6 190.9,245.9 189.6,249.1 C174.9,240.4 167.4,243.4 164,246.2 C168.1,229 172.3,211.9 176.9,194.8 C184.1,206 196.5,206.2 206.3,204 C203.6,211.5 200.9,219 198.2,226.4 L198.2,226.4 Z M210.6,192.1 C191.4,181.5 181.9,186.8 178.1,190.5 C180.5,181.5 183,172.4 185.5,163.4 C185.6,163.3 185.6,163.2 185.6,163.2 L185.6,163.1 C189.2,150.4 192.8,137.8 196.6,125.2 C214.2,139.6 224.9,137.9 230.3,135 C223.8,154.3 217.3,173.3 210.6,192.1 L210.6,192.1 Z" id="plant_3_" fill="#BDD3DE" opacity="0.42"></path>
                        <path d="M183.3,370.7 L183.3,707.2 C179.5,709 173.7,711.5 166.1,713.8 C165.6,714 165.1,714.1 164.7,714.2 C156.8,716.6 147.2,718.7 136,719.7 C135.5,719.7 135,719.8 134.6,719.8 C131.8,720 128.9,720.2 126,720.2 C117.7,720.4 110.1,719.9 103.1,718.9 C102.6,718.8 102.1,718.8 101.7,718.7 C90,717 80.3,714.2 73.1,711.5 C72.6,711.3 72.1,711.2 71.7,711 C67.8,709.5 64.6,708.1 62.4,707.1 L62.4,370.7 L91,370.7 L91,352 L155.5,352 L155.5,370.6 L183.3,370.6 L183.3,370.7 Z" id="Shape" fill="#EEEDEE"></path>
                    </g>
                    <g id="lines" transform="translate(62.000000, 594.000000)" fill="#FFFFFF">
                        <path d="M11,18.7 L11,359.6 C10.5,359.4 10,359.3 9.6,359.1 L9.6,18.7 L11,18.7 L11,18.7 Z" id="Shape"></path>
                        <path d="M41.1,0 L41.1,367 C40.6,366.9 40.1,366.9 39.7,366.8 L39.7,0 L41.1,0 L41.1,0 Z" id="Shape"></path>
                        <polygon id="Rectangle-path" points="73 0 73 368.8 74.4 368.8 74.4 0"></polygon>
                        <polygon id="Rectangle-path" points="0 60 0 61.5 121.1 61.5 121.1 60"></polygon>
                        <polygon id="Rectangle-path" points="0 120 0 121.5 121.1 121.5 121.1 120"></polygon>
                        <polygon id="Rectangle-path" points="0 179 0 180.5 121.1 180.5 121.1 179"></polygon>
                        <polygon id="Rectangle-path" points="0 230 0 231.5 121.1 231.5 121.1 230"></polygon>
                        <polygon id="Rectangle-path" points="0 290 0 291.5 121.1 291.5 121.1 290"></polygon>
                        <polygon id="Rectangle-path" points="0 349 0 350.5 121.1 350.5 121.1 349"></polygon>
                        <path d="M104.1,18.7 L104.1,361.8 C103.6,362 103.1,362.1 102.7,362.2 L102.7,18.7 L104.1,18.7 L104.1,18.7 Z" id="Shape"></path>
                    </g>
                    <g id="plant_1_" transform="translate(136.000000, 580.000000)" fill="#EEEDEE">
                        <path d="M126.1,327.1 C147.3,334.1 273.5,55.3 242.9,36.3 C237.4,32.9 226.9,39.9 209.9,51.3 C200.6,57.5 168.4,79.8 157.6,118.6 C152,138.7 154.4,155 155.5,164.4 C164.8,249.4 120.4,325.2 126.1,327.1 L126.1,327.1 Z" id="Shape"></path>
                        <path d="M173.4,69.2 C138.4,132.3 137.9,238.7 136,295.3 C135.8,301.2 135.6,306.5 135.3,311.2 C135.1,315.4 134.8,319.1 134.4,322.2 C133.9,326.9 133.1,330.2 132.2,332 C131.7,332.9 131.1,333.4 130.4,333.4 C129,333.4 128.1,331.3 127.3,327.3 C127.2,326.9 127.1,326.5 127.1,326 C126.9,324.7 126.7,323.2 126.5,321.5 C125.6,313.7 124.8,302.3 123.2,287.9 L123.2,287.9 C120.2,261.5 114.5,225.1 100.2,182.5 C95.2,167.5 89.9,154.3 87.3,135.4 C86.9,132.8 86.6,130.1 86.4,127.3 C85.4,116.3 85,100.1 88.3,82 C91.3,65.6 97.3,47.6 108.8,30.7 C117.4,18 127.5,3.1 145.3,0.6 C148.1,0.2 151,0.1 153.8,0.4 C154.4,0.4 154.9,0.5 155.5,0.6 C166.9,1.9 178.1,7.8 183.2,17.1 C193.4,34.9 177.9,61 173.4,69.2 L173.4,69.2 Z" id="Shape"></path>
                        <path d="M152.6,349.8 C150,351.2 142.4,343.8 132.3,331.9 C131,330.3 129.6,328.7 128.2,327 C127.9,326.6 127.6,326.3 127.3,325.9 C126.8,325.3 126.4,324.8 125.9,324.2 C102.5,295.6 69.7,251.4 50.5,234.6 C40.4,225.7 30.8,218 20.9,206.7 C15.9,201 13.4,198 10.8,193.8 C-5.5,167.7 1.4,136.2 2.9,129.4 C5.7,116.9 8.8,102.8 20.8,90.7 C31.6,79.8 47.6,72.8 61.5,71.5 C62,71.4 62.5,71.4 63,71.4 C71.6,70.9 79.4,72.6 84.5,77.1 C86.1,78.5 87.4,80.1 88.4,81.9 C95.6,94.3 90.8,114.9 88.8,125.8 C88.2,129 87.8,132.1 87.4,135.3 C81,190.5 102.9,246.7 123.2,287.8 C126.3,294.1 129.3,300 132.3,305.5 C133.3,307.4 134.3,309.3 135.3,311.2 C136.4,313.3 137.5,315.3 138.6,317.3 C148.9,336.1 155.6,348.1 152.6,349.8 L152.6,349.8 Z" id="Shape"></path>
                    </g>
                    <path d="M353,889.8 C348.5,873.5 325.4,865.6 304,861.7 L304,852.5 L219.8,852.5 L219.8,861.4 C196.8,865.5 174.6,873.8 170.2,889.8 C165.1,908.3 183.9,936.4 212,953.5 L212,970.1 C226.6,972.2 243.7,973.7 262.8,973.7 C281.1,973.7 297.6,972.2 311.8,970.1 L311.8,953.1 C339.6,936 358,908.1 353,889.8 L353,889.8 Z" id="pot_1_" fill="#EBDEDE"></path>
                    <g id="plant_2_" transform="translate(876.000000, 400.000000)" fill="#EBDEDE">
                        <path d="M264.8,162.5 C264.7,162.1 264.6,161.8 264.5,161.4 C263.9,159.4 263,157.5 261.5,155.9 C261.3,155.6 261,155.4 260.7,155.2 L260.7,155.2 C260.7,155.2 256.4,151.4 247.8,152.2 C242.4,152.7 235.9,157.6 229.1,164.8 C228.8,165.1 228.6,165.4 228.3,165.7 C219.4,175.3 210.1,188.8 202,201.7 C201.7,202.2 201.4,202.7 201.1,203.1 C192.6,216.7 185.7,229.3 182.2,235.7 L153.6,258.2 C150.9,230.1 146.1,203.9 139.2,179.9 L139.4,180 L155.3,143.4 C170.8,130 181,110.4 186.6,91.4 L186.9,90.3 C194.7,62.8 192.7,37.1 183.1,34.3 C182.8,34.2 182.4,34.1 182,34.1 C179,33.8 175.4,35.5 171.1,39.8 C167.2,43.8 164,48.6 161.4,53.8 L161.4,53.8 L160.9,54.9 C153,71.5 150.6,92.7 150.3,110.5 L150.3,111.7 C150.1,126 151.3,137.9 151.9,143.1 L137.9,175.3 C135.3,166.6 132.4,158.1 129.2,149.9 C119.4,124.9 107,102.9 92,83.8 C90.6,74.4 87.9,62.6 82.1,50.6 C81.9,50.2 81.7,49.9 81.6,49.5 C77.8,41.9 72.8,34.3 66.1,27.2 C57.6,18.2 46.1,9.7 35.8,4.6 L34.8,4.1 C25.9,-0.2 18.2,-1.7 14.6,1.4 C14.4,1.6 14.2,1.7 14.1,1.9 C13.9,2.2 13.6,2.5 13.5,2.8 C11.5,6.2 12.4,11.5 13,14.3 C15.7,25.8 23,36.5 32.1,45.9 C32.4,46.2 32.7,46.5 32.9,46.8 C52.6,66.8 80.3,81.2 89.4,85.7 C104.1,104.5 116.4,126.3 126.1,151 C127.6,154.8 129,158.7 130.4,162.7 L100.2,140.5 C93.7,131.2 84.3,119.1 70.9,106.4 C65.6,101.4 63.3,99.6 62.2,98.8 C54.6,93.2 45.8,89.2 37.3,86.9 C36.9,86.8 36.6,86.7 36.2,86.6 C20.5,82.5 6.1,83.7 1.8,89.3 C1.6,89.6 1.4,89.9 1.2,90.2 C1.2,90.2 1.2,90.2 1.2,90.3 C-0.9,94.4 2,99.9 4,103 C12.7,116.5 28.9,125.8 45.8,132.1 L47,132.5 C69.4,140.7 92.7,143.8 100.5,144.7 L131.7,167.6 L132,167.2 C142.2,197.9 148.7,232.5 151.4,270.3 L122.2,248.3 C119,238.1 113.1,223.5 102.2,210.3 L101.4,209.3 C96,203 89.4,197 81.3,192.1 C75,188.3 67.4,184.9 60,182.5 C59.6,182.4 59.2,182.3 58.9,182.1 C46.8,178.3 35.3,177.2 30.7,181.3 L30.6,181.4 C30.4,181.6 30.1,181.9 29.9,182.1 L29.7,182.3 C27.2,185.7 29,190.8 30.7,195.3 C30.9,196 31.2,196.6 31.5,197.3 C31.6,197.6 31.8,198 31.9,198.3 C44.1,226.3 79.1,238.8 91.1,243.1 C93.7,244 96.7,245 100.2,246.1 L100.2,246.1 C100.6,246.2 100.9,246.3 101.3,246.4 C106.5,247.9 112.7,249.3 119.7,250.4 L151.8,274.6 C156.7,350.6 144.7,413.9 144.5,414.5 L147.7,415.1 C147.8,414.5 160.1,350.3 154.9,273.3 L155.1,273 L154.9,272.8 C154.9,272.4 154.9,272 154.8,271.6 C154.6,268.3 154.3,265 154,261.7 L185.5,236.9 C210.2,228.8 227.4,217.5 238,209.3 C240.4,207.5 242.5,205.7 244.5,204 C244.8,203.7 245.1,203.5 245.4,203.2 C260,190.2 263.5,180.8 264.6,174 C265.1,172.5 265.9,167.4 264.8,162.5 L264.8,162.5 Z" id="Shape"></path>
                    </g>
                    <path d="M1118.5,706.3 L1118.5,731.9 L1103.1,731.9 C1091.2,791.2 1079.2,850.6 1067.3,909.9 C1056.3,912 1043,913.8 1027.9,914 C1009.8,914.3 994.2,912.3 981.6,909.9 C969.7,850.8 957.8,791.8 945.9,732.7 C945.8,732.4 945.8,732.2 945.7,731.9 L930.3,731.9 L930.3,706.3 L1118.5,706.3 L1118.5,706.3 Z" id="pot_2_" fill="#EEEDEE"></path>
                </g>
            </g>
            <g id="main" transform="translate(436.000000, 179.000000)">
                <g id="general_2_">
                    <g id="bag_chair" transform="translate(52.000000, 282.000000)">
                        <path d="M407.6,70.1 C405.9,68.4 404.1,66.7 402.2,64.8 C385.6,48.7 360.2,26 323,12.2 C316.1,9.7 308.8,7.4 301.1,5.5 C201.1,-18.5 118,46.4 103.5,57.7 C99.8,60.6 96.3,63.5 92.9,66.5 C0.9,146.8 -1.27897692e-13,264.7 0.1,277.8 C0.3,297.3 3.6,423.3 107.6,495.8 C127.3,509.6 148.9,520.2 171.5,527.6 C256.5,555.7 355.2,539.3 419.9,480.4 C488.9,417.6 493.9,329.2 495.6,299.2 C496.3,287.4 501.4,162.1 407.6,70.1 L407.6,70.1 Z M193.3,181.4 C191.4,180.8 189.5,180.3 187.6,179.7 C187.9,179.2 188.1,178.7 188.3,178.2 C190.6,173.6 193,169.1 194.5,164.8 C194.1,170.4 193.7,175.9 193.3,181.4 L193.3,181.4 Z" id="Shape" fill="#336859"></path>
                        <path d="M35,282 C35.9,332.4 139.7,369.1 182.4,380.3 C242.4,396.1 291.6,389 330.8,383.4 C370.2,377.7 390.1,374.6 402.5,360.9 C430.4,329.8 368.4,273.4 390.2,190 C393.5,177.3 393.3,166.5 391.1,157.2 C385.1,132.1 365.7,116.5 357.4,110.1 C305.8,69.9 163.4,45.3 119.9,107 C104.7,128.6 117.2,138.6 100.5,180.7 C75,244.7 34.4,250.4 35,282 L35,282 Z" id="Shape" fill="#0D2A28" opacity="0.42"></path>
                        <path d="M495.6,299.4 C493.9,329.4 488.9,417.8 419.9,480.6 C355.2,539.5 256.6,555.9 171.5,527.8 C125.7,494.5 120.1,476 123,465.3 C130.1,439.7 191,443.4 297,422.3 C393.7,403 442,393.4 465.9,365 C528.7,290.2 430.3,113.2 402.1,64.9 C404,66.8 405.8,68.5 407.5,70.2 C501.4,162.1 496.3,287.4 495.6,299.4 L495.6,299.4 Z" id="Shape" fill="url(#linearGradient-1)" opacity="0.4"></path>
                        <path d="M323,12.3 C268.7,40.1 152.3,58.6 92.9,66.6 C96.3,63.6 99.9,60.7 103.5,57.8 C117.9,46.5 201,-18.4 301.1,5.6 C308.9,7.5 316.1,9.7 323,12.3 L323,12.3 Z" id="Shape" fill="url(#linearGradient-2)" opacity="0.38"></path>
                        <path d="M287.8,484.7 C288,490.7 232.8,507.9 174.2,492.9 C113.6,477.4 57.6,429.5 64.7,410 C66.6,404.7 72.8,402.5 74.9,401.8 C100.8,392.8 125.2,436.5 171.1,462.2 C229.6,494.8 287.7,478.6 287.8,484.7 L287.8,484.7 Z" id="Shape" fill="url(#linearGradient-3)" opacity="0.38"></path>
                    </g>
                    <g id="cup" transform="translate(425.000000, 660.000000)">
                        <path d="M42.8,87.2 C39.3,87.2 35.8,87.3 32.4,87.3 L29.6,87.3 L28.1,87.3 L26.6,87.3 L26.6,87.3 C19.8,87.4 13,87.5 6.1,87.6 C4,87.6 1.9,87.7 -0.2,87.7 C2.2734592e-13,89.6 0.1,91.4 0.3,93.3 C1.2,103.6 2.1,114 2.9,124.3 C3.1,126.3 3.2,128.2 3.4,130.2 L3.4,130.2 C4.1,139 4.9,147.9 5.6,156.7 L38,156.7 C38.9,145.8 39.8,134.9 40.8,124 C42.8,123.5 45.1,122.9 47.5,121.9 C51,120.5 53.8,118.7 55.8,116.6 C56,116.4 56.2,116.1 56.5,115.9 C56.7,115.7 56.9,115.4 57.1,115.2 C57.5,114.7 57.8,114.2 58.2,113.7 C58.4,113.3 58.7,112.9 58.9,112.5 C59.1,112.1 59.3,111.7 59.4,111.2 C59.4,111.2 59.5,111 59.6,110.7 C59.6,110.6 59.6,110.5 59.7,110.4 C59.7,110.2 59.8,110.1 59.8,109.8 C60,108.9 60.3,107.5 60.3,106 C60.1,98.9 53,91.7 42.8,87.2 L42.8,87.2 Z M41.8,120 L41.8,118 L41.8,116.9 L41.8,116.6 C41.8,115 41.9,113.4 41.9,111.8 C41.9,110.8 42,109.7 42.1,108.7 C42.1,107.8 42.2,106.9 42.3,105.9 C42.4,104.7 42.5,103.5 42.6,102.3 C42.7,101.1 42.8,100 43,98.8 C43.1,98.2 43.1,97.7 43.2,97.1 C43.3,96 43.5,94.9 43.6,93.8 C43.7,93.3 43.8,92.7 43.8,92.2 C44.6,92.4 45.9,92.8 47.3,93.7 C47.7,93.9 48.1,94.1 48.4,94.4 C48.8,94.6 49.2,94.9 49.6,95.2 C50,95.5 50.4,95.8 50.8,96.2 C51.2,96.6 51.6,97 52,97.4 C52.1,97.5 52.2,97.6 52.3,97.8 C53.4,99.1 54.2,100.5 54.7,101.8 C54.9,102.4 55.2,102.9 55.3,103.4 C55.4,103.7 55.5,104.1 55.6,104.4 C55.7,104.9 55.8,105.3 55.9,105.7 L55.9,106 C56,106.3 56,106.5 56,106.7 C56.4,111.2 50.8,117.7 41.8,120 L41.8,120 Z" id="Shape" fill="#FC860A"></path>
                        <path d="M7,90.3 C7,92.6 5.2,94.4 2.9,94.4 C1.9,94.4 1,94.1 0.3,93.5 C0.2,91.6 -2.77555756e-17,89.8 -0.2,87.9 C1.9,87.9 4,87.8 6.1,87.8 C6.6,88.5 7,89.4 7,90.3 L7,90.3 Z" id="Shape" fill="#FFFFFF"></path>
                        <circle id="Oval" fill="#FFFFFF" cx="17" cy="108" r="4"></circle>
                        <path d="M33.6,90.3 C33.6,92.6 31.8,94.4 29.5,94.4 C27.2,94.4 25.4,92.6 25.4,90.3 C25.4,89.2 25.8,88.2 26.5,87.5 L26.5,87.5 L26.5,87.5 L29.5,87.5 L32.3,87.5 C33.1,88.1 33.6,89.2 33.6,90.3 L33.6,90.3 Z" id="Shape" fill="#FFFFFF"></path>
                        <path d="M42.1,108.8 C42,109.9 42,110.9 41.9,111.9 C41.8,113.5 41.8,115.1 41.8,116.7 L41.8,117 L41.8,117 C39.5,117 37.7,115.2 37.7,112.9 C37.7,110.6 39.5,108.8 41.8,108.8 C41.9,108.7 42,108.7 42.1,108.8 L42.1,108.8 Z" id="Shape" fill="#FFFFFF"></path>
                        <path d="M10,127.2 C10,129.5 8.2,131.3 5.9,131.3 C4.9,131.3 4,131 3.3,130.4 L3.3,130.4 C3.1,128.4 3,126.5 2.8,124.5 C3.6,123.7 4.6,123.1 5.9,123.1 C8.2,123.1 10,124.9 10,127.2 L10,127.2 Z" id="Shape" fill="#FFFFFF"></path>
                        <circle id="Oval" fill="#FFFFFF" cx="27" cy="133" r="4"></circle>
                        <circle id="Oval" fill="#FFFFFF" cx="11" cy="150" r="4"></circle>
                        <circle id="Oval" fill="#FFFFFF" cx="34" cy="151" r="4"></circle>
                        <path d="M42.8,87.2 C39.3,87.2 35.8,87.3 32.4,87.3 L29.6,87.3 L28.1,87.3 L26.6,87.3 C19.8,87.4 13,87.5 6.1,87.6 C4,87.6 1.9,87.7 -0.2,87.7 C2.2734592e-13,89.6 0.1,91.4 0.3,93.3 C1.2,103.6 2.1,114 2.9,124.3 C3.1,126.3 3.2,128.2 3.4,130.2 L3.4,130.2 C4.1,139 4.9,147.9 5.6,156.7 L38,156.7 C38.9,145.8 39.8,134.9 40.8,124 C42.8,123.5 45.1,122.9 47.5,121.9 C51,120.5 53.8,118.7 55.8,116.6 C56,116.4 56.2,116.1 56.5,115.9 C56.7,115.7 56.9,115.4 57.1,115.2 C57.5,114.7 57.8,114.2 58.2,113.7 C58.4,113.3 58.7,112.9 58.9,112.5 C59.1,112.1 59.3,111.7 59.4,111.2 C59.4,111.2 59.5,111 59.6,110.7 C59.6,110.6 59.6,110.5 59.7,110.4 C59.7,110.2 59.8,110.1 59.8,109.8 C60,108.9 60.3,107.5 60.3,106 C60.1,98.9 53,91.7 42.8,87.2 L42.8,87.2 Z M41.8,120 L41.8,118 L41.8,116.9 L41.8,116.6 C41.8,115 41.9,113.4 41.9,111.8 C41.9,110.8 42,109.7 42.1,108.7 C42.1,107.8 42.2,106.9 42.3,105.9 C42.4,104.7 42.5,103.5 42.6,102.3 C42.7,101.1 42.8,100 43,98.8 C43.1,98.2 43.1,97.7 43.2,97.1 C43.3,96 43.5,94.9 43.6,93.8 C43.7,93.3 43.8,92.7 43.8,92.2 C44.6,92.4 45.9,92.8 47.3,93.7 C47.7,93.9 48.1,94.1 48.4,94.4 C48.8,94.6 49.2,94.9 49.6,95.2 C50,95.5 50.4,95.8 50.8,96.2 C51.2,96.6 51.6,97 52,97.4 C52.1,97.5 52.2,97.6 52.3,97.8 C53.4,99.1 54.2,100.5 54.7,101.8 C54.9,102.4 55.2,102.9 55.3,103.4 C55.4,103.7 55.5,104.1 55.6,104.4 C55.7,104.9 55.8,105.3 55.9,105.7 L55.9,106 C56,106.3 56,106.5 56,106.7 C56.4,111.2 50.8,117.7 41.8,120 L41.8,120 Z" id="Shape"></path>
                        <path d="M5.4,78 C5.2,78 4.9,77.8 4.9,77.6 C3.7,70.4 4.1,63.4 5.9,56.9 C7.1,52.7 8.4,50.6 9.5,48.8 C10.2,47.7 10.7,46.8 11.2,45.7 C11.2,45.6 11.7,44.3 12,42.7 C12.7,38.8 9.9,31.5 4.9,24.7 C4.7,24.5 4.8,24.2 5,24 C5.2,23.8 5.5,23.9 5.7,24.1 C10.9,31.3 13.7,38.7 13,42.9 C12.6,44.8 12.3,45.7 12.1,46.1 L12.1,46.1 C11.6,47.4 11,48.4 10.3,49.4 C9.2,51.2 7.9,53.2 6.8,57.3 C5,63.6 4.6,70.5 5.8,77.5 C6,77.7 5.8,78 5.4,78 L5.4,78 L5.4,78 Z" id="Shape" fill="#FFFFFF"></path>
                        <path d="M22.8,79.1 L22.7,79.1 C22.4,79 22.3,78.7 22.4,78.5 C29.7,54.1 30.8,37.4 25.5,28.8 C25.4,28.6 25.2,28.3 25,28.1 C23.4,25.5 20.4,20.8 20.3,14.3 C20.2,9.2 22,2.2 22.4,0.9 C22.5,0.6 22.7,0.4 23,0.5 C23.3,0.6 23.4,0.8 23.4,1.1 C23,2.5 21.3,9.3 21.4,14.3 C21.5,20.5 24.4,25.1 26,27.6 C26.2,27.9 26.3,28.1 26.5,28.4 C31.9,37.3 30.9,54.3 23.5,79 C23.3,78.9 23.1,79.1 22.8,79.1 L22.8,79.1 Z" id="Shape" fill="#FFFFFF"></path>
                        <path d="M37.2,79.1 C37.1,79.1 37,79.1 36.9,79 C36.7,78.9 36.6,78.5 36.7,78.3 C42.9,68.1 44.9,60 42.8,54.2 C42.7,53.9 42.6,53.6 42.4,53.3 C41.6,51.2 40.2,47.8 39.7,42.9 C39.4,40.2 39.4,37.4 39.7,34.6 C39.7,34.3 40,34.1 40.3,34.1 C40.6,34.1 40.8,34.4 40.8,34.7 C40.5,37.4 40.5,40.1 40.8,42.8 C41.3,47.6 42.7,51 43.5,53 C43.6,53.4 43.8,53.7 43.9,54 C46.1,60.1 44.1,68.6 37.7,79 C37.5,79 37.3,79.1 37.2,79.1 L37.2,79.1 Z" id="Shape" fill="#FFFFFF"></path>
                        <path d="M42.8,87.2 C38.4,87.3 34,87.3 29.6,87.4 C29.5,101.6 28.2,136.3 17.1,156.8 L38,156.8 C38.9,145.9 39.8,135 40.8,124.1 C42.8,123.6 45.2,123 47.5,122 C53.7,119.4 57.7,115.8 59.4,111.2 C59.5,111 60.3,108.7 60.3,106.1 C60.1,98.9 53,91.7 42.8,87.2 L42.8,87.2 Z M41.8,120 C41.8,115.6 41.9,111 42.3,106 C42.7,101.1 43.2,96.6 43.8,92.4 C45.4,92.9 49,94.1 52,97.5 C52.1,97.6 52.2,97.7 52.3,97.9 C55.2,101.3 56,105.4 56.1,106.7 C56.4,111.3 50.8,117.7 41.8,120 L41.8,120 Z" id="Shape" fill="url(#linearGradient-4)" opacity="0.5"></path>
                    </g>
                    <g id="photo_windows">
                        <path d="M250.8,385.9 C250.5,385.9 250.2,385.8 250,385.5 L81.1,173.9 C80.7,173.5 80.8,172.8 81.3,172.5 C81.7,172.1 82.4,172.2 82.7,172.7 L251.6,384.3 C252,384.7 251.9,385.4 251.4,385.7 C251.2,385.8 251,385.9 250.8,385.9 L250.8,385.9 Z" id="Shape" fill="#153E5C" opacity="0.5"></path>
                        <g id="_x31_st_photo_window" transform="translate(0.000000, 44.000000)">
                            <polygon id="Rectangle-path" fill="url(#linearGradient-5)" points="0 0 0 147.4 198.6 147.4 198.6 0"></polygon>
                            <path d="M78.7,73.7 C80.1,75 79,78.4 77,80.2 C75.2,81.9 71.9,82.8 70.6,81.5 C69.2,80.2 70.3,76.8 72.3,75 C74.2,73.3 77.4,72.4 78.7,73.7 L78.7,73.7 Z" id="Shape" fill="#FF7D93"></path>
                            <circle id="Oval" fill="#FDB2A4" cx="122.5" cy="40.5" r="4.5"></circle>
                            <circle id="Oval" fill="#FDB2A4" cx="183.5" cy="51.5" r="4.5"></circle>
                            <path d="M186.3,54.5 C184.6,58.8 181.9,64.3 177.5,69.9 C168.7,81 158.1,86.2 152.3,88.6 C150.2,91.2 139.4,104.9 141.3,124.8 C142.2,134.3 145.8,141.9 149.5,147.4 L110,147.4 C109.2,135.1 110.1,118.4 117.2,100.6 C119.5,94.8 122.2,89.7 124.9,85.2 C123.6,84.6 112.1,78.8 109.5,65.4 C106.5,50.2 117.8,39.7 118.4,39.1 C120.6,40.6 122.8,42 125,43.5 C119.6,49.3 117.5,57.1 120.1,63.3 C123.3,71.1 132.4,73.2 137.1,74.2 C138.6,74.5 144.3,75.7 151.4,74.2 C167.9,70.7 176.9,55.7 178.8,52.3 C181.2,53 183.8,53.8 186.3,54.5 L186.3,54.5 Z" id="Shape" fill="#271C41"></path>
                            <path d="M149.1,61.1 C149.1,63.5 148.6,65.7 147.7,67.5 C146,70.9 143.1,73.2 139.8,73.2 C134.7,73.2 130.5,67.8 130.5,61.1 C130.5,55.5 133.4,50.8 137.4,49.5 C137.6,49.4 137.9,49.3 138.1,49.3 C138.7,49.2 139.2,49.1 139.8,49.1 C144.9,49 149.1,54.4 149.1,61.1 L149.1,61.1 Z" id="Shape" fill="#FDB2A4"></path>
                            <path d="M143.6,76.4 C143.5,80.6 143.4,81.8 142.5,83 C142.2,83.4 141.1,84.8 139.2,85.2 C137.8,85.5 135.9,85.3 134.8,84.1 C133.6,82.8 134.5,81.3 134.8,76.4 C135.2,71 134.4,68.4 135.9,67.6 C136.5,67.3 136.7,67.6 139.7,67.6 C141.9,67.6 142,67.4 142.4,67.6 C143.3,68.1 143.7,69.3 143.6,76.4 L143.6,76.4 Z" id="Shape" fill="#FDB2A4"></path>
                            <circle id="Oval" fill="#000000" cx="144" cy="44" r="7"></circle>
                            <path d="M149.1,61.1 C149.1,63.5 148.6,65.7 147.7,67.5 C142.2,66.1 139.1,56.7 137.8,51.4 C137.6,50.6 137.5,50 137.4,49.4 C137.6,49.3 137.9,49.2 138.1,49.2 C138.7,49.1 139.2,49 139.8,49 C144.9,49 149.1,54.4 149.1,61.1 L149.1,61.1 Z" id="Shape" fill="#000000"></path>
                            <path d="M138,49.2 C138,49.8 137.9,50.5 137.7,51.4 C137.1,55.1 135.3,60.3 130.4,61.1 C130.4,55.5 133.3,50.8 137.3,49.5 C137.5,49.3 137.8,49.3 138,49.2 L138,49.2 Z" id="Shape" fill="#000000"></path>
                            <path d="M77.2,147.3 L58.9,147.3 C57.1,144.9 55.2,142.5 53.2,140.1 C52.6,139.4 52,138.6 51.4,137.9 C50.7,141 50,144.2 49.4,147.3 L29,147.3 C29.6,134 29.1,120.2 31.7,114.6 C32.7,112.5 33.9,110.8 34.8,109.6 C35.1,109.2 35.5,108.8 35.8,108.5 C43,107.8 50.1,107.1 57.3,106.5 C62.4,116.1 67.6,126.3 72.7,137.2 C74.3,140.6 75.8,144 77.2,147.3 L77.2,147.3 Z" id="Shape" fill="#87AEB4"></path>
                            <path d="M71.7,75.8 C71,76.2 70,77 68.6,77.8 C60.3,83.4 59.6,84.3 58.4,83.9 C55.6,83 57.2,77.4 52.3,71.6 C51.6,70.8 49.9,68.9 47.2,67.5 C42.7,65.1 38.3,65.4 37,65.5 C28,66.1 19.4,73.7 16.5,82.9 C15.5,86 13.5,92.8 17.5,98.3 C20.9,102.8 27.3,104.8 33.9,103.4 C34.2,105.4 34.6,107.5 34.9,109.5 C35.4,110.1 39.5,114.4 45.8,114.1 C50.7,113.9 55.2,110.9 57.5,106.4 C57,103.7 56.4,100 55.8,96.6 C56.8,97 57.6,97.2 58.5,97.2 L59.6,97.2 C62.5,97 69.6,90.2 69.8,90 C71.2,88.7 73.3,86.9 75.9,84.9 C74.4,81.9 73,78.8 71.7,75.8 L71.7,75.8 Z" id="Shape" fill="#640042"></path>
                            <path d="M53,90.3 C53.6,91.9 51.8,94.2 49.7,95 C47.7,95.7 44.9,95.4 44.3,93.9 C43.7,92.3 45.5,90 47.6,89.2 C49.5,88.5 52.4,88.8 53,90.3 L53,90.3 Z" id="Shape" fill="#FF7D93"></path>
                            <ellipse id="Oval" fill="#FF7D93" cx="35.5" cy="55.5" rx="8.5" ry="11.5"></ellipse>
                            <path d="M39.9,64 C40.8,67.5 42.1,71.6 39.9,73.7 C38.9,74.7 37.2,75.1 35.8,74.7 C32.2,73.6 31.8,66.8 31.7,65 C31.5,60.7 32.4,54.5 34.5,54.3 C36.7,54.1 39.1,60.7 39.9,64 L39.9,64 Z" id="Shape" fill="#FF7D93"></path>
                            <path d="M44,48.1 L34.8,51.2 L33.2,71.3 L16.4,61.4 C16.7,60 20.7,43.9 30.7,40.9 C32,40.5 34.8,39.7 37.9,40.9 C42.2,42.7 43.7,47.3 44,48.1 L44,48.1 Z" id="Shape" fill="#000000"></path>
                            <polygon id="Rectangle-path" fill="#FC860A" transform="translate(67.107400, 36.958200) rotate(-15.313410) translate(-67.107400, -36.958200) " points="66.1073955 31.9581774 66.1073955 41.4582204 68.0074041 41.4582204 68.0074041 31.9581774"></polygon>
                            <polygon id="Rectangle-path" fill="#FC860A" transform="translate(8.018900, 48.870200) rotate(-15.313410) translate(-8.018900, -48.870200) " points="7.01889547 43.8701774 7.01889547 53.3702204 8.91890408 53.3702204 8.91890408 43.8701774"></polygon>
                            <polygon id="Rectangle-path" fill="#FC860A" transform="translate(158.024100, 50.997800) rotate(-15.313410) translate(-158.024100, -50.997800) " points="157.024095 45.9977774 157.024095 55.4978204 158.924104 55.4978204 158.924104 45.9977774"></polygon>
                            <polygon id="Rectangle-path" fill="#FC860A" transform="translate(81.741100, 28.855700) rotate(25.670758) translate(-81.741100, -28.855700) " points="80.741098 23.8556902 80.741098 33.3557088 82.6411018 33.3557088 82.6411018 23.8556902"></polygon>
                            <polygon id="Rectangle-path" fill="#336859" transform="translate(161.022600, 15.005900) rotate(25.670758) translate(-161.022600, -15.005900) " points="160.022598 10.0058902 160.022598 19.5059088 161.922602 19.5059088 161.922602 10.0058902"></polygon>
                            <polygon id="Rectangle-path" fill="#FC860A" transform="translate(169.549400, 21.513600) rotate(49.148255) translate(-169.549400, -21.513600) " points="168.549406 16.5136306 168.549406 26.0135725 170.449394 26.0135725 170.449394 16.5136306"></polygon>
                            <polygon id="Rectangle-path" fill="#FC860A" transform="translate(141.971400, 13.902900) rotate(-15.313410) translate(-141.971400, -13.902900) " points="140.971395 8.90287735 140.971395 18.4029204 142.871404 18.4029204 142.871404 8.90287735"></polygon>
                            <polygon id="Rectangle-path" fill="#FC860A" transform="translate(24.011900, 8.972700) rotate(-15.313410) translate(-24.011900, -8.972700) " points="23.0118955 3.97267735 23.0118955 13.4727204 24.9119041 13.4727204 24.9119041 3.97267735"></polygon>
                            <polygon id="Rectangle-path" fill="#336859" transform="translate(55.076500, 41.719300) rotate(-35.290563) translate(-55.076500, -41.719300) " points="54.0765401 36.7195007 54.0765401 46.2191194 55.9764639 46.2191194 55.9764639 36.7195007"></polygon>
                            <polygon id="Rectangle-path" fill="#FC860A" transform="translate(35.397200, 25.968100) rotate(-35.290563) translate(-35.397200, -25.968100) " points="34.3972401 20.9683007 34.3972401 30.4679194 36.2971639 30.4679194 36.2971639 20.9683007"></polygon>
                            <polygon id="Rectangle-path" fill="#39215A" transform="translate(17.319600, 25.721800) rotate(-35.290563) translate(-17.319600, -25.721800) " points="16.3196401 20.7220007 16.3196401 30.2216194 18.2195639 30.2216194 18.2195639 20.7220007"></polygon>
                            <polygon id="Rectangle-path" fill="#FC860A" transform="translate(105.805700, 39.070100) rotate(27.897569) translate(-105.805700, -39.070100) " points="104.805684 34.0700179 104.805684 43.5701739 106.705715 43.5701739 106.705715 34.0700179"></polygon>
                            <polygon id="Rectangle-path" fill="#FC860A" transform="translate(58.057300, 63.187500) rotate(27.897569) translate(-58.057300, -63.187500) " points="57.0572836 58.1874179 57.0572836 67.6875739 58.9573148 67.6875739 58.9573148 58.1874179"></polygon>
                            <polygon id="Rectangle-path" fill="#FC860A" transform="translate(75.089100, 104.996600) rotate(27.897569) translate(-75.089100, -104.996600) " points="74.0890836 99.9965179 74.0890836 109.496674 75.9891148 109.496674 75.9891148 99.9965179"></polygon>
                            <polygon id="Rectangle-path" fill="#FC860A" transform="translate(74.986700, 8.969700) rotate(27.897569) translate(-74.986700, -8.969700) " points="73.9866836 3.96961788 73.9866836 13.4697739 75.8867148 13.4697739 75.8867148 3.96961788"></polygon>
                            <polygon id="Rectangle-path" fill="#FC860A" transform="translate(89.611700, 42.331400) rotate(45.000000) translate(-89.611700, -42.331400) " points="88.6117096 37.331448 88.6117096 46.8313568 90.5116914 46.8313568 90.5116914 37.331448"></polygon>
                            <polygon id="Rectangle-path" fill="#FC860A" transform="translate(89.523000, 80.294300) rotate(45.000000) translate(-89.523000, -80.294300) " points="88.5230096 75.294348 88.5230096 84.7942568 90.4229914 84.7942568 90.4229914 75.294348"></polygon>
                            <polygon id="Rectangle-path" fill="#336859" transform="translate(160.998200, 96.948900) rotate(45.000000) translate(-160.998200, -96.948900) " points="159.99821 91.948948 159.99821 101.448857 161.898191 101.448857 161.898191 91.948948"></polygon>
                            <polygon id="Rectangle-path" fill="#FC860A" transform="translate(54.942100, 15.305700) rotate(45.000000) translate(-54.942100, -15.305700) " points="53.9421096 10.305748 53.9421096 19.8056568 55.8420914 19.8056568 55.8420914 10.305748"></polygon>
                            <polygon id="Rectangle-path" fill="#336859" transform="translate(125.176400, 17.880300) rotate(45.000000) translate(-125.176400, -17.880300) " points="124.17641 12.880348 124.17641 22.3802568 126.076391 22.3802568 126.076391 12.880348"></polygon>
                            <polygon id="Rectangle-path" fill="#FC860A" transform="translate(137.093700, 28.879800) rotate(-10.096268) translate(-137.093700, -28.879800) " points="136.093715 23.8798742 136.093715 33.3797333 137.993687 33.3797333 137.993687 23.8798742"></polygon>
                            <polygon id="Rectangle-path" fill="#39215A" transform="translate(79.296900, 58.990200) rotate(112.017386) translate(-79.296900, -58.990200) " points="78.2968678 53.990039 78.2968678 63.4903449 80.196929 63.4903449 80.196929 53.990039"></polygon>
                            <polygon id="Rectangle-path" fill="#FC860A" transform="translate(92.204600, 96.426000) rotate(112.017386) translate(-92.204600, -96.426000) " points="91.2045678 91.425839 91.2045678 100.926145 93.104629 100.926145 93.104629 91.425839"></polygon>
                            <polygon id="Rectangle-path" fill="#39215A" transform="translate(98.848800, 25.408800) rotate(112.017386) translate(-98.848800, -25.408800) " points="97.8487678 20.408639 97.8487678 29.9089449 99.748829 29.9089449 99.748829 20.408639"></polygon>
                            <polygon id="Rectangle-path" fill="#336859" transform="translate(6.626600, 66.447300) rotate(112.017386) translate(-6.626600, -66.447300) " points="5.62656779 61.447139 5.62656779 70.9474449 7.52662899 70.9474449 7.52662899 61.447139"></polygon>
                            <polygon id="Rectangle-path" fill="#39215A" transform="translate(157.454700, 31.283200) rotate(112.017386) translate(-157.454700, -31.283200) " points="156.454668 26.283039 156.454668 35.7833449 158.354729 35.7833449 158.354729 26.283039"></polygon>
                            <polygon id="Rectangle-path" fill="#FC860A" transform="translate(97.051600, 61.154900) rotate(18.547279) translate(-97.051600, -61.154900) " points="96.0515594 56.154697 96.0515594 65.6550827 97.9516365 65.6550827 97.9516365 56.154697"></polygon>
                            <polygon id="Rectangle-path" fill="#336859" transform="translate(106.934300, 87.059600) rotate(18.547279) translate(-106.934300, -87.059600) " points="105.934259 82.059397 105.934259 91.5597827 107.834337 91.5597827 107.834337 82.059397"></polygon>
                            <polygon id="Rectangle-path" fill="#336859" transform="translate(176.881600, 39.176300) rotate(18.547279) translate(-176.881600, -39.176300) " points="175.881559 34.176097 175.881559 43.6764827 177.781637 43.6764827 177.781637 34.176097"></polygon>
                            <polygon id="Rectangle-path" fill="#39215A" transform="translate(176.917100, 87.184200) rotate(18.547279) translate(-176.917100, -87.184200) " points="175.917059 82.183997 175.917059 91.6843827 177.817137 91.6843827 177.817137 82.183997"></polygon>
                            <polygon id="Rectangle-path" fill="#FC860A" transform="translate(105.954600, 11.149900) rotate(49.148255) translate(-105.954600, -11.149900) " points="104.954606 6.14993058 104.954606 15.6498725 106.854594 15.6498725 106.854594 6.14993058"></polygon>
                            <polygon id="Rectangle-path" fill="#FFFFFF" opacity="0.35" points="0 0 0 147.4 198.6 147.4 198.6 0"></polygon>
                        </g>
                        <path d="M254.9,385.9 C254.7,385.9 254.5,385.8 254.3,385.7 C253.8,385.4 253.7,384.7 254,384.3 L457.7,90.4 C458,89.9 458.7,89.8 459.1,90.1 C459.6,90.4 459.7,91.1 459.4,91.5 L255.7,385.5 C255.5,385.8 255.2,385.9 254.9,385.9 L254.9,385.9 Z" id="Shape" fill="#153E5C" opacity="0.5"></path>
                        <g id="_x32_nd_photo_window" transform="translate(348.000000, 0.000000)">
                            <polygon id="Rectangle-path" fill="url(#linearGradient-6)" points="0 0 0 132.8 167.9 132.8 167.9 0"></polygon>
                            <path d="M118,50.7 C117.9,51 117.8,51.3 117.7,51.6 C115.4,58.7 112.5,65.7 109.3,72.4 C109.2,72.7 109,73 108.9,73.3 L107.9,73.3 C108.1,73 108.2,72.7 108.3,72.4 C111.7,65.5 114.6,58.4 117,51.2 C117.1,50.9 117.2,50.5 117.3,50.2 L117.8,50.7 L118,50.7 L118,50.7 Z" id="Shape" fill="#000000"></path>
                            <path d="M121.8,35.6 L122.1,35.6 C122,35.9 122,36.2 121.9,36.5 C121.1,40 120.2,43.6 119.2,47 C119.1,47.2 119.1,47.4 119,47.6 C119,47.7 118.9,47.8 118.9,47.9 L117.9,47.9 C118,47.7 118,47.5 118.1,47.3 C118.1,47.2 118.2,47.1 118.2,47 C119.3,43.4 120.2,39.8 121,36.1 C121.1,35.7 121.2,35.2 121.3,34.8 L121.8,35.6 L121.8,35.6 Z" id="Shape" fill="#000000"></path>
                            <path d="M124.9,17.6 C124.4,22.6 123.7,27.6 122.7,32.5 C122.6,32.8 122.6,33.1 122.5,33.4 L121.6,33.4 C121.7,33.1 121.7,32.8 121.8,32.5 C122.8,27.5 123.5,22.5 124,17.5 C124,17.2 124.2,17.1 124.5,17.1 C124.8,17.1 125,17.4 124.9,17.6 L124.9,17.6 Z" id="Shape" fill="#000000"></path>
                            <path d="M130.5,33.6 L129.6,33.6 C129.6,33.3 129.5,33 129.5,32.7 C128.7,27.7 128.1,22.7 127.7,17.7 C127.7,17.5 127.9,17.2 128.1,17.2 C128.4,17.2 128.6,17.4 128.6,17.6 C128.9,22.6 129.5,27.7 130.4,32.7 C130.4,33 130.4,33.3 130.5,33.6 L130.5,33.6 Z" id="Shape" fill="#000000"></path>
                            <path d="M133.7,48.2 L132.7,48.2 C132.7,48.1 132.6,48 132.6,47.9 C132.5,47.7 132.5,47.5 132.4,47.3 C131.5,43.8 130.7,40.2 130,36.7 C129.9,36.4 129.9,36.1 129.8,35.8 L130.1,35.8 L130.6,35 C130.7,35.4 130.8,35.9 130.8,36.3 C131.5,40 132.3,43.7 133.3,47.3 C133.3,47.4 133.4,47.5 133.4,47.6 C133.6,47.8 133.6,48 133.7,48.2 L133.7,48.2 Z" id="Shape" fill="#000000"></path>
                            <path d="M142.7,73.1 L141.7,73.1 C141.6,72.8 141.4,72.5 141.3,72.2 C138.4,65.6 135.8,58.8 133.8,51.8 C133.7,51.5 133.6,51.2 133.5,50.9 L133.7,50.9 L134.2,50.2 C134.3,50.6 134.4,50.9 134.5,51.3 C136.6,58.4 139.1,65.4 142.2,72.2 C142.4,72.5 142.5,72.8 142.7,73.1 L142.7,73.1 Z" id="Shape" fill="#000000"></path>
                            <path d="M132.7,47.8 C132.6,47.6 132.6,47.4 132.5,47.2 L119.1,47 C119,47.2 119,47.4 118.9,47.6 C118.9,47.7 118.8,47.8 118.8,47.9 L132.7,48.1 C132.7,48.1 132.7,47.9 132.7,47.8 L132.7,47.8 Z M137.2,47.6 C137.1,47.4 137,47.3 136.8,47.3 L114,47 C113.8,47 113.7,47.1 113.6,47.3 C113.5,47.5 113.6,47.7 113.7,47.8 L117,51.2 L117.3,51.5 C117.4,51.6 117.5,51.6 117.6,51.6 L134,51.9 C134.1,51.9 134.3,51.8 134.4,51.7 L134.7,51.4 L137.2,48.1 C137.2,47.9 137.2,47.7 137.2,47.6 L137.2,47.6 Z M133.7,50.9 L117.7,50.6 L115,47.8 L135.7,48.1 L133.7,50.9 L133.7,50.9 Z M132.7,47.8 C132.6,47.6 132.6,47.4 132.5,47.2 L119.1,47 C119,47.2 119,47.4 118.9,47.6 C118.9,47.7 118.8,47.8 118.8,47.9 L132.7,48.1 C132.7,48.1 132.7,47.9 132.7,47.8 L132.7,47.8 Z" id="Shape" fill="#000000"></path>
                            <path d="M135.3,72.2 C135.3,72.5 135.3,72.8 135.2,73.1 L134.3,73.1 C134.3,72.8 134.4,72.5 134.4,72.2 C134.9,65.4 132.5,59.7 128.3,58 C125.9,57 123.6,57.8 123.2,57.9 C118.9,59.5 116.3,65.3 116.6,72.2 C116.6,72.5 116.6,72.8 116.7,73.1 L115.8,73.1 C115.8,72.8 115.8,72.5 115.7,72.2 C115.4,64.9 118.2,58.7 122.9,57 C123.4,56.8 125.9,56 128.7,57.1 C133.1,59 135.7,65.1 135.3,72.2 L135.3,72.2 Z" id="Shape" fill="#000000"></path>
                            <path d="M128.1,18.1 L124.5,18 C124.3,18 124.1,17.9 124.1,17.7 L122.8,13.6 C122.8,13.5 122.8,13.3 122.9,13.2 C123,13.1 123.1,13 123.3,13 L129.7,13.1 C129.8,13.1 130,13.2 130.1,13.3 C130.2,13.4 130.2,13.6 130.2,13.7 L128.8,17.8 C128.5,17.9 128.3,18.1 128.1,18.1 L128.1,18.1 Z M124.8,17.1 L127.8,17.1 L128.9,13.9 L123.8,13.8 L124.8,17.1 L124.8,17.1 Z" id="Shape" fill="#000000"></path>
                            <path d="M126.4,13.9 C126.1,13.9 125.9,13.7 126,13.4 L126.1,6.1 C126.1,5.8 126.3,5.6 126.6,5.7 C126.9,5.7 127.1,5.9 127,6.2 L126.9,13.5 C126.8,13.7 126.6,13.9 126.4,13.9 L126.4,13.9 Z" id="Shape" fill="#000000"></path>
                            <path d="M132.8,32.9 C132.7,32.8 132.6,32.7 132.4,32.7 L119.7,32.5 C119.5,32.5 119.4,32.6 119.3,32.7 C119.2,32.8 119.2,33 119.3,33.2 L121,36.1 L121.1,36.3 C121.2,36.4 121.3,36.5 121.5,36.5 L130.5,36.6 C130.7,36.6 130.8,36.5 130.9,36.4 L131,36.2 L132.8,33.3 C132.9,33.3 132.9,33.1 132.8,32.9 L132.8,32.9 Z M130.7,35 L130.2,35.8 L121.7,35.7 L121.2,34.9 L120.4,33.5 L131.5,33.7 L130.7,35 L130.7,35 Z" id="Shape" fill="#000000"></path>
                            <path d="M150.2,73.1 C150,73.1 149.8,72.9 149.8,72.6 C149.8,72.3 150,72.1 150.3,72.1 L153.8,72.1 C154.1,72.1 154.3,72.3 154.3,72.6 C154.3,72.9 154.1,73.1 153.8,73.1 L150.2,73.1 L150.2,73.1 L150.2,73.1 Z" id="Shape" fill="#000000"></path>
                            <path d="M148.7,72.6 C148.7,72.9 148.5,73.1 148.2,73.1 L142.6,73.1 L141.6,73.1 L135.1,73.1 L134.2,73.1 L116.5,73.2 L115.6,73.2 L108.8,73.2 L107.8,73.2 L102.8,73.2 C102.6,73.2 102.4,73 102.4,72.7 C102.4,72.5 102.6,72.2 102.9,72.2 L108.3,72.2 L109.3,72.2 L115.6,72.2 L116.5,72.2 L134.3,72.1 L135.2,72.1 L141.2,72.1 L142.2,72.1 L148.2,72.1 C148.5,72.2 148.7,72.4 148.7,72.6 L148.7,72.6 Z" id="Shape" fill="#000000"></path>
                            <path d="M33.4,73.6 C33.2,73.6 33,73.4 33,73.1 C33,72.8 33.2,72.6 33.5,72.6 C48.5,72.5 71.6,72.4 93.6,72.3 C93.8,72.3 94.1,72.5 94.1,72.8 C94.1,73.1 93.9,73.3 93.6,73.3 C71.5,73.4 48.4,73.5 33.4,73.6 L33.4,73.6 L33.4,73.6 Z" id="Shape" fill="#000000"></path>
                            <path d="M17.1,73.6 C16.8,73.6 16.6,73.4 16.7,73.1 C16.8,72.8 16.9,72.6 17.2,72.7 L29.1,72.7 L29.1,72.7 C29.3,72.7 29.5,72.9 29.5,73.2 C29.5,73.5 29.3,73.7 29,73.7 C21.3,73.6 17.3,73.6 17.1,73.6 L17.1,73.6 Z" id="Shape" fill="#000000"></path>
                            <path d="M82.9,92.1 C82.8,92.7 82.2,94.2 80.9,95.2 C79.4,96.3 77.6,96.3 76.8,96.2 L53.5,91.2 C54.4,112.4 54.3,120.8 54.3,120.8 L22.6,120.8 C24,112.9 25.3,105.1 26.7,97.3 C23.3,106.9 19.9,116.4 16.5,126 C16.2,125.9 15.8,125.9 15.5,125.9 C13.8,125.7 12.1,125.4 10.4,125.2 C10,125.1 9.7,125.1 9.3,125 C9.4,116.9 11,110.7 12.4,106.6 C14.3,100.9 19.2,86.3 31.7,79.5 C32.7,78.9 33.8,78.4 34.9,78 C39.7,76.1 43.6,76 47.2,76 L49.2,76 C67.8,76.1 83.7,87.4 82.9,92.1 L82.9,92.1 Z" id="Shape" fill="#271C41"></path>
                            <path d="M57,132.8 L42.4,132.8 L38,126.9 C38,126.9 37,130.3 36.4,132.8 L20.9,132.8 L22.6,120.8 L54.5,118.4 L57,132.8 L57,132.8 Z" id="Shape" fill="#000000"></path>
                            <path d="M50.2,63.2 L50.2,63.4 C50.1,68.5 46.7,72.6 42.5,72.6 C38.3,72.6 34.8,68.4 34.8,63.2 C34.8,62.4 34.9,61.7 35,60.9 C35.3,59.3 36,57.8 36.9,56.6 C38.3,54.8 40.2,53.7 42.4,53.7 C44.8,53.7 46.9,55 48.3,57.1 C49.5,58.8 50.2,60.9 50.2,63.2 L50.2,63.2 Z" id="Shape" fill="#CD907F"></path>
                            <ellipse id="Oval" fill="#CD907F" cx="82" cy="95.5" rx="2" ry="4.5"></ellipse>
                            <path d="M47.1,77.8 C46.4,79.6 44.8,80.8 43,80.9 C40.5,81 39,79 38.9,78.9 L38.9,67.6 L46.1,67.6 C46.4,71 46.8,74.4 47.1,77.8 L47.1,77.8 Z" id="Shape" fill="#CD907F"></path>
                            <path d="M15.4,125.8 L15.4,125.9 C15.4,128.7 14.3,131 12.8,131 C11.4,131 10.2,128.7 10.2,125.9 L10.2,125 C12,125.3 13.7,125.5 15.4,125.8 L15.4,125.8 Z" id="Shape" fill="#CD907F"></path>
                            <path d="M50.2,63.2 L50.2,63.4 C48.4,58.3 47.1,57.2 46.1,57.3 C44.6,57.3 44,60.3 42,60.4 C40.3,60.5 39.5,58.3 37.9,58.4 C36.7,58.5 35.7,59.8 35.1,61 C35.4,59.4 36.1,57.9 37,56.7 C38.4,54.9 40.3,53.8 42.5,53.8 C44.9,53.8 47,55.1 48.4,57.2 C49.5,58.8 50.2,60.9 50.2,63.2 L50.2,63.2 Z" id="Shape" fill="#000000"></path>
                            <path d="M31.6,79.3 L29.8,120.8 L22.5,120.8 C23.9,112.9 25.2,105.1 26.6,97.3 C23.2,106.9 19.8,116.4 16.4,126 C16.1,125.9 15.7,125.9 15.4,125.9 C13.7,125.7 12,125.4 10.3,125.2 C9.9,125.1 9.6,125.1 9.2,125 C9.3,116.9 10.9,110.7 12.3,106.6 C14.2,100.8 19.1,86.1 31.6,79.3 L31.6,79.3 Z" id="Shape" fill="#87AEB4"></path>
                            <path d="M82.9,92.1 C82.8,92.7 82.2,94.2 80.9,95.2 C79.4,96.3 77.6,96.3 76.8,96.2 L53.5,91.2 C54.4,112.4 54.3,120.8 54.3,120.8 L48.2,120.8 L49.1,75.8 C67.8,76.1 83.7,87.4 82.9,92.1 L82.9,92.1 Z" id="Shape" fill="#87AEB4"></path>
                            <polygon id="Shape" fill="#FFFFFF" points="78.3 132.8 50.8 132.8 53.3 122.8 74.8 122.8"></polygon>
                            <path d="M103.4,87 C103.7,88 101.5,89.7 99.3,90.1 C97.6,90.4 95.4,90 95.2,89.1 C95,88 97.7,86.1 100.3,86 C101.4,86 103.2,86.2 103.4,87 L103.4,87 Z" id="Shape" fill="#FF7D93"></path>
                            <path d="M95.2,89.1 C93.4,93 92,96.1 91.1,98.3 C90.3,100.2 89.9,101.1 89.1,101.4 C87.5,101.8 85.8,99.5 81.9,95.3 C79.4,92.5 77.2,90.3 75.8,88.9 C75.5,88.6 75.1,88.3 74.8,88.2 C73.2,87.6 71.1,88.6 69.7,87.2 C67.8,85.3 69,81 70.7,77 C67.6,77.3 64.6,77.7 61.5,78 C62.4,80.5 63.2,84.1 61.5,86.2 C60.1,87.9 58.1,87.5 55.4,88.2 C49.8,89.8 46.6,94.7 44.1,98.4 C42.1,101.5 37.1,109.2 40,113.8 C41,115.4 42.5,115.9 45.1,116.9 C52.2,119.5 60.3,118.4 60.5,116.9 C60.5,116.7 60.4,116.3 57.4,114.9 C50.2,111.3 46.8,111.5 46.1,109.8 C45.5,108.4 46.6,105.9 53.3,100.6 L53.3,123.1 L74.8,123.1 C76.4,114.3 77.3,107.5 77.6,102.4 C82.2,107.5 87,110.1 90.2,108.8 C92.7,107.8 94.1,104.7 96.3,99.6 C97.9,96 98.8,92.7 99.4,90.4 C98,89.7 96.6,89.4 95.2,89.1 L95.2,89.1 Z" id="Shape" fill="#336859"></path>
                            <ellipse id="Oval" fill="#FF7D93" cx="65.5" cy="73" rx="8.5" ry="10"></ellipse>
                            <path d="M61.2,68.2 L69.9,68.2 C70.2,73.1 70.4,78 70.7,82.9 C73.8,81.1 76.8,79.3 79.9,77.6 C79.1,74 77.8,71.3 76.8,69.4 C74.9,65.9 72.8,62 69.2,61.6 C67.8,61.4 66.6,61.9 65.9,62.3 C65,61.9 63.6,61.5 61.9,61.6 C58.9,61.9 57,63.8 55.9,64.9 C50.7,70.2 51.1,79.4 51.2,80.9 C54.3,81.6 57.4,82.2 60.5,82.9 L61.2,68.2 L61.2,68.2 Z" id="Shape" fill="#000000"></path>
                            <path d="M56.9,126.1 C56.5,125.5 55.1,123.2 55.3,121.2 C55.5,119.2 57.5,116.8 59.9,116.6 C61.2,116.5 62.5,117.1 63.6,118.1 C64.9,119.4 65.7,121.3 65.6,123.3 L64.6,123.3 C64.7,121.6 64,120 62.9,118.9 C62,118.1 61,117.6 60,117.7 C58.1,117.8 56.5,119.8 56.4,121.3 C56.3,122.6 57.1,124.4 57.8,125.6 L57.8,125.7 L56.9,126.1 L56.9,126.1 Z" id="Shape" fill="#000000"></path>
                            <path d="M61.5,115.7 C62.1,116.7 61.4,118.2 60.5,118.8 C59,119.7 56.7,118.8 56.4,117.5 C56.2,116.3 57.8,114.7 59.5,114.7 C59.5,114.6 60.9,114.7 61.5,115.7 L61.5,115.7 Z" id="Shape" fill="#FF7D93"></path>
                            <path d="M71.7,129 L69.5,130 C67.5,130.9 67.4,131 67.3,131 C66.5,131.4 65,131.9 61.9,132.8 L56.8,132.8 C56,130.7 55.1,128.6 54.3,126.4 C54.6,126.3 57.9,123.8 61.9,122.8 C62.6,122.6 63.7,122.4 65.2,121.8 C66.2,121.4 66.9,121 67.4,120.8 C68.8,123.5 70.2,126.2 71.7,129 L71.7,129 Z" id="Shape" fill="#000000"></path>
                            <polygon id="Rectangle-path" fill="#FFFFFF" opacity="0.35" points="0 0 0 132.8 167.9 132.8 167.9 0"></polygon>
                        </g>
                    </g>
                    <g id="girl" transform="translate(114.000000, 203.000000)">
                        <g id="body" transform="translate(8.000000, 123.000000)">
                            <path d="M337.5,153.6 C280.8,140.4 261.2,147.1 254.7,157.2 L254.7,157.2 L254.7,157.2 L254.7,157.2 C252.7,166.7 250.9,177 249.4,187.9 C249.1,189.9 248.9,192 248.6,194 C246.6,210.6 245.7,226 245.5,240.1 C219.2,246.9 193,253.7 166.7,260.6 C154.6,263 131,265.6 105.3,255.5 C96.2,251.9 88.7,247.5 82.8,243.2 C70.8,222.9 71.4,212.3 74.6,206.3 C82.3,191.9 85.9,186.9 85.9,186.9 C86.6,185.9 88.8,182.8 89,178.5 L89,177.7 C89,172.6 89,170 88,168.5 C84,162.5 65.6,162.9 3.9,189.8 C1.4,185.2 -1,178.8 1.86406446e-13,171.6 C0.6,167.1 2.4,163.4 10.5,151.6 C16.5,142.9 19.7,138.7 22.5,134.7 C32.7,120.6 40.8,109.4 48.1,99.8 C58.5,85.9 67.2,75 77.8,63.1 C82.3,58.1 86.5,53.4 90.5,49.2 C130.3,6.9 147.3,2 158.7,0.7 C167.3,-0.3 174.6,0.4 179.2,1.2 C179.2,1.2 194.5,2.5 210.1,8.9 C210.1,8.9 210.6,9.1 211.3,9.4 C211.3,9.4 212.7,10 214,10.6 C217.2,12.1 221,14.5 225.1,17.5 C252.5,37.7 295.8,86.6 295.8,86.6 C302.4,94.1 308.1,100.4 313,106.4 C315.1,108.9 317,111.4 318.8,113.8 C318.9,114 319.1,114.1 319.2,114.3 C319.4,114.6 319.6,114.9 319.9,115.2 C320,115.3 320,115.4 320.1,115.4 C320.4,115.8 320.7,116.2 320.9,116.5 C322.6,118.9 324.5,121.7 326.5,125 C326.6,125.1 326.7,125.3 326.8,125.4 C329.2,129.5 331.5,133.8 333.8,138.7 C334.3,139.7 334.7,140.7 335.1,141.6 C335.8,143.6 336.4,145.6 336.9,147.9 C336.9,149.3 337.3,151.2 337.5,153.6 L337.5,153.6 Z" id="Shape" fill="#640042"></path>
                            <path d="M254.7,157.1 C254.7,157.1 254.7,157.2 254.7,157.1 L254.7,157.1 C254.7,157.2 254.7,157.2 254.7,157.1 C252.6,166.7 250.8,176.9 249.3,187.8 C245.3,177.9 241.3,168 237.3,158.1 C231.5,140.6 231.8,136.3 233.2,135.6 C234.8,134.8 238.7,139.1 246.5,147.9 C249.2,151 252,154.1 254.7,157.1 L254.7,157.1 Z" id="Shape" fill="url(#linearGradient-7)" opacity="0.42"></path>
                            <path d="M312.8,106.3 C305.9,105.2 298.5,103.4 290.5,100.8 C255,89.4 234.2,44 224.9,17.3 C252.3,37.5 295.6,86.4 295.6,86.4 C302.3,94 307.9,100.3 312.8,106.3 L312.8,106.3 Z" id="Shape" fill="url(#linearGradient-8)" opacity="0.35"></path>
                            <path d="M112.2,110.4 C111.4,113.1 110.4,115.5 109.3,117.2 C98.1,136 49.3,133.9 45.8,122.3 C41.8,109 96.2,77 111,81.1 C111,85.1 111.1,88.7 111.3,91.6 C111.7,97.8 112,104 112.2,110.4 L112.2,110.4 Z" id="Shape" fill="url(#linearGradient-9)" opacity="0.31"></path>
                            <path d="M227.1,85.5 C227.1,86.2 227.1,87 227,87.7 C226.9,89.9 226.9,92.2 226.8,94.6 C226.7,96.8 226.7,99.1 226.6,101.4 C226.6,103 226.5,104.6 226.5,106.2 C226.5,107.8 226.4,109.5 226.4,111.2 L226.4,111.8 C226.3,114 226.3,116.2 226.2,118.4 L226.2,119.2 C226.1,121.4 226.1,123.6 226,125.9 C226,127.5 225.9,129.1 225.8,130.7 C225.6,138.6 225.3,147 225,155.7 C225,157.2 224.9,158.6 224.8,160.1 C224.7,162.4 224.7,164.8 224.6,167.2 C224.5,168.7 224.5,170.2 224.4,171.7 C224.3,174.5 224.2,177.3 224.1,180.2 C224.1,181.2 224,182.2 224,183.2 C224,184 223.9,184.8 223.9,185.6 C223.9,186.7 223.8,187.7 223.8,188.8 C223.7,190.9 223.6,193.1 223.6,195.3 C223.6,196.4 223.5,197.5 223.5,198.6 C223.4,200.1 223.4,201.5 223.3,203 C223.2,204.7 223.2,206.4 223.1,208.1 C223,210.4 222.9,212.8 222.8,215.2 C222.8,216.3 222.7,217.4 222.6,218.5 C222.5,221.2 222.4,224 222.2,226.7 C221.8,235.7 221.4,245.1 220.9,254.6 C221,254.6 221,254.5 221,254.5 C221,254.6 218,259.1 212.7,265.3 C210.4,268 207.6,271.1 204.5,274.2 C199.5,279.3 193.6,284.6 187.1,289.2 C184.5,291.1 181.7,292.8 178.9,294.4 C174,297.2 168.8,299.4 163.5,300.7 C162.4,301 161,301.3 159.4,301.5 C157.1,301.9 154.4,302.1 151.2,302.1 C145.7,302.1 138.8,301.3 130.7,298.7 C128.1,297.9 125.4,296.8 122.5,295.6 C115.1,292.4 106.9,287.8 97.9,281.2 C100.6,267.7 103,253.7 105.1,239.2 C105.6,235.9 106,232.6 106.4,229.4 C106.6,227.4 106.9,225.4 107.1,223.5 C107.3,222.1 107.4,220.6 107.6,219.2 C107.7,218.1 107.8,217.1 108,216 C108.5,211.6 108.9,207.3 109.3,203 C109.4,201.8 109.5,200.6 109.6,199.5 C109.6,198.9 109.7,198.3 109.8,197.6 C109.9,196.2 110,194.8 110.1,193.4 C110.6,187.5 111,181.7 111.3,175.9 C111.4,174.8 111.4,173.7 111.5,172.6 C111.5,172 111.6,171.4 111.6,170.7 C111.7,169.7 111.7,168.6 111.8,167.6 C112,164.1 112.1,160.6 112.2,157.1 C112.3,155.2 112.3,153.3 112.3,151.4 C112.3,149.7 112.4,147.9 112.4,146.2 L112.4,145.3 C112.4,143.6 112.4,141.8 112.5,140.1 L112.5,134.6 L112.5,129.1 L112.5,126 L112.5,122.6 L112.5,122.4 C112.5,120.5 112.4,118.5 112.4,116.6 L112.4,116.6 C112.4,114.6 112.3,112.7 112.2,110.7 C112,104.3 111.7,98.1 111.4,91.9 C111.2,89 111,85.4 111.1,81.4 C111.1,80.5 111.1,79.5 111.2,78.5 C111.2,78 111.2,77.5 111.3,77 C111.3,76.5 111.4,76 111.4,75.5 L111.4,75.3 C111.4,74.5 111.5,73.7 111.6,72.9 C111.6,72.6 111.6,72.3 111.7,72 C111.7,71.5 111.8,71.1 111.8,70.7 C111.8,70.3 111.9,69.8 111.9,69.3 C111.9,69.1 112,68.8 112,68.6 C112.1,68 112.1,67.4 112.2,66.8 C112.4,65.6 112.5,64.5 112.7,63.2 C112.8,62.6 112.9,62 113,61.4 C113.1,60.8 113.2,60.2 113.4,59.6 C113.5,59 113.6,58.4 113.8,57.7 C113.9,57.1 114.1,56.5 114.2,55.8 C114.3,55.2 114.5,54.6 114.6,54 C114.6,53.9 114.6,53.9 114.7,53.8 C114.9,53.2 115,52.6 115.2,52 C115.3,51.5 115.5,51 115.6,50.5 C115.7,50.2 115.8,49.8 115.9,49.5 C116.1,49 116.2,48.5 116.4,48 C116.5,47.6 116.6,47.2 116.8,46.9 C116.9,46.6 117,46.3 117.1,46.1 C117.3,45.6 117.5,45 117.7,44.5 C117.9,43.8 118.2,43.2 118.5,42.6 C118.8,42 119,41.3 119.3,40.7 C119.6,40.1 119.9,39.4 120.2,38.8 C120.5,38.2 120.7,37.6 121,37.1 C121.5,36 122.1,34.9 122.7,33.8 L122.7,33.8 C123.2,32.9 123.7,32.1 124.2,31.2 C124.6,30.6 125,29.9 125.3,29.3 C126.1,28 126.9,26.8 127.8,25.5 C128.7,24.2 129.8,22.7 130.9,21.3 C134.7,16.3 139.8,11 147.5,7.1 C148.8,6.4 150.1,5.9 151.4,5.4 C154.2,4.3 156.9,3.6 159.6,3.1 C166.7,1.8 173.5,2.2 179.1,3.2 C182.3,3.8 185.1,4.5 187.3,5.2 C188.9,5.7 190.2,6.2 191.2,6.6 C191.5,6.7 191.9,6.9 192.4,7.1 C197.4,9.3 201.5,12.4 204.7,15.7 C208.4,19.5 211.1,23.6 212.9,26.8 C213.8,28.3 214.4,29.6 214.9,30.6 C215.3,31.5 215.8,32.3 216.2,33.2 C216.4,33.6 216.6,34.1 216.8,34.5 C217.6,36.2 218.3,38 219,39.7 C219.2,40.1 219.3,40.6 219.5,41 C220,42.3 220.4,43.6 220.9,44.9 C221.3,46 221.6,47.2 221.9,48.3 C222,48.7 222.1,49.1 222.2,49.4 C222.3,49.7 222.4,50.2 222.5,50.6 C222.6,50.8 222.6,51.1 222.7,51.3 L222.7,51.5 C223,52.6 223.3,53.7 223.5,54.8 C223.5,55 223.6,55.2 223.6,55.3 C223.6,55.5 223.7,55.6 223.7,55.8 C224,57.2 224.3,58.6 224.6,59.9 C224.7,60.4 224.8,60.8 224.9,61.3 C225,61.8 225.1,62.2 225.1,62.6 C225.1,62.8 225.2,63 225.2,63.2 C225.5,64.7 225.7,66.2 225.9,67.6 C226,68.3 226.1,68.9 226.1,69.6 C226.2,70.1 226.2,70.6 226.3,71.1 C226.5,72.5 226.6,73.8 226.7,75 C226.7,75.5 226.8,76 226.8,76.4 C226.9,78 227,79.4 227,80.7 L227,81.2 L227,82.6 L227,83 L227,83.8 C227.1,84.8 227.1,85.5 227.1,85.5 L227.1,85.5 Z" id="Shape" fill="#FFFFFF"></path>
                            <path d="M130.8,20.9 L130.8,298.5 C128.2,297.7 125.5,296.6 122.6,295.4 L122.6,33.4 C123.1,32.5 123.6,31.7 124.1,30.8 C124.5,30.2 124.9,29.5 125.2,28.9 C126,27.6 126.8,26.4 127.7,25.1 C128.7,23.8 129.7,22.3 130.8,20.9 L130.8,20.9 Z" id="Shape" fill="#19233D"></path>
                            <path d="M159.5,2.6 L159.5,301.3 C157.2,301.7 154.5,301.9 151.3,301.9 L151.3,5 C154.1,3.9 156.8,3.1 159.5,2.6 L159.5,2.6 Z" id="Shape" fill="#FC860A"></path>
                            <path d="M187.1,4.8 L187.1,289 C184.5,290.9 181.7,292.6 178.9,294.2 L178.9,2.7 C182.1,3.3 184.9,4.1 187.1,4.8 L187.1,4.8 Z" id="Shape" fill="#19233D"></path>
                            <path d="M212.7,26.4 L212.7,265.1 C210.4,267.8 207.6,270.9 204.5,274 L204.5,15.2 C208.3,19.1 210.9,23.2 212.7,26.4 L212.7,26.4 Z" id="Shape" fill="#FC860A"></path>
                            <path d="M227.1,85.5 C227.1,86.2 227.1,87 227,87.7 C226.9,89.9 226.9,92.2 226.8,94.6 C226.7,96.8 226.7,99.1 226.6,101.4 C226.6,103 226.5,104.6 226.5,106.2 C226.5,107.8 226.4,109.5 226.4,111.2 L226.4,111.8 C226.3,114 226.3,116.1 226.2,118.4 L226.2,119.2 C226.1,121.4 226.1,123.6 226,125.9 C226,127.5 225.9,129.1 225.8,130.7 C225.6,138.6 225.3,147 225,155.7 C225,157.2 224.9,158.6 224.8,160.1 C224.7,162.4 224.6,164.8 224.6,167.2 C224.5,168.7 224.5,170.2 224.4,171.7 C224.3,174.5 224.2,177.3 224.1,180.2 C224.1,181.2 224,182.2 224,183.2 C224,184 223.9,184.8 223.9,185.6 C223.9,186.7 223.8,187.7 223.8,188.8 C223.7,190.9 223.6,193.1 223.6,195.3 C223.6,196.4 223.5,197.5 223.5,198.6 C223.4,200.1 223.4,201.5 223.3,203 C223.2,204.7 223.2,206.4 223.1,208.1 C223,211.5 222.8,215 222.7,218.5 C222.6,221.2 222.5,224 222.3,226.7 C221.9,235.7 221.5,245.1 221,254.6 C221.1,254.6 221.1,254.5 221.1,254.5 C221.1,254.6 218.1,259.1 212.8,265.3 C210.5,268 207.7,271.1 204.6,274.2 C199.6,279.3 193.7,284.6 187.2,289.2 C184.6,291.1 181.8,292.8 179,294.4 C174.1,297.2 168.9,299.4 163.6,300.7 C162.5,301 161.1,301.3 159.5,301.5 C157.2,301.9 154.5,302.1 151.3,302.1 C145.8,302.1 138.9,301.3 130.8,298.7 C128.2,297.9 125.5,296.8 122.6,295.6 C115.2,292.4 107,287.8 98,281.2 C100.7,267.7 103.1,253.7 105.2,239.2 C105.7,235.9 106.1,232.6 106.5,229.4 C106.7,227.4 107,225.4 107.2,223.5 C107.4,222.1 107.5,220.6 107.7,219.2 C107.8,218.1 107.9,217.1 108.1,216 C108.6,211.6 109,207.3 109.4,203 C109.5,201.8 109.6,200.6 109.7,199.5 C109.7,198.9 109.8,198.3 109.9,197.6 C110,196.2 110.1,194.8 110.2,193.4 C110.7,187.5 111.1,181.7 111.4,175.9 C111.5,174.8 111.5,173.7 111.6,172.6 C111.6,172 111.7,171.4 111.7,170.7 C111.8,169.7 111.8,168.6 111.9,167.6 C112.1,164.1 112.2,160.6 112.3,157.1 C112.4,155.2 112.4,153.3 112.4,151.4 C112.4,149.7 112.5,147.9 112.5,146.2 L112.5,145.3 C112.5,143.6 112.5,141.8 112.6,140.1 L112.6,134.6 L112.6,129.1 L112.6,126 L112.6,122.6 L112.6,122.4 C112.6,120.5 112.5,118.5 112.5,116.6 L112.5,116.6 C112.5,114.6 112.4,112.7 112.3,110.7 C112.1,104.3 111.8,98.1 111.5,91.9 C111.3,89 111.1,85.4 111.2,81.4 C111.2,80.5 111.2,79.5 111.3,78.5 C111.3,78 111.3,77.5 111.4,77 C111.4,76.5 111.5,76 111.5,75.5 L111.5,75.3 C111.5,74.5 111.6,73.7 111.7,72.9 C111.7,72.6 111.7,72.3 111.8,72 C111.8,71.5 111.9,71.1 111.9,70.7 C111.9,70.3 112,69.8 112,69.3 C112,69.1 112.1,68.8 112.1,68.6 C112.2,68 112.2,67.4 112.3,66.8 C112.5,65.6 112.6,64.5 112.8,63.2 C112.9,62.6 113,62 113.1,61.4 C113.2,60.8 113.3,60.2 113.5,59.6 C113.6,59 113.7,58.4 113.9,57.7 C114,57.1 114.2,56.5 114.3,55.8 C114.4,55.2 114.6,54.6 114.7,54 C114.7,53.9 114.7,53.9 114.8,53.8 C115,53.2 115.1,52.6 115.3,52 C115.4,51.5 115.6,51 115.7,50.5 C115.8,50.2 115.9,49.8 116,49.5 C116.2,49 116.3,48.5 116.5,48 C116.6,47.6 116.7,47.2 116.9,46.9 C117,46.6 117.1,46.3 117.2,46.1 C117.4,45.6 117.6,45 117.8,44.5 C118,43.8 118.3,43.2 118.6,42.6 C118.9,42 119.1,41.3 119.4,40.7 C119.7,40.1 120,39.4 120.3,38.8 C120.6,38.2 120.8,37.6 121.1,37.1 C121.6,36 122.2,34.9 122.8,33.8 L122.8,33.8 C123.3,32.9 123.8,32.1 124.3,31.2 C124.7,30.6 125.1,29.9 125.4,29.3 C126.2,28 127,26.8 127.9,25.5 C128.8,24.2 129.9,22.7 131,21.3 C134.8,16.3 139.9,11 147.6,7.1 C148.9,6.4 150.2,5.9 151.5,5.4 C154.3,4.3 157,3.6 159.7,3.1 C166.8,1.8 173.6,2.2 179.2,3.2 C182.4,3.8 185.2,4.5 187.4,5.2 C189,5.7 190.3,6.2 191.3,6.6 C191.6,6.7 192,6.9 192.5,7.1 C197.5,9.3 201.6,12.4 204.8,15.7 C208.5,19.5 211.2,23.6 213,26.8 C213.9,28.3 214.5,29.6 215,30.6 C215.4,31.5 215.9,32.3 216.3,33.2 C216.5,33.6 216.7,34.1 216.9,34.5 C217.7,36.2 218.4,38 219.1,39.7 C219.3,40.1 219.4,40.6 219.6,41 C220.1,42.3 220.5,43.6 221,44.9 C221.4,46 221.7,47.2 222,48.3 C222.1,48.7 222.2,49.1 222.3,49.4 C222.4,49.7 222.5,50.2 222.6,50.6 C222.7,50.8 222.7,51.1 222.8,51.3 L222.8,51.5 C223.1,52.6 223.4,53.7 223.6,54.8 C223.6,55 223.7,55.2 223.7,55.3 C223.7,55.5 223.8,55.6 223.8,55.8 C224.1,57.2 224.4,58.6 224.7,59.9 C224.8,60.4 224.9,60.8 225,61.3 C225.1,61.8 225.2,62.2 225.2,62.6 C225.2,62.8 225.3,63 225.3,63.2 C225.6,64.7 225.8,66.2 226,67.6 C226.1,68.3 226.2,68.9 226.2,69.6 C226.3,70.1 226.3,70.6 226.4,71.1 C226.6,72.5 226.7,73.8 226.8,75 C226.8,75.5 226.9,76 226.9,76.4 C227,78 227.1,79.4 227.1,80.7 L227.1,81.2 L227.1,82.6 L227.1,83 L227.1,83.8 C227.1,84.8 227.1,85.5 227.1,85.5 L227.1,85.5 Z" id="Shape"></path>
                            <path d="M220.9,254.4 C221,254.4 221,254.3 221,254.3 C221,254.7 194.6,292.7 163.6,300.5 C154.7,302.7 131.8,305.8 98.1,281.1 C100.8,267.6 103.2,253.6 105.3,239.1 C105.8,235.8 106.2,232.5 106.6,229.3 C121.7,233.8 142.8,237.7 167.7,235 C190.7,232.5 209.2,225.3 222.6,218.3 C222.1,229.8 221.5,241.9 220.9,254.4 L220.9,254.4 Z" id="Shape" fill="#271C41"></path>
                            <path d="M227.1,85.5 C226.2,116.5 225.1,160.6 222.8,214.9 C188.1,217 171.8,220 163.6,222.7 C162.4,223.1 158.8,224.3 153.9,224.6 C142,225.3 132.8,220 128.8,217.6 C123.2,214.3 118.8,211.7 116.5,206.3 C113.7,199.9 115.7,193.4 116.5,190.9 C122.9,170 155.2,157.8 171.8,133.6 C194.4,100.5 173.9,61.8 196.4,51.7 C204.6,48 214.1,48.8 222.6,51 C227.5,69.6 227.1,85.5 227.1,85.5 L227.1,85.5 Z" id="Shape" fill="url(#linearGradient-10)" opacity="0.12"></path>
                            <path d="M125.4,108.9 C125.2,108.1 124.8,107.4 124.4,106.7 C123.6,105.2 121.5,101.5 117.2,99.1 C114.8,97.7 111.9,97.1 108.8,97.2 C99.5,97.3 87.5,103.2 75.4,111.7 C62.9,120.4 50.4,131.9 40.8,142.7 C37.9,145.9 34.8,149.4 31.7,153.1 C28.9,156.4 26.1,159.9 23.5,163.5 C20.1,168.2 17.2,173.1 15,178 C12.8,182.9 11.4,188 11.3,192.9 C11.2,196 11.6,199.2 12.6,202.2 C14.2,207.1 17.4,212.1 21.8,216 C24,218 26.5,219.8 29.3,221.1 C40.3,226.6 52.6,224.6 57.8,221.7 C58.1,221.5 59.7,220.6 61.8,219.3 C61.8,219.3 65.9,216.6 69.9,213 C73.5,209.9 81.1,201.3 89.8,188.6 C90.5,187.6 91.2,186.6 91.9,185.5 C92.3,184.9 92.7,184.2 93.1,183.6 L98.4,174.4 C106.8,157.1 113.1,144.5 117.5,135.8 C117.8,135.3 118,134.8 118.2,134.3 C120.5,129.7 122.9,125.2 124.4,120.9 C126,116.6 126.6,112.6 125.4,108.9 L125.4,108.9 Z" id="Shape" fill="#640042"></path>
                            <path d="M337.6,161.2 C337.3,165.6 336.6,175.3 329.4,183.7 C318.2,196.8 300.1,196 297.9,195.6 C296.2,195.3 294.6,194.9 294.6,194.9 C293.6,194.6 292.7,194.3 291.9,193.9 C291.6,193.8 291.3,193.6 291,193.5 C287.7,192 284.8,189.8 281.3,186.4 C275.3,180.7 267.9,171.6 254.9,157.3 C254.8,157.2 254.8,157.1 254.7,157.1 C235.8,136.4 222.3,123.2 214.3,113 C207.3,104 204.6,97.3 206.7,89.8 C207.2,88 208.3,83.8 211.9,80.7 C228.7,66.1 275.2,94.4 282.4,98.8 C285.1,100.4 285.4,100.7 287.4,102.1 C287.4,102.1 289.4,103.6 294.7,107 C299.3,109.9 309.8,111 318.8,113.7 C318.9,113.9 319.1,114 319.2,114.2 C319.4,114.5 319.6,114.8 319.9,115.1 C320,115.2 320,115.3 320.1,115.3 C320.4,115.7 320.7,116.1 320.9,116.4 C322.6,118.8 324.5,121.6 326.5,124.9 C326.6,125 326.7,125.2 326.8,125.3 C330.3,131.1 333.1,135.9 335.1,141.5 C335.5,142.6 335.8,143.6 336.1,144.8 C336.4,145.8 336.6,146.8 336.8,147.8 C337.1,149.1 337.5,151.1 337.7,153.4 C337.7,155.8 337.8,158.3 337.6,161.2 L337.6,161.2 Z" id="Shape" fill="#640042"></path>
                            <path d="M281.3,186.5 C275.3,180.8 267.9,171.7 254.9,157.4 C254.8,157.3 254.8,157.2 254.7,157.2 C235.8,136.5 222.3,123.3 214.3,113.1 C236.1,123.6 280.5,149.7 281.3,181.8 C281.4,183.4 281.4,185 281.3,186.5 L281.3,186.5 Z" id="Shape" fill="url(#linearGradient-11)" opacity="0.22"></path>
                            <path d="M337.6,161.2 C337.3,165.6 336.6,175.3 329.4,183.7 C318.2,196.8 300.1,196 297.9,195.6 C296.2,195.3 294.6,194.9 294.6,194.9 C293.6,194.6 292.7,194.3 291.9,193.9 C295.9,170.4 321.8,152.6 335.8,144.9 C336.1,145.9 336.3,146.9 336.5,147.9 C336.8,149.2 337.2,151.2 337.4,153.5 C337.7,155.8 337.8,158.3 337.6,161.2 L337.6,161.2 Z" id="Shape" fill="url(#linearGradient-12)" opacity="0.31"></path>
                            <path d="M92,185.5 C91.3,186.6 90.6,187.6 89.9,188.6 C81.2,201.3 73.6,209.9 70,213 C65.9,216.6 61.9,219.3 61.9,219.3 C59.9,220.7 58.3,221.6 58,221.8 C52.8,224.7 40.5,226.7 29.5,221.2 C26.7,219.8 24.2,218.1 22,216 C17.6,212 14.4,207 12.8,202.2 C11.8,199.1 11.4,196 11.5,192.9 C11.6,187.9 13,182.9 15.2,178 C17.4,173 20.4,168.2 23.7,163.5 C43.3,162.6 74.1,165.5 92,185.5 L92,185.5 Z" id="Shape" fill="url(#linearGradient-13)" opacity="0.31"></path>
                            <path d="M75.5,111.5 C75.9,114.5 76.3,118.1 76.5,122.4 C77.6,146.2 46.4,151.6 31.8,152.8 C34.9,149.1 38,145.6 40.9,142.4 C50.5,131.7 63,120.3 75.5,111.5 L75.5,111.5 Z" id="Shape" fill="url(#linearGradient-14)" opacity="0.09"></path>
                        </g>
                        <g id="head" transform="translate(114.000000, 0.000000)">
                            <path d="M12.6,40.6 L5.4,116.3 C20.4,119.7 35.4,123.1 50.4,126.5 C52.4,105.3 54.5,84.2 56.5,63 L12.6,40.6 L12.6,40.6 Z" id="Shape" fill="url(#linearGradient-15)"></path>
                            <g id="neck" transform="translate(41.000000, 76.000000)">
                                <path d="M45.3,64.9 C38.7,76.8 8.2,77.4 1.3,65.9 C-0.6,62.7 0.5,60.5 1.7,56 C1.8,55.7 1.8,55.5 1.9,55.2 C2,54.9 2.1,54.5 2.1,54.2 C2.2,54 2.2,53.7 2.3,53.5 C2.4,53.2 2.4,52.9 2.5,52.6 C2.5,52.4 2.6,52.1 2.6,51.9 C3,49.8 3.2,47.4 3.3,44.5 C3.4,42.3 3.2,39.6 3,36.8 L3,36.6 C2.8,32.4 15.2,30 22.7,25.1 C35.9,16.5 35.4,-0.6 38.6,-0.1 C43.3,0.6 42.5,34 44.1,48.7 C45.5,59.7 47.2,61.3 45.3,64.9 L45.3,64.9 Z" id="Shape" fill="#FF7D93"></path>
                                <path d="M27.9,26 C27.9,26 24.8,50.6 3.3,55.7 C2.7,55.8 2.2,55.9 1.7,56 C1.8,55.7 1.8,55.5 1.9,55.2 C2,54.9 2.1,54.5 2.1,54.2 C2.2,54 2.2,53.7 2.3,53.5 C2.4,53.2 2.4,52.9 2.5,52.6 C2.5,52.4 2.6,52.1 2.6,51.9 C3.2,49 3.6,46.6 3.3,44.5 C3.4,42.3 3.2,39.6 3,36.8 C6,36.9 8.6,36.6 10.4,36.3 C12.7,35.9 15.7,35.4 19.2,33.5 C23.7,31.2 26.4,28 27.9,26 L27.9,26 Z" id="Shape" fill="#153E5C" opacity="0.33"></path>
                            </g>
                            <g id="face_1_" transform="translate(16.000000, 6.000000)">
                                <path d="M71.1,47.4 C76,69.8 67.7,99.3 48.8,107.3 C47,108.1 42.4,110 36.5,109.3 C16.6,107.2 3.3,78.6 0.7,57.1 C-1.7,37.7 2.6,6 19.7,0.6 C37.8,-5.2 65.1,20.2 71.1,47.4 L71.1,47.4 Z" id="face" fill="#FF7D93"></path>
                                <path d="M24,57.6 C23.7,60.6 23.1,65.2 22.1,70.8 C20.9,77.6 19.9,80.8 21.4,82 C22,82.4 23.8,83.3 29.6,79.5 C27.7,72.1 25.9,64.9 24,57.6 L24,57.6 Z" id="nose" fill="#640042"></path>
                                <g id="eyes" transform="translate(10.000000, 55.000000)" fill="#000000">
                                    <circle id="Oval" cx="27.5" cy="2.5" r="2.5"></circle>
                                    <circle id="Oval" cx="2.5" cy="5.5" r="2.5"></circle>
                                </g>
                                <path d="M29.7,91.8 C29.4,91.8 29.1,91.5 29.1,91.2 C29.1,90.9 29.4,90.6 29.7,90.6 C31,90.6 34.3,90.3 37.2,87.8 C40.5,84.9 41,81 41.1,79.8 C41.1,79.5 41.4,79.2 41.8,79.2 C42.1,79.2 42.4,79.5 42.4,79.9 C42.3,81.2 41.8,85.5 38.1,88.7 C34.9,91.5 31.2,91.8 29.7,91.8 L29.7,91.8 L29.7,91.8 Z" id="Shape" fill="#000000"></path>
                                <g id="brows" transform="translate(3.000000, 45.000000)" fill="#000000">
                                    <path d="M14.4,1.6 C12.2,2.7 9.9,3.9 7.7,5 C5.1,6.3 2.5,7.6 -0.1,9 C0.6,8 2.7,5.1 6.8,3.2 C10.1,1.5 13.1,1.5 14.4,1.6 L14.4,1.6 Z" id="Shape"></path>
                                    <path d="M29.1,0.4 C31.5,1 34,1.5 36.4,2.1 C39.2,2.8 42.1,3.4 44.9,4.1 C44,3.3 41.2,1 36.8,0.1 C33.2,-0.6 30.3,1.47382107e-14 29.1,0.4 L29.1,0.4 Z" id="Shape"></path>
                                </g>
                            </g>
                            <path d="M53.5,-0.3 C34.8,-0.7 19.7,12 19.7,12 C6.3,22.7 1.7,36.5 0.3,41.7 C5,43.2 11.8,45 20.1,45.9 C22.4,38 24.6,30.2 26.9,22.3 C25.2,30.1 23.5,38 21.8,45.8 C26.1,46.3 31.5,46.5 37.5,46.1 C38.1,38.8 38.6,31.6 39.2,24.3 L39.2,45.8 L41.2,45.8 C48.2,45.6 54.4,43.9 59.6,41.7 C59,38.5 58.1,34.6 56.5,30.4 C54.6,25.4 52.4,21.3 50.4,18.1 C52.1,20.4 53.9,23.2 55.5,26.3 C58.4,31.8 60.2,36.9 61.3,41.3 C63.8,40.4 66.3,39.4 68.9,38.4 C69.6,38.1 70.2,37.9 70.9,37.6 C73.4,59.8 75.7,81.9 78.1,104.1 C79.1,114 80.2,123.9 81.2,133.8 C95.9,117.8 110.5,101.7 125.2,85.7 C112.2,34.9 82.8,0.4 53.5,-0.3 L53.5,-0.3 Z" id="Shape" fill="url(#linearGradient-16)"></path>
                        </g>
                        <g id="Group" transform="translate(0.000000, 267.000000)">
                            <g transform="translate(69.000000, 179.000000)" id="Shape">
                                <path d="M173.6,51.9 C171.2,55.8 158.7,52.1 151.9,50.1 C135.2,45.3 112.5,34.9 103,24.5 C99.8,21 98.1,17.4 98.7,14.1 C99.3,10.7 102.3,7.6 106.3,5.3 C107.4,4.7 108.5,4.1 109.6,3.7 C110.8,3.2 112,2.8 113.3,2.4 C118.7,0.9 124.4,0.9 127.8,3.3 C131.5,5.9 130.8,10 133.5,14.9 C134.1,16 135,17.2 136.1,18.4 C141.2,23.9 145.8,22.8 153.6,26.8 C164.7,32.4 173.2,43.5 173.9,49.3 C174.1,50.3 174,51.2 173.6,51.9 L173.6,51.9 Z" fill="#BDD3DE"></path>
                                <path d="M85.7,20.5 C86,34.5 48.3,46.1 23.7,48.9 C16.8,49.7 4.2,51.2 1.1,47.7 C0.9,47.5 0.7,47.2 0.6,46.9 C-1.4,41.9 11,28.8 25.9,24.1 C36.7,20.7 39.4,23.1 45.7,18.4 C47,17.4 48.1,16.4 48.9,15.4 C53.3,10.3 52.9,5.2 58.5,3.1 C62.8,1.4 67.9,2.5 72.4,4.9 L72.4,4.9 C75.6,6.6 78.6,8.9 80.7,11.4 C83.2,14.1 85.7,17 85.7,20.5 L85.7,20.5 Z" fill="#BDD3DE"></path>
                                <path d="M85.7,20.5 C85.9,34.5 48.3,46.1 23.7,48.9 C16.8,49.7 4.2,51.2 1.2,47.7 C26,43.1 66.6,19.8 80.9,11.3 C83.7,14.2 85.7,17.4 85.7,20.5 L85.7,20.5 Z" fill="url(#linearGradient-17)" opacity="0.36"></path>
                                <path d="M173.6,51.9 C171.2,55.8 158.6,52.1 151.9,50.1 C135.2,45.3 112.5,34.9 103,24.5 L106.3,5.4 L107.3,-0.3 C107.3,-0.3 108,1.2 109.6,3.8 C115.7,13.4 134.3,37.7 173.9,49.4 C174.1,50.3 174,51.2 173.6,51.9 L173.6,51.9 Z" fill="url(#linearGradient-18)" opacity="0.36"></path>
                                <path d="M72.5,4.8 L72.5,4.8 C72.3,5.6 71.9,6.4 71.4,7.3 C66.7,15 56.3,15.8 49.1,15.4 C53.5,10.3 53.1,5.2 58.7,3.1 C62.8,1.4 67.9,2.5 72.5,4.8 L72.5,4.8 Z" fill="#FC860A"></path>
                                <path d="M133.6,14.9 L133.6,14.9 C119.4,19.4 114.7,7.7 113.3,2.4 C118.7,0.9 124.4,0.9 127.8,3.3 C131.6,5.9 130.8,10.1 133.6,14.9 L133.6,14.9 Z" fill="#FC860A"></path>
                            </g>
                            <g id="Shape">
                                <path d="M194.1,181 C192.6,185.6 190,191.9 185.2,198.4 C182.3,202.4 179.3,205.5 176.6,207.8 C165.3,201.7 154.7,195.4 144.9,189.1 C144.9,189.1 144.9,189.1 144.8,189.1 C102.1,161.9 72.4,133.7 52.8,112.4 C28.7,86.1 -10.2,43.7 2.6,17.2 C3.4,15.6 4.4,14 5.5,12.6 C11,5.5 20.2,0.6 29.2,-0.2 C32.2,-0.4 36.9,-0.4 46,6.1 C58.5,15 79,35.9 114.1,84.7 C122.8,96.8 129,105.9 134.8,114 C139,119.9 143,125.3 147.5,131 C151.1,135.6 154.3,139.4 156.6,142 C156.6,142 158.3,144 160.2,146.1 C165.1,151.5 177.4,164.4 194.1,181 L194.1,181 Z" fill="#39215A"></path>
                                <path d="M185.2,198.4 C182.3,201.5 179.4,204.7 176.6,207.8 C168.1,202.9 157.2,196.6 144.9,189.1 C144.9,189.1 144.9,189.1 144.8,189.1 C102.1,161.9 72.4,133.7 52.8,112.4 C28.7,86.1 -10.2,43.7 2.6,17.2 C3.4,15.6 4.4,14 5.5,12.6 C16.9,31.7 30.4,51.9 46.6,72.5 C93.5,132 144.6,172.1 185.2,198.4 L185.2,198.4 Z" fill="url(#linearGradient-19)" opacity="0.28"></path>
                                <path d="M315.9,97.1 C250.6,144.4 163.7,200.3 143.5,213.3 C140.6,210 137.6,206 134.6,201.4 C130.4,194.7 127.5,188.5 125.5,183.1 C158.4,157.2 182.8,133.4 199.4,116 C203.1,112.1 207.2,107.8 211.7,103 C227.5,86.5 248.7,65.6 278.9,44.4 C301.6,28.5 317.4,20.8 331.2,26.4 C333,27.1 334.7,28.1 336.3,29.2 C343.5,34.1 348.8,42.5 349.6,51 C351.6,70.8 329,87.6 315.9,97.1 L315.9,97.1 Z" fill="#39215A"></path>
                                <path d="M315.9,97.1 C250.6,144.4 163.7,200.3 143.5,213.3 C140.5,209.3 137.6,205.3 134.6,201.4 C172.1,172.7 210.8,141.5 250.2,107.4 C280.6,81.1 309.4,55 336.4,29.3 C343.6,34.2 348.9,42.6 349.7,51.1 C351.6,70.8 329,87.6 315.9,97.1 L315.9,97.1 Z" fill="url(#linearGradient-20)" opacity="0.28"></path>
                                <path d="M278.7,59.2 C273.6,80.6 247.5,96.6 211.8,102.9 C227.6,86.4 248.8,65.5 279,44.3 C280,50.2 279.7,55.1 278.7,59.2 L278.7,59.2 Z" fill="url(#linearGradient-21)" opacity="0.08"></path>
                                <path d="M135,114.1 C91.7,129.2 58.4,43.3 46.2,6.2 C58.7,15.1 79.2,36 114.3,84.8 C123,96.9 129.2,106 135,114.1 L135,114.1 Z" fill="url(#linearGradient-22)" opacity="0.08"></path>
                            </g>
                        </g>
                        <g id="smartphone" transform="translate(129.000000, 183.000000)">
                            <path d="M51.1,44.8 L51.1,44.8 C51.2,44.7 51.2,44.5 51.1,44.3 L31.8,3.8 C31.3,2.7 29,1.7 26.7,1.6 L4.7,0.4 C3.2,0.3 2.1,0.7 1.8,1.3 L1.8,1.3 C1.8,1.4 0.2,4.1 0.2,4.1 L3,4 L20.4,33.9 L24.5,41 C24.9,41.8 26.8,42.6 28.7,42.8 L47.7,45.2 L49.6,47.6 L51.1,44.8 L51.1,44.8 Z" id="Shape" fill="#BDD3DE"></path>
                            <path d="M49.4,47.3 L30.1,6.8 C29.6,5.7 27.3,4.7 25,4.6 L3,3.4 C1.5,3.3 0.4,3.7 0.1,4.3 L0.1,4.3 C0.1,4.4 0,4.5 0,4.6 L0,4.6 C0,4.7 0.1,4.9 0.1,5 L4.5,12.7 L9.4,21.1 L18.6,36.9 L22.7,44 C23.1,44.8 25,45.6 26.9,45.8 L46.3,48.2 C47.8,48.4 48.9,48.2 49.2,47.8 C49.5,47.7 49.5,47.6 49.4,47.3 L49.4,47.3 Z" id="Shape" fill="url(#linearGradient-23)"></path>
                        </g>
                        <g id="hands" transform="translate(117.000000, 186.000000)">
                            <path d="M117,27 C116.5,28.2 115.8,29.2 114.9,30.1 C114.7,30.3 114.4,30.6 114.1,30.8 C112.6,32.1 110.7,33 108.8,33.3 C108.4,33.4 108.1,33.4 107.7,33.3 C107.5,33.3 107.3,33.3 107.2,33.2 C107.1,33.2 107,33.1 106.8,33.1 C106.5,33 106.3,33 106,32.9 C105.9,32.9 105.7,32.8 105.6,32.7 C105.4,32.6 105.3,32.6 105.1,32.5 C104.9,32.4 104.6,32.3 104.3,32.2 C104,32.1 103.8,31.9 103.5,31.8 C103.2,31.7 102.9,31.5 102.6,31.3 C101.4,30.6 100,29.8 98.5,28.8 C98.1,28.6 97.8,28.3 97.4,28.1 C96.6,27.6 95.8,27.1 95,26.5 C88,22 86.8,20.6 86.3,18.6 C86,17.2 85.9,15.2 86.2,13.3 C86.2,13 86.3,12.8 86.3,12.6 C86.4,12.2 86.4,11.7 86.5,11.3 L86.5,11.1 C86.8,9.6 87.3,8.4 87.3,7.2 C87.2,7.2 87.2,7.2 87.1,7.3 C86.7,7.4 86.3,7.5 85.8,7.6 C85.5,7.7 85.2,7.7 85,7.8 C83.5,8.1 81.9,8.5 80.4,8.8 C74.5,10.2 69.3,11.4 68.2,11.7 C67.1,12.1 66.2,12.1 65.5,11.8 C64.5,11.4 63.3,10.4 63.2,9.6 C63.2,8.5 71,6 79.5,3.8 C81.3,3.3 83.1,2.9 84.9,2.5 C90.2,1.3 95.3,0.4 98.1,0.1 C99.1,3.19050342e-14 100.9,-0.1 102.9,0.6 C103.5,0.8 105.1,1.4 107.1,3.3 C109.3,5.3 115.6,16.2 116.9,22.9 C117.3,24.6 117.4,26 117,27 L117,27 Z" id="Shape" fill="#FF7D93"></path>
                            <path d="M56.9,24.2 C57.6,24.8 57.2,26.1 57.1,26.6 C57,26.9 56.8,27.3 56.5,27.7 C56,28.3 55.3,28.9 54.3,29.5 C50.5,31.8 43.3,34.4 35.8,37.1 C34.9,37.4 34,37.8 33,38.1 C30.4,39.1 27.8,40.1 25.3,41.2 C23.2,42.1 21.3,43 19.8,43.7 C18.4,44.4 17.2,45 16.4,45.4 L16.4,45.8 C16.2,45 15.8,44.3 15.4,43.6 C15,42.9 14.3,41.5 13.1,40.1 C11.9,38.7 10.4,37.1 8.2,35.9 C5.8,34.5 2.9,33.9 -0.2,34 C0.7,31.8 1.4,30.2 2,29.1 C2.2,28.8 2.3,28.5 2.5,28.2 C3.1,27.2 3.6,26.4 3.6,26.4 C5.4,23.6 7,21.6 9.6,18.4 C11.6,16.1 14,13.3 16.8,10.1 L16.8,10.1 C17.4,11 18.2,12.4 19.2,14 C19.9,15.2 20.3,16 20.7,16.7 C20.7,16.7 20.7,16.8 20.8,16.8 C21,17.3 21.3,17.6 21.4,17.9 L21.4,17.9 C21.6,18.2 21.8,18.4 22.1,18.6 C22.6,18.9 23.5,19.4 25.5,19.2 C26.6,19.1 28,18.7 29.9,18.1 C31.8,17.4 36.4,15.6 44.3,9.7 C44.5,9.6 44.6,9.5 44.8,9.4 C45.5,8.9 46.3,8.3 47.1,7.8 C49,6.5 51.2,5.3 54.1,4.7 C55.4,4.4 57.3,4.1 57.7,4.7 C58.1,5.4 56.4,7.4 49.4,12.6 C48.7,13.1 47.9,13.7 47.1,14.2 C43.7,16.7 39.2,19.7 33.4,23.5 C34.5,23.3 36.2,23 38.1,22.3 C39.2,21.9 42.9,20.6 47.9,17.4 C48.1,17.3 48.3,17.2 48.5,17 C49.4,16.4 50.1,15.9 50.8,15.4 C52.4,14.3 53.4,13.8 54.4,14.2 C55.2,14.5 55.8,15.4 55.9,16.2 C56,18 53.2,19.5 53,19.8 C53,19.8 53,19.8 53,19.9 L53,19.9 C53.1,19.8 53.5,19.5 54,19.3 L54,19.3 C54.4,19.1 54.9,19 55.4,19.1 C56.2,19.3 56.7,19.9 57,20.5 C57.4,21.6 56.7,23.1 55.3,23.8 C55.6,23.8 56.4,23.7 56.9,24.2 L56.9,24.2 Z" id="Shape" fill="#FF7D93"></path>
                            <path d="M114.1,30.8 C112.6,32.1 110.7,33 108.8,33.3 C108.4,33.4 108.1,33.4 107.7,33.3 C107.5,33.3 107.3,33.3 107.2,33.2 C107.1,33.2 107,33.1 106.8,33.1 C106.5,33 106.3,33 106,32.9 C105.9,32.9 105.7,32.8 105.6,32.7 C105.4,32.6 105.3,32.6 105.1,32.5 C104.9,32.4 104.6,32.3 104.3,32.2 C104,32.1 103.8,31.9 103.5,31.8 C103.2,31.7 102.9,31.5 102.6,31.3 C101.4,30.6 100,29.8 98.5,28.8 C98.1,28.6 97.8,28.3 97.4,28.1 C96.6,27.6 95.8,27.1 95,26.5 C88,22 86.8,20.6 86.3,18.6 C86,17.2 85.9,15.2 86.2,13.3 C86.2,13 86.3,12.8 86.3,12.6 C86.4,12.1 86.5,11.9 86.5,11.3 L86.5,11.1 C86.8,9.6 87.3,8.4 87.3,7.2 C87.2,7.2 87.2,7.2 87.1,7.3 C87.8,6.6 88.6,6 89.4,6.1 C92.6,6.5 91.5,16.7 96.7,23.3 C99.2,26.6 104,30 114.1,30.8 L114.1,30.8 Z" id="Shape" fill="url(#linearGradient-24)" opacity="0.25"></path>
                            <path d="M57.1,26.6 C57,26.9 56.8,27.3 56.5,27.7 C56,28.3 55.3,28.9 54.3,29.5 C50.5,31.8 43.3,34.4 35.8,37.1 C34.9,37.4 34,37.8 33,38.1 C30.4,39.1 27.8,40.1 25.3,41.2 C21.2,42.9 18.1,44.6 16.3,45.5 L16.3,45.9 C16.1,45.1 15.7,44.4 15.3,43.7 C14.9,43 14.2,41.6 13,40.2 C24.6,34.9 44.6,25.2 53.7,19.4 L53.7,19.4 C54.1,19.2 54.6,19.1 55.1,19.2 C55.9,19.4 56.4,20 56.7,20.6 C57.1,21.7 56.4,23.2 55,23.9 C55.4,23.8 56.3,23.7 56.7,24.2 C57.6,24.8 57.2,26.1 57.1,26.6 L57.1,26.6 Z" id="Shape" fill="url(#linearGradient-25)" opacity="0.25"></path>
                            <path d="M19.9,43.7 C18.5,44.4 17.3,45 16.5,45.4 L16.5,45.8 C16.3,45 15.9,44.3 15.5,43.6 C15.1,42.9 14.4,41.5 13.2,40.1 C12,38.7 10.5,37.1 8.3,35.9 C5.9,34.5 3,33.9 -0.1,34 C0.8,31.8 1.5,30.2 2.1,29.1 C2.3,28.8 2.4,28.5 2.6,28.2 C8.8,29.5 18.4,33 19.9,42.9 C19.8,43.2 19.9,43.5 19.9,43.7 L19.9,43.7 Z" id="Shape" fill="#153E5C" opacity="0.24"></path>
                            <path d="M117,27 C116.5,28.2 115.8,29.2 114.9,30.1 C114.7,30.3 114.4,30.6 114.1,30.8 C112.6,32.1 110.7,33 108.8,33.3 C107.2,33.5 105.4,32.9 102.6,31.3 C106.8,30.5 114.1,28.4 117,23 C117.3,24.6 117.4,26 117,27 L117,27 Z" id="Shape" fill="#153E5C" opacity="0.24"></path>
                        </g>
                    </g>
                </g>
            </g>
        </g>
    </g>
</svg>