<?xml version="1.0" encoding="utf-8"?>
<!-- Generator: Adobe Illustrator 19.0.0, SVG Export Plug-In . SVG Version: 6.00 Build 0)  -->
<svg version="1.1" xmlns="http://www.w3.org/2000/svg" xmlns:xlink="http://www.w3.org/1999/xlink" x="0px" y="0px"
	 viewBox="0 0 600 600" enable-background="new 0 0 600 600" xml:space="preserve">
<g id="WATER">
	<g id="XMLID_23_">
		<path id="XMLID_373_" fill="#99ADF9" d="M202.7,491.2c-17.5,0.7-32.8,3.2-23.6,5.6c9.2,2.5-29.7,4.2-31.5,13
			c-1.7,8.8,60.4,9.5,98.9,3.5c38.5-6,42.4-10.9,66.1-12.3c23.6-1.4,55.1-14.8,30.6-18.7c-18.7-3-72.2,0.4-89.7,5.3
			S202.7,491.2,202.7,491.2z"/>
		<path id="XMLID_26_" fill="#8EA6F4" d="M219.2,494.1c-12.8,0.5-23.9,2.3-17.2,4.1c6.7,1.8-21.7,3.1-23,9.5s44,6.9,72.1,2.6
			s30.9-8,48.2-9c17.2-1,40.2-10.8,22.3-13.6c-13.6-2.2-52.6,0.3-65.4,3.9C243.4,495.1,219.2,494.1,219.2,494.1z"/>
	</g>
</g>
<g id="FLOOR">
	<polygon id="XMLID_346_" fill="#E1EAF6" points="361.2,489.2 518.8,489.2 465,504.5 	"/>
</g>
<g id="HAIR">
	<g id="XMLID_300_">
		<path id="XMLID_298_" fill="#1C3177" d="M357.5,109.8c-6-11.2-25-12.4-24.8,6.5s6.5,23.5,15.3,23.8
			C357.3,140.4,364.2,122.4,357.5,109.8z"/>
		<path id="XMLID_364_" fill="#485B95" d="M337,105.6c-2.7,2.9-5,8.2-1.2,8.7c2.8,0.4,8-7.6,7.6-9.5
			C342.9,102.6,340.1,102.3,337,105.6z"/>
		<path id="XMLID_299_" fill="#1C3177" d="M326.2,112.4c-9.7,2-12.9,19.1-6.7,29.7c6.2,10.6,16.6,6.5,19,0.3
			S335.8,110.4,326.2,112.4z"/>
		<path id="XMLID_369_" fill="#485B95" d="M320.8,117.3c-2.1,2.8-3.5,7.6-0.2,7.7c2.5,0.1,6.2-7.4,5.7-9
			C325.7,114.1,323.2,114.1,320.8,117.3z"/>
	</g>
</g>
<g id="HEAD">
	<g id="XMLID_104_">
		<g id="XMLID_297_">
			<g id="XMLID_146_">
				<path id="XMLID_296_" fill="#F48B77" d="M322,163.5c0,0-6.3,1.2-5.3,10.1c1,9,7.5,11,7.5,11S321.2,172.6,322,163.5z"/>
				<path id="XMLID_295_" fill="#F7A491" d="M343.1,223.5c5.1,1.6,8-1.9,8-1.9l2.2-6.9l3.9-12.3c-8.3-0.7-15.5-1.1-15.5-1.1
					l-0.6,5.3l-1.1,9.9C340,216.5,338.1,221.9,343.1,223.5z"/>
				<path id="XMLID_294_" fill="#F48B77" d="M341.1,206.6c0.8,0.9,1.8,1.9,2.8,2.9c2.7,2.4,6.3,4.1,9.4,5.2l3.9-12.3
					c-8.3-0.7-15.5-1.1-15.5-1.1L341.1,206.6z"/>
				
					<ellipse id="XMLID_292_" transform="matrix(-0.999 -4.393885e-002 4.393885e-002 -0.999 693.552 352.6243)" fill="#F7A491" cx="350.7" cy="168.7" rx="30.1" ry="36.8"/>
				<path id="XMLID_291_" fill="#F48B77" d="M340.2,203.4c2.8,1.2,5.7,1.9,8.9,2c16.6,0.7,30.8-15.1,31.7-35.4
					c0.9-20.1-11.6-37-27.9-38c12,5.2,20.3,19.5,19.6,36c-0.9,20.3-15.1,36.1-31.7,35.4C340.5,203.4,340.3,203.4,340.2,203.4z"/>
				<path id="XMLID_281_" fill="#1C3177" d="M374.1,185.3c0,0,5.4-12.7,0.4-27.4c-5-14.7-10.6-18.7-25.2-19.1
					c-14.6-0.4-21.5,6.4-21.5,6.4s4.6-10.1,18.6-15c14-4.9,33.7,0.1,41.1,19.9C395.4,171.2,387,183.3,374.1,185.3z"/>
				<path id="XMLID_272_" fill="#F26F59" d="M343,160.1c2.1-0.1,4.1,6.5,2.9,13.4s-6.7,8.1-9.7,4.4
					C333.1,174.3,335.7,160.5,343,160.1z"/>
				<path id="XMLID_168_" fill="#F48B77" d="M381.1,167.9c0,0,12.7,3.6,9.1,14.7c-3.4,10.7-17.4,6.5-17.4,6.5
					S381.8,175.5,381.1,167.9z"/>
				<path id="XMLID_166_" fill="#F26F59" d="M382.7,173.2c0,0,7.1,2,5.1,8.3c-1.9,6-9.8,3.7-9.8,3.7S383.1,177.4,382.7,173.2z"/>
			</g>
		</g>
	</g>
</g>
<g id="EYE_1">
	<g id="XMLID_27_">
		<g id="XMLID_109_">
			<path id="XMLID_124_" fill="#283575" d="M327.1,149.5c-0.1,0-0.1,0-0.2,0c-0.8,0.2-1.2,1-1,1.8c0,0.1,1.6,2.7,4.6,5.7
				c2.9,2.9,4.9,4.3,5,4.3c0.8,0.2,1.6-0.2,1.8-1c0.2-0.8-0.4-1.3-1.2-2c0,0-1-1.2-3.3-3.6c-2.4-2.4-4-4.3-4-4.3
				C328.3,149.8,327.8,149.4,327.1,149.5z"/>
		</g>
		<g id="XMLID_106_">
			<path id="XMLID_108_" fill="#283575" d="M336,149.8c0.1,0,0.1,0,0.1,0.1c0.7,0.3,1.1,1.2,0.7,1.9c-0.1,0.1-1.7,2.8-5,5.3
				c-3.3,2.6-5.6,3.5-5.7,3.5c-0.8,0.1-1.5-0.4-1.6-1.2c-0.1-0.8,0.4-1,1.2-1.6c0,0,1.4-1.1,4-3.2c2.7-2.1,4.5-3.9,4.5-3.9
				C334.8,150,335.3,149.6,336,149.8z"/>
		</g>
	</g>
</g>
<g id="EYE_2">
	<g id="XMLID_28_">
		<g id="XMLID_142_">
			<path id="XMLID_145_" fill="#283575" d="M352.5,150.6c-0.1,0-0.1,0-0.2,0c-0.9,0.2-1.4,1.1-1.1,2c0,0.2,1.8,3.1,5,6.5
				c3.2,3.4,5.4,5,5.5,5.1c0.9,0.3,1.8-0.2,2-1.1c0.3-0.9-0.4-1.5-1.2-2.3c0,0-1.1-1.4-3.7-4.1c-2.7-2.8-4.4-5-4.4-5
				C353.8,150.9,353.3,150.4,352.5,150.6z"/>
		</g>
		<g id="XMLID_302_">
			<path id="XMLID_304_" fill="#283575" d="M362.5,151.2c0.1,0,0.1,0,0.2,0.1c0.8,0.4,1.2,1.4,0.8,2.2c-0.1,0.1-2,3.1-5.8,5.9
				c-3.8,2.8-6.5,3.7-6.6,3.7c-0.9,0.1-1.7-0.5-1.8-1.4c-0.1-0.9,0.5-1.2,1.4-1.8c0,0,1.6-1.2,4.7-3.5c3.1-2.3,5.2-4.3,5.2-4.3
				C361.2,151.4,361.7,150.9,362.5,151.2z"/>
		</g>
	</g>
</g>
<g id="MOUTH">
	<g id="XMLID_93_">
		<path id="XMLID_100_" fill="#F26F59" d="M336,194.2c0.6,0.3,1.3,0.5,2,0.5c2.9,0,5.8,1,8.3,2.3c2.3,1.2,6.2,1.7,7-1.5
			c0.1-0.4,0.1-0.8,0.1-1.2c0-4.4-6.3-10.8-12.1-11.3c-4.5-0.4-7.2,2.7-7.8,5.4C333.2,190.8,334.1,193.2,336,194.2z"/>
		<path id="XMLID_94_" fill="#EF6EA5" d="M336,194.2c0.6,0.3,1.3,0.5,2,0.5c2.9,0,5.8,1,8.3,2.3c2.3,1.2,6.2,1.7,7-1.5
			c-2.3-3-6.2-5.7-9.8-6C339.6,189.2,336.9,191.7,336,194.2z"/>
	</g>
</g>
<g id="SIGN">
	<g id="XMLID_326_">
		<polygon id="XMLID_339_" fill="#EA62A3" points="474.3,364.5 492.7,492.1 466.5,492.1 464.3,473.9 444.6,473.6 445.4,489.8 
			419.9,489.8 411.4,368.7 		"/>
		<polygon id="XMLID_337_" fill="#F396BF" points="411.4,368.7 375.4,488.7 394.4,490.4 399.7,470.8 419.6,471.6 416.5,491.5 
			445.4,494.3 474.3,364.5 		"/>
		<polygon id="XMLID_343_" fill="#8EA6F4" points="398.4,441.2 432.1,389 446.4,443.9 		"/>
		<path id="XMLID_349_" fill="#E1EAF6" d="M427.6,408.3c0,0-10.4,10.9-11.9,18.7c-1.6,7.8,9.1,12.6,14,4.4
			C435.1,422.3,427.6,408.3,427.6,408.3z"/>
	</g>
</g>
<g id="EFFECT_2">
	<path id="XMLID_333_" fill="#E1EAF6" d="M115.7,210.7c0,0,6.6,46,18.7,79.9s35.3,64.3,35.3,64.3s-29.7-26.3-48.1-60.2
		s-27.7-76.4-27.7-76.4L115.7,210.7z"/>
</g>
<g id="EFFECT_1">
	<g id="XMLID_325_">
		<path id="XMLID_331_" fill="#E1EAF6" d="M167.2,380.6c0,0,35.3,84,103.7,84.5c68.5,0.5,91.3-75.7,91.3-75.7s-8.6,110.6-111,103.7
			C159.3,486.9,167.2,380.6,167.2,380.6z"/>
		<path id="XMLID_335_" fill="#E1EAF6" d="M140.3,383.5c0,0,11.4,44.6,52.6,73.6c41.1,29,75.5,36,75.5,36s-33.7,4.4-68.2-14
			C157.8,456.6,140.3,383.5,140.3,383.5z"/>
	</g>
</g>
<g id="RIGHT_ARM_1">
	<g id="XMLID_316_">
		<path id="XMLID_379_" fill="#FEC272" d="M353.4,236.7c-0.3,0.4-0.6,0.8-1,1.2c-5.6,6.5-13.7,11.3-29.1,1.7c0,0-24.1-15-33.2-22.6
			c-7.2-5.9-13.2-15.8-10.8-22.8c0.6-1.9,1.9-3.6,3.8-4.9c9.3-6.5,12.4-3.9,25.2,3.6s37.3,19.4,43.3,23.9
			C357.6,221.1,359.1,229.7,353.4,236.7z"/>
		<path id="XMLID_375_" fill="#FBB76C" d="M352.4,237.8c-5.6,6.5-13.7,11.3-29.1,1.7c0,0-24.1-15-33.2-22.6
			c-7.2-5.9-13.2-15.8-10.8-22.8c2.1,1.8,4.1,3.6,6.2,5.1c16.9,12.8,28.7,20,43.6,27.3C336.6,230.2,346.2,234.2,352.4,237.8z"/>
	</g>
</g>
<g id="RIGHT_ARM_2">
	<g id="XMLID_2_">
		<g id="XMLID_310_">
			<path id="XMLID_352_" fill="#F7A491" d="M239.6,156.8c0.7,0.8,3.3,3.8,6.1,7c4,4.6,8.3,9.7,8.3,9.7s4.1,2.7,9.2-1.4
				c4.7-3.8,3.3-8.1,1.7-9.9l-7.8-7.7l-8.7-8.6c0,0-3.8-2.1-7.3,1.7C237.5,151.3,237.9,154.8,239.6,156.8z"/>
			<path id="XMLID_351_" fill="#F48B77" d="M245.6,163.8c4,4.6,8.3,9.7,8.3,9.7s4.1,2.7,9.2-1.4c4.7-3.8,3.3-8.1,1.7-9.9l-7.8-7.7
				c-2.7,1.8-7.5,5.2-11.3,9.3C245.7,163.7,245.7,163.8,245.6,163.8z"/>
			<path id="XMLID_350_" fill="#F7A491" d="M252.5,143.8c0.1,4.8,2.6,7.4-2.1,12.6c-4.7,5.2-8.3,4.9-15.8,1.9
				c-7.5-3-18.1-13.3-18.3-16.2c-0.1-2.8,2.2-2.4,3.7-1.1c1.5,1.3,6.4,4.8,6.4,4.8s-4.6-5.3-6.8-9.6s-1.6-7,0.4-6.7
				c2.1,0.4,4.6,4.2,6.9,6.6c2.4,2.4,4.3,3.5,4.3,3.5s-5.5-6.3-8.2-11.1c-2.7-4.9-1.1-6.7,0.1-7.5s3.8,2.4,5.7,5.1s6.9,8.1,6.9,8.1
				s-4.5-7.1-6.2-11.2c-1.7-4.2-1.1-4.9,0.6-5.6c1.7-0.6,4.1,1.6,5.6,4.6c1.6,2.9,3.5,7.2,5.7,10.3s3.5,4.1,3.5,4.1s0.1-6.6,2.7-9.1
				c2.6-2.5,4.3,1,4.2,3.2C251.8,133,252.4,141.2,252.5,143.8z"/>
			<path id="XMLID_327_" fill="#F48B77" d="M244.6,151.5c0,0-3.7-1.3-7.4-2.2c-4.8-1.2-7.8-1.2-7.8-1.2s2.2-3.1,4.9-6.5
				c2.7-3.3,5.7-5.2,5.7-5.2s0.8,4.6,2,9.3C242.7,148.8,244.6,151.5,244.6,151.5z"/>
		</g>
		<g id="XMLID_309_">
			<path id="XMLID_378_" fill="#FEC272" d="M307.4,212.2c-0.4,0.6-0.8,1.1-1.3,1.6c-7.5,8.5-16.4,3.2-26.7-4.9
				c-10.9-8.5-27.8-28.9-29.9-32.3c-2.1-3.5-4.8-6.3-2.8-8.8c1.1-1.3,2.6-2.9,4.3-4.3c5.1-4.4,11.8-8.6,13.3-7.6
				c2.1,1.4,28.9,26.6,35.3,31C306,191.1,315.2,201.5,307.4,212.2z"/>
			<path id="XMLID_376_" fill="#FBB76C" d="M306.2,213.8c-7.5,8.5-16.4,3.2-26.7-4.9c-10.9-8.5-27.8-28.9-29.9-32.3
				c-2.1-3.5-4.8-6.3-2.8-8.8c1.1-1.3,2.6-2.9,4.3-4.3c5.9,7.4,21.1,25.8,34.4,35.8C293.2,205.1,299.8,209.7,306.2,213.8z"/>
		</g>
	</g>
</g>
<g id="LEFT_ARM_1">
	<g id="XMLID_377_">
		<path id="XMLID_370_" fill="#FEC272" d="M430,238c0,1.1-0.1,2.1-0.3,3c-1.5,8.6-8.4,9.6-22,12.5c-15,3.3-34.4,8-45.6,7.8
			c-7.6-0.1-15.5-4.7-19.4-13.5c-1.9-4.2-2.9-9.3-2.5-15.4c0.7-13.7,10.7-18.2,20.9-17.3c0,0,31.3,6.8,44.6,7.8
			C419.6,224,430.3,226.6,430,238z"/>
		<path id="XMLID_361_" fill="#FBB76C" d="M429.7,241c-1.5,8.6-8.4,9.6-22,12.5c-15,3.3-34.4,8-45.6,7.8
			c-7.6-0.1-15.5-4.7-19.4-13.5c7.9,0.4,25.7,0.4,61.8-3.6C414,243.1,422.4,242.1,429.7,241z"/>
	</g>
</g>
<g id="LEFT_ARM_2">
	<g id="XMLID_1_">
		<g id="XMLID_105_">
			<path id="XMLID_374_" fill="#F7A491" d="M475.3,238.1c-1.1,0.2-5,0.7-9.2,1.4c-6,0.9-12.6,1.9-12.6,1.9s-4.9-0.6-6.1-7
				c-1.1-5.9,2.8-8.3,5.2-8.7l11-0.8l12.2-0.9c0,0,4.2,0.9,4.4,6.1C480.5,235.3,477.9,237.7,475.3,238.1z"/>
			<path id="XMLID_372_" fill="#F48B77" d="M466.1,239.5c-6,0.9-12.6,1.9-12.6,1.9s-4.9-0.6-6.1-7c-1.1-5.9,2.8-8.3,5.2-8.7l11-0.8
				c0.9,3.2,2.3,8.9,2.5,14.4C466.1,239.4,466.1,239.5,466.1,239.5z"/>
			<path id="XMLID_317_" fill="#F7A491" d="M474.2,221.5c-3.2,3.5-6.8,3.9-6.7,10.9c0.1,7,3.1,9.1,10.8,11.7
				c7.6,2.6,22.4,1.7,24.4-0.4c1.9-2.1-0.1-3.2-2.1-3.2c-1.9,0-8-0.5-8-0.5s7-1,11.4-2.9c4.4-1.8,5.8-4.3,4-5.3s-6.2,0.3-9.6,0.5
				c-3.4,0.3-5.6-0.1-5.6-0.1s8.3-1.2,13.5-3.1c5.2-1.9,5.2-4.4,4.8-5.7c-0.4-1.3-4.4-0.6-7.6,0.1s-10.5,1.6-10.5,1.6s8-2.4,12-4.5
				s4.1-3,3.2-4.6c-0.9-1.6-4.1-1.4-7.3-0.2c-3.1,1.2-7.3,3.2-11.1,4.1s-5.4,0.9-5.4,0.9s4.2-5.1,3.9-8.6c-0.3-3.5-3.9-2.1-5.3-0.3
				C481.7,213.8,475.9,219.6,474.2,221.5z"/>
			<path id="XMLID_308_" fill="#F48B77" d="M475.1,232.4c0,0,3.7,1.4,7.1,3.1c4.4,2.2,6.7,4.2,6.7,4.2s0.4-3.8,0.5-8.1
				c0.1-4.3-0.9-7.6-0.9-7.6s-3.6,3-7.6,5.7C478.3,231.6,475.1,232.4,475.1,232.4z"/>
		</g>
		<g id="XMLID_356_">
			<path id="XMLID_371_" fill="#FEC272" d="M461.9,232.9c0,0.9,0,1.7,0,2.5c-0.3,6.8-2.4,8-3.5,9.4c-1.2,1.6-35.3,6.6-44.5,7.9
				c-8.4,1.2-17.1,0.4-20.4-7.4c-0.3-0.7-0.6-1.5-0.8-2.4c-2.3-10.1,1.2-20.1,11.7-20.4c10.1-0.2,49.7-2.6,51.3-2.6
				C457.5,219.9,461.8,223.8,461.9,232.9z"/>
			<path id="XMLID_354_" fill="#FBB76C" d="M461.9,235.4c-0.3,6.8-2.4,8-3.5,9.4c-1.2,1.6-35.3,6.6-44.5,7.9
				c-8.4,1.2-17.1,0.4-20.4-7.4c3.4-0.3,7-0.7,10.8-1.1C433.9,240.9,451.6,237.6,461.9,235.4z"/>
		</g>
	</g>
</g>
<g id="BODY">
	<g id="XMLID_336_">
		<path id="XMLID_324_" fill="#F9A554" d="M242.9,250.9c0,0-10,5.7-4.8,20.2s26.6,48.4,40.8,47.7c14.2-0.7,20.7-13.5,9-39.1
			S249.9,249.4,242.9,250.9z"/>
		<g id="XMLID_320_">
			<path id="XMLID_334_" fill="#F7A491" d="M309.8,319.4c0,0-2.9,3.1-13.2,8.8c-3.3,1.8-6.5,3.3-9.2,4.4c-5.6,2.3-9.5,3.1-9.7,3.1
				c0.2-0.4,6.5-11-3.9-34.5c-10.6-23.9-23.6-26.4-23.6-26.4l10.3-4.4l16.2-7C318.4,271.9,309.8,319.4,309.8,319.4z"/>
			<path id="XMLID_332_" fill="#F48B77" d="M309.8,319.4c0,0-2.9,3.1-13.2,8.8c-3.3,1.8-6.5,3.3-9.2,4.4c1.2-6,1.4-17.9-7.4-36.3
				c-6.7-14-14-21.7-19.5-25.9l16.2-7C318.4,271.9,309.8,319.4,309.8,319.4z"/>
		</g>
		<g id="XMLID_319_">
			<path id="XMLID_382_" fill="#FEC272" d="M359.1,284.6c-15.8,26.5-43.8,52.9-49.8,55.5c-6,2.6-11.2,1.6-13.2-7
				c-0.8-3.5-2-10.9-4.2-19.7c-3.3-13.1-8.9-29.4-19.1-40.7c-17.1-18.9-32.2-19.2-29.8-21.8c2.3-2.6,13.7,1.3,33.7-5.4
				c20-6.7,33-18.5,44.6-29c3.3-3,7.3-4.9,11.6-5.9c11.7-2.7,25.7,1.5,34.4,8.5c4.2,3.4,7.1,7.4,8,11.6c0.5,2.5,0.9,4.8,1.2,6.9
				C378.1,249.4,375.5,257.1,359.1,284.6z"/>
			<path id="XMLID_380_" fill="#FBB76C" d="M367.2,219.1c-5.9,2.3-14.5,3.5-25,1.6c-12.1-2.2-12.1-6.5-9.3-10.1
				C344.6,207.9,358.6,212.1,367.2,219.1z"/>
			<path id="XMLID_367_" fill="#FBB76C" d="M359.1,284.6c-15.8,26.5-43.8,52.9-49.8,55.5c-6,2.6-11.2,1.6-13.2-7
				c-0.8-3.5-2-10.9-4.2-19.7c12.6-6,31.7-16.8,45.5-32.9c22.3-25.9,30.2-48.8,38.9-43c0.1,0,0.1,0.1,0.2,0.2
				C378.1,249.4,375.5,257.1,359.1,284.6z"/>
		</g>
	</g>
</g>
<g id="RIGHT_LEG_1">
	<g id="XMLID_353_">
		<path id="XMLID_362_" fill="#E1ECFF" d="M285.5,319.4c-1.8,16.2-12.2,18.9-28.3,26.7c-16.3,7.9-25.2,17.4-35.3,29.3
			c-4.8,5.6-9.2,10.5-13.4,13.3c-4.6,3.1-8.9,3.7-12.8,0c-7.5-7-11.8-21.7,1.3-51.1c3.5-7.9,7.1-14.3,10.8-19.6
			c9.9-14.4,20.2-20.5,29.9-25.7C269.8,275.2,287.8,298.4,285.5,319.4z"/>
		<path id="XMLID_360_" fill="#D0E0F1" d="M285.5,319.4c-1.8,16.2-12.2,18.9-28.3,26.7c-16.3,7.9-25.2,17.4-35.3,29.3
			c-4.8,5.6-9.2,10.5-13.4,13.3c2.3-23.3,21.9-48,21.9-48s-8-4.1-15.9-12.4c-2.7-2.9-5-6.6-6.8-10.2c9.9-14.4,20.2-20.5,29.9-25.7
			C269.8,275.2,287.8,298.4,285.5,319.4z"/>
	</g>
</g>
<g id="RIGHT_LEG_2">
	<g id="XMLID_3_">
		<g id="XMLID_328_">
			<path id="XMLID_340_" fill="#9DABD7" d="M204.8,462c-17.7,20-29.9,15.1-30.7,7.4c0-0.2,0-0.4,0-0.6c-0.6-7.5,2.7-14.8,7.5-24.4
				c4.9-9.9,11.4-18,19.8-19.3c5.5-0.8,9.4,0.3,12,3.4c1.5,1.8,2.5,4.1,3.1,7.1C218,442.7,215.8,449.6,204.8,462z"/>
			<path id="XMLID_338_" fill="#273675" d="M202.1,456.5c-13.2,14.9-23.3,16-28,12.4c-0.6-7.5,2.7-14.8,7.5-24.4
				c4.9-9.9,11.4-18,19.8-19.3c5.5-0.8,9.4,0.3,12,3.4c0.1,0.5,0.3,1,0.4,1.6C215.3,437.2,213,444,202.1,456.5z"/>
			<path id="XMLID_329_" fill="#212E60" d="M204.7,445.1c-12,11-20.2,8.3-20.8,4.1c0-0.1,0-0.2,0-0.3c-0.4-4.1,1.8-8.1,5.1-13.3
				c3.3-5.4,7.7-9.9,13.4-10.6c3.7-0.4,6.4,0.2,8.1,1.8c1,1,1.7,2.3,2.1,3.9C213.7,434.5,212.2,438.2,204.7,445.1z"/>
		</g>
		<g id="XMLID_348_">
			<path id="XMLID_363_" fill="#E1ECFF" d="M220.1,380.8c-2.8,16.3-6.6,50.6-6.6,50.6s-1.5,3-4.6,5.3c-1.9,1.3-4.3,2.4-7.3,2.3
				c-8-0.2-9.9-5-9.9-5s-3.5-31-3.5-54.2c0-23.2,6.1-31.4,13.2-30.9c9.6,0.8,15.2,3.6,17.9,8.8C222,362.9,221.9,370.5,220.1,380.8z"
				/>
			<path id="XMLID_358_" fill="#D0E0F1" d="M220.1,380.8c-2.8,16.3-6.6,50.6-6.6,50.6s-1.5,3-4.6,5.3c-0.4-11.2-0.6-28.8,1.1-44.2
				c1.6-14.5,4-25,9.3-34.7C222,362.9,221.9,370.5,220.1,380.8z"/>
			<path id="XMLID_342_" fill="#C4DCF2" d="M190,369.8c0.1-3,3-5.2,5.9-4.3c1.4,0.4,3.1,0.7,4.7,0.9c1.9,0.1,3.5,0.2,5,0.1
				c2.8,0,4.9,2.3,4.7,5l-1.4,18.7c-0.2,2.2-1.8,4-4,4.3c-1.8,0.2-4.1,0.3-6.3,0c-2.8-0.5-5.4-1.9-7.1-3.1c-1.3-0.9-2.1-2.4-2-4
				L190,369.8z"/>
		</g>
	</g>
</g>
<g id="LEFT_LEG_1">
	<g id="XMLID_322_">
		<path id="XMLID_366_" fill="#E1ECFF" d="M287.4,332.6c0,0-7.9,4.4-19.6,5.5c-11.7,1-30.1-2.9-40.7-13
			c-10.6-10.1-25.9-37.3-37.3-51.6c-11.4-14.3-20-21.1-14.6-30.7c0.4-0.7,0.8-1.4,1.3-2c9.3-11.5,33.5-2.5,51,14.2
			c14,13.3,46,29.7,57,51c1.1,2,1.9,4,2.5,5.8C291.6,324.5,287.4,332.6,287.4,332.6z"/>
		<path id="XMLID_359_" fill="#D0E0F1" d="M287.4,332.6c0,0-7.9,4.4-19.6,5.5c-11.7,1-30.1-2.9-40.7-13
			c-10.6-10.1-25.9-37.3-37.3-51.6c-11.4-14.3-20-21.1-14.6-30.7c0.4-0.7,0.8-1.4,1.3-2l33.8,31.9c0,0,13.5,13,31.1,33.2
			c14.3,16.4,37.5,9.3,45.8,6C291.6,324.5,287.4,332.6,287.4,332.6z"/>
	</g>
</g>
<g id="LEFT_LEG_2">
	<g id="XMLID_368_">
		<g id="XMLID_323_">
			<path id="XMLID_347_" fill="#F48B77" d="M122.7,258l-1.1-21.3l23.3-0.6c0,0,4.4,4.1,4,10.5s-4.1,12.1-4.1,12.1L122.7,258z"/>
			<path id="XMLID_365_" fill="#E1ECFF" d="M218.6,268.7c-1.8,2.7-4,4.2-6.5,4.9c-7.9,2.3-19-4-32.6-6.5c-19.2-3.5-46-6.7-46-6.7
				s1.1-4,1.2-9.6c0-1.8-0.1-3.7-0.4-5.7c-1.3-9-5.6-13.3-5.6-13.3s27.2-4.5,52.8-0.5c5.3,0.8,10.6,2,15.5,3.7
				c6.4,2.2,11.8,5.4,15.9,9.1C220.9,251.6,223.7,261.1,218.6,268.7z"/>
			<path id="XMLID_355_" fill="#D0E0F1" d="M212.1,273.7c-7.9,2.3-19-4-32.6-6.5c-19.2-3.5-46-6.7-46-6.7s1.1-4,1.2-9.6
				c10.5,1.3,52,7,67.6,15.8C206.3,269,209.6,271.4,212.1,273.7z"/>
			<path id="XMLID_357_" fill="#C4DCF2" d="M212.8,244.1c-0.1,0.6-0.3,1.3-0.4,1.9c-0.9,3.4-3,6.4-4.6,8.3c-1.2,1.5-3.1,2.2-4.9,2
				l-20.3-3c-3.5-0.5-5.6-4.4-4.3-7.9c0.7-1.7,1.3-3.7,1.6-5.7c0.4-2.3,0.7-4.3,0.8-6c0.1-0.9,0.3-1.7,0.7-2.4
				c5.3,0.8,10.6,2,15.5,3.7C203.4,237.2,208.8,240.4,212.8,244.1z"/>
		</g>
		<g id="XMLID_330_">
			<path id="XMLID_344_" fill="#273675" d="M119.5,263.4c-0.3,0.1-0.6,0.2-0.9,0.3c-7.6,2.3-12.4-1-17.1-7c-4.7-6-14-26.8-17.3-36.1
				c-3.3-9.3-5-20.4,7.1-23.7c1-0.3,2.2-0.5,3.3-0.6c12-1.3,28.5,7.1,33.7,32.9C133.7,256.1,125.2,261.5,119.5,263.4z"/>
			<path id="XMLID_345_" fill="#9DABD7" d="M119.5,263.4c-0.3,0.1-0.6,0.2-0.9,0.3c-2,0.6-3.9,0.8-5.6,0.7
				c-4.6-0.4-8.1-3.3-11.5-7.7c-4.7-6-14-26.8-17.3-36.1c-2.3-6.5-3.8-13.9-0.4-18.8c0,0,0,0,0,0c1.5-2.1,3.9-3.8,7.5-4.8
				c1-0.3,2.2-0.5,3.3-0.6c5.8,2.5,13.5,9.1,20.5,25.5C123.9,241.9,121.9,255.9,119.5,263.4z"/>
			<path id="XMLID_341_" fill="#8096CC" d="M113,264.3c-4.6-0.4-8.1-3.3-11.5-7.7c-4.7-6-14-26.8-17.3-36.1
				c-2.3-6.5-3.8-13.9-0.4-18.8c0,0,0,0,0,0c2.1-1.7,5.5-3.1,10.3-0.1c8.3,5.2,19.7,29,21.4,42.7C117.5,260.5,115.9,262.8,113,264.3
				z"/>
		</g>
	</g>
</g>
<g id="ORNAMENT_1">
	<path id="XMLID_318_" fill="#C4DCF2" d="M374,99.7l-1.7,20.4c0,0,9.2,0.8,18.7,11.1c9.4,10.3,9.7,21.8,9.7,21.8l28.6-6.2
		c0,0-17.2-2.4-23.2-11.7s10-33.4,10-33.4s-17.8,12.8-26.8,13.3C380.2,115.4,374,99.7,374,99.7z"/>
</g>
</svg>
