<?xml version="1.0" encoding="utf-8"?>
<!-- Generator: Adobe Illustrator 19.0.0, SVG Export Plug-In . SVG Version: 6.00 Build 0)  -->
<svg version="1.1" xmlns="http://www.w3.org/2000/svg" xmlns:xlink="http://www.w3.org/1999/xlink" x="0px" y="0px"
	 viewBox="0 0 600 600" enable-background="new 0 0 600 600" xml:space="preserve">
<g id="WATER_1">
	<g id="XMLID_6_">
		<path id="XMLID_51_" fill="#809DF9" d="M503.4,403.7c-7.6,9.6-29.9,9-48,10.9c-11.9,1.3-22,3.7-24.9,10.9
			c-1.6,3.8-1.3,7.4,0.3,10.8c5.7,12.9,29.1,24.3,42.8,41.8c17.4,22.1-15.6,45.1-55.2,34.9c-39.6-10.2-67-7.9-111.1-2.9
			c-44.1,4.9-91,6.9-124-14.9c-27.9-18.4-15.5-32,6.9-38.6c4-1.2,8.4-2.2,12.9-3c8.1-1.3,15.2-2.8,21.2-4.4
			c15.9-4.1,24.2-8.7,22.2-13.2c-2.8-6.2-29.9-9.7-35.8-22.1c-5.9-12.4,4.9-20.4,26.7-26.7c5.1-1.5,10.7-2.2,16.8-2.6
			c20.3-1.3,45.9,0.9,73.1-8.6c35.4-12.4,63.9-16.1,110.4-9.6c32.5,4.5,52.8,10.5,62.5,17.6C508.3,389.9,509.1,396.5,503.4,403.7z"
			/>
		<path id="XMLID_46_" fill="#E1ECFF" d="M224.3,449.2c15.9-4.1,24.2-8.7,22.2-13.2c-2.8-6.2-29.9-9.7-35.8-22.1
			c-5.9-12.4,4.9-20.4,26.7-26.7c5.1-1.5,10.7-2.2,16.8-2.6c-9.8,3.5-29.4,9.4-34.6,17.5c-9.7,15.1,17.5,18.1,31.9,25
			C263.6,432.9,264.6,447.4,224.3,449.2z"/>
		<path id="XMLID_48_" fill="#E1ECFF" d="M503.4,403.7c-7.6,9.6-29.9,9-48,10.9c-11.9,1.3-22,3.7-24.9,10.9
			c-1.6,3.8-1.3,7.4,0.3,10.8c-12.5-7.2-8.3-19,4.9-23.9c14.9-5.6,42.1-1.7,57.8-9.6c8.9-4.5,8.6-12.7,6.8-18.8
			C508.3,389.9,509.1,396.5,503.4,403.7z"/>
		<path id="XMLID_47_" fill="#E1ECFF" d="M418.4,513c-39.6-10.2-67-7.9-111.1-2.9c-44.1,4.9-91,6.9-124-14.9
			c-27.9-18.4-15.5-32,6.9-38.6c-11.5,5.8-16.1,14.9-6.4,24.8c18.3,18.7,54.1,26.1,98.8,20.9c44.8-5.3,64.8-8.9,100.7-5.5
			c38.8,3.7,65.9,12.2,79.4-1.5c13.5-13.7-20.8-31.9-32.3-47.5c-11.5-15.7-10.4-30.2,9-32.5c5.4-0.6,10.8-0.8,15.9-0.6
			c-11.9,1.3-22,3.7-24.9,10.9c-7.3,18.1,25.7,30.5,43.1,52.6C490.9,500.2,457.9,523.3,418.4,513z"/>
		<path id="XMLID_1_" fill="#E1ECFF" d="M240.9,460.3c0,0-2.4,7,9.2,10.5s29.5,0,29.5,0s-17.3,9.8-34.1,5S240.9,460.3,240.9,460.3z"
			/>
		<path id="XMLID_2_" fill="#E1ECFF" d="M345.3,471.6c0,0,14.6-8.1,31.7-4.6c17,3.5,37.8,4.6,43.5,1.2c5.7-3.4,4.2-8.3,4.2-8.3
			s7.5,11-5.8,15.1c-13.3,4.2-39.5-3-48.4-4.4C357.5,468.6,345.3,471.6,345.3,471.6z"/>
		<path id="XMLID_4_" fill="#E1ECFF" d="M426.4,374.3c0,0,25.5,2.9,34.7,9.7s3.6,13.1,3.6,13.1s11.9-3.4,5-11.6
			C460.5,374.5,426.4,374.3,426.4,374.3z"/>
		<path id="XMLID_5_" fill="#E1ECFF" d="M271.5,393.9c0,0-10.4,3.2-5.6,7.6c4.8,4.4,14,8,14,8s-18.7-2.6-21.6-8.4
			C255.4,395.2,271.5,393.9,271.5,393.9z"/>
	</g>
</g>
<g id="WATER_2">
	<g id="XMLID_14_">
		<path id="XMLID_345_" fill="#E1ECFF" d="M436,400.7c-3.7,4.4-14.7,4.1-23.7,5c-5.9,0.6-10.9,1.7-12.3,5c-0.8,1.7-0.6,3.4,0.1,5
			c2.8,5.9,14.4,11.2,21.1,19.2c8.6,10.2-7.7,20.7-27.2,16c-19.5-4.7-33.1-3.6-54.8-1.3c-21.8,2.3-44.9,3.2-61.2-6.9
			c-13.8-8.5-7.6-14.7,3.4-17.8c2-0.6,4.1-1,6.4-1.4c4-0.6,7.5-1.3,10.5-2c7.9-1.9,11.9-4,10.9-6.1c-1.4-2.8-14.7-4.5-17.6-10.1
			c-2.9-5.7,2.4-9.4,13.2-12.3c2.5-0.7,5.3-1,8.3-1.2c10-0.6,22.7,0.4,36.1-3.9c17.5-5.7,31.5-7.4,54.5-4.4c16,2.1,26,4.8,30.8,8.1
			C438.4,394.4,438.8,397.4,436,400.7z"/>
		<path id="XMLID_346_" fill="#809DF9" d="M423.4,400.7c-3.1,3.9-12.2,3.7-19.6,4.5c-4.9,0.5-9,1.5-10.2,4.5c-0.6,1.6-0.5,3,0.1,4.4
			c2.3,5.3,11.9,10,17.5,17.1c7.1,9-6.4,18.4-22.6,14.3c-16.2-4.2-27.4-3.2-45.4-1.2c-18,2-37.2,2.8-50.7-6.1
			c-11.4-7.5-6.3-13.1,2.8-15.8c1.6-0.5,3.4-0.9,5.3-1.2c3.3-0.5,6.2-1.2,8.7-1.8c6.5-1.7,9.9-3.6,9.1-5.4c-1.1-2.5-12.2-4-14.6-9
			c-2.4-5.1,2-8.3,10.9-10.9c2.1-0.6,4.4-0.9,6.9-1.1c8.3-0.5,18.8,0.4,29.9-3.5c14.5-5.1,26.2-6.6,45.2-3.9
			c13.3,1.8,21.6,4.3,25.6,7.2C425.4,395,425.7,397.8,423.4,400.7z"/>
	</g>
</g>
<g id="WATER_3">
	<path id="XMLID_45_" fill="#E1ECFF" d="M198,426.6c-10.4,0.5-17.8,2.8-19.6,8.7c-1.7,5.9,11.6,7.3,25.9,6.8
		c14.4-0.6,16.7-7.2,14.6-10.3C216.1,427.2,207,426.1,198,426.6z"/>
</g>
<g id="WATER_4">
	<path id="XMLID_27_" fill="#E1ECFF" d="M477.5,423c-11.9,0.4-20.5,2.5-22.5,7.7s13.3,6.5,29.8,6s15.3-6.3,13.4-9.3
		C496.4,424.4,487.8,422.6,477.5,423z"/>
</g>
<g id="WATER_5">
	<path id="XMLID_43_" fill="#E1ECFF" d="M521,442.7c-17.6,0.8-37.2,4.9-33.1,13.5c4.1,8.7,19.6,11.4,43.9,10.5
		c24.4-0.9,26-9.6,23.3-14.8C552.4,446.7,536.2,442,521,442.7z"/>
</g>
<g id="AQUARIUM">
	<g id="XMLID_23_">
		<path id="XMLID_61_" fill="#E1ECFF" d="M297.7,138v6.5c0,0.6-0.1,1.2-0.1,1.7c-0.8,5.8-5.9,10.3-11.9,10.3H103.5
			c-6.1,0-11.1-4.5-11.9-10.3c-0.1-0.6-0.1-1.1-0.1-1.7V138c0-6.7,5.4-12.1,12-12.1h182.1C292.3,125.9,297.7,131.3,297.7,138z"/>
		<path id="XMLID_17_" fill="#E1ECFF" d="M342.4,259.8c0,79.9-64.7,144.6-144.6,144.6c-79.9,0-144.6-64.7-144.6-144.6
			c0-21.8,4.8-42.4,13.4-60.9c8.4-18,20.4-34,35-47H294c27.4,24.4,45.5,59.1,48.1,98C342.3,253.2,342.4,256.5,342.4,259.8z"/>
		<path id="XMLID_57_" fill="#C5DFFF" d="M297.5,146.2c-0.8,5.8-5.9,10.3-11.9,10.3H103.5c-6.1,0-11.1-4.5-11.9-10.3H297.5z"/>
		<path id="XMLID_378_" fill="#E1ECFF" d="M342.4,259.8c0,68.3-47.4,125.6-111.1,140.7c-10.7,2.6-21.9,3.9-33.4,3.9
			c-79.9,0-144.6-64.7-144.6-144.6c0-21.8,4.8-42.4,13.4-60.9l20.5,3.8l254.9,47.2c0,0.2,0,0.3,0,0.5
			C342.3,253.5,342.4,256.7,342.4,259.8z"/>
		<path id="XMLID_376_" fill="#B2C2F9" d="M342.1,250.4c-16.3,4.4-56.1,0.6-138.3-13.8C69,212.9,66.7,198.9,66.7,198.9l20.5,3.8
			l254.9,47.2C342.1,250.1,342.1,250.2,342.1,250.4z"/>
		<path id="XMLID_58_" fill="#B2C2F9" d="M231.3,400.5c-10.7,2.6-21.9,3.9-33.4,3.9c-79.9,0-144.6-64.7-144.6-144.6
			c0-21.8,4.8-42.4,13.4-60.9l20.5,3.8c-5.6,25-12,77.2,14.8,127.1C130.2,382.3,186.9,394.9,231.3,400.5z"/>
		<path id="XMLID_7_" fill="#C5DFFF" d="M110,164.3c-1.3-0.3-2.7,0.1-3.7,1.1c-2.7,2.7-8.4,8.5-12,14.2c-3,4.8-5,11.2-6.2,15.4
			c-0.6,2.4,1,4.8,3.5,5l0.8,0.1c1.9,0.2,3.7-0.9,4.3-2.7c1.1-3.3,3.2-8.8,6.3-14.2c2.5-4.5,6.2-9,9.2-12.3
			C114.2,168.7,113.1,165,110,164.3L110,164.3z"/>
		<path id="XMLID_67_" fill="#FFFFFF" d="M324.8,239.9c1.7-1.6,2.4-3.9,2-6.2c-1.2-6.4-4-19.7-8.5-30.1
			c-3.8-8.7-10.8-17.6-15.7-23.2c-2.7-3.1-7.6-3.1-10.3,0.1l-0.8,1c-2.1,2.4-2.2,6-0.3,8.5c3.5,4.7,9.2,12.8,13.9,22.2
			c3.8,7.7,6.6,17.1,8.4,24.4C314.7,241.7,321,243.5,324.8,239.9L324.8,239.9z"/>
		<g id="XMLID_348_">
			<g id="XMLID_13_">
				<path id="XMLID_369_" fill="#B2C2F9" d="M118.9,261.8c-1.8,0-3.1-0.3-3.3-0.3c-1.1-0.2-1.8-1.3-1.5-2.4c0.2-1.1,1.3-1.8,2.3-1.5
					c0.2,0,6.9,1.3,8.7-2.8c3.3-7.7,9-11.5,15.8-10.8c4.8,0.5,7,3.6,8.9,6.4c1.3,1.9,2.5,3.5,4.3,4.3c4.6,2,7.2,1.3,7.2,1.3
					c1-0.3,2.1,0.3,2.5,1.3c0.3,1-0.2,2.1-1.3,2.5c-0.4,0.1-4,1.1-10-1.4c-2.9-1.3-4.5-3.6-6-5.7c-1.7-2.5-3.1-4.4-6.1-4.7
					c-5.1-0.5-9.1,2.3-11.8,8.4C126.8,260.9,122.1,261.8,118.9,261.8z"/>
			</g>
			<g id="XMLID_16_">
				<path id="XMLID_368_" fill="#B2C2F9" d="M306.9,273.3c-1.1,0-2.3-0.1-3.6-0.5c-2.3-0.6-3.6-2.4-4.7-3.9c-1.6-2.1-3-4-6.8-4
					c-6.2,0-7.4,6.1-7.5,6.3c-0.2,1.1-1.3,1.8-2.3,1.6c-1.1-0.2-1.8-1.2-1.6-2.3c0.6-3.3,3.8-9.6,11.4-9.6c5.8,0,8.3,3.2,10,5.6
					c1,1.4,1.7,2.2,2.6,2.5c3.4,0.9,6.4-0.4,6.4-0.4c1-0.5,2.2,0,2.6,1c0.5,1,0,2.2-1,2.6C312.3,272.3,310,273.3,306.9,273.3z"/>
			</g>
			<g id="XMLID_15_">
				<path id="XMLID_367_" fill="#B2C2F9" d="M245.6,369.6c-2.2,0-4.2-0.1-4.6-0.1c-1.1-0.1-1.9-1-1.9-2.1s1-2,2.1-1.9
					c2.7,0.2,7.8,0.3,9.6-0.3c0.3-0.1,0.7-0.8,1.1-1.6c1-2,2.6-5.1,7.5-6.6c4.3-1.3,7.2,0.3,9.9,1.7c1.3,0.7,2.5,1.3,3.9,1.7
					c2.5,0.6,6.1,0.3,7.3,0.1c1.1-0.2,2.1,0.6,2.3,1.6c0.2,1.1-0.6,2.1-1.6,2.3c-0.2,0-5.1,0.8-8.9-0.2c-1.8-0.5-3.4-1.3-4.8-2
					c-2.4-1.3-4.2-2.2-6.9-1.4c-3.3,1-4.2,2.8-5.1,4.6c-0.7,1.4-1.5,3-3.5,3.6C250.5,369.5,247.9,369.6,245.6,369.6z"/>
			</g>
		</g>
	</g>
</g>
<g id="CRACK">
	<polygon id="XMLID_11_" fill="#809DF9" points="324.6,272.4 322.4,290.1 304.7,317.1 305.4,338.6 304.7,349 320.3,322.6 
		319.9,303.3 327.3,292 	"/>
</g>
<g id="ORNAMENT_1">
	<g id="XMLID_347_">
		<circle id="XMLID_18_" fill="#FFFFFF" cx="298.4" cy="297.1" r="6.3"/>
		<circle id="XMLID_20_" fill="#FFFFFF" cx="220.9" cy="373.1" r="6.3"/>
		<circle id="XMLID_352_" fill="#FFFFFF" cx="159.3" cy="354.4" r="9.2"/>
		<circle id="XMLID_21_" fill="#FFFFFF" cx="109.2" cy="237.2" r="7.1"/>
	</g>
</g>
<g id="FISH">
	<g id="XMLID_60_">
		<path id="XMLID_33_" fill="#FEC272" d="M161.1,320.6c0,0-9.2,7.6-18.2,13.3c-2.3,1.5-4.6,2.8-6.8,3.9c-3.3,1.6-6.3,2.9-9,3.7
			c-4.4,1.2-8,0.9-11.2-2.1c-1.3-1.2-2.6-3.5-3.8-6.6c-3.8-9.4-7.2-25.5-7.5-37.2c-0.4-12.2,4.2-15.1,11.9-14.8
			c2.1,0.1,4.5,0.4,7.1,0.9c3.4,0.6,6.7,1.4,9.8,2.2c12,3.3,21.4,8,21.4,8c-0.4,6.5,1.6,14.8,3.5,20.8
			C159.7,317.3,161.1,320.6,161.1,320.6z"/>
		<path id="XMLID_34_" fill="#FC7059" d="M161.1,320.6c0,0-9.2,7.6-18.2,13.3c-2.1-2.6-4.2-5.8-6.1-9.3c-2.3-4.5-4.1-9.8-4.9-15.8
			c-1.6-12.4,0.1-20.6,1.5-24.9c12,3.3,21.4,8,21.4,8c-0.4,6.5,1.6,14.8,3.5,20.8C159.7,317.3,161.1,320.6,161.1,320.6z"/>
		<path id="XMLID_35_" fill="#FC7059" d="M127.1,341.4c-4.4,1.2-8,0.9-11.2-2.1c-1.3-1.2-2.6-3.5-3.8-6.6
			c-3.8-9.4-7.2-25.5-7.5-37.2c-0.4-12.2,4.2-15.1,11.9-14.8c-1.3,6.9-2.7,20.2,0.6,35.6c1.1,5.3,2.8,10.1,4.7,14.5
			C123.4,334.8,125.3,338.3,127.1,341.4z"/>
		<path id="XMLID_30_" fill="#FCAA51" d="M161.1,320.6c0,0-9.2,7.6-18.2,13.3c-2.3,1.5-4.6,2.8-6.8,3.9c-3.3,1.6-6.3,2.9-9,3.7
			c-4.4,1.2-8,0.9-11.2-2.1c-1.3-1.2-2.6-3.5-3.8-6.6c3.3-0.4,7.4-1.1,11.7-2.4c7.4-2.3,25.6-12.5,34.5-17.7
			C159.7,317.3,161.1,320.6,161.1,320.6z"/>
		<path id="XMLID_31_" fill="#F74F3E" d="M161.1,320.6c0,0-9.2,7.6-18.2,13.3c-2.1-2.6-4.2-5.8-6.1-9.3c7.6-3.9,16.2-8.8,21.5-11.9
			C159.7,317.3,161.1,320.6,161.1,320.6z"/>
		<path id="XMLID_29_" fill="#F74F3E" d="M127.1,341.4c-4.4,1.2-8,0.9-11.2-2.1c-1.3-1.2-2.6-3.5-3.8-6.6c2.8-0.3,6.1-0.9,9.6-1.8
			C123.4,334.8,125.3,338.3,127.1,341.4z"/>
		<path id="XMLID_39_" fill="#FEC272" d="M275.5,309c-0.4,3-1.3,5.8-2.4,8.3c-6.2,13.7-22,20.8-40.5,23.4
			c-12.9,1.8-27.1,1.4-40.1-0.6c-2.8-0.4-5.5-0.9-8.2-1.4c-4-0.8-7.6-1.8-10.8-2.8c-14.8-4.7-21.3-11.2-24-17.5
			c-2.1-4.6-2.2-9.3-2.2-13c-0.1-9.9,8.6-19.6,23.3-27.2c6.9-3.6,15.1-6.7,24.3-9.1c5.6-1.5,11.5-2.8,17.5-3.8
			c6.4-1.1,12.8-1.4,18.9-1C258,265.9,279.5,282.1,275.5,309z"/>
		<path id="XMLID_40_" fill="#FC7059" d="M232.6,340.6c-12.9,1.8-27.1,1.4-40.1-0.6c-1.5-3.7-2.9-8.3-4-13.8
			c-1.2-6.1-1.9-13.4-1.9-22.1c0-14.9,3.7-26.5,8.2-35.1c5.6-1.5,11.5-2.8,17.5-3.8c6.4-1.1,12.8-1.4,18.9-1
			c-6.1,5.6-15.3,17.8-14.2,39.3c0.5,9.2,3.2,17.3,6.9,24.3C226.4,332.6,229.5,337,232.6,340.6z"/>
		<path id="XMLID_41_" fill="#FC7059" d="M173.4,335.8c-14.8-4.7-21.3-11.2-24-17.5c-2.1-4.6-2.2-9.3-2.2-13
			c-0.1-9.9,8.6-19.6,23.3-27.2c-2.9,6.7-5.7,17.2-4.7,31.3c0.3,4.9,1.2,9.4,2.5,13.6C169.6,327.8,171.4,332.1,173.4,335.8z"/>
		<path id="XMLID_36_" fill="#FCAA51" d="M273.1,317.2c-6.2,13.7-22,20.8-40.5,23.4c-12.9,1.8-27.1,1.4-40.1-0.6
			c-2.8-0.4-5.5-0.9-8.2-1.4c-4-0.8-7.6-1.8-10.8-2.8c-14.8-4.7-21.3-11.2-24-17.5c11,3.4,37.4,10.1,72.6,9.4
			C251.3,327.1,266.1,321.5,273.1,317.2z"/>
		<path id="XMLID_37_" fill="#F74F3E" d="M232.6,340.6c-12.9,1.8-27.1,1.4-40.1-0.6c-1.5-3.7-2.9-8.3-4-13.8
			c9.9,1.1,21.2,1.8,33.5,1.5c0.6,0,1.2,0,1.8-0.1C226.4,332.6,229.5,337,232.6,340.6z"/>
		<path id="XMLID_28_" fill="#F74F3E" d="M173.4,335.8c-14.8-4.7-21.3-11.2-24-17.5c4.2,1.3,10.6,3.1,18.8,4.7
			C169.6,327.8,171.4,332.1,173.4,335.8z"/>
		<circle id="XMLID_19_" fill="#1C3177" cx="257.9" cy="292.3" r="6.5"/>
		<g id="XMLID_22_">
			<path id="XMLID_373_" fill="#1C3177" d="M269.8,317.5c-0.5,2.4-1.9,5.2-5.2,7c-5.7,3.2-10.3,3.6-12.1,2.3
				c-0.3-0.2-0.5-0.5-0.8-0.8c-1.4-2-1.9-6.3,3.4-10.7c6.2-5.2,12.9-3.6,14.1-2C269.8,314,270.1,315.7,269.8,317.5z"/>
			<path id="XMLID_371_" fill="#FC7059" d="M269.8,317.5c-0.5,2.4-1.9,5.2-5.2,7c-5.7,3.2-10.3,3.6-12.1,2.3
				c-0.3-0.2-0.5-0.5-0.8-0.8c0.4-1.9,1.6-4,4.2-6.2C261.8,314.7,268.2,316,269.8,317.5z"/>
		</g>
		<path id="XMLID_382_" fill="#FCAA51" d="M225.7,332.8c0,0-0.3,17.9-15.3,22.6c-16.6,5.2-24.1-6.8-21.7-20.4c0-0.2,0.1-0.4,0.1-0.6
			c2.8-13.9,15.7-19,15.7-19c4.4,4.3,17.4,14.4,20.5,16.8C225.4,332.6,225.7,332.8,225.7,332.8z"/>
		<path id="XMLID_377_" fill="#FEC272" d="M225,332.2c-1.5,5.6-5.2,13.3-14.3,16.2c-13.7,4.3-21.2-3.1-22-13.5
			c0-0.2,0.1-0.4,0.1-0.6c2.8-13.9,15.7-19,15.7-19C208.9,319.7,221.9,329.8,225,332.2z"/>
		<path id="XMLID_25_" fill="#FEC272" d="M194.2,269.2c0,0,23.8-21,36-17.9c12.2,3.1,7.1,13.2,7.1,13.2S205.3,266.4,194.2,269.2z"/>
	</g>
</g>
<g id="WATER_6">
	<path id="XMLID_12_" fill="#809DF9" d="M308.8,330.6c0,0,17,13.1,26.4,36.4c9.4,23.3,8,51.3,8,51.3s11.5,8.1,24.7,5.1
		c13.2-3,16-16.1,16-16.1s-5.6-33.9-27.5-63.6c-17.2-23.3-40.3-35.6-40.3-35.6S307,314.1,308.8,330.6z"/>
</g>
<g id="ORNAMENT_2">
	<g id="XMLID_355_">
		<path id="XMLID_8_" fill="#809DF9" d="M363.1,325.3l-12.8-10.7c-0.8-0.6-0.9-1.8-0.2-2.6c0.6-0.7,1.5-0.8,2.2-0.4l14.8,7.7
			c1.8,0.9,2.5,3.1,1.6,4.9c-0.9,1.8-3.1,2.5-4.9,1.6C363.6,325.7,363.3,325.5,363.1,325.3z"/>
		<path id="XMLID_9_" fill="#809DF9" d="M381,300.1l-28.7,0.1c-1,0-1.8-0.8-1.8-1.8c0-0.9,0.7-1.7,1.6-1.8l28.4-3.7
			c2-0.3,3.8,1.1,4.1,3.1s-1.1,3.8-3.1,4.1C381.4,300.1,381.2,300.1,381,300.1z"/>
		<path id="XMLID_10_" fill="#809DF9" d="M370.9,274l-18.3,8.8c-0.8,0.4-1.8,0-2.2-0.8c-0.4-0.7-0.1-1.6,0.5-2.1l16.3-12.2
			c1.6-1.2,3.9-0.9,5.1,0.7c1.2,1.6,0.9,3.9-0.7,5.1C371.4,273.8,371.1,273.9,370.9,274z"/>
	</g>
</g>
<g id="SIGN">
	<g id="XMLID_344_">
		<circle id="XMLID_24_" fill="#FEC272" cx="359.3" cy="197.5" r="12.6"/>
		<path id="XMLID_26_" fill="#FEC272" d="M371.2,178.3l-7.1-2.8c-3-1.2-4.6-4.3-3.9-7.4l19.7-84.6c0.9-3.7,4.7-5.8,8.3-4.6l27.4,9.1
			c3.7,1.2,5.5,5.5,3.7,9l-40,78.2C377.8,178.2,374.3,179.5,371.2,178.3z"/>
	</g>
</g>
</svg>
