<?xml version="1.0" encoding="utf-8"?>
<!-- Generator: Adobe Illustrator 19.0.0, SVG Export Plug-In . SVG Version: 6.00 Build 0)  -->
<svg version="1.1" xmlns="http://www.w3.org/2000/svg" xmlns:xlink="http://www.w3.org/1999/xlink" x="0px" y="0px"
	 viewBox="0 0 600 600" enable-background="new 0 0 600 600" xml:space="preserve">
<g id="FLOOR">
	<g id="XMLID_21_">
		<g id="XMLID_3_">
			<path id="XMLID_153_" fill="#99ADF9" d="M402.8,477c-4.5,11-34.7,9.6-38.2,19c-3.5,9.4,27.3,8.5,26.3,20.3
				c-1,11.8-19.6,13.6-53,15.5c-33.4,1.9-40.8,10.7-74.2,21.6s-48.1-3.2-66.8-13.4c-18.6-10.1-54.3,8.5-65.5-7.2
				c-11.2-15.8,19.3-21.4,46.2-27.5c27-6.2,14.8-9.1,14.1-22.2c-0.1-2.7,0.7-4.8,2.2-6.5c6.1-6.6,23.8-6.7,45-6.3
				c26.7,0.6,33.4-8.3,70.6-7.5c34.3,0.7,88.1,2.8,93,11.7C403.1,475.3,403.2,476.1,402.8,477z"/>
		</g>
		<path id="XMLID_155_" fill="#99ADF9" d="M455,496.5c-0.3,0.6-0.8,1.2-1.4,1.9c-4.3,4.7-18.4,7.6-29.7,7.8
			c-14,0.1-28.6-0.8-29.1-9.3c0,0,0,0,0,0c-0.4-8.5,35.4-9,47.9-7.6C453.5,490.3,456.9,492.8,455,496.5z"/>
		<path id="XMLID_325_" fill="#99ADF9" d="M178.3,495.1c-0.2,0.5-0.6,1-1.1,1.5c-3.4,3.7-14.5,6.1-23.4,6.2
			c-11,0.1-22.6-0.6-22.9-7.5c0,0,0,0,0,0c-0.3-6.8,27.9-7.2,37.7-6.1C177.1,490.1,179.9,492.1,178.3,495.1z"/>
		<path id="XMLID_157_" fill="#99ADF9" d="M357.4,548.4c-9.8,3.9-46.4,4.1-46.3-0.7c0-0.6,0.2-1.2,0.6-1.7c2.7-3.8,13.9-5.9,24-6.3
			c11.9-0.4,20,0.9,23.6,2.8C362.6,544.3,362.1,546.5,357.4,548.4z"/>
		<path id="XMLID_23_" fill="#7C99F2" d="M264,536.5c-9,3.3-37.6,2.5-37.4-3.4c0-0.7,0.2-1.4,0.5-2.1c2.4-4.6,9.9-6.3,18.5-6.6
			c10-0.4,18.2,1.2,21.5,3.1C271.3,529.8,271.4,533.7,264,536.5z"/>
		<path id="XMLID_26_" fill="#7C99F2" d="M374.9,480.4c-5.3,2.6-24.6,2.4-24.5-1c0-0.4,0.1-0.8,0.3-1.2c1.5-2.6,7.4-4,12.8-4.2
			c6.3-0.2,10.6,0.8,12.4,2.2C377.7,477.5,377.4,479.1,374.9,480.4z"/>
		<path id="XMLID_27_" fill="#7C99F2" d="M369.7,516.2c-4.3,2.1-20.1,1.9-20-0.8c0-0.3,0.1-0.7,0.3-1c1.2-2.1,6.1-3.3,10.5-3.4
			c5.2-0.2,8.7,0.7,10.2,1.8C372,513.9,371.8,515.2,369.7,516.2z"/>
		<path id="XMLID_25_" fill="#7C99F2" d="M321.9,514.5c-45.4,12.5-113.5-8.3-112.9-20.2c0.1-1.5,0.7-2.8,1.8-4
			c7.8-8.6,39.6-11,68.5-9.3c33.9,2.1,56.8,7.5,66.8,13.3C355.2,499.4,345.1,508.1,321.9,514.5z"/>
		<path id="XMLID_24_" fill="#7C99F2" d="M206.6,517.8c-4.3,2.4-20.3,2.2-20.1-0.9c0-0.4,0.1-0.7,0.3-1.1c1.2-2.4,6.1-3.7,10.5-3.9
			c5.2-0.2,8.7,0.7,10.2,2C208.9,515.2,208.7,516.7,206.6,517.8z"/>
	</g>
</g>
<g id="SMOKE_2">
	<g id="XMLID_19_">
		<path id="XMLID_97_" fill="#D2E9FF" d="M352.4,166.4c0,0-2.6-8.1,6.4-8.6c9-0.4,0-13.7,9-21.4c9-7.7,19.7-4.3,20.1,6
			s-1.3,16.7,0,19.3c1.3,2.6,5.1-4.7,9.8,0.4c4.7,5.1-24.4,103.6-24.4,103.6l-15.8-3.9L352.4,166.4z"/>
		<path id="XMLID_18_" fill="#E3F0FF" d="M381,182.1c-4.3,2-13.1,60.8-5.8,55C376.9,235.8,392,177,381,182.1z"/>
	</g>
</g>
<g id="SMOKE_1">
	<g id="XMLID_17_">
		<path id="XMLID_151_" fill="#E3F0FF" d="M455.5,120c-0.4,2.8-1.1,5.4-1.8,7.7c-7,21.2-26.1,22-26.4,24.9
			c-0.3,3.2,13.8,13.8,0.6,26.7c-13.2,12.9-40.1-3.5-47.2-4.1c-10-0.8-30.8,17-45.1-1.5c-9.2-11.9,5.6-18.6,2.2-21.9
			c-3.4-3.3-30-3.9-30-33.8c0-0.6,0-1.2,0-1.8c1-29.9,27.6-27.8,28.9-33.7c1.3-5.9,1-40.5,43-42c42.1-1.5,40.8,41.1,44.6,43.1
			C428.3,85.7,460,91.2,455.5,120z"/>
		<path id="XMLID_149_" fill="#D2E9FF" d="M422.1,144.9c9-3.7,22.5-10.3,31.5-17.2c-7,21.2-26.1,22-26.4,24.9
			c-0.3,3.2,13.8,13.8,0.6,26.7c-13.2,12.9-40.1-3.5-47.2-4.1c-10-0.8-30.8,17-45.1-1.5c-9.2-11.9,5.6-18.6,2.2-21.9
			c-3.4-3.3-30-3.9-30-33.8c2.3,4.7,7.1,11.4,17.4,16.1c17.3,7.9,29.5-0.9,35.6,7.6c6.1,8.5-6.7,13.8-1,18.8
			c5.8,5,14.8-7.6,29.2-0.9c14.5,6.7,23.5,11.1,29.2,5C424.1,158.4,409.3,150.2,422.1,144.9z"/>
		<g id="XMLID_16_">
			<g id="XMLID_14_">
				<path id="XMLID_94_" fill="#D2E9FF" d="M353.8,102.4c0,0-0.1-0.1-0.4-0.3c-0.3-0.2-0.6-0.5-1.1-1c-0.9-0.9-2.1-2.3-3.1-4.2
					c-0.5-0.9-1-2-1.4-3.2c-0.4-1.2-0.6-2.5-0.8-3.9c-0.1-1.4-0.1-2.8,0.1-4.2c0.1-0.7,0.2-1.4,0.4-2.1c0.1-0.4,0.1-0.6,0.3-1.2
					l0.3-1c0.3-1.2,1.1-2.7,1.9-4c0.8-1.2,1.9-2.4,3-3.3c1.2-0.9,2.4-1.6,3.6-2.1c1.2-0.5,2.5-0.8,3.6-1c1.1-0.2,2.2-0.2,3.1-0.2
					c0.9,0,1.7,0,2.4,0.1c0.7,0.1,1.2,0.1,1.5,0.2c0.4,0.1,0.6,0.1,0.6,0.1c1.3,0.3,2.1,1.5,1.8,2.8c-0.3,1.3-1.5,2.1-2.8,1.8
					c0,0-0.1,0-0.1,0l-0.2,0c0,0-0.1,0-0.3-0.1c-0.3-0.1-0.6-0.2-1.2-0.2c-0.5-0.1-1.1-0.2-1.9-0.2c-0.7,0-1.5-0.1-2.4,0
					c-0.9,0.1-1.8,0.2-2.7,0.6c-0.9,0.3-1.9,0.7-2.7,1.3c-0.9,0.6-1.7,1.4-2.4,2.3c-0.7,0.9-1.2,1.7-1.7,3.1l-0.4,0.9l-0.2,0.8
					c-0.2,0.6-0.4,1.2-0.4,1.8c-0.2,1.2-0.3,2.4-0.3,3.5c0,1.1,0.2,2.3,0.4,3.3c0.2,1,0.6,2,1,2.8c0.8,1.7,1.8,3,2.5,3.8
					c0.4,0.4,0.7,0.7,0.9,0.9c0.2,0.2,0.3,0.3,0.3,0.3l0.1,0c0.4,0.4,0.5,1.1,0.1,1.5C354.9,102.6,354.3,102.7,353.8,102.4z"/>
				<path id="XMLID_99_" fill="#D2E9FF" d="M365.9,73c0,0,0-0.2,0.1-0.7c0.1-0.4,0.3-1,0.5-1.8c0.5-1.5,1.3-3.6,3-5.9
					c0.8-1.1,1.9-2.3,3.2-3.2c1.3-1,2.8-1.8,4.4-2.5c0.8-0.3,1.7-0.5,2.6-0.8c0.9-0.2,1.8-0.3,2.7-0.4c0.9-0.1,1.8-0.1,2.7-0.1
					l0.7,0l0.1,0l0.3,0l0.1,0l0.3,0l1.2,0.1c0.4,0.1,0.7,0.1,1.2,0.2l1.5,0.4c0.5,0.2,1,0.3,1.5,0.5l1.3,0.6
					c0.9,0.4,1.7,0.9,2.4,1.5c0.8,0.5,1.4,1.2,2.1,1.8c2.5,2.6,3.9,5.7,4.7,8.2c0.8,2.6,1.2,4.8,1.4,6.3c0.1,0.8,0.1,1.4,0.2,1.8
					c0,0.5,0,0.7,0,0.7c0.1,1.8-1.3,3.3-3.1,3.3c-1.8,0.1-3.3-1.3-3.3-3.1c0,0,0-0.1,0-0.1l0-0.2c0,0,0-0.1,0-0.4
					c0-0.3,0-0.8-0.1-1.4c-0.1-1.2-0.3-3.1-0.9-5.1c-0.6-2-1.6-4.3-3.2-6.1c-0.4-0.4-0.8-0.9-1.3-1.3c-0.5-0.4-1-0.8-1.5-1l-0.8-0.5
					c-0.3-0.1-0.5-0.2-0.8-0.3l-0.8-0.3c-0.3-0.1-0.8-0.1-1.1-0.2l-1.2-0.2l-0.3,0l-0.1,0l0,0l0,0c-0.2,0,0.3,0,0.2,0l-0.1,0l-0.5,0
					c-0.7,0-1.4-0.1-2.1,0c-0.7,0.1-1.4,0.1-2,0.2c-0.6,0.2-1.3,0.3-1.9,0.5c-1.2,0.4-2.3,0.9-3.2,1.6c-0.9,0.6-1.7,1.4-2.3,2.2
					c-1.3,1.6-2,3.2-2.4,4.4c-0.2,0.6-0.3,1-0.4,1.3c-0.1,0.3-0.1,0.4-0.1,0.4l0,0.2c-0.3,1.3-1.5,2-2.8,1.8
					C366.4,75.4,365.7,74.2,365.9,73z"/>
			</g>
			<path id="XMLID_100_" fill="#D2E9FF" d="M415.6,87.7c0,0,0.7,0,1.8,0.1c1.1,0.1,2.6,0.3,4.4,0.8c1.8,0.5,3.9,1.3,5.9,2.9
				c1,0.8,1.9,1.7,2.7,2.8c0.4,0.6,0.7,1.1,1,1.8l0.4,0.9L432,98c0.3,1,0.6,2.5,0.6,3.7c0.1,1.3,0,2.5-0.3,3.6
				c-0.5,2.3-1.4,4.3-2.4,5.8c-1,1.5-2.1,2.6-2.8,3.3c-0.8,0.7-1.3,1.1-1.3,1.1c-0.5,0.4-1.3,0.3-1.7-0.2c-0.4-0.5-0.3-1.3,0.2-1.7
				c-0.1,0.1,1.7-1.3,3.2-4c0.8-1.3,1.4-3,1.6-4.9c0.1-0.9,0.1-1.9,0-2.8c-0.1-1-0.3-1.7-0.7-2.9l-0.2-0.7l-0.3-0.6
				c-0.2-0.4-0.5-0.8-0.7-1.1c-0.5-0.7-1.2-1.2-1.9-1.7c-1.5-0.9-3.1-1.5-4.6-1.8c-1.5-0.3-2.7-0.4-3.6-0.4c-0.9,0-1.3,0-1.3,0
				c-1.4,0-2.6-1.1-2.6-2.5C413.1,88.9,414.2,87.7,415.6,87.7z"/>
			<path id="XMLID_101_" fill="#D2E9FF" d="M349.2,99.9c0,0-0.1,0-0.2,0c-0.2,0-0.4,0.1-0.7,0.2c-0.7,0.2-1.6,0.5-2.6,1.2
				c-0.5,0.3-1,0.7-1.4,1.2c-0.5,0.5-0.9,1.1-1.2,1.8c-0.3,0.7-0.6,1.4-0.8,2.3c-0.2,0.8-0.3,1.8-0.3,2.6c0,1.1,0.1,1.8,0.3,2.6
				c0.2,0.8,0.5,1.6,1,2.3c0.9,1.4,2.1,2.4,3.3,3.1c1.2,0.7,2.3,1.1,3.1,1.3c0.8,0.2,1.3,0.3,1.2,0.3c0.5,0,0.9,0.5,0.8,1
				c0,0.5-0.5,0.9-1,0.8c0,0-0.6,0-1.5-0.2c-0.9-0.2-2.2-0.5-3.8-1.1c-1.5-0.7-3.2-1.8-4.6-3.5c-0.7-0.9-1.2-1.9-1.6-2.9
				c-0.2-0.5-0.3-1.2-0.5-1.7c-0.2-0.6-0.2-1-0.3-1.6c0-0.3-0.1-0.4-0.1-0.9l0-0.8c0-0.6,0-1.1,0.1-1.7c0.1-1.1,0.3-2.3,0.7-3.3
				c0.4-1.1,0.9-2.1,1.6-2.9c0.6-0.9,1.3-1.6,2.1-2.2c1.4-1.2,2.8-1.8,3.8-2.2c0.5-0.2,0.9-0.3,1.2-0.4c0.3-0.1,0.5-0.1,0.5-0.1
				c1.4-0.3,2.8,0.5,3.1,1.9c0.3,1.4-0.5,2.8-1.9,3.1C349.4,99.9,349.3,99.9,349.2,99.9L349.2,99.9z"/>
			<path id="XMLID_15_" fill="#D2E9FF" d="M410.5,130.1c0,0,0,0.7-0.2,1.8c-0.2,1.1-0.5,2.6-1.1,4.4c-0.6,1.8-1.5,3.9-3.2,5.8
				c-0.8,0.9-1.8,1.8-3,2.5c-0.6,0.3-1.2,0.7-1.8,0.9l-1,0.3l-0.9,0.2c-1,0.3-2.5,0.4-3.7,0.4c-1.3,0-2.5-0.2-3.6-0.4
				c-2.3-0.6-4.2-1.6-5.7-2.7c-1.5-1.1-2.5-2.2-3.2-3c-0.7-0.8-1-1.3-1-1.4c-0.4-0.5-0.2-1.3,0.3-1.7c0.5-0.4,1.3-0.2,1.7,0.3
				c0-0.1,1.2,1.7,3.9,3.4c1.3,0.8,3,1.6,4.8,1.9c0.9,0.2,1.9,0.2,2.8,0.1c1-0.1,1.7-0.2,2.9-0.6l0.7-0.2l0.6-0.3
				c0.4-0.2,0.8-0.4,1.1-0.7c0.7-0.5,1.3-1.2,1.8-1.8c1-1.4,1.6-3,2-4.5c0.4-1.5,0.5-2.7,0.6-3.6c0.1-0.9,0-1.3,0-1.3
				c0-1.4,1.2-2.5,2.6-2.5C409.4,127.5,410.6,128.6,410.5,130.1z"/>
		</g>
	</g>
</g>
<g id="SMOKE_3">
	<path id="XMLID_104_" fill="#D2E9FF" d="M331.1,212.8l-4.2-11.7c0,0,9.7-1.5,4.6-14.2c-2.9-7.1-11.1-1.5-11.1-1.5s-1.4-10.3-12.1-8
		c-8.4,1.8-8.6,15.3-5.3,19.6c3.2,4.3,6.5,3.9,6.5,3.9s-7-0.2-5.9,6.2c1.1,6.4,6.6,6.7,10.8,4.6c2-1,3.5-3.5,3.5-3.5l9.1,7.5
		c0.8,0.7,2,0.8,3,0.3l0,0C331.1,215.5,331.6,214.1,331.1,212.8z"/>
</g>
<g id="SMOKE_4">
	<g id="XMLID_102_">
		<path id="XMLID_148_" fill="#D2E9FF" d="M430.9,239c-0.4,1.9-1.1,3.6-1.9,4.5c-2.4,2.8-6.2,3.1-6.2,3.1s3.4,1.9,0.9,6
			c-1.9,3-7.5,1.2-9-0.7c-1.6-1.9-1.6-4.1-1.6-4.1l-6.8,5.8c-1.1,1-2.9,0.9-3.9-0.3l0,0c-0.9-1-0.9-2.6,0-3.6l0.9-1l5.5-6.5
			c0,0-7.8-3.2-5-9c2.5-5.3,7.5-2.8,8.8-1.4c1.2,1.3,1.4,3.5,1.4,3.5s2.3-8.9,10.6-6.9C430.8,229.8,431.7,234.9,430.9,239z"/>
	</g>
</g>
<g id="SMOKE_5">
	<g id="XMLID_109_">
		<path id="XMLID_22_" fill="#E1ECFF" d="M218.3,361.3c1.6,2.2,1.7,5.2,0.1,7.5l-0.6,0.8c-0.6,0.8-1.5,1.2-2.4,1.2
			c-0.7,0-1.3-0.2-1.9-0.7l-9.6-8.4c0,0-4.7,10.9-17.5,8.4c-8.9-1.8-11.2-9.4-10.2-15.7c0.4-3.1,1.6-5.9,3.2-7.6
			c2.8-3,6.4-3.4,9-3.3c-2.6-0.8-6.3-2.9-7.7-8.1c-0.9-3.3-0.7-6.6,0.5-9.2c1.9-4.1,6.2-6.7,12.3-6c10.1,1.3,10.3,15.6,10.3,15.6
			s3.5-9.7,13.1-5.5c8.4,3.7,6,14.9,0.3,19.3c-3,2.3-5.6,2.8-5.6,2.8L218.3,361.3z"/>
		<path id="XMLID_144_" fill="#C5DFFF" d="M196.6,345.3c0,0-4.1-0.8-8.1-1.9c-2.6-0.8-6.3-2.8-7.8-8.1c-0.9-3.3-0.7-6.6,0.5-9.2
			c0.6,3.5,2.2,9,6.1,12.6C193.4,344.3,196.6,345.3,196.6,345.3z"/>
		<path id="XMLID_20_" fill="#C5DFFF" d="M217.8,369.5c-0.6,0.8-1.5,1.2-2.4,1.2c-0.7,0-1.3-0.2-1.9-0.7l-9.6-8.4
			c0,0-4.7,10.9-17.5,8.4c-8.9-1.8-11.2-9.4-10.2-15.7c1.4,3,4.5,6.4,11.6,7.6c14.2,2.5,14.6-6.4,14.6-6.4L217.8,369.5z"/>
	</g>
</g>
<g id="CABLE_1">
	<g id="XMLID_112_">
		<path id="XMLID_329_" fill="#FF97C9" d="M255.9,339.2c-1.3,0-5.6-0.3-9.5-3.9c-3.9-3.6-5.9-9.3-6-16.8
			c-0.2-17.7-3.6-20.1-7.3-21.2c-5.2-1.5-10.8,0.5-10.8,0.5c-2,0.8-4.2-0.2-5-2.2c-0.8-2,0.2-4.2,2.2-5c0.3-0.1,7.9-3,15.7-0.8
			c10.4,3,12.7,13.1,12.8,28.5c0.1,5.2,1.3,9.1,3.4,11.2c2,1.9,4.3,1.9,4.3,1.9c2.1-0.2,3.9,1.6,4,3.7c0.1,2.1-1.5,3.9-3.6,4
			C256.2,339.2,256.1,339.2,255.9,339.2z"/>
	</g>
</g>
<g id="CABLE_2">
	<g id="XMLID_4_">
		<path id="XMLID_5_" fill="#99ADF9" d="M252.8,285.4c-1,0.9-3.9,4.1-4.3,9.3c-0.3,5.3,2.1,10.8,7.2,16.4
			c11.9,13,11.2,17.1,9.2,20.4c-2.8,4.7-8.2,7-8.2,7c-2,0.8-2.9,3-2.1,5c0.8,2,3,2.9,5,2.1c0.3-0.1,7.9-3.2,12-10.2
			c5.5-9.4,0.2-18.2-10.1-29.6c-3.5-3.8-5.3-7.5-5.2-10.5c0.1-2.8,1.8-4.3,1.9-4.4c1.6-1.3,1.7-3.8,0.3-5.4
			c-1.4-1.6-3.7-1.8-5.4-0.4C253,285.2,252.9,285.3,252.8,285.4z"/>
	</g>
</g>
<g id="CABLE_3">
	<g id="XMLID_108_">
		<path id="XMLID_332_" fill="#99ADF9" d="M430,308.3c-3.8,0-8-1.2-11.8-4.2c-6.5-5-10.8-1.6-10.8-1.5c-1.6,1.4-4.1,1.2-5.4-0.5
			c-1.4-1.6-1.2-4.1,0.5-5.4c3.1-2.6,11.4-5.7,20.5,1.3c4.9,3.8,10.1,2.8,12.1,0.9c1.9-1.7,3-6.6,3.2-9.5c0.1-2.1,2-3.8,4.1-3.6
			c2.1,0.1,3.7,2,3.6,4.1c-0.1,1-0.8,10.3-5.7,14.7C437.8,306.9,434.1,308.3,430,308.3z"/>
	</g>
</g>
<g id="ORNAMENT_1">
	<g id="XMLID_1_">
		<path id="XMLID_125_" fill="#E1ECFF" d="M428,355.9l31.9,35.7c0,0-9.3-16-17.3-26.1C434.2,355.1,428,355.9,428,355.9z"/>
		<path id="XMLID_13_" fill="#E1ECFF" d="M453.1,372.3c0,0-8.2-9.8-9.4-11.3c-3.2-3.9-5.5-5.1-5.5-5.1s2.9-0.4,6.7,4.4
			C448.7,365,453.1,372.3,453.1,372.3z"/>
	</g>
</g>
<g id="ORNAMENT_2">
	<g id="XMLID_341_">
		<g id="XMLID_319_">
			<polygon id="XMLID_103_" fill="#FEC272" points="404.2,339 418.6,314.2 410,337.1 422.7,349.7 			"/>
			<polygon id="XMLID_110_" fill="#FEC272" points="426.7,326.6 406,337.7 411.1,339.6 			"/>
		</g>
	</g>
</g>
<g id="ORNAMENT_3">
	<g id="XMLID_340_">
		<path id="XMLID_115_" fill="#FEC272" d="M217.6,282.9l-7.5-8.7c-0.9-1.1-0.8-2.7,0.3-3.7c1.1-0.9,2.7-0.8,3.7,0.3
			c0.2,0.2,0.3,0.4,0.4,0.6l4.8,10.4c0.2,0.5,0,1.1-0.5,1.3C218.4,283.4,217.9,283.3,217.6,282.9z"/>
		<path id="XMLID_119_" fill="#FEC272" d="M210.7,292.4l-14.1,1.4c-1.4,0.1-2.7-0.9-2.8-2.3c-0.1-1.4,0.9-2.7,2.3-2.8
			c0.2,0,0.4,0,0.6,0l14,1.7c0.6,0.1,0.9,0.6,0.9,1.1C211.5,292,211.2,292.4,210.7,292.4z"/>
		<path id="XMLID_120_" fill="#FEC272" d="M216.9,304l-6.9,8.6c-0.9,1.1-2.5,1.3-3.6,0.4c-1.1-0.9-1.3-2.5-0.4-3.6
			c0.1-0.2,0.3-0.4,0.5-0.5l9-6.4c0.5-0.3,1.1-0.2,1.5,0.2C217.3,303.1,217.2,303.6,216.9,304z"/>
	</g>
</g>
<g id="ORNAMENT_4">
	<g id="XMLID_6_">
		<path id="XMLID_10_" fill="#FEC272" d="M258.7,277.8l5.3-7c0.7-0.9,1.9-1,2.8-0.4c0.9,0.7,1,1.9,0.4,2.8c-0.1,0.1-0.2,0.3-0.4,0.4
			l-7,5.3c-0.3,0.3-0.8,0.2-1.1-0.1C258.5,278.5,258.5,278.1,258.7,277.8z"/>
		<path id="XMLID_8_" fill="#FEC272" d="M250.5,274.2l-3.4-10.3c-0.3-1,0.2-2.2,1.3-2.5c1-0.3,2.2,0.2,2.5,1.3
			c0,0.1,0.1,0.3,0.1,0.4l1,10.8c0,0.4-0.3,0.8-0.7,0.8C250.9,274.7,250.6,274.5,250.5,274.2z"/>
		<path id="XMLID_7_" fill="#FEC272" d="M242.8,280.7l-7.6-3.8c-1-0.5-1.4-1.7-0.9-2.7s1.7-1.4,2.7-0.9c0.2,0.1,0.3,0.2,0.5,0.3
			l6.3,5.7c0.3,0.3,0.4,0.8,0.1,1.2C243.5,280.8,243.1,280.9,242.8,280.7z"/>
	</g>
</g>
<g id="ORNAMENT_5">
	<g id="XMLID_328_">
		<path id="XMLID_121_" fill="#FEC272" d="M444.5,267.7l-1.8,10.3c-0.1,0.6-0.6,0.9-1.2,0.8c-0.5-0.1-0.8-0.5-0.9-0.9l-1.3-10.4
			c-0.2-1.4,0.8-2.7,2.3-2.9c1.4-0.2,2.7,0.8,2.9,2.3C444.6,267.2,444.6,267.4,444.5,267.7z"/>
		<path id="XMLID_122_" fill="#FEC272" d="M462.6,277.4l-10.5,6.9c-0.7,0.4-1.6,0.3-2-0.4c-0.4-0.6-0.3-1.4,0.2-1.9l9.2-8.6
			c1-1,2.7-0.9,3.6,0.1c1,1,0.9,2.7-0.1,3.6C462.8,277.2,462.7,277.3,462.6,277.4z"/>
		<path id="XMLID_123_" fill="#FEC272" d="M460.9,299.4l-9-4.3c-0.6-0.3-0.9-1-0.6-1.7c0.2-0.5,0.8-0.8,1.3-0.7l9.8,1.7
			c1.4,0.2,2.4,1.6,2.1,3c-0.2,1.4-1.6,2.4-3,2.1C461.4,299.6,461.2,299.5,460.9,299.4z"/>
	</g>
</g>
<g id="WINGS_1">
	<g id="XMLID_28_">
		<path id="XMLID_127_" fill="#FF97C9" d="M320,250.4c0,0-42.1,50.4-43.7,49.1c-0.4-0.3-1.1-2.6-2-6.3c-2.4-10.5-5.7-32.5-6.1-55.9
			c-0.5-31.5,0.3-41.1,8.7-45c6.2-2.9,23.1,25,34.2,43.7C315.1,242.4,318.2,247.7,320,250.4z"/>
		<path id="XMLID_124_" fill="#FC75BC" d="M320,250.4c0,0-42.1,50.4-43.7,49.1c-0.4-0.3-1.1-2.6-2-6.3c4.1-10.5,9.1-21.6,14.6-30
			c8.9-13.4,16.9-22.1,22.2-27.2C315.1,242.4,318.2,247.7,320,250.4z"/>
	</g>
</g>
<g id="WINGS_2">
	<g id="XMLID_2_">
		<path id="XMLID_11_" fill="#FF97C9" d="M465.8,423.7c-2.6,5.4-26.7-2.1-46.4-8.9c-3.8-1.3-7.5-2.6-10.9-3.8
			c-7.8-2.7-13-10.1-13-18.4c0.1-19.3-1.7-50,2-51.6c4.4-2,26.2,19.5,46.1,42.6C464.2,407.5,469.7,415.4,465.8,423.7z"/>
		<path id="XMLID_9_" fill="#FC75BC" d="M419.4,414.8c-3.8-1.3-7.5-2.6-10.9-3.8c-7.8-2.7-13-10.1-13-18.4c0.1-19.3-1.7-50,2-51.6
			c0.1,0,8.3,25.4,13.9,45.4C414.6,398,417.3,407.5,419.4,414.8z"/>
	</g>
</g>
<g id="ROCKET">
	<g id="XMLID_32_">
		<g id="XMLID_31_">
			<path id="XMLID_116_" fill="#E1ECFF" d="M405,291c-0.7,27.3-4.7,72.7-21,117.7c-14.1,39-26.3,64.9-34.4,80.2
				c-6.7,12.6-10.6,18.2-10.6,18.2s-10.6,5.3-31,6.9c-11.4,0.9-25.8,0.7-43.1-2.2c-48.4-8.1-53.5-23.3-53.5-23.3s-0.7-8.7,1.6-25.8
				c2.9-22,10.9-57.8,31.8-106.7c23.5-54.7,50.3-86.9,66.9-103.2c9.8-9.6,16.1-13.7,16.1-13.7s13-5.3,39.9,3.1
				c10.7,3.3,18.8,7.6,24.5,11.7c8.8,6.1,12.4,11.5,12.4,11.5S405.5,275.2,405,291z"/>
			<path id="XMLID_113_" fill="#C5DFFF" d="M405,291c-0.7,27.3-4.7,72.7-21,117.7c-14.1,39-26.3,64.9-34.4,80.2
				c-6.7,12.6-10.6,18.2-10.6,18.2s-10.6,5.3-31,6.9c13-17.8,32.3-48.7,51.5-95.5c31.2-76,33.1-142.8,32.8-164.6
				c8.8,6.1,12.4,11.5,12.4,11.5S405.5,275.2,405,291z"/>
			<g id="XMLID_129_">
				<path id="XMLID_324_" fill="#F8FBFF" d="M224.4,458.4c-0.3,0-0.5,0-0.8-0.1c-2.8-0.4-4.7-3.1-4.3-5.9
					c0.3-1.7,6.7-42.9,24.4-84.4c17.7-41.4,31.7-61.7,32.3-62.6c1.6-2.3,4.8-2.9,7.2-1.3c2.3,1.6,2.9,4.8,1.3,7.2
					c-0.1,0.2-14.1,20.4-31.3,60.7c-17.2,40.3-23.7,81.5-23.7,81.9C229,456.6,226.8,458.4,224.4,458.4z"/>
			</g>
		</g>
		<g id="XMLID_29_">
			<path id="XMLID_351_" fill="#1C3177" d="M405,291c-3.5-3.1-8-6.7-13.4-10.4c-2.2-1.5-4.6-3.1-7.2-4.7c-1.4-0.8-2.8-1.7-4.3-2.5
				c-5.9-3.4-12.6-6.6-19.9-9.4c-0.6-0.2-1.1-0.4-1.7-0.6c-1.1-0.4-2.1-0.8-3.1-1.1c-8.4-3-15.8-5-22.1-6.4
				c-1.8-0.4-3.6-0.7-5.2-1.1c-7-1.3-12.4-1.7-16.2-1.9c9.8-9.6,16.1-13.7,16.1-13.7s4-1.6,12.2-1.6c1.8,0,3.8,0.1,6,0.3
				c5.2,0.4,11.5,1.5,18.9,3.6c0.9,0.3,1.9,0.5,2.8,0.8c0.7,0.2,1.4,0.4,2.1,0.7h0c5.8,2,10.8,4.2,15,6.4c1.7,0.9,3.2,1.8,4.7,2.8
				c1,0.6,1.8,1.2,2.7,1.8c8.8,6.1,12.4,11.5,12.4,11.5S405.5,275.2,405,291z"/>
			<path id="XMLID_111_" fill="#142966" d="M405,291c-3.5-3.1-8-6.7-13.4-10.4c0.8-11.7,0.8-20.8,0.8-26.6
				c8.8,6.1,12.4,11.5,12.4,11.5S405.5,275.2,405,291z"/>
			<g id="XMLID_118_">
				<g id="XMLID_105_">
					<path id="XMLID_337_" fill="#142966" d="M389.7,252.2l-4.6,22.5c-0.1,0.5-0.3,0.9-0.7,1.3c-1.4-0.8-2.8-1.7-4.3-2.5l4.9-24
						C386.7,250.4,388.3,251.3,389.7,252.2z"/>
				</g>
				<g id="XMLID_106_">
					<path id="XMLID_336_" fill="#142966" d="M370,243l-9.8,21c-0.6-0.2-1.1-0.4-1.7-0.6c-1.1-0.4-2.1-0.8-3.1-1.1l9.6-20.8
						c0.9,0.3,1.9,0.5,2.8,0.8C368.6,242.6,369.3,242.8,370,243z"/>
				</g>
				<g id="XMLID_107_">
					<path id="XMLID_333_" fill="#142966" d="M346.2,237.9c-0.1,0.2-0.2,0.4-0.3,0.6l-12.6,17.4c-1.8-0.4-3.6-0.7-5.2-1.1
						c0.1-0.4,0.2-0.8,0.5-1.2l11.6-16.1C342,237.6,344,237.7,346.2,237.9z"/>
				</g>
			</g>
		</g>
		<g id="XMLID_30_">
			
				<ellipse id="XMLID_130_" transform="matrix(0.9459 0.3245 -0.3245 0.9459 151.2207 -72.8775)" fill="#C5DFFF" cx="294.1" cy="417" rx="45" ry="62.4"/>
			
				<ellipse id="XMLID_132_" transform="matrix(0.9459 0.3245 -0.3245 0.9459 150.7591 -73.9512)" fill="#1C3177" cx="297.1" cy="415.1" rx="45" ry="61.7"/>
			
				<ellipse id="XMLID_133_" transform="matrix(0.9459 0.3245 -0.3245 0.9459 150.678 -73.465)" fill="#99ADF9" cx="295.6" cy="415.1" rx="35.7" ry="49.9"/>
			
				<ellipse id="XMLID_134_" transform="matrix(0.9459 0.3245 -0.3245 0.9459 141.2553 -74.3223)" fill="#C5DFFF" cx="293.5" cy="386.4" rx="10.2" ry="14.3"/>
			
				<ellipse id="XMLID_135_" transform="matrix(0.9459 0.3245 -0.3245 0.9459 153.2016 -67.5381)" fill="#C5DFFF" cx="279.1" cy="425.6" rx="5.5" ry="7.6"/>
			<path id="XMLID_141_" fill="#7C99F2" d="M329.4,426.7c-9,26.1-31.3,42-50,35.6c-9.8-3.4-16.7-12.3-19.6-23.8c2.4,1.6,5,3,7.8,3.9
				c23.2,8,51.1-11.9,62.2-44.4c0.7-2,1.3-4,1.8-6C334.1,402.3,333.6,414.6,329.4,426.7z"/>
		</g>
		<g id="XMLID_12_">
			<path id="XMLID_150_" fill="#FF97C9" d="M349.7,489c-6.7,12.6-10.6,18.2-10.6,18.2s-10.6,5.3-31,6.9c-11.4,0.9-25.8,0.7-43.1-2.2
				c-17.9-3-29.8-7-37.8-10.8c-13.6-6.5-15.7-12.5-15.7-12.5s-0.7-8.7,1.6-25.8c4.2,3.9,9.8,8.3,17.2,12.4
				c11.4,6.3,26.9,12.2,48,15.3c15.8,2.3,30.9,2.6,44.4,1.7C332.7,491.7,341.8,490.4,349.7,489z"/>
			<path id="XMLID_114_" fill="#FC75BC" d="M349.7,489c-6.7,12.6-10.6,18.2-10.6,18.2s-10.6,5.3-31,6.9c4.3-5.9,9.2-13.1,14.6-21.9
				C332.7,491.7,341.8,490.4,349.7,489z"/>
			<path id="XMLID_143_" fill="#FCB6DA" d="M230.3,475.3l-3.1,25.9c-13.6-6.5-15.7-12.5-15.7-12.5s-0.7-8.7,1.6-25.8
				C217.3,466.8,222.9,471.1,230.3,475.3z"/>
		</g>
	</g>
</g>
</svg>
