<?xml version="1.0" encoding="utf-8"?>
<!-- Generator: Adobe Illustrator 19.0.0, SVG Export Plug-In . SVG Version: 6.00 Build 0)  -->
<svg version="1.1" xmlns="http://www.w3.org/2000/svg" xmlns:xlink="http://www.w3.org/1999/xlink" x="0px" y="0px"
	 viewBox="0 0 600 600" enable-background="new 0 0 600 600" xml:space="preserve">
<g id="FLOOR">
	<g id="XMLID_3_">
		<g id="XMLID_131_">
			<path id="XMLID_215_" fill="#C7D4FF" d="M419.6,375c20.2,8.9-12.7,10-56.9,13.5c-44.2,3.6-69.2,0.4-102.1-0.1
				c-32.8-0.5-81.4,1.8-84.7-8c-3.4-9.8,24.1-16.4,26.6-21.9c2.4-5.4-58.4-2.4-56.9-8.7c0.5-2.1,2.4-4,5.5-5.7
				c26.8-14.9,142.9-16.3,199.4-16.7c63-0.5,128.3-1.4,154.3,13.5c3.5,2,5,3.7,4.9,5.2c-0.4,9.8-66.4,10.3-86.1,13.4
				C400.6,363,399.4,366.1,419.6,375z"/>
			<path id="XMLID_14_" fill="#99ADF9" d="M390,358.6c14.9,5.8-9.4,6.4-42,8.7c-32.7,2.2-51.2,0.2-75.4-0.2
				c-24.3-0.4-60.1,1.1-62.6-5.3c-2.5-6.4,17.8-10.6,19.6-14.1c1.8-3.5-43.2-1.6-42.1-5.8c0.4-1.4,1.8-2.6,4-3.7
				c19.8-9.6,105.6-10.3,147.3-10.6c46.5-0.3,105.1-3.4,114,6.1c4.3,4.6-45.4,12.9-60,14.8C375.9,350.8,375,352.8,390,358.6z"/>
			<path id="XMLID_211_" fill="#99ADF9" d="M419.6,375c20.2,8.9-12.7,10-56.9,13.5c-44.2,3.6-69.2,0.4-102.1-0.1
				c-32.8-0.5-81.4,1.8-84.7-8c-3.4-9.8,24.1-16.4,26.6-21.9c2.4-5.4-58.4-2.4-56.9-8.7c0.5-2.1,2.4-4,5.5-5.7c0.8,1.5,4,3,12.9,3.7
				c20.3,1.5,49,2.6,50.7,6.9c1.7,4.3-28.2,16.1-24.4,22.1c3.8,5.9,84.3,3.5,132.4,5.2c48.1,1.7,90.9-1.4,85.4-4.7
				s-18.9-10.6-8.8-17.2c10.1-6.6,65.8-7.7,89.3-10c9.6-0.9,16.4-2.5,21-4c-0.4,9.8-66.4,10.3-86.1,13.4
				C400.6,363,399.4,366.1,419.6,375z"/>
			<path id="XMLID_1_" fill="#99ADF9" d="M474,338.9c-6.1,0.5-5.6,6.5,4.8,5.1C489.1,342.7,485.9,337.9,474,338.9z"/>
			<path id="XMLID_4_" fill="#99ADF9" d="M437.9,343.4c-6.1,0.5-5.6,6.5,4.8,5.1C453.1,347.3,449.8,342.4,437.9,343.4z"/>
			<path id="XMLID_5_" fill="#99ADF9" d="M175.2,340.9c-6.1,0.5-5.6,6.5,4.8,5.1C190.4,344.8,187.1,340,175.2,340.9z"/>
			<path id="XMLID_6_" fill="#99ADF9" d="M207.8,361.6c-6.1,0.5-5.6,6.5,4.8,5.1C222.9,365.4,219.7,360.6,207.8,361.6z"/>
		</g>
		<g id="XMLID_156_">
			<path id="XMLID_228_" fill="#C7D4FF" d="M530.3,370c-6.9,4.7-17.5,5.7-33.2,5.9c-11.3,0.2-17.7-3.4-16.9-6.9
				c0.6-2.6,5.3-5.1,14.9-6.1c17.9-1.8,34.3,0.4,36.5,3.9C532.3,367.8,531.9,368.9,530.3,370z"/>
		</g>
		<g id="XMLID_194_">
			<path id="XMLID_251_" fill="#C7D4FF" d="M191.7,326.2c-8.3,4.8-21.3,6.1-40.7,6.7c-13.9,0.4-21.9-3-20.9-6.5
				c0.7-2.6,6.4-5.3,18.2-6.4c21.9-2.2,42.2-0.4,45.1,3.1C194.2,324,193.7,325,191.7,326.2z"/>
		</g>
	</g>
</g>
<g id="EFFECT_1">
	<path id="XMLID_125_" fill="#C7D4FF" d="M509.8,178.1c0,0,13.6-1.4,28.7,18.2c12,15.5,9.3,34,9.3,34s9.2-19-3.2-36.7
		C531.3,174.7,509.8,178.1,509.8,178.1z"/>
</g>
<g id="EFFECT_2">
	<path id="XMLID_172_" fill="#C7D4FF" d="M502.6,239.2c0,0,3.6,8.4,0.2,20.4s-9.8,17-9.8,17s11.5-3.1,14.3-16.5
		C510.2,246.6,502.6,239.2,502.6,239.2z"/>
</g>
<g id="EFFECT_3">
	<path id="XMLID_122_" fill="#99ADF9" d="M213.9,248.4c0,0-1.4-7.8,9.6-22.5s27-20.3,27-20.3l-19.4-40.1c0,0,7.3,28.1-3.4,36.5
		c-10.8,8.4-28.6-2.4-28.6-2.4s10.6,18.6,7.2,26.8c-3.3,8.2-21.3,9.6-21.3,9.6L213.9,248.4z"/>
</g>
<g id="EFFECT_4">
	<g id="XMLID_185_">
		<path id="XMLID_136_" fill="#99ADF9" d="M275.8,407l-12,14.4c-1.2,1.5-3.5,1.7-5,0.4c-1.5-1.2-1.7-3.5-0.4-5
			c0.1-0.1,0.3-0.3,0.4-0.4l14.2-12.3c0.8-0.7,2.1-0.6,2.8,0.2C276.5,405.2,276.4,406.3,275.8,407z"/>
		<path id="XMLID_137_" fill="#99ADF9" d="M292.5,408.7l-2.4,29.2c-0.1,1.6-1.6,2.8-3.2,2.7c-1.6-0.1-2.8-1.6-2.7-3.2
			c0,0,0-0.1,0-0.1l3.9-29.1c0.2-1.2,1.3-2,2.5-1.9C291.8,406.5,292.6,407.6,292.5,408.7z"/>
		<path id="XMLID_138_" fill="#99ADF9" d="M309.6,407.6l7.9,20.7c0.7,1.8-0.2,3.9-2,4.6c-1.8,0.7-3.9-0.2-4.6-2
			c-0.1-0.1-0.1-0.3-0.1-0.5l-5-21.6c-0.2-1.1,0.4-2.1,1.5-2.4C308.3,406.2,309.3,406.7,309.6,407.6z"/>
		<path id="XMLID_139_" fill="#99ADF9" d="M325.7,404.3l11.9,8c1.6,1.1,2.1,3.3,1,4.9c-1.1,1.6-3.3,2.1-4.9,1
			c-0.2-0.1-0.4-0.3-0.5-0.4l-10.3-10c-0.9-0.9-0.9-2.3,0-3.1C323.6,403.8,324.8,403.7,325.7,404.3z"/>
	</g>
</g>
<g id="TAIL">
	<g id="XMLID_110_">
		<path id="XMLID_112_" fill="#FEC272" d="M535.2,254.6c-5.9,18.4-31.7,27.8-31.7,27.8s0.3-0.3,0.8-0.8c0,0,0,0,0,0
			c3.7-4.2,19-23.6,5.9-48.8c-14.8-28.6-63.7-18.8-63.7-18.8l-1.1-7.1l-1.2-7.4c0,0,26.6-23.7,62.5-10.2
			C540.9,202.2,541.1,236.3,535.2,254.6z"/>
		<path id="XMLID_111_" fill="#FCAA51" d="M516.2,270.6c-2.8,4.4-7.2,8.1-11.8,11c3.7-4.2,19-23.6,5.9-48.8
			c-14.8-28.6-63.7-18.8-63.7-18.8l-1.1-7.1c10.6-1.5,38.6-3.9,57.6,7.1C525.7,227.1,525.6,255.9,516.2,270.6z"/>
	</g>
</g>
<g id="BODY">
	<g id="XMLID_9_">
		<path id="XMLID_212_" fill="#FEC272" d="M455.1,236.5c-0.5,15.9-3.1,29.7-6.7,37.7c-7.7,17.4-13.1,27.3-24.4,36.1
			c-4.2,3.3-9.2,6.4-15.5,9.7c-23.1,12.1-86,12.9-86,12.9c-2.5,0.2-5,0.4-7.5,0.5c-22.9,1.2-44.5-1.3-57.8-8.5
			c-6.2-3.3-10.6-7.7-12.5-13.1c-6.3-18.4-8.6-46.5,33.2-117.7c26.9-45.8,60.5-63.9,92.3-63.7c16.9,0.1,33.2,5.4,47.8,14.4
			c0.6,0.4,1.3,0.8,1.9,1.2C448.1,164.2,456.1,204.6,455.1,236.5z"/>
		<g id="XMLID_8_">
			<path id="XMLID_169_" fill="#FFCB8D" d="M370.2,130.3c-18.8,7.6-47.7,26.5-73.9,73.5c-33.3,59.7-38.5,103.8-39.2,121
				c-6.2-3.3-10.6-7.7-12.5-13.1c-6.3-18.4-8.6-46.5,33.2-117.7C304.9,148.2,338.5,130.1,370.2,130.3z"/>
			<path id="XMLID_167_" fill="#FCAA51" d="M455.1,236.5c-0.5,15.9-3.1,29.7-6.7,37.7c-10.6,23.8-16.8,33.6-39.9,45.7
				c-23.1,12.1-86,12.9-86,12.9c-2.5,0.2-5,0.4-7.5,0.5c-0.7-9.5,1.7-22.3,7.3-39c17-51,44-69.8,74.5-75.7
				C423.1,213.6,443.6,226.4,455.1,236.5z"/>
			<path id="XMLID_209_" fill="#FCAA51" d="M455.1,236.5c-0.5,15.9-3.1,29.7-6.7,37.7c-7.7,17.4-13.1,27.3-24.4,36.1
				c7-19.4,13.7-46.1,14.3-78.3c0.7-42.6-11.1-71.5-20.3-87.2c0.6,0.4,1.3,0.8,1.9,1.2C448.1,164.2,456.1,204.6,455.1,236.5z"/>
		</g>
	</g>
</g>
<g id="LEG">
	<g id="XMLID_81_">
		<g id="XMLID_87_">
			<path id="XMLID_90_" fill="#FEC272" d="M455.6,243.9c-1.6,18.7-9.4,48.7-16.7,68.6c-2.9,7.9-5.7,14.3-8.1,17.6
				c-4,5.7-11.8,8.2-19.6,8.7c-8.2,0.6-16.5-0.8-20.3-2.9c-7-3.7-24.4-35.6-20.5-70.4c0.2-2.1,0.5-4.2,0.9-6.3
				c7-37.1,24.4-47.5,50.8-44.6c5.2,0.6,10.7,1.5,15.8,3.3C448.5,221.7,457,228.9,455.6,243.9z"/>
			<path id="XMLID_89_" fill="#FCAA51" d="M438.9,312.5c-2.9,7.9-5.7,14.3-8.1,17.6c-8.2,11.7-32.4,9.8-39.9,5.9
				c-7-3.7-24.4-35.6-20.5-70.4c2.2,16.1,10.2,38.7,36.9,44.5C420.2,313,430.6,313.4,438.9,312.5z"/>
			<path id="XMLID_88_" fill="#FCAA51" d="M455.6,243.9c-1.6,18.7-9.4,48.7-16.7,68.6c-2.9,7.9-5.7,14.3-8.1,17.6
				c-4,5.7-11.8,8.2-19.6,8.7c7.9-14.2,26.1-52.9,27-106.9c0.1-4.8,0-9.5-0.2-14C448.5,221.7,457,228.9,455.6,243.9z"/>
		</g>
		<g id="XMLID_82_">
			<path id="XMLID_86_" fill="#FEC272" d="M430.1,343.3c-0.9,0.2-2.3,0.4-4,0.5c-1.3,0.1-2.7,0.3-4.3,0.4c-3,0.2-6.4,0.4-9.9,0.5
				c-1.4,0-2.9,0.1-4.3,0.1c-3,0.1-5.9,0-8.6,0c-0.4,0-0.8,0-1.1,0c-1.1,0-2.2-0.1-3.1-0.1c-0.4,0-0.8-0.1-1.1-0.1
				c-1.6-0.1-2.8-0.4-3.7-0.6c-6.1-1.9-9.8-7.9-5.1-15.2c4.7-7.3,14.9-13.1,28.4-13.1c13.5,0,24.8,7.9,25.4,16.4
				C439.3,340.5,436.4,342.1,430.1,343.3z"/>
			<path id="XMLID_85_" fill="#FFA245" d="M412,331.4v13.3c-1.4,0-2.9,0.1-4.3,0.1v-13.4c0-1.2,1-2.2,2.1-2.2S412,330.2,412,331.4z"
				/>
			<path id="XMLID_84_" fill="#FFA245" d="M399.2,331.6v13.2c-0.4,0-0.8,0-1.1,0c-1.1,0-2.2-0.1-3.1-0.1v-13c0-1.3,1-2.4,2.1-2.4
				C398.2,329.2,399.2,330.3,399.2,331.6z"/>
			<path id="XMLID_83_" fill="#FFA245" d="M426.2,331.4v12.4c-1.3,0.1-2.7,0.3-4.3,0.4v-12.8c0-1.2,1-2.2,2.1-2.2
				S426.2,330.2,426.2,331.4z"/>
		</g>
	</g>
</g>
<g id="EAR_1">
	<g id="XMLID_160_">
		<path id="XMLID_207_" fill="#FF8D76" d="M261.9,265.2c-8.2,17.2-2.3,59-8.2,71.9s-21.9,19.5-38.3,19.2c-1.8,0-3.5-0.3-5.2-0.7
			c-13.8-3.4-23.6-18.7-15.9-36.8c8.6-20.3,29-30.5,37.5-60.6c7.7-27,18.5-31.8,29.5-33c3.7-0.4,6,1.2,7.3,4.1
			C271.9,236.6,267.9,252.8,261.9,265.2z"/>
		<path id="XMLID_203_" fill="#FC7059" d="M261.9,265.2c-8.2,17.2-2.3,59-8.2,71.9s-21.9,19.5-38.3,19.2c-1.8,0-3.5-0.3-5.2-0.7
			c-2.2-5.1-3.1-12.7-0.2-23.7c7.3-27.6,21.4-32.8,24-52.2c2.7-19.4,3-31.4,10-41.9c6.3-9.4,21.3-8.8,24.6-8.5
			C271.9,236.6,267.9,252.8,261.9,265.2z"/>
	</g>
</g>
<g id="EAR_2">
	<g id="XMLID_75_">
		<path id="XMLID_77_" fill="#FF8D76" d="M393,321.9c-1.1,3.4-2.9,6.3-5.2,8.8c-9,9.8-25.4,13-35,11.4c-12-2-23.8-26.1-22.6-44
			c1.2-17.9-11.7-41.4-14.9-53.1c-2.4-8.7-2-15.3,0.6-19.3c0.9-1.4,2.1-2.5,3.5-3.3c3.3-1.7,15.5-7,28.2,12
			c12.6,19.1,11.7,29.3,25.8,43.4C387.5,292,398.3,305.2,393,321.9z"/>
		<path id="XMLID_76_" fill="#FC7059" d="M387.9,330.7c-9,9.8-25.4,13-35,11.4c-12-2-23.8-26.1-22.6-44
			c1.2-17.9-11.7-41.4-14.9-53.1c-2.4-8.7-2-15.3,0.6-19.3c7.6-1.1,19.6,0.1,25.2,15.8c8.6,23.9,7.4,36.2,20.7,47.9
			c13.3,11.7,24.3,24.4,26,41.1C387.9,330.6,387.9,330.6,387.9,330.7z"/>
	</g>
</g>
<g id="HEAD">
	<g id="XMLID_198_">
		<path id="XMLID_218_" fill="#FEC272" d="M371.2,338.4c-1.3,11-7.1,18.4-20.4,23.1c-19.9,7-38.4-2.3-45.7-3.5
			c-7.5-1.3-18.8,5.9-30.2,9.9c-11.4,4.1-32.8,5.6-44.2-5.7c-6-6-9.9-14.5-10.6-23.4c-0.7-7.8,1.1-16,5.9-23.2
			c10.2-15.2,15.6-30.1,17.2-59.4c1.6-29.3,24.4-41.1,46.3-43c6.9-0.6,26.1-1.6,40.7,11.3c14.7,12.9,13.5,39.3,18.5,52.2
			c5,12.9,18.5,20.8,21.7,42.8C371.5,326.8,371.9,333,371.2,338.4z"/>
		<path id="XMLID_15_" fill="#FCAA51" d="M314.1,321.2c-2.9,7.9-10,13.6-14.8,13.6c-4.8,0-14.1-4.6-18.6-8.8
			c-4.8-4.5-5.1-8.8-4-11.7c0-0.1,0.1-0.3,0.2-0.4c1.3-2.8,9.1-5.3,18.9-6.6c7.5-1,16-1.2,18,0.1c0.5,0.4,1,0.9,1.4,1.7
			C316.2,311.4,316.3,315.4,314.1,321.2z"/>
		<path id="XMLID_216_" fill="#FCAA51" d="M371.2,338.4c-1.3,11-7.1,18.4-20.4,23.1c-19.9,7-38.4-2.3-45.7-3.5
			c-7.5-1.3-18.8,5.9-30.2,9.9c-11.4,4.1-32.8,5.6-44.2-5.7c-6-6-9.9-14.5-10.6-23.4c4.7,7.7,14.5,20.8,27.4,23
			c18.4,3.1,29.3-13.3,54.8-13.3c32.8,0,35.2,12.5,55.7,1.8C363.7,347.2,368,342.9,371.2,338.4z"/>
		<path id="XMLID_288_" fill="#FC7059" d="M313.5,349.8c-0.2,2.2-0.5,4.7-1.2,7.2c-1.9,7-9.7,11.3-16.1,7c-4.1-2.7-6.1-8.9-7-13.1
			c-0.5-2.5-0.7-4.2-0.7-4.2l12.2-13l13,9C313.6,342.7,313.8,345.8,313.5,349.8z"/>
		<path id="XMLID_282_" fill="#F45145" d="M313.5,349.8c-6.3,0.6-12.1-3.5-12.1-3.5s-2.3,2.4-7.2,4.2c-1.6,0.6-3.4,0.7-5,0.5
			c-0.5-2.5-0.7-4.2-0.7-4.2l12.2-13l13,9C313.6,342.7,313.8,345.8,313.5,349.8z"/>
		<path id="XMLID_193_" fill="#1C3177" d="M262.1,337.9c-2.9,3.3,4,10.8,15.2,12.3c11.3,1.5,22-4.5,23.2-9.2s0.1-12.2,0.1-12.2h-3.8
			c0,0,1.2,10.7-8.5,15C273.3,350.4,264.1,335.5,262.1,337.9z"/>
		<path id="XMLID_195_" fill="#1C3177" d="M302.4,326.7c0,0,0.7,10.1,10,13.8c9.2,3.7,13.4,1.3,16.9-0.3c3.8-1.8,3.8-5.6,6.5-4.5
			c1.4,0.6,0.9,5.6-3.9,8.8c-5.7,3.8-11.3,4.3-19.1,2.4c-7.8-1.9-12-5.4-13-9.7c-1-4.3-1.6-9.2-1.6-9.2L302.4,326.7z"/>
		<path id="XMLID_223_" fill="#1C3177" d="M314.1,316.7c-2.9,7.9-10,13.6-14.8,13.6c-4.8,0-14.1-4.6-18.6-8.8
			c-4.8-4.5-5.1-8.8-4-11.7c0-0.1,0.1-0.3,0.2-0.4c1.3-2.8,9.1-5.3,18.9-6.6c7.5-1,16-1.2,18,0.1c0.5,0.4,1,0.9,1.4,1.7
			C316.2,307,316.3,310.9,314.1,316.7z"/>
		<path id="XMLID_221_" fill="#0B2359" d="M314.1,316.7c-2.9,7.9-10,13.6-14.8,13.6c-4.8,0-14.1-4.6-18.6-8.8
			c-4.8-4.5-5.1-8.8-4-11.7c0.5,0,1,0.2,1.5,0.8c2.4,2.6,4.5,8.2,13.2,13.1c8.8,4.9,12.8,1.3,16.7-3.8c3.9-5.1,4.6-13.9,6.5-15.1
			c0.2-0.1,0.3-0.2,0.5-0.2C316.2,307,316.3,310.9,314.1,316.7z"/>
	</g>
</g>
<g id="EYE_1">
	<ellipse id="XMLID_62_" fill="#1C3177" cx="262.4" cy="292.8" rx="7.3" ry="10.8"/>
</g>
<g id="EYE_2">
	
		<ellipse id="XMLID_200_" transform="matrix(0.9946 -0.1042 0.1042 0.9946 -28.1862 35.6075)" fill="#1C3177" cx="326.7" cy="287.6" rx="7.3" ry="10.8"/>
</g>
<g id="EYEBROW_1">
	<path id="XMLID_51_" fill="#FF8D76" d="M257.4,258.8c-4.1,3.5-6.4,7.5-7.5,10.5c-1.2,2.9,0.2,4,3.7,4.1c3.5,0.1,9.4-4.2,12.6-9.2
		C269.4,259.1,263.7,253.3,257.4,258.8z"/>
</g>
<g id="EYEBROW_2">
	<path id="XMLID_214_" fill="#FF8D76" d="M327.4,252.4c4.6,2.8,7.4,6.5,9.1,9.2s0.4,4-3,4.6c-3.5,0.6-9.9-2.7-13.9-7.1
		C315.6,254.7,320.3,248,327.4,252.4z"/>
</g>
<g id="CABLE_1">
	<g id="XMLID_39_">
		<g id="XMLID_47_">
			<path id="XMLID_48_" fill="#1C3177" d="M72.9,471.3c-4.6-0.1-7.6-0.3-8.1-0.3c-2.6-0.2-4.5-2.4-4.4-5c0.2-2.6,2.3-4.6,5-4.4
				c0.5,0,35.3,3.6,64-8.2c10.6-4.3,16.5-8.2,17.6-11.3c0.8-2.3-1-5.7-4-11.1c-1-1.8-2.1-3.7-3.2-5.8c-2.4-4.7-2.6-9.9-0.6-14.9
				c6.5-16,34-26.6,42.3-29.4c46.1-15.8,80.8-9.7,82.2-9.4c2.5,0.5,4.2,2.9,3.8,5.5c-0.5,2.6-2.9,4.2-5.5,3.8
				c-0.3-0.1-33.9-5.9-77.5,9.1c-19,6.5-33.4,16-36.7,24c-1,2.5-0.9,4.8,0.3,7.1c1,1.9,2,3.8,3,5.5c3.6,6.3,6.9,12.3,4.7,18.8
				c-2.1,6.2-9,11.2-22.9,16.9C109.4,471.8,88.5,471.7,72.9,471.3z"/>
		</g>
		<g id="XMLID_40_">
			<g id="XMLID_43_">
				<path id="XMLID_46_" fill="#F0F6FF" d="M254.1,383.6c1.7,4,5.8,6.5,12.6,7.7c10.3,1.8,16.9-0.8,16.9-0.8l-0.2-3.8l-1.4-22.2
					c0,0-8.8-1.2-18,1.8c-8.1,2.7-11.6,7.1-10.9,13.8C253.3,381.3,253.6,382.5,254.1,383.6z"/>
				
					<ellipse id="XMLID_45_" transform="matrix(-0.998 6.330085e-002 -6.330085e-002 -0.998 588.7142 736.2111)" fill="#C2D7EF" cx="282.7" cy="377.4" rx="3.7" ry="13.2"/>
				<path id="XMLID_44_" fill="#C2D7EF" d="M254.1,383.6c1.7,4,5.8,6.5,12.6,7.7c10.3,1.8,16.9-0.8,16.9-0.8l-0.2-3.8
					c-4-0.2-9.1-0.5-14-1C262.4,384.8,257.2,384.1,254.1,383.6z"/>
			</g>
			<path id="XMLID_42_" fill="#87AACC" d="M293.7,373.7l-9.1,0.9c-1.2,0.1-2.3-0.8-2.4-2l-0.1-0.6c-0.1-1.2,0.8-2.3,2-2.4l9.1-0.9
				c1.4-0.1,2.6,0.9,2.7,2.2l0,0C296.1,372.4,295.1,373.6,293.7,373.7z"/>
			<path id="XMLID_41_" fill="#87AACC" d="M294.6,384.9l-9.1,0.9c-1.2,0.1-2.3-0.8-2.4-2l-0.1-0.6c-0.1-1.2,0.8-2.3,2-2.4l9.1-0.9
				c1.4-0.1,2.6,0.9,2.7,2.2l0,0C297,383.6,296,384.8,294.6,384.9z"/>
		</g>
	</g>
</g>
<g id="CABLE_2">
	<g id="XMLID_2_">
		<g id="XMLID_117_">
			<path id="XMLID_254_" fill="#1C3177" d="M536.9,469.2c-6.8-0.2-66.6-2.4-83.9-23.8c-11.7-14.5-4.8-24.3,1.2-33
				c1.4-2,2.8-4.1,4.1-6.2c2.1-3.6,2.2-7.5,0.2-11.2c-2.1-3.9-9.9-13.1-36.5-14.2c-38.1-1.7-87.5,0.4-88,0.5
				c-2.6,0.1-4.8-1.9-4.9-4.5c-0.1-2.6,1.9-4.8,4.5-4.9c0.5,0,50.4-2.2,88.9-0.5c30.2,1.4,40.7,12.6,44.3,19.2
				c3.6,6.6,3.4,14-0.3,20.4c-1.4,2.5-3,4.7-4.5,6.8c-5.9,8.5-8.9,12.8-1.6,21.8c12.7,15.7,60.2,20,77.4,20.3c0,0,0,0,0,0
				c2.6,0.1,4.6,2.2,4.6,4.8c-0.1,2.6-2.2,4.6-4.8,4.6C537.3,469.2,537.1,469.2,536.9,469.2z"/>
		</g>
		<g id="XMLID_178_">
			<path id="XMLID_191_" fill="#F0F6FF" d="M340.1,379.8c-1.4,4.1-5.2,7-11.9,8.7c-10.1,2.6-16.9,0.5-16.9,0.5l-0.1-3.8l-0.4-22.2
				c0,0,8.7-2,18,0.3c8.3,2,12.1,6.1,12,12.9C340.7,377.5,340.5,378.7,340.1,379.8z"/>
			<path id="XMLID_189_" fill="#C2D7EF" d="M340.1,379.8c-1.4,4.1-5.2,7-11.9,8.7c-10.1,2.6-16.9,0.5-16.9,0.5l-0.1-3.8
				c4-0.5,9-1.2,13.9-2.2C332,381.7,337,380.6,340.1,379.8z"/>
			
				<ellipse id="XMLID_162_" transform="matrix(0.9998 -1.843259e-002 1.843259e-002 0.9998 -6.8779 5.7985)" fill="#C2D7EF" cx="311.1" cy="376" rx="3.7" ry="13.2"/>
			
				<ellipse id="XMLID_180_" transform="matrix(0.9998 -1.843267e-002 1.843267e-002 0.9998 -6.781 5.7947)" fill="#87AACC" cx="311" cy="370.7" rx="0.9" ry="4.4"/>
			
				<ellipse id="XMLID_182_" transform="matrix(0.9998 -1.843267e-002 1.843267e-002 0.9998 -6.9899 5.7983)" fill="#87AACC" cx="311" cy="382.1" rx="0.9" ry="4.4"/>
		</g>
	</g>
</g>
<g id="RIGHT_ARM">
	<g id="XMLID_23_">
		<path id="XMLID_28_" fill="#FCAA51" d="M247.6,378.5c0,0.8,0,1.6-0.1,2.3c-0.5,5.1-3,8.8-8.4,11.3c-1.5,0.7-3.3,1.3-5.4,1.7
			c-3.6,0.9-8.1,1.4-13.5,1.7c-1.2,0.1-2.5,0.1-3.9,0.1c-1,0-1.9,0-2.9,0c-3.4,0-6.6-0.1-9.6-0.3c-2-0.2-4-0.5-5.7-0.8
			c-7.4-1.6-12.2-5.1-13.1-12l0,0c0.6,5.1-10.2-28.1,31.1-32C235.2,348.6,247.6,367.1,247.6,378.5z"/>
		<path id="XMLID_27_" fill="#FEC272" d="M247.6,378.5c0,0.8,0,1.6-0.1,2.3c-4,5.4-13.4,8-31.4,8.3c-14.3,0.3-25.8-0.7-31.1-6.7l0,0
			c0.6,5.1-10.2-28.1,31.1-32C235.2,348.6,247.6,367.1,247.6,378.5z"/>
		<path id="XMLID_26_" fill="#FFA245" d="M203.8,395.3c-2-0.2-4-0.5-5.7-0.8c-0.3-2.7-0.9-9.2-0.4-14.6c0.7-7.1,3.4-7.5,4.2-6.2
			c0.8,1.3,0.3,8.9,1.2,15.9C203.3,391.6,203.6,393.6,203.8,395.3z"/>
		<path id="XMLID_25_" fill="#FFA245" d="M239.1,392.1c-1.5,0.7-3.3,1.3-5.4,1.7c-0.2-1.9-0.4-4.2-0.7-6.6c-0.8-7-3.1-14.3-2.7-15.7
			c0.4-1.4,3.2-1.7,5.5,5.1C238.1,382.9,239,391,239.1,392.1z"/>
		<path id="XMLID_24_" fill="#FFA245" d="M220.2,395.5c-1.2,0.1-2.5,0.1-3.9,0.1c-1,0-1.9,0-2.9,0c0-2.7-0.1-6.3-0.3-9.6
			c-0.3-6.5-0.5-10.7,1.5-11.1c2-0.4,4.1,6.8,5,14.4C219.9,391.9,220.1,393.9,220.2,395.5z"/>
	</g>
</g>
<g id="LEFT_ARM">
	<g id="XMLID_163_">
		<path id="XMLID_176_" fill="#FCAA51" d="M346.5,373.3c0,0.8,0.1,1.6,0.2,2.3c0.6,5.1,3.1,8.8,8.5,11.1c1.6,0.7,3.4,1.2,5.4,1.7
			c3.6,0.8,8.1,1.3,13.5,1.5c1.2,0,2.5,0.1,3.9,0.1c1,0,1.9,0,2.9,0c3.4,0,6.6-0.1,9.6-0.5c2-0.2,3.9-0.5,5.7-0.9
			c7.3-1.7,12.1-5.2,12.9-12.2l0,0c1.3-11.8-12.4-30-31.5-31.6C358.5,343.2,346.3,361.8,346.5,373.3z"/>
		<path id="XMLID_171_" fill="#FEC272" d="M346.5,373.3c0,0.8,0.1,1.6,0.2,2.3c4.1,5.4,13.5,7.8,31.5,7.9c14.3,0.1,25.8-1.1,31-7.1
			l0,0c1.3-11.8-12.4-30-31.5-31.6C358.5,343.2,346.3,361.8,346.5,373.3z"/>
		<path id="XMLID_170_" fill="#FFA245" d="M390.5,389.5c2-0.2,3.9-0.5,5.7-0.9c0.3-2.7,0.8-9.2,0.2-14.6c-0.8-7.1-3.5-7.5-4.3-6.2
			c-0.7,1.3-0.1,8.9-0.9,15.9C391,385.8,390.7,387.7,390.5,389.5z"/>
		<path id="XMLID_165_" fill="#FFA245" d="M355.2,386.7c1.6,0.7,3.4,1.2,5.4,1.7c0.1-1.9,0.3-4.2,0.6-6.6c0.7-7,2.9-14.3,2.4-15.7
			c-0.4-1.4-3.2-1.7-5.5,5.1C356.1,377.5,355.3,385.6,355.2,386.7z"/>
		<path id="XMLID_164_" fill="#FFA245" d="M374.1,389.8c1.2,0,2.5,0.1,3.9,0.1c1,0,1.9,0,2.9,0c0-2.7,0-6.3,0.1-9.6
			c0.2-6.5,0.3-10.7-1.6-11.1c-2-0.4-4,6.9-4.8,14.5C374.3,386.3,374.2,388.3,374.1,389.8z"/>
	</g>
</g>
</svg>
