<?xml version="1.0" encoding="utf-8"?>
<!-- Generator: Adobe Illustrator 19.0.0, SVG Export Plug-In . SVG Version: 6.00 Build 0)  -->
<svg version="1.1" xmlns="http://www.w3.org/2000/svg" xmlns:xlink="http://www.w3.org/1999/xlink" x="0px" y="0px"
	 viewBox="0 0 600 600" enable-background="new 0 0 600 600" xml:space="preserve">
<g id="FLOOR_1">
	<path id="XMLID_65_" fill="#99ADF9" d="M179.5,434.8c-61.5,1-89.7-0.1-67.4-2.5c22.4-2.4-0.1-2.7-34.8-2.4
		c-34.7,0.3-50-2.7,1.3-5.8s239.4-6.3,217.8-2.3c-21.6,4-37.5,4.9-24.4,6.4S264.1,433.4,179.5,434.8z"/>
</g>
<g id="FLOOR_2">
	<path id="XMLID_327_" fill="#99ADF9" d="M435.6,415.1c-63.8,0.6-93,2.5-69.8,4.4c23.3,1.9,12.8,2.6-23.3,3.2s-64.5,4.4-11.3,6.4
		c53.3,1.9,248.3,0.2,225.8-3.5c-22.5-3.7-39-4.2-25.5-6.2C545.2,417.5,523.4,414.3,435.6,415.1z"/>
</g>
<g id="LAPTOP">
	<g id="XMLID_32_">
		<g id="XMLID_325_">
			<path id="XMLID_62_" fill="#E1ECFF" d="M283.1,422.2H96.3c-1.6,0-3-1.3-3-3v-7.6c0-1.6,1.3-3,3-3h186.9c1.6,0,3,1.3,3,3v7.6
				C286.1,420.9,284.8,422.2,283.1,422.2z"/>
			<path id="XMLID_72_" fill="#CDE0FC" d="M286.9,422.2H170.4c-1.6,0-3-1.3-3-3v-7.6c0-1.6,1.3-3,3-3h116.5c1.6,0,3,1.3,3,3v7.6
				C289.9,420.9,288.6,422.2,286.9,422.2z"/>
			<path id="XMLID_75_" fill="#CDE0FC" d="M235.3,408.8h-136c-2.2,0-4.2-1.4-5-3.5l-31-85.7c-1.3-3.5,1.3-7.1,5-7.1h136
				c2.2,0,4.2,1.4,5,3.5l31,85.7C241.5,405.1,239,408.8,235.3,408.8z"/>
			<path id="XMLID_76_" fill="#FF8D76" d="M227,403.9H102.7c-2.2,0-4.2-1.4-5-3.5l-27.4-75.9c-1.3-3.5,1.3-7.1,5-7.1h124.4
				c2.2,0,4.2,1.4,5,3.5l27.4,75.9C233.3,400.2,230.7,403.9,227,403.9z"/>
			<g id="XMLID_324_">
				<path id="XMLID_77_" fill="#CDE0FC" d="M114.9,417.4h-13c-0.5,0-0.9-0.4-0.9-0.9v-2.2c0-0.5,0.4-0.9,0.9-0.9h13
					c0.5,0,0.9,0.4,0.9,0.9v2.2C115.8,417,115.4,417.4,114.9,417.4z"/>
				<path id="XMLID_79_" fill="#CDE0FC" d="M133,417.4h-13c-0.5,0-0.9-0.4-0.9-0.9v-2.2c0-0.5,0.4-0.9,0.9-0.9h13
					c0.5,0,0.9,0.4,0.9,0.9v2.2C134,417,133.5,417.4,133,417.4z"/>
			</g>
		</g>
	</g>
</g>
<g id="ERROR_SIGN">
	<g id="XMLID_326_">
		<path id="XMLID_80_" fill="#FEC272" d="M125.2,396.2h71.5c3.6,0,5.6-4.2,3.4-7l-46.8-59.5c-2-2.6-6.1-2-7.4,1l-24.7,59.5
			C120,393,122.1,396.2,125.2,396.2z"/>
		<g id="XMLID_61_">
			<path id="XMLID_78_" fill="#FFFFFF" d="M146.3,346.2l8.5,25.8c0.4,1.3,1.7,2.2,3.1,2.2h1.3c1.7,0,2.9-1.3,2.8-3l-2.3-25.6
				c-0.1-1.6-1.5-2.9-3.1-2.9l-7.5-0.2C147,342.4,145.6,344.3,146.3,346.2z"/>
			<path id="XMLID_81_" fill="#FFFFFF" d="M165.1,382.3c0.2,2.6-1.8,4.7-4.4,4.7s-4.9-2.1-5.1-4.7s1.8-4.7,4.4-4.7
				S164.9,379.7,165.1,382.3z"/>
		</g>
	</g>
</g>
<g id="ORNAMENT_1">
	<path id="XMLID_73_" fill="#1C3177" d="M43.7,299.5l12.3,9.7c0,0,3.3-4.6,10.4-7c7.1-2.4,16.7-0.6,16.7-0.6l5-28.2
		c0,0-6,18.8-14.8,20.1c-8.8,1.3-16-10.5-16-10.5s5.2,12.9,0.2,16.8C52.3,303.8,43.7,299.5,43.7,299.5z"/>
</g>
<g id="ORNAMENT_2">
	<polygon id="XMLID_71_" fill="#E1EAF6" points="244.6,381.8 254.4,396.7 279.9,367.1 254.4,405.9 	"/>
</g>
<g id="ORNAMENT_3">
	<polygon id="XMLID_74_" fill="#E1EAF6" points="259.2,287.8 281.6,247.8 264.6,288.9 	"/>
</g>
<g id="RIGHT_ARM_1">
	<g id="XMLID_31_">
		<path id="XMLID_342_" fill="#F774B9" d="M372.8,306.1c-1.5,1.9-3.5,4.1-5.6,6.5c-11,12-28.6,28.5-37.7,33.4
			c-10.9,5.8-20.5,7.2-25,0.8v0c-4.5-6.4-4.8-11.4,2.1-19.1c6.9-7.7,32.8-42,46.5-53.2c9.7-7.9,21.8-4.3,26.3,3.5
			C384,285.6,382.1,294.6,372.8,306.1z"/>
		<path id="XMLID_334_" fill="#F261B4" d="M367.2,312.5c-11,12-28.6,28.5-37.7,33.4c-10.9,5.8-20.5,7.2-25,0.8v0
			c16.9-1.4,48.9-37.6,48.9-37.6L367.2,312.5z"/>
	</g>
</g>
<g id="RIGHT_ARM_2">
	<g id="XMLID_24_">
		<path id="XMLID_341_" fill="#F774B9" d="M326.5,342.1c-9.3,17.8-25.7,6.7-38.5-5.8s-27.1-32.4-29.2-38.3c-0.7-1.9-0.9-3.9-0.7-5.9
			c0.3-4.1,2.4-7.7,5.3-7.7c4.3,0,38,22.6,49.2,31.9c8.3,6.9,14.5,12.8,15.3,19C328.1,337.6,327.7,339.8,326.5,342.1z"/>
		<path id="XMLID_338_" fill="#F261B4" d="M326.5,342.1c-9.3,17.8-25.7,6.7-38.5-5.8s-27.1-32.4-29.2-38.3c-0.7-1.9-0.9-3.9-0.7-5.9
			c2.3,0.3,4.7,1.6,7.1,4.2c0,0,28.7,37.6,43.2,45c5.1,2.6,12.3-0.6,19.4-6C328.1,337.6,327.7,339.8,326.5,342.1z"/>
	</g>
</g>
<g id="RIGHT_ARM_3">
	<g id="XMLID_33_">
		<path id="XMLID_35_" fill="#F774B9" d="M266.8,297.5c-1,4.9-3.2,16.7-7.4,18.6c-4.3,1.9-11.9-0.2-13.8-5.1c-1.9-5,3-11.5,7.8-17.7
			s7.8-8.9,10.5-8.7S267.8,292.2,266.8,297.5z"/>
		<path id="XMLID_142_" fill="#FF97C9" d="M246.1,308.2c0,0.5-0.5-2.5,0,0.5c0.5,3,5.3,2.7,6,1.4c2.3-4.1,10.9-22,9.3-23.4
			C259.8,285.3,246.4,299.8,246.1,308.2z"/>
	</g>
</g>
<g id="TAIL">
	<path id="XMLID_27_" fill="#F774B9" d="M472,385c0,0,24.6-2.1,36.3-21.6c11.7-19.5-7.1-65.2-8.2-83.3
		c-1.1-18.1,13.8-32.3,29.4-18.1c15.6,14.2,15.2,61,9.6,82.9c-5.7,22-22.6,38.8-45.1,46.7c-15.9,5.6-25,2.1-25,2.1L472,385z"/>
</g>
<g id="RIGHT_LEG_1">
	<g id="XMLID_11_">
		<path id="XMLID_58_" fill="#F774B9" d="M401.2,394.8c-5.4,17.5-19.7,26.6-34.9,28.2c-15.2,1.6-42.2,2.8-44.8,1.1
			c-1.2-0.8-1.8-2.5-1.6-4.4c0.2-2.3,1.5-5,4-7.1c4.6-3.9,21.1-3.9,21.1-3.9s-3-0.4-7.3-3.7c-4.3-3.4-14.4-10.1-6.4-34.9
			c8-24.8,31.5-30.5,54.9-22.3c5.4,1.9,9.4,6.2,12.1,11.6C403.7,369.7,404.4,384.5,401.2,394.8z"/>
		<g id="XMLID_34_">
			<path id="XMLID_37_" fill="#F774B9" d="M360,408.4c0,0.9-0.8,1.5-1.6,1.5c-0.2,0-23.3-0.4-30.4,1.6c-5.9,1.7-6.2,5.4-6.3,7.7
				l0,0.5c-0.2,2,0.9,2.2,1.1,2.2c0.9,0.1,1.5,0.9,1.4,1.8c-0.1,0.8-0.8,1.4-1.6,1.4c-0.1,0-0.1,0-0.2,0c-1.8-0.2-4.3-1.9-3.9-5.7
				l0-0.5c0.2-2.5,0.6-8.2,8.6-10.5c2.9-0.8,8.2-1.3,13.5-1.5c-2.6-0.8-4.9-1.7-6.5-2.8c-8.4-5.9-9.9-15.4-5.1-32.7
				c3.6-12.9,10.9-20,18.3-24c0.8-0.4,1.8-0.1,2.1,0.8l0,0c0.3,0.7,0,1.5-0.7,1.9c-6.7,3.6-13.4,10.2-16.7,22.1
				c-5.1,18.5-2.1,25,3.9,29.3c5.6,3.9,22.4,5.2,22.6,5.2C359.3,406.8,360,407.5,360,408.4z"/>
		</g>
		<path id="XMLID_23_" fill="#F774B9" d="M401.2,394.8c-5.4,17.5-19.7,26.6-34.9,28.2c-15.2,1.6-42.2,2.8-44.8,1.1
			c-1.2-0.8-1.8-2.5-1.6-4.4c5.6,0.6,26.3,1.9,51.7-10.5c24.1-11.7,26.7-39.5,26.8-49.9C403.7,369.7,404.4,384.5,401.2,394.8z"/>
		<path id="XMLID_20_" fill="#F774B9" d="M331.2,378.5c0,0,7.8,12.1,19,19c11.2,6.9,17.4,8.3,17.4,8.3s-10.1,2.3-19.8,2.1
			c-9.7-0.2-17-5.7-19.5-14.5C325.7,384.5,331.2,378.5,331.2,378.5z"/>
	</g>
</g>
<g id="BODY">
	<g id="XMLID_124_">
		<path id="XMLID_84_" fill="#FF97C9" d="M403.9,420.1c-1.5,0-2.9,0-4.3,0c-3.5,0-7-0.1-10.3-0.3c-5.5-0.3-10.6-0.9-15.4-1.7
			c-29.3-5.2-45.1-20.8-43.9-54.3c1-27.2,9.3-59.8,15.4-80.4c0.6-2,1.1-3.8,1.7-5.5c2-6.6,3.7-11.4,4.4-13.7
			c0.3-0.9,0.5-1.4,0.5-1.4l84.2-14.7l0.8-0.2c0,0,3,6.9,7.4,17.8c0.8,1.9,1.6,3.9,2.4,6c0,0,0,0,0,0c0.9,2.3,1.9,4.7,2.9,7.3
			c7.1,17.8,15.9,40.8,23,61.9c2.1,6.2,4,12.2,5.7,17.8c1.6,5.3,3,10.4,4.1,15C489.9,403.6,452.3,419.6,403.9,420.1z"/>
		<path id="XMLID_148_" fill="#F774B9" d="M437.8,409.2h-18.4c-5.8,0-15.4,0.3-18.3,5.8c-0.9,1.6-1.3,3.4-1.4,5.1
			c-3.5,0-7-0.1-10.3-0.3l-0.8-4.2c0,0,0,0,4-5.1c3.9-4.9,16.6-31.1,17.3-32.4c-0.3,0.9-5,14.1,2.9,22.5
			C420.5,409,436.1,409.2,437.8,409.2z"/>
		<path id="XMLID_351_" fill="#FFBDE0" d="M378.9,415.3c-0.1,0.1-0.2,0.1-0.3,0.2c-1.4,0.9-3,1.8-4.7,2.6
			c-29.4-5.2-45.1-20.8-43.9-54.3c0.8-21.2,6-45.6,11.1-65.1c1.5-5.6,2.9-10.7,4.3-15.3c3.7-3.6,9-6.8,16.2-6.8
			c16.7,0,26.2,4.6,33,57.1C401.2,385.7,392.6,406,378.9,415.3z"/>
		<path id="XMLID_349_" opacity="0.5" fill="#F9BC93" d="M378.9,415.3c-0.1,0.1-0.2,0.1-0.3,0.2c-1.4,0.9-3,1.8-4.7,2.6
			c-29.4-5.2-45.1-20.8-43.9-54.3c0.8-21.2,6-45.6,11.1-65.1c-1,14.4-2,51.7,12.3,82.1C362,399.1,371.4,409.5,378.9,415.3z"/>
		<g id="XMLID_172_">
			<g id="XMLID_170_">
				<path id="XMLID_353_" fill="#738DE0" d="M444.5,265.7c-6.2,4.3-18.7,11.6-35.4,15.9c-6.4,1.6-13.4,2.8-20.9,3.2
					c-24.3,1.3-36-3.6-41.1-7.1c2-6.6,3.7-11.4,4.4-13.7c4.9,1.6,17.4,4.5,38.2,2.3c3.7-0.4,7.4-1.1,11-2
					c15-3.8,28.2-11.6,35.5-16.5l0.8-0.1C437.1,247.8,440,254.8,444.5,265.7z"/>
				<path id="XMLID_350_" fill="#5A7FDB" d="M409.1,281.6c-6.4,1.6-13.4,2.8-20.9,3.2c-24.3,1.3-36-3.6-41.1-7.1
					c2-6.6,3.7-11.4,4.4-13.7c4.9,1.6,17.4,4.5,38.2,2.3c3.7-0.4,7.4-1.1,11-2L409.1,281.6z"/>
			</g>
			<g id="XMLID_29_">
				<path id="XMLID_139_" fill="#FCBD92" d="M371,289.4c0,0.6,0,1.2-0.1,1.8c-0.8,6.2-5.7,11-11.7,11c-6.5,0-11.8-5.8-11.8-12.9
					c0-3.3,1.1-6.3,3.1-8.6c2.2-2.6,5.3-4.2,8.7-4.2C365.7,276.6,371,282.3,371,289.4z"/>
				<path id="XMLID_137_" fill="#FFD3B3" d="M371,289.4c0,0.6,0,1.2-0.1,1.8c-2.1,2.6-5.3,4.2-8.7,4.2c-6.5,0-11.8-5.8-11.8-12.8
					c0-0.6,0-1.2,0.1-1.8c2.2-2.6,5.3-4.2,8.7-4.2C365.7,276.6,371,282.3,371,289.4z"/>
				<ellipse id="XMLID_167_" fill="#1C3177" cx="358.4" cy="288.6" rx="7.5" ry="3.6"/>
				<g id="XMLID_168_">
					<path id="XMLID_169_" fill="#1C3177" d="M356.6,300.7C356.6,300.7,356.6,300.7,356.6,300.7l0-9.5c0-0.8,0.7-1.5,1.6-1.5
						c0.9,0,1.6,0.7,1.6,1.5c0,0,0,0,0,0l0,9.5c0,0.8-0.7,1.5-1.6,1.5C357.3,302.2,356.6,301.5,356.6,300.7z"/>
				</g>
			</g>
		</g>
		<path id="XMLID_82_" fill="#F774B9" d="M472.8,340.9c-2.6,2.5-6.1,4.6-10.6,4c-11.9-1.6-10.6-6.7-12.9-18.6
			c-2.3-11.9-19-10.5-17.6-33.9c0.9-15.6,9.6-19.7,15.3-20.6c0,0,0,0,0,0c0.9,2.3,1.9,4.7,2.9,7.3
			C456.9,296.8,465.7,319.8,472.8,340.9z"/>
	</g>
</g>
<g id="LEFT_LEG_1">
	<g id="XMLID_174_">
		<path id="XMLID_337_" fill="#FF97C9" d="M481.2,394.8c-5.4,17.5-19.7,26.6-34.9,28.2c-15.2,1.6-42.2,2.8-44.8,1.1
			c-1.2-0.8-1.8-2.5-1.6-4.4c0.2-2.3,1.5-5,4-7.1c4.6-3.9,21.1-3.9,21.1-3.9s-3-0.4-7.3-3.7c-4.3-3.4-14.4-10.1-6.4-34.9
			c8-24.8,31.5-30.5,54.9-22.3c5.4,1.9,9.4,6.2,12.1,11.6C483.7,369.7,484.4,384.5,481.2,394.8z"/>
		<g id="XMLID_125_">
			<path id="XMLID_182_" fill="#F774B9" d="M440,408.4c0,0.9-0.8,1.5-1.6,1.5c-0.2,0-23.3-0.4-30.4,1.6c-5.9,1.7-6.2,5.4-6.3,7.7
				l0,0.5c-0.2,2,0.9,2.2,1.1,2.2c0.9,0.1,1.5,0.9,1.4,1.8c-0.1,0.8-0.8,1.4-1.6,1.4c-0.1,0-0.1,0-0.2,0c-1.8-0.2-4.3-1.9-3.9-5.7
				l0-0.5c0.2-2.5,0.6-8.2,8.6-10.5c2.9-0.8,8.2-1.3,13.5-1.5c-2.6-0.8-4.9-1.7-6.5-2.8c-8.4-5.9-9.9-15.4-5.1-32.7
				c3.6-12.9,10.9-20,18.3-24c0.8-0.4,1.8-0.1,2.1,0.8l0,0c0.3,0.7,0,1.5-0.7,1.9c-6.7,3.6-13.4,10.2-16.7,22.1
				c-5.1,18.5-2.1,25,3.9,29.3c5.6,3.9,22.4,5.2,22.6,5.2C439.3,406.8,440,407.5,440,408.4z"/>
		</g>
		<path id="XMLID_335_" fill="#FF8AC7" d="M481.2,394.8c-5.4,17.5-19.7,26.6-34.9,28.2c-15.2,1.6-42.2,2.8-44.8,1.1
			c-1.2-0.8-1.8-2.5-1.6-4.4c5.6,0.6,26.3,1.9,51.7-10.5c24.1-11.7,26.7-39.5,26.8-49.9C483.7,369.7,484.4,384.5,481.2,394.8z"/>
		<path id="XMLID_328_" fill="#FF8AC7" d="M411.2,378.5c0,0,7.8,12.1,19,19c11.2,6.9,17.4,8.3,17.4,8.3s-10.1,2.3-19.8,2.1
			c-9.7-0.2-17-5.7-19.5-14.5C405.7,384.5,411.2,378.5,411.2,378.5z"/>
	</g>
</g>
<g id="LEFT_ARM_1">
	<g id="XMLID_173_">
		<path id="XMLID_339_" fill="#FF97C9" d="M390.1,415.6c0,0-1.6,2.1-0.3,5.3c1.3,3.2,1.1,6.6-2.1,8.2c-1.6,0.8-7.2,0.9-12.9,0.8
			c-0.6,0-1.3,0-1.9-0.1c-3.4-0.1-6.6-0.3-9-0.5c-0.9-0.1-1.7-0.1-2.3-0.2c-0.1,0-0.1,0-0.2,0c-4.1-0.4-7.6-3.1-7.6-6.9
			c0-0.9,0.2-1.9,0.7-2.9c2.4-5.3,12.5-9.6,12.5-9.6s8.8-13.8,14.9-41.2c6.1-27.4,5.8-39.6,6.9-52.9c0.7-8,0.8-22.6,16.5-24.2
			c9.1-0.9,14.7,1.8,17.8,6.6c2.3,3.5,3.4,8.1,3.7,13.3c0.8,12.5-1.3,23.7-10.1,50.5C407.9,388.7,390.1,415.6,390.1,415.6z"/>
		<path id="XMLID_336_" fill="#FF8AC7" d="M390.1,415.6c0,0-1.6,2.1-0.3,5.3c1.3,3.2,1.1,6.6-2.1,8.2c-1.6,0.8-7.2,0.9-12.9,0.8
			c-0.6,0-1.3,0-1.9-0.1c-3.4-0.1-6.6-0.3-9-0.5c-0.9-0.1-1.7-0.1-2.3-0.2c-0.1,0-0.1,0-0.2,0c-4.1-0.4-7.6-3.1-7.6-6.9
			c1.9-0.2,4-0.2,6,0c5.1,0.5,21.3,2.7,22.9-0.8c1.6-3.5-0.8-7.7-0.8-7.7s11.7-20.7,22.6-47.3c10.3-25.2,17.9-64.2,18.6-68.3
			c2.3,3.5,3.4,8.1,3.7,13.3c0.8,12.5-1.3,23.7-10.1,50.5C407.9,388.7,390.1,415.6,390.1,415.6z"/>
		<g id="XMLID_133_">
			<path id="XMLID_138_" fill="#F774B9" d="M384.8,431.3c-5,0-23.1-0.5-26.1-1.1c-2-0.4-3.8-1.8-5-3.7c-1.3-2-1.6-4.4-1-6.8
				c1.2-4.6,11.1-9.6,13.1-10.6c0.8-0.4,1.7-0.1,2.1,0.7s0.1,1.7-0.7,2.1c-4.4,2.1-10.8,6.2-11.4,8.5c-0.4,1.5-0.1,3,0.7,4.3
				c0.7,1.2,1.8,2,2.9,2.3c2.9,0.6,24.6,1.2,26.4,1c1-0.1,2.9-0.9,3.2-3.5c0.3-2.3-1.2-5.8-1.8-6.9c-0.3-0.5-0.2-1.2,0.1-1.7
				c0-0.1,4.3-5.9,11.1-17.2c7.2-11.9,16.1-34.9,23.2-60.2c7.2-25.3,1-38.6,0.9-38.7c-0.4-0.8-0.1-1.7,0.7-2.1
				c0.8-0.4,1.7-0.1,2.1,0.7c0.3,0.6,6.8,14.4-0.7,41c-7.2,25.5-16.2,48.9-23.6,61c-5.5,9-9.3,14.6-10.7,16.6c0.7,1.6,2.1,5,1.7,7.9
				c-0.5,4.1-3.5,6.1-6.1,6.3C385.8,431.3,385.4,431.3,384.8,431.3z"/>
		</g>
		<g id="XMLID_26_">
			<g id="XMLID_25_">
				<path id="XMLID_136_" fill="#F774B9" d="M367.7,415.3c0,0-3.6,2.2-4.5,6c-0.7,3.4,0.4,7.2,0.7,8.1c-0.9-0.1-1.7-0.1-2.3-0.2
					c-0.5-1.7-1.2-5.1-0.5-8.4c1-4.6,5.3-7.2,5.5-7.3c0.5-0.3,1.2-0.1,1.5,0.4C368.3,414.3,368.2,415,367.7,415.3z"/>
			</g>
			<g id="XMLID_28_">
				<path id="XMLID_140_" fill="#F774B9" d="M378,415.8c-0.1,0.1-2.8,2-3.4,6.4c-0.6,4.6,0.3,6.7,0.3,6.7c0.1,0.3,0.1,0.7-0.1,1
					c-0.6,0-1.3,0-1.9-0.1c-0.1-0.3-1.2-2.7-0.5-7.9c0.7-5.5,4.2-7.8,4.3-7.9c0.5-0.3,1.1-0.2,1.5,0.3
					C378.6,414.8,378.4,415.5,378,415.8z"/>
			</g>
		</g>
	</g>
</g>
<g id="HEAD">
	<g id="XMLID_171_">
		<path id="XMLID_346_" fill="#FF97C9" d="M437.1,247.8c0,0-2.3,2.1-6.6,5.2c-4.3,3.1-23.7,14.2-49.4,15
			c-21.5,0.7-52.7,0.5-62.7-21.2c-2-4.3-3.1-9.5-3.2-15.6c-0.5-37.2,44.1-51.4,62.2-51.9c19.4-0.5,39.7,1.7,47.8,15
			c4,6.6,7.5,22,9.3,32.9C436.3,238.3,437.1,247.8,437.1,247.8z"/>
		<path id="XMLID_69_" fill="#FF97C9" d="M376.8,181.8c-2.6,3-6,4.8-9.4,5.9c-9.1,2.9-18.9,0.8-18.9,0.8s-1-11.6-0.9-17.8
			c0.1-2.5,0.3-4.3,0.8-5.6c0.8-2,2-2.8,3.9-3C355.5,161.8,376.8,181.8,376.8,181.8z"/>
		<path id="XMLID_66_" fill="#FFBDE0" d="M365.3,185.5c-8.1-1.1-14,0.9-14,0.9s-1.8-9.5-1.7-14.4c0-2,0.3-3.4,0.7-4.5
			c1.4,1.1,4.1,3.5,7.7,7.8C361.5,179.7,364,183.5,365.3,185.5z"/>
		<path id="XMLID_70_" fill="#FF97C9" d="M428.7,203.4l-10.7-4.2l-24.2-9.5c0,0,2.8-19.6,7.3-26c0-0.1,0.1-0.1,0.1-0.2
			c4.6-6.2,8.9-5.7,10.8-2.7c1.9,3,9.7,20.4,12.9,29.9C428.2,200.4,428.7,203.4,428.7,203.4z"/>
		<path id="XMLID_68_" fill="#FFBDE0" d="M415.7,186.1l-17.5-1.1c0,0,2-13.3,5.3-18.4c1.3-0.3,2.6-0.1,3.8,1.1
			c2.9,3,6.9,12.9,8.1,17.2C415.5,185.2,415.6,185.7,415.7,186.1z"/>
		<g id="XMLID_59_">
			<path id="XMLID_141_" fill="#F774B9" d="M401.8,225.3c-0.7,0-1.4-0.5-1.5-1.2c-0.2-0.9,0.3-1.7,1.2-1.9l15.8-3.8
				c0.9-0.2,1.7,0.3,1.9,1.2c0.2,0.9-0.3,1.7-1.2,1.9l-15.8,3.8C402.1,225.2,401.9,225.3,401.8,225.3z"/>
		</g>
		<g id="XMLID_56_">
			<path id="XMLID_134_" fill="#F774B9" d="M417.2,239.1c-0.1,0-0.2,0-0.3,0l-14.6-2.9c-0.9-0.2-1.4-1-1.3-1.9
				c0.2-0.9,1-1.4,1.9-1.3l14.6,2.9c0.9,0.2,1.4,1,1.3,1.9C418.6,238.6,418,239.1,417.2,239.1z"/>
		</g>
		<g id="XMLID_60_">
			<path id="XMLID_149_" fill="#F774B9" d="M317.6,214.1"/>
		</g>
		<g id="XMLID_63_">
			<path id="XMLID_144_" fill="#F774B9" d="M319.2,234.8c-0.8,0-1.5-0.6-1.6-1.4c-0.1-0.9,0.5-1.7,1.4-1.8l14.5-1.7
				c0.9-0.1,1.7,0.5,1.8,1.4c0.1,0.9-0.5,1.7-1.4,1.8l-14.5,1.7C319.3,234.8,319.3,234.8,319.2,234.8z"/>
		</g>
		<g id="XMLID_64_">
			<path id="XMLID_143_" fill="#F774B9" d="M333.6,223c-0.2,0-0.3,0-0.5-0.1l-14.3-4.9c-0.8-0.3-1.3-1.2-1-2c0.3-0.8,1.2-1.3,2-1
				l14.3,4.9c0.8,0.3,1.3,1.2,1,2C334.8,222.6,334.2,223,333.6,223z"/>
		</g>
		<g id="XMLID_329_">
			<path id="XMLID_330_" fill="#F774B9" d="M404.1,186.8C404.1,186.8,404.1,186.8,404.1,186.8l-10.1,0c-0.9,0-1.6-0.7-1.6-1.6
				c0-0.9,0.7-1.6,1.6-1.6c0,0,0,0,0,0l10.1,0c0.9,0,1.6,0.7,1.6,1.6C405.7,186.1,405,186.8,404.1,186.8z"/>
		</g>
		<g id="XMLID_331_">
			<path id="XMLID_332_" fill="#F774B9" d="M368.5,186.8C368.5,186.8,368.5,186.8,368.5,186.8l-10.1,0c-0.9,0-1.6-0.7-1.6-1.6
				c0-0.9,0.7-1.6,1.6-1.6c0,0,0,0,0,0l10.1,0c0.9,0,1.6,0.7,1.6,1.6C370,186.1,369.3,186.8,368.5,186.8z"/>
		</g>
		<path id="XMLID_344_" fill="#FF8AC7" d="M437.1,247.8c0,0-2.3,2.1-6.6,5.2c-4.3,3.1-23.7,14.2-49.4,15
			c-21.5,0.7-52.7,0.5-62.7-21.2c2.8,2.5,16.8,12.8,57.2,11c38.2-1.8,54.5-23.3,58.9-30.6C436.3,238.3,437.1,247.8,437.1,247.8z"/>
	</g>
</g>
<g id="MOUTH">
	<g id="XMLID_36_">
		<path id="XMLID_147_" fill="#1C3177" d="M360.6,241.8c-0.3,0-0.6-0.1-0.8-0.2c-0.8-0.5-1-1.4-0.5-2.2l3-5c0.9-1.5,2.5-2.4,4.2-2.5
			c1.7-0.1,3.4,0.7,4.4,2.1l3.8,5.2c0.5,0.7,0.4,1.7-0.4,2.2c-0.7,0.5-1.7,0.4-2.2-0.4l-3.8-5.2c-0.4-0.6-1-0.8-1.7-0.8
			c-0.7,0-1.3,0.4-1.6,1l-3,5C361.7,241.5,361.2,241.8,360.6,241.8z"/>
	</g>
</g>
<g id="EYE_1">
	<g id="XMLID_30_">
		<path id="XMLID_57_" fill="#1C3177" d="M340.1,203.5c0,4.7,2.2,8.5,4.8,8.5c2.7,0,4.8-3.8,4.8-8.5c0-1.8-0.3-3.5-0.9-4.9l-8.1,0.7
			C340.3,200.5,340.1,202,340.1,203.5z"/>
		<g id="XMLID_128_">
			<path id="XMLID_146_" fill="#1C3177" d="M351.3,201C351.3,201,351.3,201,351.3,201l-10.1,0c-0.9,0-1.6-0.7-1.6-1.6
				c0-0.9,0.7-1.6,1.6-1.6c0,0,0,0,0,0l10.1,0c0.9,0,1.6,0.7,1.6,1.6C352.9,200.3,352.1,201,351.3,201z"/>
		</g>
	</g>
</g>
<g id="EYE_2">
	<g id="XMLID_2_">
		<path id="XMLID_67_" fill="#1C3177" d="M394.5,205.8c0,5.3-2.3,9.6-5.2,9.6c-2.9,0-5.2-4.3-5.2-9.6c0-2.1,0.4-4,1-5.6l8.8,0.8
			C394.2,202.4,394.5,204.1,394.5,205.8z"/>
		<g id="XMLID_129_">
			<path id="XMLID_145_" fill="#1C3177" d="M395.2,202.7C395.2,202.7,395.2,202.7,395.2,202.7l-10.1,0c-0.9,0-1.6-0.7-1.6-1.6
				c0-0.9,0.7-1.6,1.6-1.6c0,0,0,0,0,0l10.1,0c0.9,0,1.6,0.7,1.6,1.6C396.8,202,396,202.7,395.2,202.7z"/>
		</g>
	</g>
</g>
</svg>
