<svg xmlns="http://www.w3.org/2000/svg" xmlns:xlink="http://www.w3.org/1999/xlink" viewBox="0 0 1080 1080"><defs><style>.cls-1,.cls-9{fill:#ff97c9;}.cls-2{fill:#ffd3b3;}.cls-3{isolation:isolate;}.cls-4{fill:#e1ecff;}.cls-5{fill:#f774b9;}.cls-6{fill:#99adf9;opacity:0.58;}.cls-7{fill:#fff;opacity:0.3;}.cls-8{clip-path:url(#clip-path);}.cls-9{opacity:0.19;mix-blend-mode:multiply;}.cls-10{fill:#738de0;}.cls-11{fill:#1c3177;}.cls-12,.cls-14{fill:none;stroke:#1c3177;stroke-miterlimit:10;}.cls-12{stroke-linecap:round;stroke-width:9px;}.cls-13{clip-path:url(#clip-path-2);}.cls-14{stroke-width:7px;}</style><clipPath id="clip-path"><path class="cls-1" d="M814,339.65c7.82,31.52,54.32,115.3,82.76,161.43s53.56,104,52,177.13-29.14,93.1-67.36,104.2-61.78,8-84,10.94-45.43,12.47-60.47,0-22.89-19.82-39.63-11.11-59.27,6.32-70.37,3.42-16.57-25.11,2-36.56c-30.41,9.74-108,.82-126.58-74.3-14.86-60.22,30-184.72,40-213.18,10.23-29.2,14.86-45.36,9.22-71.75C588.76,379.37,814,339.65,814,339.65Z"/></clipPath><clipPath id="clip-path-2"><ellipse class="cls-2" cx="557.93" cy="455.54" rx="27.84" ry="26.06"/></clipPath></defs><g class="cls-3"><g id="Layer_2" data-name="Layer 2"><path class="cls-4" d="M648.18,343.24c-76.11-2.08-197.7,57.69-261.74,137.52C288.28,603.11,193.91,543.14,102.59,626c-69.07,62.69-90.73,198.06,12,268.27s280.21-5.13,385.11,37.41,198.84,77.45,305.54,61.38C927.75,974.65,1035.88,864,1015.9,666.26,990.35,413.29,810.63,347.67,648.18,343.24Z"/><path class="cls-5" d="M940.56,710.67s63.89,28.2,67.64,83c3.33,48.68-22.29,98.65-67.64,122C888.75,942.29,866.25,898,882.65,870s107.62-71,45.61-126.06C928.26,720.41,940.56,710.67,940.56,710.67Z"/><path class="cls-6" d="M290.82,704.11c-22.65-2.38-64.38-1.39-86.9,4.46-20.52,5.33-40,29-9,40s5.21,24.49-36,26.46-59.69,29.14-30.69,44.21,88.12,16,137.11,16,112.34-7.61,139.09-23.65,6.19-31.26-3.1-35.48-18.3-5.21-15.77-11.82,14-25.87-2.91-40.74C354,698.41,315.09,706.67,290.82,704.11Z"/><path class="cls-5" d="M511.9,675s-1.94,42.4-5.44,47.45-35,13.81-36.74,23.73-1.55,27.23,14.39,30.34,50,2.34,58.73,2,26.83-24.9,34.8-80.91C530.19,675.94,511.9,675,511.9,675Z"/><path class="cls-1" d="M594.65,144.41s-23.83-45.36-40.48-55.86-27.68-5.38-31.77,5.64-5.13,55.34-5.13,55.34-46.12,42.79-63.54,90.19S432.46,383.21,542.38,396,765.56,372.45,814,339.65C798.1,259.45,775.55,154.91,770.42,126s-21-43.25-38.43-43.15S693,123.4,686.38,148C640.52,142.61,594.65,144.41,594.65,144.41Z"/><path class="cls-7" d="M698.63,150.47S713.8,101.53,727,101.79c11.82.23,17.29,37,18.28,55.11a4.19,4.19,0,0,1-5.07,4.32C724.09,157.78,698.63,150.47,698.63,150.47Z"/><path class="cls-7" d="M517,149.7s-1.24-51.61,9.74-55.47c11.15-3.93,29,28.71,36.22,45.38a4.2,4.2,0,0,1-3.27,5.81C543.39,147.76,517,149.7,517,149.7Z"/><path class="cls-1" d="M814,339.65c7.82,31.52,54.32,115.3,82.76,161.43s53.56,104,52,177.13-29.14,93.1-67.36,104.2-61.78,8-84,10.94-45.43,12.47-60.47,0-22.89-19.82-39.63-11.11-59.27,6.32-70.37,3.42-16.57-25.11,2-36.56c-30.41,9.74-108,.82-126.58-74.3-14.86-60.22,30-184.72,40-213.18,10.23-29.2,14.86-45.36,9.22-71.75C588.76,379.37,814,339.65,814,339.65Z"/><g class="cls-8"><path class="cls-5" d="M845.75,411.32S805.65,455,814,499.54c5.8,31.06,44.07,48.17,48.17,74.82s33.32,71,82.51,48.08C938.51,546.17,845.75,411.32,845.75,411.32Z"/><path class="cls-9" d="M912.89,525.74S945.73,726,821.69,791.63c86.34,52.35,203.94-106,203.94-106Z"/><path class="cls-5" d="M730.8,699.57s2,42.87,39.28,49.88c-4.78,9.73-38.77,3.24-40.31,37.23-6.32-3.86-14.18-13.15-32.46-4.44C722.08,740.56,730.8,699.57,730.8,699.57Z"/><path class="cls-7" d="M540,435.93s12.76-11.34,50-6,84.59,112.49,78.53,176.51,1.88,137.94-57.35,151.85C552.12,781.22,425,694,425,694Z"/></g><path class="cls-5" d="M667.2,536.91c.06,37.11-3.31,74.08-6.92,111-1.79,18.36-3.42,36.78-6.7,55-2.42,13.38-5.35,37.37-22.59,39.59-5.66.73-5.74,9.74,0,9,17.28-2.23,25-17.79,28.6-33.15,4.51-19.24,6.59-39,8.54-58.65,4-40.79,8.13-81.67,8.07-122.72,0-5.79-9-5.8-9,0Z"/><path class="cls-5" d="M743.72,609c-2.81,29.27-9.08,58.07-17.1,86.33-4,13.91-8.33,27.7-12.94,41.4q-3.45,10.27-7.06,20.5c-2.33,6.62-4.58,13.38-9.4,18.66-3.9,4.27,2.45,10.65,6.36,6.36,9.48-10.38,12.85-25.67,17.27-38.66,5-14.58,9.68-29.25,13.93-44.06,8.5-29.63,15-59.82,17.94-90.53.56-5.76-8.45-5.72-9,0Z"/><path class="cls-5" d="M789.47,602.6c-14,6.72-27.24,18.39-37.54,29.91s-16.31,25.7-19.69,40.61-6.56,32.31-.73,47c4.92,12.39,14.89,22.34,26.59,28.51,16.07,8.48,34.62,10.06,52.49,9.79,5.78-.08,5.8-9.08,0-9-17.92.27-36.89-1.2-52.38-11.14-14.66-9.41-21.92-24-20.6-41.33s5.32-36,15-50.72c5-7.63,11.83-13.78,18.65-19.75,7.05-6.18,14.24-12,22.73-16.1,5.22-2.51.66-10.27-4.54-7.77Z"/><path class="cls-5" d="M774.6,747.58c-11.61,4.5-23.7,8.42-35,13.66a22.51,22.51,0,0,0-13.17,22.48c.51,5.72,9.51,5.77,9,0-.9-10.08,6.08-13.71,14.26-16.88L777,756.26c5.35-2.07,3-10.78-2.39-8.68Z"/><path class="cls-5" d="M631,764.78a35,35,0,0,0-3.2,17.78c.53,5.72,9.53,5.78,9,0a25.91,25.91,0,0,1,2-13.24c1-2.23.63-4.81-1.61-6.15-1.92-1.15-5.16-.6-6.16,1.61Z"/><path class="cls-5" d="M660.86,765.32c-3.09,5.93-3.33,12.34-3.13,18.89.17,5.78,9.17,5.8,9,0-.15-4.84-.4-9.92,1.9-14.34,2.67-5.14-5.09-9.69-7.77-4.55Z"/><path class="cls-10" d="M553.15,398.65s139.38,11.72,260.83-59c6.58,19,15.55,39.2,15.55,39.2s-120.82,73.33-278.15,53.76C545.73,423.29,553.15,398.65,553.15,398.65Z"/><path class="cls-11" d="M493.19,246.21c3.54-3.1,33.56-3.84,36.72-1.87s-.34,23.23-18.36,23.23S490.45,248.61,493.19,246.21Z"/><path class="cls-11" d="M622.32,246.21c3.55-3.1,33.57-3.84,36.73-1.87s-.34,23.23-18.36,23.23S619.59,248.61,622.32,246.21Z"/><path class="cls-12" d="M557.93,333s9.39-23.74,15-23.23S591.41,333,591.41,333"/><path class="cls-5" d="M429.13,292.91a325,325,0,0,1,35.86.6c5.78.42,5.76-8.58,0-9a325,325,0,0,0-35.86-.6c-5.77.22-5.8,9.22,0,9Z"/><path class="cls-5" d="M433.14,337.34a308.62,308.62,0,0,1,30.5-11.77c5.48-1.79,3.14-10.48-2.39-8.67a332.21,332.21,0,0,0-32.65,12.66c-5.27,2.37-.7,10.13,4.54,7.78Z"/><path class="cls-5" d="M678.8,294.67a216.66,216.66,0,0,1,30.93-15.46c5.31-2.13,3-10.83-2.39-8.68a231.14,231.14,0,0,0-33.08,16.37c-5,3-.44,10.76,4.54,7.77Z"/><path class="cls-5" d="M682.27,319.83c10.24.61,20.44,1.64,30.59,3.15,5.66.84,8.11-7.83,2.39-8.68-11-1.63-21.94-2.81-33-3.47-5.79-.35-5.77,8.65,0,9Z"/><path class="cls-5" d="M567.36,146.58a164.79,164.79,0,0,1,24.93-.81c5.79.25,5.78-8.75,0-9a164.79,164.79,0,0,0-24.93.81c-5.69.62-5.76,9.63,0,9Z"/><path class="cls-5" d="M690.22,150.16a48,48,0,0,1,17.45,3.61c5.37,2.16,7.7-6.54,2.39-8.68a54.79,54.79,0,0,0-19.84-3.93c-5.79-.09-5.79,8.91,0,9Z"/><ellipse class="cls-2" cx="557.93" cy="455.54" rx="27.84" ry="26.06"/><g class="cls-13"><ellipse class="cls-11" cx="554.93" cy="453.21" rx="7.07" ry="12.69" transform="translate(31.52 942.49) rotate(-82.31)"/><path class="cls-14" d="M554.93,454.1A59.27,59.27,0,0,0,551.69,484"/></g><polygon class="cls-10" points="183 798.98 247.2 871.55 282.07 856.45 256.85 843.87 264.79 808.39 183 798.98"/><polygon class="cls-10" points="314.29 809.18 342.82 782.9 358.21 811.8 314.29 809.18"/><path class="cls-10" d="M232.53,649.28l182.36,19.91s20.09,47.31-1.59,81.1l-139,8.66,10.52-29.66-23.27-7.88,18.3-40.7Z"/></g></g></svg>