<svg id="Layer_3" data-name="Layer 3" xmlns="http://www.w3.org/2000/svg" xmlns:xlink="http://www.w3.org/1999/xlink" viewBox="0 0 1080 1080"><defs><style>.cls-1{fill:#ff8d76;}.cls-2{fill:#fea691;}.cls-3{clip-path:url(#clip-path);}.cls-4{fill:#ffd3b3;}.cls-5{clip-path:url(#clip-path-2);}.cls-10,.cls-11,.cls-13,.cls-6{fill:none;stroke-linecap:round;}.cls-6{stroke:#ff8d76;stroke-width:9px;}.cls-10,.cls-13,.cls-6{stroke-miterlimit:10;}.cls-7{fill:#e1ecff;}.cls-8{fill:#413f4c;}.cls-9{fill:#ff6ea9;}.cls-10{stroke:#ea4e95;}.cls-10,.cls-13{stroke-width:7px;}.cls-11{stroke:#413f4c;stroke-linejoin:round;stroke-width:8px;}.cls-12{fill:#99adf9;}.cls-13{stroke:#99adf9;}</style><clipPath id="clip-path"><path class="cls-1" d="M196.15,463s-91.92,32.08-79.44,112.13S220,693.07,232.05,685.32s-62.4-49.06-69.72-106.74,54.87-59.85,54.87-59.85Z"/></clipPath><clipPath id="clip-path-2"><path class="cls-2" d="M691.51,273.1S676.9,231.08,669,218s-13.33-34.08-31.77-26.65-37.67,64.06-39,89.17-12.56,66.36-21.52,66.62-137.86-40.74-227.53-32.8S217.74,361.5,197.75,416.08s-17.16,122.73,23.83,151.17,42.28,32,37.93,38.43-15.89,12.56-5.64,25.63,38.18,12.3,74.3,6.66,88.89-11.27,110.43-10.25,41.26,0,48.44-9.22,7.81-17.94,6.4-22.55c32,2.3,87.37-1.16,115.82-11.53,32.67,33.05,56.88,46.12,82.25,50s59.18,1.54,69.18-6.92,4.22-49.37-32.29-66.19c48.43,23.15,107.11,15,137.6-4.53,35.85-22.89,47.42-58.72,39.22-88.27-5.87-21.19-12-34-13.52-71.44s-9.56-84.9-42.36-103.69S772.3,259.52,691.51,273.1Z"/></clipPath></defs><path class="cls-1" d="M196.15,463s-91.92,32.08-79.44,112.13S220,693.07,232.05,685.32s-62.4-49.06-69.72-106.74,54.87-59.85,54.87-59.85Z"/><g class="cls-3"><path class="cls-4" d="M130.88,700.06s-8.71-95.34,97.37-91.66c49.19,85.17,0,131.29,0,131.29Z"/></g><path class="cls-1" d="M780.16,276.94s18.7-46.12,33.82-60.47,27.42-20.75,34.34,6.15,19.73,74.05,13.83,98.91C809.37,300.77,780.16,276.94,780.16,276.94Z"/><path class="cls-1" d="M778.78,563.27s37.67,40.4,66,43.48,59.11,2.9,70-9.57,13-34.68,7.86-44.75-36.39-18.79-52.62-26.31C820,529.37,778.78,563.27,778.78,563.27Z"/><path class="cls-2" d="M691.51,273.1S676.9,231.08,669,218s-13.33-34.08-31.77-26.65-37.67,64.06-39,89.17-12.56,66.36-21.52,66.62-137.86-40.74-227.53-32.8S217.74,361.5,197.75,416.08s-17.16,122.73,23.83,151.17,42.28,32,37.93,38.43-15.89,12.56-5.64,25.63,38.18,12.3,74.3,6.66,88.89-11.27,110.43-10.25,41.26,0,48.44-9.22,7.81-17.94,6.4-22.55c32,2.3,87.37-1.16,115.82-11.53,32.67,33.05,56.88,46.12,82.25,50s59.18,1.54,69.18-6.92,4.22-49.37-32.29-66.19c48.43,23.15,107.11,15,137.6-4.53,35.85-22.89,47.42-58.72,39.22-88.27-5.87-21.19-12-34-13.52-71.44s-9.56-84.9-42.36-103.69S772.3,259.52,691.51,273.1Z"/><g class="cls-5"><path class="cls-4" d="M735.58,268.2S770.42,293,780.16,326s16.23,91.56-4.61,123.67-67.68,33-78.58,34.17c-23,2.47-33.82,29.38-18,45.77S770.82,584,770.82,584l103.28-5.59,70.56-78.92-33.82-32.45s-27.2,13.24-49.88,3.75-26.31-39.28-32.12-74.3-3.79-100.48-68-128.39C742.07,255.76,735.58,268.2,735.58,268.2Z"/></g><path class="cls-6" d="M590.53,552.23s7.68,20,15,30.06"/><path class="cls-6" d="M349.19,458.35s49.45,10.25,63,50.22-15.89,71.49-43.05,82"/><path class="cls-6" d="M397.2,571.72s30.13,1.65,54.22,0,36.13,10.14,42,24.23"/><path class="cls-4" d="M654.61,286.17s-20.63-11-20.76-29.72,2.31-40,9-42,34.84,40.78,33,66.64C663.25,285.55,654.61,286.17,654.61,286.17Z"/><path class="cls-6" d="M691.51,273.1s-22,5.89-34.34,13.07"/><path class="cls-7" d="M371.73,726.24s104.93-38,159.89-79.17a134.34,134.34,0,0,0,6.4,25.11l21.78-4.1,7.43,18.57,63.55-3.2,13.84,21L669,711.38s-44.71,83.27-105.44,122.48c-3.84-9.74-7.56-13.46-12-13.33s-22,2.82-26.39,1.28,3.17-20.75,3.17-20.75-38.79-2.44-58.78-10-34.2-21.91-40-25.12-35-6.91-37.41-11,7.95-9.23,4.1-16.15S371.73,726.24,371.73,726.24Z"/><polygon class="cls-7" points="284.79 711.21 300.16 729.66 330.74 720.43 322.37 713.94 327.15 706.42 284.79 711.21"/><path class="cls-7" d="M731.32,672s13.49,4.44,23.91,15a23,23,0,0,0-15.37,11.27s9.74-.17,15.37,3.76,2.57,28.7,6.84,48.85,7.51,34.85,7.51,39,11.62,27.33,11.62,27.33,123.16,11.28,203.61-21.86c-16.22-4.61-38.6-14.69-38.6-14.69l10.25-11.28s-28.36-14.52-31.78-18.1S939,672,939,672s-31.94,2-59.44,0S790.88,650.44,731.32,672Z"/><path class="cls-7" d="M661.78,807.73s19.09-24.09,45.87-41c7.43,19.86,13.58,61.75,13.58,61.75s-15.89,3.46-29.72,0S690.48,809.78,661.78,807.73Z"/><path class="cls-8" d="M786.47,466.33c5.9-8.27,49.53-11.24,55.76-2.13s-9.88,28.87-25.52,28.87S778.57,477.42,786.47,466.33Z"/><circle class="cls-8" cx="735.58" cy="446.57" r="12.04"/><circle class="cls-8" cx="870.11" cy="446.57" r="12.04"/><path class="cls-4" d="M770.72,404c1.44-8.72-12.57-13.85-24.14-14.6s-22.43,2.4-22.16,7.51S767.92,420.92,770.72,404Z"/><path class="cls-4" d="M835.74,403.81c-2-8.58,9.39-13.19,19.06-13.59s19.08,3,19.3,8S839.56,420.46,835.74,403.81Z"/><path class="cls-9" d="M790.25,519.34s17.38-1.88,25.85-15.38c10,13.84,24.53,10.59,24.53,10.59s3,27.33-21.78,29.38C792.86,546.09,790.25,519.34,790.25,519.34Z"/><path class="cls-10" d="M816.2,504s2,16.4,2.39,25.62"/><path class="cls-11" d="M770.25,515.24s27.2,13.56,46-11.28c12.77,18.58,38.61,8.88,38.61,8.88"/><polygon class="cls-12" points="486.2 675.31 548.02 704.38 509.75 747.08 421.78 706.13 486.2 675.31"/><line class="cls-13" x1="575.18" y1="718.04" x2="643.33" y2="747.08"/><line class="cls-13" x1="813.24" y1="701.09" x2="826.69" y2="773.95"/><line class="cls-13" x1="840" y1="701.09" x2="853.45" y2="773.95"/><line class="cls-13" x1="866.77" y1="701.09" x2="880.22" y2="773.95"/><line class="cls-13" x1="560.89" y1="734.75" x2="629.05" y2="763.79"/><line class="cls-13" x1="548.02" y1="752.21" x2="616.17" y2="781.25"/><path class="cls-6" d="M702.44,608.4s13.78,4.46,10.88,22.18"/><path class="cls-6" d="M738.59,605.36s9.26,5.1,6.36,22.82"/></svg>