<svg xmlns="http://www.w3.org/2000/svg" xmlns:xlink="http://www.w3.org/1999/xlink" viewBox="0 0 1080 1080"><defs><style>.cls-1,.cls-7{fill:#c7dcf9;}.cls-14,.cls-2{fill:#fea691;}.cls-3{isolation:isolate;}.cls-4,.cls-9{fill:#e1ecff;}.cls-5{fill:#f0f4ff;}.cls-6{clip-path:url(#clip-path);}.cls-7{opacity:0.37;}.cls-14,.cls-7,.cls-9{mix-blend-mode:multiply;}.cls-8{fill:#99adf9;}.cls-9{opacity:0.58;}.cls-10{fill:none;stroke:#1c3177;stroke-linecap:round;stroke-miterlimit:10;stroke-width:9px;}.cls-11{fill:#1c3177;}.cls-12{fill:#ff97c9;}.cls-13{clip-path:url(#clip-path-2);}.cls-14{opacity:0.21;}</style><clipPath id="clip-path"><ellipse class="cls-1" cx="447.2" cy="511.48" rx="107.95" ry="147.31" transform="translate(-46.98 45.23) rotate(-5.5)"/></clipPath><clipPath id="clip-path-2"><path class="cls-2" d="M542.23,589.77s-181.59-2.75-222.59,7-33.82,36.64-21.52,48.68,12.55,30-16.91,32.29-109.67,8.45-119.92,36.89,31,52.53,115,49.71,183.2-17.23,204.21.23-30.49,20-7.94,42.56,140.93,13.84,180.9-2.3,61-43.05,37.92-70.21S637.48,701,645.31,685.93c6.66-12.82,6.37-31.69-10.27-40.06-27.14,4.7-168.53,31.83-168.53,31.83S461,661.84,477.1,655,524,637.36,542.23,589.77Z"/></clipPath></defs><g class="cls-3"><g id="Layer_3" data-name="Layer 3"><path class="cls-4" d="M447.49,344.26l364.5,31a33.12,33.12,0,0,1,23.78,13c11,14.48,27.71,42.06,34.84,82.07,5.79,32.52-5.7,92.52-26.73,125.65a33,33,0,0,1-21.74,14.6L466.2,677.73Z"/><ellipse class="cls-5" cx="450.47" cy="511.16" rx="126.33" ry="167.3" transform="translate(-46.93 45.54) rotate(-5.5)"/><ellipse class="cls-1" cx="447.2" cy="511.48" rx="107.95" ry="147.31" transform="translate(-46.98 45.23) rotate(-5.5)"/><g class="cls-6"><path class="cls-7" d="M475.26,354s-66.1,119.73-18.13,235.37c-32.09,54-23.37,113.32-17.23,115.68s215.69-73.48,221.49-69.38S609,320,609,320Z"/></g><path class="cls-8" d="M562.53,354s55.11,46.7,64.59,152.53c8,88.86-52.27,150.66-52.27,150.66l201.59-38s43.71-57,43.71-129c0-79.43-52.84-118.73-52.84-118.73Z"/><path class="cls-9" d="M552.59,556c-4,15.57-10.36,33.8-10.36,33.8l-78.54,43.08,2.51,44.88,355.94-67.16A33,33,0,0,0,843.88,596c8.67-13.67,15.72-31.91,20.6-50.9Z"/><path class="cls-10" d="M661.39,413.94s30.11-3.84,34.85,19c3.46,16.69-18.93,23.93-18.93,23.93"/><path class="cls-10" d="M685.67,526.45s31.71,8.26,25.64,31.55c-3.77,14.46-29.25,17.28-29.25,17.28"/><path class="cls-11" d="M740.29,456.89c-8.93-.47-13.45,11.15-13.32,23.58s2.56,32,14.35,32.58,14-13.32,13.07-28.08S750,457.4,740.29,456.89Z"/><path class="cls-12" d="M752.11,469.77s-10.45,3.61-10.28,12.57,5.07,16.14,12,17.64A52.89,52.89,0,0,0,752.11,469.77Z"/><path class="cls-2" d="M542.23,589.77s-181.59-2.75-222.59,7-33.82,36.64-21.52,48.68,12.55,30-16.91,32.29-109.67,8.45-119.92,36.89,31,52.53,115,49.71,183.2-17.23,204.21.23-30.49,20-7.94,42.56,140.93,13.84,180.9-2.3,61-43.05,37.92-70.21S637.48,701,645.31,685.93c6.66-12.82,6.37-31.69-10.27-40.06-27.14,4.7-168.53,31.83-168.53,31.83S461,661.84,477.1,655,524,637.36,542.23,589.77Z"/><g class="cls-13"><path class="cls-14" d="M413.24,590.15S514.46,604.72,477.1,655c72,20.88,138.75-77.68,138.75-77.68L498.67,553.37Z"/><path class="cls-14" d="M531.39,665.3s105.6-12.94,117,12.43c26.24-13.33,20.09-46.12,20.09-46.12L567,641.86Z"/><path class="cls-14" d="M213.2,686.56c-19.79,8.08-30.89,41.22,11.13,49.25s218.31-10.08,246.15,5.12,14.8,33.86,14.8,33.86l-338.5,23.88L139.61,697.2Z"/></g><path class="cls-2" d="M278.65,862.72c-7.39-12.71,22.89-28.35,54-28.86s55.86,14,53.64,23.91S349.19,872,330.57,872.12,282.92,870.07,278.65,862.72Z"/></g></g></svg>