<?xml version="1.0" encoding="utf-8"?>
<!-- Generator: Adobe Illustrator 19.0.0, SVG Export Plug-In . SVG Version: 6.00 Build 0)  -->
<svg version="1.1" xmlns="http://www.w3.org/2000/svg" xmlns:xlink="http://www.w3.org/1999/xlink" x="0px" y="0px"
	 viewBox="0 0 600 600" enable-background="new 0 0 600 600" xml:space="preserve">
<g id="FLOOR">
	<path id="XMLID_62_" fill="#C5DFFF" d="M403.5,430.4c8.7,0,12.2,3.8,4.2,5.3s-12.2,3.5-4.5,4.3c7.7,0.8,47.5-0.8,52.1,4.3
		c4.5,5.1-111.1,5.8-136,5.8S263.5,450,233,446c-16.6-2.2-25.3-11.2-13-12.8C250,429.1,394.7,430.4,403.5,430.4z"/>
	<path id="XMLID_476_" fill="#C5DFFF" d="M214.5,448.8c4.2,0,5.8,4.4,2,6.1c-3.8,1.7-30.3,16.6-42.1,16.6c-11.8,0-12-1.7-15.2-5
		c-3.2-3.2-17.7-6.1-25.7-6.4s-12.3-6.3-6.5-8.2C141.4,447.3,210.3,448.8,214.5,448.8z"/>
	<path id="XMLID_134_" fill="#C5DFFF" d="M482,450.7c1.6,0.1,3.8,2.4,3,4.7c-2.2,5.9-8.9,9.4-18.9,9c-15.7-0.6-16.3-10.8-9.2-12.6
		C463,450.1,480.4,450.6,482,450.7z"/>
</g>
<g id="ORNAMENT_1_1_">
	<g id="XMLID_130_">
		<g id="XMLID_126_">
			<path id="XMLID_128_" fill="#FF97C9" d="M221.3,446.9l-53,22c0,0-11.4-0.6-25.2-7.6c-10-5.1-21.1-19.9-21.1-19.9l5.8-0.9
				l58.7-9.6c0,0,2.3,3.2,9.7,8.8c1,0.8,2.3,1.5,3.7,2.2C208.2,445.6,221.3,446.9,221.3,446.9z"/>
			<path id="XMLID_484_" fill="#FC75BC" d="M221.3,446.9l-15.6,6.5l-37.5,15.5c0,0-11.4-0.6-25.2-7.6c-4.2-2.1-8.6-6-12.3-9.8
				c-5.1-5.2-8.8-10.1-8.8-10.1l5.8-0.9c7.1,2.4,18.3,5.1,32.5,5.3c17.3,0.3,31.9-2.3,39.6-4C208.2,445.6,221.3,446.9,221.3,446.9z"
				/>
			<path id="XMLID_482_" fill="#F45BB3" d="M205.8,453.3l-37.5,15.5c0,0-11.4-0.6-25.2-7.6c-4.2-2.1-8.6-6-12.3-9.8
				c8.9,2,21.2,4,36.1,4.2C182.1,455.9,195.7,454.7,205.8,453.3z"/>
		</g>
		<path id="XMLID_116_" fill="#FF97C9" d="M170.3,465.6c-0.4,0.8-1.9,1.4-3.3,1.4c-1.4,0-2.1-0.6-1.7-1.4c0.4-0.8,1.9-1.4,3.3-1.4
			S170.7,464.9,170.3,465.6z"/>
		<path id="XMLID_135_" fill="#FF97C9" d="M214.5,448.1c-0.4,0.8-1.9,1.4-3.3,1.4c-1.4,0-2.1-0.6-1.7-1.4c0.4-0.8,1.9-1.4,3.3-1.4
			C214.2,446.8,214.9,447.4,214.5,448.1z"/>
		<path id="XMLID_136_" fill="#FC75BC" d="M186.8,434c-0.5,0.7-2,1.2-3.4,1c-1.4-0.1-2.1-0.8-1.6-1.5c0.5-0.7,2-1.2,3.4-1
			C186.7,432.6,187.4,433.3,186.8,434z"/>
		<path id="XMLID_137_" fill="#FF97C9" d="M130.6,443.4c-0.5,0.7-2.1,1.1-3.4,0.9c-1.4-0.2-2-0.9-1.5-1.6s2.1-1.1,3.4-0.9
			C130.5,442,131.1,442.7,130.6,443.4z"/>
	</g>
</g>
<g id="ORNAMENT_2">
	<g id="XMLID_41_">
		<g id="XMLID_75_">
			<path id="XMLID_467_" fill="#FF97C9" d="M481,445.9l-10.8-1.1l-8.9,5.8l5.3,6.8l11.1,0.7l6.8-6L481,445.9z M473.3,454.2
				c-1.7,0-3.1-0.6-4.1-1.4c0.9-1,2.6-1.7,4.6-1.7c1.7,0,3.1,0.6,4.1,1.4C477.1,453.5,475.3,454.2,473.3,454.2z"/>
			<polygon id="XMLID_77_" fill="#F45BB3" points="461.3,450.5 462.2,458 466.8,462.6 466.5,457.3 			"/>
			<polygon id="XMLID_78_" fill="#FC75BC" points="466.8,462.6 477.7,463.3 477.6,458 466.5,457.3 			"/>
			<polygon id="XMLID_81_" fill="#FFB3DB" points="484.4,452 484.1,457.1 477.7,463.3 477.6,458 			"/>
		</g>
		<path id="XMLID_455_" fill="#F45BB3" d="M478.6,451c0,0.6-0.2,1.1-0.6,1.5c-0.9-0.8-2.4-1.4-4.1-1.4c-2,0-3.7,0.6-4.6,1.7
			c-0.7-0.6-1.1-1.3-1-2.1c0-1.8,2.4-3.3,5.3-3.2C476.3,447.6,478.6,449.1,478.6,451z"/>
	</g>
</g>
<g id="ORNAMENT_3">
	<g id="XMLID_117_">
		<path id="XMLID_131_" fill="#D2E9FF" d="M241.6,482.6c-8.1,3.3-15.9-0.8-15.9-0.8l-46,22.4c-0.1,1.6-1.1,12.2-13.6,14.9
			c-11.4,2.4-16-4.3-16-4.3l2.4-1.4l12.1-7.1l-4-4.5l-14.8,7c0,0-0.7-1.6-0.7-3.9c0-1,0.1-2.2,0.5-3.4c1.3-3.8,5.9-9.5,14-10.8
			c8.1-1.3,12,1.9,12,1.9l49.1-20.9c0,0,0.1-2.9,2.4-5.2c2.2-2.4,6.2-5.6,11.7-5.1c3.1,0.2,5.4,1.2,6.7,2h0c1.1,0.6,1.6,1.1,1.6,1.1
			l-12.2,6.6l4.4,4.9l11.3-5.9c0,0,0.9,0.5,1.6,2.1c0.1,0.3,0.2,0.6,0.3,0.9C249.3,475.5,249.7,479.3,241.6,482.6z"/>
		<path id="XMLID_125_" fill="#AED8FC" d="M241.2,483.9c-8.1,3.3-15.5-2-15.5-2l-46,22.4c-0.1,1.6-1.1,12.2-13.6,14.9
			c-11.4,2.4-16-4.3-16-4.3l2.4-1.4c2.2,1.5,7.4,4,15.2,1.3c10.6-3.7,9.6-13.8,9.6-13.8l48.7-22.3c0,0,7,5.4,15.8,1.1
			c5.2-2.5,6.5-5.6,6.6-7.6c0.1,0.3,0.2,0.6,0.3,0.9C249.3,475.5,249.3,480.5,241.2,483.9z"/>
		<path id="XMLID_124_" fill="#AED8FC" d="M166.1,505.2l-1.6,1.3l-4-4.5l-14.8,7c0,0-0.7-1.6-0.7-3.9l15.7-6.3L166.1,505.2z"/>
		<path id="XMLID_127_" fill="#AED8FC" d="M243.2,464.6l-12.2,6.6l-0.8-1.6l11.4-6.1h0C242.6,464,243.2,464.6,243.2,464.6z"/>
	</g>
</g>
<g id="ORNAMENT_4">
	<g id="XMLID_61_">
		<path id="XMLID_91_" fill="#FF97C9" d="M277.3,474.7c-0.5,2.4-1.6,4.1-3.4,4.8c-0.7,0.3-1.6,0.5-2.5,0.4c-3.1-0.3-4.9-3.8-4.1-9.7
			c0.8-5.9,4.3-7.1,6.8-6.6c0.2,0.1,0.4,0.1,0.6,0.2C277.6,465.2,277.9,471.5,277.3,474.7z"/>
		<path id="XMLID_89_" fill="#F45BB3" d="M277.3,474.7c-0.5,2.4-1.6,4.1-3.4,4.8c-3.1-0.4-4.2-4.3-3.5-9.4c0.5-3.6,1.5-5.6,4.3-6.3
			C277.6,465.2,277.9,471.5,277.3,474.7z"/>
		<path id="XMLID_93_" fill="#FF97C9" d="M296.1,472.5c0.1,0.5-0.1,1-0.3,1.4c-0.5,1.1-1.5,1.9-1.5,1.9l-20.9-0.9
			c0,0-2.7-3.5,0.8-6.1l0.9,0l19.8,0.7C294.9,469.6,295.9,470.7,296.1,472.5z"/>
		<path id="XMLID_90_" fill="#F45BB3" d="M295.8,474c-0.5,1.1-1.5,1.9-1.5,1.9l-20.9-0.9c0,0-2.7-3.5,0.8-6.1l0.9,0
			c-0.1,0.6-0.1,2.1,1.4,3.2C277.9,473.2,289.9,473.8,295.8,474z"/>
	</g>
</g>
<g id="ORNAMENT_5">
	<g id="XMLID_73_">
		<path id="XMLID_99_" fill="#1C3177" d="M352.6,481.5c-0.7,0-1.5-0.2-2.2-0.5c-2.4-1.1-4.2-7.5-4.2-12.5c0-2.7,0.4-5.1,1.2-7
			c-0.9-0.1-1.8,0-2.7,0.3c-6,2-4.7,10.3-4.7,10.3c0.1,0.7-0.4,1.4-1.1,1.5c-0.7,0.1-1.4-0.4-1.5-1.1c-0.6-3.6,0-11,6.4-13.2
			c1.7-0.6,3.4-0.7,4.9-0.3c0.9-1.2,2-2.1,3.3-2.7c3.5-1.7,6.8-2,9.7-0.9c1-1.6,2.3-2.8,3.8-3.4c2.7-1.1,5.3-1.1,7.6,0
			c4.1,1.9,6.1,6.4,6.7,8.3c1.6,4.5,0.9,8.4,0.9,8.6c-0.1,0.7-0.8,1.2-1.5,1c-0.7-0.1-1.2-0.8-1-1.5c0,0,0.6-3.4-0.8-7.3
			c-0.4-1.2-2.1-5.3-5.3-6.8c-1.7-0.8-3.5-0.7-5.6,0.1c-1.1,0.4-1.9,1.2-2.5,2.2c2.6,1.7,4.6,4.7,5.8,8.4c1.4,4.5,0.8,8.7-1.5,10.3
			c-1.5,1-3.3,0.8-5-0.6c-2.7-2.2-4.2-8.8-3.3-14.4c0.1-0.9,0.4-1.8,0.6-2.6c-2.2-0.7-4.7-0.4-7.5,0.9c-0.8,0.4-1.4,0.9-2,1.5
			c3,2.1,5.2,6.6,5.9,12.2c0.6,5.1-0.8,7.4-2.1,8.3C354.3,481.3,353.5,481.5,352.6,481.5z M349.8,462.4c-0.7,1.6-1,3.4-1,4.9
			c-0.3,5.7,1.8,10.8,2.7,11.3c0.4,0.2,1.3,0.5,2,0c1-0.8,1.4-3,1.1-5.9C354.1,469,352.6,464.4,349.8,462.4z M363,459.1
			c-0.2,0.6-0.3,1.3-0.4,1.8c-0.8,4.9,0.7,10.6,2.4,12c0.8,0.6,1.4,0.8,1.9,0.5c1-0.7,1.8-3.4,0.5-7.4
			C366.5,462.9,364.9,460.5,363,459.1z"/>
	</g>
</g>
<g id="ORNAMENT_6">
	<g id="XMLID_109_">
		<g id="XMLID_97_">
			<g id="XMLID_94_">
				<path id="XMLID_113_" fill="#1C3177" d="M326,519.7c0,0.4,0,0.8-0.1,1.1c-0.8,3.2-3,2.6-5.5,1.8c-2.5-0.9-16-9.4-19-11.2
					c-3-1.8-5.6-2.9-5.6-2.9l1.6-3.4l2.3-5.1c0,0,13.1,5.8,18.6,9.6C323.2,513,326,516.7,326,519.7z"/>
				<path id="XMLID_110_" fill="#0E2566" d="M326,519.7c0,0.4,0,0.8-0.1,1.1c-0.8,3.2-3,2.6-5.5,1.8c-2.5-0.9-16-9.4-19-11.2
					c-3-1.8-5.6-2.9-5.6-2.9l1.6-3.4c4.7,2.9,15.5,7.3,23.6,12.5C322.8,518.7,325,519.8,326,519.7z"/>
			</g>
			<g id="XMLID_98_">
				<path id="XMLID_104_" fill="#1C3177" d="M327.9,530.6c0,0.4,0,0.8-0.1,1.1c-0.8,3.2-3,2.6-5.5,1.8c-2.5-0.9-23.4-13.6-26.4-15.4
					c-3-1.8-5.6-2.9-5.6-2.9l1.6-3.4l2.3-5.1c0,0,20.5,9.9,26,13.8C325,523.9,327.8,527.6,327.9,530.6z"/>
				<path id="XMLID_103_" fill="#0E2566" d="M327.9,530.6c0,0.4,0,0.8-0.1,1.1c-0.8,3.2-3,2.6-5.5,1.8c-2.5-0.9-23.4-13.6-26.4-15.4
					c-3-1.8-5.6-2.9-5.6-2.9l1.6-3.4c4.7,2.9,28.6,17.1,32.3,18.4C325.6,530.6,326.8,530.7,327.9,530.6z"/>
			</g>
			<g id="XMLID_106_">
				<path id="XMLID_108_" fill="#1C3177" d="M321.9,537.5c0,0.4,0,0.8-0.1,1.1c-0.8,3.2-3,2.6-5.5,1.8c-2.5-0.9-23.4-13.6-26.4-15.4
					c-3-1.8-5.6-2.9-5.6-2.9l1.6-3.4l2.3-5.1c0,0,20,11,25.4,14.9C318.6,531.9,321.9,534.5,321.9,537.5z"/>
				<path id="XMLID_107_" fill="#0E2566" d="M321.9,537.5c0,0.4,0,0.8-0.1,1.1c-0.8,3.2-3,2.6-5.5,1.8c-2.5-0.9-23.4-13.6-26.4-15.4
					c-3-1.8-5.6-2.9-5.6-2.9l1.6-3.4c4.7,2.9,28.6,17.1,32.3,18.4C319.7,537.5,320.9,537.6,321.9,537.5z"/>
			</g>
			<g id="XMLID_112_">
				<path id="XMLID_115_" fill="#1C3177" d="M311,539.1c0,0.4,0,0.8,0,1.1c-0.6,3.3-2.8,2.8-5.3,2.2c-2.5-0.7-24.4-11.8-27.5-13.3
					c-3.1-1.6-5.8-2.5-5.8-2.5l1.3-3.5l3.3-6c0,0,19.7,10.8,25.5,14.2C307.5,534.4,310.8,536.1,311,539.1z"/>
				<path id="XMLID_114_" fill="#0E2566" d="M311,539.1c0,0.4,0,0.8,0,1.1c-0.6,3.3-2.8,2.8-5.3,2.2c-2.5-0.7-24.4-11.8-27.5-13.3
					c-3.1-1.6-5.8-2.5-5.8-2.5l3-5c4.9,2.5,28.1,16.4,31.9,17.4C308.8,539.3,310,539.3,311,539.1z"/>
			</g>
		</g>
		<g id="XMLID_133_">
			<path id="XMLID_485_" fill="#1C3177" d="M299.8,500c0,0-2.4,7.3-7.9,15.4c-2.1,3.1-4,5.9-5.6,8.2c-0.8,1.1-1.5,2.1-2.1,3
				c-1.8,2.5-2.9,4-2.9,4s-7.4-2.2-15.1-6.7c-7.7-4.5-14.3-9.7-16-11.8c-2.1-2.5-1.2-6.1-1.2-6.1s0.1-0.9,0.8-2.4
				c0.8-1.7,2.3-4.1,5.2-6.8c5.6-5.1,10.9-6.9,10.9-6.9L299.8,500z"/>
			<path id="XMLID_481_" fill="#0E2566" d="M284.2,526.5c-1.8,2.5-2.9,4-2.9,4s-7.4-2.2-15.1-6.7c-7.7-4.5-14.3-9.7-16-11.8
				c-2.1-2.5-1.2-6.1-1.2-6.1s0.1-0.9,0.8-2.4c6.1,6.8,11.7,10.7,22.8,17C276,522.5,281.3,525.2,284.2,526.5z"/>
		</g>
	</g>
</g>
<g id="ORNAMENT_7">
	<g id="XMLID_43_">
		<path id="XMLID_105_" fill="#FC75BC" d="M467,496.6l-91.5,43.8c0,0-8,2-14.6-3.5c-1.3-1-2.5-2.3-3.6-4c-3.2-4.9-4-9.2-3.8-12.5
			c0.2-3.6,1.4-5.9,1.4-5.9l96.8-43.2c0,0,5-0.3,9.4,2.4c1.7,1.1,3.3,2.6,4.5,4.8c1.4,2.5,2,5.2,2.2,7.8
			C468.4,491.9,467,496.6,467,496.6z"/>
		<path id="XMLID_102_" fill="#F45BB3" d="M467,496.6l-91.5,43.8c0,0-8,2-14.6-3.5l107-50.5C468.4,491.9,467,496.6,467,496.6z"/>
		<path id="XMLID_100_" fill="#FF97C9" d="M461.2,473.8l-107.7,46.6c0.2-3.6,1.4-5.9,1.4-5.9l96.8-43.2
			C451.8,471.4,456.8,471.1,461.2,473.8z"/>
		<path id="XMLID_88_" fill="#F45BB3" d="M354.9,514.6c0,0,10.3-6.2,17.7,4.7c9,13.3,2.8,21.2,2.8,21.2s-11.5,4.1-18.2-4.9
			C350.7,526.6,351.7,519.3,354.9,514.6z"/>
		<g id="XMLID_432_">
			<g id="XMLID_92_">
				<path id="XMLID_76_" fill="#F45BB3" d="M400.1,528.5c-0.1,0-0.3,0-0.4-0.1c-1-0.2-1.7-1.3-1.4-2.3c0-0.1,1.6-7.3-3-14.3
					c-4.5-6.7-9.8-6-9.8-6c-1,0.2-2-0.6-2.2-1.6s0.6-2,1.6-2.2c0.3,0,7.8-1.1,13.6,7.6c5.6,8.4,3.7,17,3.6,17.3
					C401.8,527.9,401,528.5,400.1,528.5z"/>
			</g>
			<g id="XMLID_95_">
				<path id="XMLID_69_" fill="#F45BB3" d="M426.3,514.9c-0.1,0-0.3,0-0.4-0.1c-1-0.2-1.7-1.3-1.4-2.3c0-0.1,1.5-6.9-2.8-13.5
					c-4.1-6.2-8.9-5.6-9.1-5.6c-1,0.1-2-0.6-2.2-1.6c-0.2-1,0.6-2,1.6-2.2c0.3,0,7.3-1.1,12.9,7.3c5.3,8,3.4,16.2,3.4,16.5
					C427.9,514.3,427.1,514.9,426.3,514.9z"/>
			</g>
			<g id="XMLID_96_">
				<path id="XMLID_54_" fill="#F45BB3" d="M451.2,503.6c-0.1,0-0.3,0-0.4-0.1c-1-0.2-1.7-1.3-1.4-2.3c0-0.1,1.5-6.9-2.8-13.5
					c-4.1-6.3-8.8-5.6-8.9-5.6c-1,0.2-2-0.5-2.2-1.6c-0.2-1,0.5-2,1.6-2.2c0.3,0,7.3-1,12.7,7.3c5.2,8,3.4,16.1,3.3,16.5
					C452.9,503,452.1,503.6,451.2,503.6z"/>
			</g>
		</g>
	</g>
</g>
<g id="LEFT_LEG">
	<g id="XMLID_123_">
		<g id="XMLID_53_">
			<path id="XMLID_65_" fill="#1C3177" d="M412.4,387.6c-7.2,13.7-18.4,23.8-25.9,24c-5.6,0.1-7.4-2-6.5-8.1c0.3-2,0.9-4.4,1.7-7.4
				c3.4-11.9,9.5-22.9,13-28.6c5.2-8.3,14.1-6.9,18.6-3.4c0.7,0.5,1.3,1.1,1.8,1.7C418.9,370,418.6,375.6,412.4,387.6z"/>
			<path id="XMLID_63_" fill="#0E2566" d="M412.4,387.6c-7.2,13.7-18.4,23.8-25.9,24c-5.6,0.1-7.4-2-6.5-8.1c1.3,1.6,3.5,2.9,7,2.2
				c7.4-1.5,20.7-15.3,25.6-28.2c2-5.3,2.6-9.1,2.6-11.7C418.9,370,418.6,375.6,412.4,387.6z"/>
			<path id="XMLID_52_" fill="#0E2566" d="M409.8,369.7c0.3,4.4-3.7,11.3-9.7,16.1c-6,4.8-9.8,1.3-7.4-6.6c2.5-7.9,8.3-15,12.3-15
				C407.6,364.2,409.5,366.1,409.8,369.7z"/>
		</g>
		<g id="XMLID_437_">
			<g id="XMLID_48_">
				<path id="XMLID_463_" fill="#FC75BC" d="M404.3,377.1c-0.7,1.3-1.6,2.3-2.5,3.1c-2.9,2.6-6.2,3.2-6.2,3.2s-24.4-6.4-52.9-37.8
					c-15.8-17.4-23.5-31.5-27.3-40.7c-3.1-7.4-3.5-11.6-3.5-11.6s0.2-2.7,3-5.4c1.7-1.7,4.5-3.5,8.8-4.7c2.4-0.7,4.6-0.9,6.4-0.8
					c6.9,0.3,9.6,4.8,9.6,4.8s0.9,2.7,2.6,6.9c4.3,10.7,14,31.3,28.5,44.9c20.4,18.9,34,26.1,34,26.1s0.7,2,0.9,4.7
					C406,372.1,405.7,374.7,404.3,377.1z"/>
				<path id="XMLID_66_" fill="#F45BB3" d="M401.8,380.2c-2.9,2.6-6.2,3.2-6.2,3.2s-24.4-6.4-52.9-37.8S312,293.3,312,293.3
					s0.2-2.7,3-5.4c4.9,12.5,18.8,42.9,46.4,64.8C381.3,368.4,394.3,376.3,401.8,380.2z"/>
				<path id="XMLID_64_" fill="#FF97C9" d="M405.8,369.8c-9.1-4.5-27.4-14.8-43.5-31.3c-18.6-19.2-29.1-47.2-32.1-56.1
					c6.9,0.3,9.6,4.8,9.6,4.8S350.6,320,371,339c20.4,18.9,34,26.1,34,26.1S405.7,367.1,405.8,369.8z"/>
				<path id="XMLID_459_" fill="#F45BB3" d="M342.4,294.1c-1.5,1-3.1,2.1-4.8,3.1c-9.8,5.8-17.5,7.4-22.2,7.7
					c-3.1-7.4-3.5-11.6-3.5-11.6s0.2-2.7,3-5.4c1.7-1.7,4.5-3.5,8.8-4.7c2.4-0.7,4.6-0.9,6.4-0.8c6.9,0.3,9.6,4.8,9.6,4.8
					S340.7,289.8,342.4,294.1z"/>
			</g>
			<g id="XMLID_436_">
				<g id="XMLID_55_">
					<path id="XMLID_447_" fill="#F45BB3" d="M324.8,314.7c-2.5,0-4.2-0.4-4.3-0.4c-0.7-0.2-1.1-0.9-1-1.5c0.2-0.7,0.8-1.1,1.5-1
						c0.1,0,7.4,1.6,14.1-2.4c6.6-4,7.3-8.3,7.3-8.3c0.1-0.7,0.7-1.2,1.4-1.1c0.7,0.1,1.2,0.7,1.1,1.4c0,0.2-0.8,5.5-8.5,10.2
						C332.3,314.1,327.9,314.7,324.8,314.7z"/>
				</g>
				<g id="XMLID_56_">
					<path id="XMLID_446_" fill="#F45BB3" d="M340.7,340.9c-1.3,0-2.1-0.2-2.2-0.2c-0.7-0.2-1.1-0.9-0.9-1.6
						c0.2-0.7,0.9-1.1,1.6-0.9c0.2,0.1,4.9,1.2,11.2-3.9c5.8-4.7,5.9-8.9,5.9-9.1c0-0.7,0.6-1.3,1.3-1.3c0,0,0,0,0,0
						c0.7,0,1.3,0.6,1.3,1.3c0,0.2-0.1,5.6-6.9,11.1C347.3,340.2,343.1,340.9,340.7,340.9z"/>
				</g>
				<g id="XMLID_57_">
					<path id="XMLID_445_" fill="#F45BB3" d="M355.6,357.7C355.6,357.7,355.6,357.7,355.6,357.7c-0.8,0-1.3-0.6-1.3-1.3
						c0-0.7,0.6-1.3,1.3-1.3c0.2,0,6.2,0,10.6-4.4c4.3-4.3,3.7-9.1,3.7-9.3c-0.1-0.7,0.4-1.3,1.1-1.4c0.7-0.1,1.3,0.4,1.4,1.1
						c0,0.3,0.8,6.3-4.4,11.5C363,357.6,356.4,357.7,355.6,357.7z"/>
				</g>
				<g id="XMLID_59_">
					<path id="XMLID_444_" fill="#F45BB3" d="M374.8,372.5c-0.2,0-0.3,0-0.4,0c-0.7-0.1-1.2-0.7-1.2-1.4c0.1-0.7,0.7-1.2,1.4-1.2
						c0.2,0,4.5,0.2,8.7-5c3.2-3.9,2.1-9.9,2.1-10c-0.1-0.7,0.3-1.4,1-1.5c0.7-0.1,1.4,0.3,1.5,1c0.1,0.3,1.3,7.2-2.6,12.1
						C380.8,372.1,376.1,372.5,374.8,372.5z"/>
				</g>
			</g>
		</g>
	</g>
</g>
<g id="RIGHT_LEG">
	<g id="XMLID_129_">
		<g id="XMLID_44_">
			<path id="XMLID_60_" fill="#1C3177" d="M288.1,437.2c-5.2,1.6-21.8,2.3-35.2,2.1c-12.2-0.2-17.7-2.2-13.4-6.8
				c0.4-0.5,1-1,1.7-1.5c7.1-5.7,24.2-10.5,32.3-11.1c7.6-0.6,14.3-1.5,15.7,1.3c0.9,1.8,1.9,5.3,2.1,8.6
				C291.5,433.2,290.8,436.4,288.1,437.2z"/>
			<path id="XMLID_58_" fill="#0E2566" d="M288.1,437.2c-5.2,1.6-21.8,2.3-35.2,2.1c-12.2-0.2-17.7-2.2-13.4-6.8
				c3.5,1,10.7,2.3,24,1.9c16-0.5,23.5-2.4,27.7-4.6C291.5,433.2,290.8,436.4,288.1,437.2z"/>
			<path id="XMLID_45_" fill="#0E2566" d="M268.9,420.7c-8.1,1-15.7,6.3-5.7,6.9c11.9,0.7,26.2-4.7,25-6.5
				C287,419.2,277.5,419.6,268.9,420.7z"/>
		</g>
		<g id="XMLID_448_">
			<path id="XMLID_464_" fill="#FC75BC" d="M287.2,420.2c0,0-1.1,2.5-6.6,4.5c-0.4,0.2-0.9,0.3-1.5,0.5c-3.6,1.1-7.6,0.9-10.6,0.4
				c-2.5-0.4-4.2-0.9-4.2-0.9s-11.7-23.6-15.7-44.9c-4-21.3-6.7-38.6-1.4-60.8c1.2-4.8,2.2-8.7,3.2-11.9c3.5-11.5,5.8-13.6,5.8-13.6
				s2-0.6,4.9-1c4.1-0.6,10-0.6,14.1,2.4c1.1,0.8,2,1.6,2.9,2.4c4.6,4.3,5.8,8.4,5.8,8.4s-3.2,4.5-6.4,13.1
				c-3.1,8.4-6.3,20.7-6.4,36.6C270.8,387.5,287.2,420.2,287.2,420.2z"/>
			<path id="XMLID_51_" fill="#F45BB3" d="M287.2,420.2c0,0-1.1,2.5-6.6,4.5c-5.3-10.4-12.8-28.9-16.9-56.7
				c-5.5-38.1,9-62.9,14.4-70.6c4.6,4.3,5.8,8.4,5.8,8.4s-12.5,17.6-12.8,49.7S287.2,420.2,287.2,420.2z"/>
			<path id="XMLID_49_" fill="#FF97C9" d="M268.6,425.6c-2.5-0.4-4.2-0.9-4.2-0.9s-11.7-23.6-15.7-44.9c-4-21.3-6.7-38.6-1.4-60.8
				c5.3-22.1,9-25.5,9-25.5s2-0.6,4.9-1c-3.8,7.9-12.7,29.7-10.9,58.4C252.1,379.9,263.9,413.3,268.6,425.6z"/>
			<g id="XMLID_435_">
				<g id="XMLID_37_">
					<path id="XMLID_443_" fill="#F45BB3" d="M273.5,328.4c-0.4,0-0.8-0.2-1-0.5c0,0-3-4-10.5-5.9c-7.7-1.9-12.9-0.6-12.9-0.6
						c-0.7,0.2-1.4-0.2-1.6-0.9c-0.2-0.7,0.2-1.4,0.9-1.6c0.2-0.1,5.8-1.5,14.2,0.6c8.5,2.1,11.8,6.7,12,6.9
						c0.4,0.6,0.3,1.4-0.3,1.8C274,328.3,273.7,328.4,273.5,328.4z"/>
				</g>
				<g id="XMLID_40_">
					<path id="XMLID_442_" fill="#F45BB3" d="M269.9,354.8c-0.3,0-0.7-0.1-0.9-0.4c0,0-3.4-3.3-10.6-3.9c-7.3-0.5-11.8,1.6-11.8,1.6
						c-0.6,0.3-1.4,0-1.7-0.6c-0.3-0.6-0.1-1.4,0.6-1.7c0.2-0.1,5.1-2.5,13.2-1.9c8.2,0.6,12.1,4.5,12.3,4.6c0.5,0.5,0.5,1.3,0,1.8
						C270.5,354.7,270.2,354.8,269.9,354.8z"/>
				</g>
				<g id="XMLID_39_">
					<path id="XMLID_440_" fill="#F45BB3" d="M258.7,380.7c-5.5,0-9.1-1.4-9.2-1.5c-0.7-0.3-1-1-0.7-1.7c0.3-0.7,1-1,1.7-0.7l0,0
						c0,0,4,1.6,10,1.2c6-0.3,10.5-2.7,10.5-2.7c0.6-0.3,1.4-0.1,1.7,0.5c0.3,0.6,0.1,1.4-0.5,1.7c-0.2,0.1-5,2.6-11.6,3
						C260,380.7,259.3,380.7,258.7,380.7z"/>
				</g>
				<g id="XMLID_42_">
					<path id="XMLID_438_" fill="#F45BB3" d="M264.1,405.6c-4.9,0-7.7-1.5-7.8-1.6c-0.6-0.3-0.9-1.1-0.5-1.7
						c0.3-0.6,1.1-0.8,1.7-0.5c0.1,0,3.7,1.9,10.1,1c6.3-0.9,8.7-3.5,8.7-3.5c0.5-0.5,1.3-0.6,1.8-0.1c0.5,0.5,0.6,1.3,0.1,1.8
						c-0.1,0.1-2.9,3.3-10.3,4.3C266.6,405.6,265.3,405.6,264.1,405.6z"/>
				</g>
			</g>
			<path id="XMLID_458_" fill="#F45BB3" d="M284,305.7c0,0-3.2,4.5-6.4,13.1c-1.4-0.8-2.9-1.6-4.5-2.5c-9.6-5.4-17.7-8-22.6-9.2
				c3.5-11.5,5.8-13.6,5.8-13.6s2-0.6,4.9-1c4.1-0.6,10-0.6,14.1,2.4c1.1,0.8,2,1.6,2.9,2.4C282.8,301.7,284,305.7,284,305.7z"/>
		</g>
	</g>
</g>
<g id="RIGHT_ARM">
	<g id="XMLID_122_">
		<g id="XMLID_449_">
			<path id="XMLID_38_" fill="#FC75BC" d="M258.3,199.6c0,0-9.9,25.3-14.1,42s-13.5,52.3-13.5,52.3s-2.7,2.4-6.5,3.5
				c-1.6,0.4-3.3,0.7-5.1,0.4c-6.1-1-9.9-5.8-9.9-5.8s7.7-21.8,13.5-43.6C228.5,226.5,240,188,240,188c7.1-0.8,11.5,0.3,14.2,2
				C259.6,193.5,258.3,199.6,258.3,199.6z"/>
			<path id="XMLID_36_" fill="#F45BB3" d="M258.3,199.6c0,0-9.9,25.3-14.1,42s-13.5,52.3-13.5,52.3s-2.7,2.4-6.5,3.5
				c2.2-8.3,6-22.5,10.3-39.7c6.1-24.1,16.9-58.7,19.6-67.6C259.6,193.5,258.3,199.6,258.3,199.6z"/>
			<g id="XMLID_12_">
				<g id="XMLID_6_">
					<path id="XMLID_452_" fill="#F45BB3" d="M232.8,280.1c-0.5,0-1-0.3-1.2-0.8c0,0-1.8-4.6-5.7-5.5c-5-1.2-7.8,0-7.8,0
						c-0.6,0.3-1.4,0-1.7-0.6c-0.3-0.6,0-1.4,0.6-1.7c0.1-0.1,3.5-1.7,9.5-0.2c5.2,1.2,7.4,6.9,7.5,7.1c0.3,0.7-0.1,1.4-0.7,1.7
						C233.1,280.1,233,280.1,232.8,280.1z"/>
				</g>
				<g id="XMLID_29_">
					<path id="XMLID_451_" fill="#F45BB3" d="M240.5,251.6c-0.5,0-0.9-0.3-1.2-0.7c0,0-2.3-4.6-6-5.5c-4.8-1.1-7.4,0-7.4,0
						c-0.6,0.3-1.4,0-1.7-0.6s0-1.4,0.6-1.7c0.1-0.1,3.4-1.6,9.2-0.2c4.9,1.2,7.6,6.6,7.7,6.8c0.3,0.6,0,1.4-0.6,1.7
						C240.9,251.5,240.7,251.6,240.5,251.6z"/>
				</g>
				<g id="XMLID_30_">
					<path id="XMLID_450_" fill="#F45BB3" d="M248.2,223.5c-0.5,0-0.9-0.3-1.1-0.7c0,0-2-4-5.8-5c-4.8-1.2-7.5,0-7.5,0
						c-0.6,0.3-1.4,0-1.7-0.6c-0.3-0.6,0-1.4,0.6-1.7c0.1-0.1,3.4-1.6,9.2-0.2c4.9,1.2,7.3,6.1,7.4,6.3c0.3,0.6,0,1.4-0.6,1.7
						C248.6,223.4,248.4,223.5,248.2,223.5z"/>
				</g>
			</g>
		</g>
		<g id="XMLID_453_">
			<path id="XMLID_462_" fill="#1C3177" d="M230.7,293.8l-3.2,20.5c0,0-1.9,0.7-4.7,1.3c-1.9,0.5-4.3,0.9-6.6,1
				c-6.8,0.4-9.8-0.6-9.8-0.6s-1.2-2.6,0-11.4c1.1-8.8,3.1-13.6,3.1-13.6s3.2-1.8,9.9-1.2c2.5,0.2,4.5,0.7,6.1,1.2
				C229.1,292.2,230.5,293.6,230.7,293.8C230.7,293.8,230.7,293.8,230.7,293.8z"/>
			<path id="XMLID_460_" fill="#0E2566" d="M230.7,293.8l-3.2,20.5c0,0-1.9,0.7-4.7,1.3l2.7-24.6
				C229.1,292.2,230.5,293.6,230.7,293.8C230.7,293.8,230.7,293.8,230.7,293.8z"/>
			<path id="XMLID_31_" fill="#1C3177" d="M225.7,300.1l6.7,8.1c0,0,2.5,4.1,5.9,1.9c2.3-1.6-0.3-5-1.1-6.4c-0.2-0.4-3.6-5-5.8-8
				c-1.5-2-4.5-1.9-5.8,0.2C224.8,296.8,224.6,298.2,225.7,300.1z"/>
			<path id="XMLID_27_" fill="#1C3177" d="M206.5,315c0,0,1,8.6,2.4,12.6c1.4,4.1,3.6,8.5,4.9,9.1c1.3,0.6,2.4-0.7,2.6-2.7
				c0.2-2-1.4-5.7-2.1-10.4c-0.7-4.7-1.3-8.3-1.3-8.3S209.1,311.5,206.5,315z"/>
			<path id="XMLID_33_" fill="#1C3177" d="M213.2,315.1c0,0,1.9,9.1,3.7,13.3c1.8,4.2,4.5,8.8,5.8,9.3c1.3,0.5,2.3-0.9,2.3-3.1
				c0-2.2-2-5.9-3.2-10.9s-1.1-9.1-1.1-9.1S215.4,311.1,213.2,315.1z"/>
			<path id="XMLID_35_" fill="#1C3177" d="M220.7,313.7c0,0,1.9,8.5,3.7,12.4c1.8,3.9,4.5,8.2,5.8,8.7c1.3,0.5,2.3-0.9,2.3-2.9
				c0-2-2-5.5-3.2-10.2c-1.2-4.6-2.1-8.1-2.1-8.1S222.9,310,220.7,313.7z"/>
		</g>
	</g>
</g>
<g id="BODY">
	<g id="XMLID_138_">
		<g id="XMLID_4_">
			<g id="XMLID_2_">
				<g id="XMLID_32_">
					<path id="XMLID_50_" fill="#FFB3DB" d="M352.9,258.1c0,0-0.8,3.1-2.9,7.9c-1.8,4-4.5,9.3-8.5,14.8c-3.1,4.3-11.2,11.5-22.5,17
						c-8.6,4.2-19,7.4-30.5,7.6c-21.5,0.3-33.3-4.9-39.3-9.2c-4.1-3-5.6-5.5-5.6-5.5l32.1-9.6L352.9,258.1z"/>
					<path id="XMLID_46_" fill="#FC75BC" d="M319,297.8c-8.6,4.2-19,7.4-30.5,7.6c-21.5,0.3-33.3-4.9-39.3-9.2
						c-4.1-3-5.6-5.5-5.6-5.5l32.1-9.6c5,3.6,23.4,1.2,45,6.2C322.4,287.7,321.6,294.4,319,297.8z"/>
					<path id="XMLID_47_" fill="#1C3177" d="M352.9,258.1c0,0-0.8,3.1-2.9,7.9c-2.1,2.4-4.5,5-7.4,7.8c-11.4,11.1-22,17.6-22,17.6
						s-12.3,4.3-32.7,5.4c-15,0.8-31.3-0.2-38.9-0.7c-4.1-3-5.6-5.5-5.6-5.5L352.9,258.1z"/>
				</g>
				<g id="XMLID_431_">
					<path id="XMLID_17_" fill="#FC75BC" d="M321.2,286.8l-1.3,0.3c-4.5,1.2-20.5,5-41.1,6.1c-8.5,0.4-15.4,0.3-20.7-0.2
						c-9.9-0.8-14.5-2.4-14.5-2.4l-8-107.7l7-1.3L284,174c0,0,7.7,22.4,18.4,53.7C313,258.9,321.2,286.8,321.2,286.8z"/>
					<path id="XMLID_441_" fill="#FF97C9" d="M352.9,258.1c0,0-3.5,4.3-10.6,11.6l-0.1,0.1c-7.2,7.4-21,17-21,17l-0.1,0
						c-2.4-8.5-7.1-24.3-12.5-40.5C300.6,222.6,284,174,284,174l10.4-14.4l5.6-7.8c0,0,14.8,14.1,28.5,42S352.9,258.1,352.9,258.1z"
						/>
					<polygon id="XMLID_18_" fill="#FC75BC" points="300,151.8 284,174 235.5,182.9 253.2,164 284.2,155.9 					"/>
					<path id="XMLID_15_" fill="#F45BB3" d="M258.1,293.1c-9.9-0.8-14.5-2.4-14.5-2.4l-8-107.7l7-1.3L258.1,293.1z"/>
					<path id="XMLID_14_" fill="#F45BB3" d="M284.2,155.9c-1.6,3.1-3.8,6.6-6.9,10c-7.6,8.4-16,12-16,12l-25.8,5l17.6-18.9
						L284.2,155.9z"/>
					<path id="XMLID_439_" fill="#FFB3DB" d="M352.9,258.1c0,0-3.5,4.3-10.6,11.6c-4.3-14.9-10.4-34-18.5-54.1
						c-11.1-27.8-22.2-45.9-29.4-56l5.6-7.8c0,0,14.8,14.1,28.5,42S352.9,258.1,352.9,258.1z"/>
					<g id="XMLID_457_">
						<path id="XMLID_85_" fill="#F45BB3" d="M303.6,269.7c0.2,1.4-0.8,2.6-2.2,2.6s-2.6-1.1-2.8-2.6c-0.2-1.4,0.8-2.6,2.2-2.6
							S303.4,268.3,303.6,269.7z"/>
						<path id="XMLID_461_" fill="#F45BB3" d="M289.7,209.5c0,1.4-1,2.6-2.4,2.6s-2.5-1.2-2.6-2.6c0-1.4,1-2.6,2.4-2.6
							S289.6,208,289.7,209.5z"/>
						<path id="XMLID_468_" fill="#FC75BC" d="M245.9,216.6c0,1.3-0.9,2.3-2.1,2.3s-2.2-1-2.2-2.3c0-1.3,0.9-2.3,2.1-2.3
							S245.9,215.3,245.9,216.6z"/>
						<path id="XMLID_469_" fill="#FC75BC" d="M253,274.3c0,1.3-0.9,2.3-2.1,2.3c-1.2,0-2.2-1-2.2-2.3s0.9-2.3,2.1-2.3
							C251.9,272,252.9,273,253,274.3z"/>
					</g>
					<g id="XMLID_472_">
						<path id="XMLID_470_" fill="#FC75BC" d="M326,277.7c0.1,1.5-0.9,2.7-2.3,2.7c-1.4,0-2.6-1.2-2.7-2.7c-0.1-1.5,0.9-2.7,2.3-2.7
							C324.7,274.9,325.9,276.2,326,277.7z"/>
						<path id="XMLID_471_" fill="#FC75BC" d="M350.2,256.1c0.1,1.1-0.7,2.1-1.8,2.1c-1,0-2-0.9-2-2.1c-0.1-1.1,0.7-2.1,1.8-2.1
							C349.2,254.1,350.2,255,350.2,256.1z"/>
					</g>
				</g>
			</g>
			<g id="XMLID_3_">
				<g id="XMLID_412_">
					<path id="XMLID_5_" fill="#F45BB3" d="M318.5,184.3c1.4,9.1-3.2,16.4-10.4,16.4c-7.2,0-14.2-7.4-15.6-16.4
						c-1.4-9.1,3.2-16.4,10.4-16.4C310.1,167.8,317.1,175.2,318.5,184.3z"/>
					<path id="XMLID_7_" fill="#FF97C9" d="M317.8,180.8c2.2,7.1,0,13.6-4.8,14.4c-4.8,0.8-10.5-4.3-12.6-11.5
						c-2.2-7.1,0-13.6,4.8-14.4C310,168.5,315.6,173.7,317.8,180.8z"/>
					<path id="XMLID_430_" fill="#F45BB3" d="M313.5,181.7c0.9,2.9,0,5.6-2,5.9c-2,0.3-4.3-1.8-5.2-4.7c-0.9-2.9,0-5.6,2-5.9
						C310.3,176.6,312.6,178.7,313.5,181.7z"/>
				</g>
				<g id="XMLID_8_">
					<path id="XMLID_414_" fill="#1C3177" d="M343.6,196.4c-1.2,0-2.6-0.2-4-0.7c-4.2-1.6-5.4-2.7-9.9-7c-1-1-2.2-2.1-3.6-3.4
						c-6.5-6.1-13.2-1.6-13.5-1.4c-0.9,0.6-2.1,0.4-2.7-0.5c-0.6-0.9-0.4-2.1,0.5-2.7c3.3-2.3,11.4-4.8,18.3,1.8
						c1.4,1.3,2.6,2.5,3.6,3.4c4.3,4.2,5.1,4.9,8.6,6.2c5,1.8,7.7-1.8,8-2.2c0.6-0.9,1.8-1.1,2.7-0.5s1.1,1.8,0.5,2.7
						C351,193.9,347.9,196.4,343.6,196.4z"/>
				</g>
			</g>
			<g id="XMLID_1_">
				<g id="XMLID_28_">
					<polygon id="XMLID_422_" fill="#0E2566" points="298.9,264.3 298.4,264.4 285.1,265.9 274.1,267.1 271.6,267.4 263.1,268.3 
						262.5,268.4 260.9,268.5 251.5,269.6 250.2,259.2 245.5,221.1 254.2,219.7 262.6,218.4 262.7,218.4 271,217.1 287,214.6 
						289.6,225.8 289.9,226.8 292.4,237.6 292.9,239.4 295.6,250.7 298.8,263.9 					"/>
					<polygon id="XMLID_418_" fill="#1C3177" points="298.9,264.3 298.4,264.4 285.1,265.9 274.1,267.1 271.6,267.4 263.1,268.3 
						262.5,268.4 260.9,268.5 256.2,231 265,229.7 273.3,228.4 273.4,228.3 281.8,227 289.6,225.8 289.9,226.8 292.4,237.6 
						292.9,239.4 295.6,250.7 298.8,263.9 					"/>
				</g>
				<g id="XMLID_34_">
					<path id="XMLID_425_" fill="#D2E9FF" d="M284.4,259.5c0,2.4,1.1,4.6,2.8,6l-9.4,1l-2.2,0.2l-7.3,0.8l-0.2-3.9l-0.3-7.1l6.5-0.2
						c0.2-1,0.4-2,0.8-3l-6.2-4.1l6.7-10.1l6.8,5.1c0.8-0.5,1.6-0.9,2.4-1.3l-2-8.7l5.2-1.3l3.1-0.8l2.2,9.2l0.4,1.6l2.3,9.7
						c-1.1-0.7-2.5-1-3.9-1C288,251.6,284.4,255.2,284.4,259.5z"/>
					<g id="XMLID_146_">
						<polygon id="XMLID_23_" fill="#D2E9FF" points="264.6,232.7 256.3,233.9 254.2,219.7 262.6,218.4 						"/>
						<polygon id="XMLID_24_" fill="#AED8FC" points="272.3,226.9 263.9,228 262.6,218.4 270.9,217.1 						"/>
					</g>
					<polygon id="XMLID_25_" fill="#AED8FC" points="262.5,268.4 251.5,269.6 250.2,259.2 261.2,257.9 					"/>
					<path id="XMLID_423_" fill="#AED8FC" d="M284.4,259.5c0,2.4,1.1,4.6,2.8,6l-9.4,1l-2.2,0.2l-7.3,0.8l-0.1-1.9l11.9-1.1
						c0,0-1.9-6.4,1.6-12.4c3.5-6,9.2-6,9.2-6l-2.8-13.3l3.1-0.8l2.2,9.2l0.4,1.6l2.3,9.7c-1.1-0.7-2.5-1-3.9-1
						C288,251.6,284.4,255.2,284.4,259.5z"/>
				</g>
			</g>
		</g>
		<g id="XMLID_121_">
			<g id="XMLID_13_">
				<path id="XMLID_413_" fill="#AED8FC" d="M227.2,238.2c-6.6,0-10.4-4.1-11.5-6.6c-0.5-1,0-2.1,0.9-2.6c1-0.5,2.1,0,2.6,0.9
					c0.1,0.2,2.8,5.4,10.1,4.2c4.2-0.7,5.6-2.6,7.2-4.7c1.4-1.9,3-4.1,6.5-5.1c5-1.5,10,2.2,10.2,2.4c0.8,0.6,1,1.9,0.4,2.7
					c-0.6,0.8-1.8,1-2.7,0.4c-0.1,0-3.7-2.7-6.8-1.8c-2.2,0.7-3.2,2-4.5,3.7c-1.7,2.4-3.9,5.3-9.7,6.3
					C229,238.2,228.1,238.2,227.2,238.2z"/>
			</g>
			<g id="XMLID_474_">
				<path id="XMLID_475_" fill="#FEC272" d="M234.4,249c-5.9,2.9-11.1,1-13.3-0.7c-0.8-0.7-1-1.9-0.3-2.7c0.7-0.8,1.9-1,2.7-0.3
					c0.2,0.1,4.9,3.6,11-0.8c3.5-2.5,3.9-4.8,4.3-7.5c0.4-2.4,0.9-5,3.5-7.5c3.8-3.6,9.9-2.5,10.2-2.4c1,0.2,1.7,1.2,1.5,2.2
					c-0.2,1-1.2,1.7-2.2,1.5c-0.1,0-4.5-0.8-6.9,1.5c-1.7,1.6-2,3.3-2.3,5.4c-0.5,2.9-1.1,6.5-5.9,10
					C236,248.1,235.2,248.6,234.4,249z"/>
			</g>
		</g>
	</g>
</g>
<g id="HEAD">
	<g id="XMLID_494_">
		<path id="XMLID_488_" fill="#FC75BC" d="M283,130.3c0,0-5,9.8-14.3,19.2c-4.5,4.6-10,9-16.5,12.2c-8.9,4.4-17.2,7.6-23.7,9.7
			c-8.2,2.7-13.5,3.8-13.5,3.8s-17.6-29.5-20.2-51.9c-1.8-15.9,3.6-27.1,13.1-34.6c2.4-1.9,5.1-3.6,8-5c1.9-0.9,3.8-1.7,5.8-2.5
			c17.6-6.4,34,5.5,42.3,15.7C272.4,107.2,283,130.3,283,130.3z"/>
		<path id="XMLID_486_" fill="#F45BB3" d="M228.5,171.4c-8.2,2.7-13.5,3.8-13.5,3.8s-17.6-29.5-20.2-51.9
			c-1.8-15.9,3.6-27.1,13.1-34.6c-1.7,8.7-2.4,20.1,1.2,32.1C213.6,135.3,222.1,156.2,228.5,171.4z"/>
		<g id="XMLID_493_">
			
				<ellipse id="XMLID_67_" transform="matrix(0.9276 -0.3736 0.3736 0.9276 -32.6695 95.5997)" fill="#FF97C9" cx="230.3" cy="132.1" rx="14.4" ry="18.3"/>
			
				<ellipse id="XMLID_473_" transform="matrix(0.9276 -0.3736 0.3736 0.9276 -32.9454 95.0316)" fill="#1C3177" cx="228.7" cy="132.5" rx="12.5" ry="16"/>
			
				<ellipse id="XMLID_491_" transform="matrix(0.9276 -0.3736 0.3736 0.9276 -32.9279 94.7445)" fill="#0E2566" cx="227.9" cy="132.3" rx="10.4" ry="13.2"/>
		</g>
		<g id="XMLID_490_">
			
				<ellipse id="XMLID_72_" transform="matrix(0.9276 -0.3736 0.3736 0.9276 -39.4917 86.3928)" fill="#FC75BC" cx="203.1" cy="145.1" rx="7.5" ry="15"/>
			
				<ellipse id="XMLID_111_" transform="matrix(0.9276 -0.3736 0.3736 0.9276 -40.0156 85.9349)" fill="#1C3177" cx="201.7" cy="146.2" rx="7" ry="13.9"/>
			
				<ellipse id="XMLID_492_" transform="matrix(0.9276 -0.3736 0.3736 0.9276 -40.0942 85.743)" fill="#0E2566" cx="201.1" cy="146.3" rx="5.6" ry="11.2"/>
		</g>
		<g id="XMLID_483_">
			<g id="XMLID_479_">
				<path id="XMLID_83_" fill="#FC75BC" d="M256.7,62.5l-5.6,23.9l-8.6-0.9l-13.9-1.4l-7-0.7l15.6-28.9c0,0,1.6-0.7,3.9-1.2
					c2.4-0.6,5.4-0.8,8,0.2c1.5,0.6,2.8,1.7,3.8,2.8C255.4,59.1,256.7,62.5,256.7,62.5z"/>
				<path id="XMLID_80_" fill="#F45BB3" d="M256.7,62.5l-5.6,23.9l-8.6-0.9l10.4-29.1C255.4,59.1,256.7,62.5,256.7,62.5z"/>
				<path id="XMLID_79_" fill="#FF97C9" d="M241.1,53.3l-12.5,30.8l-7-0.7l15.6-28.9C237.2,54.5,238.8,53.8,241.1,53.3z"/>
			</g>
			<g id="XMLID_480_">
				<g id="XMLID_71_">
					<path id="XMLID_489_" fill="#F45BB3" d="M253.5,69.4c-0.6,0-1.1-0.4-1.2-0.9c-0.1-0.2-1.5-4.5-8.1-6.3
						c-5.2-1.5-8.3,0.2-8.3,0.3c-0.6,0.4-1.4,0.1-1.8-0.5c-0.4-0.6-0.1-1.4,0.5-1.8c0.2-0.1,4.1-2.3,10.3-0.5c8,2.3,9.7,7.8,9.8,8.1
						c0.2,0.7-0.2,1.4-0.9,1.6C253.8,69.4,253.6,69.4,253.5,69.4z"/>
				</g>
				<g id="XMLID_74_">
					<path id="XMLID_487_" fill="#F45BB3" d="M251.3,79.4c-0.6,0-1.1-0.4-1.3-1c0-0.2-1.2-5-8.5-7.2c-7.3-2.2-10.3,0.5-10.5,0.7
						c-0.5,0.5-1.3,0.5-1.8,0c-0.5-0.5-0.5-1.3,0-1.8c0.2-0.2,4.1-3.9,13-1.3c8.8,2.7,10.2,8.8,10.2,9.1c0.1,0.7-0.3,1.4-1,1.5
						C251.5,79.4,251.4,79.4,251.3,79.4z"/>
				</g>
			</g>
		</g>
		<path id="XMLID_84_" fill="#FF97C9" d="M283,130.3c0,0-5,9.8-14.3,19.2c-8.3-17.2-22.9-45.6-33.1-55.6
			c-6.8-6.7-13.9-9.3-19.7-10.1c1.9-0.9,3.8-1.7,5.8-2.5c17.6-6.4,34,5.5,42.3,15.7C272.4,107.2,283,130.3,283,130.3z"/>
		<g id="XMLID_87_">
			<g id="XMLID_86_">
				<path id="XMLID_503_" fill="#FC75BC" d="M290.5,137.7c0,0-9.6,14.7-25.4,26c-2.1,1.5-4.4,3-6.7,4.3c-8.4,4.9-17.3,8.6-24.7,11.3
					c-9.9,3.6-17.1,5.3-17.1,5.3l-5.1-15.3c0,0,8.3-3.3,19-8.3c1.2-0.6,2.4-1.2,3.7-1.8c12.4-6,17.1-9.8,17.1-9.8l-1.3-13.7
					c0,0,2.3-1.5,5.5-3.7c3.5-2.4,8-5.6,11.2-8.3c6.1-5.1,8.3-9.4,8.3-9.4s5.3,6.5,9.3,12.8C288.3,133.3,290.5,137.7,290.5,137.7z"
					/>
				<path id="XMLID_82_" fill="#FF97C9" d="M290.5,137.7c0,0-9.6,14.7-25.4,26l-9.7-31.6c3.5-2.4,8-5.6,11.2-8.3
					c6.1-5.1,8.3-9.4,8.3-9.4s5.3,6.5,9.3,12.8C288.3,133.3,290.5,137.7,290.5,137.7z"/>
			</g>
			<path id="XMLID_501_" fill="#F45BB3" d="M233.8,179.3c-9.9,3.6-17.1,5.3-17.1,5.3l-5.1-15.3c0,0,8.3-3.3,19-8.3L233.8,179.3z"/>
		</g>
		<g id="XMLID_477_">
			<path id="XMLID_70_" fill="#F45BB3" d="M275.8,114.1c1.4,8.7-3.1,15.7-9.9,15.7s-13.5-7-14.9-15.7c-1.4-8.7,3.1-15.7,9.9-15.7
				C267.7,98.4,274.4,105.4,275.8,114.1z"/>
			<path id="XMLID_68_" fill="#FF97C9" d="M275.8,110.9c2.3,7.7,0,14.7-5.2,15.6c-5.2,0.9-11.4-4.7-13.7-12.5s0-14.7,5.2-15.6
				C267.3,97.6,273.4,103.2,275.8,110.9z"/>
			<path id="XMLID_478_" fill="#FC75BC" d="M272.1,110.1c1.1,3.5,0,6.6-2.3,7c-2.3,0.4-5.1-2.1-6.2-5.6c-1.1-3.5,0-6.6,2.3-7
				C268.3,104.2,271.1,106.7,272.1,110.1z"/>
		</g>
	</g>
</g>
<g id="EFFECT_3">
	<g id="XMLID_120_">
		<g id="XMLID_21_">
			<path id="XMLID_429_" fill="#FEC272" d="M217,226.2c-0.4-0.2-0.6-0.5-0.7-0.9l-0.9-4.4c-0.1-0.7,0.3-1.4,1-1.5
				c0.7-0.1,1.4,0.3,1.5,1l0.9,4.4c0.1,0.7-0.3,1.4-1,1.5C217.5,226.3,217.2,226.3,217,226.2z"/>
		</g>
		<g id="XMLID_22_">
			<path id="XMLID_428_" fill="#FEC272" d="M212.8,228.7c-0.1,0-0.1,0-0.2-0.1l-6.4-3c-0.6-0.3-0.9-1-0.7-1.7c0.3-0.6,1-0.9,1.7-0.7
				l6.4,3c0.6,0.3,0.9,1,0.7,1.7C214.1,228.6,213.4,228.8,212.8,228.7z"/>
		</g>
		<g id="XMLID_26_">
			<path id="XMLID_427_" fill="#FEC272" d="M206.6,235.5c-0.3-0.1-0.5-0.4-0.6-0.7c-0.2-0.7,0.1-1.4,0.8-1.6l5-1.6
				c0.7-0.2,1.4,0.1,1.6,0.8c0.2,0.7-0.1,1.4-0.8,1.6l-5,1.6C207.2,235.7,206.9,235.7,206.6,235.5z"/>
		</g>
	</g>
</g>
<g id="EFFECT_2">
	<g id="XMLID_118_">
		<g id="XMLID_9_">
			<path id="XMLID_417_" fill="#FEC272" d="M354.7,184.3c-0.3,0.1-0.7,0-1-0.1c-0.6-0.4-0.8-1.2-0.4-1.8l2.9-4.9
				c0.4-0.6,1.2-0.8,1.8-0.4c0.6,0.4,0.8,1.2,0.4,1.8l-2.9,4.9C355.3,184,355,184.2,354.7,184.3z"/>
		</g>
		<g id="XMLID_10_">
			<path id="XMLID_416_" fill="#FEC272" d="M356.9,190.5c-0.5,0-1-0.4-1.1-0.9c-0.2-0.7,0.2-1.4,0.9-1.6l8.5-2.6
				c0.7-0.2,1.4,0.2,1.6,0.9c0.2,0.7-0.2,1.4-0.9,1.6l-8.5,2.6C357.2,190.5,357.1,190.6,356.9,190.5z"/>
		</g>
		<g id="XMLID_11_">
			<path id="XMLID_415_" fill="#FEC272" d="M360.1,199.6c-0.1,0-0.2,0-0.4-0.1l-3.5-1.4c-0.7-0.3-1-1-0.7-1.7c0.3-0.7,1-1,1.7-0.7
				l3.5,1.4c0.7,0.3,1,1,0.7,1.7C361.2,199.4,360.6,199.7,360.1,199.6z"/>
		</g>
	</g>
</g>
<g id="EFFECT_1">
	<g id="XMLID_119_">
		<g id="XMLID_16_">
			<path id="XMLID_426_" fill="#FEC272" d="M301.1,134.5c-0.1,0-0.2,0-0.3,0c-0.7-0.2-1.1-0.8-1-1.5l2.3-10.1c0.2-0.7,0.8-1.1,1.5-1
				c0.7,0.2,1.1,0.8,1,1.5l-2.3,10.1C302.2,134.1,301.7,134.5,301.1,134.5z"/>
		</g>
		<g id="XMLID_19_">
			<path id="XMLID_424_" fill="#FEC272" d="M307.4,138.8c-0.4,0-0.9-0.2-1.1-0.6c-0.4-0.6-0.2-1.4,0.5-1.8l12-7
				c0.6-0.4,1.4-0.2,1.8,0.5c0.4,0.6,0.2,1.4-0.5,1.8l-12,7C307.8,138.7,307.6,138.8,307.4,138.8z"/>
		</g>
		<g id="XMLID_20_">
			<path id="XMLID_420_" fill="#FEC272" d="M323.1,148.1C323.1,148.1,323.1,148.1,323.1,148.1l-12.9-0.7c-0.7,0-1.3-0.6-1.2-1.3
				c0-0.7,0.6-1.3,1.3-1.2l12.8,0.7c0.7,0,1.3,0.6,1.2,1.3C324.4,147.6,323.8,148.1,323.1,148.1z"/>
		</g>
	</g>
</g>
</svg>
