<?xml version="1.0" encoding="utf-8"?>
<!-- Generator: Adobe Illustrator 19.0.0, SVG Export Plug-In . SVG Version: 6.00 Build 0)  -->
<svg version="1.1" xmlns="http://www.w3.org/2000/svg" xmlns:xlink="http://www.w3.org/1999/xlink" x="0px" y="0px"
	 viewBox="0 0 600 600" enable-background="new 0 0 600 600" xml:space="preserve">
<g id="FLOOR">
	<g id="XMLID_2_">
		<path id="XMLID_222_" fill="#99ADF9" d="M260.6,433.9c0,0-54.3,0-72.1,0s-21.2,4.2-13.7,7.3c7.5,3.1-28.4,1.6-34.5,7.1
			c-6.2,5.5,9.6,7.6,26.7,7.6s123.7,0,137.4,0c13.7,0,10.3-10,2.1-11.3c-8.2-1.3,13.3,0.5,21.5-2.4S330.3,433.9,260.6,433.9z"/>
		<path id="XMLID_383_" fill="#C5D3FF" d="M365.8,452.2c-2.1,2.9-9.1,3.6-21,3.3c-9-0.3-18.4-1-18.4-5.2c0,0,0,0,0,0
			c0-4.2,22.9-3.7,30.9-2.8C364.2,448.3,367,450.5,365.8,452.2z"/>
		<path id="XMLID_387_" fill="#C5D3FF" d="M158.6,438.2c-1.4,2.1-6.2,2.7-14.6,2.7c-6.3,0-12.9-0.3-13.1-3.2c0,0,0,0,0,0
			c-0.2-3,15.9-3.1,21.6-2.6C157.3,435.5,159.4,436.9,158.6,438.2z"/>
	</g>
</g>
<g id="ELECTRIC_PLUG_1">
	<g id="XMLID_400_">
		<g id="XMLID_158_">
			<path id="XMLID_157_" fill="#C5DFFF" d="M510.7,431.4h-35.7c-2.8,0-5.1-2.3-5.1-5.1v-36.9c0-2.8,2.3-5.1,5.1-5.1h35.7
				c2.8,0,5.1,2.3,5.1,5.1v36.9C515.8,429.1,513.5,431.4,510.7,431.4z"/>
			<path id="XMLID_159_" fill="#E1ECFF" d="M509,429.7h-34.3c-2.7,0-4.9-2.2-4.9-4.9v-35.6c0-2.7,2.2-4.9,4.9-4.9H509
				c2.7,0,4.9,2.2,4.9,4.9v35.6C513.9,427.5,511.7,429.7,509,429.7z"/>
		</g>
		<circle id="XMLID_160_" fill="#C5DFFF" cx="492.2" cy="407.4" r="14.4"/>
		<g id="XMLID_163_">
			<path id="XMLID_161_" fill="#1C3177" d="M486.5,413.9L486.5,413.9c-0.5,0-0.9-0.4-0.9-0.9v-11.1c0-0.5,0.4-0.9,0.9-0.9l0,0
				c0.5,0,0.9,0.4,0.9,0.9V413C487.4,413.5,487,413.9,486.5,413.9z"/>
			<path id="XMLID_165_" fill="#1C3177" d="M496.9,413.9L496.9,413.9c-0.5,0-0.9-0.4-0.9-0.9v-11.1c0-0.5,0.4-0.9,0.9-0.9l0,0
				c0.5,0,0.9,0.4,0.9,0.9V413C497.8,413.5,497.4,413.9,496.9,413.9z"/>
		</g>
	</g>
</g>
<g id="ELECTRIC_PLUG_2">
	<g id="XMLID_411_">
		<g id="XMLID_154_">
			<path id="XMLID_384_" fill="#1C3177" d="M405,369c-0.7,0-1.4,0-2.1-0.1c-15.5-1.1-26.1-6.4-43.9-33.5c-6.2-9.4-10.4-19-14.5-28.3
				c-7-15.9-13-29.7-26.6-36.1c-20.9-9.8-41.4,6.4-41.6,6.6c-0.9,0.7-2.2,0.6-2.9-0.3c-0.7-0.9-0.6-2.2,0.3-2.9
				c0.9-0.7,22.7-18,45.9-7.1c15,7,21.6,22.1,28.6,38.1c4,9.2,8.2,18.7,14.2,27.7c16.9,25.6,26.6,30.6,40.8,31.7
				c10.6,0.8,16.3-5.6,21.8-11.9c2-2.2,3.8-4.3,5.9-6.1c8.1-6.9,16.6-8.2,17-8.2c1.1-0.2,2.2,0.6,2.3,1.7c0.2,1.1-0.6,2.2-1.7,2.3
				c-0.1,0-7.7,1.2-14.9,7.3c-1.9,1.6-3.6,3.6-5.5,5.7C422.5,362,416.3,369,405,369z"/>
		</g>
		<g id="XMLID_155_">
			<path id="XMLID_153_" fill="#1C3177" d="M463.2,331.7l8.4-7.1c0.9-0.7,2.1-0.6,2.8,0.3l0,0c0.6,0.8,0.5,1.9-0.3,2.6l-8.5,7.5
				L463.2,331.7z"/>
			<path id="XMLID_156_" fill="#1C3177" d="M458,325.7l8.4-7.1c0.9-0.7,2.1-0.6,2.8,0.3l0,0c0.6,0.8,0.5,1.9-0.3,2.6l-8.5,7.5
				L458,325.7z"/>
			<path id="XMLID_164_" fill="#E1ECFF" d="M469.1,335.4c0,0-3.3,3.9-8.4,8.4c-5.1,4.4-11.7,3.6-14.7,0.2c-0.2-0.2-0.3-0.4-0.5-0.6
				c-2.6-3.6-2.7-8.5,1.2-12c4.1-3.8,10.9-9.2,10.9-9.2l8.2,9.5L469.1,335.4z"/>
			<path id="XMLID_162_" fill="#C5DFFF" d="M469.1,335.4c0,0-3.3,3.9-8.4,8.4c-5.1,4.4-11.7,3.6-14.7,0.2c-0.2-0.2-0.3-0.4-0.5-0.6
				c2.4,0,6.5-0.5,10.2-3c3.1-2.1,7.1-5.8,10-8.7L469.1,335.4z"/>
		</g>
	</g>
</g>
<g id="RIGHT_LEG">
	<g id="XMLID_409_">
		<g id="XMLID_214_">
			<path id="XMLID_223_" fill="#1C3177" d="M316.1,412c-0.1,0-0.3,0-0.4,0c-6.8-0.1-24.5-13.4-29-19.6c-4.6-6.2-8.7-14.1-3.1-19.2
				c1.1-1,2.7-1.7,4.5-2c2.7-0.5,6,0.1,8.8,1.9c4.8,3.1,18.3,18.8,22.1,25.5C322.7,405.2,322.6,411.9,316.1,412z"/>
			<path id="XMLID_221_" fill="#384D89" d="M316.1,412c1-0.6,1.7-1.6,2.3-3.6c1-3.5-2.5-10.5-14-23.9c-6.9-8.1-12.8-11.7-16.3-13.3
				c2.7-0.5,6,0.1,8.8,1.9c4.8,3.1,18.3,18.8,22.1,25.5C322.7,405.2,322.6,411.9,316.1,412z"/>
			<path id="XMLID_213_" fill="#142966" d="M282.3,377.5c1-2.8,6.8-2.3,11.8,2.6c5,4.9,12.6,14.6,10.7,18.8c-1.9,4.2-9.1,0.8-15-5
				C283.9,388.1,280.7,382,282.3,377.5z"/>
		</g>
		<g id="XMLID_406_">
			<g id="XMLID_225_">
				<path id="XMLID_240_" fill="#E1ECFF" d="M294.9,390c-0.2,3.2-1.4,5.2-1.4,5.2s-26.9,12.8-60.6-10.7
					c-34.3-23.9-34.4-53.7-34.4-54c17.6-17.2,37.4,1.7,37.4,1.7s1.2,10.7,6.6,21.5c3.1,6.2,7.6,12.5,14,16.7
					c16,10.5,32.6,7.3,32.6,7.3s3.2,1,5.1,7.1C294.9,386.6,295.1,388.5,294.9,390z"/>
				<path id="XMLID_238_" fill="#C5DFFF" d="M294.9,390c-0.2,3.2-1.4,5.2-1.4,5.2s-26.9,12.8-60.6-10.7
					c-34.3-23.9-34.4-53.7-34.4-54c17.6-17.2,37.4,1.7,37.4,1.7s1.2,10.7,6.6,21.5c-2.7,2-6.1,4.1-8.7,4.9
					c-5.5,1.6-11.4,1.6-11.4,1.6s16.9,25.3,41.9,29.9C277.8,392.4,288.2,391.4,294.9,390z"/>
			</g>
			<g id="XMLID_231_">
				<g id="XMLID_230_">
					<path id="XMLID_408_" fill="#C5DFFF" d="M257.2,395.1c-0.5,0-1-0.3-1.2-0.9c-0.3-0.7,0.1-1.4,0.8-1.7c0.1,0,5.5-2.1,7.1-6.5
						c1.7-4.5,0.3-8.1,0.3-8.1c-0.3-0.7,0.1-1.4,0.7-1.7c0.7-0.3,1.4,0.1,1.7,0.7c0.1,0.2,1.7,4.6-0.3,10c-2.1,5.6-8.4,7.9-8.7,8
						C257.5,395.1,257.3,395.1,257.2,395.1z"/>
				</g>
				<g id="XMLID_233_">
					<path id="XMLID_407_" fill="#C5DFFF" d="M234,384.8c-0.7,0-1.3-0.5-1.3-1.2c0-0.7,0.5-1.3,1.2-1.4c0.1,0,7.1-0.5,10.6-5.1
						c3.5-4.6,3.3-9.3,3.3-9.4c-0.1-0.7,0.5-1.4,1.2-1.4c0.7-0.1,1.4,0.5,1.4,1.2c0,0.2,0.4,5.7-3.8,11.2
						C242.3,384.2,234.4,384.7,234,384.8C234,384.8,234,384.8,234,384.8z"/>
				</g>
			</g>
		</g>
	</g>
</g>
<g id="RIGHT_ARM">
	<g id="XMLID_187_">
		<g id="XMLID_180_">
			<path id="XMLID_201_" fill="#E1ECFF" d="M186.6,365.9c-0.4,0.9-0.9,1.8-1.6,2.7c-1.3,1.7-2.8,2.7-4.2,3.4c-2,1-3.6,1.2-3.6,1.2
				s-14.1-13.7-26.4-38.1c-12.3-24.3-13.2-52.3-13.2-52.3c1.1-0.6,2.2-1.1,3.2-1.5c3.8-1.5,7.3-1.6,10.2-1.2
				c4.4,0.6,7.2,2.5,7.2,2.5s0.8,23.2,9,44.1c8.2,21,20.2,33.4,20.2,33.4S187.9,362.8,186.6,365.9z"/>
			<path id="XMLID_198_" fill="#F8FBFF" d="M186.6,365.9c-4.4-3.9-12.8-12.8-20.9-30c-9.7-20.6-13.6-47.1-14.6-55.8
				c4.4,0.6,7.2,2.5,7.2,2.5s0.8,23.2,9,44.1c8.2,21,20.2,33.4,20.2,33.4S187.9,362.8,186.6,365.9z"/>
			<path id="XMLID_197_" fill="#C5DFFF" d="M180.8,372c-2,1-3.6,1.2-3.6,1.2s-14.1-13.7-26.4-38.1c-12.3-24.3-13.2-52.3-13.2-52.3
				c1.1-0.6,2.2-1.1,3.2-1.5c0.7,9,4,38.6,18,61.8C168.4,358.9,176.1,367.5,180.8,372z"/>
		</g>
		<g id="XMLID_190_">
			<g id="XMLID_203_">
				<path id="XMLID_205_" fill="#E1ECFF" d="M208.7,386.4c0,0-5.2,3.1-11.3,1.7c-6.1-1.4-8.4-3.4-8.4-3.4s-2-3-0.5-4.7
					c0.1-0.1,0.1-0.1,0.2-0.2c1.9-1.7,4.5-2,4.5-2s3.6,2.8,6.2,3.7c2.6,0.9,7.2,0,8.9,1.1c0.8,0.5,0.9,1.4,0.8,2.2
					C209.1,385.7,208.7,386.4,208.7,386.4z"/>
				<path id="XMLID_204_" fill="#C5DFFF" d="M208.7,386.4c0,0-5.2,3.1-11.3,1.7c-6.1-1.4-8.4-3.4-8.4-3.4s-2-3-0.5-4.7
					c1.8,1.7,6.1,5.4,11.1,6c4.1,0.5,7.5-0.4,9.5-1.2C209.1,385.7,208.7,386.4,208.7,386.4z"/>
			</g>
			<g id="XMLID_199_">
				<path id="XMLID_202_" fill="#E1ECFF" d="M206.8,383.6c-5.2,0.8-8.9-0.6-11.7-2.1c-2.8-1.5-3.9-3.4-3.9-3.4s0-2.3,1.5-3.5
					c0.8-0.7,2.1-1,4.1-0.4c0,0,3.9,3.4,10.4,1.1c6.5-2.3,6.1-3.7,7.5-4.1c1-0.3,2.3,1.2,2.6,2.9c0.2,0.8,0.1,1.6-0.2,2.3
					C216,378.6,212,382.7,206.8,383.6z"/>
				<path id="XMLID_200_" fill="#C5DFFF" d="M206.8,383.6c-5.2,0.8-8.9-0.6-11.7-2.1c-2.8-1.5-3.9-3.4-3.9-3.4s0-2.3,1.5-3.5
					c2.4,2.4,7.6,6.7,13.3,5.6c5.6-1.1,9.6-4.4,11.4-6.1c0.2,0.8,0.1,1.6-0.2,2.3C216,378.6,212,382.7,206.8,383.6z"/>
			</g>
			<g id="XMLID_193_">
				<path id="XMLID_196_" fill="#E1ECFF" d="M205.7,377c-5,0.8-8.5-0.6-11.1-2c-2.7-1.4-3.7-3.2-3.7-3.2s0-2.2,1.4-3.4
					c0.8-0.7,2-1,3.9-0.4c0,0,3.7,3.2,9.9,1c6.2-2.2,5.8-3.5,7.1-3.9c0.9-0.3,2.2,1.2,2.5,2.8c0.2,0.7,0.1,1.5-0.2,2.2
					C214.4,372.3,210.6,376.2,205.7,377z"/>
				<path id="XMLID_195_" fill="#C5DFFF" d="M205.7,377c-5,0.8-8.5-0.6-11.1-2c-2.7-1.4-3.7-3.2-3.7-3.2s0-2.2,1.4-3.4
					c2.2,2.3,7.2,6.4,12.6,5.3c5.3-1.1,9.1-4.2,10.8-5.8c0.2,0.7,0.1,1.5-0.2,2.2C214.4,372.3,210.6,376.2,205.7,377z"/>
			</g>
			<g id="XMLID_206_">
				<path id="XMLID_208_" fill="#E1ECFF" d="M205,372c-4.3,1.4-7.7,0.7-10.2-0.2c-2.6-0.9-3.7-2.3-3.7-2.3s-0.3-2,0.9-3.2
					c0.6-0.7,1.7-1.1,3.5-0.9c0,0,3.7,2.3,9-0.4c5.3-2.8,4.8-3.9,5.9-4.5c0.8-0.4,2.1,0.7,2.6,2.1c0.2,0.6,0.3,1.3,0.1,2
					C212.3,366.6,209.3,370.6,205,372z"/>
				<path id="XMLID_207_" fill="#C5DFFF" d="M205,372c-4.3,1.4-7.7,0.7-10.2-0.2c-2.6-0.9-3.7-2.3-3.7-2.3s-0.3-2,0.9-3.2
					c2.3,1.7,7.2,4.7,11.9,3c4.7-1.7,7.7-5,9-6.7c0.2,0.6,0.3,1.3,0.1,2C212.3,366.6,209.3,370.6,205,372z"/>
			</g>
			<path id="XMLID_399_" fill="#E1ECFF" d="M201.5,367.2c0,0-0.3,1.7-1,4c-0.8,2.6-2,5.8-3.8,8.3c-0.8,1-1.6,1.9-2.4,2.6
				c-2.7,2.5-5.2,3-5.2,3s-7.7-7.4-9.9-9.9c-2.2-2.4-4-5-4-5s-0.6-2.8,0-5.8c0.3-1.6,0.9-3.3,2.1-4.6c0.6-0.6,1.3-1.1,1.9-1.5
				c3.3-1.7,7.1-0.4,7.1-0.4s7.4,4.6,10.7,6.4C200.3,366.1,201.5,367.2,201.5,367.2z"/>
			<path id="XMLID_393_" fill="#F8FBFF" d="M201.5,367.2c0,0-0.3,1.7-1,4c-1.5-0.8-4.2-2.5-7.8-5.1c-4.7-3.3-11.4-6.7-13.5-7.8
				c3.3-1.7,7.1-0.4,7.1-0.4s7.4,4.6,10.7,6.4C200.3,366.1,201.5,367.2,201.5,367.2z"/>
			<path id="XMLID_395_" fill="#C5DFFF" d="M194.3,382c-2.7,2.4-5.2,3-5.2,3s-7.7-7.5-9.9-9.9c-2.2-2.4-4-5-4-5s-0.6-2.8,0-5.8
				c3.1,3.5,11.4,12.5,17.2,16.3C193.1,381.2,193.8,381.6,194.3,382z"/>
		</g>
		<g id="XMLID_210_">
			<g id="XMLID_209_">
				<path id="XMLID_389_" fill="#C5DFFF" d="M165.7,356.4c-1.5-0.1-2.4-0.6-2.5-0.6c-0.6-0.3-0.8-1.1-0.5-1.7c0.3-0.6,1-0.9,1.6-0.6
					c0.1,0.1,2.9,1.4,6.6-1c3.7-2.4,4.3-5.4,4.3-5.5c0.1-0.7,0.7-1.2,1.4-1c0.6,0.1,1.1,0.8,1,1.5c0,0.2-0.7,4.2-5.4,7.3
					C169.5,356.3,167.3,356.5,165.7,356.4z"/>
			</g>
			<g id="XMLID_211_">
				<path id="XMLID_388_" fill="#C5DFFF" d="M155,336.3c-2.1-0.2-3.5-0.9-3.6-0.9c-0.6-0.3-0.8-1.1-0.5-1.7c0.3-0.6,1-0.9,1.5-0.6
					l0,0c0.1,0.1,3.6,1.8,8.2-0.3c4.5-2,5.3-4.9,5.3-5.1c0.2-0.7,0.8-1.1,1.4-0.9c0.6,0.2,1,0.9,0.8,1.6c0,0.2-1.1,4.2-6.7,6.8
					C158.9,336.3,156.7,336.5,155,336.3z"/>
			</g>
			<g id="XMLID_212_">
				<path id="XMLID_386_" fill="#C5DFFF" d="M147.4,313.8c-2.9-0.2-4.4-1.4-4.5-1.5c-0.5-0.4-0.6-1.2-0.2-1.8
					c0.4-0.6,1.1-0.7,1.7-0.2c0.1,0,2.3,1.7,7.2,0.7c6.2-1.3,7.9-3.7,8-3.8c0.4-0.6,1.1-0.7,1.7-0.3c0.5,0.4,0.6,1.2,0.2,1.8
					c-0.2,0.3-2.4,3.2-9.4,4.8C150.2,313.9,148.7,313.9,147.4,313.8z"/>
			</g>
		</g>
		<g id="XMLID_188_">
			<path id="XMLID_396_" fill="#1C3177" d="M162.2,297.1c0,0-6,3.1-14.5,3c-4.2-0.1-7.1-0.9-9-1.8c-2-0.9-2.9-1.8-2.9-1.8
				s0.1-1.8-0.2-7.7c-1-18.6,7.4-21,12.9-21.2c1.3,0,2.7,0.2,3.9,0.6c4,1.4,7.4,5,8.7,9.4C162.8,283.7,162.2,297.1,162.2,297.1z"/>
			<path id="XMLID_394_" fill="#384D89" d="M149.9,279.1c-6.3,3.4-8.9,1.2-8.9,1.2s-1.5,5.1-2.2,15.2c-0.1,1-0.1,2-0.2,2.8
				c-2-0.9-2.9-1.8-2.9-1.8s0.1-1.8-0.2-7.7c-1-18.6,7.4-21,12.9-21.2c1.3,0,2.7,0.2,3.9,0.6C153.9,270.9,155.7,276,149.9,279.1z"/>
		</g>
	</g>
</g>
<g id="BODY">
	<g id="XMLID_3_">
		<g id="XMLID_121_">
			<path id="XMLID_142_" fill="#E1ECFF" d="M277.6,310.3c-0.3,1.6-0.6,3.1-1,4.6c-2.4,9.3-6.6,16.8-12.5,21.7
				c-16.9,14.1-40.1,21.6-69.9,2.3c-23.8-15.4-45.7-50.3-53.6-63.8c-2-3.4-3.1-5.5-3.1-5.5s13.7-0.7,35.3-10.6
				c8.9-4.1,19.2-9.8,30.5-17.6c19.5-13.6,30.8-26.3,37.3-36.2c7.7-11.6,8.8-19.2,8.8-19.2s1.9,3.5,5.2,11.2
				c4,9.5,10,25.3,16.8,48.7C278.7,271.1,280.7,293.4,277.6,310.3z"/>
			<path id="XMLID_143_" fill="#1C3177" d="M254.6,197.2c-2.3,4.6-5.5,10-9.7,15.9c-8.2,11.2-20.4,24.1-38.4,35.7
				c-11.1,7.2-21,12.4-29.7,16.2c-17.8,7.9-30.1,9.7-36.3,10c-2-3.4-3.1-5.5-3.1-5.5s13.7-0.7,35.3-10.6c8.9-4.1,19.2-9.8,30.5-17.6
				c19.5-13.6,30.8-26.3,37.3-36.2c7.7-11.6,8.8-19.2,8.8-19.2S251.4,189.6,254.6,197.2z"/>
			<path id="XMLID_136_" fill="#C5DFFF" d="M276.6,314.9c-2.4,9.3-6.6,16.8-12.5,21.7c-16.9,14.1-40.1,21.6-69.9,2.3
				c-23.8-15.4-45.7-50.3-53.6-63.8c-2-3.4-3.1-5.5-3.1-5.5s13.7-0.7,35.3-10.6c8.5,13.2,27.3,40.5,45.8,56.6
				C240.1,334.4,264.6,323.3,276.6,314.9z"/>
			<path id="XMLID_138_" fill="#142966" d="M176.8,265.1c-17.8,7.9-30.1,9.7-36.3,10c-2-3.4-3.1-5.5-3.1-5.5s13.7-0.7,35.3-10.6
				C173.9,260.8,175.3,262.9,176.8,265.1z"/>
			<path id="XMLID_137_" fill="#F8FBFF" d="M274.8,300.6c-2.5-10.3-5.9-23.3-10.2-37.1c-6.9-22.4-14.7-39.7-19-47.2
				c6-9.1,7.1-12.8,7.1-12.8s1.5,2.8,4.1,8.8c3.1,7.4,7.8,19.8,13.1,38.1C275.7,270,277.3,287.4,274.8,300.6z"/>
			<path id="XMLID_139_" fill="#384D89" d="M254.6,197.2c-2.3,4.6-5.5,10-9.7,15.9c-1.6-3.1-3-5.8-4.3-8c7.7-11.6,8.8-19.2,8.8-19.2
				S251.4,189.6,254.6,197.2z"/>
		</g>
		<g id="XMLID_123_">
			<path id="XMLID_147_" fill="#E1ECFF" d="M223.3,309c0,0-9,6.8-27.3,14.4c-5.1,2.1-10.1,3.9-14.6,5.4c-0.4-0.4-0.8-0.8-1.2-1.2
				c-12.8-12.3-24.3-28.2-32.1-40.2c-0.5-0.7-0.9-1.4-1.3-2c0.8-0.2,14.2-3.6,30.5-10.9c16.9-7.5,21.2-10.9,21.2-10.9L223.3,309z"/>
			<path id="XMLID_145_" fill="#1C3177" d="M220.5,308.9c0,0-8.1,6.5-25.3,13.3c-5.3,2.1-10.6,3.9-15.1,5.4
				c-12.8-12.3-24.3-28.2-32.1-40.2l1.6-0.4c0,0,12.6-3.2,28.2-10.1c15.6-7,20-9.3,20-9.3L220.5,308.9z"/>
			<g id="XMLID_122_">
				<path id="XMLID_385_" fill="#FFCE94" d="M175.9,312.8c-0.3,0-0.7-0.1-0.9-0.3l-11-9.8l-0.7,2.1c-0.3,0.7-1,1.1-1.7,0.8
					c-0.7-0.3-1.1-1-0.8-1.7l1.4-4c0.2-0.4,0.5-0.8,0.9-0.9c0.4-0.1,0.9,0,1.3,0.3l9.7,8.6l-0.5-3.9c-0.1-0.6,0.2-1.2,0.8-1.4
					l33.1-14.3c0.7-0.3,1.5,0,1.8,0.7c0.3,0.7,0,1.5-0.7,1.8l-32.2,13.9l0.9,6.5c0.1,0.6-0.2,1.1-0.7,1.4
					C176.3,312.7,176.1,312.8,175.9,312.8z"/>
			</g>
		</g>
		<g id="XMLID_129_">
			<path id="XMLID_152_" fill="#FEC272" d="M249.4,186c0,0-1.5,10.7-13,25.6c-6.6,8.6-16.6,18.6-31.6,28.8
				c-24.6,16.8-44,23.9-55.6,27c-7.6,2-11.8,2.2-11.8,2.2s-25.1-42.8-21-81.6c1.1-10.1,4.2-18.5,8.9-25.4c3.4-5.1,7.6-9.3,12.4-12.8
				c13.9-10,32.6-13.5,50.8-11.3C221.7,142.6,249.4,186,249.4,186z"/>
			<path id="XMLID_421_" fill="#FCAD4F" d="M249.4,186c0,0-0.7,4.8-4.5,12.4c-1.9,3.8-4.6,8.3-8.5,13.3
				c-6.6,8.6-16.6,18.6-31.6,28.8c-26.5,18-47,24.9-58.1,27.6c-6,1.4-9.3,1.6-9.3,1.6c0-0.3,0.1-23.3,37.5-52.5
				C212.5,187.7,249.4,186,249.4,186z"/>
			<path id="XMLID_419_" fill="#F99D3A" d="M244.9,198.4c-1.9,3.8-4.6,8.3-8.5,13.3c-6.6,8.6-16.6,18.6-31.6,28.8
				c-26.5,18-47,24.9-58.1,27.6c4.2-9.6,13.4-23.8,34.1-40C206.2,208.2,231.3,201,244.9,198.4z"/>
			<path id="XMLID_148_" fill="#FFDBB3" d="M249.4,186c0,0-1.5,10.7-13,25.6c-6.4-11-12.1-17.9-12.1-17.9s-14.7,13.3-26.7,3.8
				c-12-9.6-3-27.2-3-27.2s-12.1-13-31.8-17.2c-9.8-2.1-18.7-3-25.2-3.3c13.9-10,32.6-13.5,50.8-11.3
				C221.7,142.6,249.4,186,249.4,186z"/>
			<path id="XMLID_149_" fill="#FFDBB3" d="M149.3,267.4c-7.6,2-11.8,2.2-11.8,2.2s-25.1-42.8-21-81.6c1.1-10.1,4.2-18.5,8.9-25.4
				c-1.1,11.5-2,38.1,7.2,66.8C137.2,244,143.4,257,149.3,267.4z"/>
		</g>
	</g>
</g>
<g id="LEFT_LEG">
	<g id="XMLID_405_">
		<g id="XMLID_215_">
			<path id="XMLID_227_" fill="#1C3177" d="M263.5,441.6c0,0.6,0,1.2-0.1,1.9c-0.4,5.9-18.5,7-31.1,7.6c-12.4,0.6-25.5-2.9-21-7
				c0.1-0.1,0.1-0.1,0.2-0.2c3.2-2.7,9.4-5.8,16.3-8.3c4-1.5,8.1-2.7,12.2-3.7c5.4-1.3,16.4-3.9,20-1.2c0.7,0.5,1.3,1.3,1.8,2.2
				C262.9,435,263.5,438.1,263.5,441.6z"/>
			<path id="XMLID_224_" fill="#384D89" d="M263.5,441.6c0,0.6,0,1.2-0.1,1.9c-0.4,5.9-18.5,7-31.1,7.6c-12.4,0.6-25.5-2.9-21-7
				c2.7,1.6,8.6,3.5,20.9,3C249,446.4,259.2,443.6,263.5,441.6z"/>
			<path id="XMLID_226_" fill="#142966" d="M261.7,432.9c-0.8,0.8-2.1,1.6-3.6,2.4c-4.8,2.4-19.4,5-28.3,3.5
				c-3.9-0.7-3.6-1.9-2.1-3.2c4-1.5,8.1-2.7,12.2-3.7c5.4-1.3,16.4-3.9,20-1.2C260.6,431.2,261.2,432,261.7,432.9z"/>
		</g>
		<g id="XMLID_401_">
			<g id="XMLID_216_">
				<path id="XMLID_232_" fill="#E1ECFF" d="M239.2,384.9c4,25.6,18.6,45.2,18.6,45.2s-1.4,2-4.2,3.8c-1.2,0.8-2.6,1.4-4.3,2
					c-2.6,0.8-5.4,0.8-7.8,0.6c-2.9-0.3-5-0.9-5-0.9s-24.9-32.1-28-68.7s16.6-55,16.6-55s0.2-0.1,0.4-0.3c2-1.3,10.8-6.1,21.4-0.1
					c0.8,0.4,1.5,0.9,2.1,1.3c8.1,5.3,9.3,10.7,9.3,10.7s-5.5,4.8-9.6,12C244.6,342.5,235.2,359.3,239.2,384.9z"/>
				<path id="XMLID_229_" fill="#C5DFFF" d="M239.2,384.9c4,25.6,18.6,45.2,18.6,45.2s-1.4,2-4.2,3.8c-7.3-10.1-24.8-40.7-24.2-69.8
					c0.5-26.6,14.3-45.1,19.7-51.3c8.1,5.3,9.3,10.7,9.3,10.7s-5.5,4.8-9.6,12C244.6,342.5,235.2,359.3,239.2,384.9z"/>
				<path id="XMLID_228_" fill="#F8FBFF" d="M241.4,436.4c-2.9-0.3-5-0.9-5-0.9s-24.9-32.1-28-68.7s16.6-55,16.6-55s0.2-0.1,0.4-0.3
					c-3.8,7.8-12.3,28-11.5,50.8c1,29.3,13.7,51.9,22.6,66.3C238.2,431.5,239.9,434.1,241.4,436.4z"/>
			</g>
			<g id="XMLID_220_">
				<g id="XMLID_217_">
					<path id="XMLID_404_" fill="#C5DFFF" d="M222.4,410.4c-0.3,0-0.7-0.1-0.9-0.4c-0.5-0.5-0.6-1.4-0.1-1.9c0.1-0.1,3-3.1,8.8-4.9
						c5.9-1.8,12.4,0.2,12.7,0.3c0.7,0.2,1.1,1,0.9,1.7c-0.2,0.7-1,1.1-1.7,0.9c-0.1,0-6-1.8-11.1-0.3c-5.1,1.6-7.6,4.1-7.6,4.2
						C223.2,410.3,222.8,410.4,222.4,410.4z"/>
				</g>
				<g id="XMLID_218_">
					<path id="XMLID_403_" fill="#C5DFFF" d="M212.1,378.4c-0.5,0-0.9-0.2-1.2-0.7c-0.4-0.7-0.2-1.5,0.5-1.9
						c0.2-0.1,6.1-3.5,12.8-3.8c6.8-0.4,12.5,3.5,12.7,3.7c0.6,0.4,0.8,1.3,0.3,1.9c-0.4,0.6-1.3,0.8-1.9,0.3c-0.1,0-5.1-3.5-11-3.2
						c-6.1,0.3-11.5,3.4-11.6,3.5C212.6,378.4,212.3,378.4,212.1,378.4z"/>
				</g>
				<g id="XMLID_219_">
					<path id="XMLID_402_" fill="#C5DFFF" d="M239.5,352c-0.3,0-0.7-0.1-0.9-0.4c-0.1-0.1-7.5-6.8-14.9-7.7
						c-7.2-0.9-11.6,2.2-11.6,2.3c-0.6,0.4-1.5,0.3-1.9-0.3c-0.4-0.6-0.3-1.5,0.3-1.9c0.2-0.2,5.3-3.9,13.6-2.8
						c8.2,1.1,16,8.1,16.4,8.4c0.6,0.5,0.6,1.4,0.1,1.9C240.2,351.8,239.8,352,239.5,352z"/>
				</g>
			</g>
		</g>
	</g>
</g>
<g id="LEFT_ARM">
	<g id="XMLID_5_">
		<g id="XMLID_391_">
			<g id="XMLID_390_">
				<g id="XMLID_175_">
					<path id="XMLID_191_" fill="#E1ECFF" d="M326.8,323.6c0,0-1.9,6.5-7.9,10.4c-6,3.9-9.4,4.3-9.4,4.3s-3.9-0.6-3.9-3.1
						c0-0.1,0-0.2,0-0.3c0.2-2.7,2.1-5.1,2.1-5.1s5.1-0.9,7.9-2.3s5.8-5.9,8-6.4c1.1-0.2,1.8,0.3,2.4,1
						C326.6,322.8,326.8,323.6,326.8,323.6z"/>
					<path id="XMLID_189_" fill="#C5DFFF" d="M326.8,323.6c0,0-1.9,6.5-7.9,10.4c-6,3.9-9.4,4.3-9.4,4.3s-3.9-0.6-3.9-3.1
						c2.7-0.2,9.1-1,13.6-4.6c3.7-2.9,5.8-6.4,6.8-8.6C326.6,322.8,326.8,323.6,326.8,323.6z"/>
				</g>
				<g id="XMLID_179_">
					<path id="XMLID_194_" fill="#E1ECFF" d="M323.1,323.1c-3.6,4.9-7.7,6.8-11.1,8c-3.4,1.2-5.7,0.7-5.7,0.7s-1.8-1.7-1.5-3.8
						c0.1-1.2,0.9-2.5,3-3.7c0,0,5.7-0.7,9.3-7.7c3.6-7,2.1-7.7,3-9.1c0.6-1,2.8-0.9,4.3,0c0.7,0.4,1.3,1.1,1.5,1.9
						C326.8,311.9,326.7,318.2,323.1,323.1z"/>
					<path id="XMLID_192_" fill="#C5DFFF" d="M323.1,323.1c-3.6,4.9-7.7,6.8-11.1,8c-3.4,1.2-5.7,0.7-5.7,0.7s-1.8-1.7-1.5-3.8
						c3.7-0.2,11.3-1.2,15-6.7c3.7-5.4,4.5-11.1,4.6-13.8c0.7,0.4,1.3,1.1,1.5,1.9C326.8,311.9,326.7,318.2,323.1,323.1z"/>
				</g>
				<g id="XMLID_182_">
					<path id="XMLID_185_" fill="#E1ECFF" d="M316.4,320c-3.4,4.6-7.3,6.5-10.6,7.6c-3.2,1.1-5.4,0.6-5.4,0.6s-1.7-1.6-1.4-3.6
						c0.1-1.1,0.9-2.4,2.9-3.5c0,0,5.4-0.6,8.8-7.3c3.4-6.6,2-7.3,2.8-8.7c0.6-0.9,2.6-0.9,4.1,0c0.7,0.4,1.2,1,1.5,1.8
						C319.9,309.4,319.8,315.4,316.4,320z"/>
					<path id="XMLID_183_" fill="#C5DFFF" d="M316.4,320c-3.4,4.6-7.3,6.5-10.6,7.6c-3.2,1.1-5.4,0.6-5.4,0.6s-1.7-1.6-1.4-3.6
						c3.5-0.2,10.7-1.1,14.3-6.3c3.5-5.1,4.2-10.5,4.4-13.1c0.7,0.4,1.2,1,1.5,1.8C319.9,309.4,319.8,315.4,316.4,320z"/>
				</g>
			</g>
			<g id="XMLID_174_">
				<path id="XMLID_181_" fill="#E1ECFF" d="M313.7,328.9c0.1,2.9-0.6,5.3-1.4,7.1c-1.1,2.3-2.3,3.5-2.3,3.5s-25.3,8.9-51.9-13.3
					c-13.7-11.4-24.7-26.3-32.1-38c-7-11.1-10.9-19.4-10.9-19.4s-2.1-6.5,1.8-12.1c1.2-1.8,3-3.5,5.8-4.9c4.7-2.4,8.6-2.6,11.7-1.8
					c5.2,1.3,8.1,5.2,8.1,5.2s3.9,8.6,9.7,19.2c6.8,12.3,16.2,27.3,25.2,34.3c16.7,13,30.6,8,30.6,8s1.5,1.5,3,3.8
					C312.1,322.6,313.6,325.6,313.7,328.9z"/>
				<path id="XMLID_177_" fill="#C5DFFF" d="M251.9,274.2c-2.1,3.3-6.2,8.2-13.8,11c-4.9,1.9-9.2,2.6-12.3,2.9
					c-7-11.1-10.9-19.4-10.9-19.4s-3.6-11.3,7.5-17.1c12.5-6.5,19.8,3.4,19.8,3.4S246.1,263.7,251.9,274.2z"/>
				<path id="XMLID_176_" fill="#C5DFFF" d="M312.2,335.9c-1.1,2.3-2.3,3.5-2.3,3.5s-25.3,8.9-51.9-13.3
					c-13.7-11.4-24.7-26.3-32.1-38c-7-11.1-10.9-19.4-10.9-19.4s-2.1-6.5,1.8-12.1c3.3,7.5,17.4,38.1,35.3,55.7
					c20.5,20.1,31.6,22.6,51.3,23.4C306.6,335.8,309.6,335.9,312.2,335.9z"/>
				<path id="XMLID_178_" fill="#F8FBFF" d="M310.7,320.4c-5.1,1.5-12.2,2.6-19.6,0.3c-13.8-4.3-25.1-13-36.2-29.7
					c-9.1-13.8-17.9-34.2-20.7-41.1c5.2,1.3,8.1,5.2,8.1,5.2s3.9,8.6,9.7,19.2c6.8,12.3,16.2,27.3,25.2,34.3c16.7,13,30.6,8,30.6,8
					S309.2,318,310.7,320.4z"/>
				<g id="XMLID_173_">
					<g id="XMLID_170_">
						<path id="XMLID_398_" fill="#C5DFFF" d="M241.4,304.7c-2.5,0-4.1-0.6-4.2-0.6c-0.7-0.3-1.1-1.1-0.8-1.8
							c0.3-0.7,1.1-1.1,1.8-0.8c0.2,0.1,4.9,1.7,11.2-1.7c6.3-3.5,7.8-9.7,7.8-9.7c0.2-0.7,0.9-1.2,1.6-1c0.7,0.2,1.2,0.9,1,1.6
							c-0.1,0.3-1.7,7.4-9.2,11.5C247.1,304.2,243.8,304.7,241.4,304.7z"/>
					</g>
					<g id="XMLID_171_">
						<path id="XMLID_397_" fill="#C5DFFF" d="M260.5,327.1c-0.8,0-1.4-0.6-1.4-1.4c0-0.8,0.6-1.4,1.4-1.4l0,0
							c0.1,0,6.3-0.1,9.8-4.4c3.6-4.4,2.9-10.6,2.9-10.7c-0.1-0.8,0.5-1.4,1.2-1.5c0.7-0.1,1.4,0.5,1.5,1.2c0,0.3,0.8,7.4-3.5,12.7
							C268.1,327.1,260.8,327.1,260.5,327.1z"/>
					</g>
					<g id="XMLID_172_">
						<path id="XMLID_392_" fill="#C5DFFF" d="M282.5,338.8c-0.5,0-1.1-0.3-1.3-0.9c-0.3-0.7,0.1-1.5,0.8-1.8l0,0
							c0.1,0,5.7-2.3,7.2-8.4c1.5-6.2-0.6-9.8-0.7-9.9c-0.4-0.6-0.2-1.5,0.4-1.9c0.6-0.4,1.5-0.2,1.9,0.4c0.1,0.2,2.9,4.7,1,12
							c-1.9,7.5-8.6,10.2-8.9,10.3C282.8,338.8,282.7,338.8,282.5,338.8z"/>
					</g>
				</g>
			</g>
		</g>
		<g id="XMLID_4_">
			<path id="XMLID_186_" fill="#1C3177" d="M252.7,262.2c0,0-0.2,1.2-0.9,3c-1.4,3.4-4.7,9-12.2,13.9c-11.6,7.5-21.9,4.3-21.9,4.3
				s-7.4-9.7-8.9-23.1c-0.9-7.7,4.2-13.7,10.8-16.6c4.9-2.1,10.6-2.5,15.2-0.5C245.7,248.1,252.7,262.2,252.7,262.2z"/>
			<path id="XMLID_184_" fill="#384D89" d="M252.7,262.2c0,0-0.2,1.2-0.9,3c0-0.1-0.1-0.1-0.1-0.2c-9.3-12.3-16.6-14.8-16.6-14.8
				s-2.7,6.4-11.6,2.7c-6.2-2.5-5.1-6.9-3.8-9.2c4.9-2.1,10.6-2.5,15.2-0.5C245.7,248.1,252.7,262.2,252.7,262.2z"/>
		</g>
	</g>
</g>
<g id="EYE_2">
	<g id="XMLID_141_">
		<path id="XMLID_150_" fill="#1C3177" d="M131.2,209.3c-1.9-0.3-3.7,0.9-4.1,2.7c-0.9,3.8-2.3,10.3-2.9,15.3
			c-0.5,4.2-0.7,7.7-0.8,10.1c-0.1,1.7,1.2,3.3,2.9,3.6l0,0c2,0.3,3.8-1.1,4-3.1c0.2-3.1,0.7-7.8,1.8-13.2c1-5.1,1.7-8.7,2.2-11.1
			C134.6,211.6,133.2,209.7,131.2,209.3L131.2,209.3z"/>
		<path id="XMLID_144_" fill="#1C3177" d="M113.9,220c0.5-2,2.6-3.1,4.5-2.2c3,1.3,7.4,3.2,11.6,4.7c4.3,1.5,8.3,3,10.8,4
			c1.7,0.6,2.6,2.4,2.2,4.2v0c-0.5,1.9-2.5,3.1-4.4,2.5c-3.3-0.9-8.5-2.6-14-4.9c-4.9-2.1-7.7-3.7-9.4-4.7
			C114.1,222.8,113.6,221.4,113.9,220L113.9,220z"/>
	</g>
</g>
<g id="EYE_1">
	<g id="XMLID_135_">
		<path id="XMLID_130_" fill="#1C3177" d="M174.2,184.9c-2.4-0.4-4.7,1.2-5.3,3.6c-1.1,5-2.7,13.4-3.4,20c-0.5,5.5-0.8,10-0.8,13.1
			c-0.1,2.3,1.6,4.2,3.8,4.5h0c2.6,0.4,4.9-1.5,5.1-4.1c0.2-4,0.8-10.1,1.9-17.1c1.1-6.7,2-11.4,2.5-14.5
			C178.6,187.8,176.8,185.3,174.2,184.9L174.2,184.9z"/>
		<path id="XMLID_132_" fill="#1C3177" d="M152,199.3c0.6-2.6,3.4-4,5.8-3c3.9,1.6,9.6,3.9,15.1,5.8c5.6,1.9,10.8,3.7,14.1,4.9
			c2.2,0.8,3.5,3.1,2.9,5.4l0,0c-0.6,2.5-3.2,4.1-5.7,3.4c-4.3-1.1-11-3.1-18.2-6c-6.4-2.6-10.1-4.6-12.2-5.9
			C152.4,202.8,151.6,201,152,199.3L152,199.3z"/>
	</g>
</g>
<g id="ORNAMENT_3">
	<path id="XMLID_166_" fill="#FEC272" d="M512.7,376c0,0,5.1,1.5,8.8,5.8c3.7,4.4,4.2,11.5,4.2,11.5l20.2-9.4c0,0-10.2,3.9-13.6-2.9
		c-3.4-6.8,7.9-17.6,7.9-17.6s-12.5,10.2-17.4,8.7c-4.9-1.5-5.7-7.6-5.7-7.6L512.7,376z"/>
</g>
<g id="ORNAMENT_2">
	<g id="XMLID_410_">
		<polygon id="XMLID_167_" fill="#D2E9FF" points="493.6,373.7 497.2,373.8 502.8,332.8 490.1,330.4 		"/>
		<polygon id="XMLID_168_" fill="#D2E9FF" points="502.4,373.9 510.8,335.5 522.9,341.4 504.6,374.9 		"/>
	</g>
</g>
<g id="ORNAMENT_1">
	<g id="XMLID_1_">
		<polygon id="XMLID_140_" fill="#FEC272" points="102.2,180.1 100.1,184.7 56.2,171.2 62.1,153.9 		"/>
		<polygon id="XMLID_151_" fill="#FEC272" points="108.8,164.9 104.9,170.5 55.3,132.7 69,118.4 		"/>
	</g>
</g>
</svg>
