<?xml version="1.0" encoding="utf-8"?>
<!-- Generator: Adobe Illustrator 19.0.0, SVG Export Plug-In . SVG Version: 6.00 Build 0)  -->
<svg version="1.1" xmlns="http://www.w3.org/2000/svg" xmlns:xlink="http://www.w3.org/1999/xlink" x="0px" y="0px"
	 viewBox="0 0 600 600" enable-background="new 0 0 600 600" xml:space="preserve">
<g id="WATER_1">
	<g id="XMLID_59_">
		<path id="XMLID_120_" fill="#C7DCF9" d="M433.8,416.7c0,3.8-2.4,8.5-7.2,14.1c-12,13.8-42.2,10.8-51.3,20.2c0,0-0.1,0.1-0.1,0.1
			c-6.8,7.1-5.8,20.7-20,28.3c-4.6,2.5-10.7,4.4-19.2,5.2c-34.9,3.5-35.8-19.1-138.4-15.8c-30.8,1-50.1,5-71.2-6.4
			c-13.6-7.3-14.7-18.4-5.6-25.7c5.1-4.1,13.3-7,24.3-7.5c16.1-0.7,46.8,2,59.6-2.3c1.5-0.5,2.8-1.1,3.7-1.8
			c9.1-6.7-1.8-8.2-17.9-14.4c-11.6-4.4-11.1-10.2,1.6-15.6c5-2.1,11.9-4.2,20.6-6.1c31.1-6.7,63.9-11.4,86.2-8.5
			c29.4,3.9,38.7,8.5,53.1,17.9c14.4,9.4,47.8,4.1,65.7,7C428.4,407.4,433.7,411.1,433.8,416.7z"/>
		<path id="XMLID_115_" fill="#A4D1FC" d="M355.1,479.6c-4.6,2.5-10.7,4.4-19.2,5.2c-34.9,3.5-35.8-19.1-138.4-15.8
			c-30.8,1-50.1,5-71.2-6.4c-13.6-7.3-14.7-18.4-5.6-25.7c0.3,4.3,4.3,20.7,44.5,20.7c46.3,0,96.7-2.6,128.4,7.3
			C312.6,470.8,329.2,482.4,355.1,479.6z"/>
		<path id="XMLID_112_" fill="#A4D1FC" d="M222.9,419.5c-3.4,4.7-11.1,6.8-18.2,7.6c1.5-0.5,2.8-1.1,3.7-1.8
			c9.1-6.7-1.8-8.2-17.9-14.4c-11.6-4.4-11.1-10.2,1.6-15.6c0.8,2.2,3.4,5.5,11.6,8.1C217.4,407.8,229.3,410.7,222.9,419.5z"/>
		<path id="XMLID_116_" fill="#A4D1FC" d="M433.8,416.7c0,3.8-2.4,8.5-7.2,14.1c-12,13.8-42.2,10.8-51.3,20.2c0,0-0.1,0.1-0.1,0.1
			c-3.5-12.4,3.9-21.9,29.4-23.9C421.1,426,430.8,419.1,433.8,416.7z"/>
	</g>
</g>
<g id="WATER_2">
	<ellipse id="XMLID_57_" fill="#C7DCF9" cx="254.1" cy="487.3" rx="32.8" ry="9.5"/>
</g>
<g id="WATER_3">
	<ellipse id="XMLID_32_" fill="#C7DCF9" cx="440.3" cy="386.9" rx="22.3" ry="5.6"/>
</g>
<g id="GLASS_1">
	<g id="XMLID_34_">
		<path id="XMLID_121_" fill="#FCC4B9" d="M413.9,175.3c0,0.9-10,115.4-10,115.4H261.8l-17.5-108.4l-0.9-5.7c0,0,0,0,0,0
			c-0.2-0.4-0.2-0.9-0.2-1.4c0-3.2,4.1-6.1,11.2-8.7c14.7-5.3,42.4-8.9,74.2-8.9c43.8,0,80,6.8,84.8,15.6
			C413.7,173.9,413.9,174.6,413.9,175.3z"/>
		<path id="XMLID_127_" fill="#FC9581" d="M410.2,179.9l-2,34.6l-0.7,12.7l-3.6,61.2H261.8l-7.9-59.1l-1.6-12.3l-4.1-30.5
			c1.7-2.1,1.4-10.3,10.3-13.3c14.8-4.9,38.2-7.8,70-7.8C370.6,165.3,403.2,171.6,410.2,179.9z"/>
		<path id="XMLID_119_" fill="#F78777" d="M407.5,227.2l-3.6,61.2H261.8l-7.9-59.1C274,218.1,306,212,336.2,212
			C361.8,212,389.5,217.4,407.5,227.2z"/>
	</g>
</g>
<g id="WATER_4">
	<g id="XMLID_98_">
		<path id="XMLID_58_" fill="#A4D1FC" d="M407.8,259.6c0,0-5.6,1.9-14.6,4.5c-18.4,5.2-51.2,13.1-80.4,12.5
			c-24.9-0.5-39-4.7-46.6-8.2c-5.7-2.7-7.7-5-7.7-5s14.1-11.7,70.1-12.9C383.2,249.4,407.8,259.6,407.8,259.6z"/>
		<path id="XMLID_37_" fill="#C7DCF9" d="M393.2,264.1c-18.4,5.2-51.2,13.1-80.4,12.5c-24.9-0.5-39-4.7-46.6-8.2
			c4.2-2.2,18-7.7,53.9-9.3C360.5,257.2,386.3,261.7,393.2,264.1z"/>
	</g>
</g>
<g id="GLASS_2">
	<g id="XMLID_36_">
		<path id="XMLID_122_" fill="#FEA691" d="M413.7,174.2L411.1,374c0,0-9.5,8.9-26.1,16.8c-0.8,0.4-1.7,0.8-2.5,1.2
			c-12.8,5.7-29.6,10.6-49.2,10.6c-18.8,0-32.8-4-42.8-8.8c-15.3-7.4-21.4-16.7-21.4-16.7l-25.9-201.8c0,0,0,0,0,0l10.6,1.6
			c0,0,6,28.4,15.8,54.8c2.5,6.8,5.3,13.5,8.4,19.5c7.3,14.7,19.6,26.7,42.5,19.9c24.3-7.2,53.2-47.3,69.8-73.2
			c8.3-13,13.5-22.4,13.5-22.4L413.7,174.2z"/>
		<path id="XMLID_111_" fill="#FC9581" d="M413.7,174.2L411.1,374c0,0-9.5,8.9-26.1,16.8c-0.8,0.4-1.7,0.8-2.5,1.2l7.7-194.1
			c8.3-13,13.5-22.4,13.5-22.4L413.7,174.2z"/>
		<path id="XMLID_56_" fill="#FC9581" d="M290.5,393.7c-15.3-7.4-21.4-16.7-21.4-16.7l-25.9-201.8c0,0,0,0,0,0l10.6,1.6
			c0,0,6,28.4,15.8,54.8L290.5,393.7z"/>
		<path id="XMLID_35_" fill="#FCC4B9" d="M413.7,174.2c0,0-10.3,8.3-20.6,32c-7.7,17.7-29.3,41.4-42.2,55.5
			c-12.9,14.1-32.7,21.2-41.6,21.4c-18.9,0.4-27.6-3.5-39.9-28.4c-12.1-24.5-25.8-77.8-26.2-79.4c0,0,0,0,0,0h10.3
			c0,0,9.8,46.6,24.5,75.9c7.3,14.7,21.4,28.4,43.4,19.1c22-9.4,49.5-40.9,60-62.4c15.2-31.4,22.5-32.3,22.5-32.3L413.7,174.2z"/>
	</g>
	<g id="XMLID_33_">
		<g id="XMLID_63_">
			<path id="XMLID_71_" fill="#FEA691" d="M482.2,254.8c0.6,46.9-24,66-44,72.9c-1.1,0.4-2.1,0.7-3.1,1c-18.2,5.6-29,2.8-29,2.8
				l1.1-19.3c0,0,5,0.8,13.5-0.3c4-0.6,8.8-1.6,14.2-3.3c16.9-5.5,28.1-16.3,30.1-44.1s-10-44-27.6-42.8c-2.5,0.2-4.7,0.6-6.9,1.2
				c-14.9,4.2-21.3,17.2-21.3,17.2l-2.3-24.1c0,0,5.2-6,14.1-9.9c4-1.8,8.7-3.1,14.1-3.4C452.3,201.9,481.6,207.9,482.2,254.8z"/>
			<path id="XMLID_68_" fill="#FC9581" d="M430.5,222.9c-14.9,4.2-21.3,17.2-21.3,17.2l-2.3-24.1c0,0,5.2-6,14.1-9.9
				c1.9,1.4,5.3,4.8,7.9,11.5C429.6,219.5,430.1,221.3,430.5,222.9z"/>
			<path id="XMLID_66_" fill="#FC9581" d="M435.1,328.7c-18.2,5.6-29,2.8-29,2.8l1.1-19.3c0,0,5,0.8,13.5-0.3
				c1.9,4.3,5.3,10.5,10.2,14.2C432.3,327.1,433.7,328,435.1,328.7z"/>
		</g>
		<g id="XMLID_99_">
			<path id="XMLID_102_" fill="#FCC4B9" d="M468.7,297.3c-0.4,0-0.8-0.1-1.2-0.3c-1.3-0.7-1.8-2.3-1.1-3.6
				c0.2-0.4,18.2-35.9,3.3-66.4c-10.2-20.9-35.3-17.5-35.5-17.5c-1.4,0.2-2.8-0.8-3-2.2c-0.2-1.4,0.8-2.8,2.2-3
				c0.3,0,29.1-4,41,20.4c16.1,32.9-2.6,69.6-3.4,71.1C470.6,296.8,469.7,297.3,468.7,297.3z"/>
		</g>
	</g>
</g>
<g id="GLASS_5">
	<g id="XMLID_61_">
		<path id="XMLID_77_" fill="#FEA691" d="M422.1,434.7c0.3,0.5,6.7,11.4,3.5,21.7c-3.2,10.6-12.6,23.2-12.6,23.2s-41,7.9-69.8-5.9
			c-1.2-0.6-2.4-1.2-3.5-1.8c-25.1-14.2-23.2-38.6-23.2-38.6l6.2-1.3l86.4-17.8c0,0,6.4,6,15.7,10.2c2,0.9,4.1,1.7,6.3,2.4
			c12.6,3.8,18.8,12.9,18.8,12.9L422.1,434.7L422.1,434.7z"/>
		<path id="XMLID_73_" fill="#FC9581" d="M424.9,424.3l-85.1,47.5c-25.1-14.2-23.2-38.6-23.2-38.6l6.2-1.3l86.4-17.8
			C409.2,414.1,415.6,420.1,424.9,424.3z"/>
		<path id="XMLID_79_" fill="#FC9581" d="M450.5,440.8c0,0-4,7.3-13.6,17.6c-9.5,10.2-23.4,20.8-23.8,21.1c0.1-0.4,1.7-8,6-20.7
			c0.5-1.4,0.9-2.8,1.2-4.1c2.9-11.2,1.9-20.1,1.9-20.1l27.8,5l0.3,0.7L450.5,440.8z"/>
		<path id="XMLID_76_" fill="#FC9581" d="M450.5,440.8c0,0-4,7.3-13.6,17.6c-9.5,10.2-23.4,20.8-23.8,21.1c0.1-0.4,1.7-8,6-20.7
			c0.5-1.4,0.9-2.8,1.2-4.1c7.2-2.3,16.6-5.8,23.2-10c2.7-1.7,4.9-3.1,6.9-4.4L450.5,440.8z"/>
		<path id="XMLID_74_" fill="#FCC4B9" d="M425.6,456.4c-3.2,10.6-12.6,23.2-12.6,23.2s-41,7.9-69.8-5.9
			c-28.7-13.8-26.7-40.5-26.7-40.5l6.2-1.3c1.5,7.5,7.5,25,30.3,34.2c24.3,9.8,52.6,4,52.6,4s8.5-7.3,10.6-18.7
			c2-11.4,2.1-17.3,2.1-17.3l3.8,0.6l0,0C422.5,435.2,428.8,446.1,425.6,456.4z"/>
	</g>
</g>
<g id="GLASS_6">
	<g id="XMLID_62_">
		<path id="XMLID_82_" fill="#FEA691" d="M482.4,427.8l-10.1,8.1l-9.7-5.1L443,415.7l15.8-1.1l27.5,2.2c0,0,0,0,0.9,0.2
			C488.1,417.3,482.4,427.8,482.4,427.8z"/>
		<path id="XMLID_80_" fill="#FC9581" d="M482.4,427.8l-10.1,8.1l-9.7-5.1l24.6-13.9C488.1,417.3,482.4,427.8,482.4,427.8z"/>
	</g>
</g>
<g id="MOUTH">
	<g id="XMLID_60_">
		<path id="XMLID_67_" fill="#1C3177" d="M347.9,347.7c0,4.1-0.6,8-1.5,11.5c-2.2,7.7-6.7,13-11.8,13s-9.5-5.3-11.8-13
			c-1-3.4-1.5-7.3-1.5-11.5c0-13.5,6-24.5,13.3-24.5S347.9,334.2,347.9,347.7z"/>
		<path id="XMLID_65_" fill="#FF97C9" d="M346.4,359.2c-2.2,7.7-6.7,13-11.8,13s-9.5-5.3-11.8-13c2.2-7.7,6.7-13,11.8-13
			S344.1,351.4,346.4,359.2z"/>
	</g>
</g>
<g id="ORNAMENT_1">
	<path id="XMLID_29_" fill="#FF97C9" d="M217.2,182c0,0,1.3-12.2,10.2-25.2c9.4-13.7,23.9-19.8,23.9-19.8l-14-42.7
		c0,0-1.7,23.5-12.6,31c-13.7,9.5-44.1-10.9-44.1-10.9s20.9,25.4,15.9,39.7c-5,14.2-27.9,14-27.9,14L217.2,182z"/>
</g>
<g id="WATER_5">
	<path id="XMLID_27_" fill="#C7DCF9" d="M285.8,263.4c0,0,36-2.3,36.4,0.9c0.3,3.2-12.9,12.9-13.6,21.1c-0.7,8.2,3.7,6.7,2.4,15.2
		s-9.9,7.3-7.1,17.9c2.7,10.6,10.2,14.1,9.9,22.3c-0.3,8.2-8.8,16.7-7.1,26.1c1.7,9.4,8.2,12.3,9.2,20.5c1,8.2-1.7,13.6-4.4,17.3
		c-11.9,16.4-33.3,10.8-31.6,0.9c1-5.7,10.5-14.7,9.2-27c-1.4-12.3-7.5-13.2-3.1-21.7c4.4-8.5,9.5-12.3,0.3-23.7
		c-9.2-11.4-6.5-24.2-3.4-31.1c4.2-9.4-1.4-17.6-0.7-25.2C282.7,269.3,285.8,263.4,285.8,263.4z"/>
</g>
<g id="EYE_1A">
	<circle id="XMLID_31_" fill="#FFFFFF" cx="293.3" cy="306.2" r="16.4"/>
</g>
<g id="EYE_1B">
	<circle id="XMLID_30_" fill="#1C3177" cx="295.6" cy="300.5" r="9.8"/>
</g>
<g id="EYE_2A">
	<circle id="XMLID_26_" fill="#FFFFFF" cx="366" cy="306.2" r="16.4"/>
</g>
<g id="EYE_2B">
	<circle id="XMLID_28_" fill="#1C3177" cx="362.5" cy="300.5" r="9.8"/>
</g>
</svg>
