<?xml version="1.0" encoding="utf-8"?>
<!-- Generator: Adobe Illustrator 23.0.2, SVG Export Plug-In . SVG Version: 6.00 Build 0)  -->
<svg version="1.1" id="图层_1" xmlns="http://www.w3.org/2000/svg" xmlns:xlink="http://www.w3.org/1999/xlink" x="0px" y="0px"
	 viewBox="0 0 800 800" style="enable-background:new 0 0 800 800;" xml:space="preserve">
<style type="text/css">
	.st0{fill:url(#SVGID_1_);}
	.st1{fill:url(#SVGID_2_);}
	.st2{fill:url(#SVGID_3_);}
	.st3{fill:url(#SVGID_4_);}
	.st4{fill:url(#SVGID_5_);}
	.st5{fill:url(#SVGID_6_);}
	.st6{fill:url(#SVGID_7_);}
	.st7{fill:url(#SVGID_8_);}
	.st8{fill:url(#SVGID_9_);}
	.st9{fill:url(#SVGID_10_);}
	.st10{fill:url(#SVGID_11_);}
	.st11{fill:url(#SVGID_12_);}
	.st12{opacity:0.69;}
	.st13{fill:url(#SVGID_13_);}
	.st14{fill:url(#SVGID_14_);}
	.st15{fill:url(#SVGID_15_);}
	.st16{fill:url(#SVGID_16_);}
	.st17{fill:url(#SVGID_17_);}
	.st18{fill:url(#SVGID_18_);}
	.st19{fill:url(#SVGID_19_);}
	.st20{fill:url(#SVGID_20_);}
</style>
<g>
	<linearGradient id="SVGID_1_" gradientUnits="userSpaceOnUse" x1="400" y1="885" x2="400" y2="139">
		<stop  offset="0.4171" style="stop-color:#F8FAFC;stop-opacity:0"/>
		<stop  offset="1" style="stop-color:#ECEFF4"/>
	</linearGradient>
	<ellipse class="st0" cx="400" cy="512" rx="400" ry="373"/>
	<g>
		<g>
			<linearGradient id="SVGID_2_" gradientUnits="userSpaceOnUse" x1="424.5" y1="297.5" x2="424.5" y2="237.5">
				<stop  offset="0" style="stop-color:#A7B1C1"/>
				<stop  offset="1" style="stop-color:#C6D0E0"/>
			</linearGradient>
			<path class="st1" d="M424.5,297.5L424.5,297.5c-6.4,0-11.5-5.1-11.5-11.5v-37c0-6.4,5.1-11.5,11.5-11.5l0,0
				c6.4,0,11.5,5.1,11.5,11.5v37C436,292.4,430.9,297.5,424.5,297.5z"/>
			<linearGradient id="SVGID_3_" gradientUnits="userSpaceOnUse" x1="424.5" y1="293.5" x2="424.5" y2="233.5">
				<stop  offset="0" style="stop-color:#C6D0E0"/>
				<stop  offset="1" style="stop-color:#EFF2F6"/>
			</linearGradient>
			<path class="st2" d="M424.5,293.5L424.5,293.5c-6.4,0-11.5-5.1-11.5-11.5v-37c0-6.4,5.1-11.5,11.5-11.5l0,0
				c6.4,0,11.5,5.1,11.5,11.5v37C436,288.4,430.9,293.5,424.5,293.5z"/>
		</g>
		<g>
			
				<linearGradient id="SVGID_4_" gradientUnits="userSpaceOnUse" x1="1744.9148" y1="-907.5425" x2="1744.9148" y2="-967.5425" gradientTransform="matrix(0.7071 -0.7071 0.7071 0.7071 -236.3984 2189.2837)">
				<stop  offset="0" style="stop-color:#A7B1C1"/>
				<stop  offset="1" style="stop-color:#C6D0E0"/>
			</linearGradient>
			<path class="st3" d="M355.7,313.7L355.7,313.7c-4.5,4.5-11.8,4.5-16.3,0l-26.2-26.2c-4.5-4.5-4.5-11.8,0-16.3l0,0
				c4.5-4.5,11.8-4.5,16.3,0l26.2,26.2C360.2,301.9,360.2,309.2,355.7,313.7z"/>
			
				<linearGradient id="SVGID_5_" gradientUnits="userSpaceOnUse" x1="1748.4503" y1="-908.2496" x2="1748.4503" y2="-968.2496" gradientTransform="matrix(0.7071 -0.7071 0.7071 0.7071 -236.3984 2189.2837)">
				<stop  offset="0" style="stop-color:#C6D0E0"/>
				<stop  offset="1" style="stop-color:#EFF2F6"/>
			</linearGradient>
			<path class="st4" d="M357.7,310.7L357.7,310.7c-4.5,4.5-11.8,4.5-16.3,0l-26.2-26.2c-4.5-4.5-4.5-11.8,0-16.3l0,0
				c4.5-4.5,11.8-4.5,16.3,0l26.2,26.2C362.2,298.9,362.2,306.2,357.7,310.7z"/>
		</g>
		<g>
			
				<linearGradient id="SVGID_6_" gradientUnits="userSpaceOnUse" x1="351.4342" y1="2162.9666" x2="351.4342" y2="2102.9666" gradientTransform="matrix(0.7071 0.7071 -0.7071 0.7071 1764.2335 -1449.2366)">
				<stop  offset="0" style="stop-color:#A7B1C1"/>
				<stop  offset="1" style="stop-color:#C6D0E0"/>
			</linearGradient>
			<path class="st5" d="M483.3,328.7L483.3,328.7c-4.5-4.5-4.5-11.8,0-16.3l26.2-26.2c4.5-4.5,11.8-4.5,16.3,0v0
				c4.5,4.5,4.5,11.8,0,16.3l-26.2,26.2C495.1,333.2,487.8,333.2,483.3,328.7z"/>
			
				<linearGradient id="SVGID_7_" gradientUnits="userSpaceOnUse" x1="347.8987" y1="2162.2593" x2="347.8987" y2="2102.2593" gradientTransform="matrix(0.7071 0.7071 -0.7071 0.7071 1764.2335 -1449.2366)">
				<stop  offset="0" style="stop-color:#C6D0E0"/>
				<stop  offset="1" style="stop-color:#EFF2F6"/>
			</linearGradient>
			<path class="st6" d="M481.3,325.7L481.3,325.7c-4.5-4.5-4.5-11.8,0-16.3l26.2-26.2c4.5-4.5,11.8-4.5,16.3,0v0
				c4.5,4.5,4.5,11.8,0,16.3l-26.2,26.2C493.1,330.2,485.8,330.2,481.3,325.7z"/>
		</g>
	</g>
	<linearGradient id="SVGID_8_" gradientUnits="userSpaceOnUse" x1="400" y1="618.6674" x2="400" y2="421.6393">
		<stop  offset="0" style="stop-color:#DFE2E5;stop-opacity:0"/>
		<stop  offset="1" style="stop-color:#D7DCE2;stop-opacity:0.5"/>
	</linearGradient>
	<ellipse class="st7" cx="400" cy="520.2" rx="254" ry="98.5"/>
	
		<linearGradient id="SVGID_9_" gradientUnits="userSpaceOnUse" x1="4714.2949" y1="655.809" x2="4714.2949" y2="507.9963" gradientTransform="matrix(-1 0 0 1 5221.0762 0)">
		<stop  offset="0" style="stop-color:#DFE2E5;stop-opacity:0"/>
		<stop  offset="1" style="stop-color:#D7DCE2;stop-opacity:0.5"/>
	</linearGradient>
	<polygon class="st8" points="419.1,655.8 603,655.8 549.9,524 547.7,508 410.6,508 	"/>
	<linearGradient id="SVGID_10_" gradientUnits="userSpaceOnUse" x1="290.8557" y1="654.9972" x2="290.8557" y2="507.1845">
		<stop  offset="0" style="stop-color:#DFE2E5;stop-opacity:0"/>
		<stop  offset="1" style="stop-color:#D7DCE2;stop-opacity:0.5"/>
	</linearGradient>
	<polygon class="st9" points="371.1,655 202.1,655 255.2,523.2 257.4,507.2 379.6,507.2 	"/>
	<g>
		<g>
			
				<linearGradient id="SVGID_11_" gradientUnits="userSpaceOnUse" x1="505.1718" y1="267.73" x2="677.9924" y2="267.73" gradientTransform="matrix(0.9962 -8.720642e-02 8.720642e-02 0.9962 -127.0536 238.7219)">
				<stop  offset="0" style="stop-color:#A7B1C1"/>
				<stop  offset="1" style="stop-color:#C6D0E0"/>
			</linearGradient>
			<path class="st10" d="M557.7,372.9l-76.7-6.7l-42.5,43.7l21.3,37.1l-50,46.8l-5.7,20.3l7.4,11.1l131.9,11.5
				c5,0.4,9.4-3.2,9.9-8.3L566,382.8c0.4-4.6-2.9-19-15.6-20.9C549.9,361.7,558.1,373,557.7,372.9z"/>
			
				<linearGradient id="SVGID_12_" gradientUnits="userSpaceOnUse" x1="639.8657" y1="343.5748" x2="551.081" y2="189.7952" gradientTransform="matrix(0.9962 -8.720642e-02 8.720642e-02 0.9962 -127.0536 238.7219)">
				<stop  offset="0" style="stop-color:#C6D0E0"/>
				<stop  offset="1" style="stop-color:#EFF2F6"/>
			</linearGradient>
			<path class="st11" d="M550.3,361.8l-76.7-6.7l-42.5,43.7l21.3,37.1l-50,46.8l1.7,31.3L536,525.6c5,0.4,9.4-3.2,9.9-8.3
				l12.7-145.6C559.1,366.7,555.4,362.3,550.3,361.8z"/>
		</g>
		<g class="st12">
			
				<linearGradient id="SVGID_13_" gradientUnits="userSpaceOnUse" x1="412.0128" y1="547.1503" x2="392.308" y2="513.0205" gradientTransform="matrix(0.9982 5.931243e-02 -5.931243e-02 0.9982 93.4923 -149.4643)">
				<stop  offset="0" style="stop-color:#A7B1C1"/>
				<stop  offset="1" style="stop-color:#C6D0E0"/>
			</linearGradient>
			<path class="st13" d="M437.4,409.7l49.6,2.9c0.3,0,0.6,0.1,0.9,0.1c3.5-0.1,6.3-2.9,6.3-6.5c-0.1-3.5-2.9-6.3-6.5-6.3l-54.6-3.2
				l-2.1,2.2L437.4,409.7z"/>
			
				<linearGradient id="SVGID_14_" gradientUnits="userSpaceOnUse" x1="405.8789" y1="611.598" x2="386.1245" y2="577.3823" gradientTransform="matrix(0.9982 5.931243e-02 -5.931243e-02 0.9982 93.4923 -149.4643)">
				<stop  offset="0" style="stop-color:#A7B1C1"/>
				<stop  offset="1" style="stop-color:#C6D0E0"/>
			</linearGradient>
			<path class="st14" d="M416.5,469.5c0.3,0,0.6,0.1,1,0.1l65.9,3.9c0.3,0,0.6,0.1,0.9,0.1c3.5-0.1,6.3-2.9,6.3-6.5
				c-0.1-3.5-2.9-6.3-6.5-6.3l-54.8-3.2L416.5,469.5z"/>
			
				<linearGradient id="SVGID_15_" gradientUnits="userSpaceOnUse" x1="424.9135" y1="577.1553" x2="406.0788" y2="544.5326" gradientTransform="matrix(0.9982 5.931243e-02 -5.931243e-02 0.9982 93.4923 -149.4643)">
				<stop  offset="0" style="stop-color:#A7B1C1"/>
				<stop  offset="1" style="stop-color:#C6D0E0"/>
			</linearGradient>
			<path class="st15" d="M447.6,440.4l50.4,2.9c0.3,0,0.6,0.1,0.9,0.1c3.5-0.1,6.3-2.9,6.3-6.5c-0.1-3.5-2.9-6.3-6.5-6.3l-51.1-3
				l4.6,8.3L447.6,440.4z"/>
		</g>
	</g>
	<g>
		<g>
			
				<linearGradient id="SVGID_16_" gradientUnits="userSpaceOnUse" x1="102.5925" y1="831.9847" x2="251.2857" y2="683.2916" gradientTransform="matrix(0.9896 0.1441 -0.1441 0.9896 247.4811 -338.0074)">
				<stop  offset="0" style="stop-color:#A7B1C1"/>
				<stop  offset="1" style="stop-color:#C6D0E0"/>
			</linearGradient>
			<path class="st16" d="M360.8,499.7l36.7-51.1l-28.6-32.1l23.7-49l-37.7,1.1c-2.6,0.1-5.1-1-6.9-2.9l-18.2-19.3
				c-1.7-1.9-4.3-2.9-6.9-2.9l-60.2,1.8l1.5-10.3c-16.7,1.8-18.1,14.8-17.9,19.9l5.2,172.2c0.2,5,4.3,9,9.4,8.8l116.9-3.5l9-10.5
				L360.8,499.7z"/>
			
				<linearGradient id="SVGID_17_" gradientUnits="userSpaceOnUse" x1="111.7136" y1="821.9764" x2="260.4067" y2="673.2833" gradientTransform="matrix(0.9896 0.1441 -0.1441 0.9896 247.4811 -338.0074)">
				<stop  offset="0" style="stop-color:#C6D0E0"/>
				<stop  offset="1" style="stop-color:#EFF2F6"/>
			</linearGradient>
			<path class="st17" d="M369.8,489.2l36.7-51.1L378,406.1l23.7-49l-37.7,1.1c-2.6,0.1-5.1-1-6.9-2.9l-18.2-19.3
				c-1.7-1.9-4.3-2.9-6.9-2.9l-67.8,2c-5,0.2-9,4.3-8.9,9.4l5.2,172.2c0.2,5,4.3,9,9.4,8.8l116.9-3.5L369.8,489.2z"/>
		</g>
		<g class="st12">
			
				<linearGradient id="SVGID_18_" gradientUnits="userSpaceOnUse" x1="4907.5723" y1="386.2975" x2="4887.6899" y2="351.8608" gradientTransform="matrix(-1 2.063334e-03 2.063334e-03 1 5249.2227 18.9749)">
				<stop  offset="0" style="stop-color:#A7B1C1"/>
				<stop  offset="1" style="stop-color:#C6D0E0"/>
			</linearGradient>
			<path class="st18" d="M378.1,406.2l-49.4,0.1c-0.3,0-0.6,0-0.9,0c-3.5-0.3-6.2-3.3-5.9-6.8c0.3-3.5,3.3-6.2,6.8-5.9l55.3-0.1
				l-6.1,12.6L378.1,406.2z"/>
			
				<linearGradient id="SVGID_19_" gradientUnits="userSpaceOnUse" x1="4904.0522" y1="449.2359" x2="4881.3643" y2="409.9389" gradientTransform="matrix(-1 2.063334e-03 2.063334e-03 1 5249.2227 18.9749)">
				<stop  offset="0" style="stop-color:#A7B1C1"/>
				<stop  offset="1" style="stop-color:#C6D0E0"/>
			</linearGradient>
			<path class="st19" d="M395.1,454.1l-66.2,0.3c-3.5-0.3-6.6,2.4-6.8,5.9c-0.3,3.5,2.4,6.6,5.9,6.8c0.3,0,0.6,0,0.9,0
				c0,0,33.3-0.1,56.9-0.2L395.1,454.1z"/>
			
				<linearGradient id="SVGID_20_" gradientUnits="userSpaceOnUse" x1="4905.3701" y1="425.022" x2="4880.0337" y2="381.138" gradientTransform="matrix(-1 2.063334e-03 2.063334e-03 1 5249.2227 18.9749)">
				<stop  offset="0" style="stop-color:#A7B1C1"/>
				<stop  offset="1" style="stop-color:#C6D0E0"/>
			</linearGradient>
			<path class="st20" d="M405.2,436.7l-89.3-0.3c-0.3,0-0.6,0-0.9,0c-3.5-0.3-6.2-3.3-5.9-6.8c0.3-3.5,3.3-6.2,6.8-5.9l77.9,0.3
				L405.2,436.7z"/>
		</g>
	</g>
</g>
</svg>
