<?xml version="1.0" encoding="UTF-8"?>
<svg width="1136px" height="1097px" viewBox="0 0 1136 1097" version="1.1" xmlns="http://www.w3.org/2000/svg" xmlns:xlink="http://www.w3.org/1999/xlink">
    <!-- Generator: Sketch 61.2 (89653) - https://sketch.com -->
    <title>mother and son</title>
    <desc>Created with Sketch.</desc>
    <defs>
        <linearGradient x1="51.2707407%" y1="92.8726659%" x2="48.4403175%" y2="11.8309202%" id="linearGradient-1">
            <stop stop-color="#D3E0DF" offset="0%"></stop>
            <stop stop-color="#D4E1DF" offset="2.997516%"></stop>
            <stop stop-color="#F1F0E2" offset="66.44%"></stop>
        </linearGradient>
        <linearGradient x1="51.6176606%" y1="94.9184917%" x2="48.7222477%" y2="9.9295093%" id="linearGradient-2">
            <stop stop-color="#F1F0E2" offset="0%"></stop>
            <stop stop-color="#F0F0E2" offset="43.05%"></stop>
            <stop stop-color="#D3E0DF" offset="100%"></stop>
        </linearGradient>
        <linearGradient x1="-0.266484672%" y1="50.1485459%" x2="100.111856%" y2="50.1485459%" id="linearGradient-3">
            <stop stop-color="#CD907F" offset="0%"></stop>
            <stop stop-color="#FF7D93" offset="76.63%"></stop>
        </linearGradient>
        <linearGradient x1="0.0458990051%" y1="49.8945652%" x2="99.9447693%" y2="49.8945652%" id="linearGradient-4">
            <stop stop-color="#CD907F" offset="0%"></stop>
            <stop stop-color="#FF7D93" offset="76.63%"></stop>
        </linearGradient>
        <linearGradient x1="50.6834141%" y1="76.709039%" x2="48.8232149%" y2="23.4288715%" id="linearGradient-5">
            <stop stop-color="#CD907F" offset="0%"></stop>
            <stop stop-color="#FF7D93" offset="76.63%"></stop>
        </linearGradient>
        <linearGradient x1="51.4634091%" y1="87.6864147%" x2="48.8091364%" y2="16.5056417%" id="linearGradient-6">
            <stop stop-color="#D3E0DF" offset="0%"></stop>
            <stop stop-color="#F1F0E2" offset="54.67%"></stop>
        </linearGradient>
        <linearGradient x1="0.00288040279%" y1="50.0046402%" x2="99.9971627%" y2="50.0046402%" id="linearGradient-7">
            <stop stop-color="#FC860A" offset="0.2239147%"></stop>
            <stop stop-color="#DA9E29" offset="99.61%"></stop>
        </linearGradient>
        <linearGradient x1="0.0447942519%" y1="50.0327971%" x2="100.007927%" y2="50.0327971%" id="linearGradient-8">
            <stop stop-color="#DA9E29" stop-opacity="0.5" offset="0.08335513%"></stop>
            <stop stop-color="#FC860A" offset="99.78%"></stop>
        </linearGradient>
        <linearGradient x1="45.2606626%" y1="91.8264969%" x2="51.911961%" y2="16.8398179%" id="linearGradient-9">
            <stop stop-color="#271C41" offset="0%"></stop>
            <stop stop-color="#9776A6" offset="100%"></stop>
        </linearGradient>
        <linearGradient x1="0.0654643447%" y1="50.0489761%" x2="100.127367%" y2="50.0489761%" id="linearGradient-10">
            <stop stop-color="#271C41" offset="0%"></stop>
            <stop stop-color="#9776A6" offset="100%"></stop>
        </linearGradient>
        <linearGradient x1="0.115629742%" y1="49.9268859%" x2="100.037178%" y2="49.9268859%" id="linearGradient-11">
            <stop stop-color="#FFFFFF" offset="0%"></stop>
            <stop stop-color="#9776A6" offset="100%"></stop>
        </linearGradient>
        <linearGradient x1="0.0135099548%" y1="50.0875%" x2="99.964368%" y2="50.0875%" id="linearGradient-12">
            <stop stop-color="#FFFFFF" offset="0%"></stop>
            <stop stop-color="#9776A6" offset="100%"></stop>
        </linearGradient>
        <linearGradient x1="0.0340740741%" y1="50.0365209%" x2="100.037222%" y2="50.0365209%" id="linearGradient-13">
            <stop stop-color="#002544" offset="0%"></stop>
            <stop stop-color="#271C41" offset="91.74%"></stop>
        </linearGradient>
        <linearGradient x1="0.129206375%" y1="49.9156612%" x2="100.179342%" y2="49.9156612%" id="linearGradient-14">
            <stop stop-color="#E4C9C2" offset="0%"></stop>
            <stop stop-color="#FF7D93" stop-opacity="0.4" offset="100%"></stop>
        </linearGradient>
        <linearGradient x1="0.12797619%" y1="50.0111922%" x2="99.7071429%" y2="50.0111922%" id="linearGradient-15">
            <stop stop-color="#FF7D93" offset="0%"></stop>
            <stop stop-color="#CD907F" offset="27.14%"></stop>
        </linearGradient>
        <linearGradient x1="0.355555556%" y1="50.060915%" x2="99.8230159%" y2="50.060915%" id="linearGradient-16">
            <stop stop-color="#FF7D93" offset="0%"></stop>
            <stop stop-color="#CD907F" offset="27.14%"></stop>
        </linearGradient>
        <linearGradient x1="-0.179037801%" y1="50.0008134%" x2="100.030241%" y2="50.0008134%" id="linearGradient-17">
            <stop stop-color="#41548C" offset="0%"></stop>
            <stop stop-color="#FFFFFF" offset="53.97%"></stop>
        </linearGradient>
        <linearGradient x1="-0.0151558074%" y1="49.8979275%" x2="99.9631728%" y2="49.8979275%" id="linearGradient-18">
            <stop stop-color="#FF7D93" offset="0%"></stop>
            <stop stop-color="#CD907F" offset="27.14%"></stop>
        </linearGradient>
        <linearGradient x1="0.2378897%" y1="49.9797784%" x2="99.879015%" y2="49.9797784%" id="linearGradient-19">
            <stop stop-color="#FF7D93" offset="0%"></stop>
            <stop stop-color="#CD907F" offset="27.14%"></stop>
        </linearGradient>
        <linearGradient x1="0.0946188341%" y1="50.2483444%" x2="100.086547%" y2="50.2483444%" id="linearGradient-20">
            <stop stop-color="#FF7D93" offset="0%"></stop>
            <stop stop-color="#CD907F" offset="27.14%"></stop>
        </linearGradient>
        <linearGradient x1="0.505634046%" y1="49.9210667%" x2="100.123711%" y2="49.9210667%" id="linearGradient-21">
            <stop stop-color="#E4C9C2" offset="0%"></stop>
            <stop stop-color="#FF7D93" stop-opacity="0.4" offset="100%"></stop>
        </linearGradient>
        <linearGradient x1="0.0406768892%" y1="49.8433762%" x2="100.059437%" y2="49.8433762%" id="linearGradient-22">
            <stop stop-color="#271C41" offset="0%"></stop>
            <stop stop-color="#9776A6" offset="100%"></stop>
        </linearGradient>
    </defs>
    <g id="Page-1" stroke="none" stroke-width="1" fill="none" fill-rule="evenodd">
        <g id="mother-and-son">
            <g id="background">
                <g id="general">
                    <g id="wallpaper" transform="translate(106.000000, 44.000000)" fill="#EEEDEE">
                        <path d="M-0.1,194.9 L-0.1,691.5 L26.6,691.5 L26.6,203.4 C17.6,201 8.6,198.3 -0.1,194.9 L-0.1,194.9 Z" id="Shape"></path>
                        <path d="M96.2,215.6 L96.2,691.5 L123,691.5 L123,217.6 C114,217.1 105.1,216.5 96.2,215.6 L96.2,215.6 Z" id="Shape"></path>
                        <path d="M204.7,226.6 L204.7,693.4 L231.4,693.4 L231.4,223 C222.5,224.5 213.6,225.7 204.7,226.6 L204.7,226.6 Z" id="Shape"></path>
                        <path d="M310.8,208.3 C308.7,209.2 306.6,210.1 304.5,210.9 L304.5,691.3 L331.2,691.3 L331.2,198.5 C324.6,202 317.8,205.3 310.8,208.3 L310.8,208.3 Z" id="Shape"></path>
                        <path d="M429.2,129.4 C420.6,135.1 412.6,141.6 404.2,147.6 L404.2,691.5 L431,691.5 L431,128.2 C430.4,128.6 429.8,129 429.2,129.4 L429.2,129.4 Z" id="Shape"></path>
                        <path d="M513,36.4 C508.8,38.7 504.7,41.2 500.6,43.7 L500.6,689.4 L527.3,689.4 L527.3,29.1 C522.5,31.4 517.7,33.8 513,36.4 L513,36.4 Z" id="Shape"></path>
                        <path d="M629.5,0.5 C622.7,1.3 615.9,2.2 609.1,3.4 L609.1,697.2 L635.8,697.2 L635.8,-0.1 C633.7,0.1 631.6,0.3 629.5,0.5 L629.5,0.5 Z" id="Shape"></path>
                        <path d="M705.4,-0.5 L705.4,693.4 L732.1,693.4 L732.1,2.5 C723.2,1.3 714.3,0.2 705.4,-0.5 L705.4,-0.5 Z" id="Shape"></path>
                        <path d="M812.1,22.2 C807.1,20.2 801.9,18.4 796.8,16.7 L796.8,699.8 L823.5,699.8 L823.5,27.2 C819.7,25.4 815.9,23.7 812.1,22.2 L812.1,22.2 Z" id="Shape"></path>
                        <path d="M905.2,80.6 L905.2,705.7 L931.9,705.7 L931.9,99.8 C922.9,93.6 914,87.1 905.2,80.6 L905.2,80.6 Z" id="Shape"></path>
                    </g>
                    <g id="carpet" transform="translate(47.000000, 874.000000)">
                        <path d="M999.6,-0.3 L999.6,12.9 C997.5,23.5 995.4,34.1 993.3,44.7 C990.1,60.7 986.9,76.7 983.7,92.7 C983.3,94.7 982.9,96.6 982.5,98.6 C977.2,125 972,151.4 966.7,177.8 C964.5,188.6 962.4,199.4 960.2,210.3 C959.5,213.7 958.8,217.1 958.2,220.4 C803.8,220.7 649.3,221 494.9,221.3 L479.4,221.3 L469.2,221.3 C423.3,221.4 377.3,221.5 331.4,221.6 C321,221.6 310.6,221.6 300.1,221.7 C200.1,221.9 100.1,222.1 0,222.3 L0,209.1 L5.2,207.4 L41.5,102.7 C50.9,75.5 60.4,48.3 69.8,21 C70.7,18.3 71.7,15.6 72.6,12.9 L981.8,12.9 L999.6,-0.3 L999.6,-0.3 Z" id="Shape" fill="#EEEDEE"></path>
                        <path d="M999.6,-0.3 C996.5,15.2 993.4,30.7 990.3,46.2 C988.1,57.3 985.9,68.4 983.6,79.5 C982.4,85.7 981.1,91.8 979.9,98 C974.6,124.6 969.3,151.1 964,177.7 C962,187.5 960.1,197.4 958.1,207.3 C946.6,207.3 935,207.3 923.5,207.4 C877.1,207.5 830.7,207.6 784.3,207.7 L784.3,207.7 C770.1,207.7 756,207.8 741.8,207.8 C667.5,207.9 593.1,208.1 518.8,208.2 C505.7,208.2 492.5,208.3 479.4,208.3 L466.3,208.3 L466.3,208.3 C423.6,208.4 381,208.5 338.3,208.5 C327.3,208.5 316.3,208.6 305.3,208.6 C203.5,208.8 101.8,209 -5.68434189e-14,209.2 L41.5,89.5 C50,65 58.5,40.6 66.9,16.1 C68.8,10.7 70.7,5.2 72.5,-0.2 L999.6,-0.2 L999.6,-0.3 Z" id="Shape" fill="#EBDEDE"></path>
                        <g id="Group" transform="translate(35.000000, 0.000000)" fill="#FFFFFF" opacity="0.35">
                            <path d="M62.9,40.5 C55.9,44.5 47,42.1 42.9,35.2 L34.7,21.1 L31.8,16.1 C33.7,10.7 35.6,5.2 37.4,-0.2 L56.1,-0.2 L63.7,13 L68.1,20.6 C72.3,27.5 69.9,36.5 62.9,40.5 L62.9,40.5 Z" id="Shape"></path>
                            <path d="M159.6,59.1 L159.6,59.1 C163,66.4 159.8,75.1 152.5,78.5 L126,90.8 C118.7,94.2 110,91 106.6,83.7 L106.6,83.7 C103.2,76.4 106.4,67.7 113.7,64.3 L140.2,52 C147.5,48.6 156.2,51.8 159.6,59.1 L159.6,59.1 Z" id="Shape"></path>
                            <path d="M851.7,92.1 L851.7,92.1 C855.1,99.4 851.9,108.1 844.6,111.5 L818.1,123.8 C810.8,127.2 802.1,124 798.7,116.7 L798.7,116.7 C795.3,109.4 798.5,100.7 805.8,97.3 L832.3,85 C839.6,81.7 848.3,84.9 851.7,92.1 L851.7,92.1 Z" id="Shape"></path>
                            <path d="M760.9,186.2 L760.9,186.2 C764.3,193.5 761.1,202.2 753.8,205.6 L727.3,217.9 C720,221.3 711.3,218.1 707.9,210.8 L707.9,210.8 C704.5,203.5 707.7,194.8 715,191.4 L741.5,179.1 C748.8,175.7 757.5,178.9 760.9,186.2 L760.9,186.2 Z" id="Shape"></path>
                            <path d="M656.9,141.9 L656.9,141.9 C662.1,148.1 661.2,157.3 655.1,162.5 L632.7,181.3 C626.5,186.5 617.3,185.6 612.1,179.5 L612.1,179.5 C606.9,173.3 607.8,164.1 613.9,158.9 L636.3,140.1 C642.5,134.9 651.8,135.7 656.9,141.9 L656.9,141.9 Z" id="Shape"></path>
                            <path d="M931.7,177.9 C929.5,188.7 927.4,199.5 925.2,210.4 L909,217.9 C901.7,221.3 893,218.1 889.6,210.8 C889.1,209.7 888.7,208.6 888.5,207.4 C888.3,206.5 888.2,205.6 888.2,204.7 C888.2,199.2 891.3,193.9 896.7,191.4 L923.2,179.1 C925.1,178.2 927,177.8 929,177.8 C929.9,177.7 930.8,177.8 931.7,177.9 L931.7,177.9 Z" id="Shape"></path>
                            <path d="M483.8,208.1 C482.4,210.2 480.4,211.9 478,213 L459.9,221.4 L444.4,221.4 L434.2,221.4 C433.4,220.4 432.7,219.3 432.1,218.1 C431.2,216.1 430.8,214.1 430.8,212 C430.8,210.7 431,209.4 431.3,208.2 L431.3,208.2 C432.4,204.2 435.2,200.6 439.2,198.7 L465.7,186.4 C473,183 481.7,186.2 485.1,193.5 C487.4,198.5 486.7,204 483.8,208.1 L483.8,208.1 Z" id="Shape"></path>
                            <path d="M388,8.2 L388,8.2 C391.4,15.5 388.2,24.2 380.9,27.6 L354.4,39.9 C347.1,43.3 338.4,40.1 335,32.8 L335,32.8 C331.6,25.5 334.8,16.8 342.1,13.4 L368.6,1.1 C375.9,-2.3 384.7,0.9 388,8.2 L388,8.2 Z" id="Shape"></path>
                            <path d="M889.7,-0.3 C888.3,2.7 885.9,5.3 882.6,6.8 L869.4,12.9 L856.1,19.1 C849.1,22.3 840.9,19.6 837.2,12.9 C837,12.6 836.9,12.3 836.7,12 C835.8,10 835.3,7.9 835.3,5.9 C835.3,3.8 835.8,1.6 836.7,-0.3 L889.7,-0.3 L889.7,-0.3 Z" id="Shape"></path>
                            <path d="M731.8,50.5 L731.8,50.5 C727.8,57.5 718.8,59.9 711.9,55.8 L686.6,41.2 C679.6,37.2 677.2,28.2 681.3,21.3 L681.3,21.3 C685.3,14.3 694.3,11.9 701.2,16 L726.5,30.6 C733.4,34.6 735.8,43.6 731.8,50.5 L731.8,50.5 Z" id="Shape"></path>
                            <path d="M543.4,-0.3 L528.6,6.5 C521.4,9.8 512.8,6.7 509.4,-0.3 L543.4,-0.3 L543.4,-0.3 Z" id="Shape"></path>
                            <path d="M225,-0.3 C224.1,0.4 223.1,1 222.1,1.5 L197.5,12.9 L195.6,13.8 C191,16 185.8,15.4 181.7,12.9 C179.4,11.5 177.4,9.3 176.2,6.7 C175.3,4.7 174.9,2.7 174.9,0.6 L174.9,-0.3 L225,-0.3 L225,-0.3 Z" id="Shape"></path>
                            <path d="M56.5,168.6 L56.5,168.6 C54.3,176.3 46.2,180.8 38.4,178.6 L10.3,170.6 C2.6,168.4 -1.9,160.3 0.3,152.5 L0.3,152.5 C2.5,144.8 10.6,140.3 18.4,142.5 L46.5,150.5 C54.2,152.8 58.7,160.9 56.5,168.6 L56.5,168.6 Z" id="Shape"></path>
                            <path d="M250.5,79.1 L250.5,79.1 C257.5,75.1 266.4,77.5 270.4,84.4 L285,109.7 C289,116.7 286.6,125.6 279.7,129.6 L279.7,129.6 C272.7,133.6 263.8,131.2 259.8,124.3 L245.2,99 C241.1,92.1 243.5,83.1 250.5,79.1 L250.5,79.1 Z" id="Shape"></path>
                            <path d="M958.2,44.8 C955,60.8 951.8,76.8 948.6,92.8 C948.2,94.8 947.8,96.7 947.4,98.7 C946.6,98.6 945.7,98.4 944.9,98.1 C944.2,97.9 943.6,97.6 943,97.3 C938,94.7 935.2,89.6 935.2,84.3 C935.2,82 935.7,79.7 936.9,77.6 L950.5,51.7 C951.7,49.5 953.4,47.6 955.4,46.3 C956.2,45.6 957.2,45.1 958.2,44.8 L958.2,44.8 Z" id="Shape"></path>
                            <path d="M563.6,42.1 L563.6,42.1 C571.6,42.1 578.2,48.7 578.2,56.7 L578.2,85.9 C578.2,93.9 571.6,100.5 563.6,100.5 L563.6,100.5 C555.6,100.5 549,93.9 549,85.9 L549,56.7 C549,48.7 555.6,42.1 563.6,42.1 L563.6,42.1 Z" id="Shape"></path>
                            <path d="M442.8,85.7 L442.8,85.7 C448,91.9 447.1,101.1 441,106.3 L418.5,125 C412.3,130.2 403.1,129.3 397.9,123.2 L397.9,123.2 C392.7,117 393.6,107.8 399.7,102.6 L422.1,83.8 C428.4,78.7 437.6,79.5 442.8,85.7 L442.8,85.7 Z" id="Shape"></path>
                            <path d="M156.3,139.8 L156.3,139.8 C163.4,143.5 166.2,152.4 162.5,159.5 L148.9,185.4 C145.2,192.5 136.3,195.3 129.2,191.6 L129.2,191.6 C122.1,187.9 119.3,179 123,171.9 L136.6,146 C140.3,138.8 149.2,136 156.3,139.8 L156.3,139.8 Z" id="Shape"></path>
                            <path d="M306.2,203 L303.3,208.5 L296.4,221.7 C286,221.7 275.6,221.7 265.1,221.8 C265.1,219.6 265.7,217.4 266.8,215.3 L270.3,208.5 L280.3,189.4 C284,182.3 292.9,179.5 300,183.2 C307.1,187 309.9,195.8 306.2,203 L306.2,203 Z" id="Shape"></path>
                        </g>
                    </g>
                    <g id="flags">
                        <path d="M1128.4,62.8 C1126.6,66.1 1124.8,69.3 1123,72.4 C1119.3,78.6 1115.5,84.5 1111.4,90.1 C1096.9,110.1 1080,126.3 1060.8,138.7 C1045.3,148.7 1028.3,156.2 1009.8,161.3 C1009.2,161.5 1008.5,161.6 1007.9,161.8 C986.7,167.4 964.8,169.2 943.3,168.7 C915,168 887.4,163 862.9,156.6 C850.3,153.3 838.4,149.6 827.7,145.8 C815.5,141.5 804.2,137 793.9,132.6 C772.3,123.3 755.5,114.5 746.3,109.5 C744.4,108.5 742.9,107.6 741.7,106.9 C740.6,108.2 739.4,109.5 738.2,110.7 C735.3,113.8 732.4,116.9 729.5,119.8 C727.8,121.5 726.2,123.2 724.5,124.8 L724.5,124.8 C722.2,127.1 719.8,129.3 717.4,131.5 L717.4,131.5 C709.7,138.5 702,145 694.1,150.9 C691.8,152.6 689.5,154.3 687.2,155.9 C683.4,158.5 679.6,161 675.8,163.4 C662.8,171.5 649.5,177.9 636,182.7 C615.8,190 595.1,193.6 574,193.6 L573.6,193.6 C571.1,193.6 568.7,193.5 566.3,193.4 C544.3,192.5 523.8,187.6 505.3,180.8 C481.8,172.2 461.7,160.6 446.3,150.1 C445.2,149.4 444.2,148.6 443.1,147.9 C425.5,135.5 412.2,123.4 404.2,115.7 C402,113.5 400.2,111.7 398.9,110.3 C397,112.2 395,114.1 393.1,116 C388.5,120.4 383.9,124.5 379.1,128.3 C359.2,144.6 338.3,156.4 316.6,163.7 C295.4,170.8 273.4,173.7 250.6,172.2 C246.2,171.9 241.7,171.5 237.4,170.9 C235,170.6 232.6,170.2 230.2,169.8 C229,169.6 227.8,169.4 226.6,169.2 C209.9,166 193.7,160.7 178.2,154 C176.2,153.1 174.1,152.2 172.1,151.3 C171.3,150.9 170.5,150.5 169.7,150.2 C145.9,139 124,124.9 105,110.6 C95.8,103.6 87.3,96.6 79.5,89.9 C68.5,80.4 58.6,70.9 49.8,62 C32.9,44.4 20.3,29.4 13.4,21 C9.8,16.5 7.8,13.9 7.7,13.8 C6.3,11.9 6.7,9.2 8.6,7.8 C10.5,6.4 13.2,6.8 14.6,8.7 C14.7,8.8 16.6,11.3 20.1,15.7 C26.4,23.5 37.9,37.1 53.4,52.9 C62.7,62.5 73.6,72.9 85.6,83.3 C93.9,90.5 103.2,98.1 113.2,105.6 C129.3,117.6 147.5,129.3 167.1,139.1 C170.1,140.6 173.2,142.1 176.4,143.5 C177,143.8 177.7,144.1 178.3,144.4 C180.6,145.4 182.8,146.4 185.1,147.4 C186.1,147.8 187,148.2 188,148.6 C190.5,149.6 193,150.6 195.6,151.5 C196.3,151.7 197,152 197.7,152.3 C198.1,152.5 198.6,152.6 199,152.8 C199.8,153.1 200.6,153.3 201.4,153.6 C202,153.8 202.6,154 203.2,154.2 C204.4,154.6 205.7,155 207,155.4 C207.8,155.6 208.6,155.9 209.4,156.1 C209.7,156.2 209.9,156.3 210.2,156.3 C211.3,156.6 212.4,156.9 213.5,157.2 C214.7,157.5 215.9,157.8 217.1,158.1 C217.2,158.1 217.3,158.1 217.3,158.2 C218.5,158.5 219.7,158.8 221,159.1 C222.2,159.4 223.5,159.7 224.8,159.9 C225.7,160.1 226.6,160.3 227.6,160.5 C228.4,160.7 229.1,160.8 229.9,160.9 C231.9,161.3 233.9,161.6 235.9,161.9 C236.1,161.9 236.2,161.9 236.4,162 C237.2,162.1 238.1,162.2 238.9,162.4 C239.2,162.4 239.5,162.5 239.9,162.5 C240.9,162.6 241.9,162.7 242.9,162.9 C245.8,163.2 248.7,163.5 251.6,163.7 C271.3,165 290.5,162.8 309,157.2 C309.1,157.2 309.1,157.2 309.2,157.1 C333.6,149.8 356.9,136.5 379,117.5 C382.2,114.8 385.3,111.9 388.4,108.9 C391.1,106.4 393.7,103.7 396.3,101 C397.1,100.2 398.3,99.7 399.5,99.7 C400.7,99.7 401.8,100.3 402.6,101.2 C402.7,101.3 405,104 409.4,108.3 C416.4,115.3 428.5,126.5 444.6,138.2 C446.9,139.9 449.2,141.5 451.6,143.2 C467.4,154 488.2,165.9 512.5,174.2 C527.3,179.3 543.3,183 560.2,184.4 C564.7,184.8 569.3,185 573.9,185 L574.2,185 C595.5,185 616.4,181.1 636.8,173.3 C647,169.4 657,164.6 667,158.8 C675.7,153.7 684.2,147.9 692.7,141.4 C695.1,139.6 697.5,137.7 699.8,135.7 C708,128.9 716.2,121.4 724.3,113.2 C725.3,112.2 726.2,111.2 727.2,110.2 C727.5,109.9 727.7,109.7 728,109.4 L728,109.4 C729.2,108.1 730.4,106.8 731.6,105.5 C733.7,103.3 735.7,101 737.8,98.7 C739.2,97.2 741.4,96.8 743.2,97.9 C743.3,98 746.2,99.7 751.4,102.6 C759.9,107.3 774.8,115 793.7,123.3 C804.8,128.1 817.3,133.2 830.8,137.9 C842.8,142.1 856.2,146.3 870.6,149.8 C912.2,160.2 961.8,165.7 1007.7,153.2 C1023.7,148.9 1038.6,142.5 1052.2,134.2 C1052.3,134.1 1052.4,134.1 1052.5,134 C1074,120.9 1092.5,103 1107.9,80.4 C1110.6,76.4 1113.2,72.3 1115.8,68 C1117.5,65.1 1119.2,62.1 1120.9,59 C1122,56.9 1124.6,56.1 1126.7,57.2 C1128.8,58.1 1129.6,60.7 1128.4,62.8 L1128.4,62.8 Z" id="Shape" fill="#EEEDEE"></path>
                        <circle id="Oval" fill="#EEEDEE" cx="398.5" cy="106.5" r="10.5"></circle>
                        <circle id="Oval" fill="#EEEDEE" cx="10.5" cy="10.5" r="10.5"></circle>
                        <circle id="Oval" fill="#EEEDEE" cx="740.5" cy="100.5" r="10.5"></circle>
                        <circle id="Oval" fill="#EEEDEE" cx="1124.5" cy="61.5" r="10.5"></circle>
                        <path d="M114.5,106.7 C111.3,107.9 108.3,109.1 105.3,110.3 C51.5,131.2 27.8,140.7 26.7,141.8 C26.7,141.8 26.7,141.8 26.6,141.8 C25.8,141.6 35.9,107.8 50.1,61.6 C51,58.6 52,55.5 52.9,52.4 C53.1,52.5 53.2,52.7 53.4,52.8 C62.7,62.4 73.5,72.8 85.6,83.2 C93.9,90.4 103.2,98 113.2,105.5 C113.6,105.9 114,106.3 114.5,106.7 L114.5,106.7 Z" id="Shape" fill="#EEEDEE"></path>
                        <path d="M384.2,210.3 C383.7,211 355.4,191.2 316.8,163.6 C314,161.6 311.1,159.5 308.1,157.4 C308.3,157.3 308.6,157.2 308.8,157.1 C308.9,157.1 308.9,157.1 309,157 C333.4,149.7 356.7,136.4 378.8,117.4 C378.9,118.4 379,122.4 379.3,128.1 C380.5,152.3 383.2,208.1 384.2,210.3 C384.2,210.2 384.2,210.3 384.2,210.3 L384.2,210.3 Z" id="Shape" fill="#F8E7E1"></path>
                        <path d="M242.7,162.8 C241,165.4 239.3,168.1 237.6,170.8 C228,185.7 218.5,200.6 208.9,215.6 C206.7,219.1 204.5,222.5 202.3,226 C199.2,230.9 196,235.8 192.9,240.7 C190.3,229.9 187.6,219.1 184.9,208.2 C184,204.5 183,200.7 182.1,197 L182.1,197 C179.3,185.8 176.4,174.7 173.5,163.6 C172.5,159.7 171.4,155.8 170.4,151.9 C170.3,151.3 170.1,150.7 169.9,150.1 C168.9,146.5 168,142.9 167,139.2 C185.2,148.3 204.5,155.7 224.6,159.9 C228.3,160.7 231.9,161.4 235.7,161.9 C238.1,162.2 240.4,162.5 242.7,162.8 L242.7,162.8 Z" id="Shape" fill="#EBDEDE"></path>
                        <path d="M444.5,137.9 C438.2,190.4 433.8,229.8 434.7,229.9 L434.8,229.9 C435.7,228.5 459.6,211.9 514.2,174.8 C503.2,170.8 490.7,165.5 477.4,158.5 C464.6,151.7 453.7,144.6 444.5,137.9 L444.5,137.9 Z" id="Shape" fill="#EEEDEE"></path>
                        <path d="M751.6,199.7 C751.5,199.8 750.3,199.4 747.9,198.3 C746.9,197.8 745.6,197.3 744.2,196.6 C741.7,195.5 738.7,194 735.1,192.3 C733.8,191.7 732.5,191.1 731.1,190.4 C728.1,189 724.9,187.4 721.3,185.6 C720,185 718.7,184.3 717.4,183.7 C713.6,181.8 709.6,179.8 705.3,177.7 C704,177.1 702.7,176.4 701.4,175.7 C697,173.5 692.4,171.2 687.6,168.8 C686.2,168.1 684.8,167.4 683.3,166.7 C680.9,165.5 678.4,164.3 675.9,163 C672.9,161.5 669.9,160 666.9,158.5 C666.8,158.4 666.7,158.4 666.5,158.3 C674.6,153.5 683.5,147.6 692.7,140.6 C694.7,139.1 696.7,137.5 698.7,135.9 C699.1,135.6 699.5,135.3 699.8,135 C709.2,127.4 717.3,119.8 724.2,112.7 C725.2,111.7 726.1,110.7 727,109.7 C727,109.7 727,109.7 727,109.8 C727.4,111.3 727.8,112.8 728.2,114.3 C728.7,116 729.1,117.7 729.5,119.4 C731.2,125.7 732.7,131.6 734.2,137.1 C734.9,139.6 735.5,142.1 736.2,144.5 C738,151.2 739.6,157.3 741,162.7 L741,162.7 C741.7,165.3 742.4,167.7 743,170 C744.9,176.8 746.4,182.4 747.6,186.8 L747.6,186.8 C748.3,189.4 749,191.6 749.5,193.4 C750.7,197.4 751.3,199.3 751.6,199.7 L751.6,199.7 L751.6,199.7 Z" id="Shape" fill="#F8E7E1"></path>
                        <g id="Group" transform="translate(683.000000, 109.000000)" fill="#FFFFFF" opacity="0.35">
                            <path d="M16.9,26.2 L16.8,26.5 L11.3,41.7 L4.7,60 C3.3,59.3 1.9,58.6 0.4,57.9 L4.5,46.7 L9.7,32.3 L9.9,31.9 C11.9,30.4 13.9,28.8 15.9,27.2 C16.2,26.8 16.5,26.5 16.9,26.2 L16.9,26.2 Z" id="Shape"></path>
                            <path d="M47,0.9 L45.3,5.5 L41.6,15.6 L22.3,68.8 C21,68.2 19.7,67.5 18.4,66.8 L34.6,22.3 L41.3,4 L41.3,3.9 C42.3,2.9 43.2,1.9 44.1,0.9 C44.1,0.9 44.1,0.9 44.1,1 C44.4,0.7 44.6,0.5 44.9,0.2 L44.9,0.2 L47,0.9 L47,0.9 Z" id="Shape"></path>
                            <path d="M53.3,35.8 L38.4,76.7 C37.1,76.1 35.8,75.4 34.5,74.8 L51.3,28.4 C52,30.9 52.6,33.4 53.3,35.8 L53.3,35.8 Z" id="Shape"></path>
                            <path d="M60.1,61.4 L52.1,83.4 C50.8,82.8 49.5,82.2 48.1,81.5 L58.1,54.1 C58.8,56.6 59.5,59.1 60.1,61.4 L60.1,61.4 Z" id="Shape"></path>
                            <path d="M66.6,84.8 L64.9,89.4 C63.9,88.9 62.6,88.4 61.2,87.7 L64.7,78.2 C65.4,80.8 66.1,83 66.6,84.8 L66.6,84.8 Z" id="Shape"></path>
                        </g>
                        <path d="M559.1,184.3 C571.7,199.6 584.3,214.8 596.8,230.2 C606.3,241.8 615.8,253.5 625.3,265.1 C629.4,234.4 633.4,203.7 637.5,173 C627.4,176.4 615.2,179.6 601.2,181.8 C585.2,184.2 570.9,184.7 559.1,184.3 L559.1,184.3 Z" id="Shape" fill="#EBDEDE"></path>
                        <path d="M793.6,123 C795.3,176.2 796.8,216.1 797.7,216.1 C797.7,216.1 797.7,216.1 797.8,216 C798.5,214.5 820.4,194.4 870.6,149.5 C857.4,145.9 843.4,141.6 828.8,136.5 C816.4,132.2 804.6,127.6 793.6,123 L793.6,123 Z" id="Shape" fill="#EEEDEE"></path>
                        <path d="M1135.3,173.9 C1135.2,174.1 1132.8,173.1 1128.5,171.2 C1125.6,169.9 1121.9,168.2 1117.5,166.1 C1111,163.1 1103,159.2 1093.8,154.8 C1090.3,153.1 1086.6,151.3 1082.7,149.4 C1076,146.1 1068.7,142.6 1061.2,138.9 C1058.1,137.4 1055,135.9 1051.8,134.3 C1054.4,132.7 1057.2,130.9 1060,128.9 C1066.6,124.3 1073.7,118.7 1080.9,111.9 C1090.8,102.5 1098.6,93.2 1104.5,85 C1105.7,83.4 1106.8,81.8 1107.8,80.3 C1108.2,80.5 1109.1,82.9 1110.4,86.9 C1113.5,96.8 1118.8,116.4 1123.8,134.5 C1124.9,138.5 1126,142.5 1127,146.3 C1131.1,160.8 1134.4,172.6 1135.3,173.9 C1135.3,173.8 1135.4,173.8 1135.3,173.9 L1135.3,173.9 Z" id="Shape" fill="#F8E7E1"></path>
                        <path d="M1094.6,151.7 C1094.6,152.8 1094.3,153.8 1093.8,154.7 C1090.3,153 1086.6,151.2 1082.7,149.3 C1083.6,147.1 1085.8,145.5 1088.4,145.5 C1091.9,145.6 1094.6,148.3 1094.6,151.7 L1094.6,151.7 Z" id="Shape" fill="#FFFFFF" opacity="0.35"></path>
                        <path d="M1110.4,86.7 C1110,86.8 1109.5,86.9 1109.1,86.9 C1107.3,86.9 1105.7,86.1 1104.6,84.9 C1105.8,83.3 1106.9,81.7 1107.9,80.2 C1108.3,80.3 1109.2,82.7 1110.4,86.7 L1110.4,86.7 Z" id="Shape" fill="#FFFFFF" opacity="0.35"></path>
                        <circle id="Oval" fill="#FFFFFF" opacity="0.35" cx="1100" cy="114" r="6"></circle>
                        <path d="M1127,146 C1126.2,146.3 1125.4,146.5 1124.5,146.5 C1121.1,146.5 1118.3,143.7 1118.3,140.4 C1118.3,137.2 1120.7,134.6 1123.7,134.3 C1124.9,138.3 1126,142.3 1127,146 L1127,146 Z" id="Shape" fill="#FFFFFF" opacity="0.35"></path>
                        <path d="M1129.5,167.7 C1129.5,169 1129.1,170.1 1128.5,171.1 C1125.6,169.8 1121.9,168.1 1117.5,166 C1118.2,163.4 1120.6,161.5 1123.4,161.5 C1126.8,161.6 1129.5,164.3 1129.5,167.7 L1129.5,167.7 Z" id="Shape" fill="#FFFFFF" opacity="0.35"></path>
                        <path d="M1063.3,134.2 C1063.3,136 1062.5,137.7 1061.2,138.8 C1058.1,137.3 1055,135.8 1051.8,134.2 C1054.4,132.6 1057.2,130.8 1060,128.8 C1062,129.8 1063.3,131.9 1063.3,134.2 L1063.3,134.2 Z" id="Shape" fill="#FFFFFF" opacity="0.35"></path>
                        <path d="M1135.3,173.9 C1135.2,174.1 1132.8,173.1 1128.5,171.2 C1125.6,169.9 1121.9,168.2 1117.5,166.1 C1111,163.1 1103,159.2 1093.8,154.8 C1090.3,153.1 1086.6,151.3 1082.7,149.4 C1076,146.1 1068.7,142.6 1061.2,138.9 C1058.1,137.4 1055,135.9 1051.8,134.3 C1054.4,132.7 1057.2,130.9 1060,128.9 C1066.6,124.3 1073.7,118.7 1080.9,111.9 C1090.8,102.5 1098.6,93.2 1104.5,85 C1105.7,83.4 1106.8,81.8 1107.8,80.3 C1108.2,80.5 1109.1,82.9 1110.4,86.9 C1113.5,96.8 1118.8,116.4 1123.8,134.5 C1124.9,138.5 1126,142.5 1127,146.3 C1131.1,160.8 1134.4,172.6 1135.3,173.9 C1135.3,173.8 1135.4,173.8 1135.3,173.9 L1135.3,173.9 Z" id="Shape"></path>
                        <path d="M939.2,160 C947.6,177.5 955.9,195.2 964.2,213.1 C970.6,226.8 976.8,240.5 982.9,254.1 C992.1,220.1 1001.3,186.2 1010.4,152.2 C1000.3,155.1 988,157.8 973.8,159.3 C960.8,160.7 949.1,160.6 939.2,160 L939.2,160 Z" id="Shape" fill="#EBDEDE"></path>
                        <g id="Group" transform="translate(170.000000, 151.000000)" fill="#FFFFFF" opacity="0.35">
                            <path d="M9.5,6.2 C9.5,9.6 6.8,12.3 3.5,12.4 C2.5,8.5 1.4,4.6 0.4,0.7 C1.3,0.2 2.2,0 3.3,0 C6.7,0 9.5,2.8 9.5,6.2 L9.5,6.2 Z" id="Shape"></path>
                            <circle id="Oval" cx="35" cy="25" r="6"></circle>
                            <path d="M66,12.4 C66,15.8 63.2,18.6 59.8,18.6 C56.4,18.6 53.6,15.8 53.6,12.4 C53.6,11.1 54,9.8 54.8,8.8 C58.5,9.6 62.1,10.3 65.9,10.8 C65.9,11.3 66,11.9 66,12.4 L66,12.4 Z" id="Shape"></path>
                            <path d="M21.9,50.8 C21.9,54.2 19.1,57 15.7,57 C15.4,57 15.2,57 14.9,56.9 C14,53.2 13,49.4 12.1,45.7 C13.1,45 14.4,44.5 15.7,44.5 C19.2,44.6 21.9,47.4 21.9,50.8 L21.9,50.8 Z" id="Shape"></path>
                            <path d="M39,64.5 C36.8,68 34.6,71.4 32.4,74.9 C30.2,73.9 28.7,71.8 28.7,69.2 C28.7,65.8 31.5,63 34.9,63 C36.4,62.9 37.9,63.5 39,64.5 L39,64.5 Z" id="Shape"></path>
                        </g>
                    </g>
                    <path d="M1104.2,753.7 C1101,720.4 1092.4,678.5 1065.9,666.9 C1049,659.5 1036.4,669.4 1018.6,672.2 C944.5,683.6 910.3,550.9 822.5,534.1 C745.5,519.4 690.3,606.1 654.8,579 C623.6,555.1 662.8,485.4 628.9,450.8 C593.4,414.5 500.3,439.8 438.9,482.8 C396.3,512.6 394.7,532.8 279.4,652.9 C246.9,686.8 229,703.9 203.4,704.4 C153.8,705.4 131.1,640.9 93,647.6 C49.2,655.3 28.2,726.7 22.8,748.5 C21.9,750.2 21.3,752.2 21.3,754.3 L21.3,754.8 C382.3,754.3 743.3,754 1104.2,753.7 L1104.2,753.7 Z" id="figure" fill="#EEEDEE"></path>
                </g>
            </g>
            <g id="main" transform="translate(324.000000, 41.000000)">
                <g id="general_2_">
                    <g id="lines" transform="translate(75.000000, 102.000000)" fill="#153E5C" opacity="0.5">
                        <path d="M206.3,388.1 L206.1,388.1 C205.6,388 205.3,387.5 205.4,387 L298.9,0.8 C299,0.3 299.5,-4.24660307e-15 300,0.1 C300.5,0.2 300.8,0.7 300.7,1.2 L207.2,387.4 C207.1,387.8 206.7,388.1 206.3,388.1 L206.3,388.1 Z" id="Shape"></path>
                        <path d="M182.7,390.3 C182.4,390.3 182.2,390.2 182,389.9 L-0.2,149.6 C-0.5,149.2 -0.4,148.6 -8.32667268e-16,148.3 C0.4,148 1,148.1 1.3,148.5 L183.5,388.9 C183.8,389.3 183.7,389.9 183.3,390.2 C183.1,390.3 182.9,390.3 182.7,390.3 L182.7,390.3 Z" id="Shape"></path>
                        <path d="M195.1,388.9 C194.7,388.9 194.3,388.6 194.2,388.2 L138,193.1 C137.9,192.6 138.1,192.1 138.6,192 C139.1,191.9 139.6,192.1 139.7,192.6 L196,387.7 C196.1,388.2 195.9,388.7 195.4,388.8 C195.3,388.9 195.2,388.9 195.1,388.9 L195.1,388.9 Z" id="Shape"></path>
                    </g>
                    <g id="windows_1_">
                        <g id="bird_window" transform="translate(329.000000, 0.000000)">
                            <polygon id="window_3" fill="url(#linearGradient-1)" points="0 0 0 137.2 189 137.2 189 0"></polygon>
                            <g id="bird" transform="translate(20.000000, 35.000000)" opacity="0.5">
                                <path d="M90.9,21 C91.7,18.5 92.8,16.6 93.6,15.5 C92.6,12.6 91.7,9.7 90.7,6.8 L90.5,6.8 C86.5,6.2 81.1,6 77,9.1 C69.6,14.7 72.9,26.2 69.9,33.5 C65.8,43.4 50.5,53.4 -0.1,52.6 C18.8,79 46.2,93.6 70.8,88.6 C81.6,86.4 100.8,78.7 103.4,65.2 C106.1,50.9 85.6,38.1 90.9,21 L90.9,21 Z" id="Shape" fill="#F2BE54"></path>
                                <path d="M103.3,17.7 L93.6,15.5 C92.6,12.6 91.7,9.7 90.7,6.8 C90.6,6.8 96.6,-0.3 96.6,-0.3 L93.2,11 L103.3,17.7 L103.3,17.7 Z" id="Shape" fill="#002544"></path>
                                <path d="M83.4,54.9 C86.8,59.9 79.4,72.4 68.8,77.8 C55.6,84.5 38.1,79.8 37.6,75.8 C37.4,74.3 39.5,72.1 48,68.8 C47,69.1 39.4,71.7 34.5,67.8 C33.8,67.3 32.1,65.9 32.4,64.8 C33,62.8 40.2,63.1 47,63.8 C38.1,61.4 36.5,59.8 36.6,58.8 C36.8,56 49.8,54.7 58.4,53.8 C73.6,52.3 81.2,51.6 83.4,54.9 L83.4,54.9 Z" id="Shape" fill="#DA9E29"></path>
                                <circle id="Oval" fill="#002544" cx="84.5" cy="12.5" r="2.5"></circle>
                            </g>
                            <g id="notes" transform="translate(125.000000, 15.000000)" fill="#002544" opacity="0.5">
                                <path d="M15.2,28.9 C14.6,28.9 14.1,29.1 13.7,29.4 L11.8,22.3 C11.8,22.1 11.6,22 11.4,22 L0.7,22 C0.6,22 0.5,22.1 0.4,22.2 C0.3,22.3 0.3,22.4 0.3,22.6 L2.4,30.6 L2.4,30.6 C2.5,31.4 3.3,32 4.4,32 C5.5,32 6.4,31.3 6.4,30.5 C6.4,29.7 5.5,29 4.4,29 C3.8,29 3.3,29.2 2.9,29.5 L1.1,22.9 L11,22.9 L13.1,30.6 L13.1,30.6 C13.2,31.4 14,32 15.1,32 C16.2,32 17.1,31.3 17.1,30.5 C17.2,29.5 16.3,28.9 15.2,28.9 L15.2,28.9 Z M4.5,29.7 C5.2,29.7 5.7,30.1 5.7,30.4 C5.7,30.7 5.2,31.1 4.5,31.1 C3.8,31.1 3.3,30.7 3.3,30.4 C3.3,30.1 3.8,29.7 4.5,29.7 L4.5,29.7 Z M15.2,31 C14.5,31 14,30.6 14,30.3 C14,30 14.5,29.6 15.2,29.6 C15.9,29.6 16.4,30 16.4,30.3 C16.4,30.7 15.9,31 15.2,31 L15.2,31 Z" id="Shape"></path>
                                <path d="M15.2,12.3 C14.6,12.7 14.3,13.3 14.2,13.8 L7.2,8.5 C7,8.4 6.8,8.4 6.7,8.6 C6.6,8.8 6.6,9 6.8,9.1 L14.5,15 L14.5,15 C14.8,15.3 15.1,15.4 15.5,15.4 C16,15.4 16.6,15.2 17.1,14.8 C17.5,14.5 17.9,14 18,13.6 C18.2,13.1 18.1,12.6 17.8,12.3 C17.3,11.5 16.1,11.6 15.2,12.3 L15.2,12.3 Z M17.3,13.3 C17.2,13.6 16.9,13.9 16.6,14.2 C16,14.7 15.2,14.8 14.9,14.4 C14.6,14 14.9,13.3 15.5,12.8 C15.9,12.5 16.3,12.4 16.6,12.4 C16.8,12.4 17,12.5 17.1,12.6 C17.4,12.9 17.4,13.2 17.3,13.3 L17.3,13.3 Z" id="Shape"></path>
                                <path d="M40.8,16.6 C40.1,16.5 39.5,16.5 39,16.8 L38.7,8 C38.7,7.8 38.5,7.7 38.3,7.7 C38.1,7.7 38,7.9 38,8.1 L38.3,17.8 L38.3,17.8 C38.2,18.2 38.4,18.5 38.6,18.9 C38.9,19.3 39.4,19.6 40,19.7 C40.5,19.8 41.1,19.8 41.5,19.6 C42,19.4 42.3,19.1 42.4,18.6 C42.8,17.7 42,16.8 40.8,16.6 L40.8,16.6 Z M41.4,18.9 C41.1,19 40.7,19 40.3,19 C39.5,18.8 39,18.3 39.1,17.8 C39.2,17.4 40,17.1 40.7,17.3 C41.2,17.4 41.5,17.6 41.8,17.9 C41.9,18.1 42,18.3 42,18.5 C41.9,18.7 41.6,18.8 41.4,18.9 L41.4,18.9 Z" id="Shape"></path>
                                <path d="M28.1,14.7 C28,14.6 27.8,14.5 27.7,14.6 C27.5,14.6 27.4,14.7 27.4,14.9 L25,22.2 C25,22.2 25,22.2 24.9,22.2 C24.5,21.9 24,21.8 23.5,21.7 C22.3,21.6 21.4,22.2 21.3,23.1 L21.3,23.1 C21.2,24 22.1,24.7 23.3,24.8 C23.8,24.8 24.3,24.7 24.7,24.5 C24.8,24.5 24.8,24.4 24.9,24.4 C25.2,24.2 25.4,23.9 25.5,23.5 L28,16 L29.1,17.3 C29.3,17.5 29.5,17.5 29.7,17.4 C29.9,17.2 29.9,17 29.8,16.8 L28.1,14.7 L28.1,14.7 Z M24.4,23.6 C24.2,23.7 23.8,23.8 23.5,23.8 C22.8,23.8 22.3,23.4 22.4,23.1 C22.4,22.8 22.9,22.5 23.6,22.5 C23.9,22.5 24.3,22.6 24.5,22.8 C24.6,22.9 24.8,23 24.8,23.2 C24.7,23.4 24.4,23.6 24.4,23.6 L24.4,23.6 Z" id="Shape"></path>
                                <path d="M33.8,-0.4 C33.7,-0.5 33.6,-0.5 33.5,-0.4 L25.3,2.3 C25.1,2.3 25,2.5 25.1,2.7 L25.4,8.6 C25.1,8.5 24.6,8.5 24.2,8.6 C23.3,8.9 22.8,9.6 23,10.3 L23,10.3 C23.2,10.8 23.7,11 24.3,11 C24.5,11 24.7,11 25,10.9 C25.4,10.8 25.7,10.5 26,10.3 C26.2,10 26.3,9.7 26.2,9.4 L26.2,9.4 L25.9,4.3 L33.4,1.8 L33.6,6 C33.3,5.9 32.8,5.9 32.4,6 C32,6.1 31.7,6.4 31.4,6.6 C31.1,6.9 31.1,7.3 31.2,7.6 C31.4,8.1 31.9,8.3 32.5,8.3 C32.7,8.3 32.9,8.3 33.2,8.2 C34,7.9 34.5,7.2 34.4,6.6 L34.4,6.6 L34,-0.1 C33.9,-0.2 33.8,-0.3 33.8,-0.4 L33.8,-0.4 Z M25.3,9.7 C25.2,9.9 24.9,10 24.7,10.1 C24.2,10.3 23.7,10.1 23.7,9.9 C23.6,9.7 23.9,9.3 24.4,9.1 C24.9,8.9 25.4,9.1 25.4,9.3 C25.5,9.5 25.4,9.7 25.3,9.7 L25.3,9.7 Z M25.8,3.4 L25.8,2.9 L33.3,0.4 L33.3,0.9 L25.8,3.4 L25.8,3.4 Z M32.9,7.5 C32.4,7.7 31.9,7.5 31.9,7.3 C31.9,7.2 32,7 32,6.9 C32.1,6.7 32.4,6.6 32.6,6.5 C33.1,6.3 33.6,6.5 33.6,6.7 C33.7,6.9 33.4,7.3 32.9,7.5 L32.9,7.5 Z" id="Shape"></path>
                            </g>
                        </g>
                        <g id="pig_window_1_" transform="translate(0.000000, 99.000000)">
                            <polygon id="window1" fill="url(#linearGradient-2)" points="0 0 0 162 218.3 162 218.3 0"></polygon>
                            <g id="pig" transform="translate(51.000000, 21.000000)" opacity="0.5">
                                <path d="M40.9,34.5 C39.4,34.9 37.9,35.3 36.5,35.8 C35.1,36.3 33.7,36.8 32.4,37.4 C31.1,38 29.8,38.7 28.5,39.4 C27.3,40.1 26.1,40.8 25,41.5 C23.4,42.5 21.9,43.7 20.5,44.8 C14.3,39.1 7,30.1 10.7,20.9 C16.8,6 26.8,0.1 26.8,0.1 L40.9,34.5 L40.9,34.5 Z" id="Shape" fill="url(#linearGradient-3)"></path>
                                <path d="M32.4,37.4 C31.1,38 29.8,38.7 28.5,39.4 C27.3,40.1 26.1,40.8 25,41.5 C21.7,36.4 16.8,27.4 19.6,22.9 C22.7,17.8 32.5,30.2 36.6,35.8 C35.1,36.3 33.7,36.8 32.4,37.4 L32.4,37.4 Z" id="Shape" fill="#FF7D93"></path>
                                <path d="M91.1,51.3 C90,50 88.7,48.8 87.5,47.6 C87.2,47.3 87,47.1 86.7,46.9 C83.8,44.3 80.6,42 77.2,40 C75.9,39.2 74.5,38.5 73.1,37.9 L90,5.3 C90,5.3 99.5,12 104.3,27.4 C107.4,37.4 98,46.3 91.1,51.3 L91.1,51.3 Z" id="Shape" fill="url(#linearGradient-4)"></path>
                                <path d="M102.8,74.5 C101.4,66.4 97.2,58.2 91.1,51.3 C90,50 88.7,48.8 87.5,47.6 C87.2,47.3 87,47.1 86.7,46.9 C83.8,44.3 80.6,42 77.2,40 C75.9,39.2 74.5,38.5 73.1,37.9 C71.2,37 69.2,36.2 67.2,35.6 C62.5,34.1 57.4,33.2 52.2,33.2 C48.3,33.2 44.5,33.7 40.9,34.6 C39.4,35 37.9,35.4 36.5,35.9 C35.1,36.4 33.7,36.9 32.4,37.5 C31.1,38.1 29.8,38.8 28.5,39.5 C27.3,40.2 26.1,40.9 25,41.6 C23.4,42.6 21.9,43.8 20.5,44.9 C19.7,45.6 18.9,46.3 18.1,47 C16.9,48.1 15.7,49.3 14.5,50.6 C8.9,56.8 4.8,63.8 2.6,70.7 C1.2,75.3 -0.9,82 1.6,89 C7.9,106.3 37.8,107.6 52.2,108.2 C68.9,109 91.1,110 99.9,95.7 C105.1,87.5 103.4,78 102.8,74.5 L102.8,74.5 Z" id="Shape" fill="url(#linearGradient-5)"></path>
                                <path d="M87.5,47.6 C87.2,47.3 87,47.1 86.7,46.9 C83.8,44.3 80.6,42 77.2,40 C81.7,34.8 92.6,23.2 95.3,28.6 C97.7,33.5 91.1,43 87.5,47.6 L87.5,47.6 Z" id="Shape" fill="#FF7D93"></path>
                                <path d="M71.7,86.7 C70.8,92.6 66.3,97.1 61.5,96.9 C56.7,96.7 52.9,92 52.7,86.1 C55.7,87.1 59.3,87.7 63.3,87.7 C66.3,87.6 69.2,87.3 71.7,86.7 L71.7,86.7 Z" id="Shape" fill="#002544"></path>
                                <path d="M63.2,71.2 C53.3,71.2 45.2,74.9 45.2,79.4 C45.2,82.1 48.1,84.5 52.6,86 C55.6,87 59.2,87.6 63.2,87.6 C66.2,87.6 69.1,87.2 71.6,86.6 C77.3,85.2 81.1,82.5 81.1,79.4 C81.2,74.9 73.2,71.2 63.2,71.2 L63.2,71.2 Z" id="Shape" fill="#FF7D93"></path>
                                <circle id="Oval" fill="#002544" transform="translate(57.999718, 79.051040) rotate(-5.371255) translate(-57.999718, -79.051040) " cx="57.9997176" cy="79.0510403" r="1.99998182"></circle>
                                <circle id="Oval" fill="#002544" transform="translate(69.998118, 79.020944) rotate(-5.371255) translate(-69.998118, -79.020944) " cx="69.9981176" cy="79.0209445" r="1.99998182"></circle>
                                <ellipse id="Oval" fill="#002544" cx="46" cy="66.5" rx="3" ry="4.5"></ellipse>
                                <ellipse id="Oval" fill="#002544" cx="75" cy="66.5" rx="3" ry="4.5"></ellipse>
                            </g>
                            <g id="signal" transform="translate(139.000000, 89.000000)" fill="#153E5C" opacity="0.5">
                                <path d="M0.3,17 C0.1,17 -5.82867088e-16,16.9 -0.1,16.8 C-0.2,16.6 -0.2,16.3 0.1,16.2 L27.7,-0.3 C27.9,-0.4 28.2,-0.4 28.3,-0.1 C28.4,0.1 28.4,0.4 28.1,0.5 L0.5,17 L0.3,17 L0.3,17 Z" id="Shape"></path>
                                <path d="M32,29.7 L31.9,29.7 L0.7,21.9 C0.5,21.8 0.3,21.6 0.4,21.3 C0.5,21.1 0.7,20.9 1,21 L32.2,28.8 C32.4,28.9 32.6,29.1 32.5,29.4 C32.4,29.6 32.2,29.7 32,29.7 L32,29.7 Z" id="Shape"></path>
                                <path d="M0.9,19.7 C0.7,19.7 0.5,19.6 0.5,19.3 C0.4,19.1 0.6,18.8 0.8,18.8 L32.2,11.9 C32.4,11.8 32.7,12 32.7,12.2 C32.7,12.4 32.6,12.7 32.4,12.7 L0.9,19.7 L0.9,19.7 L0.9,19.7 Z" id="Shape"></path>
                            </g>
                        </g>
                        <g id="dolphin_window" transform="translate(183.000000, 185.000000)">
                            <polygon id="Rectangle-path" fill="url(#linearGradient-6)" points="0 0 0 149.4 219.4 149.4 219.4 0"></polygon>
                            <g id="window2" transform="translate(74.000000, 44.000000)" opacity="0.5">
                                <path d="M104,54.2 C100.8,52.1 97.7,51.5 95.7,51.4 C92.4,42.6 83.5,28.2 69,18.5 C67.4,17.4 62.8,14.5 56.4,12 C54.6,11.3 52.7,10.7 50.6,10.1 C51.6,6.8 52.5,3.5 53.5,0.2 C49.5,3 45.4,5.8 41.4,8.6 C38.3,8.4 35.2,8.5 31.9,9 C27.2,9.7 19,11 15.5,17.6 C14.1,20.2 13.9,23 14.1,25.4 C12.9,25.2 11.4,25.1 9.5,25.2 C5,25.5 -0.1,27.5 -5.50681462e-14,28.8 C0.1,30.1 5.3,30.7 12.1,31.4 C18.7,32.1 23.8,32.2 28.5,32.3 C33.3,32.4 39.4,32.4 46.5,32.4 C46.9,34.2 48,37.7 50.9,40.9 C52.4,42.5 54,43.6 55.2,44.3 C54.7,40.8 54.2,37.4 53.8,33.9 C56.1,34.5 58.3,35.1 60.4,35.7 C75.8,40 85.3,49.3 90.9,54.8 C90,56.5 88.8,59.5 88.9,63.2 C89,69.2 92.2,73.3 93.2,74.4 C94.4,69.2 95.6,64 96.9,58.7 C101.7,60.4 106.4,62 111.2,63.7 C110.8,62.4 109.1,57.5 104,54.2 L104,54.2 Z" id="Shape" fill="#41548C"></path>
                                <circle id="Oval" fill="#002544" cx="23" cy="25" r="1"></circle>
                            </g>
                            <g id="signals" transform="translate(39.000000, 56.000000)" fill="#153E5C" opacity="0.5">
                                <path d="M31.3,25.5 C31.2,25.5 31,25.4 30.9,25.3 C30,24.2 28.1,21.3 28.2,17.2 C28.3,13.7 29.9,11.2 30.9,10 C31.1,9.8 31.3,9.8 31.5,9.9 C31.7,10.1 31.7,10.3 31.6,10.5 C30.7,11.6 29.2,13.9 29.1,17.1 C29,20.9 30.8,23.6 31.6,24.6 C31.8,24.8 31.7,25.1 31.5,25.2 C31.5,25.5 31.4,25.5 31.3,25.5 L31.3,25.5 Z" id="Shape"></path>
                                <path d="M24.4,28.1 C24.3,28.1 24.1,28 24,27.9 C22.9,26.5 20.3,22.6 20.5,17.3 C20.6,12.6 22.8,9.2 24,7.5 C24.2,7.3 24.4,7.3 24.6,7.4 C24.8,7.6 24.8,7.8 24.7,8 C23.5,9.5 21.5,12.7 21.3,17.2 C21.2,22.3 23.6,25.9 24.7,27.3 C24.9,27.5 24.8,27.8 24.6,27.9 C24.6,28.1 24.5,28.1 24.4,28.1 L24.4,28.1 Z" id="Shape"></path>
                                <path d="M16.6,32.4 C16.5,32.4 16.3,32.3 16.3,32.2 C14.6,30.3 10.7,24.9 11,17.2 C11.3,9.8 15.4,4.9 17.2,3.1 C17.4,2.9 17.7,2.9 17.8,3.1 C18,3.3 18,3.6 17.8,3.7 C16.1,5.4 12.2,10.1 11.9,17.2 C11.6,24.6 15.3,29.7 17,31.5 C17.2,31.7 17.1,32 17,32.1 C16.8,32.4 16.7,32.4 16.6,32.4 L16.6,32.4 Z" id="Shape"></path>
                                <path d="M7.1,35 C7,35 6.9,35 6.8,34.9 C5.1,33.2 -0.4,26.8 -0.2,17.3 C-9.76996262e-15,7.6 5.9,1.4 7.7,-0.3 C7.9,-0.5 8.2,-0.5 8.3,-0.3 C8.5,-0.1 8.5,0.2 8.3,0.3 C6.6,1.9 0.9,7.9 0.7,17.2 C0.5,26.4 5.8,32.5 7.5,34.1 C7.7,34.3 7.7,34.6 7.5,34.7 C7.4,34.9 7.3,35 7.1,35 L7.1,35 Z" id="Shape"></path>
                            </g>
                        </g>
                    </g>
                    <g id="ball" transform="translate(329.000000, 894.000000)">
                        <path d="M87.3,44.1 C87.3,57.2 81.5,69 72.4,77.1 C64.7,83.9 54.6,88 43.5,88 C33.4,88 24,84.6 16.6,78.8 C11.3,74.7 7,69.5 4.1,63.5 C1.2,57.7 -0.4,51.1 -0.4,44.2 C-0.4,32.1 4.5,21.1 12.5,13.1 C20.4,5.2 31.4,0.3 43.5,0.3 C51.9,0.3 59.7,2.7 66.4,6.7 C68.5,8 70.6,9.5 72.5,11.2 C81.5,19.1 87.3,30.9 87.3,44.1 L87.3,44.1 Z" id="Shape" fill="#002544"></path>
                        <path d="M70.1,76.6 C70,76.6 69.9,76.6 69.8,76.5 C60.5,68.3 55.2,56.6 55.2,44.2 C55.2,31.8 60.5,20 69.8,11.9 C70,11.7 70.3,11.8 70.4,11.9 C70.6,12.1 70.5,12.4 70.4,12.5 C61.3,20.5 56.1,32 56.1,44.1 C56.1,56.2 61.3,67.7 70.4,75.7 C70.6,75.9 70.6,76.2 70.4,76.3 C70.4,76.5 70.3,76.6 70.1,76.6 L70.1,76.6 Z" id="Shape" fill="#FFFFFF"></path>
                        <path d="M16.8,76.6 C16.7,76.6 16.5,76.5 16.5,76.4 C16.3,76.2 16.4,75.9 16.5,75.8 C25.6,67.8 30.8,56.3 30.8,44.2 C30.8,32.1 25.6,20.6 16.5,12.6 C16.3,12.4 16.3,12.1 16.5,12 C16.7,11.8 17,11.8 17.1,12 C26.4,20.2 31.7,31.9 31.7,44.3 C31.7,56.7 26.4,68.4 17.1,76.6 C17,76.6 16.9,76.6 16.8,76.6 L16.8,76.6 Z" id="Shape" fill="#FFFFFF"></path>
                        <path d="M66.3,6.6 L4,63.4 C1.1,57.6 -0.5,51 -0.5,44.1 C-0.5,32 4.4,21 12.4,13 C20.3,5.1 31.3,0.2 43.4,0.2 C51.8,0.2 59.7,2.5 66.3,6.6 L66.3,6.6 Z" id="Shape" fill="#FFFFFF" opacity="0.11"></path>
                    </g>
                    <g id="mother" transform="translate(79.000000, 274.000000)">
                        <g id="legs" transform="translate(0.000000, 308.000000)">
                            <g id="socks_1_" transform="translate(0.000000, 258.000000)">
                                <path d="M106,56.6 C106,56.8 105.8,57.1 105.6,57.1 L101.9,57.4 C101.9,59 101.8,60.5 101.7,61.8 C100.2,76.2 11.2,77 2.8,73.2 C2.4,73 1.2,72.4 0.5,71.1 C-1.9,67 2,59.3 6.6,55.7 C6.7,55.6 6.9,55.5 7,55.4 C11.5,52.1 16.1,53.1 22.3,53.8 L19.2,50.5 C19,50.3 19,50 19.2,49.8 C19.4,49.6 19.7,49.6 19.9,49.8 L23.8,53.9 C26.4,54.2 29.2,54.3 32.5,54.1 C40.2,53.6 49.2,51 56.9,46.2 L53.3,43.7 C53.1,43.6 53,43.3 53.2,43 C53.3,42.8 53.6,42.7 53.9,42.9 L57.8,45.6 C57.9,45.5 58,45.5 58.1,45.4 L56.5,40.6 C56.4,40.4 56.5,40.1 56.8,40 C57.1,39.9 57.3,40 57.4,40.3 L58.9,44.8 C63.5,41.6 67.6,37.6 70.6,32.6 C73.2,28.3 74.6,23.8 75.3,19.6 C75.5,18.3 75.7,16.9 75.8,15.7 C76,12.8 75.9,10.1 75.7,7.7 C75.8,5.2 75.8,2.8 75.9,0.4 C78.8,1.2 81.8,2 84.7,2.8 C88.9,3.9 93,5 97.2,6.1 C97.2,6.1 97.8,10 98.5,15.8 C98.6,16.8 98.8,17.9 98.9,19.1 C99.7,25.4 100.6,33.2 101.2,40.6 L102.9,38.2 C103,38 103.3,37.9 103.6,38.1 C103.8,38.2 103.9,38.5 103.7,38.8 L101.3,42.1 C101.6,46.2 101.9,50.2 101.9,53.7 L103.4,52.4 C103.6,52.2 103.9,52.3 104.1,52.5 C104.3,52.7 104.2,53 104.1,53.2 L102,55 L102,56.5 L105.6,56.3 C105.7,56.2 106,56.4 106,56.6 L106,56.6 Z" id="Shape" fill="#0D2A28"></path>
                                <path d="M518.5,26 L516.4,31.1 C516.7,33.4 517,36.4 517.4,40.5 C518.1,49.7 518.5,54.2 518.4,58.7 C518,75.4 517.4,96.9 505,104.6 C502.5,106.2 499.7,107 498.3,107.5 C494.4,108.7 486.5,111.1 479.2,107.5 C477.5,106.7 471.4,103.6 471.6,99.9 C471.6,99.1 472,98.3 472.6,97.7 C476.5,93.6 491,93.2 496.4,83.6 C497.8,81.1 498.4,78.3 498.4,75.5 L492.6,75.5 C492.3,75.5 492.1,75.3 492.1,75 C492.1,74.7 492.3,74.5 492.6,74.5 L498.1,74.5 L494.1,70.5 C493.9,70.3 493.9,70 494.1,69.8 C494.3,69.6 494.6,69.6 494.8,69.8 L498.3,73.3 C497.8,67.3 495,61.4 492.6,57.7 C485.1,46.4 470.1,40.9 454.4,43.4 C455,36 455.5,28.7 456.1,21.3 C468.9,20.6 482.9,20 498.4,19.5 L499.6,19.5 L497.9,18.6 C497.7,18.5 497.6,18.2 497.7,18 C497.8,17.8 498.1,17.7 498.3,17.8 L501.6,19.5 L503,19.5 L501.6,14.8 C501.5,14.6 501.7,14.3 501.9,14.2 C502.1,14.1 502.4,14.3 502.5,14.5 L504,19.5 C504.9,19.6 505.7,19.7 506.5,19.8 C509.2,20.3 511.7,21.3 513.6,23.3 C514.8,24.5 515.5,26 516.2,29.3 L517.7,25.6 C517.8,25.4 518.1,25.2 518.3,25.3 C518.5,25.5 518.6,25.8 518.5,26 L518.5,26 Z" id="Shape" fill="#004E5A"></path>
                                <path d="M88.4,19 C88.7,38.9 72.7,52.1 67.7,55.8 C64.3,58.3 51.5,67.3 33.4,65.9 C21.4,65 12.3,59.5 7,55.5 C11.5,52.2 16.1,53.2 22.3,53.9 L19.2,50.6 C19,50.4 19,50.1 19.2,49.9 C19.4,49.7 19.7,49.7 19.9,49.9 L23.8,54 C26.4,54.3 29.2,54.4 32.5,54.2 C40.2,53.7 49.2,51.1 56.9,46.3 L53.3,43.8 C53.1,43.7 53,43.4 53.2,43.1 C53.3,42.9 53.6,42.8 53.9,43 L57.8,45.7 C57.9,45.6 58,45.6 58.1,45.5 L56.5,40.7 C56.4,40.5 56.5,40.2 56.8,40.1 C57.1,40 57.3,40.1 57.4,40.4 L58.9,44.9 C63.5,41.7 67.6,37.7 70.6,32.7 C74,27 75.4,21.1 75.8,15.7 C76.1,11.2 75.7,7.1 75.2,3.9 L75.2,0.1 C78.4,0.9 81.5,1.8 84.7,2.6 C86.1,5.6 87.8,10.1 88.3,15.6 C88.3,16.9 88.4,17.9 88.4,19 L88.4,19 Z" id="Shape" fill="#FFFFFF" opacity="0.12"></path>
                                <path d="M518.5,26 L516.4,31.1 C516.7,33.4 517,36.4 517.4,40.5 C518.1,49.7 518.5,54.2 518.4,58.7 C518,75.4 517.4,96.9 505,104.6 C502.5,106.2 499.7,107 498.3,107.5 C494.4,108.7 486.5,111.1 479.2,107.5 C477.5,106.7 471.4,103.6 471.6,99.9 C471.6,99.1 472,98.3 472.6,97.7 C474.8,98.9 481.7,102.3 490.7,100.8 C493,100.4 502,99 506.9,92.2 C517.1,78.2 504.8,47.8 503.1,43.5 C502.5,42 500.8,38.1 501.2,33 C501.6,27.2 504.4,22.7 506.5,20 C508,20.3 511.4,21.2 513.6,23.5 C514.8,24.7 515.5,26.2 516.2,29.5 C516.9,28.3 517.7,27.1 518.5,26 L518.5,26 Z" id="Shape" fill="#0D2A28" opacity="0.28"></path>
                            </g>
                            <g id="leg_back" transform="translate(75.000000, 0.000000)">
                                <path d="M272.4,56.8 C264,67 255.7,77.1 247.3,87.3 C245.9,89 244.6,90.6 243.2,92.3 C241.4,94.5 239.6,96.7 237.7,98.9 C230.1,108.1 222.5,117.3 215,126.5 C212.2,125.6 209.3,124.7 206.5,123.7 C159.8,108.5 113.2,93.3 66.5,78.1 C67,87.2 67.2,100.9 65.4,117.5 C62,149 53.3,169.5 45.1,194 C38.7,213.3 30.4,241.4 23.7,277.1 L23.7,277.2 C21.8,277.3 19.9,277.4 18,277.5 C12,277.8 6.1,278.1 0.1,278.4 L0.1,277.8 C0.2,273.7 0.3,269.8 0.5,265.8 C0.6,263.3 0.6,260.9 0.7,258.5 C2.1,210.2 2.3,172.7 2.3,147.8 C2.3,92 2.3,41.5 32.9,12.8 C34.4,11.4 35.8,10.3 37.2,9.4 C59.4,-5.8 87.1,0.3 141.8,11.7 C198.4,23.5 242.8,42.1 272.4,56.8 L272.4,56.8 Z" id="Shape" fill="#DA9E29"></path>
                                <path d="M256.7,92.8 C251.5,91.9 247,91.9 243.3,92.3 C238.9,92.8 235.5,93.8 233.2,94.8 C221.3,99.5 211.9,110 206.6,123.8 C159.9,108.6 113.3,93.4 66.6,78.2 C67.1,87.3 67.3,101 65.5,117.6 C62.1,149.1 53.4,169.6 45.2,194.1 C38.8,213.4 30.5,241.5 23.8,277.2 L23.8,277.3 C21.9,277.4 20,277.5 18.1,277.6 C14.7,215.8 20,165.2 26.1,128.8 C37.8,58.6 51.5,45.7 61,39.9 C86.9,24 121.5,35.7 170.1,52.3 C202.5,63.3 228.6,76.5 247.4,87.3 C250.7,89.2 253.8,91.1 256.7,92.8 L256.7,92.8 Z" id="Shape" fill="url(#linearGradient-7)" opacity="0.56"></path>
                            </g>
                            <g id="leg_front" transform="translate(212.000000, 63.000000)">
                                <path d="M278.3,214.3 C278.1,215.1 277.9,215.9 277.8,216.7 C277.7,217.3 277.5,217.9 277.4,218.5 C276.6,222.4 275.8,226.4 275,230.5 C274.9,230.9 274.8,231.4 274.8,231.8 C274,236.2 273.3,240.5 272.7,244.7 C272.3,244.6 271.8,244.6 271.4,244.5 C270.8,244.4 270.2,244.4 269.6,244.3 C265.8,243.9 261.3,243.4 256.2,242.8 C255.4,242.7 254.6,242.6 253.7,242.5 C252.9,242.4 252,242.3 251.2,242.2 C250.9,242.2 250.5,242.1 250.2,242.1 C248.2,241.9 246,241.6 243.8,241.3 C243.2,241.2 242.6,241.2 242,241.1 C240.2,240.9 238.4,240.7 236.5,240.4 C235.6,240.3 234.8,240.2 233.9,240.1 L233.7,240.1 C232.7,240 231.6,239.8 230.5,239.7 C229.2,239.5 227.8,239.4 226.4,239.2 C225,239 223.6,238.8 222.2,238.7 C221.1,238.6 219.9,238.4 218.8,238.3 C218.7,238.3 218.5,238.3 218.4,238.2 C217.8,238.1 217.2,238 216.6,238 C215.6,237.9 214.6,237.7 213.6,237.6 C212.4,237.4 211.2,237.3 210,237.1 C208.8,236.9 207.6,236.8 206.4,236.6 C205.8,236.5 205.2,236.4 204.6,236.4 C203.4,236.2 202.2,236.1 200.9,235.9 C197.6,235.5 194.2,235 190.8,234.5 C190.2,234.4 189.6,234.3 189,234.3 C186.6,234 184.2,233.6 181.7,233.3 C180.6,233.1 179.6,233 178.5,232.8 C178.3,232.8 178,232.7 177.8,232.7 C175.8,232.4 173.8,232.1 171.8,231.8 C171.4,231.8 171,231.7 170.6,231.6 C169.4,231.4 168.2,231.3 166.9,231.1 C165.7,230.9 164.5,230.8 163.2,230.6 C162.6,230.5 162,230.4 161.4,230.3 C153,229.1 144.4,227.8 135.7,226.4 C135.1,226.3 134.5,226.2 133.9,226.1 C133.7,226.1 133.4,226 133.2,226 C131.4,225.7 129.6,225.4 127.8,225.2 C125.8,224.9 123.8,224.6 121.7,224.2 C119.8,223.9 117.9,223.6 116,223.3 C114.1,223 112.2,222.7 110.3,222.4 C109.7,222.3 109.1,222.2 108.5,222.1 C108.3,222.1 108.1,222 107.9,222 C105.9,221.7 104,221.3 102.1,221 C98.7,220.4 95.4,219.8 92,219.2 C89.2,218.7 86.4,218.2 83.6,217.7 C83.3,217.6 83.1,217.6 82.8,217.5 C82.2,217.4 81.6,217.3 81,217.2 C79.5,216.9 78,216.7 76.5,216.4 C75.4,216.2 74.3,216 73.3,215.8 C72.9,215.7 72.5,215.7 72.1,215.6 L72.1,215.6 L72,215.6 C71.8,215.6 71.5,215.5 71.3,215.4 C68.2,214.8 65.1,214.2 62.1,213.6 L62.1,213.6 C61,213.4 59.9,213.2 58.8,212.9 C58.2,212.8 57.6,212.7 57,212.5 C52.4,211.6 47.8,210.6 43.3,209.6 C42,209.3 40.5,209 38.9,208.6 C38.6,208.5 38.4,208.5 38.1,208.4 C37.4,208.2 36.7,208.1 36,207.9 C35.1,207.7 34.2,207.4 33.3,207.2 C32.6,207 32,206.8 31.3,206.6 C30.7,206.4 30.1,206.2 29.5,206 C29.3,205.9 29.2,205.9 29,205.8 C28.5,205.6 28,205.5 27.5,205.3 C24.7,204.3 21.8,203.1 19.1,201.6 C18.7,201.4 18.3,201.2 17.9,200.9 C17.7,200.8 17.6,200.7 17.4,200.6 C17.1,200.4 16.8,200.3 16.5,200.1 C16.4,200.1 16.4,200 16.3,200 C15.9,199.8 15.5,199.5 15.1,199.2 C14.8,199 14.4,198.8 14.1,198.5 C13.8,198.3 13.5,198.1 13.2,197.9 C12.8,197.6 12.5,197.4 12.1,197.1 C12,197 11.9,197 11.9,196.9 C11.8,196.9 11.8,196.8 11.7,196.8 C11.5,196.6 11.2,196.5 11,196.2 C10.9,196.2 10.9,196.1 10.8,196.1 C10.7,196 10.5,195.9 10.4,195.8 L10.4,195.8 C10.4,195.8 10.3,195.7 10.2,195.7 C10.2,195.7 10.2,195.7 10.1,195.6 L10.1,195.6 C9.8,195.3 9.5,195 9.2,194.8 C8.6,194.2 8,193.6 7.4,192.9 C7.3,192.7 7.1,192.6 7,192.5 C6.4,191.9 5.9,191.2 5.4,190.5 C5.2,190.3 5.1,190 4.9,189.8 L4.8,189.7 C4.6,189.5 4.5,189.2 4.3,188.9 C4.3,188.8 4.2,188.7 4.1,188.7 C3.9,188.5 3.8,188.2 3.7,188 C3.6,187.9 3.6,187.8 3.5,187.7 C3.5,187.7 3.5,187.7 3.5,187.6 C3.4,187.5 3.4,187.4 3.3,187.3 L3.3,187.2 C3.1,186.8 2.9,186.4 2.7,186 C0.7,181.8 -0.2,177.3 -0.1,172.4 L-0.1,171.5 C-0.1,170.8 -6.78165857e-13,170.2 0.1,169.5 C0.1,169.3 0.1,169 0.2,168.8 C0.3,167.9 0.4,167 0.6,166.1 C0.7,165.8 0.7,165.5 0.8,165.2 C1,164.4 1.2,163.5 1.4,162.7 C1.6,162.1 1.7,161.5 1.9,160.9 L1.9,160.8 C2,160.4 2.1,160 2.3,159.6 C2.4,159.2 2.6,158.7 2.7,158.3 C2.8,158.1 2.9,157.8 2.9,157.6 C3.1,157 3.3,156.5 3.5,155.9 C3.6,155.6 3.7,155.3 3.8,155 C3.9,154.7 4,154.4 4.2,154.1 C4.4,153.5 4.7,152.9 4.9,152.3 C5.1,151.8 5.3,151.3 5.5,150.8 C5.6,150.6 5.7,150.3 5.8,150.1 C6.3,149 6.8,147.8 7.3,146.7 C7.9,145.5 8.5,144.2 9.1,142.9 C9.5,142.1 9.9,141.3 10.3,140.5 C11.6,138 13,135.5 14.5,132.8 C18.4,125.8 23.1,118.1 28.4,109.6 C28.7,109.2 28.9,108.8 29.2,108.4 C29.8,107.5 30.4,106.5 31,105.5 C31.2,105.2 31.4,104.9 31.6,104.6 C32,104 32.4,103.4 32.8,102.8 C39.8,91.9 47.7,79.9 56.8,66.9 C57.4,66 58,65.2 58.6,64.3 C63.4,57.4 68.6,50.3 74,43 C74.4,42.4 74.9,41.8 75.3,41.2 C77.1,38.7 79,36.2 80.9,33.7 C81.5,32.9 82.1,32.1 82.7,31.3 C90.3,21.3 98.4,11 107.1,0.4 C107.5,0.5 108,0.6 108.4,0.7 C109,0.9 109.6,1 110.2,1.2 C118,3.3 125.9,5.3 133.7,7.4 C134.3,7.6 134.9,7.7 135.5,7.9 C144.1,10.2 152.7,12.4 161.2,14.7 C161.8,14.9 162.4,15 163,15.2 C171.6,17.5 180.2,19.7 188.8,22 C189.4,22.2 190,22.3 190.6,22.5 C196.9,24.2 203.1,25.8 209.4,27.5 C209.4,32.1 209.3,37.5 208.5,43.1 C208.4,43.7 208.3,44.3 208.3,44.9 C206.7,55.7 203.2,67.8 195.9,79.2 C194.2,81.8 192.5,84.2 190.6,86.4 C190,87.1 189.4,87.8 188.8,88.5 C183,94.8 176.3,99.7 167.9,104.7 C166.9,105.3 165.9,105.9 164.9,106.5 C164.3,106.9 163.6,107.2 163,107.6 C162.4,107.9 161.8,108.3 161.2,108.6 C153.8,112.8 145.3,117.4 135.5,123.2 C134.9,123.5 134.3,123.9 133.7,124.3 C127.6,127.9 121,131.9 113.8,136.6 C112.6,137.4 111.4,138.2 110.2,139 C109.6,139.4 109,139.8 108.4,140.2 C98.2,147 89.5,153.3 82.6,158.6 C82,159.1 81.4,159.5 80.8,160 C79.8,160.8 78.9,161.5 78,162.2 C77.2,162.8 76.4,163.4 75.7,164 C74.8,164.7 74,165.3 73.3,165.9 C75.4,165.4 78,164.8 80.8,164.4 C81.4,164.3 82,164.2 82.6,164.2 C82.8,164.2 83,164.1 83.2,164.1 L83.2,164.1 C87.2,163.6 91.8,163.4 96.9,163.7 C99.4,163.8 101.7,164.1 103.8,164.4 L103.8,164.4 C105.5,164.6 107,164.9 108.3,165.2 C109,165.3 109.6,165.5 110.1,165.6 C110.6,165.7 111,165.8 111.4,165.9 C115.2,166.8 122.7,168.9 133.5,172 C134.1,172.2 134.7,172.3 135.3,172.5 C142.6,174.6 151.2,177 161,179.9 C161.6,180.1 162.2,180.2 162.8,180.4 C170.7,182.7 179.3,185.2 188.6,187.9 C189.2,188.1 189.8,188.3 190.4,188.4 C198.5,190.8 207.1,193.3 216.1,196 C216.7,196.2 217.3,196.3 217.9,196.5 C225.4,198.7 233.3,201 241.4,203.4 C242,203.6 242.6,203.8 243.2,203.9 C251.5,206.4 260.1,208.9 269,211.5 C269.6,211.7 270.2,211.9 270.8,212 C273.7,212.9 276,213.6 278.3,214.3 L278.3,214.3 Z" id="Shape" fill="#F2BE54"></path>
                                <g id="Group" transform="translate(2.000000, 1.000000)" fill="#DA9E29">
                                    <path d="M29.2,104.6 L29.2,205.8 C28.6,205.6 28,205.4 27.4,205.2 L27.4,107.4 C27.9,106.5 28.5,105.6 29.2,104.6 L29.2,104.6 Z" id="Shape"></path>
                                    <path d="M7.2,142 L7.2,194 C6.6,193.4 6,192.8 5.4,192.1 L5.4,145.7 C6,144.6 6.6,143.3 7.2,142 L7.2,142 Z" id="Shape"></path>
                                    <path d="M54.9,66 C55.5,65.1 56.1,64.3 56.7,63.4 L56.7,212 C56.1,211.9 55.5,211.8 54.9,211.6 L54.9,66 L54.9,66 Z" id="Shape"></path>
                                    <path d="M80.9,30.4 L80.9,157.6 C80.3,158.1 79.7,158.5 79.1,159 L79.1,32.8 C79.7,32 80.3,31.2 80.9,30.4 L80.9,30.4 Z" id="Shape"></path>
                                    <path d="M80.9,163.2 L80.9,216.7 C80.3,216.6 79.7,216.5 79.1,216.4 L79.1,163.5 C79.7,163.4 80.3,163.3 80.9,163.2 L80.9,163.2 Z" id="Shape"></path>
                                    <path d="M108.5,0.4 L108.5,138.1 C107.9,138.5 107.3,138.9 106.7,139.3 L106.7,-0.1 C107.3,0.1 107.9,0.2 108.5,0.4 L108.5,0.4 Z" id="Shape"></path>
                                    <path d="M108.5,164.6 L108.5,221.4 C107.9,221.3 107.3,221.2 106.7,221.1 L106.7,164.1 C107.3,164.4 107.9,164.5 108.5,164.6 L108.5,164.6 Z" id="Shape"></path>
                                    <path d="M133.8,7.1 L133.8,122.3 C133.2,122.6 132.6,123 132,123.4 L132,6.6 C132.6,6.8 133.2,6.9 133.8,7.1 L133.8,7.1 Z" id="Shape"></path>
                                    <path d="M133.8,171.5 L133.8,225.5 C133.2,225.4 132.6,225.3 132,225.2 L132,171 C132.6,171.2 133.2,171.4 133.8,171.5 L133.8,171.5 Z" id="Shape"></path>
                                    <path d="M161.4,14.3 L161.4,106.6 C160.8,106.9 160.2,107.3 159.6,107.6 L159.6,13.7 C160.1,14 160.7,14.2 161.4,14.3 L161.4,14.3 Z" id="Shape"></path>
                                    <path d="M161.4,179.5 L161.4,229.7 C160.8,229.6 160.2,229.5 159.6,229.4 L159.6,178.9 C160.1,179.1 160.7,179.3 161.4,179.5 L161.4,179.5 Z" id="Shape"></path>
                                    <path d="M188.9,21.6 L188.9,85.5 C188.3,86.2 187.7,86.9 187.1,87.6 L187.1,21.2 C187.7,21.3 188.3,21.5 188.9,21.6 L188.9,21.6 Z" id="Shape"></path>
                                    <path d="M188.9,187.5 L188.9,233.6 C188.3,233.5 187.7,233.4 187.1,233.4 L187.1,187 C187.7,187.1 188.3,187.3 188.9,187.5 L188.9,187.5 Z" id="Shape"></path>
                                    <path d="M206.8,42.2 C206.7,42.8 206.6,43.4 206.6,44 L188.9,43.8 L187.1,43.8 L161.3,43.4 L159.5,43.4 L133.8,43.1 L132,43.1 L108.5,42.8 L106.7,42.8 L80.9,42.4 L79.1,42.4 L72.1,42.3 C72.5,41.7 73,41.1 73.4,40.5 L79,40.6 L80.8,40.6 L106.6,41 L108.4,41 L131.9,41.3 L133.7,41.3 L159.4,41.6 L161.2,41.6 L187,42 L188.8,42 L206.8,42.2 L206.8,42.2 Z" id="Shape"></path>
                                    <path d="M166.2,103.8 C165.2,104.4 164.2,105 163.2,105.6 L161.3,105.6 L159.5,105.6 L133.8,105.2 L132,105.2 L108.5,104.9 L106.7,104.9 L80.9,104.5 L79.1,104.5 L56.7,104.2 L54.9,104.2 L29.7,103.9 C30.1,103.3 30.5,102.7 30.9,102.1 L54.9,102.4 L56.7,102.4 L79.1,102.7 L80.9,102.7 L106.7,103.1 L108.5,103.1 L132,103.4 L133.8,103.4 L159.5,103.8 L161.3,103.8 L166.2,103.8 L166.2,103.8 Z" id="Shape"></path>
                                    <path d="M76.3,161.2 C75.5,161.8 74.7,162.4 74,163 L56.7,162.8 L54.9,162.8 L39.4,162.6 L29.2,162.5 L27.4,162.5 L7.3,162.2 L5.5,162.2 L-0.5,162.1 C-0.3,161.5 -0.2,160.9 2.27373675e-13,160.3 L5.5,160.4 L7.3,160.4 L27.4,160.7 L29.2,160.7 L37.2,160.8 L54.9,161 L56.7,161 L76.3,161.2 L76.3,161.2 Z" id="Shape"></path>
                                    <path d="M95.2,162.7 C97.7,162.8 100,163.1 102.1,163.4 L81.5,163.1 C85.6,162.6 90.2,162.4 95.2,162.7 L95.2,162.7 Z" id="Shape"></path>
                                    <path d="M275.8,215.7 C275.7,216.3 275.5,216.9 275.4,217.5 L269.3,217.4 L267.5,217.4 L241.7,217 L239.9,217 L216.4,216.7 L214.6,216.7 L188.9,216.3 L187.1,216.3 L165.9,216 L161.3,215.9 L159.5,215.9 L133.8,215.5 L132,215.5 L108.5,215.2 L106.7,215.2 L80.9,214.8 L79.1,214.8 L70.2,214.7 L70.2,214.7 L70.1,214.7 C69.9,214.7 69.6,214.6 69.4,214.5 C66.3,213.9 63.2,213.3 60.2,212.7 L79.2,213 L81,213 L106.8,213.3 L108.6,213.3 L132.1,213.6 L133.9,213.6 L157.5,213.9 L157.5,213.9 L159.6,213.9 L161.4,213.9 L187.2,214.3 L189,214.3 L214.7,214.7 L216.5,214.7 L240,215 L241.8,215 L267.6,215.4 L269.4,215.4 L275.8,215.7 L275.8,215.7 Z" id="Shape"></path>
                                    <path d="M216.5,195.6 L216.5,237.2 C215.9,237.1 215.3,237 214.7,237 L214.7,195 C215.3,195.2 215.9,195.4 216.5,195.6 L216.5,195.6 Z" id="Shape"></path>
                                    <path d="M241.8,203.1 L241.8,240.4 C241.2,240.3 240.6,240.3 240,240.2 L240,202.6 C240.6,202.7 241.2,202.9 241.8,203.1 L241.8,203.1 Z" id="Shape"></path>
                                    <path d="M269.4,211.2 L269.4,243.5 C268.8,243.4 268.2,243.4 267.6,243.3 L267.6,210.7 C268.2,210.9 268.8,211.1 269.4,211.2 L269.4,211.2 Z" id="Shape"></path>
                                </g>
                                <path d="M274.8,231.8 C274,236.2 273.3,240.5 272.7,244.7 C272.3,244.6 271.8,244.6 271.4,244.5 C270.8,244.4 270.2,244.4 269.6,244.3 C265.8,243.9 261.3,243.4 256.2,242.8 C255.4,242.7 254.6,242.6 253.7,242.5 C252.9,242.4 252,242.3 251.2,242.2 C250.9,242.2 250.5,242.1 250.2,242.1 C248.2,241.9 246,241.6 243.8,241.3 C243.2,241.2 242.6,241.2 242,241.1 C240.2,240.9 238.4,240.7 236.5,240.4 C235.6,240.3 234.8,240.2 233.9,240.1 L233.7,240.1 C232.7,240 231.6,239.8 230.5,239.7 C229.2,239.5 227.8,239.4 226.4,239.2 C225,239 223.6,238.8 222.2,238.7 C221.1,238.6 219.9,238.4 218.8,238.3 C218.7,238.3 218.5,238.3 218.4,238.2 C217.8,238.1 217.2,238 216.6,238 C215.6,237.9 214.6,237.7 213.6,237.6 C212.4,237.4 211.2,237.3 210,237.1 C208.8,236.9 207.6,236.8 206.4,236.6 C205.8,236.5 205.2,236.4 204.6,236.4 C203.4,236.2 202.2,236.1 200.9,235.9 C197.6,235.5 194.2,235 190.8,234.5 C190.2,234.4 189.6,234.3 189,234.3 C186.6,234 184.2,233.6 181.7,233.3 C180.6,233.1 179.6,233 178.5,232.8 C178.3,232.8 178,232.7 177.8,232.7 C175.8,232.4 173.8,232.1 171.8,231.8 C171.4,231.8 171,231.7 170.6,231.6 C169.4,231.4 168.2,231.3 166.9,231.1 C165.7,230.9 164.5,230.8 163.2,230.6 C162.6,230.5 162,230.4 161.4,230.3 C153,229.1 144.4,227.8 135.7,226.4 C135.1,226.3 134.5,226.2 133.9,226.1 C133.7,226.1 133.4,226 133.2,226 C131.4,225.7 129.6,225.4 127.8,225.2 C125.8,224.9 123.8,224.6 121.7,224.2 C119.8,223.9 117.9,223.6 116,223.3 C114.1,223 112.2,222.7 110.3,222.4 C109.7,222.3 109.1,222.2 108.5,222.1 C108.3,222.1 108.1,222 107.9,222 C105.9,221.7 104,221.3 102.1,221 C98.7,220.4 95.4,219.8 92,219.2 C89.2,218.7 86.4,218.2 83.6,217.7 C83.3,217.6 83.1,217.6 82.8,217.5 C82.2,217.4 81.6,217.3 81,217.2 C79.5,216.9 78,216.7 76.5,216.4 C75.4,216.2 74.3,216 73.3,215.8 C72.9,215.7 72.5,215.7 72.1,215.6 L72.1,215.6 C71.8,215.5 71.5,215.5 71.2,215.4 C68.1,214.8 65,214.2 62,213.6 L62,213.6 C60.9,213.4 59.8,213.2 58.7,212.9 C58.1,212.8 57.5,212.7 56.9,212.5 C52.3,211.6 47.7,210.6 43.2,209.6 C41.9,209.3 40.4,209 38.8,208.6 C38.5,208.5 38.3,208.5 38,208.4 C37.3,208.2 36.6,208.1 35.9,207.9 C35,207.7 34.1,207.4 33.2,207.2 C32.5,207 31.9,206.8 31.2,206.6 C30.6,206.4 30,206.2 29.4,206 C29.2,205.9 29.1,205.9 28.9,205.8 C28.4,205.6 27.9,205.5 27.4,205.3 C24.6,204.3 21.7,203.1 19,201.6 C18.6,201.4 18.2,201.2 17.8,200.9 C17.6,200.8 17.5,200.7 17.3,200.6 C17,200.4 16.7,200.3 16.4,200.1 C16.3,200.1 16.3,200 16.2,200 C15.8,199.8 15.4,199.5 15,199.2 C14.7,199 14.3,198.8 14,198.5 C13.7,198.3 13.4,198.1 13.1,197.9 C12.7,197.6 12.4,197.4 12,197.1 C11.9,197 11.8,197 11.8,196.9 C11.7,196.9 11.7,196.8 11.6,196.8 C11.4,196.6 11.1,196.5 10.9,196.2 C10.8,196.2 10.8,196.1 10.7,196.1 C10.6,196 10.4,195.9 10.3,195.8 L10.3,195.8 C10.3,195.8 10.2,195.7 10.1,195.7 C10.1,195.7 10.1,195.7 10,195.6 L10,195.6 C9.7,195.3 9.4,195 9.1,194.8 C8.5,194.2 7.9,193.6 7.3,192.9 C7.2,192.7 7,192.6 6.9,192.5 C6.3,191.9 5.8,191.2 5.3,190.5 C5.1,190.3 5,190 4.8,189.8 L4.7,189.7 C4.5,189.5 4.4,189.2 4.2,188.9 C4.2,188.8 4.1,188.7 4,188.7 C3.8,188.5 3.7,188.2 3.6,188 C3.5,187.9 3.5,187.8 3.4,187.7 C3.4,187.7 3.4,187.7 3.4,187.6 C3.3,187.5 3.3,187.4 3.2,187.3 L3.2,187.2 C3,186.8 2.8,186.4 2.6,186 C0.6,181.8 -0.3,177.3 -0.2,172.4 L-0.2,171.5 C-0.2,170.8 -0.1,170.2 -5.64381875e-13,169.5 C-5.64381875e-13,169.3 -5.64381875e-13,169 0.1,168.8 C0.2,167.9 0.3,167 0.5,166.1 C0.6,165.8 0.6,165.5 0.7,165.2 C0.9,164.4 1.1,163.5 1.3,162.7 C1.5,162.1 1.6,161.5 1.8,160.9 L1.8,160.8 C1.9,160.4 2,160 2.2,159.6 C2.3,159.2 2.5,158.7 2.6,158.3 C2.7,158.1 2.8,157.8 2.8,157.6 C3,157 3.2,156.5 3.4,155.9 C3.5,155.6 3.6,155.3 3.7,155 C3.8,154.7 3.9,154.4 4.1,154.1 C4.3,153.5 4.6,152.9 4.8,152.3 C5,151.8 5.2,151.3 5.4,150.8 C5.5,150.6 5.6,150.3 5.7,150.1 C6.2,149 6.7,147.8 7.2,146.7 C7.8,145.5 8.4,144.2 9,142.9 C9.4,142.1 9.8,141.3 10.2,140.5 C11.5,138 12.9,135.5 14.4,132.8 C17.2,137.9 21.7,144.7 29.1,152.4 C29.7,153 30.3,153.6 30.9,154.3 C33.3,156.7 35.9,159.1 38.9,161.6 C39.6,162.2 40.4,162.8 41.1,163.4 L41.1,163.4 C45.6,167.1 50.7,170.8 56.6,174.6 C57.2,175 57.8,175.4 58.4,175.8 C64.9,179.9 72.4,184.1 80.8,188.2 C81.4,188.5 82,188.8 82.6,189.1 C90.3,192.8 98.9,196.4 108.4,199.9 C109,200.1 109.6,200.4 110.2,200.6 C117.5,203.2 125.3,205.8 133.7,208.3 C134.3,208.5 134.9,208.7 135.5,208.8 C142.9,211 150.8,213 159.1,215 L159.1,215 C159.8,215.2 160.5,215.3 161.2,215.5 C161.8,215.6 162.4,215.8 163,215.9 C164.5,216.3 166,216.6 167.6,216.9 L167.6,216.9 C174.4,218.4 181.4,219.8 188.8,221.1 C189.4,221.2 190,221.3 190.6,221.4 C198.8,222.9 207.4,224.2 216.3,225.5 C216.9,225.6 217.5,225.7 218.1,225.8 C225.6,226.8 233.5,227.8 241.6,228.7 C242.2,228.8 242.8,228.8 243.4,228.9 C251.7,229.8 260.3,230.6 269.2,231.3 C269.8,231.3 270.4,231.4 271,231.4 C272.5,231.7 273.7,231.7 274.8,231.8 L274.8,231.8 Z" id="Shape" fill="url(#linearGradient-8)" opacity="0.71"></path>
                            </g>
                        </g>
                        <g id="body" transform="translate(203.000000, 109.000000)">
                            <path d="M303.1,141.1 C301.3,147.6 294.7,152.7 289.6,152.4 C284.5,152.1 281.5,146.5 278.3,142.3 C273.2,135.6 263.4,127.9 242.3,124.3 C241.4,138.7 239.9,157.5 237.2,179.4 C234.8,199 232.3,213.7 228.9,233.7 C225.7,252.8 222.3,271.5 218.7,289.7 C181.3,297.8 154.9,293.1 136.5,283.7 C122.8,276.7 113.5,267.2 107.3,258.4 C98.6,246 96.1,235.1 96.1,235.1 C112.2,217.7 115.3,203.6 115.1,194.1 C114.9,182.9 110,177 105,160.3 C99.9,143.5 98.6,129.2 98.2,119.9 L98.2,119.8 C98.1,119.9 98.1,120 98,120.1 C97.6,120.6 97.3,121.1 96.9,121.6 C85.4,137.2 72.4,153.7 57.7,170.5 C47.3,182.4 36.9,193.5 26.8,203.6 C25.1,205.3 23.4,207 21.7,208.7 C18.7,207.1 15.2,204.9 11.6,201.9 C6.4,197.6 2.8,193.1 0.3,189.5 C3.9,183.8 36.1,132.4 54.3,105.1 C58.6,98.6 60.4,96.1 61.6,94.4 C63.1,92.4 63.7,91.7 66.6,87.1 C77.2,70.8 79.1,65.3 86.9,60.1 C87,60.1 87,60 87.1,60 C88,59.4 88.9,58.9 89.9,58.4 C93,56.9 97.2,55.5 103.8,53.3 C108.3,51.8 115.8,49.6 121.9,46.3 C124,45.2 125.9,44 127.5,42.6 C128.6,41.7 129.5,40.7 130.2,39.6 C130.4,39.2 130.6,38.9 130.8,38.6 C131.2,37.9 131.6,37.1 131.8,36.3 C132.4,34.7 132.8,33.1 132.9,31.6 C133,30.6 133.1,29.6 133.1,28.6 L133.1,27.1 C133.1,26.8 133.1,26.4 133,26.1 C133,25.2 133,24.2 133.1,23.1 C133.3,19.8 134.1,16 135.8,11.6 C137.2,8.1 139.2,4.3 142,0.2 C149.4,0.8 157.3,1.2 165.6,1.3 C176.9,1.4 187.4,1 197.1,0.2 C197.7,1 198.6,2.1 199.4,3.6 C200.3,5.3 201.1,7.4 201.7,10.4 C201.8,10.8 201.8,11.2 201.9,11.6 C202.1,13.1 202.2,14.6 202.2,16 C202.2,17.8 202.1,19.4 202,20.6 C201.9,22 201.7,22.8 201.7,22.8 C200.3,29.6 197.7,32.9 199.2,38 C199.3,38.2 199.3,38.3 199.4,38.5 C200,39.6 201,40.5 202.2,41.1 C207.1,43.6 215.8,42.7 220.8,43 C220.8,43 221.1,43.1 225.3,43.8 C229,44.5 232.9,46.5 236.8,49.2 C253.5,60.9 270.1,86.7 270.2,86.8 C274.7,92.8 278.6,98.1 282,102.8 L282,102.8 C303,131.5 304.3,136.4 303.1,141.1 L303.1,141.1 Z" id="Shape" fill="#9776A6"></path>
                            <path d="M166.9,183.8 C164.4,203.9 157.9,209.1 148.9,236.7 C143.1,254.4 139.2,270.3 136.5,283.6 C122.8,276.6 113.5,267.1 107.3,258.3 C98.6,245.9 96.1,235 96.1,235 C111.5,218.8 115.3,206.2 115.3,197.1 C115.3,195.6 115.2,194.4 115.2,194 C115,182.8 110.1,176.9 105.1,160.2 C100,143.4 98.7,129.1 98.3,119.8 L98.3,119.7 C98.2,119.8 98.2,119.9 98.1,120 C97.7,120.5 97.4,121 97,121.5 C85.5,137.1 72.5,153.6 57.8,170.4 C47.4,182.3 37,193.4 26.9,203.5 C25.9,202.7 24.9,201.8 24,200.7 C15.2,190.1 20.9,172.9 21.7,170.3 C81.3,114.6 136.7,87.7 157.8,103.9 C175,117.1 170,160 166.9,183.8 L166.9,183.8 Z" id="Shape" fill="url(#linearGradient-9)" opacity="0.68"></path>
                            <path d="M220.9,76.9 C232.8,83.3 252.9,96.3 261.4,117.4 C263.5,122.5 263.9,125.8 262.5,128.5 C257.2,138.6 225.9,138.9 216.4,125.3 C216.4,125.3 212.2,119.2 220.9,76.9 L220.9,76.9 L220.9,76.9 Z" id="Shape" fill="url(#linearGradient-10)" opacity="0.55"></path>
                            <path d="M202.4,41.3 L200.7,45.5 L133.3,23.4 C133.5,20.1 134.3,16.3 136,11.9 C137.4,8.4 139.4,4.6 142.2,0.5 C149.6,1.1 157.5,1.5 165.8,1.6 C177.1,1.7 187.6,1.3 197.3,0.5 C197.9,1.3 198.8,2.4 199.6,3.9 C200.5,5.6 201.3,7.7 201.9,10.7 C202,11.1 202,11.5 202.1,11.9 C202.3,13.4 202.4,14.9 202.4,16.3 C202.4,18.1 202.3,19.7 202.2,20.9 C202.1,22.3 201.9,23.1 201.9,23.1 C200.5,29.9 197.9,33.2 199.4,38.3 C199.5,38.5 199.5,38.6 199.6,38.8 C200.2,39.8 201.1,40.7 202.4,41.3 L202.4,41.3 Z" id="Shape" fill="#002544" opacity="0.25"></path>
                            <path d="M127.6,42.7 C125.1,49.4 118.7,63 107.3,73.6 C99.3,81 91.3,84.7 85.9,87.1 C76.4,91.4 67.9,93.4 61.7,94.4 C63.2,92.4 63.8,91.7 66.7,87.1 C77.3,70.8 79.2,65.3 87,60.1 C87.1,60.1 87.1,60 87.2,60 C87.7,59.7 88.7,59.2 90,58.4 C93.1,56.9 97.3,55.5 103.9,53.3 C108.4,51.8 115.9,49.6 122,46.3 C124.1,45.2 126,44 127.6,42.7 L127.6,42.7 Z" id="Shape" fill="url(#linearGradient-11)" opacity="0.4"></path>
                            <path d="M282.3,103 C272.8,99.9 260.2,93.7 246.8,81.4 C233.2,68.9 233.3,57.7 237,49.4 C253.7,61.1 270.3,86.9 270.4,87 C275,93.1 278.9,98.4 282.3,103 L282.3,103 Z" id="Shape" fill="url(#linearGradient-12)" opacity="0.4"></path>
                        </g>
                        <g id="head" transform="translate(260.000000, 0.000000)">
                            <g id="face" transform="translate(72.000000, 12.000000)">
                                <path d="M81,58.7 C80.9,56.6 80.8,55.1 80.7,54.3 C78.7,34.9 67.7,2.9 47.3,-0.2 C40.7,-1.2 35.3,1.1 31.3,2.9 C12.2,11.3 -0.7,34.4 -0.3,55.8 C0.4,95.6 46.9,122.3 57.3,116.4 C59.3,115.2 65.8,109.6 70.7,101 C70.9,100.6 71.1,100.3 71.3,99.9 C75.5,92.5 77.9,84.9 79.3,78.2 L79.3,78.1 C81,70 81.1,63 81,58.7 L81,58.7 Z" id="Shape" fill="#E4C9C2"></path>
                                <g id="eyes" transform="translate(39.000000, 55.000000)" fill="#000000">
                                    <circle id="Oval" cx="3" cy="3" r="3"></circle>
                                    <circle id="Oval" cx="30" cy="3" r="3"></circle>
                                </g>
                                <g id="brows" transform="translate(33.000000, 40.000000)" fill="#002544">
                                    <path d="M18.6,0.8 C18.6,0.3 13.2,-0.7 7.9,1.4 C2.6,3.5 -0.6,7.8 -0.3,8.2 C-1.43940415e-13,8.6 3.1,5.7 9.4,3.3 C15,1.3 18.7,1.2 18.6,0.8 L18.6,0.8 Z" id="Shape"></path>
                                    <path d="M50.4,10.6 C50.8,10.2 48.2,5.4 43.3,2.6 C38.4,-0.2 33,-1.47382107e-14 32.8,0.5 C32.7,0.9 36.6,1.5 42,4.5 C47.5,7.6 50.1,10.9 50.4,10.6 L50.4,10.6 Z" id="Shape"></path>
                                </g>
                                <path d="M54.4,97.8 C53.3,97.8 52.1,97.7 50.8,97.4 C45.2,96 42.2,91.7 41.5,90.4 C41.3,90.1 41.4,89.8 41.7,89.7 C42,89.5 42.3,89.6 42.4,89.9 C43.1,91.1 45.8,95.1 51.1,96.4 C55.7,97.5 59.4,96 60.8,95.3 C61.1,95.2 61.4,95.3 61.5,95.5 C61.6,95.8 61.5,96.1 61.3,96.2 C60.1,96.8 57.6,97.8 54.4,97.8 L54.4,97.8 Z" id="Shape" fill="#000000"></path>
                                <path d="M58.1,54.7 C60.9,62.1 62.7,68.2 63.8,72.7 C64.7,76.4 65.2,79 63.8,80.6 C61.4,83.3 55.4,81.2 54.7,81 C55.9,72.2 57,63.4 58.1,54.7 L58.1,54.7 Z" id="nose" fill="#C5856E"></path>
                            </g>
                            <g id="hair">
                                <path d="M205.6,112.8 C200.8,113.9 195.2,114.9 188.9,115.6 L188.4,115.6 C184.2,116 179.6,116.3 174.9,116.4 L170.6,116.4 L170.1,116.4 C164.4,116.3 159.2,115.8 154.4,115.2 L154.4,115.2 C154.2,115.2 154.1,115.2 154,115.1 C149.9,114.5 146.1,113.9 142.7,113.1 C142.9,112.7 143.1,112.4 143.3,112 C147.5,104.6 149.9,97 151.3,90.3 L151.3,90.2 C151.9,87.8 152.3,85.2 152.6,82.6 C153.1,78.3 153.1,74.4 152.9,70.8 C152.4,63.3 150.7,57.2 149.2,52.2 C146.5,42.9 144.2,35.1 136.8,29.7 C133.1,27 129.3,25.8 126.7,25.2 C122,29.4 115.7,36.5 112.1,46.6 C107.5,59.5 109.5,70 109.9,78.1 C110.5,91.1 107.4,109.9 89.7,134.3 C86.5,133.1 83.2,131.9 80,130.7 C79.8,130.6 79.7,130.6 79.5,130.5 C74.9,128.8 70.3,127.1 65.7,125.3 C65.6,125.2 65.4,125.2 65.3,125.1 C56.6,121.8 47.9,118.5 39.1,115.1 C38.8,115 38.5,114.9 38.1,114.7 C37.9,114.6 37.7,114.6 37.6,114.5 C29.1,111.2 20.8,107.9 12.5,104.5 C12.3,104.4 12.1,104.3 11.9,104.3 C8.9,103.1 5.8,101.8 2.8,100.6 C2.7,100.5 2.5,100.5 2.4,100.4 C1.5,100 0.6,99.7 -0.3,99.3 C15,65.9 30.5,52.4 42.5,46.4 C47.1,44.1 55,41 61.2,34.9 C61.4,34.7 61.6,34.5 61.8,34.3 C64,32 65.9,29.4 67.3,26.2 C70.3,19.4 69.2,14.8 74.1,10.4 C80.7,4.5 91.2,5.6 95.5,5.9 C100.5,6.3 104.9,7.7 108.8,9.5 C111.6,6.4 115.7,3 121.3,1.4 C129.2,-0.9 138.1,1 146.5,5.4 L146.5,5.4 C146.9,5.6 147.2,5.8 147.6,6 C158,11.8 167.4,21.4 173.1,31.8 C181.5,47.2 177.1,56 183,74.6 L183,74.6 C183.2,75.3 183.5,76.1 183.8,76.9 C184.3,78.3 184.9,79.8 185.5,81.3 C191.3,95.9 199.7,106.4 205.6,112.8 L205.6,112.8 Z" id="Shape" fill="#002544"></path>
                                <path d="M107.2,14.1 L107,14.5 C97.8,11.3 90.2,11.2 84.7,14.5 C76.8,19.1 75.3,29 73.7,39.6 C72.9,45.1 72,50.7 70.2,56 C63.7,75.8 44.3,92.1 12.5,104.4 C12.3,104.3 12.1,104.2 11.9,104.2 C43.8,91.9 63.3,75.6 69.8,55.9 C71.5,50.6 72.4,45 73.3,39.6 C74.9,29 76.5,18.9 84.6,14.2 C90.2,10.9 97.8,10.8 107.2,14.1 L107.2,14.1 Z" id="Shape" fill="#DA9E29"></path>
                                <path d="M108.3,18 C100.9,18.9 95.3,21.6 91.6,25.8 C85.2,33.1 86.1,43.5 86.8,51.1 C87,52.9 87.1,54.6 87.1,56 C87.6,74.2 71.1,93.9 38.1,114.7 C37.9,114.6 37.7,114.6 37.6,114.5 C70.6,93.7 87.1,74.1 86.6,56 C86.6,54.6 86.4,52.9 86.3,51.1 C85.6,43.4 84.7,33 91.2,25.5 C95,21.2 100.7,18.5 108.2,17.6 L108.3,18 L108.3,18 Z" id="Shape" fill="#DA9E29"></path>
                                <path d="M61.7,34.3 C60.1,42.5 56.9,49.5 52.2,55 C47.2,60.9 41.9,63.5 36.3,66.2 C34.1,67.3 31.9,68.4 29.6,69.7 C18.7,76.1 9.7,86.4 2.8,100.6 C2.7,100.5 2.5,100.5 2.4,100.4 C9.4,86.2 18.5,75.7 29.4,69.3 C31.7,68 33.9,66.9 36.1,65.8 C41.6,63.1 46.9,60.5 51.8,54.7 C56.4,49.4 59.5,42.7 61.1,34.9 C61.3,34.7 61.5,34.5 61.7,34.3 L61.7,34.3 Z" id="Shape" fill="#DA9E29"></path>
                                <path d="M110.6,22.5 C110.5,22.5 99.5,25.1 97.3,53.8 C95.5,77.1 74.2,112.3 65.8,125.3 C65.7,125.2 65.5,125.2 65.4,125.1 C73.7,112.1 95.1,77 96.9,53.7 C99.1,24.6 110.1,22.1 110.6,22 L110.6,22.5 L110.6,22.5 Z" id="Shape" fill="#DA9E29"></path>
                                <path d="M116.3,26.9 C114.7,28.3 113.2,29.8 111.8,31.4 C102.4,42.5 102.5,55.6 102.7,69.4 C102.8,76.1 102.8,83 101.8,89.7 C99.6,103.9 92.3,117.6 80.1,130.5 C79.9,130.4 79.8,130.4 79.6,130.3 C91.8,117.4 99.1,103.7 101.3,89.6 C102.4,82.9 102.3,76 102.2,69.3 C102.1,55.4 102,42.2 111.4,30.9 C112.8,29.3 114.3,27.8 115.9,26.4 L116.3,26.9 L116.3,26.9 Z" id="Shape" fill="#DA9E29"></path>
                                <path d="M154.4,115.1 L154.4,115.1 C154.2,115.1 154.1,115.1 153.9,115 C155.9,98.4 160.1,58 157.5,41.3 C154.2,20.4 125.4,17.9 125.1,17.9 L125.1,17.5 C125.4,17.5 154.6,20 157.9,41.3 C160.6,58 156.3,98.5 154.4,115.1 L154.4,115.1 Z" id="Shape" fill="#DA9E29"></path>
                                <path d="M170.6,116.4 L170.1,116.4 C171.1,103.9 171.4,91.2 171,78.6 C170.1,50.6 169.6,35.1 159.8,24.7 C155.1,19.8 144,11.7 121.7,12.4 L121.7,11.9 C144.2,11.1 155.4,19.4 160.1,24.3 C170,34.8 170.5,50.3 171.4,78.5 C171.9,91.1 171.6,103.9 170.6,116.4 L170.6,116.4 Z" id="Shape" fill="#DA9E29"></path>
                                <path d="M147.5,6 C143.5,5.5 139.4,5.4 135.3,5.6 C130.4,5.8 125.5,6.6 120.7,7.8 L120.6,7.4 C125.4,6.2 130.4,5.4 135.3,5.1 C139,4.9 142.7,5 146.4,5.4 L146.4,5.4 C146.7,5.6 147.1,5.8 147.5,6 L147.5,6 Z" id="Shape" fill="#DA9E29"></path>
                                <path d="M188.9,115.6 L188.4,115.6 L182.9,74.6 C183.1,75.3 183.4,76.1 183.7,76.9 L188.9,115.6 L188.9,115.6 Z" id="Shape" fill="#DA9E29"></path>
                                <path d="M205.6,112.8 C200.8,113.9 195.2,114.9 188.9,115.6 L188.4,115.6 C184.2,116 179.6,116.3 174.9,116.4 L170.6,116.4 L170.1,116.4 C164.4,116.3 159.2,115.8 154.4,115.2 L154.4,115.2 C154.2,115.2 154.1,115.2 154,115.1 C149.9,114.5 146.1,113.9 142.7,113.1 C142.9,112.7 143.1,112.4 143.3,112 C147.5,104.6 149.9,97 151.3,90.3 L151.3,90.2 C151.9,87.8 152.3,85.2 152.6,82.6 C153.1,78.3 153.1,74.4 152.9,70.8 C152.4,63.3 150.7,57.2 149.2,52.2 C146.5,42.9 144.2,35.1 136.8,29.7 C133.1,27 129.3,25.8 126.7,25.2 C122,29.4 115.7,36.5 112.1,46.6 C107.5,59.5 109.5,70 109.9,78.1 C110.5,91.1 107.4,109.9 89.7,134.3 C86.5,133.1 83.2,131.9 80,130.7 C79.8,130.6 79.7,130.6 79.5,130.5 C74.9,128.8 70.3,127.1 65.7,125.3 C65.6,125.2 65.4,125.2 65.3,125.1 C56.6,121.8 47.9,118.5 39.1,115.1 C38.8,115 38.5,114.9 38.1,114.7 C37.9,114.6 37.7,114.6 37.6,114.5 C29.1,111.2 20.8,107.9 12.5,104.5 C12.3,104.4 12.1,104.3 11.9,104.3 C8.9,103.1 5.8,101.8 2.8,100.6 C2.7,100.5 2.5,100.5 2.4,100.4 C1.5,100 0.6,99.7 -0.3,99.3 C15,65.9 30.5,52.4 42.5,46.4 C47.1,44.1 55,41 61.2,34.9 C61.4,34.7 61.6,34.5 61.8,34.3 C64,32 65.9,29.4 67.3,26.2 C70.3,19.4 69.2,14.8 74.1,10.4 C80.7,4.5 91.2,5.6 95.5,5.9 C100.5,6.3 104.9,7.7 108.8,9.5 C111.6,6.4 115.7,3 121.3,1.4 C129.2,-0.9 138.1,1 146.5,5.4 L146.5,5.4 C146.9,5.6 147.2,5.8 147.6,6 C158,11.8 167.4,21.4 173.1,31.8 C181.5,47.2 177.1,56 183,74.6 L183,74.6 C183.2,75.3 183.5,76.1 183.8,76.9 C184.3,78.3 184.9,79.8 185.5,81.3 C191.3,95.9 199.7,106.4 205.6,112.8 L205.6,112.8 Z" id="Shape"></path>
                            </g>
                        </g>
                        <g id="tablet" transform="translate(108.000000, 227.000000)">
                            <path d="M21.2,6.5 C21.2,4.4 22.8,2.7 24.8,2.6 C41.5,1.9 58.3,1.3 75.3,0.8 C91.7,0.3 108,-0.2 124.2,-0.5 C126.3,-0.5 128.1,1.2 128.1,3.4 L128.1,100.6 C128.1,103 126,104.8 123.6,104.4 C90.5,98.1 57.4,91.9 24.3,85.6 C22.5,85.3 21.2,83.7 21.2,81.8 L21.2,6.5 L21.2,6.5 Z" id="Shape" fill="#FFFFFF"></path>
                            <path d="M123,-0.5 C106.7,-0.1 90.2,0.3 73.6,0.8 C56.5,1.3 39.4,1.9 22.6,2.6 C20.6,2.7 18.9,4.4 18.9,6.4 L18.9,34.2 L18.9,39.9 L18.9,81.7 C18.9,83.6 20.2,85.2 22,85.5 C55.5,91.8 88.9,98 122.4,104.3 C124.8,104.7 126.9,102.9 126.9,100.5 L126.9,3.3 C126.9,1.2 125.2,-0.5 123,-0.5 L123,-0.5 Z" id="Shape" fill="url(#linearGradient-13)"></path>
                            <path d="M18.9,48.9 C18.5,63.1 20.5,67.6 17.8,69.2 C14.2,71.3 7.4,65.5 6.5,64.7 C4.8,63.2 -0.7,58.4 -0.3,51.2 C0.2,43.6 6.9,39.5 9.8,37.7 C12.2,36.3 15.5,34.2 17.7,35.4 C20,36.8 19.2,40.7 18.9,48.9 L18.9,48.9 Z" id="Shape" fill="#9776A6"></path>
                        </g>
                        <g id="hand_back" transform="translate(110.000000, 261.000000)">
                            <path d="M50.1,13.2 C42.2,22.1 17.4,27.8 17.4,27.8 C17.3,27.8 17.1,27.9 16.9,27.9 C16.2,28.1 15.3,28.2 14.2,28.3 C13.2,28.4 11.9,28.4 10.6,28.2 C10,28.1 6.4,27.5 3.6,25.6 C2.4,24.8 1.4,23.7 0.8,22.4 C-0.8,18.8 1.3,14.5 3.5,11.4 C4.5,9.9 5.6,8.7 6.2,7.9 C9.6,4 13.5,1.7 16.8,0.3 L16.8,6 C16.1,6.5 15.4,7.3 15.5,8.3 C15.6,9.2 16.4,9.8 16.8,10 C16.8,10 16.9,10 16.9,10.1 C21.5,13.2 37.9,3.1 45.7,4.8 C46.2,4.9 47.8,5.3 47.8,5.9 C47.9,6.6 45.8,7.3 43.5,8 C35.4,10.7 36.7,10.9 30.4,12.7 C28.6,13.2 26.1,13.9 23.2,14.6 C25.3,14.4 27,14.2 28.2,14 C32.6,13.2 36.9,11.8 36.9,11.8 C38.8,11.1 40.6,10.4 42.3,9.7 C44.8,8.6 45,8.3 46.7,7.7 C47.5,7.4 49.6,6.6 49.9,7.1 C50.3,7.6 48.5,9.5 47.8,10.3 C47.2,10.9 46.6,11.5 46.1,11.9 C45.7,12.3 45.4,12.6 45.1,12.8 C46,12.3 47.3,11.7 48.8,11.3 C49.3,11.2 50.6,10.8 50.9,11.3 L50.9,11.3 C51.5,11.7 50.3,13 50.1,13.2 L50.1,13.2 Z" id="Shape" fill="#E4C9C2"></path>
                            <path d="M50.1,13.2 C42.2,22.1 17.4,27.8 17.4,27.8 C17.3,27.8 17.1,27.9 16.9,27.9 C15.5,28.2 13.3,28.6 10.6,28.2 C10,28.1 6.4,27.5 3.6,25.6 C21.7,24.5 36.7,17.5 46.2,11.7 C45.8,12.1 45.5,12.4 45.2,12.6 C46.1,12.1 47.4,11.5 48.9,11.1 C49.4,11 50.7,10.6 51,11.1 L51,11.1 C51.5,11.7 50.3,13 50.1,13.2 L50.1,13.2 Z" id="Shape" fill="url(#linearGradient-14)" opacity="0.8"></path>
                            <path d="M14.2,28.3 C13.2,28.4 11.9,28.4 10.6,28.2 C10,28.1 6.4,27.5 3.6,25.6 C2.4,24.8 1.4,23.7 0.8,22.4 C-0.8,18.8 1.3,14.5 3.5,11.4 C2.8,18 4.8,24.8 14.2,28.3 L14.2,28.3 Z" id="Shape" fill="#002544" opacity="0.15"></path>
                        </g>
                    </g>
                    <g id="child" transform="translate(322.000000, 410.000000)">
                        <g id="Group" transform="translate(68.000000, 251.000000)">
                            <g id="legs_3_" transform="translate(43.000000, 0.000000)">
                                <path d="M46.4,89.9 L37.5,187.4 L30.6,262.4 L29.6,273.6 L0.2,276.5 C4.5,210.2 8.7,143.8 13,77.5 C24.1,81.7 35.3,85.8 46.4,89.9 L46.4,89.9 Z" id="Shape" fill="#FF7D93"></path>
                                <polygon id="Shape" fill="#FF7D93" points="104.8 91.5 99.1 185.9 94.1 267.6 93.6 275.5 64.3 279.3 71.1 80.2"></polygon>
                                <polygon id="Shape" fill="url(#linearGradient-15)" opacity="0.74" points="99.1 185.9 94.1 267.6 86.8 268.1 82.3 185.9"></polygon>
                                <polygon id="Shape" fill="url(#linearGradient-16)" opacity="0.74" points="37.5 187.5 30.6 262.4 24.9 262.4 28.3 185.9"></polygon>
                                <path d="M12.6,0.1 C9.2,62 5.8,124 2.4,185.9 C14.8,188.2 27.2,190.4 39.5,192.7 C53.1,132.9 66.7,73.2 80.2,13.4 L12.6,0.1 L12.6,0.1 Z" id="Shape" fill="#002544"></path>
                                <path d="M116.5,5 C111.1,69.1 105.7,133.2 100.3,197.2 C91.3,196.4 82.2,195.6 73.2,194.7 C69.9,194.4 66.5,194.1 63.2,193.8 C56.8,133.3 50.4,72.7 44.1,12.2 C50.6,11.5 57.1,10.9 63.6,10.3 C81.2,8.5 98.9,6.7 116.5,5 L116.5,5 Z" id="Shape" fill="#41548C"></path>
                                <path d="M73.2,194.7 C69.9,194.4 66.5,194.1 63.2,193.8 C56.8,133.3 50.4,72.7 44.1,12.2 C50.6,11.5 57.1,10.9 63.6,10.3 L73.2,194.7 L73.2,194.7 Z" id="Shape" fill="url(#linearGradient-17)" opacity="0.09"></path>
                            </g>
                            <g id="socks" transform="translate(0.000000, 248.000000)">
                                <path d="M74.3,6.5 C74.1,11.6 73.8,19.4 73.5,29 C73.4,31.8 73.4,34.3 73.3,36.5 C72.9,52.7 72.9,56 70.1,59.4 C66.8,63.4 63.2,63.4 47.8,65 C44.8,65.3 41.4,65.7 37.5,66.1 C13.3,68.9 3.2,72 0.4,67.2 C-1.4,64.2 0.7,59.8 1.5,58.2 C4.9,51.2 12.3,50.1 24,44.7 C28.6,42.6 34.8,39.4 42,34.6 C42.9,24.5 43.8,14.3 44.7,4.2 L74.3,6.5 L74.3,6.5 Z" id="Shape" fill="#AAC0DC"></path>
                                <path d="M74.2,10 L45.3,7.6 C43.4,7.4 41.9,5.7 42.1,3.8 L42.2,2.9 C42.4,1 44.1,-0.5 46,-0.3 L74.9,2.1 C76.8,2.3 78.3,4 78.1,5.9 L78,6.8 C77.8,8.7 76.1,10.2 74.2,10 L74.2,10 Z" id="Shape" fill="#004E5A"></path>
                                <path d="M73.4,36.6 C73,52.8 73,56.1 70.2,59.5 C66.9,63.5 63.3,63.5 47.9,65.1 L73.4,36.6 L73.4,36.6 Z" id="Shape" fill="#004E5A"></path>
                                <path d="M136.6,57.2 C135.2,59.3 133.6,60.5 132.1,61.7 C127.9,64.9 124,65.7 115.5,66.4 L115.5,66.4 C111.6,66.7 106.8,66.9 100.6,67.4 C96,67.7 91.8,67.9 84.9,68.4 C72.1,69.4 66.6,70 64.6,66.3 C62.7,62.8 65.3,58.1 65.7,57.3 C69.2,50.9 76.5,50.6 87.1,46 C91.5,44.1 97.8,41 105.1,35.9 C106,25.8 106.9,15.6 107.8,5.5 C117.8,6.3 127.7,7 137.7,7.8 C137.6,11.9 137.6,15.6 137.6,18.8 C137.6,18.8 137.6,22.9 137.7,26.9 C137.8,29.9 138,32.7 138.2,35.3 C139.1,44.7 140.4,51.3 136.6,57.2 L136.6,57.2 Z" id="Shape" fill="#BDD3DE"></path>
                                <path d="M136.6,57.2 C135.2,59.3 133.6,60.5 132.1,61.7 C126,66.3 120.6,66 100.6,67.3 C93.8,67.5 88.3,67.9 84.9,68.3 C92.9,65.5 107.7,59 120.8,44.8 C129.7,35.3 134.7,25.6 137.6,18.7 C137.6,20.3 137.6,23.2 137.7,26.8 C138,41 141.5,49.8 136.6,57.2 L136.6,57.2 Z" id="Shape" fill="#002544" opacity="0.14"></path>
                                <path d="M137.2,13.4 L108.3,11 C106.4,10.8 104.9,9.1 105.1,7.2 L105.2,6.3 C105.4,4.4 107.1,2.9 109,3.1 L137.9,5.5 C139.8,5.7 141.3,7.4 141.1,9.3 L141,10.2 C140.8,12.1 139.1,13.5 137.2,13.4 L137.2,13.4 Z" id="Shape" fill="#004E5A"></path>
                                <path d="M136.6,57.2 C135.2,59.3 133.6,60.5 132.1,61.7 C127.9,64.9 124,65.7 115.5,66.4 L138.2,35.3 C139.1,44.7 140.4,51.3 136.6,57.2 L136.6,57.2 Z" id="Shape" fill="#004E5A"></path>
                            </g>
                        </g>
                        <g id="hand_back_2_" transform="translate(0.000000, 116.000000)">
                            <path d="M155.1,35.2 C150,48.4 144,58.8 138.4,66.9 L138.4,66.9 C134.2,72.9 130.3,77.6 127,81.2 C120.2,88.6 115.3,92.2 109,93.6 C101.1,95.3 92.6,93.2 79.7,84.6 C68.6,77.2 52.2,64.2 35.3,42.5 C33.6,42.5 31.9,42.2 30.2,41.8 C24.5,40.3 15.5,35 15.6,27.2 C15.6,24.1 17.1,21.5 18.8,19.5 C17.8,19.4 17,19.3 16.7,19.3 C9,18.3 4.3,18.2 4.3,18.2 C2.5,18.2 0.3,18.2 -0.2,17.1 C-0.4,16.6 -0.2,16 -0.2,16 C0.5,14.4 4.3,14.7 11.6,14.9 C19.3,15.1 21.2,14.8 24.5,16 C26,16.6 27.5,17.3 29,18.3 C32,20.2 36.4,23.9 41.6,28.3 C60.9,44.8 91.7,72.5 107.7,66.6 C109.1,66.1 110.6,64.8 112.2,62.8 C114.3,60.2 116.6,56.2 119.4,50.8 C121.3,47.3 123.4,43.1 125.8,38.3 C126.1,37.6 126.5,36.9 126.8,36.2 C138.9,12.3 141.8,-0.1 145.9,0.2 C148.8,0.5 152.4,6.6 155.1,35.2 L155.1,35.2 Z" id="Shape" fill="#FF7D93"></path>
                            <path d="M146.9,51.7 L138.3,67 C135.3,65.4 131.7,63.1 128,60 C124.3,56.8 121.5,53.6 119.4,50.9 C120.4,49 121.4,47.1 122.4,45.1 C123.5,43 124.6,40.8 125.8,38.4 L146.9,51.7 L146.9,51.7 Z" id="Shape" fill="#002544" opacity="0.25"></path>
                            <path d="M112.3,62.9 C110.6,67.4 105.5,72.4 92.1,74.6 C72.4,77.9 51.6,46 41.7,28.4 C61,44.9 91.8,72.6 107.8,66.7 C109.2,66.2 110.7,64.9 112.3,62.9 L112.3,62.9 Z" id="Shape" fill="url(#linearGradient-18)" opacity="0.74"></path>
                        </g>
                        <g id="body_2_" transform="translate(109.000000, 96.000000)">
                            <path d="M-0.1,52.9 C4.9,56.6 10.2,61.1 15.7,66.4 C22.5,73.1 28.1,79.6 32.6,85.5 C36.7,59.6 40.9,33.7 45,7.9 C43.1,8.9 41.3,10.1 39.4,11.3 C21,23.1 8.5,38.6 -0.1,52.9 L-0.1,52.9 Z" id="Shape" fill="#BFC4D4"></path>
                            <path d="M170.5,73.2 C169,74 167.5,74.7 166.1,75.4 C162.4,77.3 159.3,78.8 156.9,79.9 C152.3,82.1 149.5,83.4 135.1,90.2 C133.4,91 131.7,91.8 130,92.6 C129.6,91.2 127.8,82.7 126.1,75.3 C125,70.9 124,66.9 123.3,65.2 C122.9,69 122.6,72.4 122.4,75.3 C122.3,76.5 122.2,77.6 122.2,78.7 C121.8,84.9 121.5,90.4 121.4,95.6 C121.3,99.1 121.3,102.4 121.3,105.7 C121.3,112.2 121.4,118.6 121.4,125.9 L121.4,136 C121.4,140.3 121.3,145 121.1,150.1 L121.1,151 C121,153.3 121,155.4 120.9,157.4 C120.8,159.7 120.7,161.7 120.7,163.4 C119,164.4 116.4,165.9 113.1,167.5 C111,168.5 108.6,169.6 105.9,170.7 L105.9,170.7 C92.4,176.2 71.8,181.6 48,177.5 C35.8,175.4 25.8,171.4 18.1,167.4 C14.7,165.6 11.8,163.9 9.3,162.3 C9.8,160.6 10.2,159 10.7,157.3 C12.7,149.9 14.5,142.8 16,135.9 C16.8,132.5 17.5,129.1 18.1,125.8 C19.5,118.7 20.7,112 21.6,105.6 C22.1,102.1 22.6,98.7 23,95.5 C23.9,88.2 24.6,81.5 25,75.3 C25.2,72.4 25.4,69.7 25.5,67 C25.5,66.4 25.6,65.8 25.6,65.2 C25.8,61.1 25.9,57.3 26.1,53.8 C26.2,51.1 26.3,48.5 26.4,46.1 C26.6,42.4 26.8,39.1 27.2,36 C28,28.9 29.7,23.1 33.3,18 C34.3,16.6 35.5,15.2 36.8,13.8 C39.1,11.5 41.7,9.5 44.5,7.8 C45.1,7.5 45.6,7.2 46.2,6.8 C48.2,5.7 50.3,4.8 52.5,4 C64.8,-0.6 79.6,-1.2 93.1,1 C95.3,1.3 97.5,1.8 99.6,2.3 C103.2,3.1 106.6,4.1 109.8,5.3 C110.7,5.6 112.8,6.4 115.7,7.9 C119.9,9.9 125.7,13.2 131.7,18 C133.4,19.3 135.1,20.8 136.8,22.4 C139.3,24.8 141.5,27.1 143.5,29.5 C145.4,31.7 147,33.9 148.4,36 C150.7,39.4 152.6,42.8 154.4,46.1 C154.9,47.1 155.4,48 155.9,49 C160,56.9 160.2,58.6 163.8,64.1 C164,64.5 164.3,64.9 164.6,65.2 C166.9,68.8 169,71.4 170.5,73.2 L170.5,73.2 Z" id="Shape" fill="#FFFFFF"></path>
                            <g id="Group" transform="translate(9.000000, 8.000000)" fill="#004E5A">
                                <path d="M122.7,10.1 L24.1,10.1 C25.1,8.7 26.3,7.3 27.6,5.9 C29.9,3.6 32.5,1.6 35.3,-0.1 L106.6,-0.1 C110.9,2 116.7,5.2 122.7,10.1 L122.7,10.1 Z" id="Shape"></path>
                                <path d="M145.4,38.2 L17.3,38.2 C17.5,34.5 17.7,31.2 18.1,28.1 L139.5,28.1 C141.7,31.5 143.6,34.8 145.4,38.2 L145.4,38.2 Z" id="Shape"></path>
                                <path d="M161.5,65.2 C160,66 158.5,66.7 157.1,67.4 L15.9,67.4 C16.1,64.5 16.3,61.8 16.4,59.1 C16.4,58.5 16.5,57.9 16.5,57.3 L155.5,57.3 C157.9,60.8 160,63.4 161.5,65.2 L161.5,65.2 Z" id="Shape"></path>
                                <path d="M112.4,87.7 C112.3,91.2 112.3,94.5 112.3,97.8 L12.5,97.8 C13,94.3 13.5,90.9 13.9,87.7 L112.4,87.7 L112.4,87.7 Z" id="Shape"></path>
                                <path d="M112.4,118.1 L112.4,128.2 L6.8,128.2 C7.6,124.8 8.3,121.4 8.9,118.1 L112.4,118.1 L112.4,118.1 Z" id="Shape"></path>
                                <path d="M111.8,149.6 C111.7,151.9 111.6,153.9 111.6,155.6 C109.9,156.6 107.3,158.1 104,159.7 L8.9,159.7 C5.5,157.9 2.6,156.2 0.1,154.6 C0.6,152.9 1,151.3 1.5,149.6 L111.8,149.6 L111.8,149.6 Z" id="Shape"></path>
                            </g>
                            <path d="M121,151.2 C120.8,156.2 120.7,160.4 120.5,163.6 C117.8,165.2 112.6,168.1 105.6,171 L105.6,171 C92.1,176.5 71.6,181.9 47.7,177.8 C30.1,174.8 17,167.8 9,162.6 C20.3,122.8 24.1,90.2 25.3,67.2 C25.6,62.4 25.7,58 25.9,53.9 C60.3,64.7 72.1,79.4 76.4,91.2 C82.3,107.3 75.1,120.5 84.3,134 C92.8,146.3 109,150 121,151.2 L121,151.2 Z" id="Shape" fill="#002544" opacity="0.16"></path>
                        </g>
                        <g id="hand_front_1_" transform="translate(241.000000, 176.000000)">
                            <path d="M21.9,100.1 C19.7,107 17.2,113.2 14.8,118.6 C15.6,119.3 16.5,120.4 17.1,122 C18.1,124.9 16.4,126.2 16.4,129.4 C16.4,134.1 20.1,138 22,144 C22.2,144.5 22.5,145.7 22,146.3 C21.4,146.9 20.9,143.9 22,147.4 C22.1,147.9 22.5,149.2 22,149.7 C21.7,150 21.1,149.8 20.9,149.7 C7.5,145 2.9,135.1 2.9,135.1 C-0.1,128.4 0.4,122.1 0.6,119.3 C3.5,89.3 10.2,78.6 11.9,55.2 C12.5,46.6 12,34.8 7.2,20.1 C6.2,17 5,13.8 3.5,10.5 C10.8,7.1 18,3.6 25.3,0.2 C26.4,4.2 27.6,9 28.6,14.6 C28.9,16.1 29.2,17.7 29.4,19.3 C29.8,22.1 30.1,25 30.3,28.1 C30.8,33.5 31,39.2 30.9,45.2 C30.8,66.2 26.9,84.9 21.9,100.1 L21.9,100.1 Z" id="Shape" fill="#FF7D93"></path>
                            <path d="M28.7,14.4 C21.4,16.4 11.9,19 7.2,20 C6.2,16.9 5,13.7 3.5,10.4 C10.8,7 18,3.5 25.3,0.1 C26.5,4 27.7,8.8 28.7,14.4 L28.7,14.4 Z" id="Shape" fill="#002544" opacity="0.25"></path>
                            <path d="M31.1,44.9 C30.9,66.2 26.9,84.8 21.9,100.1 C21.1,97.8 20.4,94.9 19.8,91.1 C16.2,67.8 26.2,38.7 30.4,27.9 C30.9,33.3 31.1,39 31.1,44.9 L31.1,44.9 Z" id="Shape" fill="url(#linearGradient-19)" opacity="0.74"></path>
                            <path d="M2.9,134.3 C12,150.8 15.2,153.9 16.3,153.4 C16.6,153.3 17.1,152.7 17.3,152 C17.6,150.6 16.3,149.1 15.7,148.4 C12.7,144.9 11,140.4 8.5,136.6 L8.5,136.6 L2.9,134.3 L2.9,134.3 Z" id="Shape" fill="#FF7D93"></path>
                            <path d="M0.5,123.8 C0.5,123.8 -0.4,142.8 1.8,141.7 C4.1,140.6 5.2,132.7 5.2,132.7 L0.5,123.8 L0.5,123.8 Z" id="Shape" fill="#FF7D93"></path>
                        </g>
                        <g id="head_2_" transform="translate(130.000000, 0.000000)">
                            <g id="head_1_">
                                <path d="M76.8,54.3 C76.7,54.6 76.5,55.1 76.3,55.6 C76.3,55.6 75,59.1 73,62.5 C71.7,64.8 67.9,70.3 63.3,74.6 C63.3,74.6 62.6,75.3 61.9,75.9 C61.5,76.2 60.6,77 59.2,78.1 C37.9,94.9 21.7,89.2 21.7,89.2 C19.5,88.4 16.2,86.9 12.7,83.6 C14.1,82.5 16.5,80.3 18.3,76.8 C20,73.6 20.4,70.7 20.6,68.9 C19.5,70.1 17.7,71.9 15,73.4 C12.3,74.9 9.9,75.4 8.2,75.7 C4.3,57.7 4.8,42.8 7.1,34.1 C8.3,29.8 9.9,26.1 11.3,23.5 C12.7,20.9 13.7,19.3 13.7,19.3 C14.2,18.5 15.9,16.2 18.5,13.6 C22.2,9.8 27.4,5.8 34.2,3.3 C34.6,3.1 34.9,3 35.1,3 C35.2,3 35.4,2.9 35.5,2.9 L35.6,2.9 C35.8,2.8 36,2.8 36.3,2.7 C36.5,2.6 36.8,2.5 37.1,2.5 C38.5,2.1 40.3,1.6 42.3,1.2 C42.6,1.1 42.9,1.1 43.2,1 C43.4,1 43.6,0.9 43.8,0.9 C44,0.9 44.2,0.8 44.4,0.8 C45,0.7 45.7,0.6 46.3,0.6 L46.9,0.6 C47.1,0.6 47.4,0.6 47.7,0.5 L48.6,0.5 C51,0.4 53.5,0.6 56.1,1.1 C56.2,1.1 56.3,1.1 56.4,1.2 C59.1,1.8 61.8,2.8 64.5,4.4 C79.7,13.4 82.5,37.5 76.8,54.3 L76.8,54.3 Z" id="Shape" fill="#FF7D93"></path>
                                <circle id="eye" fill="#002544" cx="17" cy="50" r="3"></circle>
                                <path d="M5.3,49.9 C-0.8,59.7 -0.9,63.2 0.3,64.5 C1,65.3 2.3,65.3 9.3,65.6 L9.3,65.6 L5.3,49.9 L5.3,49.9 Z" id="nose_1_" fill="#FF7D93"></path>
                                <path d="M10.7,39.1 C12.1,38.6 15.1,37.7 18.9,38.4 C22.5,39 25,40.7 26.2,41.6 C25.8,41 23.8,37.8 19.6,36.9 C14.7,35.9 11.1,38.7 10.7,39.1 L10.7,39.1 Z" id="brow" fill="#002544"></path>
                                <path d="M77.9,54.4 C76.8,57.8 74.6,63.1 72.3,67.9 C68.7,75.2 65,80.9 62.2,84.8 C61.1,83.2 59.9,80.9 59.2,78.2 C58.9,77.1 58.8,75.9 58.8,74.7 C58.7,63.6 69.4,57 67.2,52.9 C65,48.8 53.9,55.2 47.5,49.9 C39.6,43.4 48.1,28.1 40.7,21.8 C33,15.2 15.4,25.2 11.1,23.5 C12.5,20.9 13.5,19.3 13.5,19.3 C14,18.5 15.7,16.2 18.3,13.6 C22,9.8 27.2,5.8 34,3.3 C34.4,3.1 34.7,3 34.9,3 C35,3 35.2,2.9 35.3,2.9 L35.4,2.9 C35.6,2.8 35.8,2.8 36.1,2.7 C36.3,2.6 36.6,2.5 36.9,2.5 C38.3,2.1 40.1,1.6 42.1,1.2 C42.4,1.1 42.7,1.1 43,1 C43.2,1 43.4,0.9 43.6,0.9 C43.8,0.9 44,0.8 44.2,0.8 C44.8,0.7 45.5,0.6 46.1,0.6 L46.7,0.6 C46.9,0.6 47.2,0.6 47.5,0.5 L48.4,0.5 C50.8,0.4 53.3,0.6 55.9,1.1 C56,1.1 56.1,1.1 56.2,1.2 C58.9,1.8 61.7,2.8 64.3,4.4 C80.8,13.8 82.5,39.9 77.9,54.4 L77.9,54.4 Z" id="hair_1_" fill="#002544"></path>
                                <g id="ear" transform="translate(50.000000, 41.000000)">
                                    <path d="M23.4,11.7 C23.4,18.2 18.1,23.5 11.6,23.5 C6.2,23.5 1.7,19.9 0.3,15 C1.13742349e-13,14 -0.2,12.9 -0.2,11.7 C-0.2,5.2 5.1,-0.1 11.6,-0.1 C16.2,-0.1 20.1,2.5 22.1,6.3 C23,7.9 23.4,9.8 23.4,11.7 L23.4,11.7 Z" id="Shape" fill="#FF7D93"></path>
                                    <path d="M22.1,6.3 L0.3,15 C1.13686838e-13,14 -0.2,12.9 -0.2,11.7 C-0.2,5.2 5.1,-0.1 11.6,-0.1 C16.2,-0.1 20.2,2.5 22.1,6.3 L22.1,6.3 Z" id="Shape" fill="url(#linearGradient-20)" opacity="0.74"></path>
                                </g>
                                <g id="neck_1_" transform="translate(25.000000, 66.000000)">
                                    <path d="M48.4,36.8 C48.4,46.1 37.6,53.7 24.2,53.7 C10.9,53.7 0.2,46.2 -1.13686838e-13,37 C2,35.9 4.1,35 6.3,34.1 C6.4,34.1 6.5,34 6.6,34 C6.6,34 6.6,34 6.6,33.9 C6.3,30.6 6,27.4 5.7,24.1 C5.3,19.7 4.9,15.3 4.5,10.9 C14.1,7.3 23.6,3.7 33.1,0.2 L39.1,30.2 C41.7,30.4 44.3,30.7 46.9,31.1 C48,32.9 48.4,34.8 48.4,36.8 L48.4,36.8 Z" id="Shape" fill="#FF7D93"></path>
                                    <path d="M19.2,34.6 C13.3,34.6 9.2,34.3 6.7,34 C6.4,30.7 6.1,27.5 5.8,24.2 L22.6,15.5 C22.6,15.4 30.4,34.6 19.2,34.6 L19.2,34.6 Z" id="Shape" fill="#002544" opacity="0.25"></path>
                                </g>
                            </g>
                        </g>
                    </g>
                    <g id="hand_front" transform="translate(464.000000, 501.000000)">
                        <path d="M39.9,62.1 C39.9,63.6 39.3,65 38.4,66.6 C37.9,67.5 37.4,68.4 36.9,69.4 C36.1,70.8 35.5,72.2 34.9,73.5 C34.8,73.7 34.8,73.8 34.7,74 C32.8,78.1 31.8,81.4 30.9,85 C29.6,90.2 28.6,95.7 25.9,104.3 C25.5,105.8 24.5,108.8 23.1,108.9 C22.9,108.9 22.5,108.8 22.2,108.6 C21.4,107.9 21.8,106.3 22,105.8 C22.4,104.1 23.8,97.5 25.8,87.8 L25.7,87.8 C24.2,92.5 22,99.5 19.7,106.4 C19.2,107.9 18.2,110.9 16.7,111 C16.4,111 16,110.9 15.6,110.7 C14.6,109.8 15.1,107.6 15.4,106.7 C15.5,106.4 15.5,106.1 15.6,105.7 C16.4,102.5 18.1,95.5 20.4,86.2 C20.2,86.1 20.1,86.1 19.9,86 C18.3,90.4 15.3,98.4 12.4,106 C11.9,107.4 10.7,110.4 9.1,110.5 C9.1,110.5 8.6,110.5 8.1,110.1 C7.3,109.4 7.4,105.4 15.6,84 C15.5,83.9 15.3,83.8 15.2,83.7 C9.8,94.2 6.1,102.9 5.2,104.1 C4.6,104.9 3.9,105.6 3.2,105.6 C3.2,105.6 2.7,105.6 2.2,105.1 C0.7,103.6 3.5,97.6 3.5,97.6 C4.7,95.1 6.2,91.6 8,87 C9.8,82.4 12,76.9 14.5,70.4 C13.6,71.1 12.2,72.4 10.8,74.1 C8.8,76.6 8.7,77.8 7.1,79.2 C4.9,81.2 1.3,82.4 0.5,81.4 C-1,79.8 5.4,71.9 9,67.9 C9.4,67.5 9.7,67.1 10,66.7 C11.1,65.5 12.2,64.4 13.3,63.4 C14.8,62 16.1,60.9 17.5,59.9 C19.8,58.3 21.9,57.2 24,56.4 C26.6,55.4 28.5,55.2 30.4,55.3 C33.9,55.6 38.4,57.5 39.5,60.8 C39.8,61.1 39.9,61.6 39.9,62.1 L39.9,62.1 Z" id="Shape" fill="#E4C9C2"></path>
                        <path d="M39.9,62.1 C39.9,63.6 39.3,65 38.4,66.6 C37.9,67.5 37.4,68.4 36.9,69.4 C36,71 35.3,72.5 34.7,73.9 C32.8,78 31.8,81.3 30.9,84.9 C17,83.6 16.1,70.3 17.7,59.8 C20,58.2 22.1,57.1 24.2,56.3 C26.8,55.3 28.7,55.1 30.6,55.2 C34.1,55.5 38.6,57.4 39.7,60.7 C39.8,61.1 39.9,61.6 39.9,62.1 L39.9,62.1 Z" id="Shape" fill="#002544" opacity="0.15"></path>
                        <path d="M34.9,73.4 C34.8,73.6 34.8,73.7 34.7,73.9 C32.8,78 31.8,81.3 30.9,84.9 C29.6,90.1 28.6,95.6 25.9,104.2 C25.5,105.7 24.5,108.7 23.1,108.8 C22.9,108.8 22.5,108.7 22.2,108.5 C21.4,107.8 21.8,106.2 22,105.7 C22.4,104 23.8,97.4 25.8,87.7 L25.7,87.7 C24.2,92.4 22,99.4 19.7,106.3 C19.2,107.8 18.2,110.8 16.7,110.9 C16.4,110.9 16,110.8 15.6,110.6 C14.6,109.7 15.1,107.5 15.4,106.6 C15.5,106.3 15.5,106 15.6,105.6 C16.4,102.4 18.1,95.4 20.4,86.1 C20.2,86 20.1,86 19.9,85.9 C18.3,90.3 15.3,98.3 12.4,105.9 C11.9,107.3 10.7,110.3 9.1,110.4 C9.1,110.4 8.6,110.4 8.1,110 C7.3,109.3 7.4,105.3 15.6,83.9 C15.5,83.8 15.3,83.7 15.2,83.6 C9.8,94.1 6.1,102.8 5.2,104 C4.6,104.8 3.9,105.5 3.2,105.5 C3.2,105.5 2.7,105.5 2.2,105 C0.7,103.5 3.5,97.5 3.5,97.5 C4.7,95 6.2,91.5 8,86.9 L34.9,73.4 L34.9,73.4 Z" id="Shape" fill="url(#linearGradient-21)" opacity="0.54"></path>
                        <path d="M95.4,53.6 C84.9,62 75.3,66.8 69.2,69.5 C62.2,72.5 31.7,85.8 23.5,75.8 C22.1,74 21.4,71.7 21.4,69.2 C21.3,64.6 23.1,59.4 25.2,55.6 C33.4,41 48.7,46 65.6,31.9 C82.1,18 78.8,3.2 90.9,0.2 C101.8,-2.5 116.7,6.3 120.4,17.1 C120.7,18 121,18.9 121.1,19.8 C123,31.4 110.5,41.4 95.4,53.6 L95.4,53.6 Z" id="Shape" fill="#9776A6"></path>
                        <path d="M95.4,53.6 C84.9,62 75.3,66.8 69.2,69.5 C62.2,72.5 31.7,85.8 23.5,75.8 C22.1,74 21.4,71.7 21.4,69.2 C29.4,69.2 66.1,68.9 120.3,17.1 C120.6,18 120.9,18.9 121,19.8 C123,31.4 110.5,41.4 95.4,53.6 L95.4,53.6 Z" id="Shape" fill="url(#linearGradient-22)" opacity="0.68"></path>
                    </g>
                </g>
            </g>
        </g>
    </g>
</svg>