<?xml version="1.0" encoding="UTF-8"?>
<svg width="1121px" height="1138px" viewBox="0 0 1121 1138" version="1.1" xmlns="http://www.w3.org/2000/svg" xmlns:xlink="http://www.w3.org/1999/xlink">
    <!-- Generator: Sketch 61.2 (89653) - https://sketch.com -->
    <title>videocall</title>
    <desc>Created with Sketch.</desc>
    <defs>
        <linearGradient x1="0.301370723%" y1="49.8468085%" x2="99.9969104%" y2="49.8468085%" id="linearGradient-1">
            <stop stop-color="#FC860A" offset="0%"></stop>
            <stop stop-color="#F2BE54" offset="100%"></stop>
        </linearGradient>
        <linearGradient x1="0.200985491%" y1="50.425063%" x2="100.04177%" y2="50.425063%" id="linearGradient-2">
            <stop stop-color="#FC860A" offset="0%"></stop>
            <stop stop-color="#F2BE54" offset="100%"></stop>
        </linearGradient>
        <linearGradient x1="-0.0114750179%" y1="49.9968432%" x2="99.999235%" y2="49.9968432%" id="linearGradient-3">
            <stop stop-color="#FF931E" offset="0.2383814%"></stop>
            <stop stop-color="#0D2A28" offset="66.22%"></stop>
        </linearGradient>
        <linearGradient x1="0.0616666667%" y1="50.6127606%" x2="99.95875%" y2="50.6127606%" id="linearGradient-4">
            <stop stop-color="#FFFFFF" stop-opacity="0.5" offset="0%"></stop>
            <stop stop-color="#F07125" offset="83.62%"></stop>
        </linearGradient>
        <linearGradient x1="0.295867769%" y1="50.1771979%" x2="100.068595%" y2="50.1771979%" id="linearGradient-5">
            <stop stop-color="#FFFFFF" stop-opacity="0.5" offset="0%"></stop>
            <stop stop-color="#F07125" offset="83.62%"></stop>
        </linearGradient>
        <linearGradient x1="-0.00829591649%" y1="50.0455681%" x2="99.9695483%" y2="50.0455681%" id="linearGradient-6">
            <stop stop-color="#9776A6" offset="0%"></stop>
            <stop stop-color="#271C41" offset="100%"></stop>
        </linearGradient>
        <linearGradient x1="0.028733674%" y1="50.0553387%" x2="100.023282%" y2="50.0553387%" id="linearGradient-7">
            <stop stop-color="#FFFFFF" stop-opacity="0.5" offset="0%"></stop>
            <stop stop-color="#F07125" offset="83.62%"></stop>
        </linearGradient>
        <linearGradient x1="0.112744001%" y1="49.9689655%" x2="100.10573%" y2="49.9689655%" id="linearGradient-8">
            <stop stop-color="#FF931E" offset="0.2383814%"></stop>
            <stop stop-color="#0D2A28" offset="66.22%"></stop>
        </linearGradient>
        <linearGradient x1="0.144578282%" y1="49.9037618%" x2="99.9804597%" y2="49.9037618%" id="linearGradient-9">
            <stop stop-color="#FFFFFF" stop-opacity="0.5" offset="0%"></stop>
            <stop stop-color="#F07125" offset="83.62%"></stop>
        </linearGradient>
        <linearGradient x1="0.093719208%" y1="50.0227154%" x2="99.9866474%" y2="50.0227154%" id="linearGradient-10">
            <stop stop-color="#153E5C" offset="0%"></stop>
            <stop stop-color="#271C41" offset="100%"></stop>
        </linearGradient>
        <linearGradient x1="51.570068%" y1="130.30008%" x2="48.561272%" y2="-21.4012567%" id="linearGradient-11">
            <stop stop-color="#F1F0E2" offset="0%"></stop>
            <stop stop-color="#F0F0E2" offset="43.05%"></stop>
            <stop stop-color="#D3E0DF" offset="100%"></stop>
        </linearGradient>
        <linearGradient x1="-0.0190630048%" y1="50.01125%" x2="99.9752827%" y2="50.01125%" id="linearGradient-12">
            <stop stop-color="#FC860A" offset="0%"></stop>
            <stop stop-color="#F2BE54" offset="100%"></stop>
        </linearGradient>
        <linearGradient x1="-0.154054054%" y1="49.9801012%" x2="99.8878378%" y2="49.9801012%" id="linearGradient-13">
            <stop stop-color="#FC860A" offset="0%"></stop>
            <stop stop-color="#F2BE54" offset="100%"></stop>
        </linearGradient>
        <linearGradient x1="-0.602702703%" y1="49.889759%" x2="99.4378378%" y2="49.889759%" id="linearGradient-14">
            <stop stop-color="#FC860A" offset="0%"></stop>
            <stop stop-color="#F2BE54" offset="100%"></stop>
        </linearGradient>
        <linearGradient x1="-0.0229245283%" y1="50.0633433%" x2="100.028868%" y2="50.0633433%" id="linearGradient-15">
            <stop stop-color="#FFFFFF" stop-opacity="0.5" offset="0%"></stop>
            <stop stop-color="#F07125" offset="83.62%"></stop>
        </linearGradient>
    </defs>
    <g id="Page-1" stroke="none" stroke-width="1" fill="none" fill-rule="evenodd">
        <g id="videocall">
            <g id="background">
                <g id="general_1_">
                    <g id="floor_lines" transform="translate(0.000000, 931.000000)" fill="#DFDED9">
                        <path d="M496.1,2 L1,2 C0.4,2 0,1.6 0,1 C0,0.4 0.4,0 1,0 L496.1,0 C496.7,0 497.1,0.4 497.1,1 C497.1,1.6 496.6,2 496.1,2 L496.1,2 Z" id="Shape"></path>
                        <path d="M1090.4,2 L523.7,2 C523.1,2 522.7,1.6 522.7,1 C522.7,0.4 523.1,0 523.7,0 L1090.4,0 C1091,0 1091.4,0.4 1091.4,1 C1091.4,1.6 1090.9,2 1090.4,2 L1090.4,2 Z" id="Shape"></path>
                        <path d="M1066.3,44.5 L845.4,44.5 C844.8,44.5 844.4,44.1 844.4,43.5 C844.4,42.9 844.8,42.5 845.4,42.5 L1066.3,42.5 C1066.9,42.5 1067.3,42.9 1067.3,43.5 C1067.3,44.1 1066.8,44.5 1066.3,44.5 L1066.3,44.5 Z" id="Shape"></path>
                        <path d="M791.7,44.5 L148.5,44.5 C147.9,44.5 147.5,44.1 147.5,43.5 C147.5,42.9 147.9,42.5 148.5,42.5 L791.6,42.5 C792.2,42.5 792.6,42.9 792.6,43.5 C792.6,44.1 792.2,44.5 791.7,44.5 L791.7,44.5 Z" id="Shape"></path>
                        <path d="M127.4,44.5 L41.4,44.5 C40.8,44.5 40.4,44.1 40.4,43.5 C40.4,42.9 40.8,42.5 41.4,42.5 L127.4,42.5 C128,42.5 128.4,42.9 128.4,43.5 C128.4,44.1 127.9,44.5 127.4,44.5 L127.4,44.5 Z" id="Shape"></path>
                        <path d="M1104.7,102.2 L418.5,102.2 C417.9,102.2 417.5,101.8 417.5,101.2 C417.5,100.6 417.9,100.2 418.5,100.2 L1104.7,100.2 C1105.3,100.2 1105.7,100.6 1105.7,101.2 C1105.7,101.8 1105.3,102.2 1104.7,102.2 L1104.7,102.2 Z" id="Shape"></path>
                        <path d="M367.6,102.2 L23.7,102.2 C23.1,102.2 22.7,101.8 22.7,101.2 C22.7,100.6 23.1,100.2 23.7,100.2 L367.6,100.2 C368.2,100.2 368.6,100.6 368.6,101.2 C368.6,101.8 368.1,102.2 367.6,102.2 L367.6,102.2 Z" id="Shape"></path>
                        <path d="M1051.7,169.5 L17.1,169.5 C16.5,169.5 16.1,169.1 16.1,168.5 C16.1,167.9 16.5,167.5 17.1,167.5 L1051.6,167.5 C1052.2,167.5 1052.6,167.9 1052.6,168.5 C1052.6,169.1 1052.2,169.5 1051.7,169.5 L1051.7,169.5 Z" id="Shape"></path>
                    </g>
                    <g id="carpet" transform="translate(378.000000, 959.000000)">
                        <path d="M395.8,178.9 C384.3,178.2 372.8,177.4 361.4,176.7 C241.1,168.9 120.7,161.1 0.4,153.3 L44.5,1.4 C115.8,1 187.1,0.6 258.4,0.3 C294.2,0.1 329.9,-0.1 365.7,-0.3 C371.3,30.3 376.8,61.5 382.1,93.1 C386.9,122.1 391.5,150.7 395.8,178.9 L395.8,178.9 Z" id="Shape" fill="#FAE9E3"></path>
                        <path d="M395.8,178.9 C384.3,178.2 372.8,177.4 361.4,176.7 C361.2,122.1 286.4,147.4 250.8,72 C233.3,34.9 242.9,13.1 258.3,0.3 C294.1,0.1 329.8,-0.1 365.6,-0.3 C371.2,30.3 376.7,61.5 382,93.1 C386.9,122.1 391.5,150.7 395.8,178.9 L395.8,178.9 Z" id="Shape" fill="#ECE0DF"></path>
                        <ellipse id="Oval" fill="#ECE0DF" cx="113" cy="78" rx="33" ry="38"></ellipse>
                    </g>
                    <g id="lamp2" transform="translate(793.000000, 0.000000)">
                        <rect id="Rectangle-path" fill="#DFDED9" x="14" y="0" width="2" height="177"></rect>
                        <path d="M8,201.6 L8,178.6 C8,174.6 11.2,171.4 15.2,171.4 L15.2,171.4 C19.2,171.4 22.4,174.6 22.4,178.6 L22.4,201.6 C21.9,202.1 19.3,204.6 15.2,204.6 C11.1,204.6 8.5,202.1 8,201.6 L8,201.6 Z" id="Shape" fill="#DFDED9"></path>
                        <circle id="Oval" fill="#FAE9E3" cx="15.5" cy="209.5" r="15.5"></circle>
                    </g>
                    <g id="bricks" transform="translate(44.000000, 66.000000)" fill="#EEEFF1">
                        <polygon id="Rectangle-path" points="0 407 0 430 60.3 430 60.3 407"></polygon>
                        <polygon id="Rectangle-path" points="44 686 44 709 104.3 709 104.3 686"></polygon>
                        <polygon id="Rectangle-path" points="1016 437 1016 460 1076.3 460 1076.3 437"></polygon>
                        <polygon id="Rectangle-path" points="102 132 102 155 162.3 155 162.3 132"></polygon>
                        <polygon id="Rectangle-path" points="139 161 139 184 199.3 184 199.3 161"></polygon>
                        <polygon id="Rectangle-path" points="324 572 324 595 384.3 595 384.3 572"></polygon>
                        <polygon id="Rectangle-path" points="506 318 506 341 566.3 341 566.3 318"></polygon>
                        <polygon id="Rectangle-path" points="342 0 342 23 402.3 23 402.3 0"></polygon>
                        <polygon id="Rectangle-path" points="897 62 897 85 957.3 85 957.3 62"></polygon>
                        <polygon id="Rectangle-path" points="974 409 974 432 1034.3 432 1034.3 409"></polygon>
                        <polygon id="Rectangle-path" points="83 716 83 739 143.3 739 143.3 716"></polygon>
                        <polygon id="Rectangle-path" points="833 698 833 721 893.3 721 893.3 698"></polygon>
                    </g>
                    <g id="picture" transform="translate(889.000000, 273.000000)">
                        <g id="Group" transform="translate(0.000000, 33.000000)">
                            <circle id="Oval" fill="#EFEFEF" cx="77.5" cy="77.5" r="70.5"></circle>
                            <path d="M77.3,155 C34.6,155 -0.2,120.3 -0.2,77.5 C-0.2,34.7 34.5,0 77.3,0 C120,0 154.8,34.7 154.8,77.5 C154.8,120.3 120,155 77.3,155 L77.3,155 Z M77.3,14.1 C42.3,14.1 13.8,42.6 13.8,77.6 C13.8,112.6 42.3,141.1 77.3,141.1 C112.3,141.1 140.8,112.6 140.8,77.6 C140.8,42.6 112.3,14.1 77.3,14.1 L77.3,14.1 Z" id="Shape" fill="#FAE9E3"></path>
                        </g>
                        <path d="M58.3,46 C58.2,46 58,46 57.9,45.9 C57.4,45.7 57.2,45.1 57.4,44.6 L76.3,0.8 C76.5,0.4 76.8,0.2 77.2,0.2 C77.6,0.2 78,0.4 78.1,0.8 L98.7,44.6 C98.9,45.1 98.7,45.7 98.2,45.9 C97.7,46.1 97.1,45.9 96.9,45.4 L77.2,3.6 L59.1,45.4 C59.1,45.8 58.7,46 58.3,46 L58.3,46 Z" id="Shape" fill="#FAE9E3"></path>
                        <circle id="Oval" fill="#FAE9E3" cx="77" cy="4" r="4"></circle>
                        <path d="M17.8,114.6 C28.7,97.3 40.3,86.6 47.3,89.1 C50.4,90.2 52.1,93.8 53.7,97.1 C59.5,109.3 54.9,119.4 58.9,121.3 C62.4,123.1 66.5,114.9 72.8,115.8 C80.3,116.9 80,129.3 89,132.5 C96.9,135.4 102.8,127.8 108.3,130.6 C111.8,132.4 114.9,138.3 112.8,156.9 L17.8,114.6 L17.8,114.6 Z" id="Shape" fill="#ECE0DF"></path>
                        <path d="M97.1,69.8 C99.8,72.2 104,76.6 106.8,83.3 C111.4,94.2 109.4,104 108.6,107.6 C110.9,105.6 117.3,99.3 118.3,89.6 C118.6,87 119,82.3 116.4,78 C112.9,72.2 105.4,69.2 97.1,69.8 L97.1,69.8 Z" id="Shape" fill="#FAE9E3"></path>
                    </g>
                    <g id="lamp" transform="translate(10.000000, 478.000000)">
                        <circle id="Oval" fill="#FAE9E3" cx="309.5" cy="53.5" r="26.5"></circle>
                        <path d="M272.8,25.8 C270.4,25.3 268.2,24.8 266.3,24.4 C266.1,19.4 262,15.3 256.9,15.3 C251.7,15.3 247.5,19.5 247.5,24.7 C247.5,26.8 248.2,28.8 249.4,30.3 C201.5,99.6 97.2,249.9 72,284.4 C71.6,284.3 71.1,284.3 70.6,284.3 C65.4,284.3 61.2,288.5 61.2,293.7 C61.2,297 62.9,299.8 65.4,301.5 C56.4,323.4 49.1,345.1 54.3,362.2 C56.6,369.6 60,372.5 64,375.9 C65.3,377 66.6,378.1 68,379.5 C68.1,409.5 68.2,442 68.3,472.8 C64.4,488 60.7,504.8 59.5,523.5 C57.8,548.4 60.7,574.1 68,600 C30,600.4 -0.4,609.3 -0.4,620.1 C-0.4,631.2 31.6,640.2 71,640.2 C110.4,640.2 142.4,631.2 142.4,620.1 C142.4,609.3 112.1,600.5 74,600 C74.3,584.5 74.5,547.8 74.3,459.9 C74.4,459.5 74.5,459.1 74.6,458.6 C82.8,428.8 89.2,405.3 75.4,384.7 C74.9,384 74.4,383.3 74,382.7 C73.8,346.8 73.7,316.8 73.6,302.5 C77.3,301.2 80,297.7 80,293.6 C80,291 79,288.7 77.3,287 C104.7,249.6 203.9,106.5 254.3,33.6 C255.1,33.8 256,34 256.9,34 C260.1,34 262.9,32.4 264.6,30 C265.9,30.3 267.3,30.6 268.9,31 C269.1,31 269.2,31.1 269.4,31.1 C255.3,56.2 260.8,90.9 284,119.6 C311,81.8 338,44.1 365.1,6.3 C328,-7.3 291,0.5 272.8,25.8 L272.8,25.8 Z M65.7,374.1 C61.8,370.8 58.8,368.2 56.7,361.5 C51.7,345.2 58.8,324 67.6,302.6 L67.7,302.6 C67.8,322.6 67.9,348.2 68.1,376.2 C67.3,375.5 66.5,374.8 65.7,374.1 L65.7,374.1 Z M68.3,591.6 C62.6,568.6 60.5,545.8 62,523.7 C63,508.9 65.5,495.3 68.5,482.7 C68.6,528.1 68.5,568.9 68.3,591.6 L68.3,591.6 Z M74.3,451 L74.3,450.5 C74.2,428.8 74.2,407 74.1,386.9 C85.5,404.9 81.2,425.5 74.3,451 L74.3,451 Z" id="Shape" fill="#DFDED9"></path>
                    </g>
                </g>
            </g>
            <g id="main" transform="translate(164.000000, 136.000000)">
                <g id="general">
                    <g id="sofa" transform="translate(0.000000, 481.000000)">
                        <polygon id="Shape" fill="#F2BE54" points="774.2 338.5 743.4 338.5 774.2 427.2 765.1 427.2 719 338.5 697.4 338.5 708.6 370.7 699.5 370.7 682.7 338.5 89.5 338.5 74.7 366.9 65.6 366.9 75.5 338.5 53.3 338.5 9.1 423.4 0 423.4 29.5 338.5 0 338.5 0 329 774.2 329"></polygon>
                        <path d="M23.4,395.9 L22.9,396.8 C20,395.5 17.1,393 14.3,389.4 C13.7,388.6 13.1,387.9 12.6,387.1 L13,385.9 C15.7,389.8 19.3,394.1 23.4,395.9 L23.4,395.9 Z" id="Shape" fill="#FC860A"></path>
                        <path d="M15.7,410.8 L14.9,412.4 C14.5,408.4 13.6,404.5 12.2,400.7 C11.5,398.9 10.7,397.1 9.8,395.4 L10.2,394.1 C11.3,396.1 12.3,398.1 13.1,400.3 C14.4,403.7 15.2,407.2 15.7,410.8 L15.7,410.8 Z" id="Shape" fill="#FC860A"></path>
                        <path d="M44.2,355.8 L43.5,357.1 C43,354.9 42.3,352.9 41.3,351.1 C39.7,348.3 37.6,346.4 35.2,345.8 C32,345 28.7,346.5 26.1,348.3 L26.6,346.8 C29.2,345.2 32.4,344.1 35.5,344.9 C38.2,345.6 40.5,347.6 42.2,350.7 C43,352.2 43.7,354 44.2,355.8 L44.2,355.8 Z" id="Shape" fill="#FC860A"></path>
                        <path d="M18.1,328.9 L19.9,328.9 C16,331.3 12.2,334.5 8.8,338.4 L7.5,338.4 C10.8,334.6 14.4,331.4 18.1,328.9 L18.1,328.9 Z" id="Shape" fill="#FC860A"></path>
                        <path d="M62,338.4 L60.8,338.4 C58.9,334.9 55.9,331.5 52.6,328.9 L54.2,328.9 C57.4,331.6 60.2,334.9 62,338.4 L62,338.4 Z" id="Shape" fill="#FC860A"></path>
                        <path d="M128.5,328.9 C120.8,332.4 110.6,335.5 98.5,335.5 C96.7,335.5 94.8,335.4 92.9,335.3 C84.5,334.6 76.3,332.5 68.6,328.9 L71.1,328.9 C78.1,331.9 85.4,333.7 93,334.3 C106.2,335.3 117.4,332.5 125.9,328.9 L128.5,328.9 L128.5,328.9 Z" id="Shape" fill="#FC860A"></path>
                        <path d="M84.6,347.8 L83.4,350 C81.8,351.1 80,352.2 77.9,353.1 C75.3,354.2 72.5,354.8 69.7,355 L70,354 C72.6,353.8 75.1,353.2 77.5,352.2 C80.5,351 82.8,349.4 84.6,347.8 L84.6,347.8 Z" id="Shape" fill="#FC860A"></path>
                        <path d="M80.7,355.3 L79.7,357.2 C78.5,357.9 77.2,358.6 75.8,359.2 C73.2,360.3 70.4,360.9 67.6,361.1 L68,360.1 C70.6,359.9 73.1,359.3 75.5,358.3 C77.5,357.4 79.2,356.4 80.7,355.3 L80.7,355.3 Z" id="Shape" fill="#FC860A"></path>
                        <path d="M177.7,328.9 C168,329.9 158.2,331.3 148.6,332.9 C139.3,334.5 130,336.3 120.8,338.4 L116.4,338.4 C127,335.9 137.7,333.7 148.4,331.9 C155.2,330.8 162.1,329.8 169,328.9 L177.7,328.9 L177.7,328.9 Z" id="Shape" fill="#FC860A"></path>
                        <path d="M241.3,337.9 L241.2,338.4 L239.4,338.4 C226,334.6 212.2,333.2 198.4,334.4 C191.1,335 183.8,336.4 176.7,338.4 L173.2,338.4 C181.3,335.8 189.8,334.1 198.2,333.4 C212.8,332.1 227.3,333.7 241.3,337.9 L241.3,337.9 Z" id="Shape" fill="#FC860A"></path>
                        <path d="M340.1,328.9 C328.1,334 316.5,336.1 305.6,335.1 C302.1,334.8 299.9,334.3 297.7,333.8 C295.1,333.2 292.6,332.6 287.9,332.4 C280,332.1 275.2,333.1 270.4,334.2 C266.8,335 263.4,335.7 259.1,335.7 L257.2,335.7 C250.2,335.4 243.1,333.1 236.1,329 L238.1,329 C244.5,332.5 250.9,334.4 257.2,334.7 C262.4,335 266.2,334.1 270.2,333.2 C274.8,332.2 279.9,331.1 287.9,331.4 C292.8,331.6 295.3,332.2 297.9,332.8 C300,333.3 302.1,333.8 305.6,334.1 C315.7,335 326.4,333.3 337.4,328.9 L340.1,328.9 L340.1,328.9 Z" id="Shape" fill="#FC860A"></path>
                        <path d="M311.8,338.4 L306.3,338.4 C303.2,337.7 299.3,336.9 294.6,335.6 C283.3,332.6 273.5,336.1 268.7,338.4 L266.5,338.4 C270.3,336.3 281.6,331.2 294.8,334.7 C302.6,336.7 308.1,337.8 311.8,338.4 L311.8,338.4 Z" id="Shape" fill="#FC860A"></path>
                        <path d="M353.6,328.9 C357.4,332 363.4,336.1 370.3,338.4 L367.4,338.4 C360.9,335.8 355.4,331.7 352,328.9 L353.6,328.9 L353.6,328.9 Z" id="Shape" fill="#FC860A"></path>
                        <path d="M413.1,328.9 L418.7,328.9 C409.1,330.3 400.5,333 394.1,337 C393.3,337.5 392.4,338 391.5,338.4 L389,338.4 C390.5,337.8 392.1,337.1 393.6,336.1 C398.8,332.8 405.5,330.5 413.1,328.9 L413.1,328.9 Z" id="Shape" fill="#FC860A"></path>
                        <path d="M486.2,336.1 C488.2,337.1 490.2,337.9 492.2,338.4 L488.9,338.4 C487.8,338 486.7,337.5 485.7,337 C478.3,333.2 468.1,330.4 456.9,328.9 L463.1,328.9 C472,330.5 480.1,333 486.2,336.1 L486.2,336.1 Z" id="Shape" fill="#FC860A"></path>
                        <path d="M534.5,328.9 C531.4,330.9 526.4,333.8 520.5,336.2 C518.4,337.1 516.3,337.8 514.3,338.4 L510.2,338.4 C513.8,337.6 517.2,336.5 520.2,335.3 C525.3,333.3 529.7,330.8 532.7,328.9 L534.5,328.9 L534.5,328.9 Z" id="Shape" fill="#FC860A"></path>
                        <path d="M472.8,338.4 L467.6,338.4 C462.7,337.4 457.6,336.1 453.4,334.5 C445.9,331.6 424.9,335.5 411.7,338.4 L407.1,338.4 C419.4,335.5 445,330.1 453.7,333.5 C459.4,335.7 466.8,337.3 472.8,338.4 L472.8,338.4 Z" id="Shape" fill="#FC860A"></path>
                        <polygon id="Shape" fill="#FC860A" points="574 338.4 571.9 338.4 554.4 328.9 556.5 328.9"></polygon>
                        <path d="M654.6,328.9 C650,330.6 644.8,332.3 639.4,333.4 C636.6,334 633.3,334.2 629.7,334.2 C617.3,334.2 601.2,331.3 590,328.8 L594.8,328.8 C609,331.7 628.3,334.7 639.1,332.3 C643.5,331.4 647.7,330.1 651.6,328.8 L654.6,328.8 L654.6,328.9 Z" id="Shape" fill="#FC860A"></path>
                        <path d="M708,338.4 L706.3,338.4 C690.8,327.6 661,334.2 646.5,338.4 L643,338.4 C648.1,336.8 656.5,334.5 665.7,333 C679.2,330.8 697.3,330 708,338.4 L708,338.4 Z" id="Shape" fill="#FC860A"></path>
                        <path d="M699.7,344.9 C694.4,344 688.3,342.9 684.8,342.4 L684.2,341.3 C687.4,341.7 693.4,342.8 699.2,343.8 L699.7,344.9 L699.7,344.9 Z" id="Shape" fill="#FC860A"></path>
                        <polygon id="Shape" fill="#FC860A" points="704.7 359.5 688.7 349.9 687.8 348.2 704.2 358.1"></polygon>
                        <path d="M774.2,328.9 L774.2,329.2 C755,327.6 733.9,338.6 722.7,345.5 L722.2,344.6 C731,339.2 745.6,331.4 760.7,328.8 L774.2,328.8 L774.2,328.9 Z" id="Shape" fill="#FC860A"></path>
                        <path d="M747,348.9 C740.5,344.7 730,347.7 724.8,349.7 L724.3,348.8 C726.3,348 729.2,347.1 732.3,346.4 C738.1,345.2 742.9,345.6 746.5,347.4 L746.5,347.4 L747,348.9 L747,348.9 Z" id="Shape" fill="#FC860A"></path>
                        <path d="M753.7,368.1 C749.3,365.8 745.9,365.4 743.5,366.9 C740.1,369 739.6,374.6 739.6,378.1 L738.6,376.3 C738.8,372.7 739.7,368.1 742.9,366 C745.4,364.5 748.8,364.7 753.1,366.7 L753.1,366.7 L753.7,368.1 L753.7,368.1 Z" id="Shape" fill="#FC860A"></path>
                        <polygon id="Shape" fill="#FC860A" points="767.6 408.1 753.2 404.2 752.9 403.7 752.9 403.6 753 403.2 767.2 407"></polygon>
                        <polygon id="Shape" points="774.2 328.9 774.2 338.4 743.4 338.4 746.5 347.5 747 348.9 753.2 366.8 753.7 368.1 767.2 407 767.6 408.1 767.6 408.2 774.2 427.1 765.1 427.1 753.2 404.2 752.9 403.7 752.9 403.6 739.7 378.2 739.7 378.1 739.6 378.1 738.7 376.3 724.8 349.7 724.4 348.8 722.7 345.5 722.2 344.7 719 338.4 697.4 338.4 699.3 343.8 699.7 344.9 704.2 358.1 704.7 359.5 708.6 370.6 699.5 370.6 688.7 349.9 687.8 348.2 684.8 342.4 684.2 341.3 682.7 338.4 89.5 338.4 84.6 347.8 83.5 350 80.7 355.3 79.8 357.2 74.8 366.8 65.6 366.8 67.6 361 68 360 69.8 355 70.1 353.9 75.5 338.4 53.3 338.4 44.2 355.8 43.5 357.1 23.4 395.9 23 396.8 15.7 410.8 14.8 412.3 9.1 423.4 0 423.4 9.7 395.4 10.2 394.1 12.6 387.1 13 385.9 26.1 348.3 26.6 346.8 29.5 338.4 0 338.4 0 328.9"></polygon>
                        <path d="M771.5,228.5 C515.1,230.9 258.7,233.3 2.3,235.7 C50,115.9 97.9,55.4 140.4,26 C162.3,10.9 182.7,4 201,1.5 C285.2,-9.9 318.4,72.9 434.8,61.5 C514,53.7 553.7,10 634.7,29.7 C648.7,33.1 680,41 709.5,66 C715.4,71 720.6,76.2 725.4,81.7 C774.9,137.6 772.3,214.3 771.5,228.5 L771.5,228.5 Z" id="Shape" fill="#E6E3F4"></path>
                        <path d="M732,226.1 L732,262.8 C732,270.3 725.9,276.4 718.4,276.4 L52.4,276.4 C49.4,276.4 46.6,275.4 44.3,273.7 C41.4,271.5 39.3,268.1 38.9,264.3 C38.8,263.8 38.8,263.3 38.8,262.8 L38.8,226.1 C38.8,218.6 44.9,212.5 52.4,212.5 L718.4,212.5 C725.9,212.5 732,218.6 732,226.1 L732,226.1 Z" id="Shape" fill="#BDD3DE"></path>
                        <path d="M774.2,131.8 L774.2,315.3 C774.2,322.8 768.1,328.9 760.6,328.9 L711.8,328.9 L711.4,328.9 L711,328.9 L13.6,328.9 C6.1,328.9 0,322.8 0,315.3 L0,131.8 C0,124.3 6.1,118.2 13.6,118.2 L62.4,118.2 C67.5,118.2 72,121 74.3,125.2 C75.4,127.1 76,129.4 76,131.8 L76,265 L698.3,265 L698.3,131.8 C698.3,124.3 704.4,118.2 711.9,118.2 L760.7,118.2 C768.1,118.2 774.2,124.3 774.2,131.8 L774.2,131.8 Z" id="Shape" fill="#E6E3F4"></path>
                        <path d="M774.2,243.8 L774.2,315.4 C774.2,322.9 768.1,329 760.6,329 L711.8,329 L711.4,329 L711,329 L250.6,329 C327.9,312.6 433.8,297.7 557.2,300.4 C674.3,303 738.8,275.2 774.2,243.8 L774.2,243.8 Z" id="Shape" fill="#19233D" opacity="0.07"></path>
                        <path d="M774.2,131.8 L774.2,168.3 C740.9,175.6 711.5,151.9 698.2,138.8 L698.2,131.7 C698.2,124.2 704.3,118.1 711.8,118.1 L760.6,118.1 C768.1,118.2 774.2,124.3 774.2,131.8 L774.2,131.8 Z" id="Shape" fill="#19233D" opacity="0.07"></path>
                        <path d="M76,131.8 L76,265 C22.6,244.4 61.8,151.6 74.3,125.2 C75.3,127.2 76,129.4 76,131.8 L76,131.8 Z" id="Shape" fill="#19233D" opacity="0.04"></path>
                        <path d="M679.8,212.5 C675,219.5 667.1,229.3 654.8,237.2 C619.2,260.1 581.3,244.9 526,235.7 C472.6,226.9 369.1,209.8 289.2,242.3 C279.2,246.4 261.3,254.6 237.4,252.8 C203.4,250.3 177.2,229.2 160.8,212.4 L679.8,212.4 L679.8,212.5 Z" id="Shape" fill="#19233D" opacity="0.05"></path>
                        <g id="pattern_1_" transform="translate(17.000000, 87.000000)" fill="#F2BE54">
                            <circle id="Oval" cx="97" cy="3" r="3"></circle>
                            <circle id="Oval" cx="180" cy="59" r="3"></circle>
                            <circle id="Oval" cx="94" cy="97" r="3"></circle>
                            <circle id="Oval" cx="3" cy="63" r="3"></circle>
                            <circle id="Oval" cx="41" cy="149" r="3"></circle>
                            <circle id="Oval" cx="3" cy="210" r="3"></circle>
                            <circle id="Oval" cx="127" cy="222" r="3"></circle>
                            <circle id="Oval" cx="190" cy="195" r="3"></circle>
                            <circle id="Oval" cx="306" cy="219" r="3"></circle>
                            <circle id="Oval" cx="582" cy="222" r="3"></circle>
                            <circle id="Oval" cx="674" cy="200" r="3"></circle>
                            <circle id="Oval" cx="725" cy="110" r="3"></circle>
                            <circle id="Oval" cx="744" cy="47" r="3"></circle>
                            <circle id="Oval" cx="386" cy="195" r="3"></circle>
                            <circle id="Oval" cx="421" cy="114" r="3"></circle>
                            <circle id="Oval" cx="537" cy="60" r="3"></circle>
                            <circle id="Oval" cx="674" cy="63" r="3"></circle>
                            <circle id="Oval" cx="666" cy="118" r="3"></circle>
                        </g>
                        <g id="plaid" transform="translate(128.000000, 0.000000)">
                            <path d="M598.2,100.7 C598.1,100.8 597.9,100.8 597.7,100.8 C597.3,100.8 596.9,100.6 596.7,100.1 L589.6,83.8 C587.3,84.4 585,85.1 582.7,85.7 L587.7,100.3 C587.9,100.9 587.6,101.5 587,101.7 C586.9,101.7 586.8,101.8 586.6,101.8 C586.1,101.8 585.7,101.5 585.5,101 L580.5,86.3 C577.3,87.2 574.2,88 571,88.9 L578.1,105.2 C578.3,105.8 578.1,106.4 577.5,106.7 C577.4,106.8 577.2,106.8 577,106.8 C576.6,106.8 576.2,106.6 576,106.1 L568.7,89.4 C564.8,90.5 560.9,91.5 557,92.6 L562.4,108.4 C562.6,109 562.3,109.6 561.7,109.8 C561.6,109.8 561.5,109.9 561.3,109.9 C560.8,109.9 560.4,109.6 560.2,109.1 L554.7,93.2 C519.8,102.7 485,112.2 450.1,121.7 L458.5,141 C458.7,141.6 458.5,142.2 457.9,142.5 C457.8,142.6 457.6,142.6 457.4,142.6 C457,142.6 456.6,142.4 456.4,141.9 L447.8,122.3 C445.6,122.9 443.4,123.5 441.2,124.1 L447.4,142.1 C447.6,142.7 447.3,143.3 446.7,143.5 C446.6,143.5 446.5,143.6 446.3,143.6 C445.8,143.6 445.4,143.3 445.2,142.8 L439,124.6 C436.2,125.4 433.4,126.1 430.5,126.9 L437.9,144 C438.1,144.6 437.9,145.2 437.3,145.5 C437.2,145.6 437,145.6 436.8,145.6 C436.4,145.6 436,145.4 435.8,144.9 L428.2,127.5 C425.9,128.1 423.7,128.7 421.4,129.3 L426.8,145 C427,145.6 426.7,146.2 426.1,146.4 C426,146.4 425.9,146.5 425.7,146.5 C425.2,146.5 424.8,146.2 424.6,145.7 L419.2,129.8 C416,130.7 412.8,131.5 409.6,132.4 L417.2,149.9 C417.4,150.5 417.2,151.1 416.6,151.4 C416.5,151.5 416.3,151.5 416.1,151.5 C415.7,151.5 415.2,151.3 415.1,150.8 L407.3,133 C403.4,134.1 399.5,135.1 395.7,136.2 L401.5,153.1 C401.7,153.7 401.4,154.3 400.8,154.5 C400.7,154.5 400.6,154.6 400.4,154.6 C399.9,154.6 399.5,154.3 399.3,153.8 L393.4,136.7 C390.6,137.5 387.8,138.2 385,139 L393.3,158 C393.6,158.6 393.3,159.2 392.7,159.5 C392.6,159.6 392.4,159.6 392.2,159.6 C391.8,159.6 391.3,159.4 391.2,158.9 L382.8,139.6 C358.6,146.2 334.4,152.8 310.3,159.4 L317.7,180.6 C317.9,181.2 317.6,181.8 317,182 C316.9,182 316.8,182.1 316.6,182.1 C316.1,182.1 315.7,181.8 315.5,181.3 L308,160 C305.8,160.6 303.7,161.2 301.5,161.8 L306.5,180.9 C306.7,181.5 306.3,182.1 305.7,182.3 L305.4,182.3 C304.9,182.3 304.4,182 304.3,181.5 L299.3,162.5 C296.5,163.3 293.7,164 290.9,164.8 L297,182.2 C297.2,182.8 296.9,183.4 296.3,183.6 C296.2,183.6 296.1,183.7 295.9,183.7 C295.4,183.7 295,183.4 294.8,182.9 L288.7,165.3 C286.3,165.9 283.9,166.6 281.6,167.2 L286.5,186.1 C286.7,186.7 286.3,187.3 285.7,187.5 L285.4,187.5 C284.9,187.5 284.4,187.2 284.3,186.7 L279.4,167.8 C275,169 270.6,170.2 266.3,171.4 L275.1,191.2 C275.4,191.8 275.1,192.4 274.5,192.7 C274.3,192.8 274.2,192.8 274,192.8 C273.6,192.8 273.2,192.6 273,192.1 L264,172 C262.7,172.4 261.4,172.7 260.2,173.1 L267.3,193.3 C267.5,193.9 267.2,194.5 266.6,194.7 C266.5,194.7 266.4,194.8 266.2,194.8 C265.7,194.8 265.3,194.5 265.1,194 L257.9,173.7 C254.4,174.7 250.9,175.6 247.4,176.6 L256.4,196.8 C256.7,197.4 256.4,198 255.8,198.3 C255.7,198.4 255.5,198.4 255.3,198.4 C254.9,198.4 254.5,198.2 254.3,197.7 L245.1,177.2 C242.9,177.8 240.7,178.4 238.6,179 L245.3,198 C245.5,198.6 245.2,199.2 244.6,199.4 C244.5,199.4 244.4,199.5 244.2,199.5 C243.7,199.5 243.3,199.2 243.1,198.7 L236.3,179.5 C233.4,180.3 230.6,181.1 227.7,181.8 L235.8,199.9 C236,200.5 235.8,201.1 235.2,201.4 C235.1,201.5 234.9,201.5 234.7,201.5 C234.3,201.5 233.9,201.3 233.7,200.8 L225.5,182.3 C223.5,182.9 221.4,183.4 219.3,184 L224.6,205.2 C224.7,205.8 224.4,206.4 223.8,206.6 L223.5,206.6 C223,206.6 222.5,206.2 222.4,205.7 L217.1,184.5 C215.6,184.9 214.1,185.3 212.6,185.7 L212.2,208.6 C212.2,209.2 211.7,209.7 211.1,209.7 L211.1,209.7 C210.5,209.7 210,209.2 210,208.5 L210.4,186.3 C208.2,186.9 205.9,187.5 203.7,188.1 L203.4,208.3 C203.4,208.9 202.9,209.4 202.3,209.4 L202.3,209.4 C201.7,209.4 201.2,208.9 201.2,208.2 L201.5,188.7 C198.7,189.5 195.9,190.2 193.1,191 L184.7,206.6 C184.5,207 184.1,207.2 183.7,207.2 C183.5,207.2 183.3,207.2 183.2,207.1 C182.7,206.8 182.4,206.1 182.7,205.6 L190.6,191 C188.9,189.4 187.2,187.9 185.6,186.3 L176.8,202.6 C176.6,203 176.2,203.2 175.8,203.2 C175.6,203.2 175.4,203.2 175.3,203.1 C174.7,202.8 174.5,202.1 174.8,201.6 L183.8,184.8 C175.1,176.8 166.4,168.7 157.7,160.7 L157.5,160.5 L157.2,160.8 L146.3,174.5 C146.1,174.8 145.7,174.9 145.4,174.9 C145.2,174.9 144.9,174.8 144.7,174.7 C144.2,174.3 144.1,173.6 144.5,173.1 L153.5,161.9 L155.8,159 C153.5,156.8 151.1,154.7 148.8,152.5 L136.6,167 C136.4,167.2 136.1,167.4 135.8,167.4 C135.5,167.4 135.2,167.3 135,167.1 C134.5,166.7 134.5,166 135,165.5 L148.1,151.6 L143,146.9 L129.2,157.2 C129,157.3 128.8,157.4 128.5,157.4 C128.1,157.4 127.8,157.2 127.6,156.9 C127.2,156.4 127.3,155.7 127.8,155.3 L141.2,145.3 C139.1,143.3 137,141.4 134.9,139.4 L122.1,150.6 C121.9,150.8 121.6,150.9 121.4,150.9 C121.1,150.9 120.8,150.8 120.6,150.5 C120.2,150 120.2,149.3 120.7,148.9 L133.3,137.8 C131.6,136.2 129.8,134.6 128.1,133 L113,144.3 C112.8,144.5 112.6,144.5 112.3,144.5 C112,144.5 111.6,144.3 111.4,144 C111,143.5 111.1,142.8 111.6,142.4 L126.4,131.4 C123.8,129 121.2,126.6 118.6,124.2 L105.5,136 C105.3,136.2 105,136.3 104.8,136.3 C104.5,136.3 104.2,136.2 103.9,135.9 C103.5,135.4 103.5,134.7 104,134.3 L117,122.8 C115.9,121.8 114.9,120.8 113.8,119.8 L99.5,130.4 C99.3,130.6 99.1,130.6 98.8,130.6 C98.4,130.6 98.1,130.4 97.9,130.1 C97.5,129.6 97.6,128.9 98.1,128.5 L112,118.1 C108.9,115.2 105.7,112.3 102.5,109.3 L92.2,120.1 C92,120.3 91.7,120.5 91.4,120.5 C91.1,120.5 90.8,120.4 90.6,120.2 C90.1,119.8 90.1,119 90.6,118.6 L101,108 C99.1,106.2 97.2,104.5 95.3,102.7 L85.1,111.7 C84.9,111.9 84.6,112 84.4,112 C84.1,112 83.8,111.9 83.6,111.6 C83.2,111.1 83.2,110.4 83.7,110 L93.8,101.1 C91.8,99.2 89.7,97.3 87.7,95.4 L77.7,105.8 C77.5,106 77.2,106.1 76.9,106.1 C76.6,106.1 76.3,106 76.1,105.8 C75.6,105.4 75.6,104.7 76.1,104.2 L86.1,93.8 C84.3,92.2 82.6,90.5 80.8,88.9 L68,100.2 C67.8,100.4 67.5,100.5 67.3,100.5 C67,100.5 66.7,100.4 66.5,100.1 C66.1,99.6 66.1,98.9 66.6,98.5 L79.2,87.4 C76.7,85 74.1,82.7 71.6,80.3 L59.9,92.4 C59.7,92.6 59.4,92.7 59.1,92.7 C58.8,92.7 58.5,92.6 58.3,92.4 C57.9,92 57.8,91.3 58.3,90.8 L69.9,78.7 C68.8,77.7 67.8,76.7 66.7,75.7 L53.5,87.4 C53.3,87.6 53,87.7 52.8,87.7 C52.5,87.7 52.2,87.6 52,87.3 C51.6,86.8 51.6,86.1 52.1,85.7 L65.1,74.2 C62,71.3 58.9,68.5 55.9,65.6 L45.7,76.3 C45.5,76.5 45.2,76.7 44.9,76.7 C44.6,76.7 44.3,76.6 44.1,76.4 C43.7,76 43.6,75.2 44.1,74.8 L54.3,64.2 C52.8,62.8 51.2,61.4 49.7,59.9 L37.4,70.8 C37.2,71 36.9,71.1 36.7,71.1 C36.4,71.1 36.1,71 35.9,70.7 C35.5,70.2 35.5,69.5 36,69.1 L48.2,58.3 C45.4,55.7 42.5,53.1 39.7,50.5 L29.3,61.3 C29.1,61.5 28.8,61.7 28.5,61.7 C28.2,61.7 27.9,61.6 27.7,61.4 C27.2,61 27.2,60.3 27.7,59.8 L38.1,49 C36.4,47.4 34.6,45.8 32.9,44.1 L19,55.9 C18.8,56.1 18.5,56.2 18.2,56.2 C17.9,56.2 17.6,56.1 17.4,55.8 C17,55.3 17,54.6 17.5,54.2 L30.5,42.7 C28.4,40.7 26.3,38.8 24.1,36.8 L11.4,50 C11.2,50.2 10.9,50.3 10.6,50.3 C10.3,50.3 10,50.2 9.8,50 C9.3,49.6 9.3,48.9 9.8,48.4 L22.5,35.2 C20.8,33.6 19.1,32.1 17.5,30.5 L1.8,44.4 C1.6,44.6 1.3,44.7 1.1,44.7 C0.8,44.7 0.5,44.6 0.3,44.3 C-0.1,43.8 -0.1,43.1 0.4,42.7 L15.9,29 C14.8,28 13.7,27 12.6,25.9 C34.5,10.8 54.9,3.9 73.2,1.4 C157.4,-10 190.6,72.8 307,61.4 C386.2,53.6 425.9,9.9 506.9,29.6 C517.8,32.2 539,37.5 561.7,51.5 C568.3,55.6 575.1,60.3 581.7,66 C587.6,71 592.8,76.2 597.6,81.7 C595.7,82.2 593.8,82.7 591.9,83.3 L598.9,99.2 C599,99.8 598.8,100.4 598.2,100.7 L598.2,100.7 Z" id="Shape" fill="#F2BE54"></path>
                            <path d="M585.5,100.6 L585.4,100.6 L585.5,101 L585.5,100.6 L585.5,100.6 Z M560.4,102.5 L558.1,102.7 L558.4,103.6 C559.2,103.5 560,103.5 560.7,103.4 L560.4,102.5 L560.4,102.5 Z M471.2,24.7 L470,24.7 C480,43.2 499.9,79.5 513.8,104.6 C514.1,104.5 514.4,104.4 514.7,104.4 L471.2,24.7 L471.2,24.7 Z M180.7,192.9 L180.1,193.9 C180.5,194.7 181,195.5 181.4,196.3 L182,195.3 L180.7,192.9 L180.7,192.9 Z M121.2,135.4 L118.9,137.1 C120.2,137 121.6,136.9 123.1,136.8 L125.5,135 L121.2,135.4 L121.2,135.4 Z M506.4,106.5 L421.3,112.9 L383,43 C382.7,43.1 382.3,43.2 382,43.3 C388.6,55.5 401.4,78.9 420.2,113 L326.3,120 L294.7,62.3 C294.3,62.3 293.9,62.3 293.5,62.4 C300.7,75.5 311.3,94.8 325.2,120.1 L243,126.3 L203,53.4 C209.9,52.9 216.5,52.4 222.7,52 C221.9,51.7 221,51.4 220.2,51.1 L202.4,52.3 L196.1,40.8 C195.5,40.5 194.8,40.2 194.2,39.9 C196.2,43.5 198.4,47.7 201,52.4 L107,58.7 L75.4,1.2 C75,1.2 74.6,1.3 74.1,1.4 C79.3,11.2 88.7,28.4 105.5,58.9 L51.8,62.5 C52.3,62.9 52.7,63.3 53.2,63.8 C67.8,62.8 85.5,61.6 106.3,60.2 C117.7,81 131.3,105.7 146.8,133.6 L130,134.9 C130.5,135.4 131.1,135.9 131.6,136.4 C136.5,136.1 141.9,135.7 147.7,135.3 C154,146.7 160.2,157.8 165.9,168.1 C166.7,168.9 167.6,169.7 168.4,170.4 L149,135.1 C173.4,133.3 204.9,131 242.8,128.2 C251.9,144.7 260.4,160.1 267,172 C267.3,171.9 267.6,171.8 268,171.7 L243.9,128 C270.2,126 298,123.9 326,121.7 C332.1,132.8 337.9,143.2 342.3,151.2 C342.6,151.1 342.9,151 343.2,151 L327.1,121.6 C358.9,119.2 390.8,116.7 420.9,114.3 C423.5,119 426,123.6 428.3,127.7 C428.4,127.7 428.5,127.7 428.6,127.6 L429.8,130.2 C433.1,136.3 436,141.4 438.1,145.2 C438.4,144.9 438.5,144.4 438.3,144 L437.7,142.7 L422,114.3 C450.4,112.1 477.1,110 500.4,108.1 C502.4,107.6 504.4,107.1 506.4,106.5 L506.4,106.5 Z M107.7,60 C134.7,58.2 166.2,56 201.6,53.5 C211.6,71.8 225.1,96.3 241.7,126.4 L148,133.4 L107.7,60 L107.7,60 Z M243.2,127.2 L242.5,127.2 C204.4,130.1 172.6,132.4 148.2,134.2 L147.5,134.2 C147,134.2 146.5,134.3 146.1,134.3 L148.1,134.2 L322,121.2 C295.1,123.3 268.4,125.3 243.2,127.2 L243.2,127.2 Z M40.7,64.5 C41.9,64.4 43.1,64.3 44.4,64.3 L46,62.8 L42.3,63 L40.7,64.5 L40.7,64.5 Z M185.8,202.2 L185.3,203.2 C185.8,204 186.2,204.8 186.6,205.6 L187.1,204.6 L185.8,202.2 L185.8,202.2 Z M576.4,101.3 L574,101.5 L574.4,102.4 C575.2,102.3 576,102.3 576.8,102.2 L576.4,101.3 L576.4,101.3 Z" id="Shape" fill="#640042" opacity="0.45"></path>
                            <path d="M598.2,100.7 C598.1,100.8 597.9,100.8 597.7,100.8 C597.3,100.8 596.8,100.5 596.7,100.1 L589.6,83.8 C587.3,84.4 585,85.1 582.7,85.7 L587.7,100.3 C587.9,100.9 587.6,101.5 587,101.7 C586.9,101.7 586.8,101.8 586.6,101.8 C586.1,101.8 585.7,101.5 585.5,101 L585.5,101 L585.4,100.6 L580.5,86.3 C577.3,87.2 574.2,88 571,88.9 L576.4,101.3 L576.8,102.2 L578.2,105.3 C578.4,105.9 578.2,106.5 577.6,106.8 C577.4,106.9 577.3,106.9 577.1,106.9 C576.7,106.9 576.2,106.6 576.1,106.2 L574.4,102.4 L574,101.5 L568.8,89.5 C564.9,90.6 561,91.6 557,92.7 L560.4,102.5 L560.7,103.4 L562.5,108.5 C562.7,109.1 562.4,109.7 561.8,109.9 C561.7,109.9 561.6,110 561.4,110 C560.9,110 560.5,109.7 560.3,109.2 L558.4,103.5 L558.1,102.6 L554.9,93.2 C541.5,96.9 528.1,100.5 514.7,104.2 C514.4,104.3 514.1,104.4 513.8,104.4 C511.4,105.1 508.9,105.7 506.5,106.4 C504.5,106.9 502.5,107.5 500.5,108 C483.8,112.6 467.1,117.1 450.4,121.7 L458.8,141 C459,141.6 458.8,142.2 458.2,142.5 C458.1,142.6 457.9,142.6 457.7,142.6 C457.3,142.6 456.8,142.4 456.7,141.9 L448.2,122.3 C446,122.9 443.8,123.5 441.6,124.1 L447.8,142.1 C448,142.7 447.7,143.3 447.1,143.5 C447,143.5 446.9,143.6 446.7,143.6 C446.2,143.6 445.8,143.3 445.6,142.8 L439.4,124.6 C436.6,125.4 433.8,126.1 430.9,126.9 L437.8,142.6 L438.4,143.9 C438.6,144.3 438.5,144.8 438.2,145.1 C438.1,145.2 438,145.3 437.8,145.4 C437.7,145.5 437.5,145.5 437.3,145.5 C436.9,145.5 436.4,145.3 436.3,144.8 L429.9,130.1 L428.7,127.5 C428.6,127.5 428.5,127.6 428.4,127.6 C426.2,128.2 424,128.8 421.9,129.4 L427.3,145.1 C427.5,145.7 427.2,146.3 426.6,146.5 C426.5,146.5 426.4,146.6 426.2,146.6 C425.7,146.6 425.3,146.3 425.1,145.8 L419.7,129.9 C416.5,130.8 413.3,131.7 410.1,132.5 L417.7,150 C417.9,150.6 417.7,151.2 417.1,151.5 C417,151.6 416.8,151.6 416.6,151.6 C416.2,151.6 415.7,151.4 415.6,150.9 L407.8,133.1 C403.9,134.2 400,135.2 396.1,136.3 L401.9,153.2 C402.1,153.8 401.8,154.4 401.2,154.6 C401.1,154.6 401,154.7 400.8,154.7 C400.3,154.7 399.9,154.4 399.7,153.9 L393.8,136.8 C391,137.6 388.2,138.3 385.4,139.1 L393.7,158.1 C393.9,158.7 393.7,159.3 393.1,159.6 C392.9,159.7 392.8,159.7 392.6,159.7 C392.2,159.7 391.7,159.5 391.6,159 L383.2,139.7 C369.8,143.3 356.5,147 343.1,150.6 C342.8,150.7 342.5,150.8 342.2,150.8 C331.7,153.7 321.2,156.5 310.6,159.4 L318,180.6 C318.2,181.2 317.9,181.8 317.3,182 C317.2,182 317.1,182.1 316.9,182.1 C316.4,182.1 316,181.8 315.8,181.3 L308.3,160 C306.1,160.6 304,161.2 301.8,161.8 L306.8,180.9 C307,181.5 306.6,182.1 306,182.3 L305.7,182.3 C305.2,182.3 304.7,182 304.6,181.5 L299.6,162.5 C296.8,163.3 294,164 291.2,164.8 L297.3,182.2 C297.5,182.8 297.2,183.4 296.6,183.6 C296.5,183.6 296.4,183.7 296.2,183.7 C295.7,183.7 295.3,183.4 295.1,182.9 L288.9,165.3 C286.5,166 284.1,166.6 281.8,167.2 L286.8,186.2 C287,186.8 286.6,187.4 286,187.6 L285.7,187.6 C285.2,187.6 284.7,187.3 284.6,186.8 L279.6,167.9 C275.6,169 271.5,170.1 267.5,171.2 C267.2,171.3 266.9,171.4 266.5,171.5 L266.5,171.5 L275.3,191.3 C275.6,191.9 275.3,192.5 274.7,192.8 C274.5,192.9 274.4,192.9 274.2,192.9 C273.8,192.9 273.4,192.7 273.2,192.2 L264.2,172.1 C262.9,172.5 261.6,172.8 260.3,173.2 L267.4,193.4 C267.6,194 267.3,194.6 266.7,194.8 C266.6,194.8 266.5,194.9 266.3,194.9 C265.8,194.9 265.4,194.6 265.2,194.1 L258,173.7 C254.5,174.7 251,175.6 247.5,176.6 L256.5,196.8 C256.8,197.4 256.5,198 255.9,198.3 C255.7,198.4 255.6,198.4 255.4,198.4 C255,198.4 254.6,198.2 254.4,197.7 L245.2,177.2 C243,177.8 240.9,178.4 238.7,179 L245.4,198 C245.6,198.6 245.3,199.2 244.7,199.4 C244.6,199.4 244.5,199.5 244.3,199.5 C243.8,199.5 243.4,199.2 243.2,198.7 L236.4,179.5 C233.5,180.3 230.7,181.1 227.8,181.8 L235.9,199.9 C236.1,200.5 235.9,201.1 235.3,201.4 C235.2,201.5 235,201.5 234.8,201.5 C234.4,201.5 234,201.3 233.8,200.8 L225.6,182.4 C223.6,183 221.5,183.5 219.5,184.1 L224.8,205.3 C225,205.9 224.6,206.5 224,206.7 L223.7,206.7 C223.2,206.7 222.7,206.4 222.6,205.8 L217.3,184.6 C215.8,185 214.3,185.4 212.8,185.8 L212.4,208.7 C212.4,209.3 211.9,209.8 211.3,209.8 L211.3,209.8 C210.7,209.8 210.2,209.3 210.2,208.6 L210.6,186.4 C208.4,187 206.1,187.6 203.9,188.2 L203.6,208.4 C203.6,209 203.1,209.5 202.5,209.5 L202.5,209.5 C201.9,209.5 201.4,209 201.4,208.4 L201.7,188.9 C198.9,189.7 196.1,190.4 193.3,191.2 L186.4,204 L185.9,205 L184.9,206.9 C184.7,207.3 184.3,207.5 183.9,207.5 C183.7,207.5 183.5,207.5 183.4,207.4 C182.9,207.1 182.6,206.4 182.9,205.9 L184.6,202.7 L185.1,201.7 L190.7,191.2 C189,189.7 187.3,188.1 185.7,186.5 L181.3,194.7 L180.7,195.7 L176.9,202.7 C176.7,203.1 176.3,203.3 175.9,203.3 C175.7,203.3 175.5,203.3 175.4,203.2 C174.8,202.9 174.6,202.2 174.9,201.7 L179.4,193.4 L180,192.4 L184,185 C178.5,180 173.1,174.9 167.6,169.8 C166.8,169 165.9,168.2 165.1,167.5 C162.6,165.2 160.2,162.9 157.7,160.7 L146.5,174.7 C146.3,175 145.9,175.1 145.6,175.1 C145.4,175.1 145.1,175 144.9,174.9 C144.4,174.5 144.3,173.8 144.7,173.3 L156,159.2 C153.7,157 151.3,154.9 149,152.7 L136.6,167 C136.4,167.2 136.1,167.4 135.8,167.4 C135.5,167.4 135.2,167.3 135,167.1 C134.5,166.7 134.5,165.9 135,165.5 L148.1,151.6 C146.4,150 144.7,148.5 143,146.9 L129.2,157.2 C129,157.4 128.8,157.4 128.5,157.4 C128.2,157.4 127.8,157.2 127.6,156.9 C127.2,156.4 127.3,155.7 127.8,155.3 L141.2,145.3 C139.1,143.3 137,141.4 134.9,139.4 L122.1,150.6 C121.9,150.8 121.6,150.9 121.4,150.9 C121.1,150.9 120.8,150.8 120.6,150.5 C120.2,150 120.2,149.3 120.7,148.9 L133.3,137.8 C132.7,137.3 132.1,136.7 131.5,136.2 C131,135.7 130.4,135.2 129.9,134.7 C129.3,134.1 128.7,133.6 128.1,133 L125.4,135 L123,136.8 L113,144.3 C112.8,144.5 112.6,144.5 112.3,144.5 C112,144.5 111.6,144.3 111.4,144 C111,143.5 111.1,142.8 111.6,142.4 L118.8,137 L121.1,135.3 L126.3,131.4 C123.7,129 121.1,126.6 118.5,124.2 L105.5,136 C105.3,136.2 105,136.3 104.7,136.3 C104.4,136.3 104.1,136.2 103.8,135.9 C103.4,135.4 103.4,134.7 103.9,134.3 L116.9,122.8 C115.8,121.8 114.8,120.8 113.7,119.8 L99.4,130.4 C99.2,130.6 99,130.6 98.7,130.6 C98.4,130.6 98,130.4 97.8,130.1 C97.4,129.6 97.5,128.9 98,128.5 L111.9,118.1 C108.7,115.2 105.6,112.3 102.4,109.3 L92.1,120.1 C91.9,120.3 91.6,120.4 91.3,120.4 C91,120.4 90.7,120.3 90.5,120.1 C90,119.7 90,119 90.5,118.5 L101,108 C99.1,106.2 97.2,104.5 95.3,102.7 L85.1,111.7 C84.9,111.9 84.6,112 84.3,112 C84,112 83.7,111.9 83.5,111.6 C83.1,111.1 83.1,110.4 83.6,110 L93.7,101.1 C91.7,99.2 89.6,97.3 87.6,95.4 L77.6,105.8 C77.4,106 77.1,106.1 76.8,106.1 C76.5,106.1 76.2,106 76,105.8 C75.6,105.4 75.5,104.6 76,104.2 L86,93.8 C84.2,92.2 82.5,90.5 80.7,88.9 L67.9,100.2 C67.7,100.4 67.4,100.5 67.1,100.5 C66.8,100.5 66.5,100.4 66.2,100.1 C65.8,99.6 65.8,98.9 66.3,98.5 L78.9,87.4 C76.4,85.1 73.8,82.7 71.3,80.3 L59.6,92.4 C59.4,92.6 59.1,92.7 58.8,92.7 C58.5,92.7 58.2,92.6 58,92.4 C57.5,92 57.5,91.3 58,90.8 L69.6,78.7 C68.5,77.7 67.5,76.7 66.4,75.7 L53.2,87.3 C53,87.5 52.7,87.6 52.4,87.6 C52.1,87.6 51.8,87.5 51.6,87.2 C51.2,86.7 51.2,86 51.7,85.6 L64.7,74.1 C61.6,71.2 58.5,68.4 55.5,65.5 L45.3,76.1 C45.1,76.3 44.8,76.5 44.5,76.5 C44.2,76.5 43.9,76.4 43.7,76.2 C43.3,75.8 43.2,75 43.7,74.6 L53.9,64 C53.7,63.8 53.5,63.6 53.3,63.4 C52.8,63 52.4,62.6 51.9,62.1 C51,61.3 50.2,60.5 49.3,59.7 L46.1,62.5 L44.5,64 L37,70.7 C36.8,70.9 36.5,71 36.2,71 C35.9,71 35.6,70.9 35.4,70.6 C35,70.1 35,69.4 35.5,69 L40.9,64.3 L42.5,62.9 L47.7,58.3 C44.9,55.7 42,53.1 39.2,50.5 L28.8,61.3 C28.6,61.5 28.3,61.6 28,61.6 C27.7,61.6 27.4,61.5 27.2,61.3 C26.8,60.9 26.7,60.1 27.2,59.7 L37.6,48.9 C35.8,47.3 34.1,45.7 32.4,44.1 L19,55.9 C18.8,56.1 18.5,56.2 18.2,56.2 C17.9,56.2 17.6,56.1 17.3,55.8 C16.9,55.3 16.9,54.6 17.4,54.2 L30.4,42.7 C28.3,40.7 26.2,38.8 24.1,36.8 L11.4,50 C11.2,50.2 10.9,50.4 10.6,50.4 C10.3,50.4 10,50.3 9.8,50.1 C9.3,49.7 9.3,48.9 9.8,48.5 L22.5,35.3 C20.8,33.7 19.1,32.2 17.5,30.6 L1.8,44.5 C1.6,44.7 1.3,44.8 1,44.8 C0.7,44.8 0.4,44.7 0.2,44.4 C-0.2,43.9 -0.2,43.2 0.3,42.8 L15.8,29.1 C14.7,28.1 13.6,27.1 12.5,26 C34.4,10.9 54.8,4 73.1,1.5 C73.5,1.5 73.9,1.4 74.2,1.4 C74.6,1.3 75.1,1.3 75.5,1.2 C123,-4.3 154.3,20.3 194.3,40 C194.9,40.3 195.6,40.6 196.2,40.9 C203.8,44.6 211.8,48.1 220.3,51.2 C221.1,51.5 222,51.8 222.8,52.1 C242.8,59.1 265.7,63.6 293.6,62.5 C294,62.5 294.4,62.5 294.8,62.4 C298.7,62.2 302.8,62 306.9,61.5 C336,58.7 359.7,51 382.1,43.3 C382.4,43.2 382.8,43.1 383.1,43 C411.4,33.4 437.7,24 470.1,24.7 L471.3,24.7 C482.3,25 494.1,26.6 506.9,29.7 C520.9,33.1 552.2,40.9 581.7,66 C587.5,71 592.8,76.2 597.6,81.7 C595.7,82.2 593.8,82.7 591.9,83.2 L598.9,99.2 C599,99.8 598.8,100.4 598.2,100.7 L598.2,100.7 Z" id="Shape"></path>
                            <path d="M385,161.9 C384.6,161.9 384.2,161.6 384.1,161.2 L376.4,138.6 C376.2,138.1 376.5,137.5 377,137.3 C377.5,137.1 378.1,137.4 378.3,137.9 L386,160.5 C386.2,161 385.9,161.6 385.4,161.8 C385.2,161.8 385.1,161.9 385,161.9 L385,161.9 Z" id="Shape" fill="#F2BE54"></path>
                            <path d="M149.9,178.5 C149.6,178.5 149.3,178.4 149.1,178.2 C148.7,177.8 148.8,177.2 149.2,176.8 L167.1,161 C167.5,160.6 168.1,160.7 168.5,161.1 C168.9,161.5 168.8,162.1 168.4,162.5 L150.5,178.3 C150.3,178.5 150.1,178.5 149.9,178.5 L149.9,178.5 Z" id="Shape" fill="#F2BE54"></path>
                            <path d="M157.5,186.9 C157.2,186.9 156.9,186.8 156.7,186.5 C156.4,186.1 156.5,185.4 156.9,185.1 L176.1,170.8 C176.5,170.5 177.2,170.6 177.5,171 C177.8,171.4 177.7,172.1 177.3,172.4 L158.1,186.7 C157.9,186.8 157.7,186.9 157.5,186.9 L157.5,186.9 Z" id="Shape" fill="#F2BE54"></path>
                            <path d="M166.6,193.3 C166.3,193.3 166,193.2 165.8,193 C165.4,192.6 165.5,192 165.9,191.6 L183.8,175.8 C184.2,175.4 184.8,175.5 185.2,175.9 C185.6,176.3 185.5,176.9 185.1,177.3 L167.3,193 C167.1,193.2 166.8,193.3 166.6,193.3 L166.6,193.3 Z" id="Shape" fill="#F2BE54"></path>
                            <path d="M154.4,162.5 C155.6,162.2 156.9,161.8 158.1,161.5 L147.2,175.2 C147,175.5 146.6,175.6 146.3,175.6 C146.1,175.6 145.8,175.5 145.6,175.4 C145.1,175 145,174.3 145.4,173.8 L154.4,162.5 L154.4,162.5 Z" id="Shape" fill="url(#linearGradient-1)" opacity="0.3"></path>
                            <path d="M598.2,100.7 C598.1,100.8 597.9,100.8 597.7,100.8 C597.3,100.8 596.9,100.6 596.7,100.1 L589.6,83.8 C587.3,84.4 585,85.1 582.7,85.7 L587.7,100.3 C587.9,100.9 587.6,101.5 587,101.7 C586.9,101.7 586.8,101.8 586.6,101.8 C586.1,101.8 585.7,101.5 585.5,101 L580.5,86.3 C577.3,87.2 574.2,88 571,88.9 L578.1,105.2 C578.3,105.8 578.1,106.4 577.5,106.7 C577.4,106.8 577.2,106.8 577,106.8 C576.6,106.8 576.2,106.6 576,106.1 L568.7,89.4 C564.8,90.5 560.9,91.5 557,92.6 L562.4,108.4 C562.6,109 562.3,109.6 561.7,109.8 C561.6,109.8 561.5,109.9 561.3,109.9 C560.8,109.9 560.4,109.6 560.2,109.1 L554.7,93.2 C519.8,102.7 485,112.2 450.1,121.7 L458.5,141 C458.7,141.6 458.5,142.2 457.9,142.5 C457.8,142.6 457.6,142.6 457.4,142.6 C457,142.6 456.6,142.4 456.4,141.9 L447.8,122.3 C445.6,122.9 443.4,123.5 441.2,124.1 L447.4,142.1 C447.6,142.7 447.3,143.3 446.7,143.5 C446.6,143.5 446.5,143.6 446.3,143.6 C445.8,143.6 445.4,143.3 445.2,142.8 L439,124.6 C436.2,125.4 433.4,126.1 430.5,126.9 L437.9,144 C438.1,144.6 437.9,145.2 437.3,145.5 C437.2,145.6 437,145.6 436.8,145.6 C436.4,145.6 436,145.4 435.8,144.9 L428.2,127.5 C425.9,128.1 423.7,128.7 421.4,129.3 L426.8,145 C427,145.6 426.7,146.2 426.1,146.4 C426,146.4 425.9,146.5 425.7,146.5 C425.2,146.5 424.8,146.2 424.6,145.7 L419.2,129.8 C416,130.7 412.8,131.5 409.6,132.4 L417.2,149.9 C417.4,150.5 417.2,151.1 416.6,151.4 C416.5,151.5 416.3,151.5 416.1,151.5 C415.7,151.5 415.2,151.3 415.1,150.8 L407.3,133 C403.4,134.1 399.5,135.1 395.7,136.2 L401.5,153.1 C401.7,153.7 401.4,154.3 400.8,154.5 C400.7,154.5 400.6,154.6 400.4,154.6 C399.9,154.6 399.5,154.3 399.3,153.8 L393.4,136.7 C390.6,137.5 387.8,138.2 385,139 L393.3,158 C393.6,158.6 393.3,159.2 392.7,159.5 C392.6,159.6 392.4,159.6 392.2,159.6 C391.8,159.6 391.3,159.4 391.2,158.9 L382.8,139.6 C358.6,146.2 334.4,152.8 310.3,159.4 L317.7,180.6 C317.9,181.2 317.6,181.8 317,182 C316.9,182 316.8,182.1 316.6,182.1 C316.1,182.1 315.7,181.8 315.5,181.3 L308,160 C305.8,160.6 303.7,161.2 301.5,161.8 L306.5,180.9 C306.7,181.5 306.3,182.1 305.7,182.3 L305.4,182.3 C304.9,182.3 304.4,182 304.3,181.5 L299.3,162.5 C296.5,163.3 293.7,164 290.9,164.8 L297,182.2 C297.2,182.8 296.9,183.4 296.3,183.6 C296.2,183.6 296.1,183.7 295.9,183.7 C295.4,183.7 295,183.4 294.8,182.9 L288.7,165.3 C286.3,165.9 283.9,166.6 281.6,167.2 L286.5,186.1 C286.7,186.7 286.3,187.3 285.7,187.5 L285.4,187.5 C284.9,187.5 284.4,187.2 284.3,186.7 L279.4,167.8 C275,169 270.6,170.2 266.3,171.4 L275.1,191.2 C275.4,191.8 275.1,192.4 274.5,192.7 C274.3,192.8 274.2,192.8 274,192.8 C273.6,192.8 273.2,192.6 273,192.1 L264,172 C262.7,172.4 261.4,172.7 260.2,173.1 L267.3,193.3 C267.5,193.9 267.2,194.5 266.6,194.7 C266.5,194.7 266.4,194.8 266.2,194.8 C265.7,194.8 265.3,194.5 265.1,194 L257.9,173.7 C254.4,174.7 250.9,175.6 247.4,176.6 L256.4,196.8 C256.7,197.4 256.4,198 255.8,198.3 C255.7,198.4 255.5,198.4 255.3,198.4 C254.9,198.4 254.5,198.2 254.3,197.7 L245.1,177.2 C242.9,177.8 240.7,178.4 238.6,179 L245.3,198 C245.5,198.6 245.2,199.2 244.6,199.4 C244.5,199.4 244.4,199.5 244.2,199.5 C243.7,199.5 243.3,199.2 243.1,198.7 L236.3,179.5 C233.4,180.3 230.6,181.1 227.7,181.8 L235.8,199.9 C236,200.5 235.8,201.1 235.2,201.4 C235.1,201.5 234.9,201.5 234.7,201.5 C234.3,201.5 233.9,201.3 233.7,200.8 L225.5,182.3 C223.5,182.9 221.4,183.4 219.3,184 L224.6,205.2 C224.7,205.8 224.4,206.4 223.8,206.6 L223.5,206.6 C223,206.6 222.5,206.2 222.4,205.7 L217.1,184.5 C215.6,184.9 214.1,185.3 212.6,185.7 L212.2,208.6 C212.2,209.2 211.7,209.7 211.1,209.7 L211.1,209.7 C210.5,209.7 210,209.2 210,208.5 L210.4,186.3 C208.2,186.9 205.9,187.5 203.7,188.1 L203.4,208.3 C203.4,208.9 202.9,209.4 202.3,209.4 L202.3,209.4 C201.7,209.4 201.2,208.9 201.2,208.2 L201.5,188.7 C198.7,189.5 195.9,190.2 193.1,191 L184.7,206.6 C184.5,207 184.1,207.2 183.7,207.2 C183.5,207.2 183.3,207.2 183.2,207.1 C182.7,206.8 182.4,206.1 182.7,205.6 L190.6,191 C188.9,189.4 187.2,187.9 185.6,186.3 L176.8,202.6 C176.6,203 176.2,203.2 175.8,203.2 C175.6,203.2 175.4,203.2 175.3,203.1 C174.7,202.8 174.5,202.1 174.8,201.6 L183.8,184.8 C175.1,176.8 166.4,168.7 157.7,160.7 C258.2,133.1 454.8,79.7 560.6,50.9 C567.2,55 574,59.7 580.6,65.4 C586.5,70.4 591.7,75.6 596.5,81.1 C594.6,81.6 592.7,82.1 590.8,82.7 L597.8,98.6 C599,99.8 598.8,100.4 598.2,100.7 L598.2,100.7 Z" id="Shape" fill="url(#linearGradient-2)" opacity="0.3"></path>
                        </g>
                        <polygon id="Shape" fill="url(#linearGradient-3)" opacity="0.17" points="774.2 338.5 743.4 338.5 774.2 427.2 765.1 427.2 719 338.5 697.4 338.5 708.6 370.7 699.5 370.7 682.7 338.5 355.9 338.5 360.6 329 774.2 329"></polygon>
                    </g>
                    <g id="woman1" transform="translate(184.000000, 371.000000)">
                        <g id="body_general" transform="translate(0.000000, 101.000000)">
                            <g id="socks" transform="translate(0.000000, 211.000000)">
                                <path d="M70.7,18.5 C70.7,18.5 70.1,23.3 68,28.6 C65.9,34 62.3,40 56.3,41.6 C50,43.4 46,39.3 39.8,34.4 C34.5,30.2 27.7,25.4 16.4,23.1 C-8.2,18 1.1,-7.8 5.9,2.4 C7.1,4.8 9.9,6.9 13.6,8.6 C20.6,11.8 30.7,13.8 37.6,14.8 C42.2,15.5 45.5,15.8 45.5,15.8 L70.7,18.5 L70.7,18.5 Z" id="Shape" fill="#FC860A"></path>
                                <path d="M284,270 C281.1,274 274.9,270.8 264.5,271.7 C262.9,271.8 261.2,272.1 259.4,272.5 C249.8,274.6 250.5,277.8 240.3,279.9 C230.3,281.9 217.8,281.2 216,276.5 C215.5,275.1 215.6,272.7 216.8,271.8 C217.9,271 219.7,271.9 220.3,272 C223.4,272.3 226.3,272.1 229.1,271.6 C235.2,270.4 240.7,267.6 245.8,265.1 C248.9,263.5 251.4,262.3 253.3,261 C255.5,259.5 257.1,258 258.4,255.9 C260.9,251.8 261.2,247.5 261.2,245 C267.9,244.1 274.6,243.3 281.3,242.4 C282.4,245.7 283.6,250.5 284.3,256.3 L284.3,256.4 C284.8,264.2 285.3,268.2 284,270 L284,270 Z" id="Shape" fill="#FC860A"></path>
                                <path d="M68,28.6 C65.9,34 62.3,40 56.3,41.6 C50,43.4 46,39.3 39.8,34.4 C47.2,28.1 61.9,28.2 68,28.6 L68,28.6 Z" id="Shape" fill="#004E5A"></path>
                                <path d="M284,270 C281.1,274 274.9,270.8 264.5,271.7 C267.8,261.7 278.6,257.6 284,256.2 L284,256.3 C284.8,264.2 285.3,268.2 284,270 L284,270 Z" id="Shape" fill="#004E5A"></path>
                                <path d="M37.7,14.7 C36.1,15.6 34.2,16.3 32,16.7 C22,18.8 16.6,14.1 13.7,8.5 C20.7,11.7 30.8,13.7 37.7,14.7 L37.7,14.7 Z" id="Shape" fill="url(#linearGradient-4)" opacity="0.12"></path>
                                <path d="M253.1,260.9 C252.4,263.1 251.1,265.3 249.1,267.4 C243.2,273.9 235.1,273.4 228.9,271.5 C235,270.3 240.5,267.5 245.6,265 C248.8,263.4 251.2,262.2 253.1,260.9 L253.1,260.9 Z" id="Shape" fill="url(#linearGradient-5)" opacity="0.12"></path>
                            </g>
                            <g id="leg_back" transform="translate(42.000000, 92.000000)">
                                <path d="M355.1,105.9 C341,122.4 326.8,138.9 312.7,155.4 C291.6,141.5 270.1,126.7 248.3,111.1 C233.5,100.5 219,89.9 205,79.3 C192,69.5 179.4,59.7 167.1,50 C162.1,55.1 154.3,62.5 144.1,70.6 C124.1,86.4 107.1,94.9 96.8,100.3 C80,109.1 56.2,122.8 27.2,143.9 C23.6,142.6 20,141.3 16.3,140 C10.8,138 5.3,136.1 -0.2,134.1 C44.4,94 75,66.1 92.8,49.9 C113.9,30.7 130.7,15.1 146.7,6.8 C157.3,1.3 167.5,-1.1 178.4,0.6 C183.4,1.4 186.2,2.7 208.4,15.2 C235.5,30.5 252.6,40.1 265.5,47.7 C270,50.3 274,52.7 277.7,55 C298.3,68 324.7,85 355.1,105.9 L355.1,105.9 Z" id="Shape" fill="#271C41"></path>
                                <path d="M146.7,6.9 C103.2,51.3 59.8,95.7 16.3,140.1 C10.8,138.1 5.3,136.2 -0.2,134.2 C44.4,94.1 75,66.2 92.8,50 C113.8,30.8 130.6,15.3 146.7,6.9 L146.7,6.9 Z" id="Shape" fill="#FFFFFF" opacity="0.04"></path>
                            </g>
                            <g id="leg_front" transform="translate(220.000000, 177.000000)">
                                <path d="M160.6,99.8 C117.5,114.1 77.5,122.9 42.6,128.2 C44.1,131 46.2,135.2 48.3,140.5 C57.3,163.5 56.3,183.5 56.1,191.4 C55.5,211 57.2,240.2 63.6,286.5 C62.1,286.4 60.6,286.4 59,286.3 C55.8,286.2 52.7,286.1 49.5,286 C46.4,285.9 43.2,285.8 40.1,285.7 C30.2,255 22.8,228.7 17.4,208.7 C-4.8,125.7 -3.7,102.3 9.3,88.6 C9.8,88.1 10.5,87.5 11.5,86.8 C14.4,84.8 19.6,81.8 27.9,77.1 C64.3,56.4 93.3,41.7 97.1,39.8 C110.1,33.2 127.4,24.1 148.1,12.2 C154.8,8.3 161.9,4.2 169.4,-0.3 C175.5,7.3 181.5,14.8 187.6,22.4 C194.2,30.6 200.8,38.9 207.4,47.1 C214.4,55.9 221.4,64.6 228.5,73.4 C208,82.6 185.3,91.6 160.6,99.8 L160.6,99.8 Z" id="Shape" fill="#8677A7"></path>
                                <path d="M160.6,99.8 C117.5,114.1 77.5,122.9 42.6,128.2 C44.1,131 46.2,135.2 48.3,140.5 C57.3,163.5 56.3,183.5 56.1,191.4 C55.5,211 57.2,240.2 63.6,286.5 C62.1,286.4 60.6,286.4 59,286.3 C54.4,262.8 46.8,224.1 37.1,174.3 C30,137.7 25.2,121.8 33.7,114.4 C38.1,110.6 43.9,110.9 47.6,110.9 C84.8,111.3 122.9,89.8 153.5,72.4 C165.2,65.7 182.1,55 200.6,38.3 C202.9,41.2 205.2,44 207.4,46.9 C214.4,55.7 221.4,64.4 228.5,73.2 C208,82.6 185.3,91.6 160.6,99.8 L160.6,99.8 Z" id="Shape" fill="url(#linearGradient-6)" opacity="0.42"></path>
                                <path d="M187.5,22.3 C142.3,39 56.8,70.5 11.4,86.7 C14.3,84.7 19.5,81.7 27.8,77 C64.2,56.3 93.2,41.6 97,39.7 C110,33.1 127.3,24 148,12.1 C154.7,8.2 161.8,4.1 169.3,-0.4 C175.4,7.2 181.5,14.8 187.5,22.3 L187.5,22.3 Z" id="Shape" fill="url(#linearGradient-7)" opacity="0.12"></path>
                            </g>
                            <g id="body_up" transform="translate(248.000000, 0.000000)">
                                <path d="M269.6,61.7 C270.2,92.2 250.2,138.2 220.3,207.3 C219.7,208.7 209.4,232.4 209.4,232.4 C206.1,239.7 203.1,245.8 200.7,250.6 C192.9,250.3 182.2,249 170.5,244.2 C168.3,243.3 166.1,242.3 163.9,241.2 C144,230.9 132.1,214.5 125.1,200.6 C119.3,188.9 116.9,179 116.2,175.9 C125.4,170.6 139.1,160.5 147.7,143.4 C148.5,141.8 151.1,136.5 153.2,128.7 C157.9,111.4 156.3,96.5 154.5,87.7 C151.6,96 145.6,109.2 133.1,119.9 C121.7,129.7 109,134.4 97.3,136.5 C85,138.8 73.8,138.3 66.6,137.9 C37.6,136.4 16.3,124.3 5.5,117 C4.4,114.2 3.3,111 2.4,107.5 C1,102.1 0.3,97.2 -0.1,93 C68.1,113.2 95.8,103.1 108.5,90 C122.1,76 123.8,53.1 146.1,32.9 C147.1,32 148.2,31.1 149.3,30.2 L149.3,30.2 C149.9,29.7 150.5,29.2 151.1,28.7 C161.1,20.9 170.9,16.7 177.6,14.3 C241.2,10.3 258.1,30.8 262.9,38.1 C267.4,44.7 269.5,52.5 269.6,61.7 L269.6,61.7 Z" id="Shape" fill="#004E5A"></path>
                                <path d="M236.3,-0.5 C232.8,11.2 227.3,18.6 223.9,22.5 C219.1,28 215.5,29.9 214.4,30.4 C207,34.2 196.1,35.4 186.6,29.7 C179.6,25.6 176.3,19.3 174.7,15.3 C175.6,14.9 176.5,14.4 177.4,14 L177.4,14 C178.1,13.7 227.9,1.3 231.6,0.4 L231.7,0.4 C233.5,0.1 234.9,-0.2 236.3,-0.5 L236.3,-0.5 Z" id="Shape" fill="#336859"></path>
                                <path d="M154,39 L154,39 C154,39 148.6,36 146.6,32.6 C147.6,31.7 148.7,30.8 149.8,29.9 C150.6,31 151.3,32.4 152,33.8 C151.3,31 151.2,28.2 154.1,28 C156.8,27.9 156.9,30.3 156.3,32.9 C158,29.5 160.1,26.3 161.6,28.9 C164,33.3 154,39 154,39 L154,39 Z" id="Shape" fill="#BDD3DE" opacity="0.5"></path>
                                <path d="M179.2,56.3 C177.7,53.7 175.6,56.9 173.9,60.3 C174.5,57.7 174.4,55.3 171.7,55.4 C168.8,55.5 168.9,58.4 169.6,61.2 C167.9,57.5 165.5,53.6 163.9,56.4 C161.4,60.7 171.5,66.4 171.6,66.4 L171.6,66.4 C171.7,66.3 181.6,60.6 179.2,56.3 L179.2,56.3 Z" id="Shape" fill="#BDD3DE" opacity="0.5"></path>
                                <path d="M209.5,75.9 C208,73.3 205.9,76.5 204.2,79.9 C204.8,77.3 204.7,74.9 202,75 C199.1,75.1 199.2,78 199.9,80.8 C198.2,77.1 195.8,73.2 194.2,76 C191.7,80.3 201.8,86 201.9,86 L201.9,86 C201.9,85.9 211.9,80.1 209.5,75.9 L209.5,75.9 Z" id="Shape" fill="#BDD3DE" opacity="0.5"></path>
                                <path d="M245.5,65.2 C244,62.6 241.9,65.8 240.2,69.2 C240.8,66.6 240.7,64.2 238,64.3 C235.1,64.4 235.2,67.3 235.9,70.1 C234.2,66.4 231.8,62.5 230.2,65.3 C227.7,69.6 237.8,75.3 237.9,75.3 L237.9,75.3 C237.9,75.2 247.9,69.5 245.5,65.2 L245.5,65.2 Z" id="Shape" fill="#BDD3DE" opacity="0.5"></path>
                                <path d="M124.9,200.4 C119.1,188.7 116.7,178.8 116,175.7 C125.2,170.4 138.9,160.3 147.5,143.2 C148.3,141.6 150.9,136.3 153,128.5 C157.7,111.2 156.1,96.3 154.3,87.5 C151.4,95.8 145.4,109 132.9,119.7 C121.5,129.5 108.8,134.2 97.1,136.3 L97.1,136.3 C105,129.6 117,118.2 128.5,101.6 C142.4,81.6 146.8,66.9 155.7,66.8 C164.9,66.7 173,82.4 175.9,91.2 C190.8,135.8 135.6,190.2 124.9,200.4 L124.9,200.4 Z" id="Shape" fill="url(#linearGradient-8)" opacity="0.17"></path>
                                <path d="M269.6,61.7 C270.2,92.2 250.2,138.2 220.3,207.3 C219.7,208.7 209.4,232.4 209.4,232.4 C206.1,239.7 203.1,245.8 200.7,250.6 C192.9,250.3 182.2,249 170.5,244.2 C213.2,217.7 262.1,59.7 262.1,59.7 L269.6,61.7 L269.6,61.7 Z" id="Shape" fill="#19233D" opacity="0.08"></path>
                            </g>
                            <g id="hand_front" transform="translate(465.000000, 3.000000)">
                                <path d="M11.6,171.4 C11.5,172.2 11.3,173 11.1,173.7 C9.7,179.7 6.6,184.4 4.8,187.1 C4.2,188 4.3,187.8 4.2,188 C1.1,193.8 9.2,205.1 8.3,207.9 C8.3,208 8.2,208.4 7.9,208.5 C7.2,208.8 5.9,207 5.4,206.4 C1,200.3 0.4,174.3 0.4,173.9 C0.4,173.9 0.3,171.9 0.7,167.7 L0.7,167.7 C0.7,167.5 0.7,167.3 0.8,167 C1.3,161.4 1.9,160.6 2.4,160.2 C5,158 10.8,161 11.5,161.4 C12.2,165.7 11.9,169.1 11.6,171.4 L11.6,171.4 Z" id="Shape" fill="#FF7D93"></path>
                                <path d="M2.4,194.4 C2.4,194.4 8.4,208.7 10.5,207.4 C12.6,206.2 3.7,189.6 3.7,189.6 L2.4,194.4 L2.4,194.4 Z" id="Shape" fill="#FF7D93"></path>
                                <path d="M3.6,190.1 C3.6,190.1 9.6,204.4 11.7,203.1 C13.8,201.9 4.9,185.3 4.9,185.3 L3.6,190.1 L3.6,190.1 Z" id="Shape" fill="#FF7D93"></path>
                                <path d="M14.6,177.3 C14.6,177.3 14.6,195.5 12.1,193.6 C9.6,191.7 7.9,172.4 7.9,172.4 L13,166 L14.6,177.3" id="Shape" fill="#FF7D93"></path>
                                <path d="M13,167.1 C13.3,169.2 13.2,170.6 13.2,171 C13.2,171.6 13.1,172.1 13,172.5 C12.4,172.7 8.6,174 4.8,172 C2.3,170.6 1.1,168.5 0.7,167.7 L0.7,167.7 C0.7,167.5 0.7,167.3 0.8,167 C1.3,161.4 1.9,160.6 2.4,160.2 C5,158 10.8,161 11.5,161.4 C12,162.8 12.7,164.8 13,167.1 L13,167.1 Z" id="Shape" fill="#19233D" opacity="0.25"></path>
                                <path d="M122.1,110.1 C121.7,111.2 121.2,112.2 120.6,113.2 C114.7,123.6 100.6,130.1 84,137.8 C69.7,144.4 64.4,144.2 51.4,150.3 C34.6,158.2 22.6,168.8 14.5,177.3 C12.9,175 11.3,172.8 9.6,170.5 C7.2,167.1 4.7,163.6 2.3,160.2 C10.1,148.8 23.3,132.6 44.1,119.5 C62.5,107.9 78.6,104 78.4,95.5 C78.2,85.5 55.7,74.4 46.9,65.3 C42.9,61.1 41.1,59.2 36.6,54.7 C30.6,48.8 27.6,46.3 24.7,42.9 C22.9,40.8 21.7,39 21.3,38.4 C14.7,28.5 14.8,5.4 23.6,0.6 C25.5,-0.4 32.3,-3.1 58.4,19.2 C59.5,20.1 60.5,21 61.7,22 C70,29.3 79.2,37.5 88,46.1 C110.2,67.6 129.3,91.6 122.1,110.1 L122.1,110.1 Z" id="Shape" fill="#336859"></path>
                                <path d="M88.2,46.2 C64.9,51.4 34,47.8 34,47.8 L58.6,19.4 C59.7,20.3 60.7,21.2 61.9,22.2 C70.1,29.4 79.4,37.6 88.2,46.2 L88.2,46.2 Z" id="Shape" fill="#19233D" opacity="0.25"></path>
                                <path d="M120.6,113.2 C114.7,123.6 100.6,130.1 84,137.8 C69.7,144.4 64.4,144.2 51.4,150.3 C34.6,158.2 22.6,168.8 14.5,177.3 C12.9,175 11.3,172.8 9.6,170.5 C19.8,160.2 69.7,112.2 120.6,113.2 L120.6,113.2 Z" id="Shape" fill="#19233D" opacity="0.08"></path>
                            </g>
                        </g>
                        <g id="laptop" transform="translate(239.000000, 165.000000)">
                            <path d="M119.8,108.2 C119.8,108.2 54.5,81.6 52.4,80.7 C41.1,76.1 29.8,71.6 18.5,67 C13.6,65 8.8,63.1 3.9,61.1 C2.5,40.7 1,20.4 -0.4,0 C25.9,2.1 52.2,4.2 78.5,6.3 L78.7,6.3 C77.6,29.7 76.5,53.1 75.4,76.5 L119.6,102.1 L119.8,108.2 L119.8,108.2 Z" id="Shape" fill="#19233D"></path>
                            <ellipse id="Oval" fill="#E6E3F4" cx="31" cy="37" rx="7" ry="9"></ellipse>
                            <path d="M119.8,108.2 C119.8,108.2 54.5,81.6 52.4,80.7 C41.1,76.1 29.8,71.6 18.5,67 L78.5,6.3 L78.7,6.3 C77.6,29.7 76.5,53.1 75.4,76.5 L119.6,102.1 L119.8,108.2 L119.8,108.2 Z" id="Shape" fill="#FFFFFF" opacity="0.05"></path>
                        </g>
                        <g id="hand_back" transform="translate(240.000000, 198.000000)" fill="#FF7D93">
                            <path d="M1,2.3 C3.4,1.6 5.4,1.2 6.8,0.9 C10.4,0.2 11.7,0.3 12.1,1 C12.1,1 12.5,1.5 12.3,2 C12,3.1 9.5,2.9 6.9,3.4 C5.4,3.7 3.4,4.2 1.2,5.3 C1.1,5.2 0.3,4.5 0.4,3.5 C0.6,2.9 0.9,2.5 1,2.3 L1,2.3 Z" id="Shape"></path>
                            <path d="M1.3,6.6 C4.2,5.9 6.5,5.2 8,4.7 C10.4,4 12.2,3.3 13,4.2 C13.4,4.6 13.5,5.2 13.4,5.7 C13.1,6.9 11.1,7.2 9,7.7 C7.2,8.1 4.7,8.7 1.6,9.7 C1.5,9.6 0.6,9 0.7,8 C0.6,7.2 1.1,6.7 1.3,6.6 L1.3,6.6 Z" id="Shape"></path>
                            <path d="M1.5,9.4 C4.8,8.7 7.3,8.1 9,7.7 C11,7.2 12.8,6.7 13.5,7.5 C13.8,7.9 13.8,8.5 13.6,8.9 C13.2,10.1 11.3,10.5 9.5,10.9 C7.8,11.2 5.2,11.8 1.8,12.5 C1.7,12.4 1,12 0.9,11.1 C0.7,10.1 1.4,9.4 1.5,9.4 L1.5,9.4 Z" id="Shape"></path>
                            <path d="M1.8,13.6 C5.2,12.8 7.4,12.2 9,11.6 C9.7,11.4 11.2,10.9 11.6,11.4 C11.9,11.7 11.7,12.3 11.7,12.3 C11.4,13.1 10.3,13.4 9.8,13.5 C8.1,13.9 5.4,14.7 2,15.7 C1.9,15.6 1.5,15.3 1.4,14.6 C1.4,14.1 1.8,13.6 1.8,13.6 L1.8,13.6 Z" id="Shape"></path>
                        </g>
                        <g id="head_general" transform="translate(415.000000, 0.000000)">
                            <g id="neck" transform="translate(11.000000, 75.000000)">
                                <path d="M53.9,26.4 C53.2,29.4 49,46.7 33.6,53.9 C30.3,55.5 23,58.9 14.7,56.2 C3.8,52.6 1.11022302e-16,41.5 -0.5,40 L-0.5,40 C3.1,38.6 5.3,36.6 6.6,35.1 C8.6,32.9 9.8,30.4 10.4,27.9 C11.9,22.5 11,16.8 10.1,13.4 C9.6,11.6 9.2,10.4 9.1,10.2 C18.9,6.8 28.7,3.3 38.5,-0.1 C38.8,3 39.6,8.6 43.1,14.6 C46.7,21 51.3,24.6 53.9,26.4 L53.9,26.4 Z" id="Shape" fill="#FF7D93"></path>
                                <path d="M24.9,10.6 C23.9,18.3 15.9,24.5 10.5,27.9 C12,22.5 11.1,16.8 10.2,13.4 L24.9,10.6 L24.9,10.6 Z" id="Shape" fill="#19233D" opacity="0.25"></path>
                            </g>
                            <path d="M1.4,44 C5,28.7 17.1,11.2 30.5,11.5 C35.3,11.6 38.8,14 41.3,15.7 C53.6,24.1 59.4,41.9 56.5,56.9 C51.8,81.2 23.3,99.1 10.7,92.7 C-1.06858966e-14,87.3 -1.4,63 0.5,48.9 C0.7,47.6 0.9,46.1 1.4,44 L1.4,44 Z" id="Shape" fill="#FF7D93"></path>
                            <g id="eyes" transform="translate(2.000000, 50.000000)" fill="#000000">
                                <circle id="Oval" cx="19" cy="2" r="2"></circle>
                                <circle id="Oval" cx="2" cy="3" r="2"></circle>
                            </g>
                            <path d="M13.7,81 C12.4,81 11.3,80.7 10.7,80.5 C10.4,80.4 10.2,80 10.3,79.7 C10.4,79.4 10.8,79.2 11.1,79.3 C11.9,79.6 13.9,80.1 16.1,79.3 C18.7,78.3 19.9,76.1 20.1,75.5 C20.2,75.2 20.6,75.1 20.9,75.2 C21.2,75.3 21.3,75.7 21.2,76 C20.9,76.8 19.5,79.3 16.5,80.4 C15.5,80.8 14.6,81 13.7,81 L13.7,81 Z" id="head" fill="#000000"></path>
                            <g id="brows" transform="translate(0.000000, 41.000000)" fill="#002544">
                                <ellipse id="Oval" transform="translate(23.107300, 1.415650) rotate(-80.682737) translate(-23.107300, -1.415650) " cx="23.1073" cy="1.41565" rx="1" ry="4.49996816"></ellipse>
                                <ellipse id="Oval" transform="translate(4.600550, 2.927350) rotate(-18.148690) translate(-4.600550, -2.927350) " cx="4.60055" cy="2.92735" rx="4.50023026" ry="1.00005117"></ellipse>
                            </g>
                            <path d="M12.4,53.3 C9.8,57.7 7.8,60.9 6.7,62.7 C4.4,66.4 3.6,67.9 4.2,68.9 C5.3,70.7 11.2,69 12.9,68.4 C12.7,63.4 12.5,58.4 12.4,53.3 L12.4,53.3 Z" id="nose_2_" fill="#640042"></path>
                            <g id="hair">
                                <path d="M113,141.7 C104,154.3 86.7,163.6 71,159.5 C47.2,153.2 41.1,119.8 40.3,114.8 C37.3,96.3 44.2,88.6 43.6,57.8 C43.4,46.2 42.2,36.8 41.2,30.9 C39.5,31.2 37.1,31.5 34.2,31.9 C21.6,33.5 12.9,34.7 7.5,34.2 C4.2,33.9 2.1,33.1 0.9,31.4 C-2.5,26.6 2.5,17.1 5.9,12.7 C9.9,7.4 14.8,5.1 17.8,3.7 C19.3,3 31.3,-2.4 44.8,0.3 C46.2,0.6 47.6,0.9 49,1.4 C70.6,8.4 78.9,33.7 80.5,38.6 C88.4,63 78.8,79.6 89.4,87.4 C97.2,93.2 105.1,85.9 113.1,91.7 C124,99.6 124.8,125 113,141.7 L113,141.7 Z" id="Shape" fill="#19233D"></path>
                                <path d="M7.4,34.2 C4.1,33.9 2,33.1 0.8,31.4 C-2.6,26.6 2.4,17.1 5.8,12.7 C9.8,7.4 14.7,5.1 17.7,3.7 C19.2,3 31.2,-2.4 44.7,0.3 C5.5,9.4 6.4,27.6 7.4,34.2 L7.4,34.2 Z" id="Shape" fill="url(#linearGradient-9)" opacity="0.12"></path>
                            </g>
                            <circle id="ear" fill="#FF7D93" cx="44" cy="57" r="9"></circle>
                            <path d="M45.7,54.6 C46.4,54.7 47.1,55.1 47.5,55.8 C48.3,57.1 47.7,58.7 46.7,61.3 C46.2,62.7 45.3,65 44.1,68.4 C43.7,68.3 43.2,68.2 42.8,68 C43.5,65.5 44.1,63 44.8,60.6 C44.6,60.6 44.3,60.6 44.1,60.5 C42.6,60.1 41.8,58.4 42.2,56.8 C42.7,55.3 44.3,54.4 45.7,54.6 L45.7,54.6 Z" id="headphone" fill="#FFFFFF"></path>
                        </g>
                    </g>
                    <path d="M889.2,959.5 L836.9,775.2 L836.8,775.2 L832.3,775.2 L719,775.2 L714.5,775.2 L714.4,775.2 L663.8,953.6 C658.6,954.5 654.6,959 654.6,964.4 C654.6,970.5 659.5,975.4 665.6,975.4 C671.7,975.4 676.6,970.5 676.6,964.4 C676.6,960.6 674.7,957.3 671.8,955.3 L720.2,784.9 L831.2,784.9 L881.2,960.9 C878.1,962.8 876,966.3 876,970.2 C876,976.3 880.9,981.2 887,981.2 C893.1,981.2 898,976.3 898,970.2 C897.8,965 894.1,960.6 889.2,959.5 L889.2,959.5 Z" id="coffee_table" fill="#19233D" opacity="0.84"></path>
                    <g id="cup" transform="translate(726.000000, 737.000000)">
                        <path d="M69.7,7 C68.7,4.7 65.1,3.9 57.9,4.5 C58.3,2.7 58.6,1.2 58.8,0.2 C56.3,0.1 51.4,-1.09523501e-13 45.5,-0.1 C29.9,-0.3 7,-0.2 0.3,0.2 C1.5,5.9 7.3,33 18.5,34.8 C18.7,34.8 19,34.9 19.3,34.9 L19.3,38.2 L39.9,38.2 L39.9,34.9 C40.3,34.9 40.6,34.8 40.7,34.8 C44.5,34.2 47.7,30.6 50.3,25.9 C69.3,13.7 70.6,9.4 69.7,7 L69.7,7 Z M52.3,22 C54.5,17 56.2,11.3 57.3,6.9 C66.3,6 67.4,7.6 67.6,7.9 C67.9,8.6 67.6,11.7 52.3,22 L52.3,22 Z" id="Shape" fill="#FC860A"></path>
                        <path d="M69.7,7 C68.7,4.7 65.1,3.9 57.9,4.5 C58.3,2.7 58.6,1.2 58.8,0.2 C56.3,0.1 51.4,-2.77555756e-17 45.5,-0.1 L31.6,38.2 L39.8,38.2 L39.8,34.9 C40.2,34.9 40.5,34.8 40.6,34.8 C44.4,34.2 47.6,30.6 50.2,25.9 C69.3,13.7 70.6,9.4 69.7,7 L69.7,7 Z M52.3,22 C54.5,17 56.2,11.3 57.3,6.9 C66.3,6 67.4,7.6 67.6,7.9 C67.9,8.6 67.6,11.7 52.3,22 L52.3,22 Z" id="Shape" fill="url(#linearGradient-10)" opacity="0.24"></path>
                    </g>
                    <g id="window_1_" transform="translate(227.000000, 0.000000)">
                        <path d="M218.2,530.8 C217.8,530.8 217.5,530.6 217.3,530.2 L123.6,342.8 C123.4,342.3 123.6,341.7 124,341.5 C124.4,341.3 125.1,341.5 125.3,341.9 L219,529.3 C219.2,529.8 219,530.4 218.6,530.6 C218.5,530.8 218.3,530.8 218.2,530.8 L218.2,530.8 Z" id="line" fill="#153E5C" opacity="0.5"></path>
                        <polygon id="window" fill="url(#linearGradient-11)" points="0 0 0 373.7 294.4 373.7 294.4 0"></polygon>
                        <g id="background_room" transform="translate(154.000000, 190.000000)">
                            <polygon id="Shape" fill="#F2BE54" points="140.6 -0.3 140.6 14.6 121.5 14.6 121.5 183.7 114.1 183.7 114.1 14.6 91.4 14.6 91.4 182.2 84 182.2 84 14.6 60.8 14.6 60.8 183 53.4 183 53.4 14.6 30.7 14.6 30.7 181.5 23.3 181.5 23.3 14.6 -0.4 14.6 -0.4 -0.3"></polygon>
                            <polygon id="Shape" fill="url(#linearGradient-12)" opacity="0.3" points="140.6 -0.3 140.6 14.6 121.5 14.6 121.5 183.7 114.1 183.7 114.1 14.6 91.4 14.6 91.4 182.2 84 182.2 84 14.6 78.7 14.6 84 -0.3"></polygon>
                            <polygon id="Shape" fill="url(#linearGradient-13)" opacity="0.3" points="53.4 85 60.8 64.4 60.8 183 53.4 183"></polygon>
                            <polygon id="Shape" fill="url(#linearGradient-14)" opacity="0.3" points="23.3 168.9 30.7 148.3 30.7 181.5 23.3 181.5"></polygon>
                        </g>
                        <g id="woman_2" transform="translate(30.000000, 46.000000)">
                            <g id="Group" transform="translate(61.000000, 126.000000)">
                                <g id="neck_1_">
                                    <path d="M100.9,69.4 C95.5,84.6 85.3,101.2 65.9,112.9 C35.5,131.3 12.3,94.7 0.2,68.5 C3.9,66.9 8.6,64.4 13.2,60.4 C13.4,60.2 13.7,60 13.9,59.8 C15.6,58.3 17.3,56.6 18.9,54.7 C26.2,45.9 29.3,35.9 30.2,27 C31,19.7 30.4,13.1 29.7,8.7 C29.2,5.9 28.7,3.9 28.5,3.1 C41.1,2.2 53.7,1.3 66.2,0.4 C64.9,14 65.4,33.4 76.7,49.6 C78.7,52.4 80.8,54.9 83,57.1 C83.2,57.3 83.4,57.5 83.7,57.7 C89.5,63.2 95.7,66.8 100.9,69.4 L100.9,69.4 Z" id="Shape" fill="#CD907F"></path>
                                    <path d="M58.7,2.2 C59.1,21.1 39.3,25.8 30.2,27 C31,19.7 30.4,13.1 29.7,8.7 L58.7,2.2 L58.7,2.2 Z" id="Shape" fill="#19233D" opacity="0.25"></path>
                                </g>
                                <g id="necklace" transform="translate(13.000000, 57.000000)" fill="#F2BE54">
                                    <path d="M70.8,0.7 C65.7,10.8 57.2,22.3 43.5,27.8 C40.5,29 37.5,29.6 34.7,29.7 C18.7,30 6.3,13.5 0.2,3.5 C0.4,3.3 0.7,3.1 0.9,2.9 C7.8,14.5 23.4,35 43.1,27 C56.7,21.5 65.1,10.1 70.1,0.1 C70.3,0.3 70.6,0.5 70.8,0.7 L70.8,0.7 Z" id="Shape"></path>
                                    <circle id="Oval" cx="32.5" cy="32.5" r="3.5"></circle>
                                </g>
                            </g>
                            <g id="body" transform="translate(0.000000, 194.000000)">
                                <path d="M219.1,133.8 L185,133.8 L182.7,133.8 L0.1,133.8 C6.8,61.9 22.2,28.6 38.2,13.4 C38.9,12.8 39.5,12.2 40.2,11.6 C40.6,11.2 41.1,10.9 41.5,10.5 C42,10.1 42.4,9.8 42.9,9.4 C45.7,7.4 48.5,5.8 51.2,4.6 C53.7,3.5 57.2,2.3 61.2,0.4 C70.3,20.3 85.9,46.1 106.1,49.4 C112.6,50.5 119.5,49.2 126.9,44.8 C127.9,44.2 129,43.5 130,42.9 C130.5,42.6 131,42.2 131.5,41.9 C131.9,41.6 132.3,41.3 132.7,41 C132.7,41 132.8,41 132.8,40.9 C132.9,40.8 133,40.8 133.1,40.7 L133.2,40.6 L133.3,40.5 C133.6,40.3 133.9,40 134.3,39.8 C134.8,39.4 135.4,39 135.9,38.5 C136.3,38.2 136.6,37.9 137,37.6 C137.6,37.1 138.2,36.6 138.8,36 C138.9,35.9 138.9,35.9 139,35.8 C139.6,35.3 140.2,34.8 140.7,34.2 C141,33.9 141.3,33.7 141.5,33.4 C141.8,33.1 142,32.9 142.3,32.6 C142.4,32.5 142.4,32.5 142.5,32.4 C143,31.9 143.6,31.3 144.1,30.8 C144.5,30.4 144.8,30 145.2,29.6 C145.9,28.8 146.6,28 147.3,27.2 C148,26.4 148.7,25.5 149.3,24.6 C149.6,24.2 150,23.7 150.3,23.3 C150.6,22.9 150.9,22.4 151.2,22 C151.9,21.1 152.5,20.1 153.1,19.2 C153.3,18.8 153.6,18.5 153.8,18.1 C154.1,17.6 154.4,17.2 154.6,16.8 C155.1,15.9 155.6,15 156.1,14.2 C156.4,13.7 156.6,13.2 156.9,12.8 C157.1,12.5 157.2,12.2 157.4,11.9 C157.6,11.5 157.8,11.1 158,10.6 L158,10.6 C158.3,10.1 158.5,9.6 158.7,9 C159,8.3 159.3,7.6 159.6,7 C159.9,6.4 160.1,5.7 160.4,5.1 C160.6,4.5 160.8,4 161.1,3.4 C161.1,3.3 161.2,3.2 161.2,3.1 C161.4,2.4 161.7,1.8 161.9,1.2 C165.1,2.8 168,4 170.1,5.1 C172.5,6.3 174.9,7.8 177.3,9.6 C179.2,11 181,12.6 182.9,14.4 C183.5,15 184.1,15.6 184.7,16.3 C192.8,25 200.5,38.3 206.7,58.6 L206.7,58.6 C207.1,59.9 207.5,61.2 207.9,62.5 C210.8,72.7 213.3,84.5 215.3,98.3 C217,109.2 218.2,120.9 219.1,133.8 L219.1,133.8 Z" id="Shape" fill="#19233D"></path>
                                <path d="M106.1,49.6 L23.6,133.8 L0.1,133.8 C6.8,61.9 22.2,28.6 38.2,13.4 C38.9,12.8 39.5,12.2 40.2,11.6 C40.6,11.2 41.1,10.9 41.5,10.5 C42,10.1 42.4,9.8 42.9,9.4 C45.7,7.4 48.5,5.8 51.2,4.6 C53.7,3.5 57.2,2.3 61.2,0.4 C70.4,20.4 85.9,46.2 106.1,49.6 L106.1,49.6 Z" id="Shape" fill="url(#linearGradient-15)" opacity="0.12"></path>
                            </g>
                            <g id="hand_2_" transform="translate(170.000000, 290.000000)" fill="#CD907F">
                                <path d="M21.2,29.6 C19.8,33 17.5,35.7 15,37.8 L0.5,37.8 C0.7,37.7 1,37.7 1.3,37.6 C3,37.3 4.5,37.5 5.4,37.6 C6.1,36.8 6.7,36 7.3,35.2 C8.1,34.1 8.9,33.1 9.6,31.9 C9.8,31.6 10,31.3 10.2,31 C10.3,30.8 10.5,30.6 10.6,30.3 C10.8,30 11.1,29.6 11.3,29.2 C11.5,28.8 11.8,28.4 12,28 C12.1,27.7 12.3,27.4 12.5,27.1 C12.6,27 12.6,26.9 12.7,26.7 C12.8,26.6 12.8,26.5 12.9,26.3 C13,26.2 13,26 13.1,25.9 C13.6,24.9 14.1,23.7 14.7,21.9 C15.4,19.9 16.2,17.3 17.1,13.8 C18,10.2 19.1,5.5 20,1.1367296e-13 C20,1.1367296e-13 20,1.1367296e-13 20,-0.1 C20.4,2.1 21,5.3 21.4,9.1 C22.6,19.7 23.2,24.9 21.2,29.6 L21.2,29.6 Z" id="Shape"></path>
                                <path d="M9.1,32.8 C9.3,32.6 9.5,32.3 9.7,32 C9,33.1 8.2,34.2 7.4,35.3 C6.8,36.1 6.1,36.9 5.5,37.7 C4.6,37.5 3.1,37.4 1.4,37.7 C1.1,37.7 0.9,37.8 0.6,37.9 L0.2,37.9 C2.6,33.1 4.3,29.5 5.4,26.8 C5.7,26.2 9.6,17.6 10.3,16.9 C10.8,16.3 11.4,15.7 12.1,15.7 C12.1,15.7 12.6,15.7 13.1,16.2 C14.4,17.4 10.5,28.8 9.1,32.8 L9.1,32.8 Z" id="Shape"></path>
                            </g>
                            <g id="head_general_1_" transform="translate(24.000000, 0.000000)">
                                <path d="M119,34.6 C129.1,52.9 125.4,71.2 120.8,94 C118.1,107.7 115.9,117.9 106.8,126.9 C103.9,129.8 92.9,139.9 76.4,140 C52.4,140.1 39.3,118.7 38.3,117.1 C37.2,115.3 34.4,110.2 31.9,93 C28.2,67.4 26.2,54.6 31.2,41.7 C36.9,27 52.7,5.5 75.9,5.2 C102.1,5 117.4,31.8 119,34.6 L119,34.6 Z" id="head_1_" fill="#CD907F"></path>
                                <path d="M72.4,102.9 C71.3,103.8 69.4,105.2 66.7,106 C65.7,106.3 60.5,107.8 58.8,105.8 C57.3,104.1 59.3,100.6 62.3,94 C64,90.3 66.5,84.6 69.6,77.5 L69.6,77.6 C70.6,86 71.5,94.5 72.4,102.9 L72.4,102.9 Z" id="nose" fill="#A2625E"></path>
                                <g id="brows_1_" transform="translate(42.000000, 64.000000)" fill="#000000">
                                    <path d="M20.7,6.7 C19.1,5.9 15.5,4.3 10.6,4.5 C5.3,4.7 1.6,7 0.1,8 C0.6,7.2 3.2,3.3 8.2,2.2 C12.8,1.2 17.6,3 20.7,6.7 L20.7,6.7 Z" id="brow_2_"></path>
                                    <path d="M37,5.4 C38.6,4.5 42.1,2.7 47,2.8 C52.3,2.8 56.1,4.9 57.6,5.9 C57.1,5.1 54.3,1.3 49.3,0.4 C44.7,-0.3 40,1.6 37,5.4 L37,5.4 Z" id="brow_1_"></path>
                                </g>
                                <g id="eyes_1_" transform="translate(53.000000, 77.000000)" fill="#000000">
                                    <circle id="Oval" cx="2.5" cy="3.5" r="2.5"></circle>
                                    <circle id="Oval" cx="33.5" cy="2.5" r="2.5"></circle>
                                </g>
                                <path d="M70.5,123.1 C68.4,123.1 66.7,122.7 65.6,122.4 C65.3,122.3 65.1,122 65.2,121.7 C65.3,121.4 65.6,121.2 65.9,121.3 C67.7,121.8 71.3,122.5 75.3,121.2 C80.5,119.5 83.2,115.5 84.1,113.9 C84.3,113.6 84.6,113.5 84.9,113.7 C85.2,113.9 85.3,114.2 85.1,114.5 C84.1,116.2 81.2,120.5 75.6,122.4 C73.9,122.9 72.1,123.1 70.5,123.1 L70.5,123.1 Z" id="smile" fill="#000000"></path>
                                <g id="hair_1_">
                                    <path d="M65.1,33.8 C68.1,38.2 72.6,44.6 78.7,51.8 C99.4,76.4 111.7,79.3 111.9,90.6 C112.2,105.3 94.7,111.8 98.3,122.9 C100.7,130.3 112,137.3 120.8,133.2 C127.2,130.2 131.1,122 129.4,113.2 C129.4,113.2 131.2,128.6 143.8,120.1 C144.9,119.4 148.3,117.1 149.8,112.6 C152.1,105.6 147.6,99.6 147.2,99 C151.1,101.9 155.9,102.1 158.9,99.8 C162.2,97.3 161.9,92.9 161.9,92.2 C161.6,87.1 156.8,82.3 150.1,80.5 C153.4,80 156,78.1 157,75.5 C158.3,71.8 155.7,68.3 154.9,67.3 C152,63.5 148.8,64 145.5,61.2 C141,57.3 140.9,50.9 140.6,48.1 C138.9,31.8 117,2.8 92.4,-4.74620343e-15 C88,-0.5 80.3,-0.4 70.1,5.2 C65.6,4.5 58.3,3.9 50.3,6.6 C33.1,12.4 20.2,30.9 17.1,48.8 C14.6,63 18.1,78.3 11.4,81.1 C8.9,82.2 6.5,80.8 3.8,83 C0.7,85.4 -0.8,90.4 0.6,94.6 C2.3,99.5 7.8,102.9 14,102 C6.3,106 4.7,114.8 8.1,119.3 C10.7,122.7 16.4,123.9 21.8,121.6 C22.4,127.2 24.7,130.6 26.1,132.2 C32.7,140 46.2,141.8 59.6,136.1 C54.6,129.7 44.8,115.4 42.7,95 C42,88 40,65.9 53.8,46 C57.7,40.5 62,36.4 65.1,33.8 L65.1,33.8 Z" id="Shape" fill="#000000"></path>
                                    <path d="M126.9,63.3 C124.2,57.3 118.7,47.2 108,38.5 C103.4,34.7 93.4,26.5 80.4,24.2 C76.5,23.5 72.3,23.3 67.9,24 C50.8,26.6 36.3,40.8 30.2,59.7 C30.4,55.6 31.5,39.5 44.5,26.7 C47.1,24.1 55.2,16.3 68,14.1 C74.7,12.9 81,13.6 86.5,15.2 C98.8,18.7 107.5,26.8 109.6,28.9 C123.2,41.6 126.1,57.6 126.9,63.3 L126.9,63.3 Z" id="Shape" fill="#8677A7"></path>
                                    <path d="M126.9,63.3 C124.2,57.3 118.7,47.2 108,38.5 C103.4,34.7 93.4,26.5 80.4,24.2 L86.4,15.2 C98.7,18.7 107.4,26.8 109.5,28.9 C123.2,41.6 126.1,57.6 126.9,63.3 L126.9,63.3 Z" id="Shape" fill="#19233D" opacity="0.07"></path>
                                </g>
                            </g>
                        </g>
                        <g id="baby" transform="translate(55.000000, 248.000000)">
                            <g id="dolphin_toy">
                                <path d="M41.8,45 C39.9,44.7 37.4,44.2 35.3,43.7 C31.9,52.1 24.5,57.7 19.4,60.7 C19.9,64.1 20.9,66.5 21.9,68.2 C23.3,70.8 25,72.6 24.3,73.9 C24,74.5 23.2,74.8 22.3,74.9 C21.4,75 20.4,74.9 19.5,74.6 C16.6,73.7 14.6,70.7 13.7,67.3 C12,70.8 8.7,72.8 5.6,72.5 C2.6,72.2 -0.4,69.6 -0.1,67.8 C0.1,66.2 2.6,66.2 6,63.7 C6,63.7 8.2,62.1 10.8,58.6 C11.7,57.3 12.4,55.8 12.7,54 C13.8,48.9 13,41.8 12.1,32.9 C12.1,32.9 11.6,28.2 11.5,22.2 C11.4,15.4 11.9,7.1 14.3,2.3 C14.5,1.9 14.9,1 15.6,0.6 C15.8,0.5 16,0.4 16.2,0.4 C16.4,0.4 16.6,0.4 16.8,0.5 C18.2,1 19.4,3.5 19.8,4.2 C22.5,9.2 21.1,13 23.6,14.4 C24.5,14.9 24.8,14.5 26.7,15.2 C26.7,15.2 28.8,16 30.7,17.7 C31.7,18.5 33.3,20.7 34.6,23.7 C35.8,26.2 36.7,29.4 36.9,33 C39.3,36.6 44.9,45.5 41.8,45 L41.8,45 Z" id="Shape" fill="#BDD3DE"></path>
                                <path d="M17.4,51.7 C15.8,53 14.2,53.8 12.7,54.1 C13.8,49 13,41.9 12.1,33 C12.1,33 11.6,28.3 11.5,22.3 C17.2,28.2 28.4,42.6 17.4,51.7 L17.4,51.7 Z" id="Shape" fill="#E6E3F4"></path>
                                <path d="M17.2,17.8 C17.1,17.9 17,17.9 16.8,17.9 C16.6,17.9 16.5,17.8 16.4,17.7 C13.6,14.4 14.8,5.4 15.7,0.7 C15.9,0.6 16.1,0.5 16.3,0.5 C16.5,0.5 16.7,0.5 16.9,0.6 C16.1,5 14.8,13.9 17.3,16.9 C17.5,17.3 17.4,17.6 17.2,17.8 L17.2,17.8 Z" id="Shape" fill="#000000"></path>
                                <path d="M21.3,21.2 C21.3,21.8 20.8,22.4 20.1,22.4 C19.5,22.4 18.9,21.9 18.9,21.2 C18.9,20.5 19.4,20 20.1,20 C20.8,20.1 21.3,20.6 21.3,21.2 L21.3,21.2 Z" id="Shape" fill="#000000"></path>
                                <path d="M41.8,45 C39.9,44.7 37.4,44.2 35.3,43.7 C31.9,52.1 24.5,57.7 19.4,60.7 C19.9,64.1 20.9,66.5 21.9,68.2 C23.3,70.8 25,72.6 24.3,73.9 C24,74.5 23.2,74.8 22.3,74.9 C18.3,73.5 17,65.6 17.2,60.7 C17.6,51.7 23.4,47.8 29.8,35.2 C32,30.9 33.6,27 34.7,23.8 C35.9,26.3 36.8,29.5 37,33.1 C39.3,36.6 44.9,45.5 41.8,45 L41.8,45 Z" id="Shape" fill="#19233D" opacity="0.25"></path>
                            </g>
                            <path d="M40.3,56.6 L24.2,63.2 C20.2,60.8 17.3,58.3 15.3,56.6 C12.1,53.7 8.3,50.2 9.1,47.7 C9.1,47.6 9.4,46.7 10,46.6 C10.9,46.5 11.6,48.3 12.9,50.1 C13.7,51.2 15.1,52.7 17.4,54.1 C15.2,51 10.6,44.5 11.4,43.3 C12.3,42.1 13,42.3 13,42.3 L13,42.3 C13.6,42.4 13.9,42.9 14.1,43.1 C15.3,44.7 15.6,45.7 17.1,47.8 C18,49.2 19.2,50.7 20.6,52.3 C20.7,52.4 19.3,50.5 17.8,47.8 C16.4,45.2 13.9,40.8 15.3,39.4 C15.8,38.9 16.6,38.9 17.1,39.1 C17.7,39.3 17.9,39.8 19.4,42.5 C20,43.6 20.1,43.7 20.1,43.8 C20.6,44.7 21.3,45.6 22.1,46.6 C23.1,47.8 24.4,49.1 25.9,50.4 C25.4,48.3 24.9,46.5 24.4,44.8 C24.4,44.8 23.5,42.5 22.7,39.4 C22.4,38.2 22.1,37 22.7,36.4 C23.2,35.9 23.9,36 24,36 C25.2,36.2 25.9,37.7 26.9,40.1 C26.9,40.1 28.2,43 31.5,50.3 C31.9,51.2 32.3,52 32.4,51.9 C32.6,51.8 32.3,50.5 32,49.4 C32.5,48.7 33.1,47.8 33.6,46.9 C34.1,45.9 34.6,45 35,44.2 C36.9,48.4 38.6,52.5 40.3,56.6 L40.3,56.6 Z" id="hand_1_" fill="#CD907F"></path>
                            <g id="body_general_1_" transform="translate(24.000000, 57.000000)">
                                <path d="M141.1,31.2 C141.1,38.4 139.2,46.3 135.8,53.8 C135.3,54.9 134.8,56 134.2,57.1 C134.1,57.2 134.1,57.4 134,57.5 C133.9,57.6 133.9,57.8 133.8,57.9 C133.7,58 133.6,58.2 133.6,58.3 C133.4,58.6 133.3,58.9 133.1,59.2 C132.9,59.6 132.6,60 132.4,60.4 C132.2,60.8 131.9,61.2 131.7,61.5 C131.5,61.7 131.4,62 131.3,62.2 C131.1,62.5 130.9,62.8 130.7,63.1 C130.5,63.4 130.3,63.6 130.1,63.9 C131.5,59.9 135.4,48.5 134,47.2 C133.5,46.7 133,46.7 133,46.7 C132.3,46.7 131.7,47.3 131.2,47.9 C130.5,48.7 126.6,57.2 126.3,57.8 C125.2,60.5 123.5,64.1 121.1,68.9 L1.1,68.9 C2.8,66.8 5.1,64.1 8.1,61.2 C11.2,58.2 13.6,56.6 18.8,52.4 C22.9,49.1 27.5,45.5 32.4,41.8 C32.5,41.7 32.6,41.6 32.7,41.5 C32.5,41.4 32.3,41.2 32.1,41.1 C27,37.5 22.5,33.8 18.7,30 C14.4,25.8 10.8,21.7 8,18 C3.9,12.7 1.4,8.4 0.2,6.3 L16.3,-0.3 C17.1,0.4 17.8,1.2 18.7,1.9 C23.6,6.3 29.7,11.2 37.2,15.8 C38.2,16.4 39.2,17 40.2,17.6 C43.5,19.5 47.1,21.3 50.9,23 C51,23 51,23.1 51.1,23.1 C52.8,23.9 54.6,24.6 56.3,25.2 C62.4,21.3 68.5,17.7 74.6,14.6 C75.1,14.3 75.7,14.1 76.2,13.8 C77.9,12.9 79.7,12.1 81.4,11.3 C82.7,10.7 84,10.1 85.3,9.6 C89.2,8 93.5,6.5 98.3,5.6 C99.8,5.3 101.3,5.1 102.8,4.9 L102.8,4.9 C103.7,4.8 104.7,4.7 105.6,4.7 C108.1,4.6 110.7,4.7 113.4,5 C113.8,5 114.3,5.1 114.7,5.2 C118,5.7 123.4,6.5 128.3,9 C129.4,9.5 130.5,10.1 131.5,10.8 C132.5,11.5 133.4,12.2 134.3,13.1 L134.3,13.1 C134.8,13.6 135.3,14.1 135.7,14.7 C135.7,14.7 135.8,14.8 135.8,14.9 C139.5,18.9 141.1,24.8 141.1,31.2 L141.1,31.2 Z" id="Shape" fill="#E6E3F4"></path>
                                <g id="pattern" transform="translate(9.000000, 9.000000)" fill="#336859">
                                    <path d="M0.6,4.5 C0.4,4.5 0.2,4.4 0.1,4.1 C7.7368667e-14,3.8 0.2,3.6 0.4,3.5 L10.9,0.4 C11.2,0.3 11.4,0.5 11.5,0.7 C11.6,1 11.4,1.2 11.2,1.3 L0.7,4.4 C0.7,4.5 0.7,4.5 0.6,4.5 L0.6,4.5 Z" id="Shape"></path>
                                    <path d="M19.6,20.1 C19.4,20.1 19.2,20 19.1,19.7 L15.9,9.2 C15.8,8.9 16,8.7 16.2,8.6 C16.5,8.5 16.7,8.7 16.8,8.9 L20,19.4 C20.1,19.7 19.9,19.9 19.7,20 C19.7,20.1 19.6,20.1 19.6,20.1 L19.6,20.1 Z" id="Shape"></path>
                                    <path d="M99.2,36.2 C99.1,36.2 98.9,36.1 98.8,36 C98.6,35.8 98.6,35.5 98.8,35.3 L107.1,28.1 C107.3,27.9 107.6,27.9 107.8,28.1 C108,28.3 108,28.6 107.8,28.8 L99.5,36 C99.4,36.1 99.3,36.2 99.2,36.2 L99.2,36.2 Z" id="Shape"></path>
                                    <path d="M116.5,39.7 C116.3,39.7 116.1,39.6 116.1,39.4 C116,39.2 116.1,38.9 116.3,38.7 L126.1,33.8 C126.3,33.7 126.6,33.8 126.8,34 C126.9,34.2 126.8,34.5 126.6,34.7 L116.8,39.6 C116.6,39.6 116.5,39.7 116.5,39.7 L116.5,39.7 Z" id="Shape"></path>
                                    <path d="M76.2,53 C76.1,53 75.9,52.9 75.8,52.8 C75.6,52.6 75.6,52.3 75.8,52.1 L84.1,44.9 C84.3,44.7 84.6,44.7 84.8,44.9 C85,45.1 85,45.4 84.8,45.6 L76.5,52.8 C76.5,53 76.4,53 76.2,53 L76.2,53 Z" id="Shape"></path>
                                    <path d="M15,56.7 L14.9,56.7 C14.6,56.6 14.5,56.4 14.5,56.1 L16.7,45.3 C16.8,45 17,44.9 17.3,44.9 C17.6,45 17.7,45.2 17.7,45.5 L15.5,56.3 C15.4,56.5 15.2,56.7 15,56.7 L15,56.7 Z" id="Shape"></path>
                                    <path d="M46.6,52.8 C46.4,52.8 46.2,52.7 46.1,52.5 C46,52.3 46.1,52 46.3,51.8 L56.2,47.1 C56.4,47 56.7,47.1 56.9,47.3 C57,47.5 56.9,47.8 56.7,48 L46.8,52.7 C46.8,52.8 46.7,52.8 46.6,52.8 L46.6,52.8 Z" id="Shape"></path>
                                    <path d="M99.2,51.5 C99,51.5 98.8,51.3 98.7,51.1 C98.6,50.8 98.8,50.6 99.1,50.5 L109.9,48.4 C110.2,48.3 110.4,48.5 110.5,48.8 C110.6,49.1 110.4,49.3 110.1,49.4 L99.2,51.5 L99.2,51.5 L99.2,51.5 Z" id="Shape"></path>
                                    <path d="M84.2,30 L84.2,30 C83.9,30 83.7,29.8 83.7,29.5 L84.3,18.5 C84.3,18.2 84.5,18 84.8,18 C85.1,18 85.3,18.2 85.3,18.5 L84.7,29.5 C84.7,29.8 84.5,30 84.2,30 L84.2,30 Z" id="Shape"></path>
                                    <path d="M71.7,16.3 L71.7,16.3 C71.4,16.3 71.2,16.1 71.2,15.8 L71.8,4.8 C71.8,4.5 72,4.3 72.3,4.3 C72.6,4.3 72.8,4.5 72.8,4.8 L72.2,15.8 C72.2,16.1 72,16.3 71.7,16.3 L71.7,16.3 Z" id="Shape"></path>
                                    <path d="M105.6,14.8 C105.5,14.8 105.4,14.8 105.3,14.7 L96.5,8.2 C96.3,8 96.2,7.7 96.4,7.5 C96.6,7.3 96.9,7.2 97.1,7.4 L105.9,13.9 C106.1,14.1 106.2,14.4 106,14.6 C105.9,14.7 105.7,14.8 105.6,14.8 L105.6,14.8 Z" id="Shape"></path>
                                    <path d="M128.1,18.7 L127.9,18.7 L117.6,14.8 C117.3,14.7 117.2,14.4 117.3,14.2 C117.4,13.9 117.7,13.8 117.9,13.9 L128.2,17.8 C128.5,17.9 128.6,18.2 128.5,18.4 C128.5,18.5 128.3,18.7 128.1,18.7 L128.1,18.7 Z" id="Shape"></path>
                                </g>
                            </g>
                            <g id="head_general_2_" transform="translate(120.000000, 6.000000)">
                                <path d="M28.5,0.5 C27.2,0.7 26,1 24.9,1.5 C23.7,1.9 22.6,2.4 21.6,3 C13.9,7.4 9.2,16.1 6.6,24.1 C6.6,24.1 0.1,27.7 0.2,30.7 C0.2,31.2 0.4,31.7 0.9,32.2 C1.9,33.1 3.1,33.8 4.3,34.2 C4.3,34.6 4.2,34.9 4.2,35.2 C4,37 3.7,39.4 3.7,42.2 C4.8,42.6 6.4,43 8.3,42.8 C11.6,42.5 13.7,40.7 14.5,41.5 C15,42 14.5,43.3 14.3,43.7 C12.7,47.9 7.1,50 4.8,50.8 C5.7,54 7.3,57.1 10,59.8 C18.6,68.2 31.9,65.5 34.9,64.8 C36,64.6 37.2,64.3 38.4,63.9 C50.5,60.2 64,49.6 64.5,34 C65.1,15 46.8,-2.7 28.5,0.5 L28.5,0.5 Z" id="head_2_" fill="#CD907F"></path>
                                <path d="M64.5,34 C64,49.6 50.5,60.1 38.4,63.9 C41.5,57.4 44.5,48.1 44.5,37 C44.5,27.7 44.5,18.7 38.5,13.6 C33.8,9.6 28.1,10.1 25.7,5.1 C25.1,3.9 24.9,2.7 24.9,1.5 C26.1,1.1 27.3,0.8 28.5,0.5 C46.8,-2.7 65.1,15 64.5,34 L64.5,34 Z" id="hair_2_" fill="#000000"></path>
                                <circle id="ear_1_" fill="#CD907F" cx="46.5" cy="40.5" r="8.5"></circle>
                                <circle id="eye" fill="#000000" cx="14" cy="24" r="2"></circle>
                                <ellipse id="brow" fill="#000000" transform="translate(20.773400, 16.339500) rotate(-43.756133) translate(-20.773400, -16.339500) " cx="20.7734" cy="16.3395" rx="1.00001392" ry="5.00006962"></ellipse>
                            </g>
                        </g>
                        <g id="call_button" transform="translate(110.000000, 311.000000)">
                            <circle id="Oval" fill="#640042" cx="27" cy="27" r="27"></circle>
                            <path d="M45.9,31.8 C45.8,28.7 43.4,26.4 41.8,25.1 C39.6,23.1 33.5,19.8 26.6,19.8 C23,19.8 19.5,20.7 16.8,21.8 L16.8,21.8 L16.8,21.8 C15.8,22.2 14.8,22.7 14,23.2 L14,23.2 C14,23.2 8.1,25.8 7.5,30.6 C7.4,31.3 7.5,31.9 7.8,32.2 C9.1,34 14.1,33 14.8,31.1 C15,30.6 14.8,30.1 14.7,29.9 C14.4,29 14.4,27.8 14.8,26.1 C17.5,25.6 21.5,25.1 26.6,25.1 C31.9,25.1 36,25.8 38.7,26.2 C39.2,28.2 39,29.6 38.7,30.5 C38.6,30.8 38.4,31.2 38.5,31.7 C39,33.7 44,35 45.4,33.3 C45.8,33.1 46,32.6 45.9,31.8 L45.9,31.8 Z" id="Shape" fill="#FFFFFF"></path>
                        </g>
                        <polygon id="Rectangle-path" fill="#FFFFFF" opacity="0.1" points="0 0 0 373.7 294.4 373.7 294.4 0"></polygon>
                    </g>
                </g>
            </g>
        </g>
    </g>
</svg>