<?xml version="1.0" encoding="UTF-8"?>
<svg width="1146px" height="1157px" viewBox="0 0 1146 1157" version="1.1" xmlns="http://www.w3.org/2000/svg" xmlns:xlink="http://www.w3.org/1999/xlink">
    <!-- Generator: Sketch 61.2 (89653) - https://sketch.com -->
    <title>delivery</title>
    <desc>Created with Sketch.</desc>
    <defs>
        <linearGradient x1="96.2413021%" y1="53.8231215%" x2="3.74408356%" y2="46.3046614%" id="linearGradient-1">
            <stop stop-color="#EBDEDE" offset="0%"></stop>
            <stop stop-color="#F0E2E2" offset="100%"></stop>
        </linearGradient>
        <linearGradient x1="89.1148463%" y1="61.1794932%" x2="10.9334702%" y2="39.342934%" id="linearGradient-2">
            <stop stop-color="#EBDEDE" offset="0%"></stop>
            <stop stop-color="#F0E2E2" offset="100%"></stop>
        </linearGradient>
        <linearGradient x1="3.48737428%" y1="29.5524167%" x2="96.8072076%" y2="69.8835834%" id="linearGradient-3">
            <stop stop-color="#F4DBA9" offset="0%"></stop>
            <stop stop-color="#F0E2E2" offset="99.8%"></stop>
        </linearGradient>
        <linearGradient x1="4.24076723%" y1="30.5086877%" x2="96.6226362%" y2="70.4344829%" id="linearGradient-4">
            <stop stop-color="#F4DBA9" offset="0%"></stop>
            <stop stop-color="#F0E2E2" offset="99.8%"></stop>
        </linearGradient>
        <linearGradient x1="0.00403752682%" y1="50.0236504%" x2="99.9945838%" y2="50.0236504%" id="linearGradient-5">
            <stop stop-color="#EBDEDE" offset="0%"></stop>
            <stop stop-color="#F0E2E2" offset="100%"></stop>
        </linearGradient>
        <linearGradient x1="-0.130421687%" y1="50.0206463%" x2="99.853012%" y2="50.0206463%" id="linearGradient-6">
            <stop stop-color="#640042" offset="0.6454763%"></stop>
            <stop stop-color="#002544" offset="100%"></stop>
        </linearGradient>
        <linearGradient x1="0.0811550152%" y1="50.007465%" x2="100.052584%" y2="50.007465%" id="linearGradient-7">
            <stop stop-color="#640042" offset="0.6454763%"></stop>
            <stop stop-color="#002544" offset="100%"></stop>
        </linearGradient>
        <linearGradient x1="-0.0450787402%" y1="50.0229687%" x2="100.021555%" y2="50.0229687%" id="linearGradient-8">
            <stop stop-color="#640042" offset="0.6454763%"></stop>
            <stop stop-color="#002544" offset="100%"></stop>
        </linearGradient>
        <linearGradient x1="-0.0265318627%" y1="50.0091322%" x2="100.00288%" y2="50.0091322%" id="linearGradient-9">
            <stop stop-color="#365588" stop-opacity="0.3" offset="0%"></stop>
            <stop stop-color="#E4C9C2" stop-opacity="0.7" offset="100%"></stop>
        </linearGradient>
        <linearGradient x1="0.00738552437%" y1="50.0091322%" x2="100.011029%" y2="50.0091322%" id="linearGradient-10">
            <stop stop-color="#FC860A" stop-opacity="0.2" offset="0%"></stop>
            <stop stop-color="#E4C9C2" stop-opacity="0.2" offset="100%"></stop>
        </linearGradient>
        <linearGradient x1="0.0105568132%" y1="50.0182453%" x2="99.9378319%" y2="50.0182453%" id="linearGradient-11">
            <stop stop-color="#002544" offset="0%"></stop>
            <stop stop-color="#640042" offset="99.35%"></stop>
        </linearGradient>
        <linearGradient x1="22.4986513%" y1="46.0065971%" x2="78.6210658%" y2="55.9915697%" id="linearGradient-12">
            <stop stop-color="#EFDDCB" offset="0%"></stop>
            <stop stop-color="#F1BDAF" offset="33.1%"></stop>
            <stop stop-color="#F2A89C" offset="62.78%"></stop>
            <stop stop-color="#F2A095" offset="82.09%"></stop>
        </linearGradient>
        <linearGradient x1="-0.00708181965%" y1="49.9820622%" x2="100.017284%" y2="49.9820622%" id="linearGradient-13">
            <stop stop-color="#002544" offset="0%"></stop>
            <stop stop-color="#042444" stop-opacity="0.5" offset="61.97%"></stop>
            <stop stop-color="#640042" stop-opacity="0.2" offset="100%"></stop>
        </linearGradient>
        <linearGradient x1="-0.0553141562%" y1="50.0282715%" x2="99.9981237%" y2="50.0282715%" id="linearGradient-14">
            <stop stop-color="#002544" offset="0%"></stop>
            <stop stop-color="#271C41" offset="91.74%"></stop>
        </linearGradient>
        <linearGradient x1="-0.0491000517%" y1="50.0282715%" x2="100.004338%" y2="50.0282715%" id="linearGradient-15">
            <stop stop-color="#002544" offset="0%"></stop>
            <stop stop-color="#271C41" offset="91.74%"></stop>
        </linearGradient>
        <linearGradient x1="0.261881188%" y1="50.0178571%" x2="100.070297%" y2="50.0178571%" id="linearGradient-16">
            <stop stop-color="#D3E0DF" offset="0%"></stop>
            <stop stop-color="#F1F0E2" offset="66.44%"></stop>
        </linearGradient>
        <linearGradient x1="0.0453436539%" y1="49.9992604%" x2="100.009014%" y2="49.9992604%" id="linearGradient-17">
            <stop stop-color="#640042" offset="0.6454763%"></stop>
            <stop stop-color="#002544" offset="100%"></stop>
        </linearGradient>
        <linearGradient x1="-0.0032900022%" y1="50.002499%" x2="100.046526%" y2="50.002499%" id="linearGradient-18">
            <stop stop-color="#FFFFFF" stop-opacity="0.5" offset="0%"></stop>
            <stop stop-color="#F07125" offset="83.62%"></stop>
        </linearGradient>
        <linearGradient x1="0.24118896%" y1="50.2995283%" x2="100.009979%" y2="50.2995283%" id="linearGradient-19">
            <stop stop-color="#E4C9C2" offset="0.1127746%"></stop>
            <stop stop-color="#FDB2A4" offset="76.93%"></stop>
        </linearGradient>
        <linearGradient x1="0.0200451425%" y1="49.9601895%" x2="100.014125%" y2="49.9601895%" id="linearGradient-20">
            <stop stop-color="#002544" offset="0%"></stop>
            <stop stop-color="#042444" stop-opacity="0.5" offset="61.97%"></stop>
            <stop stop-color="#640042" stop-opacity="0.2" offset="100%"></stop>
        </linearGradient>
        <linearGradient x1="0.00283180403%" y1="50.0320708%" x2="99.9403443%" y2="50.0320708%" id="linearGradient-21">
            <stop stop-color="#FFFFFF" stop-opacity="0.5" offset="0%"></stop>
            <stop stop-color="#F07125" offset="83.62%"></stop>
        </linearGradient>
        <linearGradient x1="15.4111532%" y1="45.7803923%" x2="81.7695751%" y2="56.3826616%" id="linearGradient-22">
            <stop stop-color="#EFDDCB" offset="0%"></stop>
            <stop stop-color="#F1BDAF" offset="33.1%"></stop>
            <stop stop-color="#F2A89C" offset="62.78%"></stop>
            <stop stop-color="#F2A095" offset="82.09%"></stop>
        </linearGradient>
        <linearGradient x1="-0.303381411%" y1="48.5756301%" x2="99.9452131%" y2="55.3033391%" id="linearGradient-23">
            <stop stop-color="#FFFFFF" stop-opacity="0.5" offset="0%"></stop>
            <stop stop-color="#F07125" offset="83.62%"></stop>
        </linearGradient>
    </defs>
    <g id="Page-1" stroke="none" stroke-width="1" fill="none" fill-rule="evenodd">
        <g id="delivery" transform="translate(0.000000, 1.000000)">
            <g id="background">
                <g id="general">
                    <g id="squares" transform="translate(345.000000, 31.000000)">
                        <polygon id="Shape" fill="url(#linearGradient-1)" points="688.4 1022.4 747.1 1027.2 742.3 1085.8 683.7 1081.1"></polygon>
                        <polygon id="Shape" fill="url(#linearGradient-2)" points="11.2 0.1 50.3 11 39.4 50.1 0.3 39.2"></polygon>
                    </g>
                    <g id="circles" transform="translate(9.000000, 519.000000)">
                        <circle id="Oval" fill="url(#linearGradient-3)" cx="18.5" cy="327.5" r="18.5"></circle>
                        <circle id="Oval" fill="url(#linearGradient-4)" cx="972" cy="26" r="26"></circle>
                    </g>
                    <g id="figure3" transform="translate(522.000000, 555.000000)">
                        <path d="M587.1,327.4 C497.1,522.9 226.6,633.4 83.3,558.3 C45.3,538.4 -4.8,494.6 0.6,454 C4.4,425.6 33,419.7 103.5,368.3 C166.5,322.4 216.9,284.8 247.8,223 C258.8,201.1 264.9,179.1 277.2,135 C302.6,44.1 295.6,16.5 317.8,4 C347.7,-12.9 374.6,29.3 456.7,41.6 C529.8,52.6 552.3,25.7 581.5,42.8 C637,75.4 636.5,220.1 587.1,327.4 L587.1,327.4 Z" id="Shape" fill="#EEEDEE"></path>
                        <path d="M132.8,537.8 C132.8,550.9 129,563.1 122.4,573.4 C108.6,569.6 95.5,564.6 83.3,558.2 C59.1,545.5 30,523.1 13.4,498 C25.5,481.9 44.8,471.4 66.5,471.4 C103.2,471.6 132.8,501.2 132.8,537.8 L132.8,537.8 Z" id="Shape" fill="#BDD3DE" opacity="0.42"></path>
                        <path d="M593.6,312.4 C591.5,317.5 589.4,322.5 587.1,327.4 C557.4,391.8 508.2,447 450.3,489.4 C433.7,468.4 423.6,440.9 423.6,410.7 C423.6,344.6 472.1,291.1 531.9,291.1 C554.8,291.1 576.1,298.9 593.6,312.4 L593.6,312.4 Z" id="Shape" fill="#BDD3DE" opacity="0.42"></path>
                        <path d="M501.9,85.6 C499.7,166.2 432.6,229.8 352,227.6 C317,226.7 285.2,213.4 260.5,192.2 C265.5,177.5 270.4,159.8 277.3,135.1 C302.7,44.2 295.7,16.6 317.9,4.1 C347.8,-12.8 374.7,29.4 456.7,41.8 C472.3,44.1 485.6,44.8 497.1,44.5 C500.6,57.5 502.2,71.3 501.9,85.6 L501.9,85.6 Z" id="Shape" fill="#BDD3DE" opacity="0.42"></path>
                        <path d="M593.6,312.4 C591.5,317.5 589.4,322.5 587.1,327.4 C557.4,391.8 508.2,447 450.3,489.4 C347.5,564.6 217.7,599.4 122.5,573.5 C108.7,569.7 95.6,564.7 83.4,558.3 C59.2,545.6 30.1,523.2 13.5,498.1 C4.1,483.8 -1.3,468.7 0.7,454 C4.5,425.6 33.1,419.7 103.6,368.3 C166.6,322.4 217,284.8 247.9,223 C252.7,213.3 256.6,203.7 260.5,192.1 C265.5,177.4 270.4,159.7 277.3,135 C302.7,44.1 295.7,16.5 317.9,4 C347.8,-12.9 374.7,29.3 456.7,41.7 C472.3,44 485.6,44.7 497.1,44.4 C539.7,43.3 558.6,29.4 581.5,42.9 C634.4,74 636.4,207.1 593.6,312.4 L593.6,312.4 Z" id="Shape"></path>
                    </g>
                    <path d="M694.1,750 C577.8,894.1 454.4,871.8 412.5,983.5 C391.1,1040.8 418.9,1063.9 390.8,1100.6 C326.5,1184.7 97.4,1171.9 45,1066.3 C18.9,1013.8 43.4,951.9 70.8,882.6 C108.4,787.5 163.8,727.8 200.5,689 C200.5,689 333.5,548.5 520.6,488.5 C527.4,486.3 560.7,475.8 606.1,470.2 C672.5,461.9 725.3,455.3 753.5,484.6 C784.2,516.5 770.6,575.2 761.7,614 C745.8,682.3 710.9,729.2 694.1,750 L694.1,750 Z" id="figure2" fill="url(#linearGradient-5)"></path>
                    <g id="figure1">
                        <path d="M1119.8,203.5 C1120.6,207.5 1121.8,214.1 1123.1,222.6 C1128.6,258.2 1140.3,412 1081.6,468.4 C1025.7,522.2 940.5,454 742.8,441.2 C666.1,436.2 516.1,426.5 377.2,490.8 C171.2,586 123.1,782.2 55.5,760.6 C-0.3,742.8 -0.8,598.5 0.5,474.8 C2.5,287 4.1,133.6 88.6,91.2 C193.2,38.7 335.9,201.7 430.4,136.3 C484.4,98.9 459.7,32.1 510.5,8.1 C601.5,-35 739.6,151.8 823.9,106.5 C866.3,83.8 848.8,27.2 896.6,5.7 C951.1,-18.8 1034.3,35.5 1076.9,94 C1082.9,102.2 1107.2,136.8 1119.8,203.5 L1119.8,203.5 Z" id="Shape" fill="#EEEDEE"></path>
                        <path d="M1127.6,279.1 C1109.4,313.6 1089.6,347.2 1068.2,379.9 C1047.7,411.2 1026.3,442.1 1002.3,470.9 C998.4,475.5 994.5,480.2 990.4,484.8 C996.5,485.9 1002.4,486.8 1008,487.5 C1012.6,482.1 1017.1,476.5 1021.4,471 C1045.8,440.3 1068.1,407.9 1089.2,374.9 C1102.7,353.8 1115.5,332.2 1127.7,310.3 C1127.9,299.5 1127.9,288.9 1127.6,279.1 L1127.6,279.1 Z M1061.8,151.9 C1069.7,137.6 1078.1,123.5 1087.1,109.8 C1083.5,103.5 1080.4,98.9 1078.4,96 C1066.8,112.9 1056.3,130.6 1046.5,148.6 C1008.3,219.1 982.2,296.5 970.9,375.9 C966.1,409.8 961.5,445.2 964.5,479.5 C969.8,480.7 974.9,481.8 979.8,482.8 C979.6,480.7 979.4,478.6 979.3,476.6 C976.6,438.9 981.8,399.6 988.1,362.5 C1000.7,288.8 1025.7,217.4 1061.8,151.9 L1061.8,151.9 Z M976.2,177 C989.4,138.1 1002,98.5 1010.7,58.3 C1012.4,50.3 1014.1,42.1 1015.5,33.9 C1010.9,30.7 1006.3,27.6 1001.6,24.7 C998.2,47.9 992.7,70.9 986.4,93.5 C976.1,130.3 964.4,166.7 951.3,202.6 C925.7,273 894.2,341.5 854.3,405 C849.7,412.3 844.9,419.6 840,426.8 C837.2,409.8 835.4,392.6 834.1,375.4 C831.1,337 831.2,298.4 832.8,259.9 C834.4,220.6 836.7,181.2 841,142.1 C843.6,119 847,95.9 851.8,73.2 C847.3,84.1 841.4,94.1 831.3,101.8 C828.2,121.1 826,140.6 824.1,160 C816.3,241.9 812.1,326 822.2,407.8 C823.7,420 825.5,432.1 827.9,444.1 C826.5,446 825.2,447.9 823.8,449.8 C825.6,450.1 827.5,450.4 829.3,450.7 C833,451.3 836.7,451.9 840.3,452.5 C841.9,452.8 843.5,453.1 845.2,453.3 C844.8,451.4 844.3,449.4 843.9,447.5 C855.3,431.4 866.1,414.8 876.3,397.9 C918,328.6 950.1,253.6 976.2,177 L976.2,177 Z M698,209.6 C684.4,285.4 666.8,360.6 643.6,434.1 C643.2,435.2 642.9,436.4 642.5,437.5 L658.2,437.5 C659.9,432.2 661.5,426.8 663.2,421.5 C687,342.7 704.8,262.1 718.1,180.9 C722.8,152 727,122.9 729.3,93.6 C724.6,91.2 719.9,88.6 715.2,85.9 C712.6,127.6 705.2,169.4 698,209.6 L698,209.6 Z M600.8,18.2 C596.2,16 591.7,14 587.2,12.2 C586.4,14.1 585.6,16 584.8,18 C575.8,39.8 568.9,62.5 563.4,85.5 C560.8,72.1 557.1,59 551.9,46.5 C545.3,30.3 535.7,14.9 522.7,3.8 C518.5,4.8 514.5,6.3 510.5,8.2 C509.1,8.9 507.8,9.5 506.6,10.2 C529.3,24.5 540.1,52.8 546.2,77.8 C550.6,95.8 552.9,114.2 553.9,132.8 C547.1,172.4 543.3,212.5 542.4,252.6 C542.1,268 542.2,283.5 542.7,298.9 C536.4,338.7 527.6,378 515.8,416.1 C512.2,427.7 508.3,439.3 503.9,450.7 C509.7,449.6 515.4,448.5 521.1,447.6 C526.6,432.2 531.5,416.6 535.8,401.1 C539.9,386.3 543.5,371.3 546.8,356.2 C547.5,363 548.4,369.9 549.3,376.7 C552.2,398.7 556.1,420.6 561.5,442.1 C566.6,441.6 571.6,441.1 576.6,440.6 C564.4,394.3 558.7,345.9 557.4,297.7 C558.2,292.6 558.9,287.5 559.6,282.4 C565.3,241.3 569.3,200 569.3,158.5 C569.3,150.3 569.2,142 568.8,133.6 C569.6,128.7 570.6,123.8 571.5,119 C578.2,84.7 586.8,50.3 600.8,18.2 L600.8,18.2 Z M356.3,350.8 C353.2,312.5 352.8,274 354.8,235.6 C356.3,207.3 359.1,179.1 364.6,151.3 C359.7,150.8 354.8,150 349.8,149 C343.4,181.7 340.6,215.1 339.3,248.3 C337.7,290.1 339,331.9 343.5,373.5 C347.9,414.3 355.1,454.9 365.4,494.6 C365.5,495.1 365.6,495.6 365.8,496.1 C369.6,494.2 373.5,492.4 377.4,490.6 C378.1,490.3 378.9,489.9 379.6,489.6 C377.7,482 375.9,474.4 374.1,466.8 C365.3,428.7 359.4,389.9 356.3,350.8 L356.3,350.8 Z M272.7,275.3 C260.1,216.5 243.9,157.5 221.7,101.2 C215.3,98.7 208.9,96.3 202.6,94.1 C228.9,157.5 247.3,224.8 260.9,291.8 C276.5,368.3 284.4,446 285.2,524 C285.3,531.4 285.3,538.8 285.3,546.2 C290.2,542.5 295.2,538.8 300.3,535.2 C300.3,530.6 300.3,526 300.2,521.4 C299.2,438.8 290.1,356.2 272.7,275.3 L272.7,275.3 Z M126.9,416.5 C97.4,346.2 77.4,271.8 63.1,197 C58.4,172.2 54.4,147.2 52.2,122.1 C47.5,128.4 43.2,135.3 39.3,142.8 C41.8,163.2 45.2,183.4 49.1,203.5 C64.5,283.8 86.8,363.4 120,438.3 C136.2,474.8 155.2,510.1 177.1,543.5 C190.6,564 205.5,584.2 222.6,602.1 C226.1,598.5 229.6,594.9 233.2,591.4 C211.6,568.8 193.7,542.7 177.4,516.1 C158.2,484.2 141.4,450.9 126.9,416.5 L126.9,416.5 Z M21.6,311.7 C16.8,304.2 11.7,297 6.4,289.9 C5.8,297.5 5.2,305.3 4.7,313.3 C11,322.6 16.8,332.3 22.3,342.1 C58.3,407.1 78.8,481.2 94.5,553.5 C105.6,604.7 112.4,657.8 109.3,710.3 C66.6,659.8 30,604 0.4,544.7 C0.5,556 0.7,567.3 1,578.3 C30.7,632.9 66.4,684.5 107.4,731.1 C107.1,734.1 106.7,737.1 106.3,740 C107.9,738.5 109.4,736.8 111,735.1 C114.3,731.6 117.6,727.9 121.1,723.9 C121.9,723 122.6,722.1 123.4,721.2 C128.6,658.8 119.7,595.5 105.6,534.7 C87.8,457.9 64.7,378.5 21.6,311.7 L21.6,311.7 Z" id="Shape" fill="#BDD3DE" opacity="0.42"></path>
                        <path d="M1127.7,310.4 C1126.4,367.4 1116.3,435 1081.6,468.4 C1061.9,487.4 1038.6,491.2 1007.9,487.6 C1002.3,487 996.4,486 990.3,484.9 C986.9,484.3 983.3,483.6 979.7,482.9 C974.8,481.9 969.7,480.8 964.4,479.6 C932,472.3 893,461.9 845,453.5 C843.4,453.2 841.8,452.9 840.1,452.7 C836.5,452.1 832.8,451.5 829.1,450.9 C827.3,450.6 825.5,450.3 823.6,450 C798.9,446.2 772.1,443.1 742.7,441.2 C720.1,439.7 691.2,437.9 658.1,437.6 L642.4,437.6 C621.7,437.8 599.5,438.6 576.5,440.6 C571.5,441 566.5,441.5 561.4,442.1 C548.2,443.5 534.7,445.3 521.1,447.6 C515.4,448.5 509.6,449.6 503.9,450.7 C462.9,458.6 420.7,471 379.4,489.8 C378.7,490.1 377.9,490.5 377.2,490.8 C373.3,492.6 369.4,494.5 365.6,496.3 C341.7,508.1 320,521.3 300.2,535.3 C295.1,538.9 290.1,542.6 285.2,546.3 C266.1,560.8 248.9,576.1 233.3,591.5 C229.7,595.1 226.1,598.6 222.7,602.2 C179.8,646.4 149.1,690.6 123.3,721.3 C122.5,722.2 121.8,723.1 121,724 C117.6,728 114.2,731.8 110.9,735.2 C109.3,736.9 107.7,738.5 106.2,740.1 C88.6,757.6 72.7,766.2 55.5,760.7 C15,747.7 3.7,668.2 1,578.3 C0.7,567.2 0.5,556 0.4,544.7 C0.2,521.3 0.4,497.8 0.6,474.9 C1.2,417 1.8,362.4 4.8,313.4 C5.3,305.5 5.8,297.7 6.5,290 C11.3,229.9 20.7,179.4 39.6,142.9 C43.5,135.4 47.8,128.5 52.5,122.2 C62.5,108.9 74.5,98.5 88.8,91.3 C123.6,73.8 162.7,80.2 202.8,94.2 C209.2,96.4 215.5,98.8 221.9,101.3 C265.3,118.4 309.3,141.2 349.9,149.2 C354.9,150.2 359.8,151 364.7,151.5 C388.2,153.9 410.5,150.3 430.5,136.5 C482.9,100 461,35.8 506.5,10.2 C507.8,9.5 509.1,8.8 510.4,8.2 C514.4,6.3 518.4,4.9 522.6,3.8 C542.5,-1.2 564.3,3 587.1,12.2 C591.6,14 596.1,16 600.7,18.2 C638.2,36 677.7,64.7 715.1,86 C719.8,88.7 724.5,91.2 729.2,93.7 C764.1,111.8 796.8,121.2 823.9,106.7 C826.6,105.3 829,103.7 831.2,102 C841.3,94.3 847.2,84.3 851.7,73.4 C862,48.7 865.5,19.9 896.6,5.8 C926.7,-7.7 965.6,2.8 1001.6,24.8 C1006.3,27.7 1010.9,30.7 1015.5,34 C1039.3,50.8 1061,72.2 1077,94.1 C1077.4,94.6 1077.9,95.3 1078.4,96.1 C1080.5,99 1083.5,103.6 1087.1,109.9 C1097,127.3 1111.2,157.9 1119.8,203.6 C1120.6,207.6 1121.8,214.2 1123.1,222.7 C1124.7,233.2 1126.9,253.8 1127.6,279.2 C1127.9,288.9 1127.9,299.5 1127.7,310.4 L1127.7,310.4 Z" id="Shape"></path>
                    </g>
                </g>
            </g>
            <g id="main" transform="translate(325.000000, 267.000000)">
                <g id="general_1_">
                    <g id="boxes" transform="translate(0.000000, 361.000000)">
                        <g id="box2" transform="translate(205.000000, 0.000000)">
                            <g id="Group">
                                <polygon id="Shape" fill="#336859" points="114.2 -0.3 114.2 27.7 108.4 27.7 108.4 192.6 5.7 192.6 5.7 27.7 -0.1 27.7 -0.1 -0.3"></polygon>
                                <circle id="Oval" fill="#E4C9C2" cx="27" cy="56" r="12"></circle>
                                <path d="M88.7,-0.3 C88.7,6.3 83.4,11.7 76.7,11.7 C70.1,11.7 64.7,6.3 64.7,-0.3 L88.7,-0.3 L88.7,-0.3 Z" id="Shape" fill="#E4C9C2"></path>
                                <path d="M108.4,58.5 L108.4,76.8 C106.3,78.6 103.6,79.7 100.6,79.7 C94,79.7 88.6,74.3 88.6,67.7 C88.6,61.1 94,55.7 100.6,55.7 C103.6,55.6 106.3,56.7 108.4,58.5 L108.4,58.5 Z" id="Shape" fill="#E4C9C2"></path>
                                <path d="M14.4,174.7 C14.4,180.2 10.7,184.8 5.7,186.2 L5.7,163.1 C10.7,164.6 14.4,169.2 14.4,174.7 L14.4,174.7 Z" id="Shape" fill="#E4C9C2"></path>
                                <circle id="Oval" fill="#E4C9C2" cx="52" cy="119" r="12"></circle>
                                <path d="M10.1,-0.3 C8,3.1 4.2,5.3 0,5.3 L0,-0.3 L10.1,-0.3 L10.1,-0.3 Z" id="Shape" fill="#E4C9C2"></path>
                                <path d="M108.4,123.8 L108.4,137.7 C107,135.7 106.2,133.3 106.2,130.7 C106.2,128.2 107,125.8 108.4,123.8 L108.4,123.8 Z" id="Shape" fill="#E4C9C2"></path>
                                <path d="M87.8,186.7 C87.8,188.8 87.2,190.9 86.2,192.6 L65.4,192.6 C64.4,190.9 63.8,188.8 63.8,186.7 C63.8,180.1 69.2,174.7 75.8,174.7 C82.4,174.7 87.8,180.1 87.8,186.7 L87.8,186.7 Z" id="Shape" fill="#E4C9C2"></path>
                                <polygon id="Shape" points="114.2 -0.3 114.2 27.7 108.4 27.7 108.4 192.6 5.7 192.6 5.7 27.7 -0.1 27.7 -0.1 -0.3"></polygon>
                            </g>
                            <polygon id="Shape" fill="#FFFFFF" points="90.7 84.8 63.5 123.6 57.5 119.7 23.2 97.8 50 60.7 62.2 67.9"></polygon>
                            <polygon id="Shape" fill="#271C41" points="108.4 90.4 108.4 93.7 58.7 93.7 58.7 192.6 55.4 192.6 55.4 93.7 5.7 93.7 5.7 90.4 55.4 90.4 55.4 -0.3 58.7 -0.3 58.7 90.4"></polygon>
                            <polygon id="Shape" fill="url(#linearGradient-6)" opacity="0.12" points="90.7 84.8 63.5 123.6 57.5 119.7 62.2 67.9"></polygon>
                            <polygon id="Shape" fill="url(#linearGradient-7)" opacity="0.12" points="114.2 -0.3 114.2 27.7 108.4 27.7 108.4 192.6 81.3 192.6 89.1 93.7 89.4 90.4 89.7 86.2 89.8 84.3 96.5 -0.3"></polygon>
                        </g>
                        <g id="box1" transform="translate(0.000000, 129.000000)">
                            <g id="Group">
                                <rect id="Rectangle-path" fill="#271C41" x="0" y="0" width="211" height="64"></rect>
                                <polygon id="Shape" fill="#E4C9C2" points="210.7 12.3 210.7 15.6 106.9 15.6 106.9 63.6 103.6 63.6 103.6 15.6 -0.2 15.6 -0.2 12.3 103.6 12.3 103.6 -0.4 106.9 -0.4 106.9 12.3"></polygon>
                            </g>
                            <path d="M210.7,-0.4 L210.7,63.6 L109.1,63.6 C113.2,48.1 117.9,30.7 121.9,15.6 C122.2,14.5 122.5,13.4 122.8,12.3 C124,7.8 125.1,3.5 126.2,-0.4 L210.7,-0.4 L210.7,-0.4 Z" id="Shape" fill="url(#linearGradient-8)" opacity="0.09"></path>
                        </g>
                        <g id="box3" transform="translate(25.000000, 193.000000)">
                            <polygon id="Rectangle-path" fill="#E4C9C2" points="0 0 0 263.9 311.7 263.9 311.7 0"></polygon>
                            <polygon id="Shape" fill="url(#linearGradient-9)" opacity="0.15" points="311.7 -0.4 311.7 263.5 148.5 263.5 191.4 162.7 192.8 159.6 231.2 69.4 234 62.8 260.9 -0.4"></polygon>
                            <polygon id="Shape" fill="url(#linearGradient-10)" points="203.1 263.5 0 263.5 0 -0.4 148.6 -0.4 172.3 114.6 173.1 118.2 179.3 148.1 180.3 153.3"></polygon>
                            <polygon id="Shape" fill="#271C41" opacity="0.4" points="173.1 118.2 158.4 130.5 179.3 148.1 192.8 159.6 311.7 260.3 311.7 263.5 310.4 263.5 191.4 162.7 180.3 153.3 155.9 132.6 0 263.5 0 259.3 153.4 130.5 0 0.5 0 -0.4 4 -0.4 155.9 128.4 172.3 114.6 234 62.8 309.2 -0.4 311.7 -0.4 311.7 1.8 231.2 69.4"></polygon>
                        </g>
                    </g>
                    <g id="woman" transform="translate(262.000000, 0.000000)">
                        <g id="socks" transform="translate(0.000000, 788.000000)">
                            <g id="Group">
                                <g fill="#336859" id="Shape">
                                    <path d="M98.9,17.6 C98.8,18.7 98.7,19.8 98.6,21 L98.6,21 C97.3,35.4 96,49.8 94.7,64.2 C94.5,66.2 92.9,67.8 90.9,68 C90.5,68.1 90.2,68.1 89.8,68.2 C89.6,68.2 89.4,68.2 89.2,68.3 C88.9,68.3 88.6,68.4 88.3,68.4 C88.1,68.4 87.8,68.5 87.5,68.5 C87.1,68.5 86.8,68.6 86.4,68.6 C85.6,68.7 84.6,68.8 83.7,68.9 C83.4,68.9 83,69 82.7,69 C82.2,69.1 81.8,69.1 81.3,69.2 C81,69.2 80.6,69.3 80.3,69.3 C79.6,69.4 78.9,69.5 78.3,69.6 L78.2,69.6 C77.8,69.6 77.5,69.7 77.1,69.7 C76.2,69.8 75.3,69.9 74.3,70.1 C74,70.1 73.6,70.2 73.3,70.2 C73,70.2 72.7,70.3 72.4,70.3 C71.8,70.4 71.2,70.4 70.6,70.5 C70.2,70.5 69.9,70.6 69.5,70.6 L69.5,70.6 C68.5,70.7 67.5,70.9 66.5,71 C66,71.1 65.4,71.1 64.9,71.2 L64.9,71.2 C64.4,71.3 63.8,71.3 63.2,71.4 C61.9,71.6 60.5,71.8 59,71.9 L59,71.9 C58,72 56.9,72.2 55.9,72.3 L55.9,72.3 C54.9,72.4 53.8,72.6 52.7,72.7 L52.7,72.7 C52,72.8 51.3,72.9 50.6,73 C48.8,73.2 46.9,73.4 45.1,73.7 C44.4,73.8 43.6,73.9 42.9,73.9 L42.9,73.9 C41.8,74 40.7,74.1 39.6,74.3 C38.1,74.5 36.6,74.6 35.2,74.8 C34.8,74.8 34.5,74.9 34.1,74.9 C33.4,75 32.7,75 31.9,75.1 C31.5,75.1 31.2,75.2 30.8,75.2 C30.8,75.2 30.8,75.2 30.7,75.2 C14.8,76.5 1.3,76.6 0.2,72.9 C-0.8,69.5 8.8,64 12.2,62.1 C12.5,61.9 12.7,61.8 12.9,61.7 C14.4,60.9 15.8,60.2 17.2,59.6 C27.2,55.2 35.4,55.2 42.5,54.2 C43.6,54 44.7,53.9 45.7,53.7 C47.6,53.3 49.5,52.8 51.2,51.9 C51.6,51.7 51.9,51.5 52.3,51.3 C52.5,51.2 52.8,51 53,50.9 C53.5,50.6 53.9,50.3 54.4,50 C54.6,49.9 54.8,49.7 54.9,49.6 C55.2,49.3 55.6,49 55.9,48.7 C56.2,48.4 56.6,48.1 56.9,47.7 L56.9,47.7 C61.3,43.2 63.2,37.3 65,31.5 C65.1,31 65.3,30.6 65.4,30.1 C65.7,29.2 65.9,28.3 66.1,27.4 C66.2,26.9 66.3,26.5 66.4,26 C66.4,25.9 66.5,25.7 66.5,25.6 C66.5,25.5 66.6,25.3 66.6,25.2 C66.7,24.9 66.7,24.7 66.8,24.4 C66.9,24.1 66.9,23.9 67,23.6 C67.1,22.8 67.3,22.1 67.3,21.4 C67.4,20.5 67.5,19.6 67.6,18.7 C67.7,18.1 67.7,17.5 67.7,16.9 L67.7,16.3 L67.7,15.6 C67.7,14.5 67.8,13.5 67.8,12.5 C69.8,13.1 71.8,13.7 74,14.2 C75.1,14.5 76.2,14.7 77.4,15 C78.5,15.2 79.7,15.5 80.9,15.7 C81.7,15.9 82.5,16 83.3,16.1 C84,16.2 84.7,16.3 85.4,16.4 C85.9,16.5 86.4,16.5 86.8,16.6 C87.3,16.7 87.9,16.7 88.4,16.8 C89.4,16.9 90.5,17 91.5,17.1 C92,17.2 92.5,17.2 93,17.2 C93.6,17.3 94.1,17.3 94.6,17.3 C94.9,17.3 95.3,17.3 95.6,17.4 C95.9,17.5 96.2,17.4 96.6,17.5 L96.7,17.5 C97.6,17.6 98.3,17.6 98.9,17.6 L98.9,17.6 Z"></path>
                                    <path d="M255.8,12.4 C255.6,24.8 255.5,37.1 255.3,49.5 C255.2,51.5 253.8,53.2 251.9,53.6 C249,54.2 244.2,55.2 238.5,56.4 C230.7,58 216.8,61.1 203.2,63.7 C184.2,67.3 165.6,69.7 164,65.3 C162.7,61.8 173.2,54.7 175.6,53.1 C193.5,41.1 206.8,47.7 217.5,35.9 C222.1,30.9 223.9,25 224.8,22.4 C225.2,21.1 225.5,19.8 225.8,18.5 C226.3,16.4 226.5,14.3 226.6,12.4 C226.9,7 226.2,2.5 225.6,-0.1 C229.5,0.8 233.9,1.6 238.6,2.1 C244.9,2.8 250.7,2.9 255.8,2.8 L255.8,12.4 L255.8,12.4 Z"></path>
                                </g>
                                <path d="M98.9,17.6 C98.8,18.7 98.7,19.8 98.6,21 L98.6,21 C97.3,35.4 96,49.8 94.7,64.2 C94.5,66.2 92.9,67.8 90.9,68 C90.5,68.1 90.2,68.1 89.8,68.2 C89.6,68.2 89.4,68.2 89.2,68.3 C88.9,68.3 88.6,68.4 88.3,68.4 C88.1,68.4 87.8,68.5 87.5,68.5 C87.1,68.5 86.8,68.6 86.4,68.6 C85.6,68.7 84.6,68.8 83.7,68.9 C83.4,68.9 83,69 82.7,69 C82.2,69.1 81.8,69.1 81.3,69.2 C81,69.2 80.6,69.3 80.3,69.3 C79.6,69.4 78.9,69.5 78.3,69.6 L78.2,69.6 C77.8,69.6 77.5,69.7 77.1,69.7 C76.2,69.8 75.3,69.9 74.3,70.1 C74,70.1 73.6,70.2 73.3,70.2 C73,70.2 72.7,70.3 72.4,70.3 C71.8,70.4 71.2,70.4 70.6,70.5 C70.2,70.5 69.9,70.6 69.5,70.6 L69.5,70.6 C68.5,70.7 67.5,70.9 66.5,71 C66,71.1 65.4,71.1 64.9,71.2 L64.9,71.2 C64.4,71.3 63.8,71.3 63.2,71.4 C61.9,71.6 60.4,71.8 59,72 L59,72 C58,72.1 56.9,72.3 55.9,72.4 L55.9,72.4 C54.9,72.5 53.8,72.7 52.7,72.8 L52.7,72.8 C52,72.9 51.3,73 50.6,73.1 C48.8,73.3 46.9,73.5 45.1,73.8 C44.4,73.9 43.6,74 42.9,74 L42.9,74 C41.8,74.1 40.7,74.2 39.6,74.4 C38.1,74.6 36.6,74.7 35.2,74.9 C34.8,74.9 34.5,75 34.1,75 C33.4,75.1 32.7,75.1 31.9,75.2 C31.5,75.2 31.2,75.3 30.8,75.3 L30.7,75.3 C14.8,76.6 1.3,76.7 0.2,73 C-0.8,69.6 8.8,64.1 12.2,62.2 C12.5,62 12.7,61.9 12.9,61.8 C14.4,61 15.8,60.3 17.2,59.7 C27.2,55.3 35.4,55.3 42.5,54.3 C43.6,54.1 44.7,54 45.7,53.8 C47.6,53.4 49.5,52.9 51.2,52 C51.6,51.8 51.9,51.6 52.3,51.4 C52.5,51.3 52.8,51.1 53,51 C53.5,50.7 53.9,50.4 54.4,50.1 C54.6,50 54.8,49.8 54.9,49.7 C55.2,49.4 55.6,49.1 55.9,48.8 C56.2,48.5 56.6,48.2 56.9,47.8 L56.9,47.8 C61.3,43.3 63.2,37.4 65,31.6 C65.1,31.1 65.3,30.7 65.4,30.2 C65.7,29.3 65.9,28.4 66.1,27.5 C66.2,27 66.3,26.6 66.4,26.1 C66.4,26 66.5,25.8 66.5,25.7 C66.5,25.6 66.6,25.4 66.6,25.3 C66.7,25 66.7,24.7 66.8,24.5 C66.9,24.2 66.9,24 67,23.7 C67.1,22.9 67.3,22.2 67.3,21.5 C67.4,20.6 67.5,19.7 67.6,18.8 C67.7,18.2 67.7,17.6 67.7,17 L67.7,16.4 L67.7,15.7 C67.7,14.6 67.8,13.6 67.8,12.6 C69.8,13.2 71.8,13.8 74,14.3 C75.1,14.6 76.2,14.8 77.4,15.1 C78.5,15.3 79.7,15.6 80.9,15.8 C81.7,16 82.5,16.1 83.3,16.2 C84,16.3 84.7,16.4 85.4,16.5 C85.9,16.6 86.4,16.7 86.8,16.7 C87.3,16.8 87.9,16.8 88.4,16.9 C89.4,17 90.5,17.1 91.5,17.2 C92,17.3 92.5,17.3 93,17.3 C93.6,17.4 94.1,17.4 94.6,17.4 C94.9,17.4 95.3,17.4 95.6,17.5 C95.9,17.6 96.2,17.5 96.6,17.6 L96.6,17.6 L96.7,17.6 C97.6,17.6 98.3,17.6 98.9,17.6 L98.9,17.6 Z" id="Shape"></path>
                                <g transform="translate(7.000000, 2.000000)" fill="#BACFDA" id="Shape">
                                    <path d="M69.7,30.6 C69.4,30.9 69,31.1 68.5,31.1 C68.1,31.1 67.7,30.9 67.4,30.6 L59.9,23.1 C60,22.8 60,22.6 60.1,22.3 C60.2,22 60.2,21.8 60.3,21.5 C60.4,20.7 60.6,20 60.6,19.3 L69.8,28.4 C70.3,28.9 70.3,30 69.7,30.6 L69.7,30.6 Z"></path>
                                    <path d="M72.9,57 C72.6,57 72.4,56.9 72.1,56.8 C71.3,56.4 71,55.4 71.4,54.6 L78.6,41.2 C79,40.4 80,40.1 80.8,40.5 C81.6,40.9 81.9,41.9 81.5,42.7 L74.3,56.1 C74,56.7 73.4,57 72.9,57 L72.9,57 Z"></path>
                                    <path d="M10.2,57.5 L3.3,70.5 C3,71.1 2.4,71.4 1.9,71.4 C1.6,71.4 1.4,71.3 1.1,71.2 C0.3,70.8 2.10775841e-13,69.8 0.4,69 L5.2,60.1 C5.5,59.9 5.7,59.8 5.9,59.7 C7.4,58.8 8.8,58.1 10.2,57.5 L10.2,57.5 Z"></path>
                                    <path d="M39.3,62.9 C39.3,63.8 38.6,64.6 37.8,64.6 L37.7,64.6 C36.8,64.6 36.1,63.9 36.1,63.1 L35.6,52.1 C36.7,51.9 37.8,51.8 38.8,51.6 L39.3,62.9 L39.3,62.9 Z"></path>
                                    <path d="M59.4,69.1 L59.4,69.1 C58.9,69.2 58.3,69.2 57.8,69.3 L57.8,69.3 C57.3,69.4 56.7,69.4 56.1,69.5 L56.1,69.5 L54,61.9 C53.8,61 54.3,60.1 55.1,59.9 C55.9,59.7 56.9,60.2 57.1,61 L59.4,69.1 L59.4,69.1 Z"></path>
                                    <path d="M26.9,72.9 L26.9,72.9 C26.2,73 25.5,73 24.7,73.1 C24.3,73.1 24,73.2 23.6,73.2 C23.6,73.2 23.6,73.2 23.5,73.2 L23.5,73.2 L22.7,70.2 C22.5,69.3 23,68.4 23.8,68.2 C24.7,68 25.6,68.5 25.8,69.4 L26.9,72.9 L26.9,72.9 Z"></path>
                                    <path d="M91.9,15.6 C91.8,16.7 91.7,17.8 91.6,19 L91.6,19 L89.8,22.4 C89.5,23 88.9,23.3 88.4,23.3 C88.1,23.3 87.9,23.2 87.6,23.1 C86.8,22.7 86.5,21.7 86.9,20.9 L89.8,15.5 L89.9,15.5 C90.6,15.6 91.3,15.6 91.9,15.6 L91.9,15.6 Z"></path>
                                    <path d="M234.8,40 C234.4,40 234,39.8 233.7,39.5 L222.9,28.8 C222.3,28.2 222.3,27.1 222.9,26.5 C223.5,25.9 224.6,25.9 225.2,26.5 L236,37.2 C236.6,37.8 236.6,38.9 236,39.5 C235.7,39.8 235.3,40 234.8,40 L234.8,40 Z"></path>
                                    <path d="M183.7,52.9 L177.4,64.7 C176.1,64.9 174.8,65 173.5,65.1 C173.5,65 173.6,64.9 173.6,64.8 L180.8,51.4 C181.2,50.6 182.2,50.3 183,50.7 C183.8,51.2 184.1,52.1 183.7,52.9 L183.7,52.9 Z"></path>
                                    <path d="M248.7,17.7 C248.7,20.1 248.6,22.4 248.6,24.8 L247.8,26.3 C247.5,26.9 246.9,27.2 246.4,27.2 C246.1,27.2 245.9,27.1 245.6,27 C244.8,26.6 244.5,25.6 244.9,24.8 L248.7,17.7 L248.7,17.7 Z"></path>
                                    <path d="M206.2,50.9 C206.1,50.9 205.9,51 205.8,51 C205.1,51 204.4,50.5 204.2,49.8 L201.5,40 C202.5,39.6 203.5,39.1 204.5,38.6 L207.3,48.9 C207.6,49.8 207.1,50.7 206.2,50.9 L206.2,50.9 Z"></path>
                                    <path d="M228.2,55.1 C227.2,55.3 226.1,55.5 225,55.8 L223.8,51.4 C223.6,50.5 224.1,49.6 225,49.4 C225.9,49.2 226.8,49.7 227,50.5 L228.2,55.1 L228.2,55.1 Z"></path>
                                    <path d="M237.5,0.7 L231.9,11.2 C231.6,11.8 231,12.1 230.5,12.1 C230.2,12.1 230,12 229.7,11.9 C228.9,11.5 228.6,10.5 229,9.7 L233.9,0.4 C235.2,0.5 236.4,0.6 237.5,0.7 L237.5,0.7 Z"></path>
                                </g>
                                <path d="M255.8,12.4 C255.8,14.8 255.7,17.2 255.7,19.6 C255.7,22 255.6,24.3 255.6,26.7 C255.5,34.3 255.4,41.9 255.3,49.5 C255.2,51.5 253.8,53.2 252,53.6 C249.1,54.2 244.3,55.2 238.5,56.4 C237.5,56.6 236.4,56.8 235.2,57.1 C234.2,57.3 233.1,57.5 232,57.8 C219.2,60.5 199.3,64.9 184.4,66.8 C183.1,67 181.8,67.1 180.5,67.2 C171.4,68.1 164.8,67.9 163.9,65.3 C162.6,61.7 173.1,54.7 175.5,53.1 C188.8,44.2 199.5,45.5 208.5,42 C209.5,41.6 210.5,41.1 211.5,40.6 C213.5,39.5 215.5,38 217.4,35.9 C222,30.9 223.8,25 224.7,22.4 C225.8,18.9 226.4,15.5 226.5,12.4 C226.8,7 226.1,2.5 225.5,-0.1 C229.4,0.8 233.8,1.6 238.5,2.1 C239.3,2.2 240.2,2.3 241,2.3 C242.2,2.4 243.4,2.5 244.5,2.6 L244.5,2.6 C248.5,2.8 252.2,2.9 255.6,2.8 L255.8,12.4 L255.8,12.4 Z" id="Shape"></path>
                            </g>
                            <path d="M98.9,17.6 C97.5,33.1 96.1,48.6 94.7,64.1 C94.5,66.1 92.9,67.7 90.9,67.9 C89.5,68.1 87.8,68.3 85.7,68.6 C90.3,56.3 88.6,31.4 87,16.5 C91.3,17.2 95.3,17.5 98.9,17.6 L98.9,17.6 Z" id="Shape" fill="#0B1D36" opacity="0.14"></path>
                            <path d="M255.8,12.4 C255.6,24.8 255.5,37.1 255.3,49.5 C255.2,51.5 253.8,53.2 251.9,53.6 C249,54.2 244.2,55.2 238.5,56.4 C230.7,58 216.8,61.1 203.2,63.7 C215.7,57.8 228.3,51.7 233.8,48.3 C246.6,40.4 248.5,35.2 246.9,25.7 C245.7,18.8 233,18.5 225.7,18.6 C226.2,16.5 226.4,14.4 226.5,12.5 C226.8,7.1 226.1,2.6 225.5,0 C229.4,0.9 233.8,1.7 238.5,2.2 C244.8,2.9 250.6,3 255.7,2.9 L255.8,12.4 L255.8,12.4 Z" id="Shape" fill="#0B1D36" opacity="0.14"></path>
                        </g>
                        <g id="hand_back" transform="translate(220.000000, 147.000000)">
                            <path d="M22.5,0.2 C15,19.4 7.5,38.6 0,57.8 C6.7,70.2 13.4,79.5 18.3,85.9 C27.3,97.4 32.3,101.3 34.2,109.9 C35.6,116.7 34.3,123.1 28.5,136.6 C23.6,147.9 15.9,163.5 3.7,181.2 C10.4,187.7 17.2,194.3 23.9,200.8 C44.6,178 55.3,156.1 60.9,141.8 C67.9,124 73.3,109.9 70.1,92.8 C67.2,77.8 60.1,72.6 47.2,51.5 C40.1,40.1 30.8,23.1 22.5,0.2 L22.5,0.2 Z" id="Shape" fill="#5A142A"></path>
                            <path d="M22.5,0.2 C15,19.4 7.5,38.6 0,57.8 C6.7,70.2 13.4,79.5 18.3,85.9 C27.3,97.4 32.3,101.3 34.2,109.9 C35.6,116.7 34.3,123.1 28.5,136.6 C23.6,147.9 15.9,163.5 3.7,181.2 C10.4,187.7 17.2,194.3 23.9,200.8 C44.6,178 55.3,156.1 60.9,141.8 C67.9,124 73.3,109.9 70.1,92.8 C67.2,77.8 60.1,72.6 47.2,51.5 C40.1,40.1 30.8,23.1 22.5,0.2 L22.5,0.2 Z" id="Shape" fill="url(#linearGradient-11)" opacity="0.31"></path>
                        </g>
                        <path d="M107.3,111.2 C106.3,117.6 104.4,127.5 100.4,139.2 C91.9,164.3 83.6,169.8 86.6,179.3 C91.9,196.2 125,199.2 129.5,199.6 C138.2,200.4 146.6,201.1 154.9,196.3 C169.2,187.9 171.9,169.2 172.9,161.8 C178,125.3 149.9,95.6 143.9,89.4 L107.3,111.2 L107.3,111.2 Z" id="hair_back" fill="#19233D"></path>
                        <g id="neck" transform="translate(128.000000, 72.000000)">
                            <polygon id="Shape" fill="url(#linearGradient-12)" points="60.5 61.5 18.6 81.4 11.2 61 5.6 45.6 0.3 30.9 31.1 -0.1"></polygon>
                            <path d="M34.8,11.8 C31.2,35.1 18.8,52.4 11.2,61 L5.6,45.5 L34.8,11.8 L34.8,11.8 Z" id="Shape" fill="#365588" opacity="0.09"></path>
                        </g>
                        <g id="body" transform="translate(110.000000, 122.000000)">
                            <path d="M150.4,232.3 C149.8,240.2 148.8,248.8 147,257.7 C146.5,260 146,262.3 145.5,264.5 C111.5,262.7 77.5,261 43.5,259.2 C41.7,250.1 40,241.7 38.3,233.8 C36.7,226.4 35.1,219.5 33.6,213.2 C32,206.5 30.4,200.3 28.8,194.6 C21.1,166.4 14.3,149.8 8.6,139.5 C6.2,135.2 0.7,126.1 -0.3,113 C-1.2,101.1 2.8,101.1 8,71.1 C9.8,61 12.7,51.2 14,41 C14.1,40.2 14.6,37 16,33.1 C16.2,32.5 16.5,32 16.8,31.2 C25.4,13.1 47.5,2.9 65.6,0.7 C88.7,-2.1 115.1,8.1 128.3,27.5 C128.4,27.6 128.5,27.8 128.6,27.9 C131.5,32.3 133.2,36.4 134.1,40.4 C137.3,55.5 136.4,67.1 134.5,79.1 C132.6,91.1 129.5,103.7 128.4,120.9 C126,157.8 137.1,191.9 146,219 C147.7,224.7 149.3,229.3 150.4,232.3 L150.4,232.3 Z" id="Shape" fill="#640042"></path>
                            <path d="M102.2,83.3 C87.8,101.3 128.2,140.6 118,173.8 C109.2,202.3 64.9,220.6 33.6,213.4 C32,206.7 30.4,200.5 28.8,194.8 C47.6,192.7 78,192 91.2,175.7 C102.8,161.4 104.4,131.3 67.6,64.1 C87.8,52 108,39.9 128.2,27.8 C128.3,27.9 128.4,28.1 128.5,28.2 C131.4,32.6 133.1,36.7 134,40.7 C137.2,55.8 136.3,67.4 134.4,79.4 C132,77.8 123.5,72.7 114.1,75.2 C114.2,75.1 107.3,76.9 102.2,83.3 L102.2,83.3 Z" id="Shape" fill="url(#linearGradient-13)" opacity="0.07"></path>
                        </g>
                        <g id="smartphone" transform="translate(4.000000, 186.000000)">
                            <path d="M69.2,65.3 L54.5,79.8 C51.7,82.5 46.4,80.9 42.8,76.2 L2.9,24.8 C-0.8,20.1 -1.1,14.4 2.1,12.2 L19.1,0.6 C22,-1.4 27.1,0.6 30.5,5 L67.7,52.8 C71,57.3 71.7,62.8 69.2,65.3 L69.2,65.3 Z" id="Shape" fill="url(#linearGradient-14)" opacity="0.45"></path>
                            <g id="Group">
                                <path d="M67.6,52.9 L30.4,5.1 C27,0.7 21.9,-1.3 19,0.7 L2,12.3 C0.8,13.1 0.1,14.4 -0.1,15.9 L-0.1,15.9 C-0.2,16.5 -0.2,17.2 -0.1,17.9 L-0.1,19.8 C-0.5,22.3 0.4,25.5 2.6,28.3 L40.7,77.3 C43.9,81.4 48.5,83 51.4,81.1 C52.6,81 53.7,80.6 54.6,79.8 L69.3,65.3 C71.8,62.8 71,57.3 67.6,52.9 L67.6,52.9 Z" id="Shape" fill="#302C34"></path>
                                <path d="M69.2,65.3 L54.5,79.8 C51.7,82.5 46.4,80.9 42.8,76.2 L2.9,24.8 C-0.8,20.1 -1.1,14.4 2.1,12.2 L19.1,0.6 C22,-1.4 27.1,0.6 30.5,5 L67.7,52.8 C71,57.3 71.7,62.8 69.2,65.3 L69.2,65.3 Z" id="Shape" fill="url(#linearGradient-15)" opacity="0.45"></path>
                            </g>
                            <path d="M66.7,55.9 C59.8,61.9 53,67.8 46.1,73.8 C43.3,70.6 36.9,62.7 30,54 C29.1,52.8 28.2,51.7 27.2,50.5 C26.4,49.5 25.7,48.6 24.9,47.6 C22.4,44.5 20,41.4 17.7,38.5 C12.6,31.9 8.2,26.2 6.1,23.4 C13.7,17.8 21.3,12.2 28.9,6.6 C29.1,6.9 29.3,7.1 29.5,7.4 C31.3,9.8 33.5,12.5 35.8,15.5 C36.4,16.3 37,17 37.6,17.8 C38.5,19 39.4,20.2 40.4,21.4 C52.6,37 66.4,55.1 66.7,55.9 L66.7,55.9 Z" id="Shape" fill="url(#linearGradient-16)"></path>
                            <path d="M50.3,59.1 C49.9,59.1 49.5,59 49.2,58.8 L27.6,45.4 C26.6,44.8 26.3,43.4 26.9,42.4 C27.5,41.4 28.9,41.1 29.9,41.7 L45.2,51.2 L29.3,17.7 C28.8,16.6 29.2,15.3 30.3,14.8 C31.4,14.3 32.7,14.7 33.2,15.8 L52.3,56 C52.7,56.9 52.5,57.9 51.8,58.6 C51.3,58.9 50.8,59.1 50.3,59.1 L50.3,59.1 Z" id="Shape" fill="#336859" opacity="0.67"></path>
                            <path d="M36,15.5 C32.3,26.2 28.6,36.9 25,47.5 C22.5,44.4 20.1,41.3 17.8,38.4 L29.7,7.3 C31.6,9.8 33.7,12.6 36,15.5 L36,15.5 Z" id="Shape" fill="#E6E3F4" opacity="0.26"></path>
                            <path d="M40.6,21.4 L30.1,54 C29.2,52.8 28.3,51.7 27.3,50.5 L37.8,17.9 C38.7,19 39.6,20.2 40.6,21.4 L40.6,21.4 Z" id="Shape" fill="#E6E3F4" opacity="0.26"></path>
                        </g>
                        <g id="legs" transform="translate(34.000000, 354.000000)">
                            <g id="leg_back" transform="translate(129.000000, 0.000000)">
                                <path d="M95.4,438.3 L92.7,438.3 C90.9,321.7 88.4,281 86.1,271.7 C85.7,270.1 82.5,257.9 80.7,241 C80.6,239.6 80.4,238 80.2,236.2 C76.3,186 104.8,75.3 104.3,48.1 C103.9,29 100.8,12.7 97.4,0.3 C65,9.9 32.7,19.5 0.3,29.1 C-1.6,132.4 9.1,202.9 19.7,249.1 C22.3,260.3 27.9,283.1 36.7,322.1 C47.6,370.1 56,410.1 61.8,438.3 L61.5,438.3 C59.3,438.3 57.5,440.1 57.5,442.4 C57.5,444.7 59.3,446.5 61.5,446.5 L63.5,446.5 L92.8,446.5 L95.4,446.5 C97.6,446.5 99.4,444.7 99.4,442.4 C99.4,440.1 97.6,438.3 95.4,438.3 L95.4,438.3 Z" id="Shape" fill="#271C41"></path>
                                <path d="M95.4,438.3 L92.7,438.3 C90.9,321.7 88.4,281 86.1,271.7 C85.7,270.1 82.5,257.9 80.7,241 C80.6,239.6 80.4,238 80.2,236.2 C76.3,186 104.8,75.3 104.3,48.1 C103.9,29 100.8,12.7 97.4,0.3 C65,9.9 32.7,19.5 0.3,29.1 C-1.6,132.4 9.1,202.9 19.7,249.1 C22.3,260.3 27.9,283.1 36.7,322.1 C47.6,370.1 56,410.1 61.8,438.3 L61.5,438.3 C59.3,438.3 57.5,440.1 57.5,442.4 C57.5,444.7 59.3,446.5 61.5,446.5 L63.5,446.5 L92.8,446.5 L95.4,446.5 C97.6,446.5 99.4,444.7 99.4,442.4 C99.4,440.1 97.6,438.3 95.4,438.3 L95.4,438.3 Z" id="Shape" fill="url(#linearGradient-17)" opacity="0.12"></path>
                            </g>
                            <g id="leg_front">
                                <path d="M226.4,0.3 C225.9,6.7 225.2,12.8 224.3,18.5 C223.9,20.8 223.5,23.1 223.1,25.3 C222.6,27.8 222.1,30.2 221.5,32.5 C221.5,32.6 221.5,32.7 221.4,32.8 C216.8,52.4 209.9,67.1 203.9,77.8 C181.4,117.2 135.5,159.6 103.7,192.2 C87.8,208.5 75.4,222.4 71.3,232.1 C70.7,233.6 70.2,235 70,236.3 C69,242 68.7,247.8 68.7,247.8 C69.6,257.1 70.4,266.5 71.1,276.1 C75.5,340.7 72.2,400.8 64.6,455.3 L63.4,455.3 C61.1,455.4 58.8,455.5 56.5,455.6 C48.7,455.9 41,456.2 33.2,456.5 C31.4,428.1 28,405.2 25.4,389.9 C19.6,356.4 12.3,329.6 7,305.1 C-3.19466675e-14,272.3 -3.3,243.4 5.6,207.4 C8.6,195.1 10.9,191.6 66.3,90.1 C71.9,79.9 77.2,70.2 82.1,61.1 C94.7,38.1 105,19.1 112.3,5.8 C113,4.5 113.7,3.3 114.3,2.1 C114.4,1.9 114.5,1.7 114.6,1.5 C149,1.2 183.4,0.8 217.7,0.5 C220.6,0.4 223.5,0.4 226.4,0.3 L226.4,0.3 Z" id="Shape" fill="#39215A"></path>
                                <path d="M64.9,456.6 L30.4,456.6 C28.3,456.6 26.7,454.9 26.7,452.9 L26.7,452.2 C26.7,450.1 28.4,448.5 30.4,448.5 L64.9,448.5 C67,448.5 68.6,450.2 68.6,452.2 L68.6,452.9 C68.6,454.9 66.9,456.6 64.9,456.6 L64.9,456.6 Z" id="Shape" fill="#271C41"></path>
                                <path d="M226.4,0.3 C225.9,6.3 225.2,12.4 224.3,18.5 C223.9,20.8 223.5,23.1 223.1,25.3 C222.6,27.8 222.1,30.2 221.5,32.5 C221.5,32.6 221.5,32.7 221.4,32.8 C220.5,36.6 214.6,57.6 203.9,77.8 C181.4,117.2 135.5,159.6 103.7,192.2 C87.8,208.5 75.4,222.4 71.3,232.1 C70.7,233.6 70.2,235 70,236.3 C69,242 68.7,247.8 68.7,247.8 C69.6,257.1 70.4,266.5 71.1,276.1 C75.5,340.7 72.2,400.8 64.6,455.3 L63.4,455.3 C55.4,443.2 56.3,406.9 53.9,344.2 C50.4,251.4 45.5,255 50.5,238.3 C62.8,197.2 86.5,195.4 143.7,125.6 C176.1,86.1 216.2,28.4 205.6,16.4 C201.7,12 193.5,17.1 174.8,18.4 C148.8,20.1 127,12.6 112.2,5.6 C112.9,4.4 113.6,3.1 114.2,1.9 C114.3,1.7 114.4,1.5 114.5,1.3 C148.9,1 183.3,0.6 217.6,0.3 C220.6,0.4 223.5,0.4 226.4,0.3 L226.4,0.3 Z" id="Shape" fill="#0B1D36" opacity="0.07"></path>
                                <path d="M82.1,61 C73.1,95.1 54.8,153.1 26.1,195 C7.1,222.7 4.2,265.6 7,305.1 C-3.20576898e-14,272.3 -3.3,243.4 5.6,207.4 C8.6,195.1 10.9,191.6 66.3,90.1 C71.9,79.8 77.2,70.1 82.1,61 L82.1,61 Z" id="Shape" fill="url(#linearGradient-18)" opacity="0.04"></path>
                            </g>
                        </g>
                        <g id="hand_front" transform="translate(13.000000, 127.000000)">
                            <path d="M203.2,171.9 C200,176.9 195.9,179.6 191.1,182.9 C191,183 190.9,183 190.8,183.1 C190.8,183.1 190.7,183.1 190.7,183.2 C186.1,186.3 168.6,197.2 131.5,194 C103,191.5 78.1,182 59.2,172.5 C50,167.9 42.3,163.2 36.4,159.3 C40,153.4 43.5,147.5 47.1,141.5 C84.2,158.4 114.3,158.7 130.9,157.4 C142.3,156.5 152.9,155.6 158.7,151.6 C160.3,150.4 161.6,149 162.3,147.3 C168.4,133.2 133.8,117.9 115.7,71.5 C110.9,59.1 101.3,33.9 113.1,17.5 C115.3,14.4 119.9,9.4 126.3,5.5 C130.7,2.9 136,0.8 141.9,0.4 C142.2,0.4 145.3,0.2 147.5,0.5 C161.4,2.6 167.4,28.8 178,64.6 C180.1,71.8 182.4,79.3 185,87.2 C186.5,91.6 187.9,95.8 189.3,99.8 C203.1,138.4 213.5,156.2 203.2,171.9 L203.2,171.9 Z" id="Shape" fill="#5A142A"></path>
                            <path d="M47.1,141.5 C45.5,144.9 43.6,148.6 41.2,152.4 C39.6,154.9 38,157.2 36.4,159.2 C33.4,156.8 31.3,155.1 30,154 C28.7,153 28.1,152.5 28,152.4 C28,152.4 27.8,152.2 27.5,151.9 C27.5,151.9 27.5,151.9 27.4,151.8 L27.3,151.7 C15.3,140.5 8.4,126.8 8.4,126.8 C2.2,114.3 0.5,102.8 1.13686838e-13,95.6 C1.8,97.8 4.6,101.1 8,105.4 C8.3,105.8 8.7,106.2 8.9,106.6 L8.9,106.6 C11,109.3 12.5,111.3 15.2,114.8 C18.4,119 21.6,123.1 24.9,127.3 C25.5,125.5 26.3,122.8 26.4,119.2 C26.5,117 26.2,115.1 25.8,111.3 C25.2,106.4 24.3,100.8 26,100.1 C26.1,100.1 26.2,100 26.2,100 C27,100 28.1,100.2 29.1,100.9 C31.5,102.7 31.4,106.6 31.4,108.3 C31.4,108.4 31.4,115.7 36,127.4 C37.3,130.7 39.6,134.9 44.5,139.1 C45.3,140.1 46.2,140.8 47.1,141.5 L47.1,141.5 Z" id="Shape" fill="url(#linearGradient-19)"></path>
                            <path d="M47.1,141.5 C45.5,144.9 43.6,148.6 41.2,152.4 C39.6,154.9 38,157.2 36.4,159.2 C33.4,156.8 31.3,155.1 30,154 L44.2,139.5 L44.5,139.3 C45.3,140.1 46.2,140.8 47.1,141.5 L47.1,141.5 Z" id="Shape" fill="#365588" opacity="0.16"></path>
                            <path d="M25,127.5 C15.5,127 11.1,116.3 9.1,106.9 C11.2,109.6 12.7,111.6 15.4,115.1 C18.5,119.2 21.8,123.4 25,127.5 L25,127.5 Z" id="Shape" fill="#365588" opacity="0.16"></path>
                            <path d="M203.2,171.9 C199.3,177 192.8,181.6 191.1,182.9 C191,183 190.9,183.1 190.8,183.1 C190.8,183.1 190.7,183.1 190.7,183.2 C186.1,186.3 168.6,197.2 131.5,194 C103,191.5 78.1,182 59.2,172.5 C92.3,180.6 171.1,197.5 185,171.5 C188.5,164.9 186,154 181,132.2 C171.4,90.8 156.3,66.7 164.7,59.2 C165.9,58.1 168.2,56.8 172.9,57.3 C174.7,59.8 176.4,62.2 178.1,64.7 C180.2,71.9 182.5,79.4 185.1,87.3 C186.6,91.7 188,95.9 189.4,99.9 C203.1,138.4 213.5,156.2 203.2,171.9 L203.2,171.9 Z" id="Shape" fill="url(#linearGradient-20)" opacity="0.07"></path>
                            <path d="M161.2,152.2 C160.5,152.2 159.7,151.9 158.7,151.5 C160.3,150.3 161.6,148.9 162.3,147.2 C168.4,133.1 133.8,117.8 115.7,71.4 C110.9,59 101.3,33.8 113.1,17.4 C115.3,14.3 119.9,9.3 126.3,5.4 C123.1,19.7 117,61.1 144.2,99.8 C177.8,147.6 173.5,152.8 161.2,152.2 L161.2,152.2 Z" id="Shape" fill="url(#linearGradient-21)" opacity="0.04"></path>
                        </g>
                        <path d="M156.6,51.7 C159.4,62.2 162.5,78.9 160,98.7 C156.2,129.3 142.5,139.3 146.3,162.3 C148.6,175.9 157.3,196.2 172.9,201.1 C187.9,205.9 197,192.7 222,196.9 C233.1,198.8 235.8,202.1 241.4,200 C253.8,195.4 258.8,172.2 257.6,154.2 C255.4,122.5 234.8,118.6 212.3,72.8 C194.7,36.9 199,22.3 182.2,10.4 C164,-2.4 139.3,0.9 120.7,6.1 C132.7,21.4 144.7,36.5 156.6,51.7 L156.6,51.7 Z" id="hair" fill="#19233D"></path>
                        <g id="head_general" transform="translate(84.000000, 10.000000)">
                            <g id="head">
                                <path d="M76.3,67.4 C76.7,69.6 77.2,73.1 76.6,77.3 C76,81.9 74.5,85.3 73.3,87.5 C66.3,101.5 59.9,114.1 49.2,115.5 C43.6,116.2 39.1,113.6 34.6,111 C24,104.9 19.1,95.4 17.2,91.1 C9.8,94.4 6.9,94 5.8,92.8 C4,90.8 6.6,86.5 8.6,75.9 C9.3,72.2 9.7,69 10,66.7 C6.8,62.3 -1.1,50.1 -0.3,33.6 C-0.1,28.6 0.9,8.8 13.9,2.4 C24.9,-3 38.3,4.3 45.1,8.8 C53.8,14.6 62.2,23.1 68,32.7 C68.2,33 68.4,33.3 68.6,33.6 C70.1,36.2 71.4,38.8 72.6,41.6 C78.4,38.4 85.9,39.9 90.1,45.3 L90.1,45.3 C91.5,47.1 92.3,49.1 92.7,51.2 C93.6,56.1 91.8,61.4 87.6,64.7 C84.3,67.4 80.1,68.2 76.3,67.4 L76.3,67.4 Z" id="Shape" fill="url(#linearGradient-22)"></path>
                                <path d="M90.1,45.5 C82.8,46.9 61.2,50.9 60.5,51.1 L58.2,40.8 L68.7,33.8 C70.2,36.4 71.5,39 72.7,41.8 C78.5,38.6 85.9,40 90.1,45.5 L90.1,45.5 L90.1,45.5 Z" id="Shape" fill="url(#linearGradient-23)" opacity="0.22"></path>
                            </g>
                            <path d="M29.8,102.6 C29.5,102.6 29.2,102.3 29.2,102 C29.2,101.6 29.4,101.3 29.8,101.3 C30.1,101.3 36.9,100.7 39.7,95.2 C40.9,92.9 40.9,90.7 40.8,89.2 C40.8,88.8 41,88.5 41.4,88.5 C41.8,88.5 42.1,88.7 42.1,89.1 C42.3,90.8 42.2,93.3 40.9,95.9 C37.7,101.8 30.6,102.5 29.8,102.6 L29.8,102.6 L29.8,102.6 Z" id="smile" fill="#000000"></path>
                            <circle id="eye" fill="#000000" cx="21" cy="64" r="3"></circle>
                            <polygon id="brow" fill="#19233D" transform="translate(17.988450, 48.461350) rotate(7.371627) translate(-17.988450, -48.461350) " points="7.98880111 46.9614027 7.98880111 49.8613008 28.1880919 49.8613008 28.1880919 46.9614027"></polygon>
                        </g>
                        <path d="M83.8,43.7 C98,62.2 119.1,70.8 136.8,65.5 C146.5,62.6 153,56.2 156.6,51.7 C156.7,47 156.2,39.7 153.3,31.5 C151.4,26.3 145.1,9.2 127.7,2.6 C125,1.6 107.3,-5.1 93.6,5.8 C83.1,14.1 79.1,29.3 83.8,43.7 L83.8,43.7 Z" id="forelock" fill="#19233D"></path>
                    </g>
                </g>
            </g>
        </g>
    </g>
</svg>