<?xml version="1.0" encoding="UTF-8"?>
<svg width="1164px" height="1124px" viewBox="0 0 1164 1124" version="1.1" xmlns="http://www.w3.org/2000/svg" xmlns:xlink="http://www.w3.org/1999/xlink">
    <!-- Generator: Sketch 61.2 (89653) - https://sketch.com -->
    <title>message sent</title>
    <desc>Created with Sketch.</desc>
    <defs>
        <linearGradient x1="0.0305469318%" y1="50.0097612%" x2="100.005531%" y2="50.0097612%" id="linearGradient-1">
            <stop stop-color="#2A303D" offset="32.45%"></stop>
            <stop stop-color="#31445A" offset="100%"></stop>
        </linearGradient>
        <linearGradient x1="-0.0792073091%" y1="49.9763814%" x2="99.9912623%" y2="49.9763814%" id="linearGradient-2">
            <stop stop-color="#2A303D" offset="32.45%"></stop>
            <stop stop-color="#31445A" offset="100%"></stop>
        </linearGradient>
        <linearGradient x1="-0.00977891156%" y1="49.8909938%" x2="100.022789%" y2="49.8909938%" id="linearGradient-3">
            <stop stop-color="#302E40" offset="0%"></stop>
            <stop stop-color="#9375A1" offset="100%"></stop>
        </linearGradient>
        <linearGradient x1="-1.96811727%" y1="45.4581346%" x2="102.414866%" y2="54.1701596%" id="linearGradient-4">
            <stop stop-color="#2A303D" offset="47.13%"></stop>
            <stop stop-color="#302E40" offset="100%"></stop>
        </linearGradient>
        <linearGradient x1="0.00436847104%" y1="49.890632%" x2="99.9698006%" y2="49.890632%" id="linearGradient-5">
            <stop stop-color="#9375A1" offset="0%"></stop>
            <stop stop-color="#302E40" offset="100%"></stop>
        </linearGradient>
        <linearGradient x1="0.0186734929%" y1="49.9524126%" x2="99.9204333%" y2="49.9524126%" id="linearGradient-6">
            <stop stop-color="#FFFFFF" offset="0%"></stop>
            <stop stop-color="#9375A1" offset="100%"></stop>
        </linearGradient>
        <linearGradient x1="0.18030303%" y1="50.7170285%" x2="99.9829004%" y2="50.7170285%" id="linearGradient-7">
            <stop stop-color="#E2C8C0" offset="0%"></stop>
            <stop stop-color="#DD8093" stop-opacity="0.4" offset="100%"></stop>
        </linearGradient>
        <linearGradient x1="0.197285073%" y1="49.6461538%" x2="99.8777264%" y2="49.6461538%" id="linearGradient-8">
            <stop stop-color="#E2C8C0" offset="0%"></stop>
            <stop stop-color="#DD8093" stop-opacity="0.4" offset="100%"></stop>
        </linearGradient>
        <linearGradient x1="-0.105833333%" y1="49.5954497%" x2="99.9866667%" y2="49.5954497%" id="linearGradient-9">
            <stop stop-color="#E2C8C0" offset="0%"></stop>
            <stop stop-color="#DD8093" stop-opacity="0.4" offset="100%"></stop>
        </linearGradient>
        <linearGradient x1="-0.0681632653%" y1="49.9952726%" x2="99.9759184%" y2="49.9952726%" id="linearGradient-10">
            <stop stop-color="#302E40" offset="0%"></stop>
            <stop stop-color="#9375A1" offset="100%"></stop>
        </linearGradient>
        <linearGradient x1="0.261557867%" y1="49.9410465%" x2="99.9358371%" y2="49.9410465%" id="linearGradient-11">
            <stop stop-color="#FFFFFF" offset="0%"></stop>
            <stop stop-color="#9375A1" offset="100%"></stop>
        </linearGradient>
        <linearGradient x1="0.0941140668%" y1="49.9355556%" x2="100.288305%" y2="49.9355556%" id="linearGradient-12">
            <stop stop-color="#E2C8C0" offset="0%"></stop>
            <stop stop-color="#DD8093" stop-opacity="0.4" offset="100%"></stop>
        </linearGradient>
        <linearGradient x1="-0.00150943849%" y1="49.9859695%" x2="99.9961821%" y2="49.9859695%" id="linearGradient-13">
            <stop stop-color="#DF8744" offset="0%"></stop>
            <stop stop-color="#EABA5C" offset="100%"></stop>
        </linearGradient>
        <linearGradient x1="0.123777403%" y1="50.0212366%" x2="100.048904%" y2="50.0212366%" id="linearGradient-14">
            <stop stop-color="#2A303D" offset="47.13%"></stop>
            <stop stop-color="#302E40" offset="100%"></stop>
        </linearGradient>
        <linearGradient x1="48.7404347%" y1="56.4907261%" x2="51.5916876%" y2="43.4740275%" id="linearGradient-15">
            <stop stop-color="#3D6658" offset="49.85%"></stop>
            <stop stop-color="#FFFFFF" stop-opacity="0.6" offset="100%"></stop>
        </linearGradient>
        <linearGradient x1="45.569164%" y1="51.2483441%" x2="54.7670291%" y2="48.7154379%" id="linearGradient-16">
            <stop stop-color="#C78E7F" offset="0%"></stop>
            <stop stop-color="#FFFFFF" stop-opacity="0.6" offset="100%"></stop>
        </linearGradient>
        <linearGradient x1="-0.0694118022%" y1="50.0190255%" x2="99.9964118%" y2="50.0190255%" id="linearGradient-17">
            <stop stop-color="#FFFFFF" offset="0%"></stop>
            <stop stop-color="#9375A1" offset="100%"></stop>
        </linearGradient>
    </defs>
    <g id="Page-1" stroke="none" stroke-width="1" fill="none" fill-rule="evenodd">
        <g id="message-sent">
            <g id="background">
                <g id="general">
                    <g id="figures">
                        <g id="figure2" transform="translate(7.000000, 287.000000)">
                            <path d="M1088.7,769.1 C1035.1,816.8 974.5,772.8 834.4,752.3 C797.9,747 755.9,743.2 707.3,743.1 C489.2,742.7 420.5,816.2 220.7,773.9 C85.1,745.2 48.8,696.8 37.8,680.8 C0.8,626.9 20.3,585.7 17,429.1 C13.3,248 -15.2,187.5 11.5,173.7 C66.9,144.9 180.2,409.9 402.5,430.5 C453.1,435.2 529.4,428.9 599.4,390.6 C634.8,371.2 644.3,356.9 750.7,253.6 C825.7,180.8 863.2,144.4 899.1,116.6 C971.9,60.4 1080.5,-23.5 1130.3,6.3 C1180,36 1122.3,150 1112.1,392.9 C1111.9,397.7 1111.7,402.4 1111.6,407 C1103.6,640.2 1147.2,717.1 1088.7,769.1 L1088.7,769.1 Z" id="Shape" fill="#EEEDEE"></path>
                            <path d="M1088.7,769.1 C1035.1,816.8 974.5,772.8 834.4,752.3 C813.2,716.9 801,675.4 801,631.1 C801,500.7 906.7,394.9 1037.2,394.9 C1063.2,394.9 1088.2,399.1 1111.5,406.9 C1103.6,640.2 1147.2,717.1 1088.7,769.1 L1088.7,769.1 Z" id="Shape" fill="#EBDEDE"></path>
                        </g>
                        <g id="figure1">
                            <path d="M1123.5,224.3 C1076.3,279.7 1043.9,271.9 945.2,339.1 C900.7,369.4 864.6,400.1 847.7,414.5 C846.9,415.1 836.7,423.9 825.9,433.5 C729.3,520 670.2,604.7 593.2,647.1 C495,701 386.5,676 373.9,672.9 C294.6,653.4 241.9,598.6 136.3,489.2 C90.4,441.6 60.9,411 42.2,382.8 C34.7,371.5 29,360.5 24.6,349 C2.4,290.4 -5.3,219.4 3.7,160.7 C11.3,111.2 30.8,70.5 63.4,53.3 C92,38.3 118.1,47.8 151.1,62.3 C152.1,62.7 153.1,63.2 154.1,63.6 C158,65.3 162,67.1 166.1,68.9 C167.5,69.5 168.9,70.1 170.3,70.8 C203.9,85.5 244.9,101.2 301,101.8 C405.8,103 424.4,49.9 504.9,19.5 C507.1,18.7 509.3,17.9 511.6,17.1 C525.8,12.2 541.8,8 560.5,4.8 C629.5,-6.8 685.4,4.5 737.8,24 C738.7,24.3 739.7,24.7 740.6,25 C742.1,25.6 743.6,26.2 745.2,26.8 C746.2,27.2 747.2,27.6 748.2,28 C845.4,66.4 932.2,129.8 1070.7,121.2 C1089.3,120 1150.4,115 1161.9,140.3 C1173.4,165.7 1131.3,215.2 1123.5,224.3 L1123.5,224.3 Z" id="Shape" fill="#EBDEDE"></path>
                            <path d="M116.8,275.4 C116.8,324.6 85.8,366.6 42.3,382.8 C34.7,371.5 29,360.5 24.6,349 C2.4,290.4 -5.3,219.4 3.7,160.7 C66.3,161.6 116.8,212.6 116.8,275.4 L116.8,275.4 Z" id="Shape" fill="#EEEDEE"></path>
                        </g>
                    </g>
                    <g id="posters" transform="translate(70.000000, 28.000000)">
                        <g id="poster2" transform="translate(771.000000, 0.000000)">
                            <path d="M229.5,12.7 L229.5,314.7 C229.5,321.8 223.7,327.6 216.6,327.6 L12.7,327.6 C5.5,327.6 -0.2,321.8 -0.2,314.7 L-0.2,12.7 C-0.2,5.6 5.6,-0.2 12.7,-0.2 L216.6,-0.2 C223.7,-0.2 229.5,5.6 229.5,12.7 L229.5,12.7 Z" id="Shape" fill="#F8E7E1"></path>
                            <g id="Group" transform="translate(64.000000, 84.000000)">
                                <g transform="translate(22.000000, 28.000000)" fill="#DDDDD7" id="Shape">
                                    <path d="M74.1,79.2 C65.7,80.5 56.2,81.4 45.8,81.5 C35,81.6 25.1,80.8 16.5,79.5 C14.8,67.5 12.8,55.2 10.6,42.5 C8.2,28.7 5.6,15.4 2.9,2.7 C17,3.4 75.4,3.4 88.8,2.7 C86.1,15.3 83.4,28.2 80.9,41.5 C78.4,54.3 76.2,66.9 74.1,79.2 L74.1,79.2 Z"></path>
                                    <path d="M44.3,84 C34.9,84 25.5,83.3 16.2,82 C15.1,81.8 14.2,81 14.1,79.9 C12.3,67.6 10.4,55.2 8.2,43 C5.9,29.8 3.3,16.4 0.5,3.2 C0.3,2.4 0.5,1.6 1,1.1 C1.5,0.5 2.3,0.2 3,0.2 C16.6,0.9 75.1,0.9 88.7,0.2 C89.5,0.2 90.2,0.5 90.7,1.1 C91.2,1.7 91.4,2.5 91.2,3.2 C88.4,16 85.7,29.1 83.3,42 C80.9,54.4 78.7,67.1 76.6,79.6 C76.4,80.7 75.6,81.5 74.5,81.7 C65,83.2 55.4,84 45.8,84.1 C45.3,84 44.8,84 44.3,84 L44.3,84 Z M18.7,77.3 C27.7,78.5 36.8,79.1 45.8,79 C54.5,78.9 63.3,78.2 72,77 C74,65 76.2,52.9 78.4,41.1 C80.7,29.2 83.1,17.2 85.7,5.4 C69,5.9 22.7,5.9 6,5.4 C8.6,17.6 10.9,29.9 13.1,42.2 C15.1,53.7 17,65.6 18.7,77.3 L18.7,77.3 Z"></path>
                                </g>
                                <path d="M38.5,107.5 C35.8,114.2 33.1,121 30.5,127.7 L103.8,127.7 C101.3,120.8 98.7,114 96.2,107.1 C87.5,108.4 77.6,109.3 66.7,109.4 C56.3,109.5 46.9,108.7 38.5,107.5 L38.5,107.5 Z" id="Shape" fill="#EEEDEE"></path>
                                <g transform="translate(20.000000, 125.000000)" fill="#DDDDD7" id="Shape">
                                    <path d="M10.5,2.7 C7.9,31.2 5.3,59.6 2.7,88.1 L92,88.1 C89.3,59.6 86.5,31.2 83.8,2.7 L10.5,2.7 L10.5,2.7 Z"></path>
                                    <path d="M91.9,90.6 L2.6,90.6 C1.9,90.6 1.2,90.3 0.8,89.8 C0.4,89.3 0.1,88.6 0.2,87.9 L8,2.5 C8.1,1.2 9.2,0.2 10.5,0.2 L83.7,0.2 C85,0.2 86.1,1.2 86.2,2.5 L94.4,87.9 C94.5,88.6 94.2,89.3 93.8,89.8 C93.4,90.3 92.6,90.6 91.9,90.6 L91.9,90.6 Z M5.4,85.6 L89.2,85.6 L81.5,5.2 L12.8,5.2 L5.4,85.6 L5.4,85.6 Z"></path>
                                </g>
                                <path d="M27.1,208.3 C29,194.7 31.4,178.8 34.4,160.3 C35.9,151.1 37.9,139.3 44.4,136.6 C45.4,136.2 47.2,135.5 48.8,136.2 C54.3,138.8 50.2,154.7 49.3,173.4 C48.9,181.9 49.1,193.9 51.7,208.3 L27.1,208.3 L27.1,208.3 Z" id="Shape" fill="#EEEDEE"></path>
                                <path d="M106.7,208.3 C104.3,188.9 101.8,172.7 99.9,160.3 C98.7,152.6 96.7,141.1 90.6,139.6 C90.2,139.5 88.2,139 86.4,140.1 C81,143.3 84.6,157.2 85.9,170.2 C86.8,179.3 87,192.3 83.6,208.4 C91.3,208.3 99,208.3 106.7,208.3 L106.7,208.3 Z" id="Shape" fill="#EEEDEE"></path>
                                <path d="M31,37.8 C32.9,49.1 35.2,62.3 38.2,77.7 C39.7,85.4 41.6,95.2 47.6,97.3 C48.5,97.6 50.2,98.2 51.7,97.5 C56.6,95.1 51.7,81.4 51,64.6 C50.7,57.9 51.1,48.6 53.7,37.4 C46.2,37.5 38.6,37.6 31,37.8 L31,37.8 Z" id="Shape" fill="#EEEDEE"></path>
                                <path d="M103.8,38.2 C101.6,49.6 98.8,63 95.5,78.6 C93.8,86.3 91.6,96.3 86.1,98.1 C85.3,98.4 83.8,98.8 82.4,98.1 C77.6,95.7 82.2,82.2 84.2,65 C84.9,58.5 85.6,49.2 84.9,37.7 C91.2,37.8 97.5,38 103.8,38.2 L103.8,38.2 Z" id="Shape" fill="#EEEDEE"></path>
                                <path d="M78.7,208.3 C78.3,191.9 78.5,178.7 78.7,169.9 C79.1,152.7 79.9,142.2 74.4,138.4 C71.9,136.7 68.4,136.7 65.8,138 C61.1,140.5 59.1,147.7 57.6,171.6 C57,181.1 56.5,193.5 56.6,208.3 C64,208.3 71.4,208.3 78.7,208.3 L78.7,208.3 Z" id="Shape" fill="#EEEDEE"></path>
                                <path d="M59.1,37.6 C59.4,50.8 59.4,61.2 59.4,67.7 C59.4,85.4 59,94.2 63.8,97.4 C65.7,98.7 68.5,99.1 70.7,98 C74.8,96 76.2,89.4 77.4,66.6 C77.8,59.5 78.2,49.9 78.4,38.3 C72,38.1 65.5,37.8 59.1,37.6 L59.1,37.6 Z" id="Shape" fill="#EEEDEE"></path>
                                <path d="M30.9,59.2 L0.2,30.5 C8.1,31.8 16.1,33.1 24,34.4" id="Shape" fill="#DDDDD7"></path>
                                <polygon id="Shape" fill="#DDDDD7" points="63.2 31.2 55.4 2.9 82.4 2.9 76.2 30.9"></polygon>
                                <path d="M112.7,30.5 C121,31.5 129.3,32.4 137.6,33.4 C138.5,33.5 139.2,34.1 139.6,35.1 L152.7,66.6 C153.1,67.6 153,68.8 152.5,69.7 C142.3,86.5 132.1,103.4 121.8,120.2 C120.6,122.3 117.9,121.7 117.3,119.3 C117,117.8 116.6,116.3 116.3,114.9 C116.1,114.1 116.2,113.3 116.5,112.6 C123,98.4 129.5,84.2 136,70 L136,70 L126.6,49.5 C126.1,48.3 124.9,47.7 123.8,48 L110.7,51.7 C108.9,52.2 107.3,50.4 107.6,48.2 C108.3,43.1 109.1,38 109.8,33 C110.2,31.4 111.4,30.3 112.7,30.5 L112.7,30.5 Z" id="Shape" fill="#DDDDD7"></path>
                                <path d="M117.1,217.2 L17.1,217.2 C15.8,217.2 14.7,216.1 14.7,214.8 L14.7,214.4 C14.7,213.1 15.8,212 17.1,212 L117.1,212 C118.4,212 119.5,213.1 119.5,214.4 L119.5,214.8 C119.5,216.1 118.4,217.2 117.1,217.2 L117.1,217.2 Z" id="Shape" fill="#DDDDD7"></path>
                                <path d="M82.6,5.5 L54.8,5.5 C53.5,5.5 52.4,4.4 52.4,3.1 L52.4,2.7 C52.4,1.4 53.5,0.3 54.8,0.3 L82.6,0.3 C83.9,0.3 85,1.4 85,2.7 L85,3.1 C85,4.4 83.9,5.5 82.6,5.5 L82.6,5.5 Z" id="Shape" fill="#DDDDD7"></path>
                            </g>
                            <path d="M94.4,68.4 C80.1,60.1 67.2,105.3 64.9,114.1 L64.9,114.1 C67.6,104.4 92.3,13.5 61.5,15.6 C43.4,16.8 46.4,47.5 52.7,74.4 C45.2,54.5 34.6,36.2 23.1,43.5 C13.1,49.8 19.9,64.3 30.6,78.5 C30,78.2 29.4,77.8 28.8,77.5 C22,74 10.3,68 -0.2,68.5 L-0.2,116.2 C15.2,120.7 38.1,120.7 64.7,115.3 C64.6,115.5 64.6,115.6 64.6,115.6 C64.6,115.6 64.8,115.5 65.1,115.2 C65.2,115.2 65.4,115.1 65.5,115.1 C65.5,115 65.4,115 65.4,114.9 C71.4,109.7 109,76.9 94.4,68.4 L94.4,68.4 Z" id="Shape" fill="#FFFFFF"></path>
                            <path d="M55.8,302.8 C55.5,305.7 54,317 48.8,327.8 L12.8,327.8 C5.6,327.8 -0.1,322 -0.1,314.9 L-0.1,184.9 C3,186.1 5.6,187.7 7.6,189.8 C21.1,204.6 -0.4,239.3 13.1,249 C19.8,253.8 26.4,246.4 36.8,250.8 C52.5,257.6 57.8,284.1 55.8,302.8 L55.8,302.8 Z" id="Shape" fill="#EEEDEE"></path>
                            <path d="M229.5,12.7 L229.5,54.2 C216.9,38.8 210.3,17.6 205.3,-0.3 L216.5,-0.3 C223.7,-0.2 229.5,5.6 229.5,12.7 L229.5,12.7 Z" id="Shape" fill="#EEEDEE"></path>
                        </g>
                        <g id="poster1" transform="translate(0.000000, 470.000000)">
                            <path d="M204,8.7 L204,203.5 C204,208.1 198.9,211.9 192.5,211.9 L11.6,211.9 C5.2,211.9 0.1,208.2 0.1,203.5 L0.1,8.7 C0.1,4.1 5.2,0.3 11.6,0.3 L192.4,0.3 C198.8,0.3 204,4.1 204,8.7 L204,8.7 Z" id="Shape" fill="#F8E7E1"></path>
                            <path d="M29.7,110.5 C32,149.6 60.6,180.5 95.5,180.5 C130.4,180.5 159,149.6 161.3,110.5 L29.7,110.5 L29.7,110.5 Z" id="Shape" fill="#FFFFFF"></path>
                            <path d="M160,111.4 L30.7,111.4 C29,111.4 27.6,110 27.6,108.3 L27.6,107.4 C27.6,105.7 29,104.3 30.7,104.3 L160,104.3 C161.7,104.3 163.1,105.7 163.1,107.4 L163.1,108.3 C163.1,110 161.7,111.4 160,111.4 L160,111.4 Z" id="Shape" fill="#DDDDD7"></path>
                            <path d="M114.8,185.6 L78.8,185.6 C77.1,185.6 75.7,184.2 75.7,182.5 L75.7,180.7 C75.7,179 77.1,177.6 78.8,177.6 L114.8,177.6 C116.5,177.6 117.9,179 117.9,180.7 L117.9,182.5 C117.8,184.3 116.4,185.6 114.8,185.6 L114.8,185.6 Z" id="Shape" fill="#DDDDD7"></path>
                            <path d="M137.2,161.9 C136.1,161.9 135,161.1 134.8,160 C134.5,158.7 135.3,157.3 136.7,157 L168.3,149.6 C173.2,145.8 175.3,139.3 173.4,133.6 C171.2,127.1 164.5,123.1 157.5,124.1 C156.1,124.3 154.9,123.3 154.7,122 C154.5,120.6 155.5,119.4 156.8,119.2 C166.2,117.9 175.2,123.3 178.1,132.1 C180.8,140 177.8,149.1 170.8,154.1 C170.5,154.3 170.2,154.4 169.9,154.5 L137.8,162 C137.6,161.9 137.4,161.9 137.2,161.9 L137.2,161.9 Z" id="Shape" fill="#DDDDD7"></path>
                            <circle id="Oval" fill="#DDDDD7" cx="53" cy="127" r="6"></circle>
                            <circle id="Oval" fill="#DDDDD7" cx="73" cy="158" r="6"></circle>
                            <circle id="Oval" fill="#DDDDD7" cx="132" cy="127" r="6"></circle>
                            <circle id="Oval" fill="#DDDDD7" cx="93" cy="127" r="6"></circle>
                            <circle id="Oval" fill="#DDDDD7" cx="113" cy="158" r="6"></circle>
                            <path d="M101.8,92 C89.5,83.6 51,56.2 55.7,41.2 C56.5,38.8 58.6,36.1 61.4,34.9 C72.6,30.1 89.7,53.3 89.7,53.3 C81.1,33.4 86,14.9 95.4,10.2 C101.7,7 111.5,9.4 115.8,15.9 C124.2,28.4 112.6,56.5 112.6,56.5 L112.6,56.5 C121.1,37.6 132.9,27.3 140.8,29.8 C144.3,30.9 147.3,34.6 148.4,38.6 C149,40.8 150.4,47.6 140.4,61.4 C134.7,69.1 123.2,82.1 101.8,92 L101.8,92 Z" id="Shape" fill="#FFFFFF"></path>
                        </g>
                    </g>
                    <g id="lamps" transform="translate(137.000000, 17.000000)">
                        <path d="M18.6,211.7 C18.6,213.8 18.7,215.9 18.7,218 C18.7,218.8 18,219.5 17.2,219.5 C16.4,219.5 15.7,218.8 15.7,218 C15.7,215.9 15.6,213.8 15.6,211.7 C15.2,183.5 14.9,155.3 14.6,127.7 C14.2,89.8 14,63.2 14.1,45.2 C15.1,45.6 16.1,46.1 17.1,46.5 C17.1,68.3 17.3,98.2 17.6,127.7 C17.9,155.3 18.2,183.5 18.6,211.7 L18.6,211.7 Z" id="Shape" fill="#FFFFFF"></path>
                        <path d="M600.6,7 C601.5,7.3 602.5,7.7 603.4,8 C595.1,31.5 580.6,52.5 561.3,68.3 C535.2,89.6 502.7,99.5 472.1,95.5 C424.9,89.3 385.1,50.9 371.7,1.3 L382.5,279.5 L382.7,285.7 C382.7,285.7 382.7,285.7 382.7,285.8 C382.7,286.6 382.1,287.3 381.2,287.3 L381.1,287.3 C380.3,287.3 379.6,286.7 379.6,285.9 L379.4,279.6 L369.4,21 C364.5,68 348.7,112.1 323.3,148.1 C293.4,190.5 253.9,216.7 215,220 C183.4,222.7 151.5,210 120.1,182.3 C77.8,145 45.8,88.7 28.9,51.7 C30.3,52.3 31.7,52.9 33.1,53.6 C36.9,61.8 41.5,71 46.8,80.7 C62.6,109.7 88.4,150.4 122,180.1 C152.7,207.2 183.9,219.7 214.7,217.1 C252.8,213.9 291.4,188.1 320.8,146.4 C349.1,106.2 365.5,55.7 367.7,2.4 C369.9,1.6 372.1,0.8 374.4,3.55271368e-14 C387.3,48.8 426.3,86.5 472.4,92.5 C502.2,96.4 533.8,86.7 559.3,65.9 C578.4,50.6 592.5,30 600.6,7 L600.6,7 Z" id="Shape" fill="#FFFFFF"></path>
                        <path d="M611.1,143.8 L611.1,150.1 C611.1,150.9 610.4,151.6 609.6,151.6 C608.8,151.6 608.1,150.9 608.1,150.1 L608.1,143.8 L608.1,9.8 C609.1,10.2 610.1,10.6 611.1,11 L611.1,143.8 L611.1,143.8 Z" id="Shape" fill="#FFFFFF"></path>
                        <path d="M8.9,246.2 L8.9,219.9 C8.9,215.4 12.6,211.6 17.2,211.6 L17.2,211.6 C21.7,211.6 25.5,215.3 25.5,219.9 L25.5,246.2 C24.9,246.8 22,249.6 17.2,249.6 C12.5,249.6 9.5,246.7 8.9,246.2 L8.9,246.2 Z" id="Shape" fill="#DDDDD7"></path>
                        <circle id="Oval" fill="#FFFFFF" cx="17.5" cy="254.5" r="17.5"></circle>
                        <path d="M373,314.1 L373,287.8 C373,283.3 376.7,279.5 381.3,279.5 L381.3,279.5 C385.8,279.5 389.6,283.2 389.6,287.8 L389.6,314.1 C389,314.7 386.1,317.5 381.3,317.5 C376.6,317.5 373.6,314.6 373,314.1 L373,314.1 Z" id="Shape" fill="#DDDDD7"></path>
                        <path d="M601.3,178.3 L601.3,152 C601.3,147.5 605,143.7 609.6,143.7 L609.6,143.7 C614.1,143.7 617.9,147.4 617.9,152 L617.9,178.3 C617.3,178.9 614.4,181.7 609.6,181.7 C604.9,181.7 601.9,178.8 601.3,178.3 L601.3,178.3 Z" id="Shape" fill="#DDDDD7"></path>
                        <circle id="Oval" fill="#FFFFFF" cx="381.5" cy="322.5" r="17.5"></circle>
                        <circle id="Oval" fill="#FFFFFF" cx="609.5" cy="186.5" r="17.5"></circle>
                    </g>
                </g>
            </g>
            <g id="main" transform="translate(105.000000, 222.000000)">
                <g id="general_1_">
                    <g id="chair" transform="translate(468.000000, 337.000000)">
                        <path d="M230,220.4 C157.5,215.8 85,211.2 12.6,206.7 C13.8,173.1 21.3,113.5 60.5,59.5 C74.1,40.7 93.4,15 127.5,5.2 C136.3,2.7 159.4,-3.6 184.9,6.7 C188.4,8.1 199.3,12.5 209.6,21.7 C214.9,26.4 220,32.4 223.9,39.8 C229.4,50.5 230.5,60.9 229.6,71.7 C228.7,83.8 225.4,96.4 223.1,110.3 C218.9,136.3 217.5,173.1 230,220.4 L230,220.4 Z" id="Shape" fill="#EABA5C"></path>
                        <path d="M217.6,219.8 C145.1,215.2 72.6,210.6 0.1,206.1 C0.4,196.6 1.3,184.9 3.2,171.9 C8.1,139.1 19.8,97.5 47.9,58.9 C61.5,40.1 80.8,14.4 114.9,4.7 C123.7,2.2 146.8,-4.1 172.3,6.2 C177.6,8.3 200.1,17.4 211.3,39.3 C218.1,52.6 218.1,65.5 216.1,79.3 C214.7,88.9 212.3,99 210.5,109.9 C206.5,135.7 205.1,172.6 217.6,219.8 L217.6,219.8 Z" id="Shape" fill="#DF8744"></path>
                        <path d="M217.6,219.8 C145.1,215.2 72.6,210.6 0.1,206.1 C0.4,196.6 1.3,184.9 3.2,171.9 L216.1,79.2 C214.7,88.8 212.3,98.9 210.5,109.8 C206.5,135.7 205.1,172.6 217.6,219.8 L217.6,219.8 Z" id="Shape" fill="#2A303D" opacity="0.05"></path>
                        <path d="M229.5,71.7 L183.8,33.9 L209.5,21.6 C214.8,26.3 219.9,32.3 223.8,39.7 C229.3,50.4 230.4,60.9 229.5,71.7 L229.5,71.7 Z" id="Shape" fill="#253041" opacity="0.06"></path>
                    </g>
                    <g id="woman" transform="translate(323.000000, 141.000000)">
                        <g id="hair" transform="translate(64.000000, 19.000000)">
                            <path d="M173.3,9.3 C172,14 161.3,55.3 184.5,77.6 C187.3,80.3 191,83 195.7,85.3 C192.7,88.5 188.7,93.7 186.7,101 C184.7,108.2 186.3,112.1 185.8,123.1 C185.2,138.5 182.1,136.6 183.1,144.8 C184.8,159.4 193.2,168.9 199.4,175.7 C201,177.5 202.2,178.7 202.5,179 C223.4,200 232.5,235.1 251.6,242 C270.2,248.8 302.6,230.2 309.5,203.2 C312.6,191.2 311.3,174.8 302.1,163.2 C290.8,149 275.2,151.2 272.6,140.7 C269.6,128.4 289.9,119.8 286.4,107.8 C283.6,98.5 271.3,100.5 258.4,84.3 C253.8,78.5 249.3,72.9 249.4,65.3 C249.5,56.4 255.9,53.1 256.1,42.9 C256.3,36.2 253.6,31.2 251.6,27.2 C241.9,7.8 220,2.2 216.9,1.5 C194.6,-3.8 176.7,7.1 173.3,9.3 L173.3,9.3 Z" id="Shape" fill="url(#linearGradient-1)"></path>
                            <path d="M141.9,102.5 C160.1,91.1 128.8,21 128.8,21 C91.4,38.7 83.1,51.2 84,59.8 C84.8,68.2 94.1,70.1 95.6,81 C97.7,96.3 81.1,101.9 80.9,118.7 C80.8,135.4 97.4,142.9 94,150.4 C90.2,158.8 69.7,149.2 47.7,156.6 C21.1,165.5 -2.3,197.2 0.2,229.1 C0.4,231.5 3.2,262.5 24.3,273.1 C43.6,282.8 53.6,263 81.1,271.7 C94.6,275.9 109.4,286.1 127.1,280.3 C127.1,280.3 127.3,280.2 127.5,280.1 C164,268 179.1,224.7 180.1,194.6 C181.4,153.8 157,125.2 150,117.6 C147.7,112.6 144.9,107.4 141.9,102.5 L141.9,102.5 Z" id="Shape" fill="url(#linearGradient-2)"></path>
                        </g>
                        <g id="body" transform="translate(138.000000, 113.000000)">
                            <path d="M175.4,113.3 L175.4,113.3 C174.7,117.3 173.8,120.7 173.3,123 C173.3,123.1 173.2,123.3 173.2,123.4 C173,124.4 172.7,125.5 172.4,126.6 C169.8,136.9 159.7,171.5 118.3,302.5 C97.1,301.5 76,300.5 54.8,299.4 C45.7,298.8 36.7,298.2 27.6,297.6 C28.5,279.5 25.3,268.2 22,261.1 C22,261.1 16.8,244.2 11.5,226.1 L11.5,225.9 C6.6,208.9 1.5,190.9 0.6,184.3 C0.5,183.8 0.5,183.4 0.4,183.1 C0.2,181.1 0.2,179.2 0.2,177.5 L0.2,176.9 L0.2,176 C0.2,175.6 0.2,175.3 0.3,174.9 C0.3,174.6 0.4,174.2 0.4,173.9 C0.4,173.6 0.5,173.2 0.5,172.9 C0.5,172.6 0.6,172.2 0.6,171.9 C1,169.5 1.6,167.4 2.3,165.4 C2.4,165.1 2.5,164.7 2.7,164.4 C3.3,162.8 4,161.1 4.8,159.5 C4.9,159.3 5,159.1 5,158.9 C5.6,157.4 6.3,155.9 7,154.2 C7.1,154 7.2,153.8 7.2,153.6 C7.8,152.1 8.3,150.5 8.9,148.8 C9,148.5 9.1,148.2 9.1,148 C9.3,147.5 9.4,146.9 9.5,146.4 C9.6,146.1 9.6,145.8 9.7,145.6 C9.7,145.5 9.8,145.3 9.8,145.2 C9.9,145 9.9,144.7 10,144.5 C10.7,141.4 11.4,137.9 11.8,133.8 C14.4,115.2 11.9,106.7 12.5,100.9 L12.5,100.4 C12.5,100.1 12.6,99.8 12.6,99.5 C12.6,99.3 12.7,99.1 12.8,98.8 C12.8,98.7 12.9,98.5 12.9,98.4 C13,98.2 13,98 13.1,97.8 C13.1,97.7 13.2,97.5 13.3,97.4 C13.4,97.1 13.6,96.8 13.7,96.6 C14.1,95.9 14.5,95.3 15.1,94.6 C18,91.4 23.3,89 33.4,85 C34.7,84.5 36,83.9 37.5,83.4 C37.5,83.4 38.6,83 42,81.7 C42.9,81.4 43.8,81 44.7,80.6 C53.6,76.9 62.3,71.7 67.5,67.5 C67.8,67.3 68.1,67 68.4,66.8 C69,66.3 69.5,65.9 69.9,65.5 C72.9,62.7 75.2,59.2 76.8,55.5 C82.3,43 81.3,27.2 80.5,20 L115.5,7.7 L115.5,11 C115.6,39.4 120.4,55.4 126.9,64.3 C127.1,64.6 127.4,64.9 127.6,65.2 C130.2,68.5 133,70.7 136,72.2 C136.6,72.5 137.1,72.7 137.7,73 C149,77.7 160.9,72.6 169.6,81.2 C177.9,88.9 177.2,102.9 175.4,113.3 L175.4,113.3 Z" id="Shape" fill="#E2C8C0"></path>
                            <path d="M102.3,0.4 C108.7,2.5 110,18 106.3,29.2 C100.2,47.5 80.5,54.2 77.2,55.3 C82.7,42.8 81.7,27 80.9,19.8 C87.8,6.6 96.9,-1.4 102.3,0.4 L102.3,0.4 Z" id="Shape" fill="#253041" opacity="0.06"></path>
                            <path d="M65.7,147.4 C66.4,141.7 67.3,128.1 60.3,113.1 C52.2,95.8 38.6,87.5 33.7,84.8 C34.4,84.5 35,84.3 35.7,84 C36.4,83.7 37.1,83.5 37.8,83.2 C37.8,83.2 38.9,82.8 42.3,81.5 C43.2,81.2 44.1,80.8 45,80.4 C54.4,85.3 59.3,91 62,95.3 C69.6,107.2 72.3,118.3 72.3,118.3 C73.1,121.7 73.8,125.8 77.3,128.5 C81,131.3 84.2,129.8 85.6,132 C88,136 81.5,147.9 72.6,148.8 C69.7,149.1 67.2,148.1 65.7,147.4 L65.7,147.4 Z" id="Shape" fill="#253041" opacity="0.06"></path>
                        </g>
                        <g id="finger_left" transform="translate(21.000000, 199.000000)">
                            <polygon id="Shape" fill="#E2C8C0" points="-0.5 27.6 20.1 -0.2 22.4 5.4 13.4 18.9"></polygon>
                            <polygon id="Shape" fill="#253041" opacity="0.06" points="-0.5 27.6 20.1 -0.2 22.4 5.4 13.4 18.9"></polygon>
                        </g>
                        <g id="shirt" transform="translate(138.000000, 184.000000)">
                            <path d="M177.7,9.9 C177,20.7 176.2,31.5 175.5,42.2 C175.5,42.2 175.5,42.2 175.5,42.3 C175.3,43.2 175.1,44 175,44.9 C174.5,47.3 173.9,49.7 173.4,52 C173.4,52.1 173.3,52.3 173.3,52.4 C172.9,54.2 172.6,55.5 172.5,55.6 C172.3,56.5 172.5,58.9 174.4,64.8 C172.3,76.5 169.9,88.4 167.3,100.6 C164.8,112.7 162,125 159,137.5 C156.8,146.7 154.5,156.1 152,165.5 C150.3,171.9 148.6,178.3 146.9,184.5 C145.5,189.5 144.1,194.4 142.7,199.3 C139.5,210.3 136.3,221 133,231.5 C113.6,231.1 97.8,230.5 86.7,230 C79,229.7 70.8,229.2 55,228.4 C50.5,228.2 46,227.9 41.6,227.7 C37,227.5 32.4,227.2 27.9,227 L27.9,226.6 L27.9,225.2 C27.8,221.1 26.8,214.7 25.1,207 C23.4,199.3 21.2,190.2 18.7,180.8 C16.5,172.3 14.1,163.5 11.8,155.1 L11.8,154.9 C6.6,135.9 1.8,119.2 0.9,113.3 C0.8,112.8 0.8,112.4 0.7,112.1 C0.5,110.1 0.5,108.2 0.5,106.5 L0.5,105.9 L0.5,105 C0.5,104.6 0.5,104.3 0.6,103.9 C0.6,103.6 0.7,103.2 0.7,102.9 C0.7,102.6 0.8,102.2 0.8,101.9 C0.8,101.6 0.9,101.2 0.9,100.9 C1.3,98.5 1.9,96.4 2.6,94.4 C2.7,94.1 2.8,93.7 3,93.4 C3.6,91.8 4.3,90.1 5.1,88.5 C5.2,88.3 5.3,88.1 5.3,87.9 C5.9,86.4 6.6,84.9 7.3,83.2 C7.4,83 7.5,82.8 7.5,82.6 C8.1,81.1 8.6,79.5 9.2,77.8 C9.3,77.5 9.4,77.2 9.4,77 C9.6,76.5 9.7,75.9 9.8,75.4 C9.9,75.1 9.9,74.8 10,74.6 C10,74.5 10.1,74.3 10.1,74.2 C10.2,74 10.2,73.7 10.3,73.5 C11,70.4 11.5,67.3 12.1,62.8 C14.7,44.2 12.2,35.7 12.8,29.9 L12.8,29.4 C12.8,29.1 12.9,28.8 12.9,28.5 C12.9,28.3 13,28.1 13.1,27.8 C13.1,27.7 13.2,27.5 13.2,27.4 C13.3,27.2 13.3,27 13.4,26.8 C13.4,26.7 13.5,26.6 13.5,26.4 L13.5,26.4 C13.6,26.1 13.8,25.8 13.9,25.6 C14.4,24.8 14.9,24.2 15.3,23.6 C16.9,21.4 21.6,15 29.8,12 C30.5,11.7 31.3,11.5 32.1,11.3 C34.2,10.8 37.7,10.1 42.2,10.7 C50.7,17.1 61.9,27.7 67.9,43.7 C71.9,54.3 71.5,61.4 75.7,62.7 C82.8,64.8 91.2,47.3 111.5,25.8 C121.8,14.9 131.3,7 137.8,2 C140.2,1.2 144.8,-4.54747351e-13 150.7,-4.54747351e-13 C153.7,-4.54747351e-13 157.1,0.3 160.7,1.3 C163.8,2.1 166.7,3.4 167,3.5 C167.1,3.6 167.2,3.6 167.4,3.7 C167.6,3.8 167.7,3.9 167.9,3.9 C168,3.9 168.1,4 168.2,4 C172.5,5.7 175.6,8.1 177.7,9.9 L177.7,9.9 Z" id="Shape" fill="#8376A2"></path>
                            <path d="M142.6,199.3 C139.4,210.3 136.2,221 132.9,231.5 C113.5,231.1 97.7,230.5 86.6,230 C78.9,229.7 70.7,229.2 54.9,228.4 C50.4,228.2 45.9,227.9 41.5,227.7 C36.9,227.5 32.3,227.2 27.8,227 L27.8,226.6 L27.8,225.2 C27.7,221.1 26.7,214.7 25,207 C42,205.6 103.4,201.7 142.6,199.3 L142.6,199.3 Z" id="Shape" fill="url(#linearGradient-3)" opacity="0.4"></path>
                        </g>
                        <g id="smartphone" transform="translate(194.000000, 297.000000)">
                            <path d="M66,38.8 L66,38.8 C66,38.6 66,38.5 65.9,38.3 L33.5,1.5 C32.6,0.5 29.9,0.2 27.4,0.7 L3.9,6 C2.3,6.4 1.3,7.1 1.2,7.8 L1.2,7.8 C1.2,7.9 0.4,11.2 0.4,11.2 L3.3,10.3 L30.5,36.6 L37,42.8 C37.7,43.5 39.9,43.8 42,43.4 L62.6,40.2 L65.3,42.2 L66,38.8 L66,38.8 Z" id="Shape" fill="#BACFDA"></path>
                            <path d="M65.1,41.9 L32.7,5.1 C31.8,4.1 29.1,3.8 26.6,4.3 L3.1,9.6 C1.5,10 0.5,10.7 0.4,11.4 L0.4,11.4 L0.4,11.8 L0.4,11.8 C0.5,11.9 0.5,12.1 0.7,12.2 L7.7,18.9 L15.3,26.3 L29.7,40.2 L36.2,46.4 C36.9,47.1 39.1,47.4 41.2,47 L62.3,43.7 C63.9,43.4 65,42.9 65.3,42.4 C65.3,42.3 65.2,42.1 65.1,41.9 L65.1,41.9 Z" id="Shape" fill="url(#linearGradient-4)"></path>
                        </g>
                        <g id="hand_right" transform="translate(196.000000, 184.000000)">
                            <path d="M173.9,165.6 C173.7,178.8 170.2,188.5 162.2,194.6 C142.6,209.4 107.9,195 88.8,184.5 C84.9,182.4 81.7,180.4 79.4,178.9 C74.6,175.8 71.1,172.9 68.6,169.9 C65.8,166.6 64.3,163.4 63.7,159.9 C63.2,156.9 63.5,153.7 64.3,150.7 C66.2,143.2 71.6,136.5 78.3,134.2 C83.2,132.5 88,133.8 97.3,136.4 C98.6,136.8 99.8,137.1 100.9,137.5 C114.2,141.8 119,146.4 121.9,144.2 C125.6,141.4 121.8,131.1 117.4,118.5 C114.7,110.7 111.8,104.9 109.2,100.6 C104.9,93.5 101.1,90.6 99.5,89.4 C95.3,86.4 93.7,86.5 91.7,84.9 C85.8,80.2 84.2,66.5 97.9,30.3 C100.9,22.4 104.6,13.4 109.1,3.2 C109.2,3.3 109.3,3.3 109.5,3.4 C109.7,3.5 109.8,3.6 110,3.6 C110.1,3.6 110.2,3.7 110.3,3.7 C112.1,4.6 114.7,5.9 117.4,7.7 C132.6,17.7 139.8,33.2 143.7,44.2 C144.3,46 144.9,47.6 145.3,49.1 C161.5,99.5 174.2,139.3 173.9,165.6 L173.9,165.6 Z" id="Shape" fill="#8376A2"></path>
                            <path d="M173.9,165.6 C173.7,178.8 170.2,188.5 162.2,194.6 C138.6,212.3 93.2,188 79.4,178.9 C74.6,175.8 71.1,172.9 68.6,169.9 C83.8,175.3 112.6,182.8 146.2,175.2 C156.9,172.7 166.2,169.2 173.9,165.6 L173.9,165.6 Z" id="Shape" fill="url(#linearGradient-5)" opacity="0.4"></path>
                            <path d="M143.8,44.2 C132.6,46.7 123.8,46.7 116.9,44.9 C107.5,42.6 101.5,37 97.9,30.3 C92.8,20.8 92.3,8.8 92.8,-0.3 C95.8,-0.3 99.2,5.55111512e-17 102.8,1 C105.9,1.8 108.8,3.1 109.1,3.2 C109.2,3.3 109.3,3.3 109.5,3.4 C109.7,3.5 109.8,3.6 110,3.6 C110.1,3.6 110.2,3.7 110.3,3.7 C112.1,4.6 114.7,5.9 117.4,7.7 C132.7,17.7 139.9,33.2 143.8,44.2 L143.8,44.2 Z" id="Shape" fill="url(#linearGradient-6)" opacity="0.21"></path>
                            <g id="Group" transform="translate(0.000000, 114.000000)">
                                <path d="M87.8,53.2 C84.9,54.7 81.8,53 78.2,50.5 C72.9,46.8 66.7,41.1 58.8,40.5 C57.8,40.4 56.8,40.4 55.8,40.5 C55.8,40.5 42.7,41.7 36.5,41.2 C36.5,41.2 35.6,41.1 34.4,41 C34,41 33.7,40.9 33.3,40.9 C25.2,40.3 17.5,39.8 12.6,38.7 C12.2,38.6 11.9,38.5 11.5,38.4 C10.3,38.1 9.3,37.7 8.6,37.2 C8.2,36.9 7.9,36.6 7.7,36.3 C7.2,35.4 7.4,34.8 7.2,33.7 C6.9,31.6 5.9,31.4 6.2,29.9 C6.2,29.6 6.4,28.5 7.4,27.9 C7.9,27.6 8.4,27.6 8.9,27.7 L8.9,27.7 C9.5,27.8 10,28 10.2,28 L10.3,28 L10.3,28 C9.9,27.7 6.6,26.9 6.1,25 C5.9,24.1 6.3,23 7,22.4 C7.9,21.7 9.1,21.9 11.1,22.6 C11.9,22.9 12.9,23.2 14,23.5 C14.2,23.6 14.5,23.6 14.7,23.7 C20.8,25.6 25.2,25.8 26.4,25.9 C28.7,26 30.5,25.9 31.7,25.7 C24.5,23.4 18.9,21.6 14.5,20 C13.5,19.6 12.5,19.3 11.6,19 C4.9,16.5 1.9,15 0.9,14 C0.6,13.7 0.4,13.4 0.5,13.2 C0.6,12.5 2.8,12.3 4.3,12.2 C7.5,11.9 10.2,12.5 12.6,13.3 C13.6,13.6 14.5,14 15.5,14.3 C15.7,14.4 15.9,14.4 16.1,14.5 C18.8,15.5 28.2,17.6 33.8,19 C36.6,19.7 37.9,20.2 39.9,19.9 C40.6,19.8 41.9,19.6 43.1,19 C43.8,18.6 44.5,18.1 44.9,17.3 C46.5,14.8 45.1,11.3 43.8,9.5 C42.4,7.4 41.3,7.7 39,5 C38,3.8 36.7,2 36.4,0.8 C36.3,0.4 36.3,0.1 36.4,-0.1 C37,-0.8 40,1 43,2.7 C47.1,5.1 49.1,6.2 50.2,7.6 C53.2,11.2 52.2,14.4 55.4,17.7 C56.8,19.2 58.5,20.3 58.5,20.3 C59.7,21 60.7,21.6 61.4,21.9 C67.2,24.6 80.1,27.9 87.3,33.4 C89.4,35 90.9,36.8 91.7,38.7 C93.8,44 91.8,51.2 87.8,53.2 L87.8,53.2 Z" id="Shape" fill="#E2C8C0"></path>
                                <path d="M58.8,40.6 C57.8,40.5 56.8,40.5 55.8,40.6 C55.8,40.6 42.7,41.8 36.5,41.3 C36.5,41.3 35.6,41.2 34.4,41.1 C34,41.1 33.7,41 33.3,41 C25.2,40.4 17.5,39.9 12.6,38.8 C24,36.3 48.7,32 57.8,39.6 C58.3,40 58.6,40.3 58.8,40.6 L58.8,40.6 Z" id="Shape" fill="url(#linearGradient-7)" opacity="0.33"></path>
                                <path d="M47.8,15 C46.7,17.8 44.9,18.9 43.2,19.4 C43.9,19 44.6,18.5 45,17.7 C46.6,15.2 45.2,11.7 43.9,9.9 C42.5,7.8 41.4,8.1 39.1,5.4 C38.1,4.2 36.8,2.4 36.5,1.2 C40.5,3.7 49.7,10.1 47.8,15 L47.8,15 Z" id="Shape" fill="#253041" opacity="0.06"></path>
                                <path d="M31.9,26.1 C24.7,23.8 19.1,22 14.7,20.4 C13.7,20 12.7,19.7 11.8,19.4 C5.1,16.9 2.1,15.4 1.1,14.4 C10.1,16.4 36.2,23.4 31.9,26.1 L31.9,26.1 Z" id="Shape" fill="url(#linearGradient-8)" opacity="0.33"></path>
                            </g>
                            <path d="M87.8,167.2 C84.9,168.7 81.8,167 78.2,164.5 C78.9,164 79.9,163.6 81.1,163.1 C89,160 88.9,153.1 87.5,147.8 C89.6,149.4 91.1,151.2 91.9,153.1 C93.8,158 91.8,165.2 87.8,167.2 L87.8,167.2 Z" id="Shape" fill="#253041" opacity="0.06"></path>
                        </g>
                        <g id="necklace" transform="translate(206.000000, 177.000000)">
                            <path d="M59.9,0.9 C46.2,13.2 34,19.4 23.5,19.4 C21.3,19.4 19.2,19.1 17.1,18.6 C8.2,16.2 2.8,8.9 -0.2,3.3 C0.1,3.1 0.4,2.8 0.7,2.6 C3.5,8 8.8,15.2 17.4,17.5 C28.8,20.6 42.8,14.7 59.2,0 C59.4,0.3 59.7,0.6 59.9,0.9 L59.9,0.9 Z" id="Shape" fill="#31445A"></path>
                            <circle id="Oval" fill="#DF8744" cx="21.5" cy="19.5" r="4.5"></circle>
                        </g>
                        <g id="head_1_" transform="translate(178.000000, 20.000000)">
                            <path d="M88.4,81.1 C87.3,83.1 85.8,85.8 83.9,88.9 C73,106.4 45.7,140.1 23.5,133.7 C13.6,130.8 7.8,120.8 5.6,116.9 C3.5,113.3 0.4,106.6 -4.19109192e-14,90 C-0.3,78.6 -0.6,64.1 5.6,46.4 C6.1,45 8.4,38.6 12,30.9 C15.1,24.5 19.2,17.2 24.1,11.3 C29.7,4.6 36.3,-0.3 43.6,-0.1 C52.5,0.2 58.9,7.9 63.1,13 C63.2,13.2 63.8,13.9 64.6,14.9 C67,18.3 71.7,25.6 73.2,33.9 C73.9,37.9 73.9,42.1 72.6,46.3 C71.4,50.1 69,54.3 68.1,62 C67.7,65.7 67.7,68.8 69.2,72.1 C69.4,72.6 70.8,75.4 73.7,77.7 C79.7,82.3 86.9,81.3 88.4,81.1 L88.4,81.1 Z" id="head" fill="#E2C8C0"></path>
                            <path d="M73.4,34 C66.1,31.9 51.4,28.1 42.2,28.9 C33.2,29.7 19.5,30.5 12.1,30.9 C15.2,24.5 19.3,17.2 24.2,11.3 L64.8,15 C67.2,18.4 71.9,25.7 73.4,34 L73.4,34 Z" id="Shape" fill="#253041" opacity="0.06"></path>
                        </g>
                        <g id="eyes_2_" transform="translate(188.000000, 88.000000)" fill="#000105">
                            <circle id="Oval" cx="35.5" cy="6.5" r="3.5"></circle>
                            <circle id="Oval" cx="3.5" cy="3.5" r="3.5"></circle>
                        </g>
                        <path d="M205.2,134.6 C200.7,134.6 197.2,132.8 195.8,132 C195.5,131.8 195.4,131.4 195.6,131.1 C195.8,130.8 196.2,130.7 196.5,130.9 C198.1,131.9 202.4,134 207.9,133.1 C214.2,132.1 217.8,127.6 218.7,126.3 C218.9,126 219.3,126 219.6,126.2 C219.9,126.4 219.9,126.8 219.7,127.1 C218.7,128.5 214.8,133.3 208,134.4 C207,134.5 206.1,134.6 205.2,134.6 L205.2,134.6 Z" id="smile" fill="#000105"></path>
                        <path d="M205.3,84.4 C203.9,86.4 202,89.3 200,92.9 C194.9,102 192.3,106.7 194.1,109.7 C196.4,113.7 205.1,112.7 207.1,112.4 C206.4,103.1 205.9,93.7 205.3,84.4 L205.3,84.4 Z" id="nose_2_" fill="#C0846F"></path>
                        <path d="M273.4,94 C266.6,63.3 254.8,51.8 244.6,47.3 C222.2,37.3 198.1,56.6 183.5,43.2 C176.6,36.8 174.6,25.7 177.4,18 C182.8,2.9 206.9,-1.6 222.9,0.5 C251.1,4.2 274.3,31.5 278,60 C279.9,74.6 276.2,86.8 273.4,94 L273.4,94 Z" id="forelock" fill="#2A303D"></path>
                        <g id="brows" transform="translate(174.000000, 71.000000)" fill="#2A303D">
                            <path d="M58.8,8.1 L39.4,3 C39,2.9 38.7,2.5 38.8,2 L39.3,0.3 C39.4,-0.1 39.8,-0.4 40.3,-0.3 L59.7,4.8 C60.1,4.9 60.4,5.3 60.3,5.8 L59.8,7.5 C59.6,8 59.2,8.2 58.8,8.1 L58.8,8.1 Z" id="Shape"></path>
                            <path d="M19.1,3.7 L0.9,7.2 C0.5,7.3 0.1,7 4.8461235e-14,6.6 L-0.3,4.9 C-0.4,4.5 -0.1,4.1 0.3,4 L18.5,0.5 C18.9,0.4 19.3,0.7 19.4,1.1 L19.7,2.8 C19.8,3.2 19.5,3.6 19.1,3.7 L19.1,3.7 Z" id="Shape"></path>
                        </g>
                        <g id="ear" transform="translate(247.000000, 94.000000)">
                            <path d="M28.4,14.8 C28.2,22.5 21.7,28.6 14,28.3 C6.3,28.1 0.2,21.6 0.5,13.9 L0.5,13.1 C1.1,5.7 7.4,0.1 14.9,0.3 C18.7,0.4 22.1,2.1 24.6,4.6 C27,7.3 28.5,10.9 28.4,14.8 L28.4,14.8 Z" id="Shape" fill="#E2C8C0"></path>
                            <path d="M24.5,4.7 L0.5,13.2 C1.1,5.8 7.4,0.2 14.9,0.4 C18.6,0.5 22,2.1 24.5,4.7 L24.5,4.7 Z" id="Shape" fill="url(#linearGradient-9)" opacity="0.28"></path>
                        </g>
                        <g id="coffee" transform="translate(32.000000, 111.000000)">
                            <g id="Group" transform="translate(0.000000, 63.000000)">
                                <path d="M51.4,3.2 C51.3,4.1 51.2,4.9 51.1,5.7 C48.6,29.5 46.1,53.2 43.7,77 L12.8,77 C10.3,53.3 7.8,29.5 5.3,5.7 C5.2,4.8 5.1,4 5,3.2 L51.4,3.2 L51.4,3.2 Z" id="Shape" fill="#3D6658"></path>
                                <path d="M56.5,3 C56.5,3.7 56.2,4.4 55.7,4.9 C55.2,5.4 54.5,5.7 53.8,5.7 L2.7,5.7 C1.2,5.7 6.31088724e-30,4.5 6.31088724e-30,3 C6.31088724e-30,2.3 0.3,1.6 0.8,1.1 C1.3,0.6 2,0.3 2.7,0.3 L53.8,0.3 C55.3,0.4 56.5,1.6 56.5,3 L56.5,3 Z" id="Shape" fill="#BACFDA"></path>
                            </g>
                            <path d="M56.5,66 C56.5,66.7 56.2,67.4 55.7,67.9 C55.2,68.4 54.5,68.7 53.8,68.7 L51.1,68.7 C48.6,92.5 46.1,116.2 43.7,140 L25.6,140 C13.6,127 12.7,121.8 14.1,119.5 C16.3,115.9 24.4,118.5 34.9,112.9 C36.2,112.2 40.3,109.8 42.5,105.2 C42.8,104.6 43.8,102.3 43.2,101.9 C42.2,101.1 38,107.5 31.1,111 C22.2,115.5 12.2,113.4 12.1,112.4 C12,111.6 19.4,111.6 29.6,107.1 C38.2,103.3 44.7,98 44.3,97.3 C43.9,96.6 38.3,99.9 27.7,103 C20.1,105.2 10.1,107.3 9.6,106 C9.3,105 14.5,102.4 15.2,102 C22.1,98.5 32.4,95.9 35.9,95.1 C37.2,94.8 39.8,94.1 40.4,92.3 C40.7,91.4 40.5,90.2 39.8,89.5 C38,87.7 33.7,90.1 26.9,92.4 C19.9,94.8 11.8,96.5 11.4,95.6 C11.1,94.8 16.1,92 19,90.4 C30.3,84.2 34.3,84.5 35.2,81.1 C36.1,77.6 32.9,72.3 33.3,68.7 C33.3,68.6 33.4,67.6 33.6,66.2 C33.7,65.2 33.8,64.3 33.9,63.4 L53.8,63.4 C55.3,63.4 56.5,64.6 56.5,66 L56.5,66 Z" id="Shape" fill="#2A303D" opacity="0.09"></path>
                            <path d="M40.3,57.8 C40.2,57.8 40.1,57.8 40,57.7 C39.7,57.6 39.7,57.2 39.8,57 C44.6,48.4 45.9,41.5 43.6,36.3 C43.1,35.2 42.4,34.1 41.8,33 C40.3,30.6 38.8,28.2 38.6,24.5 C38.4,21.7 39.1,18.7 40.5,15.9 C40.6,15.6 40.9,15.5 41.2,15.7 C41.5,15.8 41.6,16.1 41.4,16.4 C40,19.1 39.4,21.8 39.6,24.5 C39.8,27.9 41.3,30.3 42.7,32.5 C43.4,33.6 44.1,34.7 44.6,36 C47,41.5 45.7,48.8 40.7,57.6 C40.7,57.7 40.5,57.8 40.3,57.8 L40.3,57.8 Z" id="Shape" fill="#BACFDA"></path>
                            <path d="M28.1,57.8 C28,57.8 27.9,57.8 27.8,57.7 C27.5,57.6 27.5,57.2 27.6,57 C32.4,48.4 33.7,41.5 31.4,36.3 C30.7,34.6 30,33.3 29.3,32 C28.2,29.7 27.2,27.7 26.3,24.6 C24.4,17.7 26.1,9.7 31.4,0.6 C31.5,0.3 31.9,0.3 32.1,0.4 C32.4,0.5 32.4,0.9 32.3,1.1 C27.2,9.9 25.5,17.7 27.3,24.3 C28.1,27.3 29.1,29.3 30.2,31.5 C30.8,32.7 31.5,34.1 32.3,35.9 C34.7,41.4 33.4,48.7 28.4,57.5 C28.5,57.7 28.3,57.8 28.1,57.8 L28.1,57.8 Z" id="Shape" fill="#BACFDA"></path>
                            <path d="M13,57.5 C12.9,57.5 12.8,57.5 12.7,57.4 C12.4,57.3 12.4,56.9 12.5,56.7 C17.3,48.1 18.6,41.2 16.3,36 C15.7,34.5 15,33.3 14.4,32.2 C13.2,30 12.1,27.8 11.2,24.3 C10,19.2 10.5,13.6 12.7,7.8 C12.8,7.5 13.1,7.4 13.4,7.5 C13.7,7.6 13.8,7.9 13.7,8.2 C11.6,13.8 11.1,19.1 12.3,24 C13.1,27.4 14.2,29.5 15.4,31.7 C16,32.9 16.7,34.1 17.3,35.6 C19.7,41.1 18.4,48.4 13.4,57.2 C13.3,57.4 13.2,57.5 13,57.5 L13,57.5 Z" id="Shape" fill="#BACFDA"></path>
                        </g>
                        <g id="hand_left" transform="translate(0.000000, 199.000000)">
                            <path d="M178,72.1 C176,82.2 172.7,95.8 166.8,111.3 C160.9,126.8 130.9,205.5 89.6,205.3 C71.3,205.2 57.8,189.6 38.4,165.9 C37.6,164.9 36.7,163.8 35.8,162.8 C33.1,159.5 10.5,131.1 2.2,89 C1.5,85.7 1.1,82.6 0.7,79.9 C-1.6,61.9 2.4,56 5.5,53.2 C10.7,48.6 19.1,47.5 25.6,49.8 C37.5,54 40.1,68.5 46.9,84.5 C53.5,100 66.4,122.5 78.7,132.8 C83.2,136.6 87.7,138.7 91.6,138.2 C106.6,136.4 117.5,97.5 129.6,54.3 C131,49.3 135.1,34 146.4,17.4 C148.6,14.2 150.6,11.5 152.2,9.6 C152.5,9.2 152.9,8.8 153.2,8.4 C161.6,29.6 169.8,50.9 178,72.1 L178,72.1 Z" id="Shape" fill="#8376A2"></path>
                            <path d="M152.5,9.5 C152.4,34.6 149.7,131.5 113.6,152.8 C85.1,169.6 79.6,148 79,132.7 C83.5,136.5 88,138.6 91.9,138.1 C106.9,136.3 117.8,97.4 129.9,54.2 C131.3,49.2 135.4,33.9 146.7,17.3 C148.9,14.1 150.9,11.4 152.5,9.5 L152.5,9.5 Z" id="Shape" fill="url(#linearGradient-10)" opacity="0.4"></path>
                            <path d="M41.9,158.9 C41.3,162.2 40.2,164.5 38.5,165.9 C37.7,164.9 36.8,163.8 35.9,162.8 C33.2,159.5 10.6,131.1 2.3,89 C1.6,85.7 1.2,82.6 0.8,79.9 C16.1,97.1 46,135.4 41.9,158.9 L41.9,158.9 Z" id="Shape" fill="url(#linearGradient-11)" opacity="0.4"></path>
                            <g id="Group" transform="translate(7.000000, 0.000000)">
                                <path d="M69.2,9.2 C67.5,12.6 47.9,19.2 38.4,22.2 C37.7,22.3 37.1,22.9 37.3,23.6 C37.4,24.3 38.2,24.8 38.9,24.5 C50.8,23.1 57.4,20 61.4,17.2 C62.8,16.2 67.3,12.9 68.2,13.8 C68.7,14.3 67.9,15.9 67.7,16.4 C64.6,22.7 49.2,29.1 40.7,29.6 C40,29.9 39.7,30.6 39.8,31 C40,31.5 56.9,28.3 59.2,26.7 C59.8,26.3 62.7,24.1 63.4,24.7 C63.8,25.1 62.9,26.7 62.8,27 C61.5,29.2 59.4,30.3 58.8,30.6 C54.8,32.6 45.1,35.1 43.7,35.4 C41.7,35.9 38.8,36.7 35.3,37.8 C24.4,42.2 20.5,47.6 18.9,52 C16.7,58.2 18.9,63.8 18.5,68.1 C18.3,69.6 17.8,71 16.7,72.2 C13.7,75.2 7.8,75.7 4.4,73.3 C1.8,71.5 0.7,68 0.5,63.7 C0.2,56 3,46 5.5,39.8 L5.5,39.7 C7.2,35.5 9.9,28.6 16.7,21.8 C21.5,17 30.1,11.5 30,11.2 C36.6,7.2 42.5,4.9 46.9,3.5 C53.8,1.4 64.2,-0.7 65,0.8 C65.1,1 65,1.2 64.8,1.5 C63.8,3.3 45.1,8.9 36.1,13.8 C35,14.2 34.7,15.5 35.1,16.1 C35.4,16.6 36.3,16.9 37.1,16.5 C47.3,13.1 71,5.7 69.2,9.2 L69.2,9.2 Z" id="Shape" fill="#E2C8C0"></path>
                                <path d="M18.5,68.1 C18.3,69.6 17.8,71 16.7,72.2 C13.7,75.2 7.8,75.7 4.4,73.3 C1.8,71.5 0.7,68 0.5,63.7 C4.8,66.7 11.3,69.7 18.5,68.1 L18.5,68.1 Z" id="Shape" fill="#253041" opacity="0.06"></path>
                                <path d="M5.4,39.8 L5.4,39.7 C7.1,35.5 9.8,28.6 16.6,21.8 C17.4,33.5 10.4,38.1 5.4,39.8 L5.4,39.8 Z" id="Shape" fill="url(#linearGradient-12)" opacity="0.28"></path>
                            </g>
                        </g>
                        <path d="M195.6,289.6 C195.2,289.6 194.8,289.4 194.5,289.1 L184,278.7 C183.4,278.1 183.4,277.1 184,276.5 C184.6,275.9 185.6,275.9 186.2,276.5 L196.7,286.9 C197.3,287.5 197.3,288.5 196.7,289.1 C196.4,289.4 196,289.6 195.6,289.6 L195.6,289.6 Z" id="Shape" fill="#BACFDA"></path>
                        <path d="M107.8,335.7 C107.6,335.8 107.4,335.8 107.2,335.8 C106.6,335.8 106,335.5 105.8,334.8 L103,328.5 C103.7,327.5 104.4,326.4 105,325.3 L108.6,333.6 C109,334.4 108.7,335.4 107.8,335.7 L107.8,335.7 Z" id="Shape" fill="#BACFDA"></path>
                        <path d="M81.9,393.3 C81.3,393.3 80.7,392.9 80.4,392.4 L74.5,378.9 C74.2,378.1 74.5,377.2 75.3,376.8 C76.1,376.5 77,376.8 77.4,377.6 L83.3,391.1 C83.6,391.9 83.3,392.8 82.5,393.2 C82.4,393.3 82.1,393.3 81.9,393.3 L81.9,393.3 Z" id="Shape" fill="#BACFDA"></path>
                        <path d="M146.9,323.9 C146.5,323.9 146.1,323.7 145.8,323.4 L135.3,313 C134.7,312.4 134.7,311.4 135.3,310.8 C135.9,310.2 136.9,310.2 137.5,310.8 L148,321.2 C148.6,321.8 148.6,322.8 148,323.4 C147.7,323.8 147.3,323.9 146.9,323.9 L146.9,323.9 Z" id="Shape" fill="#BACFDA"></path>
                        <path d="M37.8,289.5 C37.4,289.5 37,289.3 36.7,289 L26.2,278.6 C25.6,278 25.6,277 26.2,276.4 C26.8,275.8 27.8,275.8 28.4,276.4 L38.9,286.8 C39.5,287.4 39.5,288.4 38.9,289 C38.7,289.4 38.2,289.5 37.8,289.5 L37.8,289.5 Z" id="Shape" fill="#BACFDA"></path>
                        <path d="M360.3,311.5 C359.9,311.5 359.5,311.3 359.2,311 L348.7,300.6 C348.1,300 348.1,299 348.7,298.4 C349.3,297.8 350.3,297.8 350.9,298.4 L361.4,308.8 C362,309.4 362,310.4 361.4,311 C361.1,311.4 360.7,311.5 360.3,311.5 L360.3,311.5 Z" id="Shape" fill="#BACFDA"></path>
                        <path d="M175.3,225.9 L175.2,225.9 L160.5,224.6 C159.6,224.5 159,223.8 159.1,222.9 C159.2,222 159.9,221.4 160.8,221.5 L175.5,222.8 C176.4,222.9 177,223.6 176.9,224.5 C176.8,225.3 176.1,225.9 175.3,225.9 L175.3,225.9 Z" id="Shape" fill="#BACFDA"></path>
                        <path d="M202.9,380.5 L202.8,380.5 L188.1,379.2 C187.2,379.1 186.6,378.4 186.7,377.5 C186.8,376.6 187.5,376 188.4,376.1 L203.1,377.4 C204,377.5 204.6,378.2 204.5,379.1 C204.4,379.8 203.7,380.5 202.9,380.5 L202.9,380.5 Z" id="Shape" fill="#BACFDA"></path>
                        <path d="M22.4,308 C22.1,308 21.8,307.9 21.5,307.7 L9.6,299 C8.9,298.5 8.7,297.5 9.3,296.8 C9.8,296.1 10.8,295.9 11.5,296.5 L23.4,305.2 C24.1,305.7 24.3,306.7 23.7,307.4 C23.4,307.8 22.9,308 22.4,308 L22.4,308 Z" id="Shape" fill="#BACFDA"></path>
                        <path d="M43.7,350.1 C43.4,350.1 43.1,350 42.8,349.8 L30.9,341.1 C30.2,340.6 30,339.6 30.6,338.9 C31.1,338.2 32.1,338 32.8,338.6 L44.7,347.3 C45.4,347.8 45.6,348.8 45,349.5 C44.7,349.9 44.2,350.1 43.7,350.1 L43.7,350.1 Z" id="Shape" fill="#BACFDA"></path>
                        <path d="M331.2,216 C330.9,216 330.6,215.9 330.3,215.7 L318.4,207 C317.7,206.5 317.5,205.5 318.1,204.8 C318.6,204.1 319.6,203.9 320.3,204.5 L332.2,213.2 C332.9,213.7 333.1,214.7 332.5,215.4 C332.1,215.8 331.6,216 331.2,216 L331.2,216 Z" id="Shape" fill="#BACFDA"></path>
                        <path d="M325.2,275.3 C324.9,275.3 324.6,275.2 324.3,275 L312.4,266.3 C311.7,265.8 311.5,264.8 312.1,264.1 C312.6,263.4 313.6,263.2 314.3,263.8 L326.2,272.5 C326.9,273 327.1,274 326.5,274.7 C326.2,275.1 325.7,275.3 325.2,275.3 L325.2,275.3 Z" id="Shape" fill="#BACFDA"></path>
                        <path d="M157,277.7 C156.4,277.7 155.8,277.3 155.5,276.7 L150.3,262.9 C150,262.1 150.4,261.2 151.2,260.9 C152,260.6 152.9,261 153.2,261.8 L158.4,275.6 C158.7,276.4 158.3,277.3 157.5,277.6 C157.3,277.7 157.1,277.7 157,277.7 L157,277.7 Z" id="Shape" fill="#BACFDA"></path>
                        <path d="M57.8,304.3 L55.1,312.2 C54.9,312.9 54.3,313.3 53.6,313.3 C53.4,313.3 53.3,313.3 53.1,313.2 C52.3,312.9 51.8,312 52.1,311.2 L55.7,300.6 C56.3,301.9 57,303.1 57.8,304.3 L57.8,304.3 Z" id="Shape" fill="#BACFDA"></path>
                        <path d="M207,257.3 C206.4,257.3 205.9,257 205.6,256.4 C205.2,255.6 205.5,254.7 206.3,254.3 L219.4,247.5 C220.2,247.1 221.1,247.4 221.5,248.2 C221.9,249 221.6,249.9 220.8,250.3 L207.7,257.1 C207.5,257.3 207.3,257.3 207,257.3 L207,257.3 Z" id="Shape" fill="#BACFDA"></path>
                        <path d="M345.5,246.1 L337.4,250.3 C337.2,250.4 336.9,250.5 336.7,250.5 C336.1,250.5 335.6,250.2 335.3,249.7 C334.9,248.9 335.2,248 336,247.6 L344.6,243.1 C344.9,244 345.2,245.1 345.5,246.1 L345.5,246.1 Z" id="Shape" fill="#BACFDA"></path>
                        <path d="M254,208.3 C253.4,208.3 252.9,208 252.6,207.5 C252.2,206.7 252.5,205.8 253.3,205.4 L266.4,198.6 C267.2,198.2 268.1,198.5 268.5,199.3 C268.9,200.1 268.6,201 267.8,201.4 L254.7,208.2 C254.5,208.2 254.2,208.3 254,208.3 L254,208.3 Z" id="Shape" fill="#BACFDA"></path>
                        <path d="M164.2,342.1 L152.2,348.3 C151.9,347.3 151.7,346.3 151.4,345.4 C150.8,346.6 150.2,347.7 149.6,348.9 C149.3,348.7 149.1,348.5 149,348.2 C148.6,347.4 148.9,346.5 149.7,346.1 L162.8,339.3 C163.6,338.9 164.5,339.2 164.9,340 C165.3,340.8 165,341.7 164.2,342.1 L164.2,342.1 Z" id="Shape" fill="#BACFDA"></path>
                        <path d="M65.9,349.2 C65.3,349.2 64.8,348.9 64.5,348.3 C64.1,347.5 64.4,346.6 65.2,346.2 L78.3,339.4 C79.1,339 80,339.3 80.4,340.1 C80.8,340.9 80.5,341.8 79.7,342.2 L66.6,349 C66.4,349.1 66.2,349.2 65.9,349.2 L65.9,349.2 Z" id="Shape" fill="#BACFDA"></path>
                        <path d="M107.5,368.9 C106.9,368.9 106.3,368.5 106,367.9 C105.7,367.1 106.1,366.2 106.9,365.9 L120.7,360.8 C121.5,360.5 122.4,360.9 122.7,361.7 C123,362.5 122.6,363.4 121.8,363.7 L108,368.8 C107.9,368.9 107.7,368.9 107.5,368.9 L107.5,368.9 Z" id="Shape" fill="#BACFDA"></path>
                        <path d="M240.6,285.5 L240.5,285.5 L225.8,284.4 C224.9,284.3 224.3,283.6 224.3,282.7 C224.4,281.8 225.1,281.2 226,281.2 L240.7,282.3 C241.6,282.4 242.2,283.1 242.2,284 C242.1,284.9 241.4,285.5 240.6,285.5 L240.6,285.5 Z" id="Shape" fill="#BACFDA"></path>
                        <path d="M297.7,295.3 L297.6,295.3 L282.9,294.2 C282,294.1 281.4,293.4 281.4,292.5 C281.5,291.6 282.2,291 283.1,291 L297.8,292.1 C298.7,292.2 299.3,292.9 299.3,293.8 C299.2,294.7 298.5,295.3 297.7,295.3 L297.7,295.3 Z" id="Shape" fill="#BACFDA"></path>
                        <path d="M302.8,226.5 L302.7,226.5 L288,225.4 C287.1,225.3 286.5,224.6 286.5,223.7 C286.6,222.8 287.3,222.2 288.2,222.2 L302.9,223.3 C303.8,223.4 304.4,224.1 304.4,225 C304.3,225.9 303.6,226.5 302.8,226.5 L302.8,226.5 Z" id="Shape" fill="#BACFDA"></path>
                        <path d="M297,184.5 C296.8,185.2 296.2,185.7 295.5,185.7 L295.4,185.7 L280.7,184.6 C280.6,184.6 280.5,184.6 280.3,184.5 C284.3,183.7 290.2,183.1 297,184.5 L297,184.5 Z" id="Shape" fill="#BACFDA"></path>
                        <path d="M218.6,349.2 L218.5,349.2 L203.8,348.1 C202.9,348 202.3,347.3 202.3,346.4 C202.4,345.5 203.1,344.9 204,344.9 L218.7,346 C219.6,346.1 220.2,346.8 220.2,347.7 C220.1,348.5 219.4,349.2 218.6,349.2 L218.6,349.2 Z" id="Shape" fill="#BACFDA"></path>
                        <path d="M318.3,348.6 L318.2,348.6 L303.5,347.5 C302.6,347.4 302,346.7 302,345.8 C302.1,344.9 302.8,344.3 303.7,344.3 L318.4,345.4 C319.3,345.5 319.9,346.2 319.9,347.1 C319.8,348 319.1,348.6 318.3,348.6 L318.3,348.6 Z" id="Shape" fill="#BACFDA"></path>
                        <path d="M253.6,376.2 C253,376.2 252.5,375.9 252.2,375.4 L245.2,362.4 C244.8,361.6 245.1,360.7 245.8,360.3 C246.6,359.9 247.5,360.2 247.9,360.9 L254.9,373.9 C255.3,374.7 255,375.6 254.3,376 C254.2,376.1 253.9,376.2 253.6,376.2 L253.6,376.2 Z" id="Shape" fill="#BACFDA"></path>
                        <path d="M349.7,366.4 C349,366.4 348.3,365.9 348.2,365.2 L345,350.8 C344.8,349.9 345.4,349.1 346.2,348.9 C347.1,348.7 347.9,349.3 348.1,350.1 L351.3,364.5 C351.5,365.4 350.9,366.2 350.1,366.4 L349.7,366.4 L349.7,366.4 Z" id="Shape" fill="#BACFDA"></path>
                        <path d="M326.8,323.4 C326.1,323.4 325.4,322.9 325.3,322.2 L322.1,307.8 C321.9,306.9 322.5,306.1 323.3,305.9 C324.2,305.7 325,306.3 325.2,307.1 L328.4,321.5 C328.6,322.4 328,323.2 327.2,323.4 L326.8,323.4 L326.8,323.4 Z" id="Shape" fill="#BACFDA"></path>
                        <path d="M267.4,323.4 C267,323.4 266.6,323.2 266.2,322.9 L256.1,312.1 C255.5,311.5 255.5,310.5 256.2,309.9 C256.8,309.3 257.8,309.3 258.4,310 L268.5,320.8 C269.1,321.4 269.1,322.4 268.4,323 C268.2,323.2 267.8,323.4 267.4,323.4 L267.4,323.4 Z" id="Shape" fill="#BACFDA"></path>
                        <path d="M274.2,269.4 C274,269.4 273.8,269.4 273.6,269.3 L259.9,263.9 C259.1,263.6 258.7,262.7 259,261.8 C259.3,261 260.2,260.6 261.1,260.9 L274.8,266.3 C275.6,266.6 276,267.5 275.7,268.4 C275.5,269 274.9,269.4 274.2,269.4 L274.2,269.4 Z" id="Shape" fill="#BACFDA"></path>
                        <path d="M256.5,239 C256.2,239 256,238.9 255.7,238.8 L242.9,231.4 C242.1,231 241.9,230 242.3,229.2 C242.7,228.4 243.7,228.2 244.5,228.6 L257.3,236 C258.1,236.4 258.3,237.4 257.9,238.2 C257.6,238.7 257,239 256.5,239 L256.5,239 Z" id="Shape" fill="#BACFDA"></path>
                        <path d="M345.5,246.1 C345.2,245.1 344.9,244.1 344.5,243 L344.5,243 C343.5,239.7 342.4,236.4 341.3,233.1 C337.8,222.3 331,203.3 313.3,191.7 C310,189.5 307,188 305.1,187.2 C305.1,187.2 305.1,187.2 305,187.2 C304.8,187.1 301.9,185.8 298.8,185 C298.1,184.8 297.5,184.7 296.9,184.6 C290.1,183.2 284.3,183.8 280.2,184.7 C278.4,185.1 277,185.5 275.9,185.9 C270.4,190.1 262.8,196.4 254.4,204.8 L254.4,204.8 C253.7,205.5 253.1,206.1 252.4,206.8 C251.5,207.7 250.6,208.7 249.6,209.7 C229.3,231.2 220.9,248.7 213.8,246.6 C209.5,245.3 210,238.2 206,227.6 C200,211.6 188.8,201 180.3,194.6 C175.8,194 172.3,194.6 170.2,195.2 C169.4,195.4 168.7,195.6 167.9,195.9 C159.7,198.9 155,205.3 153.4,207.5 L153.4,207.5 C151.8,209.5 149.4,212.5 146.7,216.4 C135.5,233 131.3,248.3 129.9,253.3 C121.6,282.9 113.9,310.4 105,325.4 C104.3,326.5 103.6,327.6 103,328.6 C99.5,333.6 95.8,336.7 91.9,337.2 C81.4,338.4 68,321.8 57.8,304.4 C57.1,303.2 56.4,302 55.7,300.7 C52.3,294.7 49.4,288.7 47.2,283.5 C40.4,267.5 37.9,253 25.9,248.8 C19.3,246.5 11,247.5 5.8,252.2 C2.1,255.5 -2.5,262.8 2.4,288 C10.7,330.2 33.3,358.5 36,361.9 C56.8,387.4 70.6,404.3 89.7,404.4 C114.9,404.5 135.8,375.4 149.7,349.1 C150.3,347.9 150.9,346.8 151.5,345.6 C151.8,346.6 152,347.6 152.3,348.5 C159.3,374.2 166.3,401.4 165.8,410.7 L165.8,411.1 C174.9,411.6 183.9,412.1 193,412.5 C208.8,413.3 217,413.7 224.7,414.1 C235.8,414.6 251.5,415.2 271,415.6 C275.8,400.5 280.4,384.8 284.9,368.6 C304,379.1 338.7,393.4 358.3,378.7 C380.8,361.6 367.4,314.7 345.5,246.1 L345.5,246.1 Z M305.2,284.6 C307.8,288.9 310.6,294.6 313.4,302.5 C317.8,315.2 321.5,325.5 317.9,328.2 C315,330.4 310.3,325.8 296.9,321.5 C299.9,308.9 302.7,296.6 305.2,284.6 L305.2,284.6 Z" id="Shape"></path>
                    </g>
                    <path d="M581.5,440.2 C581.3,440.2 581.1,440.1 580.9,440 C580.4,439.7 580.3,439 580.6,438.5 L803.3,117.3 C803.6,116.8 804.3,116.7 804.8,117 C805.3,117.3 805.4,118 805.1,118.5 L582.4,439.8 C582.2,440.1 581.9,440.2 581.5,440.2 L581.5,440.2 Z" id="line" fill="#31445A" opacity="0.5"></path>
                    <g id="message" transform="translate(609.000000, 77.000000)">
                        <path d="M5.5,111 C-6.8,84.6 3.1,47.1 23,25.8 C50.4,-3.6 95.4,-0.6 116.9,0.8 C192.6,5.8 200.1,52.6 274.5,56.8 C288.1,57.6 310.6,57.3 321.9,72.3 C331.5,85.1 328.8,103.5 326.2,111.1 C304.6,175 44.1,193.8 5.5,111 L5.5,111 Z" id="Shape" fill="#BACFDA"></path>
                        <path d="M223.7,83.3 L42.7,83.3 C40.4,83.3 38.5,81.4 38.5,79.1 C38.5,76.8 40.4,74.9 42.7,74.9 L223.7,74.9 C226,74.9 227.9,76.8 227.9,79.1 C227.9,81.4 226,83.3 223.7,83.3 L223.7,83.3 Z" id="Shape" fill="#2A303D" opacity="0.6"></path>
                        <path d="M189.6,107.4 L42.6,107.4 C40.3,107.4 38.4,105.5 38.4,103.2 C38.4,100.9 40.3,99 42.6,99 L189.6,99 C191.9,99 193.8,100.9 193.8,103.2 C193.9,105.5 192,107.4 189.6,107.4 L189.6,107.4 Z" id="Shape" fill="#2A303D" opacity="0.6"></path>
                        <path d="M262.1,95.4 L246.7,114.4 L243.6,118.1 L239.6,123 C239.1,123.6 238.4,123.9 237.7,123.9 C237.2,123.9 236.7,123.7 236.2,123.4 L217.6,108.9 C216.5,108.1 216.4,106.6 217.2,105.5 C218,104.4 219.5,104.3 220.6,105.1 L237.3,118.1 L239.7,115.2 L242.8,111.5 L258.3,92.5 C259.1,91.5 260.7,91.3 261.7,92.1 C262.8,92.8 262.9,94.4 262.1,95.4 L262.1,95.4 Z" id="Shape" fill="#3D6658" opacity="0.6"></path>
                        <path d="M276.1,95.4 L253.7,123 C253.2,123.6 252.5,123.9 251.8,123.9 C251.3,123.9 250.8,123.7 250.3,123.4 L243.6,118.2 L239.8,115.2 L242.9,111.5 L246.7,114.5 L251.5,118.2 L272.4,92.5 C273.2,91.5 274.8,91.3 275.8,92.1 C276.8,92.8 276.9,94.4 276.1,95.4 L276.1,95.4 Z" id="Shape" fill="#3D6658" opacity="0.6"></path>
                    </g>
                    <g id="table" transform="translate(0.000000, 518.000000)">
                        <g id="Group" transform="translate(0.000000, 89.000000)">
                            <path d="M869.7,42.5 C869.6,42.8 869.4,43 869.3,43.3 C869.2,43.6 869,43.8 868.9,44.1 C868.3,45.2 867.7,46.1 867,47 C866.8,47.2 866.7,47.4 866.5,47.6 C866.3,47.8 866.2,48 866,48.2 C856.2,59.5 838.9,56.6 817.3,71 C816.9,71.2 816.6,71.5 816.2,71.7 C815.8,72 815.4,72.2 815.1,72.5 C813.4,73.7 811.8,75 810.1,76.4 C805.1,80.2 790.2,91.6 784.4,108.8 C784.2,109.3 784.1,109.7 783.9,110.2 C781.8,117.2 779.9,126.4 772.3,138.1 C770.1,141.5 767.1,144.9 762.7,148.7 C730.7,176.3 693.2,161.4 597.9,186.4 C556.6,197.2 536,202.7 515.1,215.7 C484.1,235 471.3,256.8 425.4,282.2 C416.1,287.4 400.9,295.1 381.3,294.6 C365,294.1 352.7,288.2 345.8,284.6 C313.2,267.5 288.5,242.4 262,216.8 C250.9,206.1 239.5,195.3 227.1,185.1 C208.4,169.6 191.1,155.2 164.3,142.6 C91.5,108.3 7.4,114.6 2.4,90.2 C1.7,86.6 -0.2,68.3 -0.2,68.3 C-9.95037386e-14,66.2 0.4,64.2 0.8,62.5 C1.2,60.8 1.7,59.2 2.1,57.9 L2.1,57.9 C2.2,57.6 2.3,57.4 2.4,57.1 C13.3,51 30.8,42.3 53.6,35.4 C173.3,-0.6 245.7,74.3 351.1,106.9 L351.1,106.9 C378.5,115.4 408.1,121 441.3,121.1 L446.6,121.1 C516.7,120.1 577,94.6 631.9,67.3 C709.8,28.5 777,-13.9 846.4,5 C850.3,6.1 854.3,7.3 858.3,8.8 C862.3,10.3 866.2,12 870.2,13.9 L870.2,13.9 C870.2,13.9 870.2,14 870.3,14 L870.9,15.9 C870.9,16 871,16.1 871,16.3 C871.1,16.8 871.3,17.4 871.4,17.9 L871.4,18 C873.7,28.6 872.6,36.5 869.7,42.5 L869.7,42.5 Z" id="Shape" fill="#DF8744"></path>
                            <path d="M869.7,42.5 C869.6,42.8 869.4,43 869.3,43.3 C869.2,43.6 869,43.8 868.9,44.1 C868.3,45.2 867.7,46.1 867,47 C866.8,47.2 866.7,47.4 866.5,47.6 C866.3,47.8 866.2,48 866,48.2 C856.5,58.7 839.4,56 817.3,71 C816.9,71.2 816.6,71.5 816.2,71.7 C815.8,72 815.4,72.2 815.1,72.5 C813.4,73.7 811.8,75 810.1,76.4 C805.1,80.2 790.2,91.6 784.4,108.8 C784.2,109.3 784.1,109.7 783.9,110.2 C781.8,117.2 779.9,126.4 772.3,138.1 C770.1,141.5 767.1,144.9 762.7,148.7 C730.7,176.3 693.2,161.4 597.9,186.4 C556.6,197.2 536,202.7 515.1,215.7 C484.1,235 471.3,256.8 425.4,282.2 C416.1,287.4 400.9,295.1 381.3,294.6 C365,294.1 352.7,288.2 345.8,284.6 C313.2,267.5 288.5,242.4 262,216.8 L262,174.6 L446.7,121 L632,67.2 L846.5,4.9 C850.4,6 854.4,7.2 858.4,8.7 C865.9,11.5 868.8,11.2 870.3,13.8 L870.3,13.8 C870.3,13.8 870.3,13.9 870.4,13.9 L871,15.8 C871,15.9 871.1,16 871.1,16.2 C871.2,16.7 871.4,17.3 871.5,17.8 L871.5,17.9 C873.7,28.6 872.6,36.5 869.7,42.5 L869.7,42.5 Z" id="Shape" fill="#2A303D" opacity="0.09"></path>
                        </g>
                        <path d="M871.5,110.9 C869.5,125.3 845,127.5 819.3,141.1 C810.6,145.7 801.8,151.5 793.7,159.6 C787.3,165.9 783,171.5 779.8,176.8 L779.7,176.9 C779.5,177.2 779.3,177.5 779.1,177.8 C778.9,178.1 778.7,178.4 778.6,178.7 C778.1,179.6 777.6,180.5 777.1,181.4 C776.9,181.7 776.8,182 776.6,182.3 C775.7,184 775,185.6 774.3,187.2 C774.1,187.6 774,187.9 773.8,188.3 C772.9,190.4 772.1,192.5 771.2,194.5 C771,194.9 770.9,195.3 770.7,195.7 L770.7,195.7 C770.4,196.5 770,197.3 769.7,198.1 L769.7,198.1 C769.4,198.9 769,199.7 768.6,200.5 C768.5,200.8 768.3,201.1 768.2,201.4 C767.5,202.8 766.8,204.1 766.1,205.5 C765.8,206 765.5,206.6 765.2,207.1 L765.1,207.2 C764.9,207.5 764.8,207.7 764.6,208 C764.4,208.4 764.1,208.7 763.9,209.1 C763.7,209.4 763.5,209.8 763.2,210.1 C762.5,211.2 761.7,212.2 760.9,213.3 C760.5,213.8 760.1,214.3 759.6,214.9 C759.4,215.2 759.2,215.4 758.9,215.7 C758.6,216 758.3,216.4 758,216.7 C726.6,251.9 670.5,247.4 601.9,260.8 C458.6,288.8 461.6,355.8 375.8,352.9 C375.8,352.9 359.3,352.4 343.9,347.9 C309.6,337.9 292.8,298.4 262.1,263.7 C257.5,258.5 252.7,253.5 247.4,248.6 C222.6,225.9 198.6,216.9 166.1,204.8 C81.5,173.3 9.9,186 2.2,157.4 C1.9,156.4 1.2,153.1 2.3,146.9 C13.8,85.5 203.5,-17.1 368.2,2.3 C378.3,3.5 389,5.2 400.3,7.2 C415.9,10 432.8,13.3 451.4,16.6 C462.5,18.5 474.2,20.4 486.7,22.2 C487.7,22.3 488.6,22.5 489.6,22.6 C494.8,23.3 500.2,24 505.7,24.7 C506.8,24.8 507.9,25 508.9,25.1 C511,25.3 513.2,25.6 515.3,25.8 C516.7,25.9 518.1,26.1 519.5,26.2 L519.9,26.2 C522,26.4 524.1,26.6 526.3,26.8 C527.4,26.9 528.4,27 529.5,27.1 C532.6,27.4 535.7,27.6 538.9,27.9 C540.6,28 542.2,28.2 543.9,28.3 L546.2,28.5 C547,28.6 547.7,28.6 548.5,28.7 C550.7,28.8 552.9,29 555.1,29.1 C556.5,29.2 558,29.3 559.4,29.3 C560.8,29.4 562.2,29.4 563.5,29.5 C565.5,29.6 567.4,29.7 569.4,29.8 C589.8,30.6 604.8,30.3 618,30.4 C738.6,31 856.9,64.7 870.2,102.8 C871,105.3 871.9,107.7 871.5,110.9 L871.5,110.9 Z" id="Shape" fill="#EABA5C"></path>
                        <g id="Group" transform="translate(29.000000, 0.000000)" fill="#DF8744">
                            <path d="M55.3,82.5 C63.1,111 68.5,149.5 56.8,184.5 C56.1,184.4 55.4,184.3 54.7,184.2 C66.4,149.6 61,111.4 53.3,83.1 C52.1,78.6 50.7,74.1 49.4,69.9 C50,69.5 50.6,69.2 51.3,68.8 C52.6,73.1 54,77.7 55.3,82.5 L55.3,82.5 Z" id="Shape"></path>
                            <path d="M154.7,211.4 C154,211.1 153.3,210.9 152.6,210.6 C152.1,179.4 144.3,145.2 136.6,111.9 C130.2,84 124,56.9 123.1,34.2 C123.8,33.9 124.5,33.7 125.2,33.4 C125.9,56.1 132.2,83.3 138.7,111.5 C146.4,145.1 154.3,179.7 154.7,211.4 L154.7,211.4 Z" id="Shape"></path>
                            <path d="M222.4,252.3 C221.8,251.7 221.1,251.1 220.4,250.4 C225.8,189.9 216.6,136.2 209.1,105 C200.7,70.1 188.5,38.5 175.7,16.8 C176.4,16.6 177.2,16.4 177.9,16.2 C190.6,38 202.6,69.2 211.1,104.5 C218.7,136.2 228.1,190.8 222.4,252.3 L222.4,252.3 Z" id="Shape"></path>
                            <path d="M247.3,281.1 C246.6,280.2 245.9,279.2 245.1,278.3 C244.7,237.1 239.3,181.8 223.5,109.7 C214.4,68.5 204.4,33.2 197.8,11.4 C198.5,11.2 199.2,11.1 199.9,10.9 C206.6,32.8 216.6,68.1 225.6,109.2 C236.2,157.4 247,221.1 247.3,281.1 L247.3,281.1 Z" id="Shape"></path>
                            <path d="M282.9,114.6 C274.2,182.9 272.6,252.4 278,321.5 C277.2,320.6 276.5,319.7 275.7,318.8 C270.5,250.5 272.3,181.9 280.8,114.4 C285.7,76.1 292.8,37.7 302.1,-0.1 L304.3,-0.1 C294.9,37.7 287.8,76.2 282.9,114.6 L282.9,114.6 Z" id="Shape"></path>
                            <path d="M15,178.2 C14.2,178.1 13.5,178 12.8,177.8 L-0.4,106.7 C0.2,106.1 0.8,105.6 1.4,105 L15,178.2 L15,178.2 Z" id="Shape"></path>
                            <path d="M346.7,180.6 C347.6,266.1 352.1,319.8 358,352.8 C357.3,352.8 356.6,352.9 355.9,352.9 C349.3,315.7 345.5,258.1 344.6,180.6 C343.8,111.1 345.7,41.9 347.1,3.2 C347.8,3.3 348.5,3.4 349.2,3.5 C347.8,42.3 345.9,111.3 346.7,180.6 L346.7,180.6 Z" id="Shape"></path>
                            <path d="M422.6,329.4 C421.8,329.9 421.1,330.4 420.3,330.9 C423.4,296.3 411.1,261.4 398.3,225.1 C381.2,176.7 363.6,126.6 376.6,69.2 C381.9,45.9 386.9,26.7 391.5,10.8 C392.2,10.9 392.9,11.1 393.6,11.2 C389,27.1 384,46.3 378.6,69.7 C365.7,126.5 383.2,176.3 400.2,224.4 C413,260.4 425.2,295.1 422.6,329.4 L422.6,329.4 Z" id="Shape"></path>
                            <path d="M468.7,115 C487.1,192.9 509.3,246.2 533.2,270.4 C532.4,270.6 531.7,270.9 530.9,271.1 C506.8,246.3 485.2,194 466.6,115.5 C458,79.3 451.9,44.6 448.1,20.7 C448.8,20.8 449.5,20.9 450.3,21 C454.1,44.8 460.2,79.2 468.7,115 L468.7,115 Z" id="Shape"></path>
                            <path d="M593.6,257.1 C592.9,257.2 592.1,257.3 591.4,257.4 C586.5,245.2 574.4,229.8 561.1,212.8 C529.6,172.7 490.4,122.7 508.9,73.8 C515.1,57.6 522.6,42.6 530.8,29.2 C531.6,29.2 532.4,29.3 533.1,29.3 C524.5,43.2 516.9,58.6 510.8,74.5 C492.7,122.3 531.5,171.7 562.6,211.4 C576.8,229.4 588.8,244.7 593.6,257.1 L593.6,257.1 Z" id="Shape"></path>
                            <path d="M601.9,214.2 C613.4,228.4 624.3,241.4 633.1,251.7 C632.3,251.8 631.4,251.9 630.6,252 C600.1,216.5 546.3,150.6 526,105.4 C518.7,89.1 519.4,76.9 528.3,66.8 C536.1,58 549.3,52.1 563.2,45.8 C573.5,41.2 584,36.5 592.8,30.4 L596.3,30.4 C586.6,37.5 575,42.7 564.1,47.7 C550.4,53.9 537.5,59.7 529.9,68.2 C521.6,77.6 521,89.1 527.9,104.5 C543,137.9 576.5,182.6 601.9,214.2 L601.9,214.2 Z" id="Shape"></path>
                            <path d="M670.5,245.7 C669.5,245.9 668.6,246.1 667.6,246.3 C661.1,241.8 654,236.4 647.3,230.1 C617.2,201.9 606.4,168.9 616.2,134.7 C628,92.9 642.4,58 653.6,33.7 C654.3,33.8 655.1,33.9 655.8,33.9 C644.6,58.1 630.1,93.2 618.2,135.2 C608.6,169.1 618.9,200.5 648.7,228.5 C656.1,235.3 663.6,241.1 670.5,245.7 L670.5,245.7 Z" id="Shape"></path>
                            <path d="M712.8,42.3 L739,201.7 C738.5,202.7 738,203.8 737.4,204.8 L710.6,41.9 C711.3,42.1 712,42.2 712.8,42.3 L712.8,42.3 Z" id="Shape"></path>
                            <path d="M765.5,158.6 C765.2,158.9 764.9,159.2 764.6,159.4 C764.2,159.8 763.9,160.1 763.5,160.5 C758.6,128.1 754.1,86.2 756.6,52.8 C757.3,53 758,53.2 758.8,53.4 C756.5,85.9 760.8,126.7 765.5,158.6 L765.5,158.6 Z" id="Shape"></path>
                            <path d="M780.1,146.9 C779.5,147.3 778.9,147.7 778.4,148.1 C768.4,126.3 768.4,87.7 769.4,56.8 C770.1,57 770.8,57.3 771.5,57.5 C770.5,88 770.6,125.9 780.1,146.9 L780.1,146.9 Z" id="Shape"></path>
                            <path d="M830,124.1 C829.4,124.4 828.7,124.7 828.1,125 C825.4,121.2 822.1,117.3 818.6,113.2 C807.5,100 794.3,84.3 793.3,65.7 C794,66 794.7,66.3 795.4,66.6 C796.7,83.9 809.1,98.5 820.2,111.8 C823.7,116.1 827.1,120.2 830,124.1 L830,124.1 Z" id="Shape"></path>
                        </g>
                        <path d="M871.5,110.8 C870.7,116.7 866,120.6 859,124 C858.4,124.3 857.7,124.6 857.1,124.9 C847.2,129.4 833.4,133.4 819.3,140.9 C815.9,142.7 812.6,144.6 809.2,146.8 C808.6,147.2 808,147.6 807.5,148 C803.1,151 798.7,154.5 794.6,158.5 C794.3,158.8 794,159.1 793.7,159.3 C793.3,159.7 793,160 792.6,160.4 C786.8,166.3 782.8,171.6 779.8,176.5 C779.8,176.6 779.7,176.6 779.7,176.6 C779.5,176.9 779.3,177.2 779.1,177.5 C778.9,177.8 778.8,178.1 778.6,178.4 C778.1,179.3 777.6,180.2 777.1,181.1 C777,181.4 776.8,181.7 776.6,182 C775.7,183.7 775,185.3 774.3,186.9 C774.1,187.3 774,187.6 773.8,188 C772.9,190.1 772,192.2 771.2,194.2 C771,194.6 770.9,195 770.7,195.4 L770.7,195.4 C770.4,196.2 770,197 769.7,197.8 L769.7,197.8 C769.4,198.6 769,199.4 768.6,200.2 C768.5,200.5 768.3,200.8 768.2,201.1 C768.1,201.2 768.1,201.4 768,201.5 C767.5,202.5 767,203.6 766.4,204.6 C766.3,204.8 766.2,205 766.1,205.2 C765.8,205.7 765.5,206.3 765.2,206.8 L765.1,206.9 C764.9,207.1 764.8,207.4 764.6,207.7 C764.4,208.1 764.1,208.5 763.9,208.8 C763.7,209.1 763.5,209.5 763.2,209.8 C762.5,210.8 761.7,211.9 760.9,213 C760.5,213.5 760.1,214 759.6,214.6 C759.4,214.9 759.1,215.1 758.9,215.4 C758.6,215.7 758.3,216.1 758,216.4 C743.5,232.7 723.6,240.5 699.6,245.5 C698.6,245.7 697.7,245.9 696.7,246.1 C685.9,248.2 674.4,249.8 662.1,251.4 C661.3,251.5 660.4,251.6 659.6,251.7 C647.8,253.2 635.5,254.8 622.6,256.8 C621.9,256.9 621.1,257 620.4,257.1 C614.3,258.1 608.1,259.2 601.8,260.4 C587.1,263.3 574,266.5 562.1,270.1 C561.3,270.3 560.6,270.6 559.8,270.8 C504,288 477,311.6 451.5,329.1 C450.7,329.6 450,330.1 449.2,330.6 C431.3,342.6 413.7,351.3 386.9,352.5 C386.2,352.5 385.5,352.6 384.8,352.6 C381.9,352.7 378.9,352.7 375.7,352.6 C375.7,352.6 359.1,352.1 343.8,347.6 C329.1,343.3 317.6,333.7 306.9,321.3 C306.1,320.4 305.4,319.5 304.6,318.6 C295.3,307.4 286.4,294.2 276.3,280.9 C275.6,280 274.9,279 274.1,278.1 C270.3,273.2 266.3,268.2 262,263.4 C258.6,259.6 255.1,255.8 251.3,252.1 C250.7,251.5 250,250.9 249.3,250.2 C248.6,249.5 247.9,248.9 247.2,248.3 C227.1,229.9 207.5,220.5 183.5,211.2 C182.8,210.9 182.1,210.7 181.4,210.4 C176.4,208.5 171.3,206.6 165.9,204.6 C137,193.8 109.5,188.2 85.7,184.4 C85,184.3 84.3,184.2 83.6,184.1 C68.8,181.8 55.4,180.1 43.9,178.2 C43.1,178.1 42.4,178 41.7,177.8 C19.7,174 5.3,169.3 2,157.3 C1.7,156.3 1,153 2.1,146.8 C4.4,134.6 13.7,120.8 28.4,106.7 C29,106.1 29.6,105.6 30.2,105 C42.8,93.2 59.1,81.3 78.2,69.8 C78.8,69.4 79.4,69.1 80.1,68.7 C101.2,56.2 125.6,44.4 152.1,34.2 C152.8,33.9 153.5,33.7 154.2,33.4 C170.4,27.2 187.3,21.7 204.7,17 C205.4,16.8 206.2,16.6 206.9,16.4 C213.5,14.6 220.1,13 226.8,11.5 C227.5,11.3 228.2,11.2 228.9,11 C262.2,3.6 296.9,-0.5 331.1,-0.1 L333.3,-0.1 C345,0.1 356.7,0.9 368.2,2.2 C370.8,2.5 373.4,2.8 376.1,3.2 C376.8,3.3 377.5,3.4 378.2,3.5 C385.3,4.5 392.7,5.8 400.3,7.1 C406.8,8.3 413.6,9.5 420.6,10.9 C421.3,11 422,11.2 422.7,11.3 C431.8,13 441.3,14.8 451.4,16.5 C459.6,17.9 468.2,19.4 477.2,20.7 C477.9,20.8 478.6,20.9 479.4,21 C481.8,21.4 484.3,21.7 486.7,22.1 C487.7,22.2 488.6,22.4 489.6,22.5 C494.8,23.2 500.2,23.9 505.7,24.6 C506.8,24.7 507.9,24.8 508.9,25 C511,25.2 513.1,25.5 515.3,25.7 C516.7,25.9 518.1,26 519.5,26.1 L519.9,26.1 C522,26.3 524.1,26.5 526.3,26.7 C527.4,26.8 528.4,26.9 529.5,27 C532.6,27.3 535.7,27.5 538.9,27.8 C540.6,27.9 542.2,28.1 543.9,28.2 L546.2,28.4 C547,28.5 547.7,28.5 548.5,28.6 C550.7,28.8 552.9,28.9 555.1,29 C556.5,29.1 557.9,29.2 559.3,29.2 L559.9,29.2 C560.7,29.2 561.5,29.3 562.2,29.3 C562.6,29.3 563,29.3 563.4,29.4 C565.4,29.5 567.3,29.6 569.3,29.7 C589.7,30.5 604.7,30.2 617.9,30.3 L621.8,30.3 L625.3,30.3 C644.7,30.6 663.9,31.8 682.7,33.6 C683.4,33.7 684.2,33.8 684.9,33.8 C703.8,35.8 722.2,38.5 739.6,41.8 C740.3,41.9 741.1,42.1 741.8,42.2 C757.4,45.2 772.1,48.8 785.7,52.7 C786.4,52.9 787.1,53.1 787.9,53.3 C791.5,54.4 795.1,55.5 798.6,56.6 C799.3,56.8 800,57.1 800.7,57.3 C808.4,59.9 815.7,62.6 822.4,65.5 C823.1,65.8 823.8,66.1 824.5,66.4 C849.2,77.2 865.8,89.6 870.4,102.6 C871,105.3 871.9,107.7 871.5,110.8 L871.5,110.8 Z" id="Shape"></path>
                        <path d="M871.5,110.8 C869.5,125.2 845,127.4 819.3,141 C810.6,145.6 801.8,151.4 793.7,159.5 C787.3,165.8 783,171.4 779.8,176.7 L779.7,176.8 C779.5,177.1 779.3,177.4 779.1,177.7 C778.9,178 778.7,178.3 778.6,178.6 C778.1,179.5 777.6,180.4 777.1,181.3 C776.9,181.6 776.8,181.9 776.6,182.2 C775.7,183.9 775,185.5 774.3,187.1 C774.1,187.5 774,187.8 773.8,188.2 C772.9,190.3 772.1,192.4 771.2,194.4 C771,194.8 770.9,195.2 770.7,195.6 L770.7,195.6 C770.4,196.4 770,197.2 769.7,198 L769.7,198 C769.4,198.8 769,199.6 768.6,200.4 C768.5,200.7 768.3,201 768.2,201.3 C767.5,202.7 766.8,204 766.1,205.4 C765.8,205.9 765.5,206.5 765.2,207 L765.1,207.1 C764.9,207.4 764.8,207.6 764.6,207.9 C764.4,208.3 764.1,208.6 763.9,209 C763.7,209.3 763.5,209.7 763.2,210 C762.5,211.1 761.7,212.1 760.9,213.2 C760.5,213.7 760.1,214.2 759.6,214.8 C759.4,215.1 759.2,215.3 758.9,215.6 C758.6,215.9 758.3,216.3 758,216.6 C726.6,251.8 670.5,247.3 601.9,260.7 C458.6,288.7 461.6,355.7 375.8,352.8 C375.8,352.8 359.3,352.3 343.9,347.8 C309.6,337.8 292.8,298.3 262.1,263.6 C257.5,258.4 252.7,253.4 247.4,248.5 C222.6,225.8 198.6,216.8 166.1,204.7 C81.5,173.2 9.9,185.9 2.2,157.3 C1.9,156.3 1.2,153 2.3,146.8 C13.8,85.4 203.5,-17.2 368.2,2.2 C378.3,3.4 389,5.1 400.3,7.1 C415.9,9.9 432.8,13.2 451.4,16.5 C462.5,18.4 474.2,20.3 486.7,22.1 C487.7,22.2 488.6,22.4 489.6,22.5 C494.8,23.2 500.2,23.9 505.7,24.6 C506.8,24.7 507.9,24.9 508.9,25 C511,25.2 513.2,25.5 515.3,25.7 C516.7,25.8 518.1,26 519.5,26.1 L519.9,26.1 C522,26.3 524.1,26.5 526.3,26.7 C527.4,26.8 528.4,26.9 529.5,27 C532.6,27.3 535.7,27.5 538.9,27.8 C540.6,27.9 542.2,28.1 543.9,28.2 L546.2,28.4 C547,28.5 547.7,28.5 548.5,28.6 C550.7,28.7 552.9,28.9 555.1,29 C556.5,29.1 558,29.2 559.4,29.2 C560.8,29.3 562.2,29.3 563.5,29.4 C565.5,29.5 567.4,29.6 569.4,29.7 C589.8,30.5 604.8,30.2 618,30.3 C738.6,30.9 856.9,64.6 870.2,102.7 C871,105.3 871.9,107.7 871.5,110.8 L871.5,110.8 Z" id="Shape"></path>
                        <path d="M871.5,110.9 C869.5,125.3 845,127.5 819.3,141.1 C810.3,145.4 801.5,151.2 793.7,159.6 C787,166.8 780.6,175.7 779.8,176.8 L779.7,176.9 C779.5,177.2 779.3,177.5 779.1,177.8 C778.9,178.1 778.7,178.4 778.6,178.7 C778.1,179.6 777.6,180.5 777.1,181.4 C776.9,181.7 776.8,182 776.6,182.3 C775.7,184 775,185.6 774.3,187.2 C774.1,187.6 774,187.9 773.8,188.3 C772.9,190.4 772.1,192.5 771.2,194.5 C771,194.9 770.9,195.3 770.7,195.7 L770.7,195.7 C770.4,196.5 770,197.3 769.7,198.1 L769.7,198.1 C769.4,198.9 769,199.7 768.6,200.5 C768.5,200.8 768.3,201.1 768.2,201.4 C767.5,202.8 766.8,204.1 766.1,205.5 C765.8,206 765.5,206.6 765.2,207.1 L765.1,207.2 C764.9,207.5 764.8,207.7 764.6,208 C764.4,208.4 764.1,208.7 763.9,209.1 C763.7,209.4 763.5,209.8 763.2,210.1 C762.5,211.2 761.7,212.2 760.9,213.3 C760.5,213.8 760.1,214.3 759.6,214.9 C759.4,215.2 759.2,215.4 758.9,215.7 C758.6,216 758.3,216.4 758,216.7 C726.6,251.9 670.5,247.4 601.9,260.8 C458.6,288.8 461.6,355.8 375.8,352.9 C375.8,352.9 359.3,352.4 343.9,347.9 C309.6,337.9 292.8,298.4 262.1,263.7 C262.8,263 263.6,262.3 264.4,261.6 C278.9,248.5 288,243.5 323,217.1 C334.2,208.6 343.5,201.7 351.2,195.9 C375.1,177.8 384.5,169.6 393.7,153.1 C423.1,100.3 403.7,47.6 400.3,7.2 C415.9,10 432.8,13.3 451.4,16.6 C462.5,18.5 474.2,20.4 486.7,22.2 C487.7,22.3 488.6,22.5 489.6,22.6 C494.8,23.3 500.2,24 505.7,24.7 C506.8,24.8 507.9,24.9 508.9,25.1 C511,25.3 513.2,25.6 515.3,25.8 C516.7,25.9 518.1,26.1 519.5,26.2 L519.9,26.2 C522,26.4 524.2,26.6 526.3,26.8 C527.4,26.9 528.4,27 529.5,27.1 C532.6,27.4 535.7,27.6 538.9,27.9 C540.6,28 542.2,28.2 543.9,28.3 C545.4,28.4 546.9,28.5 548.5,28.6 C550.7,28.7 552.9,28.9 555.1,29 C556.5,29.1 557.9,29.2 559.4,29.2 C560.8,29.3 562.1,29.3 563.5,29.4 C565.5,29.5 567.4,29.6 569.4,29.7 C584.7,30.3 600.9,30.6 618,30.3 C738.6,30.9 856.9,64.6 870.2,102.7 C871,105.3 871.9,107.7 871.5,110.9 L871.5,110.9 Z" id="Shape" fill="url(#linearGradient-13)" opacity="0.2"></path>
                        <path d="M181.5,108.3 C207.9,118.9 229.8,120.4 243.9,120.2 C255.2,120 285.3,119.4 289.4,106.5 C290.9,101.8 288.3,97.1 287.7,96.1 C276.4,77.1 222.7,91.1 220.2,91.8 C207.3,97.3 194.4,102.8 181.5,108.3 L181.5,108.3 Z" id="Shape" fill="#2A303D" opacity="0.05"></path>
                        <path d="M652.8,226.3 C652.8,226.3 736.3,181.2 736.2,167.6 C736.1,154 651.4,213.7 651.4,218.4 C651.3,223.1 652.8,226.3 652.8,226.3" id="Shape" fill="#2A303D" opacity="0.05"></path>
                        <path d="M398.6,157.4 C406.6,163.8 419.6,172 437.3,175.2 C445.7,176.7 469.8,181 489.7,166.6 C495.2,162.6 508.2,153.1 508.4,137.6 C508.6,122.6 496.6,112.6 494.6,111 C462.6,126.4 430.6,141.9 398.6,157.4 L398.6,157.4 Z" id="Shape" fill="#2A303D" opacity="0.1"></path>
                    </g>
                    <g id="plate" transform="translate(386.000000, 613.000000)">
                        <path d="M118.6,40.4 C118.6,60.3 92.8,76.5 60.7,76.8 L59.6,76.8 C27,76.8 0.6,60.5 0.6,40.4 L0.6,39.7 C1.2,19.9 27.4,4 59.6,4 C68.8,4 77.5,5.3 85.3,7.6 C103.2,13 116.1,23.8 118.2,36.6 L118.2,36.6 C118.5,37.9 118.6,39.1 118.6,40.4 L118.6,40.4 Z" id="Shape" fill="#182828"></path>
                        <path d="M118.3,36 L118.3,36.6 L118.3,36.6 C117.7,56.4 91.6,72.4 59.3,72.4 C28.8,72.4 3.6,58 0.6,39.7 C0.4,38.5 0.3,37.3 0.3,36 C0.3,15.9 26.7,-0.4 59.3,-0.4 C67.3,-0.4 75,0.6 82,2.4 C103.4,7.9 118.3,20.9 118.3,36 L118.3,36 Z" id="Shape" fill="#3D6658"></path>
                        <path d="M59,49.2 C46.5,49.2 36.3,41.9 36.3,32.8 C36.3,23.8 46.5,16.4 59,16.4 C71.5,16.4 81.7,23.7 81.7,32.8 C81.6,41.9 71.5,49.2 59,49.2 L59,49.2 Z M59,19.7 C48.2,19.7 39.5,25.6 39.5,32.9 C39.5,40.2 48.2,46.1 59,46.1 C69.8,46.1 78.5,40.2 78.5,32.9 C78.5,25.6 69.7,19.7 59,19.7 L59,19.7 Z" id="Shape" fill="#BACFDA" opacity="0.7"></path>
                        <path d="M118.6,40.4 C118.6,60.3 92.8,76.5 60.7,76.8 L59.3,72.4 C101.4,51.9 95.2,24.7 85.3,7.6 C84.2,5.7 83.1,4 82,2.4 C103.3,7.9 118.3,20.9 118.3,36 L118.3,36.6 L118.3,36.6 C118.5,37.9 118.6,39.1 118.6,40.4 L118.6,40.4 Z" id="Shape" fill="url(#linearGradient-14)" opacity="0.2"></path>
                        <path d="M29.5,62.7 C27.8,62.2 9.3,56.2 6.5,41.6 C5,33.9 7.7,23.3 12.4,22.3 C14.5,21.8 16.9,23.4 18.2,25.1 C21,29 18.4,34.2 17.7,39.1 C17.1,44.5 18.9,52.3 29.5,62.7 L29.5,62.7 Z" id="Shape" fill="#FFFFFF" opacity="0.15"></path>
                    </g>
                    <g id="menu" transform="translate(539.000000, 613.000000)">
                        <path d="M85.4,3.1 C57,16.7 28.5,30.3 0.1,43.9 C4.16333634e-17,44.4 4.16333634e-17,45 -0.1,45.5 C37.4,74.1 74.9,102.7 112.3,131.3 C140.6,111.7 168.8,92.2 197.1,72.6 C197.1,71.7 197.2,70.8 197.2,69.8 C160,47.6 122.7,25.3 85.4,3.1 L85.4,3.1 Z" id="Shape" fill="#BACFDA"></path>
                        <polygon id="Shape" fill="#FFFFFF" points="197.3 69.8 112.3 128.1 0.1 43.8 29.8 28.5 85.4 -0.1 170.6 53.1"></polygon>
                        <path d="M118.6,99.9 C118.1,99.9 117.6,99.7 117.3,99.2 C116.8,98.5 117,97.5 117.7,97 L162.1,65.4 C162.8,64.9 163.8,65.1 164.3,65.8 C164.8,66.5 164.6,67.5 163.9,68 L119.5,99.6 C119.2,99.8 118.9,99.9 118.6,99.9 L118.6,99.9 Z" id="Shape" fill="#31445A" opacity="0.6"></path>
                        <path d="M110.6,80.4 C110.4,80.4 110.2,80.3 110.1,80.1 C110,79.8 110,79.5 110.3,79.4 L149.4,56.1 C149.6,56 150,56 150.1,56.3 C150.2,56.6 150.2,56.9 149.9,57 L110.8,80.3 C110.8,80.4 110.7,80.4 110.6,80.4 L110.6,80.4 Z" id="Shape" fill="#31445A" opacity="0.6"></path>
                        <path d="M91.2,96 C91,96 90.9,95.9 90.8,95.8 C90.6,95.6 90.7,95.2 90.9,95.1 L101.6,86.5 C101.8,86.3 102.2,86.4 102.3,86.6 C102.5,86.8 102.4,87.2 102.2,87.3 L91.5,95.9 C91.5,95.9 91.3,96 91.2,96 L91.2,96 Z" id="Shape" fill="#31445A" opacity="0.6"></path>
                        <path d="M81.1,87.4 C80.9,87.4 80.8,87.3 80.7,87.2 C80.5,87 80.6,86.6 80.8,86.5 L91.5,77.9 C91.7,77.7 92.1,77.8 92.2,78 C92.4,78.2 92.3,78.6 92.1,78.7 L81.4,87.3 C81.3,87.3 81.2,87.4 81.1,87.4 L81.1,87.4 Z" id="Shape" fill="#31445A" opacity="0.6"></path>
                        <path d="M66,76.3 C65.8,76.3 65.7,76.2 65.6,76.1 C65.4,75.9 65.5,75.5 65.7,75.4 L76.4,66.8 C76.6,66.6 77,66.7 77.1,66.9 C77.3,67.1 77.2,67.5 77,67.6 L66.3,76.2 C66.3,76.3 66.2,76.3 66,76.3 L66,76.3 Z" id="Shape" fill="#31445A" opacity="0.6"></path>
                        <path d="M55.3,68.8 C55.1,68.8 55,68.7 54.9,68.6 C54.7,68.4 54.8,68 55,67.9 L65.7,59.3 C65.9,59.1 66.3,59.2 66.4,59.4 C66.6,59.6 66.5,60 66.3,60.1 L55.6,68.7 C55.5,68.8 55.4,68.8 55.3,68.8 L55.3,68.8 Z" id="Shape" fill="#31445A" opacity="0.6"></path>
                        <path d="M99.5,74.6 C99.3,74.6 99.2,74.5 99.1,74.4 C98.9,74.2 99,73.8 99.2,73.7 L134.9,45.5 C135.1,45.3 135.5,45.4 135.6,45.6 C135.8,45.8 135.7,46.2 135.5,46.3 L99.8,74.5 C99.7,74.6 99.6,74.6 99.5,74.6 L99.5,74.6 Z" id="Shape" fill="#31445A" opacity="0.6"></path>
                        <path d="M84,62.5 C83.8,62.5 83.6,62.4 83.5,62.2 C83.4,61.9 83.5,61.6 83.7,61.5 L123.9,40.3 C124.2,40.2 124.5,40.3 124.6,40.5 C124.7,40.8 124.6,41.1 124.4,41.2 L84.2,62.4 C84.2,62.4 84.1,62.5 84,62.5 L84,62.5 Z" id="Shape" fill="#31445A" opacity="0.6"></path>
                        <path d="M71.4,56.6 C71.2,56.6 71.1,56.5 71,56.4 C70.8,56.2 70.9,55.8 71.2,55.7 L109.2,30.8 C109.4,30.6 109.8,30.7 109.9,31 C110.1,31.2 110,31.6 109.7,31.7 L71.7,56.6 L71.4,56.6 L71.4,56.6 Z" id="Shape" fill="#31445A" opacity="0.6"></path>
                        <path d="M56.1,45.9 L55.9,45.9 C55.7,45.8 55.6,45.7 55.6,45.5 C55.5,45 52.8,33.8 60.1,29.1 C67.4,24.4 76.5,31.4 76.9,31.7 C77,31.8 77.1,32 77.1,32.1 C77.1,32.3 77,32.4 76.9,32.5 L56.4,45.7 C56.3,45.9 56.2,45.9 56.1,45.9 L56.1,45.9 Z M65.7,28.6 C64,28.6 62.3,29 60.7,30 C55,33.7 56.1,42 56.5,44.6 L75.7,32.2 C74.2,31.1 70,28.6 65.7,28.6 L65.7,28.6 Z" id="Shape" fill="#31445A" opacity="0.6"></path>
                        <path d="M51.3,47.9 C50.9,47.9 50.6,47.8 50.3,47.7 C49.9,47.5 49.4,47 49.4,45.9 C49.3,41.9 55.2,38.9 55.4,38.8 C55.7,38.7 56,38.8 56.1,39 C56.2,39.3 56.1,39.6 55.9,39.7 C55.8,39.7 50.4,42.5 50.5,45.9 C50.5,46.6 50.8,46.8 50.9,46.8 C51.8,47.3 54.4,46.1 55.9,45 C56.1,44.8 56.5,44.9 56.6,45.1 C56.8,45.3 56.7,45.7 56.5,45.8 C56.1,46.1 53.3,47.9 51.3,47.9 L51.3,47.9 Z" id="Shape" fill="#31445A" opacity="0.6"></path>
                        <path d="M170.6,53.1 C139.2,46.9 65.2,34.4 29.9,28.5 L85.5,-0.1 L170.6,53.1 L170.6,53.1 Z" id="Shape" fill="#2A303D" opacity="0.04"></path>
                    </g>
                    <g id="vase_and_plants" transform="translate(129.000000, 0.000000)">
                        <g id="plants">
                            <path d="M136.9,251.3 C140,258.1 139.7,265.7 133.7,284.5 C129.7,297 125.8,306 122.1,313.3 C114.8,328 108.3,336 103.5,351.5 C91.9,388.6 106.3,415 98.1,418.2 C98.1,418.2 98,418.2 98,418.3 C96.4,418.9 94.4,418.4 92.3,417 L92.3,417 C81.4,410.3 64.4,383 52.8,364.2 C20.8,312.4 -13.3,257.4 5.9,232.8 C17.3,218.2 37,226.9 43.8,213.4 C54.7,191.8 6.4,165.5 2.9,112.1 C1.1,85 11.2,55.2 25.4,52 C26,51.9 26.7,51.8 27.3,51.7 C38.2,51.1 45.8,66.5 56.2,63.4 C63.7,61.2 65.5,51.3 67.8,40 C70.3,28 73.3,14.4 84.2,6.6 C84.6,6.3 84.9,6.1 85.3,5.9 C96.6,-1.4 113.7,-2.1 119.4,5.1 C128.4,16.2 104.2,39 113.8,57.5 C120.5,70.3 135.3,65.4 144.3,78 C155.8,93.9 145.3,120.1 133.9,147.8 C133.1,149.7 132.4,151.5 131.6,153.2 C113.1,195.8 95,211.2 102.3,225.7 C103.2,227.5 104.4,229 105.8,230.3 C113.2,237.3 126.1,237.3 133.7,246.3 C134.9,247.7 136,249.4 136.9,251.3 L136.9,251.3 Z" id="Shape" fill="#3D6658"></path>
                            <path d="M95.1,442.9 L94.9,442.9 C94.3,442.8 93.9,442.3 94,441.7 C96.6,426.1 98.1,410.1 98.3,394.3 C98.9,350.9 93.1,310.1 81.1,273 C80.1,269.9 79.1,266.9 78.1,264.1 C73.3,250.2 69.6,239.3 70.6,223.1 C71.6,207 76.5,196.1 81.8,184.5 C86.6,173.9 91.6,162.9 93.5,147.3 C95.4,131.3 93.6,114.8 88.1,98.3 C87.9,97.7 88.2,97.2 88.8,97 C89.4,96.8 89.9,97.1 90.1,97.7 C95.7,114.6 97.5,131.4 95.6,147.7 C93.7,163.6 88.6,174.8 83.8,185.5 C78.6,196.9 73.8,207.7 72.8,223.4 C71.8,239.2 75.5,250 80.2,263.6 C81.2,266.5 82.2,269.4 83.2,272.6 C95.3,309.9 101.1,350.9 100.5,394.6 C100.3,410.5 98.8,426.6 96.2,442.3 C96.1,442.5 95.6,442.9 95.1,442.9 L95.1,442.9 Z" id="Shape" fill="url(#linearGradient-15)"></path>
                            <path d="M133.7,246.3 L122.1,313.4 L102.5,427 C102.5,427 100.8,423.8 98,418.2 C87.6,397.3 62.6,343.2 59.2,304.8 C56,267.5 89.8,240.7 105.8,230.2 C113.3,237.2 126.1,237.2 133.7,246.3 L133.7,246.3 Z" id="Shape" fill="#2A303D" opacity="0.05"></path>
                            <path d="M202,236.8 C184.1,253.4 162.1,254.9 160.8,268.7 C159.7,280.7 175.7,283.8 177.2,297.6 C179.4,317.9 146.3,325 125.4,359.8 C108.8,387.4 111.2,413.7 107.7,420.4 C107.2,421.5 106.5,422 105.6,422.1 C101.5,422.3 98.7,411.3 84.5,353.3 C75.2,315.3 70.6,296.1 75.8,283.1 C83,264.9 94.9,267 114.1,247.2 C153.7,206.6 136.8,164 171.7,144 C186,135.8 206.7,132.6 217.7,141.5 C221.1,144.2 223.6,148.1 225.4,152.8 C233.7,175 225.2,215.2 202,236.8 L202,236.8 Z" id="Shape" fill="#C78E7F"></path>
                            <path d="M100.1,464.9 L99.9,464.9 C99.3,464.8 99,464.2 99.1,463.7 C101.2,452.9 102.7,441.8 103.7,430.8 C107.2,392 102.7,366.5 99.1,346.1 C95.3,324.8 92.6,309.3 102.3,291.6 C109.3,278.7 118.2,273 127.6,267 C138.3,260.2 149.3,253.1 158.8,234.3 C166.3,219.6 170.1,202.9 170.2,184.7 C170.2,184.1 170.7,183.7 171.3,183.7 L171.3,183.7 C171.9,183.7 172.4,184.2 172.3,184.8 C172.2,203.3 168.3,220.3 160.7,235.3 C150.9,254.5 139.6,261.8 128.7,268.8 C119.5,274.7 110.9,280.2 104.1,292.7 C94.8,309.8 97.3,324.1 101.1,345.9 C104.7,366.5 109.2,392 105.7,431.1 C104.7,442.2 103.1,453.3 101,464.2 C101,464.5 100.6,464.9 100.1,464.9 L100.1,464.9 Z" id="Shape" fill="url(#linearGradient-16)"></path>
                            <path d="M133.9,147.7 C133.1,149.6 132.4,151.4 131.6,153.1 C118.8,132 112.8,113.8 109.7,101.1 C103.7,76.4 105.3,58.2 91.7,47.3 C83.8,41 74.2,39.9 67.7,39.9 C70.2,27.9 73.2,14.3 84.1,6.5 C84.5,6.2 84.8,6 85.2,5.8 C96.5,-1.5 113.6,-2.2 119.3,5 C128.3,16.1 104.1,38.9 113.7,57.4 C120.4,70.2 135.2,65.3 144.2,77.9 C155.8,93.8 145.3,120 133.9,147.7 L133.9,147.7 Z" id="Shape" fill="#2A303D" opacity="0.09"></path>
                            <path d="M202,236.8 C184.1,253.4 162.1,254.9 160.8,268.7 C159.7,280.7 175.7,283.8 177.2,297.6 C179.4,317.9 146.3,325 125.4,359.8 C108.8,387.4 111.2,413.7 107.7,420.4 C107.6,422 107.5,423.6 107.4,425.2 C108.2,366.5 125.2,340 141.8,326.8 C151.6,319 168.5,310.2 167.9,297.6 C167.3,284.6 148.9,280.8 148.9,269.3 C148.9,256.3 172.2,250.3 189.4,236.8 C205.3,224.2 221.4,200.7 225.3,153 C233.7,175 225.2,215.2 202,236.8 L202,236.8 Z" id="Shape" fill="#2A303D" opacity="0.09"></path>
                            <path d="M92.3,416.9 C81.4,410.2 64.4,382.9 52.8,364.1 C20.8,312.3 -13.3,257.3 5.9,232.7 C17.3,218.1 37,226.8 43.8,213.3 C54.7,191.7 6.4,165.4 2.9,112 C1.1,84.9 11.2,55.1 25.4,51.9 C26,51.8 26.7,51.7 27.3,51.6 C20.2,69.3 12.5,96.4 18.4,126.9 C27.3,172.8 62.6,203.1 50.7,220.8 C43.3,231.8 23.8,228.6 18.2,243.5 C15.7,250.2 17.2,256.7 18.8,261.2 C29.1,291.9 91.8,416 92.3,416.9 L92.3,416.9 Z" id="Shape" fill="url(#linearGradient-17)" opacity="0.11"></path>
                        </g>
                        <g id="vase" transform="translate(52.000000, 413.000000)">
                            <path d="M94.5,96.4 L94.5,209.5 C94.5,210.8 94.4,212 94.4,213.3 L0.6,213.3 C0.5,212 0.5,210.8 0.5,209.5 L0.5,96.4 C0.5,81.6 5.8,68.1 14.3,58.3 C17.9,54.2 22,50.8 26.6,48.2 L13.6,7.3 L11.4,0.5 L83.6,0.5 L81.4,7.3 L68.4,48.2 C83.9,57.1 94.5,75.4 94.5,96.4 L94.5,96.4 Z" id="Shape" fill="#BACFDA"></path>
                            <g id="Group" opacity="0.35" transform="translate(0.000000, 1.000000)" fill="#31445A">
                                <polygon id="Shape" opacity="0.4" points="18.3 -0.5 18.3 21.3 15.1 11.4 15.1 -0.5"></polygon>
                                <path d="M18.3,53.2 L18.3,212.3 L15.1,212.3 L15.1,56.4 C16.1,55.3 17.2,54.2 18.3,53.2 L18.3,53.2 Z" id="Shape" opacity="0.4"></path>
                                <polygon id="Rectangle-path" opacity="0.4" points="38 0 38 212.8 41.2 212.8 41.2 0"></polygon>
                                <path d="M62.1,1.2 L62.1,212.3 L58.9,212.3 L58.9,1.2 C58.9,0.3 59.6,-0.4 60.5,-0.4 C61.4,-0.3 62.1,0.4 62.1,1.2 L62.1,1.2 Z" id="Shape" opacity="0.4"></path>
                                <polygon id="Shape" opacity="0.4" points="83.6 -0.5 81.6 5.7 81.6 -0.5"></polygon>
                                <path d="M84.8,62.7 L84.8,212.3 L81.6,212.3 L81.6,58.4 C82.7,59.8 83.8,61.2 84.8,62.7 L84.8,62.7 Z" id="Shape" opacity="0.4"></path>
                                <polygon id="Shape" opacity="0.4" points="72.5 34.5 71.5 37.7 23.5 37.7 22.5 34.5"></polygon>
                                <path d="M90.5,73.8 L4.4,73.8 C4.8,72.7 5.2,71.7 5.7,70.6 L89.2,70.6 C89.7,71.7 90.1,72.7 90.5,73.8 L90.5,73.8 Z" id="Shape" opacity="0.4"></path>
                                <polygon id="Rectangle-path" opacity="0.4" points="0 106 0 109.2 94.1 109.2 94.1 106"></polygon>
                                <polygon id="Rectangle-path" opacity="0.4" points="0 140 0 143.2 94.1 143.2 94.1 140"></polygon>
                                <polygon id="Rectangle-path" opacity="0.4" points="0 175 0 178.2 94.1 178.2 94.1 175"></polygon>
                            </g>
                            <path d="M94.5,96.4 L94.5,209.5 C94.5,210.8 94.4,212 94.4,213.3 L0.5,213.3 C0.4,212 0.4,210.8 0.4,209.5 L0.4,96.4 C0.4,88.7 1.8,81.4 4.4,74.8 C4.8,73.7 5.2,72.7 5.7,71.6 C7.9,66.7 10.8,62.2 14.2,58.3 C14.5,58 14.8,57.7 15.1,57.3 C16.1,56.2 17.2,55.1 18.3,54.1 C20.8,51.8 23.6,49.8 26.5,48.1 L23.5,38.6 L22.5,35.4 L18.3,22.2 L15.1,12.2 L13.5,7.2 L11.3,0.4 L83.5,0.4 L81.5,6.6 L81.3,7.2 L72.4,35.4 L71.4,38.6 L68.4,48.1 C73.3,51 77.8,54.8 81.6,59.3 C82.7,60.6 83.8,62.1 84.8,63.5 C86.5,66 88,68.7 89.2,71.5 C89.7,72.5 90.1,73.6 90.5,74.7 C93.1,81.4 94.5,88.7 94.5,96.4 L94.5,96.4 Z" id="Shape"></path>
                            <path d="M94.5,206.5 L94.5,209.5 C94.5,210.8 94.4,212 94.4,213.3 L0.6,213.3 C0.5,212 0.5,210.8 0.5,209.5 L0.5,206.5 L94.5,206.5 L94.5,206.5 Z" id="Shape" fill="#31445A"></path>
                            <polygon id="Shape" fill="#31445A" points="83.6 0.5 81.4 7.3 13.5 7.3 11.4 0.5"></polygon>
                            <path d="M94.5,96.4 L94.5,209.5 C94.5,210.8 94.4,212 94.4,213.3 L53.8,213.3 L53.8,0.5 L83.5,0.5 L81.3,7.3 L68.3,48.2 C83.9,57.1 94.5,75.4 94.5,96.4 L94.5,96.4 Z" id="Shape" fill="#2A303D" opacity="0.09"></path>
                            <circle id="Oval" fill="#FFFFFF" opacity="0.23" cx="19" cy="83" r="8"></circle>
                        </g>
                    </g>
                </g>
            </g>
        </g>
    </g>
</svg>