<?xml version="1.0" encoding="UTF-8"?>
<svg width="1051px" height="1030px" viewBox="0 0 1051 1030" version="1.1" xmlns="http://www.w3.org/2000/svg" xmlns:xlink="http://www.w3.org/1999/xlink">
    <!-- Generator: Sketch 61.2 (89653) - https://sketch.com -->
    <title>playing</title>
    <desc>Created with Sketch.</desc>
    <defs>
        <linearGradient x1="0.0739103284%" y1="49.9746542%" x2="100.032113%" y2="49.9746542%" id="linearGradient-1">
            <stop stop-color="#5A142A" offset="16.21%"></stop>
            <stop stop-color="#9F6C00" offset="87.67%"></stop>
        </linearGradient>
        <linearGradient x1="0.224840235%" y1="49.9612553%" x2="99.9942678%" y2="49.9612553%" id="linearGradient-2">
            <stop stop-color="#FFFFFF" offset="0%"></stop>
            <stop stop-color="#87AEB4" offset="77.81%"></stop>
        </linearGradient>
        <linearGradient x1="-0.0158635952%" y1="49.9960863%" x2="99.9668724%" y2="49.9960863%" id="linearGradient-3">
            <stop stop-color="#271C41" offset="0%"></stop>
            <stop stop-color="#153E5C" offset="100%"></stop>
        </linearGradient>
        <linearGradient x1="0.189583074%" y1="49.9883005%" x2="100.077698%" y2="49.9883005%" id="linearGradient-4">
            <stop stop-color="#5A142A" offset="16.21%"></stop>
            <stop stop-color="#9F6C00" offset="87.67%"></stop>
        </linearGradient>
        <linearGradient x1="0.249441903%" y1="50.0720575%" x2="100.071458%" y2="50.0720575%" id="linearGradient-5">
            <stop stop-color="#5A142A" offset="16.21%"></stop>
            <stop stop-color="#9F6C00" offset="87.67%"></stop>
        </linearGradient>
        <linearGradient x1="1.49166667%" y1="51.8096946%" x2="100.697917%" y2="51.8096946%" id="linearGradient-6">
            <stop stop-color="#5A142A" offset="16.21%"></stop>
            <stop stop-color="#FFFFFF" offset="87.36%"></stop>
        </linearGradient>
        <linearGradient x1="0.091992925%" y1="49.737372%" x2="100.027264%" y2="49.737372%" id="linearGradient-7">
            <stop stop-color="#5A142A" offset="16.21%"></stop>
            <stop stop-color="#FFFFFF" offset="87.36%"></stop>
        </linearGradient>
        <linearGradient x1="-0.4782147%" y1="50.1707165%" x2="100.002635%" y2="50.1707165%" id="linearGradient-8">
            <stop stop-color="#5A142A" offset="16.21%"></stop>
            <stop stop-color="#FFFFFF" offset="87.36%"></stop>
        </linearGradient>
        <linearGradient x1="-0.0416474211%" y1="50.0499887%" x2="99.9687452%" y2="50.0499887%" id="linearGradient-9">
            <stop stop-color="#FFFFFF" offset="0%"></stop>
            <stop stop-color="#87AEB4" offset="77.81%"></stop>
        </linearGradient>
        <linearGradient x1="0.0673618813%" y1="49.993561%" x2="99.9897311%" y2="49.993561%" id="linearGradient-10">
            <stop stop-color="#FFFFFF" offset="0%"></stop>
            <stop stop-color="#87AEB4" offset="77.81%"></stop>
        </linearGradient>
        <linearGradient x1="0.00315032729%" y1="50.0062796%" x2="99.994147%" y2="50.0062796%" id="linearGradient-11">
            <stop stop-color="#FFFFFF" offset="0%"></stop>
            <stop stop-color="#87AEB4" offset="77.81%"></stop>
        </linearGradient>
        <linearGradient x1="0.0670967742%" y1="49.8715276%" x2="100.002258%" y2="49.8715276%" id="linearGradient-12">
            <stop stop-color="#271C41" offset="0%"></stop>
            <stop stop-color="#153E5C" offset="100%"></stop>
        </linearGradient>
        <linearGradient x1="-0.167660102%" y1="50.2798336%" x2="100.06913%" y2="50.2798336%" id="linearGradient-13">
            <stop stop-color="#271C41" offset="0%"></stop>
            <stop stop-color="#153E5C" offset="100%"></stop>
        </linearGradient>
        <linearGradient x1="-0.153846154%" y1="50.0188943%" x2="100.100452%" y2="50.0188943%" id="linearGradient-14">
            <stop stop-color="#87AEB4" offset="22.19%"></stop>
            <stop stop-color="#FFFFFF" offset="100%"></stop>
        </linearGradient>
        <linearGradient x1="0.114814815%" y1="49.9978165%" x2="100.281481%" y2="49.9978165%" id="linearGradient-15">
            <stop stop-color="#87AEB4" offset="22.19%"></stop>
            <stop stop-color="#FFFFFF" offset="100%"></stop>
        </linearGradient>
        <linearGradient x1="-0.064516129%" y1="50.0550505%" x2="99.9892102%" y2="50.0550505%" id="linearGradient-16">
            <stop stop-color="#FFFFFF" offset="0%"></stop>
            <stop stop-color="#87AEB4" offset="77.81%"></stop>
        </linearGradient>
        <linearGradient x1="-0.0851039068%" y1="50.0723994%" x2="99.986002%" y2="50.0723994%" id="linearGradient-17">
            <stop stop-color="#271C41" offset="0%"></stop>
            <stop stop-color="#153E5C" offset="100%"></stop>
        </linearGradient>
        <linearGradient x1="0.0913678619%" y1="49.9662583%" x2="100.024037%" y2="49.9662583%" id="linearGradient-18">
            <stop stop-color="#271C41" offset="0%"></stop>
            <stop stop-color="#153E5C" offset="100%"></stop>
        </linearGradient>
        <linearGradient x1="0.428157035%" y1="49.9227941%" x2="99.7026889%" y2="49.9227941%" id="linearGradient-19">
            <stop stop-color="#FFFFFF" offset="0%"></stop>
            <stop stop-color="#87AEB4" offset="77.81%"></stop>
        </linearGradient>
        <linearGradient x1="-95.0419665%" y1="49.9854452%" x2="44.1664472%" y2="49.9854452%" id="linearGradient-20">
            <stop stop-color="#87AEB4" offset="22.19%"></stop>
            <stop stop-color="#FFFFFF" offset="100%"></stop>
        </linearGradient>
        <linearGradient x1="0.317351598%" y1="50.0231132%" x2="99.9150685%" y2="50.0231132%" id="linearGradient-21">
            <stop stop-color="#87AEB4" offset="0%"></stop>
            <stop stop-color="#FFFFFF" offset="81.16%"></stop>
        </linearGradient>
        <linearGradient x1="0.0874732914%" y1="50.0314394%" x2="99.7630471%" y2="50.0314394%" id="linearGradient-22">
            <stop stop-color="#87AEB4" offset="0%"></stop>
            <stop stop-color="#87AEB4" offset="0%"></stop>
            <stop stop-color="#FFFFFF" offset="32.55%"></stop>
        </linearGradient>
        <linearGradient x1="0%" y1="50.0102237%" x2="99.9919919%" y2="50.0102237%" id="linearGradient-23">
            <stop stop-color="#FFFFFF" offset="0%"></stop>
            <stop stop-color="#BDD3DE" offset="100%"></stop>
        </linearGradient>
        <linearGradient x1="-0.014661274%" y1="49.9981402%" x2="99.9919616%" y2="49.9981402%" id="linearGradient-24">
            <stop stop-color="#365588" stop-opacity="0.7" offset="14.4%"></stop>
            <stop stop-color="#002544" stop-opacity="0.4" offset="100%"></stop>
        </linearGradient>
        <linearGradient x1="57.13835%" y1="76.435749%" x2="87.3401559%" y2="8.12686725%" id="linearGradient-25">
            <stop stop-color="#0B224C" offset="1.133815%"></stop>
            <stop stop-color="#BDD3DE" stop-opacity="0.2" offset="100%"></stop>
        </linearGradient>
    </defs>
    <g id="Page-1" stroke="none" stroke-width="1" fill="none" fill-rule="evenodd">
        <g id="playing" transform="translate(1.000000, 0.000000)">
            <g id="background">
                <g id="general">
                    <path d="M1048.2,217.5 L1048.2,223.5 C1047.9,259 1044.5,291.7 1041.7,315.9 C1041.4,318.7 1041.1,321.3 1040.8,323.9 C1040.8,324.2 1040.7,324.5 1040.7,324.8 C1039.2,338.2 1037.7,351 1036.1,363.1 C1031.5,397.6 1025.9,426.8 1014.4,451.6 C1013.2,454.3 1011.9,456.9 1010.5,459.5 C1003.6,472.4 994.8,484 983.4,494.6 C975.4,501.9 966.3,509 951.6,516.9 C947.5,519.1 943.3,521.2 939,523.1 C936.5,524.3 933.9,525.4 931.3,526.5 C886.8,545 833.7,551.7 779.2,551.4 C776.5,551.4 773.9,551.4 771.2,551.3 C728.6,550.5 685.4,545.6 644.7,538.8 C642,538.3 639.4,537.9 636.7,537.4 C609.9,532.7 584.3,527.2 560.9,521.6 C546.2,518.1 532.3,514.5 519.6,511 C516.9,510.3 514.3,509.6 511.8,508.8 C466.1,496.1 436.8,485.4 436.8,485.4 C408.1,475.1 378,464.3 347.6,452.7 C332.4,446.9 317.1,440.9 301.8,434.6 C298,433 294.1,431.4 290.3,429.8 C285.1,427.6 279.9,425.4 274.7,423.1 C236.4,406.5 199,388.1 164.9,367.4 C163.5,366.5 162,365.6 160.6,364.8 C159.3,364 157.9,363.2 156.6,362.3 C145.4,355.3 134.6,348 124.2,340.4 C104,325.6 85.6,309.8 69.5,292.6 C64.7,287.5 60.2,282.4 55.8,277.1 C53.6,274.4 51.4,271.6 49.2,268.8 C48.8,268.3 48.4,267.7 48,267.2 C28.5,241 14.2,212 7.2,179.8 C1.5,154 -3.1,132.6 7.2,109.9 C9.3,105.4 11.7,101.2 14.6,97.4 C16.6,94.7 18.8,92.2 21.1,89.9 C44.5,66.7 85.9,58.1 140.1,55.6 C142.7,55.5 145.4,55.4 148.1,55.3 C189.2,53.8 237.2,55.4 290,56.6 C292.7,56.7 295.3,56.7 298,56.8 C358.2,58.1 424.5,58.6 493.7,53.2 C515.7,51.5 538,49.2 560.5,46.2 C563.2,45.8 565.9,45.5 568.7,45.1 C577.2,43.9 585.7,42.6 594.3,41.1 C594.3,41.1 615.6,37.5 650,32.4 C652.6,32 655.2,31.6 658,31.2 C679.7,28 705.9,24.3 734.7,20.5 C737.3,20.2 740,19.8 742.7,19.5 C786.6,13.9 836.2,8.2 885.5,4 C888.2,3.8 890.8,3.6 893.5,3.3 C900.3,2.7 907,2.2 913.7,1.7 L913.7,1.7 C928.2,1.2 939.7,2 949.7,4.4 C962.6,7.6 972.9,13.4 983.7,22.6 C1001.7,38 1014.9,57.5 1024.6,79.3 C1033.5,99.4 1039.3,121.4 1043,144 C1044.4,152.4 1045.4,160.9 1046.2,169.3 C1046.5,172 1046.7,174.7 1046.9,177.4 C1047.8,191 1048.3,204.4 1048.2,217.5 L1048.2,217.5 Z" id="Shape" fill="#EEEDEE"></path>
                    <path d="M907.7,166.7 L1046.8,177.5 C1046.6,174.8 1046.4,172.1 1046.1,169.4 L907,158.6 L893.3,3.3 C890.6,3.5 888,3.7 885.3,4 L898.9,158 L751.3,146.6 L742.6,19.4 C739.9,19.7 737.3,20.1 734.6,20.4 L743.2,145.9 L655.5,139.1 C656.9,86 657.8,45.2 657.9,31 C655.2,31.4 652.5,31.8 649.9,32.2 C649.8,46.8 648.9,86.7 647.5,138.4 L559.4,131.6 L568.5,44.9 C565.8,45.3 563,45.7 560.3,46 L551.4,130.9 L298.4,111.3 L297.9,56.6 C295.2,56.6 292.6,56.5 289.9,56.4 L290.5,110.6 L150.5,99.7 L148,55.3 C145.3,55.4 142.7,55.5 140,55.6 L142.3,99.3 L21,90 C18.6,92.3 16.4,94.8 14.5,97.5 L142.9,107.4 L151.8,273.8 L49.1,269 C51.2,271.8 53.4,274.6 55.7,277.3 L152.2,281.9 L156.5,362.5 C157.8,363.3 159.2,364.1 160.5,365 C161.9,365.9 163.4,366.8 164.8,367.6 L160.2,282.2 L292.3,288.5 L293.7,424 L274.7,423.3 C279.9,425.6 285.1,427.8 290.3,430 C294.1,431.6 298,433.2 301.8,434.8 L301.8,432.4 L519,440.7 L511.8,508.9 C514.3,509.6 517,510.3 519.6,511.1 L527,441 L639.3,445.3 C638.2,484.4 637.3,517 636.7,537.4 C639.4,537.9 642,538.3 644.7,538.8 C645.3,518.3 646.2,485.3 647.4,445.6 L764.3,450.1 L771.2,551.3 C773.9,551.4 776.6,551.4 779.2,551.4 L772.3,450.4 L925.2,456.3 L931.4,526.6 C934,525.5 936.6,524.4 939.1,523.2 L933.3,456.6 L1010.7,459.6 C1012.1,457 1013.4,454.4 1014.6,451.7 L932.6,448.6 L921.2,318.4 L1041.1,324.1 C1041.4,321.6 1041.7,318.9 1042,316.1 L920.5,310.3 L907.7,166.7 L907.7,166.7 Z M159.8,274.2 L150.9,108.1 L290.6,118.9 L292.2,280.5 L159.8,274.2 L159.8,274.2 Z M899.6,166.1 L912.2,309.8 L762,302.7 L751.8,154.7 L899.6,166.1 L899.6,166.1 Z M655.3,147.2 L743.7,154.1 L753.9,302.4 L651.3,297.5 C652.8,244.9 654.2,192.1 655.3,147.2 L655.3,147.2 Z M298.6,119.5 L550.7,139 L534.6,291.9 L300.2,280.8 L298.6,119.5 L298.6,119.5 Z M519.7,432.7 L301.6,424.3 L300.2,288.8 L533.6,299.8 L519.7,432.7 L519.7,432.7 Z M639.4,437.3 L527.7,433 L541.7,300.3 L643.1,305.1 C641.8,351.5 640.5,397.4 639.4,437.3 L639.4,437.3 Z M643.3,297.1 L542.5,292.3 L558.6,139.7 L647.3,146.6 C646.2,191.4 644.8,244.4 643.3,297.1 L643.3,297.1 Z M647.4,437.6 C648.5,397.8 649.8,351.9 651.1,305.5 L754.5,310.4 L763.5,442.1 L647.4,437.6 L647.4,437.6 Z M924.3,448.2 L771.6,442.3 L762.6,310.7 L912.9,317.8 L924.3,448.2 L924.3,448.2 Z" id="Shape" fill="#FFFFFF" opacity="0.5"></path>
                    <g id="figure2" transform="translate(0.000000, 596.000000)">
                        <path d="M1028.9,303.4 C1025.5,309.3 1019.3,319.2 1004.2,331.2 C1000.9,333.8 997.2,336.5 993,339.3 C981.4,347 966.1,355.3 945.8,363.9 C942.6,365.2 939.4,366.6 936,367.9 C914.2,376.4 887.1,385.1 853.6,393.6 C843.5,396.1 832.7,398.7 821.4,401.1 C812.1,403.1 802.3,405.2 792.1,407.2 C788.5,407.9 785,408.6 781.4,409.3 C778.1,410 774.8,410.6 771.5,411.2 C718.5,421.4 673.1,429.5 632.4,432.5 C629,432.8 625.7,433 622.4,433.1 C566.5,436.1 519.5,428.7 473.7,402.7 C460.9,395.4 452.7,389.2 446,383 C442.8,380 439.9,377.1 437.1,373.9 C436.3,373 435.5,372.2 434.8,371.3 C431.8,368 428.7,364.4 425.1,360.5 C417.7,352.5 408.2,343.2 393.2,331.1 C356.3,301.4 317.7,280.9 279.7,266.2 C276.4,264.9 273.1,263.7 269.9,262.5 C234.1,249.6 199.1,241.5 166.7,235.5 C163.3,234.9 160,234.3 156.6,233.7 C75.8,219.5 13.6,216.5 1.5,177.7 C-0.4,171.6 -0.8,165.3 -0.2,159 C0.1,155.7 0.8,152.5 1.7,149.2 C10.3,117.2 42.7,85.6 57,72.4 C58.8,70.7 60.4,69.4 61.5,68.3 C63.2,66.7 65,65.2 66.8,63.7 C91,43.3 118.5,28.8 147.9,18.8 C151.1,17.7 154.3,16.7 157.6,15.7 C197.2,3.7 239.8,-0.5 281.7,0.1 C285,0.1 288.4,0.2 291.7,0.3 C363.8,2.6 433.2,18.4 481.6,32.1 C484.9,33.1 488.2,34 491.3,34.9 C513.3,41.4 530.1,47.1 539.6,50.4 C577.6,63.4 604.5,75.7 626,87.2 C629.5,89 632.8,90.8 635.9,92.6 C678.7,116.7 701,137 760.5,152.7 C763.8,153.6 767.1,154.4 770.6,155.2 C776.8,156.7 783.4,158.1 790.4,159.5 C842.2,169.8 889,172 928.2,174.4 C931.6,174.6 934.9,174.8 938.2,175 C991,178.5 1028.6,183.7 1043.4,213.1 C1044.4,215 1045.2,217 1045.9,219 L1045.9,219 C1047.1,222.5 1048,226 1048.6,229.5 C1053.3,261 1034.2,294.3 1028.9,303.4 L1028.9,303.4 Z" id="Shape" fill="#EEEDEE"></path>
                        <path d="M939.6,212.5 C978.2,218.7 1014.8,224.6 1048.5,230 C1048,226.4 1047.1,222.9 1045.8,219.5 L1045.8,219.5 C1031.1,217.1 992.7,211 939.2,202.4 L938.1,175.5 C934.8,175.3 931.5,175.1 928.1,174.9 L929.1,200.8 C884.5,193.6 830.4,185 771.3,175.5 L770.5,155.6 C767,154.8 763.6,153.9 760.4,153.1 L761.3,173.9 C721,167.4 678.5,160.7 635.2,153.7 L635.8,92.9 C632.6,91.1 629.3,89.3 625.9,87.5 L625.2,152.1 C599.9,148.1 574.4,144 548.9,139.9 C524.8,136.1 501.5,132.3 479,128.8 L491.2,35.3 C488.1,34.4 484.8,33.4 481.5,32.5 L469.2,127.3 C400.6,116.4 339.8,106.7 287.2,98.4 L291.6,0.7 C288.3,0.6 284.9,0.5 281.6,0.5 L277.2,96.8 C249.6,92.4 224.4,88.5 201.6,84.9 C186.4,82.5 172.6,80.4 160.1,78.4 L157.6,17.4 C157.6,16.9 157.5,16.5 157.4,16.1 C154.2,17.1 150.9,18.1 147.7,19.2 L150,76.9 C108.5,70.4 82.7,66.5 66.6,64.1 C64.8,65.6 63,67.1 61.3,68.7 C60.2,69.7 58.6,71.1 56.8,72.8 C75,75.4 107.5,80.4 150.4,87.1 L154,177.2 L1.5,149.4 C0.6,152.7 -5.55111512e-17,155.9 -0.4,159.2 L154.5,187.3 L156.4,233.9 C159.7,234.5 163.1,235.1 166.5,235.7 L164.6,189.1 L272.1,208.6 L269.7,262.6 C273,263.8 276.2,265 279.5,266.3 L282,210.4 L454.2,241.6 L438.6,361.6 L424.9,360.5 C428.5,364.4 431.6,367.9 434.6,371.3 L437.3,371.5 L437,374 C439.8,377.1 442.7,380.1 445.9,383.1 L447.3,372.4 L622.8,385.9 L622.3,433.2 C625.6,433 628.9,432.8 632.3,432.6 L632.8,386.7 L770.8,397.3 L771.4,411.2 C774.7,410.6 778,409.9 781.3,409.3 L780.8,398.1 L821.3,401.2 C832.6,398.7 843.4,396.2 853.5,393.7 L780.4,388.1 L776.7,300.3 L934.4,328.9 L936,368.1 C939.4,366.8 942.7,365.4 945.8,364.1 L944.4,330.7 L993,339.5 C997.2,336.7 1000.9,334 1004.2,331.4 L944,320.3 L939.6,212.5 L939.6,212.5 Z M272.6,198.6 L164.2,179 L160.5,88.6 C194,93.8 233.3,100 276.7,106.8 L272.6,198.6 L272.6,198.6 Z M282.5,200.4 L286.7,108.4 C341.9,117.1 403.4,126.9 467.9,137.1 L455.6,231.8 L282.5,200.4 L282.5,200.4 Z M622.9,375.8 L448.6,362.4 L464.1,243.4 L624,272.4 L622.9,375.8 L622.9,375.8 Z M624.1,262.3 L465.4,233.5 L477.8,138.6 C525.8,146.2 575.4,154.1 625.2,162.1 L624.1,262.3 L624.1,262.3 Z M635.1,163.7 C677.5,170.5 720,177.3 761.7,183.9 L766.1,288 L634,264 L635.1,163.7 L635.1,163.7 Z M632.9,376.6 L634,274.2 L766.7,298.2 L770.5,387.1 L632.9,376.6 L632.9,376.6 Z M776.2,289.9 L771.8,185.6 C826.4,194.4 879.6,202.9 929.6,210.9 L933.9,318.5 L776.2,289.9 L776.2,289.9 Z" id="Shape" fill="#FFFFFF" opacity="0.5"></path>
                        <path d="M1028.9,303.4 C1025.5,309.3 1019.3,319.2 1004.2,331.2 C1000.9,333.8 997.2,336.5 993,339.3 C981.4,347 966.1,355.3 945.8,363.9 C942.6,365.2 939.4,366.6 936,367.9 C914.2,376.4 887.1,385.1 853.6,393.6 C843.5,396.1 832.7,398.7 821.4,401.1 C812.1,403.1 802.3,405.2 792.1,407.2 C788.5,407.9 785,408.6 781.4,409.3 C778.1,410 774.8,410.6 771.5,411.2 C718.5,421.4 673.1,429.5 632.4,432.5 C629,432.8 625.7,433 622.4,433.1 C566.5,436.1 519.5,428.7 473.7,402.7 C460.9,395.4 452.7,389.2 446,383 C442.8,380 439.9,377.1 437.1,373.9 C436.3,373 435.5,372.2 434.8,371.3 C431.8,368 428.7,364.4 425.1,360.5 C417.7,352.5 408.2,343.2 393.2,331.1 C356.3,301.4 317.7,280.9 279.7,266.2 C276.4,264.9 273.1,263.7 269.9,262.5 C234.1,249.6 199.1,241.5 166.7,235.5 C163.3,234.9 160,234.3 156.6,233.7 C75.8,219.5 13.6,216.5 1.5,177.7 C-0.4,171.6 -0.8,165.3 -0.2,159 C0.1,155.7 0.8,152.5 1.7,149.2 C10.3,117.2 42.7,85.6 57,72.4 C58.8,70.7 60.4,69.4 61.5,68.3 C63.2,66.7 65,65.2 66.8,63.7 C91,43.3 118.5,28.8 147.9,18.8 C151.1,17.7 154.3,16.7 157.6,15.7 C197.2,3.7 239.8,-0.5 281.7,0.1 C285,0.1 288.4,0.2 291.7,0.3 C363.8,2.6 433.2,18.4 481.6,32.1 C484.9,33.1 488.2,34 491.3,34.9 C513.3,41.4 530.1,47.1 539.6,50.4 C577.6,63.4 604.5,75.7 626,87.2 C629.5,89 632.8,90.8 635.9,92.6 C678.7,116.7 701,137 760.5,152.7 C763.8,153.6 767.1,154.4 770.6,155.2 C776.8,156.7 783.4,158.1 790.4,159.5 C842.2,169.8 889,172 928.2,174.4 C931.6,174.6 934.9,174.8 938.2,175 C991,178.5 1028.6,183.7 1043.4,213.1 C1044.4,215 1045.2,217 1045.9,219 L1045.9,219 C1047.1,222.5 1048,226 1048.6,229.5 C1053.3,261 1034.2,294.3 1028.9,303.4 L1028.9,303.4 Z" id="Shape"></path>
                    </g>
                    <g id="ball" transform="translate(702.000000, 0.000000)" fill="#BDD3DE" opacity="0.42">
                        <path d="M340.8,142.8 L346.7,222.7 C346.5,222.5 346.4,222.3 346.2,222.2 C345.8,262.3 341.6,298.8 338.7,323.5 C337.1,336.9 335.7,349.7 334.1,361.8 C326.6,418.5 316.2,461 281.3,493.3 C271.6,502.3 260.9,509.6 249.5,515.6 C232.4,515 215.6,512.6 199.4,508.8 C144.7,495.8 96.3,465.4 60.8,423.4 C26.7,383 4.5,331.8 0.4,275 C-1.2,253.9 -0.1,233.3 3.2,213.3 C11.1,165.4 32.2,121.6 62.9,86.1 C100.2,42.5 152,11.4 211.4,0.3 L211.4,0.3 C225.9,-0.2 237.5,0.6 247.4,3 C260.3,6.1 270.6,12 281.4,21.2 C299.4,36.6 312.6,56.1 322.3,77.9 C331.2,98.1 337.1,120.1 340.8,142.8 L340.8,142.8 Z" id="Shape"></path>
                        <path d="M346.1,222.1 C345.7,262.2 341.5,298.7 338.6,323.4 C337,336.8 335.6,349.6 334,361.7 C303.3,354.1 272.7,346.5 242,338.8 C235,304.7 228,270.5 221,236.4 C252.5,221.2 284,206 315.4,190.8 C325.6,201.3 335.9,211.7 346.1,222.1 L346.1,222.1 Z" id="Shape"></path>
                        <path d="M199.3,508.7 C144.6,495.7 96.2,465.3 60.7,423.3 C61.2,421.7 61.7,420.1 62.3,418.5 C100.8,418.1 139.4,417.7 178,417.3 C185,447.8 192.1,478.2 199.3,508.7 L199.3,508.7 Z" id="Shape"></path>
                        <path d="M129.8,192.6 C101,208.9 72.2,225.1 43.3,241.4 C29.8,232 16.4,222.6 3,213.2 C10.9,165.3 32,121.5 62.7,86 C78.6,86.6 94.6,87.2 110.5,87.8 C117,122.7 123.4,157.6 129.8,192.6 L129.8,192.6 Z" id="Shape"></path>
                        <path d="M322.3,78 C320.5,78.9 318.7,79.9 316.9,80.9 C292.7,58.4 268.4,35.8 244.2,13.3 L247.4,3.1 C260.3,6.2 270.6,12.1 281.4,21.3 C299.4,36.7 312.7,56.2 322.3,78 L322.3,78 Z" id="Shape"></path>
                    </g>
                    <path d="M396.1,320.5 L394.5,298.6 L374.6,300.1 L371.8,262.2 C380.2,258.3 387.6,250.8 393.5,240.6 C421.3,231.3 439.2,214 437.3,198.1 C436.3,189.2 428.1,176.2 416,175.8 C412.7,175.7 409.8,176.5 407.3,177.8 C406.3,173.2 402.1,169.8 397.2,170.2 L311.3,176.5 C306.4,176.9 302.7,180.8 302.4,185.5 C299.7,184.6 296.7,184.2 293.5,184.8 C281.6,187 275.5,201.1 275.7,210 C276.2,226 296.4,240.5 325.3,245.7 C332.6,254.9 341,261.3 349.9,263.9 L352.7,301.8 L332.8,303.3 L334.4,325.2 L239.6,332.2 C237.9,315.8 225.1,302.9 209.2,300.7 L207.2,273.6 C216.7,266.4 225.9,248.4 232.8,222.4 C269.4,193.9 288,157.1 275.5,136.4 C273,132.3 265.3,123.3 244.6,120.7 L244.6,113.3 L129.9,121.7 C130.2,123.9 130.5,126.1 130.9,128.3 C107.8,133.7 100.8,144.6 98.9,149.3 C89.2,172.6 115.4,208.2 158.9,230.9 C169.5,254.8 181.1,270.4 191.4,275.3 L193.4,302 C178.6,306.9 168.2,321.2 169,337.3 L124.3,340.6 C135.9,349.1 148.1,357.2 160.7,365 L492.1,340.6 L490.1,313.7 L396.1,320.5 L396.1,320.5 Z M407.3,187.2 C409.4,185.4 412.4,183.6 415.7,183.7 C422.8,183.9 428.6,193 429.3,198.9 C430.7,210.5 415.7,222.5 398.5,230 C403.5,217.8 406.7,203.1 407.3,187.2 L407.3,187.2 Z M283.7,209.7 C283.5,203.8 287.9,193.9 294.9,192.6 C298.2,192 301.4,193.4 303.7,194.8 C306.7,210.4 311.9,224.5 318.6,235.9 C300.5,231.1 284,221.3 283.7,209.7 L283.7,209.7 Z M244.4,128.6 C261.5,131 267.2,138 268.6,140.4 C276.9,154.2 266.3,182.9 235.8,209.5 C240.6,186.8 243.8,159.3 244.4,128.6 L244.4,128.6 Z M106.1,152.3 C107.2,149.6 112.4,140.8 132,136.1 C137.3,168.4 145.1,196.5 153.8,218.9 C116.1,196.6 99.6,167.9 106.1,152.3 L106.1,152.3 Z" id="cups" fill="#BDD3DE" opacity="0.42"></path>
                </g>
            </g>
            <g id="main" transform="translate(185.000000, 271.000000)">
                <g id="general_1_">
                    <g id="pillow" transform="translate(356.000000, 282.000000)">
                        <path d="M399.4,172.4 C385.2,207.9 363.8,231.5 349.9,244.5 C349.6,244.5 349.3,244.5 349,244.6 C311.7,246.8 267.1,246.3 217.5,239.2 C124.2,225.8 50.7,194.5 1.2,168.2 C0.5,163.2 -11,65.1 53.9,19.7 C63.8,12.8 80,4 103.4,0.3 C203.5,14.2 303.7,28.1 403.8,42 C404.3,42.1 404.9,42.2 405.4,42.2 L405.7,42.2 C411,61 422.8,113.7 399.4,172.4 L399.4,172.4 Z" id="Shape" fill="#FC860A"></path>
                        <path d="M399.4,172.4 C385.2,207.9 363.8,231.5 349.9,244.5 C312.4,246.8 267.5,246.3 217.5,239.1 C124.2,225.7 50.7,194.4 1.2,168.1 L1.2,126.1 C1.2,126.1 9.1,128.9 22.4,133.3 C96.5,157.7 339.9,231.5 344.5,153 C348,92.7 381.2,58.4 403.9,41.9 C404.5,42 405.2,42.1 405.8,42.2 C411,61 422.8,113.7 399.4,172.4 L399.4,172.4 Z" id="Shape" fill="#19233D" opacity="0.25"></path>
                        <path d="M399.4,172.4 C385.2,207.9 363.8,231.5 349.9,244.5 C349.6,244.5 349.3,244.5 349,244.6 C347.9,239.7 347.8,234.6 347.7,231.6 C347,204.3 365.3,195.7 380,166 C393.3,139.1 392,118.7 405.5,42.2 L405.8,42.2 C411,61 422.8,113.7 399.4,172.4 L399.4,172.4 Z" id="Shape" fill="url(#linearGradient-1)" opacity="0.27"></path>
                    </g>
                    <g id="man" transform="translate(351.000000, 0.000000)">
                        <g id="body" transform="translate(122.000000, 109.000000)">
                            <path d="M214.6,41.9 C210.6,63.5 206.6,85.1 202.5,106.8 C202.2,108.2 202,109.6 201.7,111.1 C201.5,112.4 201.2,113.7 201,114.9 C188.7,181.3 176.3,247.8 164,314.2 L107,305.7 L34.8,294.9 C34.6,285.4 34.3,275.5 33.7,265.2 C32.7,246.8 31.1,227.4 28.6,206.9 C27.3,196.3 25.8,185.4 24,174.3 C23.5,171.3 23,168.4 22.5,165.5 C20.3,152.8 18,140.6 15.4,128.8 C15.2,127.9 15,126.9 14.8,126 C14.5,124.6 14.2,123.2 13.9,121.8 C13.2,118.7 12.5,115.7 11.8,112.7 C8.2,97.1 4.2,82.4 0.2,68.5 C7.9,57.7 14.8,49.6 18.5,45.2 C24.2,38.5 32,30.8 42.2,23.7 C46.4,21.1 50.6,18.4 54.9,15.9 C57.4,14.4 60,13 62.6,11.7 C71.9,7 82.2,3.1 94.8,1.1 C101.7,5.5067062e-14 108.1,-0.4 114.1,-0.2 C123.4,5.5067062e-14 131.6,1.3 138.4,2.9 C142.2,3.8 145.6,4.7 148.5,5.5 C154.6,7.1 160.3,9.1 165.6,11.3 C188.2,20.1 204.4,32.6 214.6,41.9 L214.6,41.9 Z" id="Shape" fill="#19233D"></path>
                            <path d="M138.8,2.8 C138.6,4.8 138.4,6.7 138.2,8.6 C136.5,21.9 135,33.1 127.4,43 C116,58.1 91.5,69.2 76.8,60.2 C65.6,53.3 63.9,37 62.8,26.8 C62.2,21.2 62.3,16.1 62.8,11.6 C72.1,6.9 82.4,3 95,1 C112.7,-1.8 127.5,0.3 138.8,2.8 L138.8,2.8 Z" id="Shape" fill="#FFFFFF"></path>
                            <path d="M202.6,106.8 C202.3,108.2 202.1,109.6 201.8,111.1 C141.9,93.9 49.8,116.3 15,126 C14.7,124.6 14.4,123.2 14.1,121.8 C27.8,117.9 50.1,112.2 75.7,107.7 C112.7,101.1 163.8,95.9 202.6,106.8 L202.6,106.8 Z" id="Shape" fill="#FFFFFF"></path>
                            <path d="M53.2,275.5 L33.8,265.2 C32.8,246.8 31.2,227.4 28.7,206.9 C27.4,196.3 25.9,185.4 24.1,174.3 C23.6,171.3 23.1,168.4 22.6,165.5 C20.4,152.8 18.1,140.6 15.5,128.8 C15.3,127.9 15.1,126.9 14.9,126 C14.6,124.6 14.3,123.2 14,121.8 C13.3,118.7 12.6,115.7 11.9,112.7 C15.6,109.1 21.9,106.1 32.7,106.6 C57.5,107.6 53.2,275.5 53.2,275.5 L53.2,275.5 Z" id="Shape" fill="url(#linearGradient-2)" opacity="0.03"></path>
                            <path d="M201.1,114.9 C188.8,181.3 176.4,247.8 164.1,314.2 L107.1,305.7 C92.2,274.9 67.8,222.7 76.9,202.3 C87.1,179.1 168.4,132.8 201.1,114.9 L201.1,114.9 Z" id="Shape" fill="url(#linearGradient-3)" opacity="0.13"></path>
                            <path d="M166.1,11.1 C151.4,14.6 124.4,19.8 116.7,12.9 C112.3,8.9 112.6,4.1 114.5,-0.3 C123.8,-0.1 132,1.2 138.8,2.8 C142.6,3.7 146,4.6 148.9,5.4 C155,7 160.7,9 166.1,11.1 L166.1,11.1 Z" id="Shape" fill="#19233D" opacity="0.08"></path>
                        </g>
                        <g id="legs_2_" transform="translate(0.000000, 236.000000)">
                            <g id="legs_1_" transform="translate(160.000000, 303.000000)">
                                <path d="M53.9,30.5 C54.1,35.5 50.9,37.1 45.3,45.6 C44.7,46.5 44.2,47.3 43.7,48.2 C34.1,63.9 36.1,73.5 22.7,97.3 C18.2,105.3 14.9,109.6 11.9,109.1 C11.8,109.1 11.6,109 11.5,109 C8.7,108.1 7,103.2 6.5,99.4 C6.5,99.1 6.4,98.9 6.4,98.6 L3.1,100.5 C3,100.6 2.9,100.6 2.8,100.6 C2.6,100.6 2.4,100.5 2.3,100.3 C2.1,100 2.2,99.7 2.5,99.6 L6.2,97.4 L6.2,96.2 L3,95.7 L0.3,95.3 C0,95.3 -0.2,95 -0.2,94.7 C-0.2,94.4 0.1,94.2 0.4,94.2 L4.5,94.8 L6.3,95.1 C6.4,94.5 6.5,94 6.6,93.4 C7.3,90.3 8.7,87.9 9.5,86.5 C13.8,78.6 16.5,69.8 17.9,61.7 L15.4,62.1 L15.3,62.1 C15,62.1 14.8,61.9 14.8,61.6 C14.8,61.3 15,61 15.3,61 L18.2,60.6 C18.3,59.8 18.4,59.1 18.5,58.4 L14.9,56.3 C14.6,56.1 14.6,55.8 14.7,55.6 C14.9,55.4 15.2,55.3 15.4,55.4 L18.6,57.3 C19.1,53.5 19.2,49.9 19.2,46.8 C19.1,44.3 19,40.6 18,36.5 L13,34.6 C12.7,34.5 12.6,34.2 12.7,33.9 C12.8,33.6 13.1,33.5 13.4,33.6 L17.7,35.2 C17.6,35 17.6,34.8 17.5,34.6 C16.4,31.1 14.7,27.5 11.7,24.2 C9.4,21.6 7,19.9 5.2,18.8 C5.1,18.7 5,18.6 4.8,18.5 C3.2,17.1 1.6,15.8 -0.1,14.4 C10.6,10.1 21.3,5.8 32,1.6 C32.8,2.4 33.9,3.5 35.2,4.9 C38.3,8.1 41,11 43.3,13.5 C44.7,15 45.9,16.4 47,17.7 C51.6,22.6 53.8,26.5 53.9,30.5 L53.9,30.5 Z" id="Shape" fill="#FC860A"></path>
                                <path d="M131.2,88.8 C131.2,89.1 130.9,89.3 130.6,89.3 L129.4,89.1 C129.3,90.4 129,91.7 128.7,93 L129.7,94 C129.9,94.2 129.9,94.5 129.7,94.8 C129.6,94.9 129.5,95 129.3,95 C129.1,95 129,94.9 128.9,94.8 L128.3,94.2 C127.8,95.5 127.3,96.7 126.6,97.6 C125.8,98.6 124.9,99.3 123.9,99.5 C117.8,100.6 108.5,82.3 97,59.7 C94.8,55.4 92.4,50.3 87.3,44.6 C86.8,44 86.3,43.5 85.8,43 C81.3,38.4 78.7,37.6 77,34.8 C76.8,34.5 76.6,34.2 76.5,33.8 C74.6,29.5 75.7,24.4 77.8,19.7 C79.5,16 81.8,12.6 83.7,10 L83.7,10 L81.7,8.3 C81.5,8.1 81.4,7.8 81.6,7.5 C81.8,7.3 82.1,7.3 82.4,7.4 L84.4,9.1 C85.1,8.2 85.8,7.4 86.3,6.8 L85.7,3.9 C85.6,3.6 85.8,3.3 86.1,3.3 C86.4,3.2 86.7,3.4 86.7,3.7 L87.1,5.8 C87.1,5.8 87.1,5.8 87.2,5.7 C88.3,4.4 89.5,3.4 90.7,2.6 L90.7,2.6 C102.6,-5.8 116.3,4.9 114.1,15.5 C113.1,20 112.1,25 111.9,31.6 C111.9,33.7 111.8,37.4 112.2,42 L115.4,40.3 C115.7,40.1 116,40.3 116.1,40.5 C116.2,40.8 116.1,41.1 115.9,41.2 L112.3,43.1 C112.4,43.6 112.4,44 112.5,44.5 L118,45.5 C118.3,45.6 118.5,45.8 118.4,46.1 C118.4,46.4 118.1,46.5 117.9,46.5 L117.8,46.5 L112.7,45.6 C113.6,52.6 115.8,61 120.5,68.9 L126.4,69.8 C126.7,69.8 126.9,70.1 126.9,70.4 C126.9,70.7 126.6,70.9 126.3,70.9 L121.3,70.2 C121.8,71 122.3,71.7 122.8,72.5 C123.4,73.4 124.1,74.2 124.7,75 L125.3,75.7 C125.4,75.8 125.4,75.9 125.4,76 C127.2,78.4 128.7,80.8 129.2,84.3 C129.4,85.5 129.4,86.7 129.4,87.9 L130.7,88.1 C131,88.2 131.2,88.5 131.2,88.8 L131.2,88.8 Z" id="Shape" fill="#FC860A"></path>
                                <path d="M53.9,30.5 C54.1,35.5 50.9,37.1 45.3,45.6 C44.7,46.5 44.2,47.3 43.7,48.2 C34.1,63.9 36.1,73.5 22.7,97.3 C18.2,105.3 14.9,109.6 11.9,109.1 C11.8,109.1 11.6,109 11.5,109 C23.8,91.8 41.1,37.6 47.3,17.6 C51.6,22.6 53.8,26.5 53.9,30.5 L53.9,30.5 Z" id="Shape" fill="url(#linearGradient-4)" opacity="0.27"></path>
                                <path d="M53.9,30.5 C54.1,35.5 50.9,37.1 45.3,45.6 C44.7,46.5 44.2,47.3 43.7,48.2 C42.2,46.5 40.9,44.3 39.9,41.3 C36,29.7 39.9,19.6 43.6,13.4 C50.3,20.6 53.8,25.5 53.9,30.5 L53.9,30.5 Z" id="Shape" fill="#19233D"></path>
                                <path d="M126.5,97.5 C125.7,98.5 124.8,99.2 123.8,99.4 C117.7,100.5 108.4,82.2 96.9,59.6 C94.7,55.3 92.3,50.2 87.2,44.5 C86.7,43.9 86.2,43.4 85.7,42.9 C80.7,37.7 78,37.4 76.4,33.7 C74.5,29.4 75.6,24.3 77.7,19.6 C81.6,22.1 87.1,26.3 92.5,32.6 C100.6,42.1 103.6,50.9 107.6,60.6 C111.5,69.7 117.4,82.4 126.5,97.5 L126.5,97.5 Z" id="Shape" fill="url(#linearGradient-5)" opacity="0.27"></path>
                                <path d="M86.2,42.4 C86.1,42.6 85.9,42.8 85.8,43 C80.8,37.8 78.1,37.5 76.5,33.8 C73.1,26.1 79.4,15.9 83.8,10.1 C88.4,15.7 95.7,28.1 86.2,42.4 L86.2,42.4 Z" id="Shape" fill="#19233D"></path>
                                <path d="M0.7,94.2 L4.8,94.8 C4.3,95.1 3.7,95.4 3.2,95.6 L0.5,95.2 C0.2,95.2 0,94.9 0,94.6 C0.1,94.3 0.4,94.1 0.7,94.2 L0.7,94.2 Z" id="Shape" fill="url(#linearGradient-6)" opacity="0.2"></path>
                                <path d="M19.5,79 C14.9,86 10.8,90.6 6.9,93.5 C7.6,90.4 9,88 9.8,86.6 C14.1,78.7 16.8,69.9 18.2,61.8 L15.7,62.2 L15.6,62.2 C15.3,62.2 15.1,62 15.1,61.7 C15.1,61.4 15.3,61.1 15.6,61.1 L18.5,60.7 C18.6,59.9 18.7,59.2 18.8,58.5 L15.2,56.4 C14.9,56.2 14.9,55.9 15,55.7 C15.2,55.5 15.5,55.4 15.7,55.5 L18.9,57.4 C19.4,53.6 19.5,50 19.5,46.9 C19.4,44.4 19.3,40.7 18.3,36.6 L13.3,34.7 C13,34.6 12.9,34.3 13,34 C13.1,33.7 13.4,33.6 13.7,33.7 L18,35.3 C17.9,35.1 17.9,34.9 17.8,34.7 C28.3,39.4 37.8,50.8 19.5,79 L19.5,79 Z" id="Shape" fill="url(#linearGradient-7)" opacity="0.1"></path>
                                <path d="M90.8,2.6 C90.1,3.4 80.9,20.5 77.1,34.7 C76.9,34.4 76.7,34.1 76.6,33.7 C74.7,29.4 75.8,24.3 77.9,19.6 C79.6,15.9 81.9,12.5 83.8,9.9 L83.8,9.9 L81.8,8.2 C81.6,8 81.5,7.7 81.7,7.4 C81.9,7.2 82.2,7.2 82.5,7.3 L84.5,9 C85.2,8.1 85.9,7.3 86.4,6.7 L85.8,3.8 C85.7,3.5 85.9,3.2 86.2,3.2 C86.5,3.1 86.8,3.3 86.8,3.6 L87.2,5.7 C87.2,5.7 87.2,5.7 87.3,5.6 C88.4,4.5 89.6,3.5 90.8,2.6 L90.8,2.6 Z" id="Shape" fill="url(#linearGradient-8)" opacity="0.1"></path>
                            </g>
                            <g id="legs">
                                <path d="M314.1,5.1 C303.6,74.3 293.1,143.6 282.6,212.8 C280.5,226.5 278.4,240.2 276.3,253.9 C273.5,255.4 269.5,257.4 264.5,259.3 C238.4,269 214.6,264.4 205.3,262.5 C187.7,258.9 172.2,251.3 159.5,243.1 C156.1,240.9 152.8,238.7 149.8,236.4 C133,224.1 122.8,212.7 121.4,214 C121.1,214.2 121.2,214.9 121.8,216.1 C125,222.9 143.3,246.6 195.7,307.6 L195.7,307.6 C190.3,312 185,316.4 179.6,320.8 C177.1,322.9 174.6,324.9 172.1,327 C169.8,325.1 167.5,323.2 165.3,321.3 C163.7,319.9 162.1,318.6 160.4,317.2 C120.8,283.7 89.2,253.2 65.5,229 C30.4,193.1 10.1,168.1 3.1,132.2 C1.6,124.4 -1.5,108.3 1.4,94.5 C2.8,87.9 5.6,81.7 10.6,77.3 C15.8,72.7 22.5,70.6 30,70.3 C34.8,70.1 39.9,70.5 45.1,71.4 C57.7,73.6 71.2,78.5 82.7,82.7 C113.9,94 126,106.7 175,135.7 C175.4,136 175.9,136.2 176.3,136.5 C195.7,148 211.7,156.9 221.5,162.3 C230.7,143.2 237.8,128.1 241.9,119.3 C266,68 272.6,52.3 288.4,32.3 C298.6,19.4 308.3,10.3 314.1,5.1 L314.1,5.1 Z" id="Shape" fill="#0D2A28"></path>
                                <path d="M314.1,5.1 C303.6,74.3 293.1,143.6 282.6,212.8 C280.5,226.5 278.4,240.2 276.3,253.9 C273.5,255.4 269.5,257.4 264.5,259.3 C238.4,269 214.6,264.4 205.3,262.5 C187.7,258.9 172.2,251.3 159.5,243.1 C156.1,240.9 152.8,238.7 149.8,236.4 C133,224.1 122.8,212.7 121.4,214 C121.1,214.2 121.2,214.9 121.8,216.1 C79.6,160.3 45.3,99.1 30,70.3 C34.8,70.1 39.9,70.5 45.1,71.4 C57.7,73.6 71.2,78.5 82.7,82.7 C113.9,94 126,106.7 175,135.7 C175.4,136 175.9,136.2 176.3,136.5 C195.7,148 211.7,156.9 221.5,162.3 C230.7,143.2 237.8,128.1 241.9,119.3 C266,68 272.6,52.3 288.4,32.3 C298.6,19.4 308.3,10.3 314.1,5.1 L314.1,5.1 Z" id="Shape" fill="#0B224C" opacity="0.09"></path>
                                <path d="M175,135.8 C173.1,136.1 171.4,136.4 169.9,136.6 C127.9,142.4 70.6,94.9 45.1,71.5 C57.7,73.7 71.2,78.6 82.7,82.8 C113.8,94.1 126,106.8 175,135.8 L175,135.8 Z" id="Shape" fill="url(#linearGradient-9)" opacity="0.08"></path>
                                <path d="M282.6,212.8 C280.5,226.5 278.4,240.2 276.3,253.9 C273.5,255.4 269.5,257.4 264.5,259.3 C238.4,269 214.6,264.4 205.3,262.5 C187.7,258.9 172.2,251.3 159.5,243.1 C183.6,242.6 241.5,238.5 282.6,212.8 L282.6,212.8 Z" id="Shape" fill="#0B224C" opacity="0.35"></path>
                                <path d="M354.9,96.3 C354.8,96.7 354.7,97 354.5,97.4 C354.2,98.2 354,99.1 353.7,99.9 L353.7,99.9 C352.1,104.8 350.3,110.2 348.2,116.1 C347.4,118.3 346.7,120.6 345.9,122.9 C344.7,126.3 343.5,129.8 342.2,133.4 C341.3,135.9 340.4,138.5 339.4,141.2 C337.7,146 336,150.9 334.2,155.9 L334.2,155.9 C333.7,157.3 333.2,158.7 332.7,160.1 C330.6,166 328.4,172.1 326.1,178.3 C326,178.5 325.9,178.8 325.8,179 C306.9,230.9 285.9,287.1 277.6,309 L277.6,309.1 C275.4,315 274.1,318.4 274.1,318.4 C270.3,317.1 266.6,315.8 262.9,314.4 C260.1,313.4 257.4,312.4 254.6,311.5 C252.1,310.6 249.7,309.8 247.2,308.9 C248.1,301.3 249.4,290.9 250.9,278.3 C251.2,275.9 251.5,273.4 251.8,270.8 C253.1,260.5 254.5,249 256,236.6 C256.8,229.7 257.7,222.6 258.6,215.2 C258.7,214.2 258.8,213.2 259,212.2 L259,212.2 C259.8,206.2 260.5,200 261.3,193.7 L261.3,193.7 C261.4,192.6 261.6,191.5 261.7,190.4 C263.6,175.2 265.6,159.3 267.6,143.1 C267.8,141.2 268.1,139.2 268.4,137.1 C268.7,134.9 269,132.5 269.3,130.1 C272.2,109 276.5,80.8 281.6,58 C281.7,57.7 281.7,57.5 281.8,57.2 C282.4,54.5 283,51.9 283.6,49.4 C285,43.7 286.5,38.5 288,34 C288.4,32.9 288.7,31.9 289.1,30.9 C290.9,26.1 292.7,22.5 294.5,20.3 C295.5,19.1 296.7,17.8 297.9,16.6 C299.5,15 301.3,13.3 303.3,11.7 C310.3,5.8 319.3,0.6 327.6,1.69857184e-13 C329.2,-0.1 330.7,-0.1 332.2,0.2 C332.7,0.3 333.1,0.4 333.6,0.5 C346.5,3.6 355.5,18.4 359.1,37.8 C359.5,40 359.9,42.3 360.1,44.6 C362.1,60.5 360.5,78.9 354.9,96.3 L354.9,96.3 Z" id="Shape" fill="#336859"></path>
                                <g id="Group" opacity="0.4" transform="translate(251.000000, 0.000000)" fill="#271C41">
                                    <g id="Shape">
                                        <path d="M103.5,97.4 C103.2,98.2 103,99.1 102.7,99.9 L101.9,97.9 L103.5,97.4 L103.5,97.4 Z"></path>
                                        <path d="M97.2,116.1 C96.4,118.3 95.7,120.6 94.9,122.9 L92.9,117.7 L97.2,116.1 L97.2,116.1 Z"></path>
                                        <path d="M91.2,133.4 C90.3,135.9 89.4,138.5 88.4,141.2 L87.1,141.7 L84.7,135.4 L91.1,133.2 L91.2,133.4 L91.2,133.4 Z"></path>
                                        <path d="M83.2,155.9 L83.2,155.9 C82.7,157.3 82.2,158.7 81.7,160.1 L78.1,161.4 L75.7,155.1 L82.1,152.9 L83.2,155.9 L83.2,155.9 Z"></path>
                                        <path d="M75.2,178.2 C75.1,178.4 75,178.7 74.9,178.9 L69,181 L66.6,174.7 L73,172.5 L75.2,178.2 L75.2,178.2 Z"></path>
                                        <polygon points="59.9 200.7 66.3 198.5 63.9 192.2 57.5 194.4"></polygon>
                                        <polygon points="50.5 221.2 56.9 219 54.4 212.7 48 214.9"></polygon>
                                        <polygon points="41.4 240.9 47.8 238.7 45.3 232.4 39 234.6"></polygon>
                                        <polygon points="32.3 260.6 38.7 258.4 36.3 252.1 29.9 254.3"></polygon>
                                        <polygon points="23.2 280.3 29.6 278.1 27.2 271.8 20.8 274"></polygon>
                                        <polygon points="15.1 298 21.5 295.8 19 289.5 12.6 291.7"></polygon>
                                        <path d="M11.9,314.3 C9.1,313.3 6.4,312.3 3.6,311.4 L9.9,309.2 L11.9,314.3 L11.9,314.3 Z"></path>
                                        <path d="M109.2,44.4 L107,45.2 L104.6,38.9 L108.2,37.6 C108.6,39.8 108.9,42.1 109.2,44.4 L109.2,44.4 Z"></path>
                                        <polygon points="97.9 64.9 104.3 62.7 101.8 56.4 95.4 58.6"></polygon>
                                        <polygon points="87.3 76.3 89.7 82.6 96.1 80.4 93.7 74"></polygon>
                                        <polygon points="78.2 96 80.7 102.3 87 100.1 84.6 93.7"></polygon>
                                        <polygon points="69.1 115.7 71.6 122 78 119.8 75.5 113.5"></polygon>
                                        <polygon points="62.5 141.7 68.9 139.5 66.4 133.2 60 135.4"></polygon>
                                        <polygon points="53 162.2 59.4 160 57 153.7 50.6 155.9"></polygon>
                                        <polygon points="44 181.9 50.3 179.7 47.9 173.4 41.5 175.6"></polygon>
                                        <polygon points="34.9 201.6 41.3 199.4 38.8 193.1 32.4 195.3"></polygon>
                                        <polygon points="25.8 221.3 32.2 219.1 29.7 212.8 23.4 215"></polygon>
                                        <polygon points="15.2 232.7 17.6 239 24 236.8 21.6 230.4"></polygon>
                                        <polygon points="6.1 252.4 8.6 258.7 15 256.5 12.5 250.2"></polygon>
                                        <path d="M5.9,276.2 L0,278.3 C0.3,275.9 0.6,273.4 0.9,270.8 L3.4,269.9 L5.9,276.2 L5.9,276.2 Z"></path>
                                        <polygon points="90.6 14.6 93 20.9 99.4 18.7 97 12.4"></polygon>
                                        <polygon points="81.4 34.5 83.9 40.8 90.3 38.5 87.8 32.2"></polygon>
                                        <polygon points="72.3 54.2 74.8 60.5 81.2 58.2 78.7 51.9"></polygon>
                                        <polygon points="63.3 73.9 65.7 80.2 72.1 78 69.7 71.6"></polygon>
                                        <polygon points="54.2 93.6 56.6 99.9 63 97.7 60.6 91.3"></polygon>
                                        <polygon points="46 111.3 48.5 117.6 54.9 115.3 52.4 109"></polygon>
                                        <polygon points="37 131 39.4 137.3 45.8 135 43.3 128.7"></polygon>
                                        <polygon points="27.9 150.7 30.3 157 36.7 154.7 34.3 148.4"></polygon>
                                        <polygon points="18.8 170.4 21.2 176.7 27.6 174.5 25.2 168.1"></polygon>
                                        <path d="M18.2,194.9 L11.8,197.1 L10.4,193.6 C10.5,192.5 10.7,191.4 10.8,190.3 L15.7,188.6 L18.2,194.9 L18.2,194.9 Z"></path>
                                        <path d="M9.1,214.6 L7.8,215.1 C7.9,214.1 8,213.1 8.2,212.1 L9.1,214.6 L9.1,214.6 Z"></path>
                                        <path d="M81.3,0.1 L77.3,1.5 L76.7,-0.1 C78.3,-0.2 79.8,-0.2 81.3,0.1 L81.3,0.1 Z"></path>
                                        <polygon points="65.8 14.9 68.3 21.2 74.7 18.9 72.2 12.6"></polygon>
                                        <polygon points="56.7 34.6 59.2 40.9 65.6 38.6 63.1 32.3"></polygon>
                                        <polygon points="55 50 48.6 52.2 51 58.6 57.4 56.3"></polygon>
                                        <polygon points="45.9 69.7 39.5 71.9 42 78.3 48.3 76"></polygon>
                                        <polygon points="36.8 89.4 30.4 91.7 32.9 98 39.3 95.7"></polygon>
                                        <polygon points="21.4 111.4 23.8 117.7 30.2 115.4 27.7 109.1"></polygon>
                                        <path d="M20.7,135.9 L17.5,137 C17.8,134.8 18.1,132.4 18.4,130 L20.7,135.9 L20.7,135.9 Z"></path>
                                        <path d="M54.1,15.9 L47.7,18.1 L47.1,16.4 C48.7,14.8 50.5,13.1 52.5,11.5 L54.1,15.9 L54.1,15.9 Z"></path>
                                        <path d="M45,35.6 L38.6,37.8 L37.1,33.9 C37.5,32.8 37.8,31.8 38.2,30.8 L42.6,29.3 L45,35.6 L45,35.6 Z"></path>
                                        <path d="M35.9,55.3 L30.9,57.1 C31.5,54.4 32.1,51.8 32.7,49.3 L33.5,49 L35.9,55.3 L35.9,55.3 Z"></path>
                                    </g>
                                    <g transform="translate(27.000000, 309.000000)" id="Shape">
                                        <path d="M-0.3,-0.1 L-0.3,4.16333634e-17 L-0.3,-0.1 L-0.3,-0.1 Z"></path>
                                    </g>
                                </g>
                                <path d="M265.6,232.4 C262.2,234.1 259.1,235.4 256.1,236.5 C259.5,208.8 263.5,176.6 267.7,143.1 C270.4,121.9 275.5,85.9 281.7,57.9 C291.3,94.7 315.8,207.3 265.6,232.4 L265.6,232.4 Z" id="Shape" fill="url(#linearGradient-10)" opacity="0.08"></path>
                                <path d="M179.5,320.9 C177,323 174.5,325 172,327.1 C169.7,325.2 167.4,323.3 165.2,321.4 C163.6,320 162,318.7 160.3,317.3 C120.7,283.8 89.1,253.3 65.4,229.1 C30.3,193.2 10,168.2 3,132.3 C1.5,124.5 -1.6,108.4 1.3,94.6 C29.4,128.3 150.1,283.2 179.5,320.9 L179.5,320.9 Z" id="Shape" fill="url(#linearGradient-11)" opacity="0.04"></path>
                            </g>
                        </g>
                        <g id="joystick" transform="translate(186.000000, 246.000000)">
                            <path d="M76.8,28.2 L76.8,28.5 C76.7,31 76.5,34.2 75.9,37.2 C75.6,38.4 75.3,39.5 74.8,40.5 L74.8,40.5 C74.1,42.1 73.1,43.5 71.8,44.5 C67.3,47.8 63.2,43 50.1,43.2 C48.5,43.2 45.8,43.3 42.5,43.7 C42.3,43.7 42,43.8 41.8,43.8 C41.6,43.8 41.3,43.9 41.1,43.9 C40.7,44 40.3,44 39.9,44.1 C39.4,44.2 39,44.3 38.5,44.4 C38.1,44.5 37.7,44.6 37.3,44.7 C37.1,44.8 36.8,44.8 36.6,44.9 C36.5,44.9 36.4,44.9 36.4,45 C36.1,45.1 35.9,45.1 35.6,45.2 C35.3,45.3 34.9,45.4 34.6,45.5 C34.1,45.6 33.7,45.8 33.2,46 C32.5,46.2 31.8,46.5 31.2,46.8 C31,46.9 30.8,46.9 30.7,47 C29.7,47.4 28.7,47.9 27.9,48.3 C27.7,48.4 27.4,48.5 27.2,48.7 C26.7,49 26.2,49.3 25.7,49.6 C24.8,50.2 24,50.7 23.2,51.2 C22.8,51.5 22.4,51.8 22,52 C21.8,52.1 21.7,52.2 21.5,52.3 C21.3,52.4 21.2,52.5 21,52.6 C20.7,52.8 20.4,52.9 20.1,53.1 C20,53.1 20,53.2 19.9,53.2 L19.9,53.2 C19.5,53.4 19.2,53.5 18.8,53.6 C17.9,53.8 16.9,53.9 15.7,53.8 C8,52.8 3.3,43.2 2.7,42 C2.1,40.8 0.1,37 0.2,31.7 C0.5,20.5 7.7,7 14.9,6 C18.9,5.4 23.7,8.7 24.8,9.5 C27.9,11.9 30.6,15.5 32.4,19.8 L32.4,19.8 L41.2,18.4 C41.4,15.4 42.1,12.7 43.1,10.2 C43.7,8.7 44.4,7.4 45.2,6.2 C45.9,5.2 49.4,0.6 53.5,-0.2 C56.1,-0.7 59.3,0.3 62.4,2.3 C65.6,4.3 68.7,7.3 71.3,10.7 C72.3,12.1 73.3,13.6 74.1,15 C75,16.6 75.7,18.3 76.3,19.9 C77.2,23.2 76.9,26.2 76.8,28.2 L76.8,28.2 Z" id="Shape" fill="#BDD3DE"></path>
                            <path d="M76.8,28.2 L76.8,28.5 C76.7,31 76.5,34.2 75.9,37.2 C75.3,38.9 75.1,39.8 74.8,40.5 L74.8,40.5 C74.1,42.1 73.1,43.5 71.8,44.5 C67.3,47.8 63.2,43.1 50.2,43.2 L50,43.2 C48.6,43.2 45.9,43.2 42.4,43.7 C42.2,43.7 41.9,43.8 41.7,43.8 C41.5,43.8 41.2,43.9 41,43.9 C40.6,44 40.2,44 39.8,44.1 C39.3,44.2 38.9,44.3 38.4,44.4 C38,44.5 37.6,44.6 37.2,44.7 C37,44.8 36.7,44.8 36.5,44.9 C36.4,44.9 36.3,44.9 36.3,45 C36,45.1 35.8,45.1 35.5,45.2 C35.2,45.3 34.8,45.4 34.5,45.5 C34,45.6 33.6,45.8 33.1,46 C32.4,46.2 31.7,46.5 31.1,46.8 C30.9,46.9 30.7,46.9 30.6,47 C29.6,47.4 28.6,47.9 27.8,48.3 C27.6,48.4 27.3,48.5 27.1,48.7 C26.6,49 26.1,49.3 25.6,49.6 C24.7,50.2 23.9,50.7 23.1,51.2 C22.7,51.5 22.3,51.8 21.9,52 C21.7,52.1 21.6,52.2 21.4,52.3 C21.2,52.4 21.1,52.5 20.9,52.6 C20.6,52.8 20.3,52.9 20,53.1 C19.9,53.1 19.9,53.2 19.8,53.2 C19.4,53.4 19.1,53.5 18.7,53.6 C17.8,53.8 16.8,53.9 15.6,53.8 C7.9,52.8 3.2,43.2 2.6,42 C2,40.8 -2.93112756e-13,37 0.1,31.7 C1.7,32.9 3.5,34.1 5.6,35.3 C12.2,38.9 18.8,40.1 24.7,40.3 C31.3,40.5 37,39.4 40.8,38.6 C44,38 47.4,37.1 50.8,35.9 C61.3,32.3 71.5,26.6 76.1,20 C77.2,23.2 76.9,26.2 76.8,28.2 L76.8,28.2 Z" id="Shape" fill="#0B224C" opacity="0.35"></path>
                            <ellipse id="Oval" fill="#0B224C" opacity="0.35" transform="translate(13.032100, 28.033900) rotate(-9.172200) translate(-13.032100, -28.033900) " cx="13.0321" cy="28.0339" rx="7.9998888" ry="5.9999166"></ellipse>
                            <ellipse id="Oval" fill="#0B224C" opacity="0.35" transform="translate(16.492400, 11.974300) rotate(-9.172200) translate(-16.492400, -11.974300) " cx="16.4924" cy="11.9743" rx="5.49992355" ry="3.9999444"></ellipse>
                            <ellipse id="Oval" fill="#0B224C" opacity="0.35" transform="translate(53.549800, 7.024300) rotate(-9.172200) translate(-53.549800, -7.024300) " cx="53.5498" cy="7.0243" rx="5.49992355" ry="3.9999444"></ellipse>
                            <ellipse id="Oval" fill="#FC860A" transform="translate(62.472100, 20.026300) rotate(-9.172200) translate(-62.472100, -20.026300) " cx="62.4721" cy="20.0263" rx="6.49990965" ry="4.9999305"></ellipse>
                            <ellipse id="Oval" fill="#FC860A" transform="translate(34.536534, 32.006570) rotate(-1.243854) translate(-34.536534, -32.006570) " cx="34.5365339" cy="32.0065701" rx="2.50008912" ry="2.00007129"></ellipse>
                            <ellipse id="Oval" fill="#FC860A" transform="translate(35.537083, 26.007862) rotate(-1.243854) translate(-35.537083, -26.007862) " cx="35.5370835" cy="26.0078617" rx="2.50008912" ry="2.00007129"></ellipse>
                            <ellipse id="Oval" fill="#FC860A" transform="translate(43.541009, 29.004994) rotate(-1.243854) translate(-43.541009, -29.004994) " cx="43.5410087" cy="29.0049944" rx="2.50008912" ry="2.00007129"></ellipse>
                            <path d="M76.8,28.2 L76.8,28.5 C76.7,31 76.5,34.2 75.9,37.2 C75.6,38.4 75.3,39.5 74.8,40.5 L74.8,40.5 C74.1,42.1 73.1,43.5 71.8,44.5 C67.3,47.8 63.2,43 50.1,43.2 C48.5,43.2 45.8,43.3 42.5,43.7 C42.3,43.7 42,43.8 41.8,43.8 C41.6,43.8 41.3,43.9 41.1,43.9 C40.7,44 40.3,44 39.9,44.1 C39.4,44.2 39,44.3 38.5,44.4 C38.1,44.5 37.7,44.6 37.3,44.7 C37.1,44.8 36.8,44.8 36.6,44.9 C36.5,44.9 36.4,44.9 36.4,45 C36.1,45.1 35.9,45.1 35.6,45.2 C35.3,45.3 34.9,45.4 34.6,45.5 C34.1,45.6 33.7,45.8 33.2,46 C32.5,46.2 31.8,46.5 31.2,46.8 C31,46.9 30.8,46.9 30.7,47 C29.7,47.4 28.7,47.9 27.9,48.3 C27.7,48.4 27.4,48.5 27.2,48.7 C26.7,49 26.2,49.3 25.7,49.6 C24.8,50.2 24,50.7 23.2,51.2 C22.8,51.5 22.4,51.8 22,52 C21.8,52.1 21.7,52.2 21.5,52.3 C21.3,52.4 21.2,52.5 21,52.6 C20.7,52.8 20.4,52.9 20.1,53.1 C20,53.1 20,53.2 19.9,53.2 C19.8,53.1 19.8,53.1 19.7,53.1 C19.6,53.1 19.5,53.2 19.5,53.2 L19.5,53.2 L24.5,40.2 L32.4,19.8 L32.4,19.8 L41.2,18.4 C41.6,13.7 43,9.5 45.2,6.2 C45.9,5.2 49.4,0.6 53.5,-0.2 C56.1,-0.7 59.3,0.3 62.4,2.3 C65.6,4.3 68.7,7.3 71.3,10.7 C73.5,13.6 75.2,16.8 76.3,20 C77.2,23.2 76.9,26.2 76.8,28.2 L76.8,28.2 Z" id="Shape" fill="#0B224C" opacity="0.16"></path>
                            <path d="M74,14.9 L43,10.1 C43.6,8.6 44.3,7.3 45.1,6.1 C45.8,5.1 49.3,0.5 53.4,-0.3 C56,-0.8 59.2,0.2 62.3,2.2 C65.5,4.2 68.6,7.2 71.2,10.6 C72.2,12 73.2,13.4 74,14.9 L74,14.9 Z" id="Shape" fill="url(#linearGradient-12)" opacity="0.32"></path>
                            <path d="M76.8,28.2 L76.8,28.5 C76.7,31 76.5,34.2 75.9,37.2 C75.3,38.9 75.1,39.8 74.8,40.5 L74.8,40.5 C74.1,42.1 73.1,43.5 71.8,44.5 C67.3,47.8 63.2,43.1 50.2,43.2 L50.9,35.7 C61.4,32.1 71.6,26.4 76.2,19.8 C77.2,23.2 76.9,26.2 76.8,28.2 L76.8,28.2 Z" id="Shape" fill="url(#linearGradient-13)" opacity="0.32"></path>
                        </g>
                        <g id="hands_1_" transform="translate(159.000000, 235.000000)">
                            <path d="M53.7,54.6 C53.7,54.6 52.1,55.5 49.8,56.8 C47.5,58.1 44.6,59.7 42.1,61.1 C38.9,62.9 36.3,64.3 36.3,64.3 C35.9,64.2 35.6,64.1 35.2,64 C33,65.2 31.2,65.3 30.2,65.3 C25.2,65.2 21.2,61 17.9,56.5 C16.9,55.2 16,53.9 15.2,52.6 C13.7,50.3 12.6,48.4 12,47.2 L8.8,44 C8.8,41.8 8.4,37.6 6.1,33.1 C4.2,29.4 1.8,27 0.2,25.7 C0.6,25.4 3,23.4 6.2,21.2 C6.7,20.9 7.2,20.5 7.7,20.2 C13.7,16.2 21.7,11.7 26.1,13.2 C26.3,13.3 27.8,13.8 29.9,14.7 C30.6,15 31.3,15.3 32.1,15.7 C35.8,17.5 35.9,17.9 38.2,18.9 C43.3,21.1 46.7,20.4 47,21.6 L47,21.6 C47.2,22.7 44.7,24.3 42.7,25.1 C37.2,27.1 31.7,24.1 29.9,23 L29.9,23 C29.3,23.6 18.7,35.4 19.2,42.8 C19.7,49.8 33.8,57.4 35.3,57.1 C35.4,57.1 35.4,57.1 35.4,57 L35.4,56.8 C35.3,55.4 41.1,52.7 47.3,52.8 C48.1,52.8 50.4,52.9 52.1,53.3 C52.8,53.6 53.6,54 53.7,54.6 L53.7,54.6 Z" id="Shape" fill="#CD907F"></path>
                            <path d="M118.5,34.1 C118.2,34.8 117.9,35.5 117.5,36.2 C117.5,36.2 116.2,40.3 114.1,44.5 C112,48.7 109.2,52.9 106.1,53.2 C104.3,53.3 102.6,53.3 101,53.2 C100.7,53.4 100.3,53.6 100,53.7 C100,53.7 97.1,52.9 93.6,51.9 L93.6,51.9 C88,50.4 80.8,48.4 80.8,48.4 C80.8,47.9 81.3,47.4 82.1,46.9 C83.6,46 86.1,45.4 87,45.1 C91,44 92.8,46.2 99.5,46.2 C101.6,46.2 102.6,46.2 103.4,45.9 C103.5,45.8 103.6,45.8 103.8,45.7 C108.4,43.3 109.4,33.7 107.6,26.5 C107.5,26.2 107.4,25.9 107.4,25.6 C105.2,18.2 99.6,13.8 96.9,12 C95.7,13.6 93.8,15.8 90.7,17.4 C85.4,20.2 79.3,20 78,19.1 C77.9,19 77.8,18.9 77.8,18.8 C77.7,18.2 79.1,17.8 84,14.3 C86.4,12.6 87.6,11.7 88.3,10.8 C89.4,9.4 89.5,8.4 90.5,6.6 C90.8,6.1 91.1,5.5 91.5,4.8 C91.5,4.8 92.4,3.3 93.4,2 C94.9,0.1 99.9,-0.1 106.7,1.1 C109.4,1.6 112.4,2.2 115.7,3.1 C117.5,3.6 119.3,4.1 121.1,4.6 C121.4,7.2 124.2,20.8 118.5,34.1 L118.5,34.1 Z" id="Shape" fill="#CD907F"></path>
                            <path d="M118.5,34.1 L115.4,3 C117.2,3.5 119,4 120.8,4.5 C121.4,7.2 124.2,20.8 118.5,34.1 L118.5,34.1 Z" id="Shape" fill="#19233D" opacity="0.15"></path>
                            <path d="M17.9,56.5 C16.9,55.2 16,53.9 15.2,52.6 C13.7,50.3 12.6,48.4 12,47.2 L8.8,44 C8.8,41.8 8.4,37.6 6.1,33.1 C4.2,29.4 1.8,27 0.2,25.7 C0.6,25.4 3,23.4 6.2,21.2 L17.9,56.5 L17.9,56.5 Z" id="Shape" fill="#19233D" opacity="0.15"></path>
                            <path d="M42.4,25.1 C36.9,27.1 31.4,24.1 29.6,23 C30.3,21.4 31.9,19.9 35.9,20.8 C40.7,21.9 44.6,21.8 46.8,21.6 L46.8,21.6 C47,22.8 44.4,24.4 42.4,25.1 L42.4,25.1 Z" id="Shape" fill="#19233D" opacity="0.08"></path>
                            <path d="M51.7,53.3 C48.6,54.4 42.9,56.4 39.9,57.9 C37.7,59 36.1,58.1 35,57 C35.1,57 35.1,57 35.1,56.9 L35.1,56.7 C35,55.3 40.8,52.6 47,52.7 C47.7,52.9 50,52.9 51.7,53.3 L51.7,53.3 Z" id="Shape" fill="#19233D" opacity="0.08"></path>
                            <path d="M108.7,25.7 C108.5,25.9 107.9,26.2 107.4,26.4 C107.3,26.1 107.2,25.8 107.2,25.5 C105,18.1 99.4,13.7 96.7,11.9 C95.5,13.5 93.6,15.7 90.5,17.3 C85.2,20.1 79.1,19.9 77.8,19 C80.4,18.6 83.7,17.8 87.2,16 C93.6,12.7 94.5,9.5 98,9.5 C105,9.7 110.6,24 108.7,25.7 L108.7,25.7 Z" id="Shape" fill="#19233D" opacity="0.08"></path>
                            <path d="M103.6,45.7 C100.7,49.9 90.4,48.2 84,47.2 C83.2,47.1 82.6,47 82.1,46.8 C83.6,45.9 86.1,45.3 87,45 C91,43.9 92.8,46.1 99.5,46.1 C101.6,46.1 102.6,46.1 103.4,45.8 C103.4,45.8 103.5,45.7 103.6,45.7 L103.6,45.7 Z" id="Shape" fill="#19233D" opacity="0.08"></path>
                            <path d="M29.7,14.7 C29.5,15.1 29.3,15.6 29.1,16 C23.6,27 12.9,23.1 7.6,20.2 C13.6,16.2 21.6,11.7 26,13.2 C26.1,13.3 27.6,13.8 29.7,14.7 L29.7,14.7 Z" id="Shape" fill="url(#linearGradient-14)" opacity="0.16"></path>
                            <path d="M106.4,1 C105.2,5.9 96.1,6.6 90.2,6.6 C90.5,6.1 90.8,5.5 91.2,4.8 C91.2,4.8 92.1,3.3 93.1,2 C94.6,1.16018306e-14 99.6,-0.2 106.4,1 L106.4,1 Z" id="Shape" fill="url(#linearGradient-15)" opacity="0.16"></path>
                        </g>
                        <g id="hands" transform="translate(28.000000, 122.000000)">
                            <path d="M390.4,127.9 C390.4,127.9 389.9,128.8 389.3,129.7 C381.5,140.6 347.9,144.5 319.6,145.8 C296.9,146.8 277.5,146.2 277.5,146.2 C273.4,146.1 269.6,145.9 266,145.8 C260.1,145.6 254.9,145.3 250.6,145.1 L250.6,117.1 C254.1,116.5 257.9,115.8 262.2,115.1 C275.7,112.9 292.9,110.8 313,109.5 C333.8,108.2 343.4,108.4 344.2,105.2 C345.4,100.8 330,90.1 254.9,62.2 C262.2,43.4 269.4,24.5 276.7,5.7 C280.5,7.6 284.1,9.5 287.7,11.4 C313,25.1 332,39.3 345.3,50.4 C352.2,56.1 358,61.4 362.9,66.3 C365.5,68.9 367.8,71.3 370,73.7 C387.4,93 390.5,105.8 391.3,114 C391.9,120.9 392.2,124.3 390.4,127.9 L390.4,127.9 Z" id="Shape" fill="#19233D"></path>
                            <path d="M135.4,135.5 C138.3,144.5 141.1,153.4 144,162.4 C138.5,164.3 133.3,166.1 128.2,167.7 C125.3,168.7 122.4,169.6 119.6,170.5 C38,196.4 10.7,191.5 3.1,179.6 C-5.2,166.7 5,140.1 26.5,110.3 C30.4,104.8 34.8,99.2 39.5,93.6 C62.9,65.4 94.8,36.1 129.4,14.4 C129.6,14.2 129.9,14.1 130.1,14 C132,12.8 133.8,11.7 135.6,10.6 C141.5,7.1 146.9,4.1 151.5,1.7 L151.5,1.7 C152.7,1.1 153.8,0.5 154.9,0 C147.7,23.3 140.6,46.6 133.4,69.9 C130.9,76 128.4,82.1 125.9,88.2 C120.2,91.2 113.5,95.1 106.3,99.8 C99,104.6 91.1,110.4 82.9,117.2 C73.8,124.9 55.1,140.6 58.2,146.3 C59.9,149.4 71.5,147.1 94.8,143.1 C102,141.8 108.6,140.6 114.7,139.5 C118.4,138.8 121.9,138.2 125.2,137.6 C128.7,136.7 132.2,136.1 135.4,135.5 L135.4,135.5 Z" id="Shape" fill="#19233D"></path>
                            <path d="M265.9,145.8 C260,145.6 254.8,145.3 250.5,145.1 L250.5,117.1 C254,116.5 257.8,115.8 262.1,115.1 L265.9,145.8 L265.9,145.8 Z" id="Shape" fill="#FFFFFF"></path>
                            <path d="M144,162.4 C138.5,164.3 133.3,166.1 128.2,167.7 L124.8,137.5 C128.7,136.8 132.2,136.1 135.3,135.5 C138.2,144.4 141.1,153.4 144,162.4 L144,162.4 Z" id="Shape" fill="#FFFFFF"></path>
                            <path d="M129.3,14.3 L129.3,16.1 C129.1,19.6 128.7,23.2 127.9,26.8 C124.7,41 112.7,53.8 97.1,64.6 C95.7,65.5 94.4,66.5 92.9,67.4 C76.3,78.3 56.5,87.1 39.4,93.5 C62.7,65.3 94.6,36.1 129.3,14.3 L129.3,14.3 Z" id="Shape" fill="url(#linearGradient-16)" opacity="0.07"></path>
                            <path d="M390.4,127.9 C390.4,127.9 389.9,128.8 389.3,129.7 C381.5,140.6 347.9,144.5 319.6,145.8 C330.9,139.5 344.6,132 360.3,123.6 C380.2,113 378.7,93.3 369.9,73.7 C387.3,93 390.4,105.8 391.2,114 C391.9,120.9 392.2,124.3 390.4,127.9 L390.4,127.9 Z" id="Shape" fill="url(#linearGradient-17)" opacity="0.32"></path>
                            <path d="M362.8,66.4 C360.7,67.3 358.4,68.1 355.9,68.8 C319.2,79.5 297.2,37.1 287.5,11.5 C312.8,25.2 331.8,39.4 345.1,50.5 C352,56.2 357.9,61.5 362.8,66.4 L362.8,66.4 Z" id="Shape" fill="url(#linearGradient-18)" opacity="0.14"></path>
                        </g>
                        <g id="neck" transform="translate(195.000000, 77.000000)">
                            <path d="M34.3,78 C27.3,81.9 16.3,83.3 9.4,78 C8.1,77 7.1,75.9 6.3,74.6 C4.4,71.5 3.6,67 3,59.8 C2.7,55.5 2.4,50.3 2.1,43.8 C2,41.2 1.8,37.8 1.6,33.8 C1.4,30.5 1.3,26.8 1.1,22.7 C0.8,16.7 0.4,9.9 0,2.4 C15.5,1.4 31.1,0.5 46.6,-0.5 C47.3,7.7 49.7,36.9 49.7,37.6 C49.9,43 50.3,68.9 34.3,78 L34.3,78 Z" id="Shape" fill="#CD907F"></path>
                            <path d="M1.2,22.6 C1.6,31.7 2,38.9 2.2,43.7 C2.5,50.2 2.7,55.4 3.1,59.7 C23.7,66.4 29.2,19.9 29.2,19.9 L1.2,22.6 L1.2,22.6 Z" id="Shape" fill="#19233D" opacity="0.15"></path>
                            <path d="M8.2,62.1 C8,67.9 7.3,71.9 6.4,74.6 C4.5,71.5 3.7,67 3.1,59.8 C2.8,55.5 2.5,50.3 2.2,43.8 C2.1,41.2 1.9,37.8 1.7,33.8 C5,36.6 8.8,43.8 8.2,62.1 L8.2,62.1 Z" id="Shape" fill="url(#linearGradient-19)" opacity="0.18"></path>
                        </g>
                        <g id="head" transform="translate(173.000000, 0.000000)">
                            <g id="face">
                                <path d="M75.6,53.7 C74.5,60.6 73.9,61.1 71.3,75 C70.3,80.2 69.5,84.7 68.9,88.4 C68.8,89.1 68.7,89.8 68.5,90.5 C67.1,92.2 61.6,98.9 53.6,104.9 C46.8,110 36.7,116.8 24.4,115.4 C24.1,115.4 23.7,115.3 23.4,115.3 C20.9,114.9 10.7,113 5.3,104.7 C3.8,102.4 3.3,100.5 2.5,94.2 C2.4,92.9 2.2,91.3 2,89.6 C2,89.6 1,79.7 0.5,67.9 C0.1,59.6 -0.1,50.3 0.4,43 C0.5,41.7 0.6,40.4 0.6,40.4 L0.6,39.9 C0.7,38.6 0.8,37.3 1,36.1 C1.1,35.3 1.2,34.6 1.3,33.8 C1.4,32.8 2.8,26.3 6.2,19.7 C7.8,16.4 10,13 12.7,10.3 C13,10 13.2,9.8 13.5,9.5 C26.8,-2.9 52.9,-2.6 66.6,10 C72.1,15 74.4,21 75.2,22.9 C79,32.2 77.7,40.6 75.6,53.7 L75.6,53.7 Z" id="Shape" fill="#CD907F"></path>
                                <path d="M13.7,9.5 C9.5,22.7 3.6,44.3 0.7,67.9 C0.3,59.6 0.1,50.3 0.6,43 C0.7,41.7 0.8,40.4 0.8,40.4 L0.8,39.9 C0.9,38.6 1,37.3 1.2,36.1 C1.3,35.3 1.4,34.6 1.5,33.8 C1.6,32.8 3,26.3 6.4,19.7 C8,16.4 10.2,13 12.9,10.3 C13.1,10 13.4,9.8 13.7,9.5 L13.7,9.5 Z" id="Shape" fill="url(#linearGradient-20)" opacity="0.3"></path>
                                <path d="M24.5,115.4 C24.2,115.4 23.8,115.3 23.5,115.3 C21,114.9 10.8,113 5.4,104.7 C3.9,102.4 3.4,100.5 2.6,94.2 L24.5,115.4 L24.5,115.4 Z" id="Shape" fill="url(#linearGradient-21)" opacity="0.1"></path>
                            </g>
                            <path d="M15.6,91.3 C14.8,91.3 14.1,91.2 13.5,91.2 C13.1,91.2 12.9,90.8 12.9,90.5 C12.9,90.1 13.3,89.9 13.6,89.9 C15.5,90.2 18.4,90.2 21.4,88.8 C26.8,86.4 28.7,81.2 29.2,79.7 C29.3,79.4 29.7,79.2 30,79.3 C30.3,79.4 30.5,79.8 30.4,80.1 C29.9,81.7 27.8,87.3 21.9,90 C19.6,91 17.4,91.3 15.6,91.3 L15.6,91.3 Z" id="smile" fill="#302C34"></path>
                            <g id="eyes" transform="translate(4.000000, 52.000000)" fill="#302C34">
                                <circle id="Oval" cx="24" cy="3" r="3"></circle>
                                <circle id="Oval" cx="3" cy="3" r="3"></circle>
                            </g>
                            <g id="brows" transform="translate(1.000000, 35.000000)" fill="#302C34">
                                <polygon id="Rectangle-path" transform="translate(33.147750, 5.645150) rotate(161.572299) translate(-33.147750, -5.645150) " points="21.1480446 4.14518683 21.1480446 7.14511317 45.5474456 7.14511317 45.5474456 4.14518683"></polygon>
                                <path d="M10.7,8.5 L9.8,11.3 L-0.4,7.9 C-0.3,7 -0.3,6.2 -0.2,5.3 L-0.2,4.8 L10.7,8.5 L10.7,8.5 Z" id="Shape"></path>
                            </g>
                            <path d="M75.6,53.7 C74.9,58.4 74.3,60.1 73.3,65.1 C72.2,70.3 71.5,72.8 71.3,75 C70.9,78.9 71.5,79.8 71,84.2 C70.7,87 70.3,89.2 69.9,90.7 C69.4,88.4 69.1,85.9 68.8,83.2 C68,73.8 69.3,65.7 71,59.5 C66.3,60.6 61.7,61.7 57,62.7 C55.8,61.1 49,51.5 51.6,39 C53.3,30.9 58.1,25.9 60.2,23.9 C53.4,21.2 43,18 30.1,17.4 C20.5,17 12.4,18.2 6.3,19.6 C7.9,16.3 10.1,12.9 12.8,10.2 C25.8,-3 52.7,-3 66.7,9.9 C72.2,14.9 74.5,20.9 75.3,22.8 C79,32.2 77.7,40.6 75.6,53.7 L75.6,53.7 Z" id="hair" fill="#302C34"></path>
                            <g id="ear" transform="translate(55.000000, 45.000000)">
                                <path d="M0.1,13 L0.1,13 C0.9,18.2 5,22.9 10.6,23.1 C17,23.4 22.2,17.7 22.2,11.5 C22.2,8.6 21.1,5.8 19.2,3.7 C17.1,1.2 13.9,-0.3 10.6,-0.2 C5.4,-1.20459198e-14 1.2,4.3 0.2,9.1 C0.1,9.5 -1.26065824e-13,9.9 -1.26065824e-13,10.4 C-0.1,11.3 -0.1,12.1 0.1,13 L0.1,13 Z" id="Shape" fill="#CD907F"></path>
                                <path d="M0.1,13 L0.1,13 C0.5,14.7 1.1,16.3 2,17.9 C7.8,13.2 13.5,8.4 19.3,3.7 C17.2,1.2 14,-0.3 10.7,-0.2 C5.5,4.48252546e-14 1.3,4.3 0.3,9.1 C0.2,9.5 0.1,9.9 0.1,10.4 C-0.1,11.3 -0.1,12.1 0.1,13 L0.1,13 Z" id="Shape" fill="#19233D" opacity="0.08"></path>
                            </g>
                            <g id="nose" transform="translate(6.000000, 53.000000)">
                                <path d="M13.4,25.9 C9.6,26.7 4.5,27.3 1.9,26.1 C1.3,25.8 0.8,25.4 0.5,24.9 C-0.6,22.9 1.5,20.2 4.8,14.1 C8,8.2 10.2,3.1 11.6,-0.3 L11.6,-0.2 C12.2,8.4 12.8,17.1 13.4,25.9 L13.4,25.9 Z" id="Shape" fill="#A2625E"></path>
                                <path d="M11.6,-0.4 L11.6,-0.4 L1.9,26 C1.3,25.7 0.8,25.3 0.5,24.8 C-0.6,22.8 1.5,20.1 4.8,14 C8,8.1 10.2,3 11.6,-0.4 L11.6,-0.4 Z" id="Shape" fill="url(#linearGradient-22)" opacity="0.12"></path>
                            </g>
                        </g>
                    </g>
                    <g id="tv" transform="translate(0.000000, 146.000000)">
                        <path d="M394.1,0.1 L14.8,22.8 C13.6,22.9 12.4,23.3 11.4,24 L11.4,24 L11.4,24 C10.9,24.3 1,30.6 0.5,39.2 L7.6,38.8 L7.6,315.5 C7.6,320 10.8,324 14.8,324.4 L391.1,363 L395.1,370.8 L402.2,360.5 C403.7,358.9 404.7,356.8 404.7,354.4 L404.7,9.3 C404.6,3.9 399.8,-0.3 394.1,0.1 L394.1,0.1 Z" id="Shape" fill="#9DB5C4"></path>
                        <path d="M386.5,374 L7.2,335.1 C3.2,334.7 0,330.7 0,326.2 L0,42.1 C0,37.6 3.2,33.8 7.2,33.5 L386.5,10.8 C392.3,10.5 397,14.6 397,20.1 L397,365.2 C397.1,370.7 392.3,374.6 386.5,374 L386.5,374 Z" id="Shape" fill="#BDD3DE"></path>
                        <path d="M397.1,20.1 L397.1,365.2 C397.1,370.6 392.3,374.6 386.6,374 L223.1,357.2 L7.2,335.1 C4.8,334.9 2.7,333.3 1.4,331.2 C0.5,329.8 0,328 0,326.2 L0,42.1 C0,37.6 3.2,33.8 7.2,33.5 L386.5,10.8 C389.4,10.6 392.1,11.6 394,13.3 C395.9,15 397.1,17.4 397.1,20.1 L397.1,20.1 Z" id="Shape" fill="url(#linearGradient-23)" opacity="0.63"></path>
                        <path d="M397.1,20.1 L397.1,365.2 C397.1,370.6 392.3,374.6 386.6,374 L7.3,335.1 C4.9,334.9 2.8,333.3 1.5,331.2 L394,13.4 C395.9,15 397.1,17.4 397.1,20.1 L397.1,20.1 Z" id="Shape" fill="url(#linearGradient-24)" opacity="0.09"></path>
                        <path d="M397.1,93.9 L397.1,365.2 C397.1,370.6 392.3,374.6 386.6,374 L223.1,357.2 C283.7,264.8 360.3,148.5 397.1,93.9 L397.1,93.9 Z" id="Shape" fill="url(#linearGradient-25)" opacity="0.16"></path>
                        <path d="M173.9,187.6 L134.2,296 L53.1,517.4 C58.2,519.9 61.5,525.3 61.1,531.3 C60.6,539.3 53.7,545.3 45.7,544.8 C37.7,544.3 31.7,537.4 32.2,529.4 C32.7,521.4 39.6,515.4 47.6,515.9 L47.8,515.9 L130,291.8 L168.8,185.7 C169.3,184.3 170.9,183.6 172.3,184.1 C173.7,184.6 174.5,186.2 173.9,187.6 L173.9,187.6 Z" id="Shape" fill="#19233D"></path>
                        <path d="M306.7,557.3 C298.5,558.1 291.2,552.1 290.4,543.9 C289.8,537.8 292.9,532.2 297.9,529.4 L266,429.3 L188.7,186.3 C188.2,184.8 189,183.2 190.5,182.8 C192,182.3 193.6,183.1 194,184.6 L274.6,438.1 L303.1,527.7 C303.3,527.7 303.5,527.6 303.6,527.6 C311.8,526.8 319.1,532.8 319.9,541 C320.9,549.2 314.9,556.5 306.7,557.3 L306.7,557.3 Z" id="Shape" fill="#19233D"></path>
                        <path d="M173.9,187.6 L134.2,296 L130,291.7 L168.8,185.6 C169.3,184.2 170.9,183.5 172.3,184 C173.7,184.5 174.5,186.2 173.9,187.6 L173.9,187.6 Z" id="Shape" fill="#19233D" opacity="0.1"></path>
                        <path d="M274.7,438.1 L266,429.3 L188.7,186.3 C188.2,184.8 189,183.2 190.5,182.8 C192,182.3 193.6,183.1 194,184.6 L274.7,438.1 L274.7,438.1 Z" id="Shape" fill="#19233D" opacity="0.1"></path>
                    </g>
                </g>
            </g>
        </g>
    </g>
</svg>